<svg xmlns="http://www.w3.org/2000/svg" height="512pt" version="1.1" viewBox="0 0 512 512" width="512pt">
<g id="surface1">
<path d="M 512 256 C 512 397.386719 397.386719 512 256 512 C 114.613281 512 0 397.386719 0 256 C 0 114.613281 114.613281 0 256 0 C 397.386719 0 512 114.613281 512 256 Z M 512 256 " style=" stroke:none;fill-rule:nonzero;fill:rgb(39.607843%,69.803922%,100%);fill-opacity:1;" />
<path d="M 512 256 C 512 282.050781 508.109375 307.191406 500.871094 330.871094 C 468.859375 435.71875 371.328125 512 256 512 C 151.441406 512 61.511719 449.300781 21.769531 359.449219 C 7.769531 327.820312 0 292.820312 0 256 C 0 209.78125 12.25 166.429688 33.679688 129 C 77.800781 206.070312 160.839844 258 256 258 C 351.160156 258 434.210938 206.070312 478.320312 129 C 499.75 166.429688 512 209.78125 512 256 Z M 512 256 " style=" stroke:none;fill-rule:nonzero;fill:rgb(5.882353%,60.784314%,90.980392%);fill-opacity:1;" />
<path d="M 30.742188 377.703125 C 37.898438 390.921875 46.171875 403.441406 55.460938 415.128906 C 102.359375 474.148438 174.761719 512 256 512 C 337.238281 512 409.640625 474.148438 456.539062 415.128906 C 465.828125 403.441406 474.101562 390.921875 481.257812 377.703125 Z M 30.742188 377.703125 " style=" stroke:none;fill-rule:nonzero;fill:rgb(0%,40%,90.980392%);fill-opacity:1;" />
<path d="M 163.859375 328.867188 L 350.398438 328.867188 L 350.398438 387.53125 L 163.859375 387.53125 Z M 163.859375 328.867188 " style=" stroke:none;fill-rule:nonzero;fill:rgb(81.568627%,96.470588%,100%);fill-opacity:1;" />
<path d="M 258.839844 423.851562 L 258.839844 512 L 255.421875 512 C 223.449219 511.929688 192.859375 506 164.660156 495.21875 C 139.851562 485.738281 116.898438 472.519531 96.488281 456.238281 C 86.671875 448.410156 77.449219 439.871094 68.878906 430.710938 L 68.878906 423.851562 C 68.878906 418.949219 69.25 414.140625 69.960938 409.441406 C 71.128906 401.78125 73.210938 394.429688 76.089844 387.488281 C 82.640625 371.691406 93.339844 358.050781 106.808594 347.910156 C 107.039062 347.738281 107.269531 347.570312 107.5 347.398438 C 113.671875 342.839844 120.410156 339.011719 127.601562 336.039062 C 128.398438 335.710938 129.199219 335.390625 130.019531 335.078125 C 130.429688 334.921875 130.839844 334.769531 131.25 334.621094 C 131.660156 334.46875 132.070312 334.320312 132.480469 334.179688 C 133.960938 333.660156 135.460938 333.179688 136.960938 332.730469 C 137.609375 332.539062 138.25 332.359375 138.898438 332.179688 C 139.78125 331.941406 140.660156 331.71875 141.539062 331.511719 C 141.628906 331.480469 141.730469 331.460938 141.828125 331.441406 C 142.449219 331.289062 143.078125 331.148438 143.699219 331.019531 C 144.378906 330.859375 145.058594 330.730469 145.75 330.601562 C 146.078125 330.539062 146.421875 330.46875 146.761719 330.410156 C 148.101562 330.160156 149.449219 329.949219 150.808594 329.761719 C 155.070312 329.171875 159.429688 328.871094 163.859375 328.871094 L 164.660156 328.871094 C 169.058594 328.910156 173.398438 329.25 177.640625 329.871094 L 177.648438 329.871094 C 178.480469 329.988281 179.300781 330.121094 180.121094 330.261719 C 180.230469 330.28125 180.339844 330.300781 180.441406 330.320312 C 180.46875 330.320312 180.5 330.320312 180.519531 330.328125 C 180.589844 330.339844 180.660156 330.359375 180.730469 330.371094 C 181.300781 330.46875 181.871094 330.578125 182.429688 330.691406 C 182.890625 330.78125 183.339844 330.871094 183.78125 330.96875 C 184.238281 331.070312 184.699219 331.171875 185.160156 331.269531 C 185.5 331.351562 185.839844 331.429688 186.179688 331.511719 C 186.191406 331.511719 186.191406 331.511719 186.199219 331.511719 L 186.199219 331.519531 C 186.410156 331.570312 186.621094 331.621094 186.828125 331.671875 C 187.691406 331.878906 188.550781 332.109375 189.398438 332.351562 C 189.558594 332.390625 189.710938 332.429688 189.871094 332.480469 C 190.328125 332.609375 190.789062 332.738281 191.25 332.878906 C 191.449219 332.941406 191.648438 333 191.851562 333.058594 C 192.621094 333.300781 193.378906 333.539062 194.140625 333.800781 C 194.148438 333.800781 194.160156 333.808594 194.171875 333.808594 C 194.53125 333.929688 194.890625 334.050781 195.238281 334.179688 C 195.238281 334.179688 195.238281 334.179688 195.25 334.191406 L 195.261719 334.191406 C 195.289062 334.199219 195.328125 334.210938 195.359375 334.21875 C 195.539062 334.28125 195.710938 334.339844 195.890625 334.410156 C 196.601562 334.660156 197.308594 334.921875 198.011719 335.199219 C 198.589844 335.421875 199.160156 335.648438 199.738281 335.871094 C 199.789062 335.898438 199.828125 335.921875 199.878906 335.929688 C 200.609375 336.230469 201.328125 336.539062 202.050781 336.859375 C 202.808594 337.199219 203.570312 337.539062 204.328125 337.898438 C 204.769531 338.101562 205.210938 338.308594 205.640625 338.53125 C 206.238281 338.820312 206.839844 339.128906 207.441406 339.441406 C 207.949219 339.699219 208.460938 339.96875 208.96875 340.25 C 209.121094 340.328125 209.269531 340.410156 209.421875 340.488281 C 209.941406 340.78125 210.460938 341.070312 210.96875 341.359375 C 211.550781 341.691406 212.128906 342.039062 212.710938 342.378906 C 213.121094 342.621094 213.53125 342.871094 213.929688 343.128906 C 216.03125 344.441406 218.078125 345.820312 220.058594 347.289062 C 220.699219 347.75 221.328125 348.230469 221.960938 348.71875 C 222.660156 349.261719 223.351562 349.808594 224.039062 350.378906 C 224.609375 350.839844 225.171875 351.308594 225.730469 351.808594 C 228.390625 354.078125 230.929688 356.511719 233.320312 359.078125 C 233.539062 359.320312 233.769531 359.558594 233.988281 359.800781 C 235 360.898438 235.980469 362.03125 236.929688 363.179688 C 237.160156 363.449219 237.390625 363.730469 237.609375 364.011719 C 238.101562 364.601562 238.570312 365.191406 239.019531 365.789062 C 239.511719 366.410156 239.988281 367.039062 240.460938 367.679688 C 240.910156 368.300781 241.359375 368.921875 241.800781 369.558594 C 241.980469 369.808594 242.140625 370.050781 242.308594 370.300781 C 242.339844 370.339844 242.371094 370.371094 242.390625 370.410156 C 242.761719 370.960938 243.128906 371.511719 243.488281 372.058594 C 246.660156 376.929688 249.398438 382.101562 251.660156 387.53125 C 251.949219 388.261719 252.25 389 252.53125 389.730469 C 252.71875 390.21875 252.910156 390.71875 253.089844 391.21875 C 253.199219 391.53125 253.308594 391.839844 253.421875 392.148438 C 253.609375 392.691406 253.800781 393.230469 253.980469 393.78125 C 254.839844 396.359375 255.589844 398.988281 256.230469 401.648438 C 256.371094 402.21875 256.5 402.800781 256.621094 403.378906 C 256.75 403.949219 256.871094 404.511719 256.980469 405.078125 C 257.03125 405.328125 257.078125 405.578125 257.128906 405.820312 C 257.128906 405.828125 257.128906 405.828125 257.128906 405.839844 C 257.210938 406.25 257.289062 406.640625 257.359375 407.050781 C 257.46875 407.699219 257.578125 408.351562 257.679688 409 C 257.75 409.410156 257.808594 409.820312 257.871094 410.230469 C 258.078125 411.710938 258.261719 413.210938 258.398438 414.710938 C 258.429688 414.921875 258.449219 415.128906 258.460938 415.339844 C 258.488281 415.679688 258.519531 416.019531 258.550781 416.359375 C 258.558594 416.558594 258.578125 416.769531 258.589844 416.96875 C 258.648438 417.730469 258.691406 418.488281 258.730469 419.25 C 258.75 419.601562 258.761719 419.949219 258.78125 420.308594 C 258.789062 420.71875 258.800781 421.128906 258.808594 421.539062 C 258.828125 422.308594 258.839844 423.078125 258.839844 423.851562 Z M 258.839844 423.851562 " style=" stroke:none;fill-rule:nonzero;fill:rgb(100%,100%,100%);fill-opacity:1;" />
<path d="M 258.839844 423.851562 L 258.839844 512 L 255.421875 512 C 223.449219 511.929688 192.859375 506 164.660156 495.21875 L 164.660156 328.871094 C 169.058594 328.910156 173.398438 329.25 177.640625 329.871094 L 177.648438 329.871094 C 178.480469 329.988281 179.300781 330.121094 180.121094 330.261719 C 180.230469 330.28125 180.339844 330.300781 180.441406 330.320312 C 180.46875 330.320312 180.5 330.320312 180.519531 330.328125 C 180.589844 330.339844 180.660156 330.359375 180.730469 330.371094 C 181.300781 330.46875 181.871094 330.578125 182.429688 330.691406 C 182.890625 330.78125 183.339844 330.871094 183.78125 330.96875 C 184.238281 331.070312 184.699219 331.171875 185.160156 331.269531 C 185.5 331.351562 185.839844 331.429688 186.179688 331.511719 C 186.191406 331.511719 186.191406 331.511719 186.199219 331.511719 L 186.199219 331.519531 C 186.410156 331.570312 186.621094 331.621094 186.828125 331.671875 C 187.691406 331.878906 188.550781 332.109375 189.398438 332.351562 C 189.558594 332.390625 189.710938 332.429688 189.871094 332.480469 C 190.328125 332.609375 190.789062 332.738281 191.25 332.878906 C 191.449219 332.941406 191.648438 333 191.851562 333.058594 C 192.621094 333.300781 193.378906 333.539062 194.140625 333.800781 C 194.148438 333.800781 194.160156 333.808594 194.171875 333.808594 C 194.53125 333.929688 194.890625 334.050781 195.238281 334.179688 C 195.238281 334.179688 195.238281 334.179688 195.25 334.191406 L 195.261719 334.191406 C 195.289062 334.199219 195.328125 334.210938 195.359375 334.21875 C 195.539062 334.28125 195.710938 334.339844 195.890625 334.410156 C 196.601562 334.660156 197.308594 334.921875 198.011719 335.199219 C 198.589844 335.421875 199.160156 335.648438 199.738281 335.871094 C 199.789062 335.898438 199.828125 335.921875 199.878906 335.929688 C 200.609375 336.230469 201.328125 336.539062 202.050781 336.859375 C 202.808594 337.199219 203.570312 337.539062 204.328125 337.898438 C 204.769531 338.101562 205.210938 338.308594 205.640625 338.53125 C 206.238281 338.820312 206.839844 339.121094 207.441406 339.441406 C 207.949219 339.699219 208.460938 339.96875 208.96875 340.25 C 209.121094 340.328125 209.269531 340.410156 209.421875 340.488281 C 209.941406 340.78125 210.460938 341.070312 210.96875 341.359375 C 211.550781 341.691406 212.128906 342.039062 212.710938 342.378906 C 213.121094 342.621094 213.53125 342.871094 213.929688 343.128906 C 216.03125 344.441406 218.078125 345.820312 220.058594 347.289062 C 220.699219 347.75 221.328125 348.230469 221.960938 348.71875 C 222.660156 349.261719 223.351562 349.808594 224.039062 350.378906 C 224.609375 350.839844 225.171875 351.308594 225.730469 351.808594 C 228.390625 354.078125 230.929688 356.511719 233.320312 359.078125 C 233.539062 359.320312 233.769531 359.558594 233.988281 359.800781 C 235 360.898438 235.980469 362.03125 236.929688 363.179688 C 237.160156 363.449219 237.390625 363.730469 237.609375 364.011719 C 238.101562 364.601562 238.570312 365.191406 239.019531 365.789062 C 239.511719 366.410156 239.988281 367.039062 240.460938 367.679688 C 240.910156 368.300781 241.359375 368.921875 241.800781 369.558594 C 241.980469 369.808594 242.140625 370.050781 242.308594 370.300781 C 242.339844 370.339844 242.371094 370.371094 242.390625 370.410156 C 242.761719 370.960938 243.128906 371.511719 243.488281 372.058594 C 246.660156 376.929688 249.398438 382.101562 251.660156 387.53125 C 251.949219 388.261719 252.25 389 252.53125 389.730469 C 252.71875 390.21875 252.910156 390.71875 253.089844 391.21875 C 253.199219 391.53125 253.308594 391.839844 253.421875 392.148438 C 253.609375 392.691406 253.800781 393.230469 253.980469 393.78125 C 254.839844 396.359375 255.589844 398.988281 256.230469 401.648438 C 256.371094 402.21875 256.5 402.800781 256.621094 403.378906 C 256.75 403.949219 256.871094 404.511719 256.980469 405.078125 C 257.03125 405.328125 257.078125 405.578125 257.128906 405.820312 C 257.128906 405.828125 257.128906 405.828125 257.128906 405.839844 C 257.210938 406.25 257.289062 406.640625 257.359375 407.050781 C 257.46875 407.699219 257.578125 408.351562 257.679688 409 C 257.75 409.410156 257.808594 409.820312 257.871094 410.230469 C 258.078125 411.710938 258.261719 413.210938 258.398438 414.710938 C 258.429688 414.921875 258.449219 415.128906 258.460938 415.339844 C 258.488281 415.679688 258.519531 416.019531 258.550781 416.359375 C 258.558594 416.558594 258.578125 416.769531 258.589844 416.96875 C 258.648438 417.730469 258.691406 418.488281 258.730469 419.25 C 258.75 419.601562 258.761719 419.949219 258.78125 420.308594 C 258.789062 420.71875 258.800781 421.128906 258.808594 421.539062 C 258.828125 422.308594 258.839844 423.078125 258.839844 423.851562 Z M 258.839844 423.851562 " style=" stroke:none;fill-rule:nonzero;fill:rgb(81.568627%,96.470588%,100%);fill-opacity:1;" />
<path d="M 199.738281 335.871094 C 198.421875 354.300781 183.300781 368.898438 164.660156 369.410156 C 164.328125 369.421875 164 369.421875 163.671875 369.421875 C 144.628906 369.421875 129.019531 354.71875 127.601562 336.039062 C 134.921875 333.011719 142.691406 330.871094 150.808594 329.761719 C 155.070312 329.171875 159.429688 328.871094 163.859375 328.871094 L 164.660156 328.871094 C 169.058594 328.910156 173.398438 329.25 177.640625 329.871094 L 177.648438 329.871094 C 179.261719 330.101562 180.851562 330.378906 182.429688 330.691406 C 182.890625 330.78125 183.339844 330.871094 183.78125 330.96875 C 184.238281 331.070312 184.699219 331.171875 185.160156 331.269531 C 185.71875 331.398438 186.269531 331.53125 186.828125 331.671875 C 187.691406 331.878906 188.550781 332.109375 189.398438 332.351562 C 190.019531 332.511719 190.640625 332.691406 191.25 332.878906 C 191.449219 332.941406 191.648438 333 191.851562 333.058594 C 192.621094 333.300781 193.378906 333.539062 194.140625 333.800781 C 194.148438 333.800781 194.160156 333.808594 194.171875 333.808594 C 194.570312 333.941406 194.96875 334.078125 195.359375 334.21875 C 195.539062 334.28125 195.710938 334.339844 195.890625 334.410156 C 196.601562 334.660156 197.308594 334.921875 198.011719 335.199219 C 198.589844 335.421875 199.160156 335.648438 199.738281 335.871094 Z M 199.738281 335.871094 " style=" stroke:none;fill-rule:nonzero;fill:rgb(100%,81.960784%,7.058824%);fill-opacity:1;" />
<path d="M 199.738281 335.871094 C 198.421875 354.300781 183.300781 368.898438 164.660156 369.410156 L 164.660156 328.871094 C 169.058594 328.910156 173.398438 329.25 177.640625 329.871094 L 177.648438 329.871094 C 179.261719 330.101562 180.851562 330.378906 182.429688 330.691406 C 182.890625 330.78125 183.339844 330.871094 183.78125 330.96875 C 184.238281 331.070312 184.699219 331.171875 185.160156 331.269531 C 185.71875 331.398438 186.269531 331.53125 186.828125 331.671875 C 187.691406 331.878906 188.550781 332.109375 189.398438 332.351562 C 190.019531 332.511719 190.640625 332.691406 191.25 332.878906 C 191.449219 332.941406 191.648438 333 191.851562 333.058594 C 192.621094 333.300781 193.378906 333.539062 194.140625 333.800781 C 194.148438 333.800781 194.160156 333.808594 194.171875 333.808594 C 194.570312 333.941406 194.96875 334.078125 195.359375 334.21875 C 195.539062 334.28125 195.710938 334.339844 195.890625 334.410156 C 196.601562 334.660156 197.308594 334.921875 198.011719 335.199219 C 198.589844 335.421875 199.160156 335.648438 199.738281 335.871094 Z M 199.738281 335.871094 " style=" stroke:none;fill-rule:nonzero;fill:rgb(100%,62.352941%,0%);fill-opacity:1;" />
<path d="M 252.238281 232.023438 C 263.03125 232.023438 271.785156 240.777344 271.785156 251.570312 C 271.785156 271.234375 255.84375 287.175781 236.179688 287.175781 L 236.179688 231.984375 Z M 252.238281 232.023438 " style=" stroke:none;fill-rule:nonzero;fill:rgb(89.019608%,51.372549%,35.294118%);fill-opacity:1;" />
<path d="M 76.101562 232.023438 C 65.308594 232.023438 56.554688 240.777344 56.554688 251.570312 C 56.554688 271.234375 72.496094 287.175781 92.160156 287.175781 L 92.160156 231.984375 Z M 76.101562 232.023438 " style=" stroke:none;fill-rule:nonzero;fill:rgb(89.019608%,51.372549%,35.294118%);fill-opacity:1;" />
<path d="M 141.542969 299.886719 L 141.542969 331.65625 C 141.542969 343.988281 151.539062 353.988281 163.871094 353.988281 C 176.199219 353.988281 186.199219 343.984375 186.199219 331.65625 L 186.199219 299.886719 Z M 141.542969 299.886719 " style=" stroke:none;fill-rule:nonzero;fill:rgb(89.019608%,51.372549%,35.294118%);fill-opacity:1;" />
<path d="M 141.542969 299.886719 L 141.542969 331.65625 C 141.542969 343.988281 151.539062 353.988281 163.871094 353.988281 L 163.871094 299.886719 Z M 141.542969 299.886719 " style=" stroke:none;fill-rule:nonzero;fill:rgb(100%,65.882353%,47.843137%);fill-opacity:1;" />
<path d="M 87.472656 235.695312 L 87.472656 264.5 C 87.472656 306.683594 121.664062 340.898438 163.859375 340.90625 C 163.867188 340.90625 163.867188 340.90625 163.875 340.90625 C 206.058594 340.90625 240.273438 306.6875 240.273438 264.5 L 240.273438 235.695312 C 240.273438 231.355469 239.917969 227.097656 239.203125 222.960938 C 234.21875 193.199219 212.011719 169.277344 183.191406 161.753906 C 177.027344 160.152344 170.542969 159.300781 163.878906 159.300781 C 163.867188 159.300781 163.867188 159.300781 163.863281 159.300781 C 157.183594 159.300781 150.703125 160.152344 144.539062 161.765625 C 115.71875 169.277344 93.53125 193.199219 88.542969 222.960938 C 87.832031 227.097656 87.472656 231.355469 87.472656 235.695312 Z M 87.472656 235.695312 " style=" stroke:none;fill-rule:nonzero;fill:rgb(100%,65.882353%,47.843137%);fill-opacity:1;" />
<path d="M 87.472656 235.695312 L 87.472656 264.5 C 87.472656 306.683594 121.664062 340.898438 163.859375 340.90625 L 163.859375 159.300781 C 157.179688 159.300781 150.703125 160.152344 144.535156 161.765625 C 115.71875 169.277344 93.53125 193.199219 88.542969 222.960938 C 87.832031 227.097656 87.472656 231.355469 87.472656 235.695312 Z M 87.472656 235.695312 " style=" stroke:none;fill-rule:nonzero;fill:rgb(100%,75.294118%,64.313725%);fill-opacity:1;" />
<path d="M 197.246094 254.921875 C 197.246094 260.117188 193.035156 264.328125 187.84375 264.328125 C 182.648438 264.328125 178.4375 260.117188 178.4375 254.921875 C 178.4375 249.726562 182.648438 245.515625 187.84375 245.515625 C 193.035156 245.515625 197.246094 249.726562 197.246094 254.921875 Z M 197.246094 254.921875 " style=" stroke:none;fill-rule:nonzero;fill:rgb(19.607843%,23.137255%,35.294118%);fill-opacity:1;" />
<path d="M 149.3125 254.921875 C 149.3125 260.117188 145.101562 264.328125 139.90625 264.328125 C 134.714844 264.328125 130.503906 260.117188 130.503906 254.921875 C 130.503906 249.726562 134.714844 245.515625 139.90625 245.515625 C 145.101562 245.515625 149.3125 249.726562 149.3125 254.921875 Z M 149.3125 254.921875 " style=" stroke:none;fill-rule:nonzero;fill:rgb(19.607843%,23.137255%,35.294118%);fill-opacity:1;" />
<path d="M 71.082031 228.636719 C 71.082031 233.097656 74.433594 236.867188 78.863281 237.386719 C 82.707031 237.839844 86.617188 238.066406 90.574219 238.066406 C 119.558594 238.066406 145.667969 225.6875 163.859375 205.894531 C 182.066406 225.6875 208.171875 238.066406 237.15625 238.066406 C 241.066406 238.066406 244.921875 237.847656 248.71875 237.402344 C 250.984375 237.144531 252.960938 236.042969 254.390625 234.449219 C 255.808594 232.851562 256.667969 230.757812 256.667969 228.472656 C 256.667969 193.90625 238.007812 161.636719 207.378906 145.628906 C 201.179688 142.398438 194.582031 139.824219 187.675781 138.019531 C 180.082031 136.050781 172.089844 135 163.878906 135 C 163.867188 135 163.867188 135 163.863281 135 C 155.632812 135 147.648438 136.050781 140.0625 138.042969 C 136.113281 139.070312 132.273438 140.351562 128.542969 141.855469 C 111.007812 148.957031 96.644531 161.191406 86.664062 176.386719 C 76.683594 191.566406 71.082031 209.722656 71.082031 228.636719 Z M 71.082031 228.636719 " style=" stroke:none;fill-rule:nonzero;fill:rgb(19.607843%,23.137255%,35.294118%);fill-opacity:1;" />
<path d="M 71.082031 228.636719 C 71.082031 233.097656 74.433594 236.867188 78.863281 237.386719 C 82.707031 237.839844 86.617188 238.066406 90.574219 238.066406 C 119.558594 238.066406 145.667969 225.6875 163.859375 205.894531 L 163.859375 135 C 155.632812 135 147.648438 136.050781 140.0625 138.042969 C 136.113281 139.070312 132.269531 140.351562 128.542969 141.855469 C 111.007812 148.957031 96.640625 161.191406 86.664062 176.386719 C 76.683594 191.566406 71.082031 209.722656 71.082031 228.636719 Z M 71.082031 228.636719 " style=" stroke:none;fill-rule:nonzero;fill:rgb(27.843137%,30.980392%,43.529412%);fill-opacity:1;" />
<path d="M 163.875 281.644531 C 160.21875 281.644531 157.253906 278.679688 157.253906 275.023438 L 157.253906 246.585938 C 157.253906 242.929688 160.21875 239.964844 163.875 239.964844 C 167.53125 239.964844 170.496094 242.929688 170.496094 246.585938 L 170.496094 275.023438 C 170.496094 278.679688 167.53125 281.644531 163.875 281.644531 Z M 163.875 281.644531 " style=" stroke:none;fill-rule:nonzero;fill:rgb(89.019608%,51.372549%,35.294118%);fill-opacity:1;" />
<path d="M 445.378906 423.851562 L 445.378906 428.261719 C 438.761719 435.53125 431.730469 442.410156 424.328125 448.871094 C 402.820312 467.660156 378.140625 482.910156 351.199219 493.710938 C 322.601562 505.179688 291.449219 511.628906 258.839844 511.980469 L 258.839844 512 L 255.421875 512 L 255.421875 423.851562 C 255.421875 417.691406 256.011719 411.671875 257.128906 405.839844 C 257.128906 405.828125 257.128906 405.828125 257.128906 405.820312 C 258.351562 399.480469 260.199219 393.359375 262.609375 387.53125 C 269.160156 371.71875 279.859375 358.058594 293.351562 347.910156 C 299.648438 343.171875 306.558594 339.191406 313.949219 336.109375 C 315.71875 335.371094 317.519531 334.691406 319.351562 334.058594 C 322.390625 333.011719 325.5 332.109375 328.671875 331.371094 C 331.519531 330.699219 334.410156 330.160156 337.339844 329.761719 C 339.679688 329.441406 342.039062 329.199219 344.421875 329.050781 C 345.378906 328.980469 346.339844 328.941406 347.300781 328.921875 C 347.78125 328.898438 348.261719 328.890625 348.738281 328.878906 C 349.230469 328.871094 349.710938 328.871094 350.199219 328.871094 L 351.199219 328.871094 C 351.679688 328.878906 352.171875 328.890625 352.648438 328.898438 C 356.550781 328.988281 360.410156 329.320312 364.179688 329.871094 L 364.191406 329.871094 C 367.289062 330.320312 370.339844 330.921875 373.328125 331.660156 C 376.320312 332.398438 379.25 333.28125 382.121094 334.300781 C 386.921875 336 391.550781 338.078125 395.96875 340.488281 C 400.371094 342.910156 404.558594 345.660156 408.5 348.71875 C 419.691406 357.378906 428.898438 368.488281 435.308594 381.238281 C 437.828125 386.261719 439.929688 391.53125 441.539062 397.011719 C 444.039062 405.519531 445.378906 414.53125 445.378906 423.851562 Z M 445.378906 423.851562 " style=" stroke:none;fill-rule:nonzero;fill:rgb(100%,44.313725%,58.431373%);fill-opacity:1;" />
<path d="M 445.378906 423.851562 L 445.378906 428.261719 C 438.761719 435.53125 431.730469 442.410156 424.328125 448.871094 C 402.820312 467.660156 378.140625 482.910156 351.199219 493.710938 L 351.199219 328.871094 C 351.679688 328.878906 352.171875 328.890625 352.648438 328.898438 C 356.550781 328.988281 360.410156 329.320312 364.179688 329.871094 L 364.191406 329.871094 C 367.289062 330.320312 370.339844 330.921875 373.328125 331.660156 C 376.320312 332.398438 379.25 333.28125 382.121094 334.300781 C 386.921875 336 391.550781 338.078125 395.96875 340.488281 C 400.371094 342.910156 404.558594 345.660156 408.5 348.71875 C 419.691406 357.378906 428.898438 368.488281 435.308594 381.238281 C 437.828125 386.261719 439.929688 391.53125 441.539062 397.011719 C 444.039062 405.519531 445.378906 414.53125 445.378906 423.851562 Z M 445.378906 423.851562 " style=" stroke:none;fill-rule:nonzero;fill:rgb(100%,20.392157%,27.058824%);fill-opacity:1;" />
<path d="M 386.078125 335.871094 C 384.761719 354.300781 369.640625 368.898438 351 369.410156 C 350.671875 369.421875 350.339844 369.421875 350.011719 369.421875 C 330.96875 369.421875 315.359375 354.71875 313.941406 336.039062 C 321.261719 333.011719 329.03125 330.871094 337.148438 329.761719 C 341.410156 329.171875 345.769531 328.871094 350.199219 328.871094 L 351 328.871094 C 355.398438 328.910156 359.738281 329.25 363.980469 329.871094 L 363.988281 329.871094 C 365.601562 330.101562 367.191406 330.378906 368.769531 330.691406 C 369.230469 330.78125 369.679688 330.871094 370.121094 330.96875 C 370.578125 331.070312 371.039062 331.171875 371.5 331.269531 C 372.058594 331.398438 372.609375 331.53125 373.171875 331.671875 C 374.03125 331.878906 374.890625 332.109375 375.738281 332.351562 C 376.359375 332.511719 376.980469 332.691406 377.589844 332.878906 C 377.789062 332.941406 377.988281 333 378.191406 333.058594 C 378.960938 333.300781 379.71875 333.539062 380.480469 333.800781 C 380.488281 333.800781 380.5 333.808594 380.511719 333.808594 C 380.910156 333.941406 381.308594 334.078125 381.699219 334.21875 C 381.878906 334.28125 382.050781 334.339844 382.230469 334.410156 C 382.941406 334.660156 383.648438 334.921875 384.351562 335.199219 C 384.929688 335.421875 385.5 335.648438 386.078125 335.871094 Z M 386.078125 335.871094 " style=" stroke:none;fill-rule:nonzero;fill:rgb(100%,20.392157%,27.058824%);fill-opacity:1;" />
<path d="M 386.078125 335.871094 C 384.761719 354.300781 369.640625 368.898438 351 369.410156 L 351 328.871094 C 355.398438 328.910156 359.738281 329.25 363.980469 329.871094 L 363.988281 329.871094 C 365.601562 330.101562 367.191406 330.378906 368.769531 330.691406 C 369.230469 330.78125 369.679688 330.871094 370.121094 330.96875 C 370.578125 331.070312 371.039062 331.171875 371.5 331.269531 C 372.058594 331.398438 372.609375 331.53125 373.171875 331.671875 C 374.03125 331.878906 374.890625 332.109375 375.738281 332.351562 C 376.359375 332.511719 376.980469 332.691406 377.589844 332.878906 C 377.789062 332.941406 377.988281 333 378.191406 333.058594 C 378.960938 333.300781 379.71875 333.539062 380.480469 333.800781 C 380.488281 333.800781 380.5 333.808594 380.511719 333.808594 C 380.910156 333.941406 381.308594 334.078125 381.699219 334.21875 C 381.878906 334.28125 382.050781 334.339844 382.230469 334.410156 C 382.941406 334.660156 383.648438 334.921875 384.351562 335.199219 C 384.929688 335.421875 385.5 335.648438 386.078125 335.871094 Z M 386.078125 335.871094 " style=" stroke:none;fill-rule:nonzero;fill:rgb(86.666667%,7.058824%,39.607843%);fill-opacity:1;" />
<path d="M 438.773438 238.023438 C 449.570312 238.023438 458.320312 246.777344 458.320312 257.570312 C 458.320312 277.234375 442.382812 293.175781 422.71875 293.175781 L 422.71875 237.984375 Z M 438.773438 238.023438 " style=" stroke:none;fill-rule:nonzero;fill:rgb(89.019608%,51.372549%,35.294118%);fill-opacity:1;" />
<path d="M 263.230469 238.023438 C 252.433594 238.023438 243.683594 246.777344 243.683594 257.570312 C 243.683594 277.234375 259.621094 293.175781 279.285156 293.175781 L 279.285156 237.984375 Z M 263.230469 238.023438 " style=" stroke:none;fill-rule:nonzero;fill:rgb(100%,65.882353%,47.843137%);fill-opacity:1;" />
<path d="M 328.671875 299.886719 L 328.671875 331.65625 C 328.671875 343.988281 338.664062 353.988281 351 353.988281 C 363.328125 353.988281 373.328125 343.984375 373.328125 331.65625 L 373.328125 299.886719 Z M 328.671875 299.886719 " style=" stroke:none;fill-rule:nonzero;fill:rgb(89.019608%,51.372549%,35.294118%);fill-opacity:1;" />
<path d="M 328.671875 299.886719 L 328.671875 331.65625 C 328.671875 343.988281 338.664062 353.988281 351 353.988281 L 351 299.886719 Z M 328.671875 299.886719 " style=" stroke:none;fill-rule:nonzero;fill:rgb(100%,65.882353%,47.843137%);fill-opacity:1;" />
<path d="M 274.597656 235.695312 L 274.597656 264.5 C 274.597656 306.683594 308.792969 340.898438 350.988281 340.90625 C 350.996094 340.90625 350.996094 340.90625 351.003906 340.90625 C 393.183594 340.90625 427.398438 306.6875 427.398438 264.5 L 427.398438 235.695312 C 427.398438 231.355469 427.046875 227.097656 426.328125 222.960938 C 421.347656 193.199219 399.140625 169.277344 370.320312 161.753906 C 364.152344 160.152344 357.667969 159.300781 351.003906 159.300781 C 350.996094 159.300781 350.996094 159.300781 350.988281 159.300781 C 344.308594 159.300781 337.832031 160.152344 331.664062 161.765625 C 302.84375 169.277344 280.660156 193.199219 275.671875 222.960938 C 274.960938 227.097656 274.597656 231.355469 274.597656 235.695312 Z M 274.597656 235.695312 " style=" stroke:none;fill-rule:nonzero;fill:rgb(89.019608%,51.372549%,35.294118%);fill-opacity:1;" />
<path d="M 274.597656 235.695312 L 274.597656 264.5 C 274.597656 306.683594 308.792969 340.898438 350.988281 340.90625 L 350.988281 159.300781 C 344.308594 159.300781 337.832031 160.152344 331.664062 161.765625 C 302.84375 169.277344 280.660156 193.199219 275.671875 222.960938 C 274.960938 227.097656 274.597656 231.355469 274.597656 235.695312 Z M 274.597656 235.695312 " style=" stroke:none;fill-rule:nonzero;fill:rgb(100%,65.882353%,47.843137%);fill-opacity:1;" />
<path d="M 326.785156 233.644531 L 330.234375 234.933594 C 332.820312 235.898438 335.699219 234.585938 336.667969 232 C 337.632812 229.414062 336.320312 226.53125 333.734375 225.566406 C 324.144531 221.980469 313.464844 222.824219 304.558594 227.867188 C 302.269531 229.164062 303.453125 232.664062 306.058594 232.308594 L 309.960938 231.773438 C 315.636719 230.996094 321.417969 231.636719 326.785156 233.644531 Z M 326.785156 233.644531 " style=" stroke:none;fill-rule:nonzero;fill:rgb(19.607843%,23.137255%,35.294118%);fill-opacity:1;" />
<path d="M 384.375 254.921875 C 384.375 260.117188 380.164062 264.328125 374.96875 264.328125 C 369.773438 264.328125 365.5625 260.117188 365.5625 254.921875 C 365.5625 249.726562 369.773438 245.515625 374.96875 245.515625 C 380.164062 245.515625 384.375 249.726562 384.375 254.921875 Z M 384.375 254.921875 " style=" stroke:none;fill-rule:nonzero;fill:rgb(19.607843%,23.137255%,35.294118%);fill-opacity:1;" />
<path d="M 336.441406 254.921875 C 336.441406 260.117188 332.230469 264.328125 327.035156 264.328125 C 321.839844 264.328125 317.628906 260.117188 317.628906 254.921875 C 317.628906 249.726562 321.839844 245.515625 327.035156 245.515625 C 332.230469 245.515625 336.441406 249.726562 336.441406 254.921875 Z M 336.441406 254.921875 " style=" stroke:none;fill-rule:nonzero;fill:rgb(19.607843%,23.137255%,35.294118%);fill-opacity:1;" />
<path d="M 328.503906 293.21875 C 321.855469 293.21875 318.316406 301.195312 322.886719 306.023438 C 325.753906 309.050781 329.101562 311.609375 332.804688 313.585938 C 338.226562 316.488281 344.421875 318.128906 351.003906 318.128906 C 357.582031 318.128906 363.777344 316.488281 369.199219 313.585938 C 372.902344 311.609375 376.253906 309.050781 379.117188 306.023438 C 383.691406 301.195312 380.148438 293.21875 373.5 293.21875 Z M 328.503906 293.21875 " style=" stroke:none;fill-rule:nonzero;fill:rgb(19.607843%,23.137255%,35.294118%);fill-opacity:1;" />
<path d="M 351 281.644531 C 347.34375 281.644531 344.378906 278.679688 344.378906 275.023438 L 344.378906 246.585938 C 344.378906 242.929688 347.34375 239.964844 351 239.964844 C 354.65625 239.964844 357.621094 242.929688 357.621094 246.585938 L 357.621094 275.023438 C 357.625 278.679688 354.660156 281.644531 351 281.644531 Z M 351 281.644531 " style=" stroke:none;fill-rule:nonzero;fill:rgb(80%,35.294118%,15.686275%);fill-opacity:1;" />
<path d="M 369.199219 313.578125 C 363.78125 316.488281 357.578125 318.128906 351 318.128906 C 344.421875 318.128906 338.230469 316.488281 332.808594 313.578125 C 337.328125 308.679688 343.808594 305.609375 351 305.609375 C 358.191406 305.609375 364.671875 308.679688 369.199219 313.578125 Z M 369.199219 313.578125 " style=" stroke:none;fill-rule:nonzero;fill:rgb(100%,20.392157%,27.058824%);fill-opacity:1;" />
<path d="M 369.199219 313.578125 C 363.78125 316.488281 357.578125 318.128906 351 318.128906 L 351 305.609375 C 358.191406 305.609375 364.671875 308.679688 369.199219 313.578125 Z M 369.199219 313.578125 " style=" stroke:none;fill-rule:nonzero;fill:rgb(86.666667%,7.058824%,39.607843%);fill-opacity:1;" />
<path d="M 114.191406 413.070312 C 114.191406 417.46875 110.621094 421.039062 106.21875 421.039062 L 101.550781 421.039062 L 101.550781 443.691406 C 101.550781 448.570312 99.621094 452.988281 96.488281 456.238281 C 86.671875 448.410156 77.449219 439.871094 68.878906 430.710938 C 66.519531 428.179688 64.199219 425.589844 61.941406 422.960938 L 61.941406 422.949219 C 62.78125 417.460938 65.738281 412.671875 69.960938 409.441406 C 73.5 406.71875 77.941406 405.109375 82.761719 405.109375 L 106.21875 405.109375 C 108.421875 405.109375 110.410156 406 111.859375 407.441406 C 113.300781 408.878906 114.191406 410.871094 114.191406 413.070312 Z M 114.191406 413.070312 " style=" stroke:none;fill-rule:nonzero;fill:rgb(100%,65.882353%,47.843137%);fill-opacity:1;" />
<path d="M 457.441406 414 C 453.589844 418.898438 449.558594 423.660156 445.378906 428.261719 C 438.761719 435.53125 431.730469 442.410156 424.328125 448.871094 C 420.390625 445.558594 417.878906 440.578125 417.878906 435.019531 L 417.878906 412.371094 L 413.210938 412.371094 C 408.808594 412.371094 405.25 408.800781 405.25 404.410156 C 405.25 402.210938 406.140625 400.21875 407.578125 398.78125 C 409.019531 397.328125 411.011719 396.441406 413.210938 396.441406 L 436.679688 396.441406 C 438.351562 396.441406 439.980469 396.640625 441.539062 397.011719 C 449.710938 398.941406 456.039062 405.640625 457.441406 414 Z M 457.441406 414 " style=" stroke:none;fill-rule:nonzero;fill:rgb(89.019608%,51.372549%,35.294118%);fill-opacity:1;" />
<path d="M 378.113281 358.242188 L 394.707031 341.652344 C 402.929688 333.429688 416.261719 333.429688 424.480469 341.652344 L 436.878906 354.046875 C 443.953125 361.121094 443.953125 372.59375 436.878906 379.667969 L 434.320312 382.222656 C 427.246094 389.300781 415.773438 389.300781 408.699219 382.222656 L 392.679688 366.203125 L 389.378906 369.503906 C 386.269531 372.613281 381.226562 372.613281 378.113281 369.503906 C 375.003906 366.394531 375.003906 361.351562 378.113281 358.242188 Z M 378.113281 358.242188 " style=" stroke:none;fill-rule:nonzero;fill:rgb(89.019608%,51.372549%,35.294118%);fill-opacity:1;" />
<path d="M 118.339844 358.242188 L 101.746094 341.652344 C 93.523438 333.429688 80.195312 333.429688 71.972656 341.652344 L 59.578125 354.046875 C 52.5 361.121094 52.5 372.59375 59.578125 379.667969 L 62.132812 382.222656 C 69.207031 389.300781 80.679688 389.300781 87.753906 382.222656 L 103.773438 366.203125 L 107.074219 369.503906 C 110.1875 372.613281 115.230469 372.613281 118.339844 369.503906 C 121.449219 366.394531 121.449219 361.351562 118.339844 358.242188 Z M 118.339844 358.242188 " style=" stroke:none;fill-rule:nonzero;fill:rgb(100%,65.882353%,47.843137%);fill-opacity:1;" />
<path d="M 438.769531 233.148438 L 438.769531 238.070312 C 424.960938 238.070312 411.859375 231.910156 403.050781 221.269531 L 382.28125 196.199219 C 372.660156 204.730469 362.148438 212.058594 350.988281 218.078125 C 326.890625 231.109375 299.761719 238.070312 271.96875 238.070312 L 268.511719 238.070312 C 267.148438 238.070312 265.921875 237.519531 265.03125 236.628906 C 264.140625 235.738281 263.589844 234.5 263.589844 233.148438 C 263.589844 208.960938 273.398438 187.058594 289.25 171.210938 C 305.058594 155.398438 326.878906 145.609375 350.988281 145.558594 L 351.179688 145.558594 C 399.558594 145.558594 438.769531 184.769531 438.769531 233.148438 Z M 438.769531 233.148438 " style=" stroke:none;fill-rule:nonzero;fill:rgb(27.843137%,30.980392%,43.529412%);fill-opacity:1;" />
<path d="M 438.769531 233.148438 L 438.769531 238.070312 C 424.960938 238.070312 411.859375 231.910156 403.050781 221.269531 L 382.28125 196.199219 C 372.660156 204.730469 362.148438 212.058594 350.988281 218.078125 L 350.988281 145.558594 L 351.179688 145.558594 C 399.558594 145.558594 438.769531 184.769531 438.769531 233.148438 Z M 438.769531 233.148438 " style=" stroke:none;fill-rule:nonzero;fill:rgb(19.607843%,23.137255%,35.294118%);fill-opacity:1;" />
<path d="M 142.660156 296.269531 C 139.105469 296.269531 137.941406 301.089844 141.128906 302.660156 C 147.925781 306.011719 155.574219 307.894531 163.664062 307.894531 C 171.757812 307.894531 179.40625 306.011719 186.203125 302.660156 C 189.390625 301.089844 188.226562 296.269531 184.671875 296.269531 Z M 142.660156 296.269531 " style=" stroke:none;fill-rule:nonzero;fill:rgb(19.607843%,23.137255%,35.294118%);fill-opacity:1;" />
<path d="M 373.449219 233.644531 L 370 234.933594 C 367.414062 235.898438 364.535156 234.585938 363.566406 232 C 362.601562 229.414062 363.914062 226.53125 366.5 225.566406 C 376.089844 221.980469 386.769531 222.824219 395.675781 227.867188 C 397.964844 229.164062 396.78125 232.664062 394.175781 232.308594 L 390.273438 231.773438 C 384.597656 230.996094 378.816406 231.636719 373.449219 233.644531 Z M 373.449219 233.644531 " style=" stroke:none;fill-rule:nonzero;fill:rgb(19.607843%,23.137255%,35.294118%);fill-opacity:1;" />
</g>
</svg>