<svg xmlns="http://www.w3.org/2000/svg" height="512pt" version="1.1" viewBox="0 0 512 512" width="512pt">
<g id="surface1">
<path d="M 512 256 C 512 397.386719 397.386719 512 256 512 C 177.808594 512 102.660156 475.347656 54.425781 413.824219 C 19.273438 368.992188 0 312.960938 0 256 C 0 114.613281 114.613281 0 256 0 C 397.386719 0 512 114.613281 512 256 Z M 512 256 " style=" stroke:none;fill-rule:nonzero;fill:rgb(39.607843%,69.803922%,100%);fill-opacity:1;" />
<path d="M 512 256 C 512 282.050781 508.109375 307.191406 500.871094 330.871094 C 468.859375 435.71875 371.328125 512 256 512 C 151.441406 512 61.511719 449.300781 21.769531 359.449219 C 7.769531 327.820312 0 292.820312 0 256 C 0 209.78125 12.25 166.429688 33.679688 129 C 77.800781 206.070312 160.839844 258 256 258 C 351.160156 258 434.210938 206.070312 478.320312 129 C 499.75 166.429688 512 209.78125 512 256 Z M 512 256 " style=" stroke:none;fill-rule:nonzero;fill:rgb(5.882353%,60.784314%,90.980392%);fill-opacity:1;" />
<path d="M 30.742188 377.703125 C 37.898438 390.921875 46.171875 403.441406 55.460938 415.128906 C 102.359375 474.148438 174.761719 512 256 512 C 337.238281 512 409.640625 474.148438 456.539062 415.128906 C 465.828125 403.441406 474.101562 390.921875 481.257812 377.703125 Z M 30.742188 377.703125 " style=" stroke:none;fill-rule:nonzero;fill:rgb(70.980392%,88.627451%,21.568627%);fill-opacity:1;" />
<path d="M 256 132.667969 L 291.5 132.667969 L 291.5 153.667969 L 256 153.667969 Z M 256 132.667969 " style=" stroke:none;fill-rule:nonzero;fill:rgb(100%,81.960784%,7.058824%);fill-opacity:1;" />
<path d="M 251 125.332031 L 261 125.332031 L 261 177 L 251 177 Z M 251 125.332031 " style=" stroke:none;fill-rule:nonzero;fill:rgb(19.607843%,23.137255%,35.294118%);fill-opacity:1;" />
<path d="M 444.550781 275 L 444.550781 429.160156 C 444.03125 429.730469 443.511719 430.289062 442.988281 430.851562 C 442.148438 431.738281 441.320312 432.621094 440.46875 433.5 L 71.53125 433.5 C 70.679688 432.621094 69.851562 431.738281 69.011719 430.851562 C 68.488281 430.289062 67.96875 429.730469 67.449219 429.160156 L 67.449219 275 L 103.230469 275.070312 L 408.769531 275.070312 Z M 444.550781 275 " style=" stroke:none;fill-rule:nonzero;fill:rgb(100%,100%,100%);fill-opacity:1;" />
<path d="M 444.550781 275.070312 L 444.550781 429.160156 C 444.03125 429.730469 443.511719 430.289062 442.988281 430.851562 C 442.148438 431.738281 441.320312 432.621094 440.46875 433.5 L 256 433.5 L 256 275.148438 L 273.679688 275.140625 L 284.230469 275.140625 L 313.5 275.128906 Z M 444.550781 275.070312 " style=" stroke:none;fill-rule:nonzero;fill:rgb(81.568627%,96.470588%,100%);fill-opacity:1;" />
<path d="M 467.101562 288.265625 L 44.898438 288.265625 C 59.949219 275.664062 68.390625 268.601562 83.441406 256 L 428.558594 256 C 443.609375 268.601562 452.050781 275.664062 467.101562 288.265625 Z M 467.101562 288.265625 " style=" stroke:none;fill-rule:nonzero;fill:rgb(65.098039%,22.352941%,7.843137%);fill-opacity:1;" />
<path d="M 467.101562 288.265625 L 256 288.265625 L 256 256 L 428.558594 256 C 443.609375 268.601562 452.050781 275.664062 467.101562 288.265625 Z M 467.101562 288.265625 " style=" stroke:none;fill-rule:nonzero;fill:rgb(47.843137%,17.647059%,10.196078%);fill-opacity:1;" />
<path d="M 198.5 239.441406 L 313.5 239.441406 L 313.5 433.5 L 198.5 433.5 Z M 198.5 239.441406 " style=" stroke:none;fill-rule:nonzero;fill:rgb(100%,100%,100%);fill-opacity:1;" />
<path d="M 256 239.441406 L 313.5 239.441406 L 313.5 433.5 L 256 433.5 Z M 256 239.441406 " style=" stroke:none;fill-rule:nonzero;fill:rgb(81.568627%,96.470588%,100%);fill-opacity:1;" />
<path d="M 211.671875 347 L 300.328125 347 L 300.328125 433.5 L 211.671875 433.5 Z M 211.671875 347 " style=" stroke:none;fill-rule:nonzero;fill:rgb(81.568627%,96.470588%,100%);fill-opacity:1;" />
<path d="M 256 347 L 300.328125 347 L 300.328125 433.5 L 256 433.5 Z M 256 347 " style=" stroke:none;fill-rule:nonzero;fill:rgb(39.607843%,69.803922%,100%);fill-opacity:1;" />
<path d="M 349.230469 248.503906 L 162.769531 248.503906 L 256 164.996094 Z M 349.230469 248.503906 " style=" stroke:none;fill-rule:nonzero;fill:rgb(65.098039%,22.352941%,7.843137%);fill-opacity:1;" />
<path d="M 349.230469 248.503906 L 256 248.503906 L 256 164.996094 Z M 349.230469 248.503906 " style=" stroke:none;fill-rule:nonzero;fill:rgb(47.843137%,17.647059%,10.196078%);fill-opacity:1;" />
<path d="M 440.460938 433.5 C 439.730469 434.261719 439 435.011719 438.261719 435.761719 C 437.53125 436.511719 436.789062 437.25 436.039062 437.980469 C 435.289062 438.71875 434.539062 439.460938 433.789062 440.179688 C 433.039062 440.910156 432.269531 441.640625 431.511719 442.359375 C 430.75 443.078125 429.980469 443.789062 429.210938 444.5 C 428.460938 445.191406 427.699219 445.878906 426.949219 446.558594 C 426.828125 446.671875 426.710938 446.78125 426.578125 446.890625 C 425.648438 447.71875 424.710938 448.550781 423.769531 449.359375 C 423.660156 449.460938 423.539062 449.558594 423.429688 449.648438 C 422.460938 450.5 421.480469 451.339844 420.488281 452.160156 C 418.121094 454.148438 415.71875 456.101562 413.28125 458 C 413.28125 458 413.28125 458 413.269531 458 C 412.71875 458.429688 412.171875 458.859375 411.621094 459.28125 C 408.53125 461.648438 405.378906 463.960938 402.179688 466.179688 C 401.320312 466.78125 400.449219 467.378906 399.578125 467.96875 C 397.839844 469.148438 396.089844 470.308594 394.320312 471.449219 C 390.78125 473.730469 387.171875 475.929688 383.5 478.039062 C 381.691406 479.078125 379.859375 480.101562 378.019531 481.101562 C 377.121094 481.589844 376.210938 482.078125 375.289062 482.558594 C 374.378906 483.050781 373.460938 483.519531 372.539062 483.988281 C 371.621094 484.460938 370.699219 484.929688 369.769531 485.390625 C 368.851562 485.851562 367.921875 486.300781 366.980469 486.75 C 366.050781 487.199219 365.121094 487.648438 364.179688 488.078125 C 363.238281 488.519531 362.300781 488.960938 361.351562 489.378906 C 360.628906 489.710938 359.898438 490.039062 359.171875 490.351562 C 359.058594 490.410156 358.960938 490.449219 358.851562 490.5 C 358.398438 490.699219 357.960938 490.890625 357.511719 491.078125 C 356.691406 491.441406 355.859375 491.789062 355.03125 492.140625 C 353.320312 492.859375 351.601562 493.558594 349.871094 494.238281 C 349 494.578125 348.128906 494.921875 347.25 495.25 C 346.160156 495.671875 345.070312 496.078125 343.980469 496.46875 C 343.011719 496.828125 342.039062 497.179688 341.070312 497.519531 C 340.378906 497.769531 339.691406 498.011719 338.988281 498.238281 C 338.871094 498.289062 338.75 498.328125 338.628906 498.371094 C 338.011719 498.578125 337.378906 498.789062 336.761719 498.988281 C 335.921875 499.28125 335.078125 499.550781 334.238281 499.820312 C 334.078125 499.871094 333.929688 499.921875 333.769531 499.96875 C 332.800781 500.28125 331.820312 500.589844 330.851562 500.878906 C 330.738281 500.910156 330.640625 500.949219 330.53125 500.980469 C 329.78125 501.210938 329.03125 501.429688 328.269531 501.648438 C 327.890625 501.769531 327.511719 501.878906 327.121094 501.988281 C 327.109375 501.988281 327.089844 502 327.078125 502 C 326.378906 502.199219 325.671875 502.410156 324.960938 502.601562 C 323.089844 503.128906 321.199219 503.628906 319.308594 504.109375 C 318.601562 504.289062 317.898438 504.46875 317.191406 504.640625 C 317.019531 504.679688 316.839844 504.730469 316.660156 504.769531 C 316.53125 504.800781 316.398438 504.828125 316.269531 504.859375 C 315.449219 505.058594 314.628906 505.25 313.808594 505.441406 C 313.378906 505.539062 312.941406 505.640625 312.5 505.738281 C 312.058594 505.839844 311.621094 505.941406 311.179688 506.03125 C 311.011719 506.070312 310.828125 506.109375 310.660156 506.148438 C 310.070312 506.28125 309.480469 506.398438 308.890625 506.53125 C 308.699219 506.570312 308.5 506.609375 308.308594 506.648438 C 307.671875 506.78125 307.019531 506.910156 306.378906 507.039062 C 305.988281 507.121094 305.601562 507.199219 305.210938 507.269531 C 304.550781 507.398438 303.898438 507.53125 303.238281 507.640625 C 302.328125 507.820312 301.410156 507.988281 300.488281 508.140625 C 299.839844 508.261719 299.191406 508.378906 298.53125 508.480469 C 298.488281 508.488281 298.441406 508.488281 298.398438 508.5 C 297.628906 508.628906 296.851562 508.761719 296.078125 508.878906 C 295.941406 508.898438 295.808594 508.921875 295.671875 508.941406 C 294.671875 509.101562 293.679688 509.25 292.679688 509.390625 C 291.921875 509.5 291.160156 509.609375 290.398438 509.699219 C 289.800781 509.789062 289.199219 509.871094 288.601562 509.941406 C 287.640625 510.070312 286.671875 510.191406 285.691406 510.300781 C 285.601562 510.308594 285.511719 510.320312 285.421875 510.328125 C 284.539062 510.429688 283.660156 510.519531 282.769531 510.621094 C 281.679688 510.730469 280.601562 510.839844 279.511719 510.929688 C 278.820312 511 278.128906 511.058594 277.429688 511.109375 C 276.851562 511.160156 276.269531 511.210938 275.699219 511.25 C 275.570312 511.261719 275.449219 511.269531 275.320312 511.28125 C 274.5 511.339844 273.671875 511.398438 272.851562 511.449219 C 271.730469 511.53125 270.621094 511.589844 269.5 511.648438 C 268.578125 511.699219 267.660156 511.738281 266.738281 511.769531 C 266.589844 511.78125 266.441406 511.78125 266.289062 511.789062 C 265.121094 511.839844 263.941406 511.878906 262.769531 511.910156 C 261.839844 511.941406 260.910156 511.960938 259.96875 511.96875 L 259.820312 511.96875 C 258.550781 511.988281 257.28125 512 256 512 C 254.71875 512 253.449219 511.988281 252.179688 511.96875 L 252.03125 511.96875 C 251.089844 511.960938 250.160156 511.941406 249.230469 511.910156 C 248.058594 511.878906 246.878906 511.839844 245.710938 511.789062 C 245.558594 511.78125 245.410156 511.78125 245.261719 511.769531 C 244.339844 511.738281 243.421875 511.699219 242.5 511.648438 C 241.378906 511.589844 240.269531 511.53125 239.148438 511.449219 C 238.328125 511.398438 237.5 511.339844 236.679688 511.28125 C 236.550781 511.269531 236.429688 511.261719 236.300781 511.25 C 235.730469 511.210938 235.148438 511.160156 234.570312 511.109375 C 233.871094 511.058594 233.179688 511 232.488281 510.929688 C 231.398438 510.839844 230.320312 510.730469 229.230469 510.621094 C 228.339844 510.519531 227.460938 510.429688 226.578125 510.328125 C 226.488281 510.320312 226.398438 510.308594 226.308594 510.300781 C 225.328125 510.191406 224.359375 510.070312 223.398438 509.941406 C 222.800781 509.871094 222.199219 509.789062 221.601562 509.699219 C 220.839844 509.609375 220.078125 509.5 219.320312 509.390625 C 218.320312 509.25 217.328125 509.101562 216.328125 508.941406 C 216.191406 508.921875 216.058594 508.898438 215.921875 508.878906 C 215.148438 508.761719 214.371094 508.628906 213.601562 508.5 C 213.558594 508.488281 213.511719 508.488281 213.46875 508.480469 C 212.808594 508.378906 212.160156 508.261719 211.511719 508.140625 C 210.589844 507.988281 209.671875 507.820312 208.761719 507.640625 C 208.101562 507.53125 207.449219 507.398438 206.789062 507.269531 C 206.398438 507.199219 206.011719 507.121094 205.621094 507.039062 C 204.980469 506.910156 204.328125 506.78125 203.691406 506.648438 C 203.5 506.609375 203.300781 506.570312 203.109375 506.53125 C 202.519531 506.398438 201.929688 506.28125 201.339844 506.148438 C 201.171875 506.109375 200.988281 506.070312 200.820312 506.03125 C 200.378906 505.941406 199.941406 505.839844 199.5 505.738281 C 199.058594 505.640625 198.621094 505.539062 198.191406 505.441406 C 197.371094 505.25 196.550781 505.058594 195.730469 504.859375 C 195.601562 504.828125 195.46875 504.800781 195.339844 504.769531 C 195.160156 504.730469 194.988281 504.679688 194.820312 504.640625 C 194.109375 504.46875 193.398438 504.289062 192.691406 504.109375 C 190.800781 503.628906 188.910156 503.128906 187.039062 502.601562 C 186.328125 502.410156 185.621094 502.199219 184.921875 502 C 184.910156 502 184.890625 501.988281 184.878906 501.988281 C 184.488281 501.878906 184.109375 501.769531 183.730469 501.648438 C 182.96875 501.429688 182.21875 501.210938 181.46875 500.980469 C 181.359375 500.949219 181.261719 500.910156 181.148438 500.878906 C 180.179688 500.589844 179.199219 500.28125 178.230469 499.96875 C 178.070312 499.921875 177.921875 499.871094 177.761719 499.820312 C 176.921875 499.550781 176.078125 499.28125 175.238281 498.988281 C 174.621094 498.789062 173.988281 498.578125 173.371094 498.371094 C 173.25 498.328125 173.128906 498.289062 173.011719 498.238281 C 172.308594 498.011719 171.621094 497.769531 170.929688 497.519531 C 169.960938 497.179688 168.988281 496.828125 168.019531 496.46875 C 166.929688 496.078125 165.839844 495.671875 164.75 495.25 C 163.871094 494.921875 163 494.578125 162.128906 494.238281 C 160.398438 493.558594 158.679688 492.859375 156.96875 492.140625 C 156.140625 491.789062 155.308594 491.441406 154.488281 491.078125 C 154.039062 490.890625 153.601562 490.699219 153.148438 490.5 C 153.039062 490.449219 152.941406 490.410156 152.828125 490.351562 C 152.101562 490.039062 151.371094 489.710938 150.648438 489.378906 C 149.699219 488.960938 148.761719 488.519531 147.820312 488.078125 C 146.878906 487.648438 145.949219 487.199219 145.019531 486.75 C 144.078125 486.300781 143.148438 485.851562 142.230469 485.390625 C 141.300781 484.929688 140.378906 484.460938 139.460938 483.988281 C 138.539062 483.519531 137.621094 483.050781 136.710938 482.558594 C 135.789062 482.078125 134.878906 481.589844 133.980469 481.101562 C 131.699219 479.871094 129.441406 478.589844 127.210938 477.28125 C 126.511719 476.871094 125.808594 476.460938 125.109375 476.039062 C 124.421875 475.640625 123.738281 475.230469 123.058594 474.808594 C 122.160156 474.269531 121.261719 473.710938 120.371094 473.148438 C 119.46875 472.601562 118.589844 472.03125 117.699219 471.460938 C 116.808594 470.890625 115.929688 470.308594 115.050781 469.730469 C 113.289062 468.570312 111.550781 467.390625 109.820312 466.179688 C 108.960938 465.578125 108.101562 464.96875 107.25 464.359375 C 106.390625 463.75 105.539062 463.128906 104.691406 462.511719 C 103.839844 461.890625 103 461.261719 102.160156 460.628906 L 99.910156 458.921875 C 99.511719 458.609375 99.121094 458.308594 98.730469 458 C 98.210938 457.589844 97.691406 457.179688 97.171875 456.769531 C 96.351562 456.121094 95.53125 455.460938 94.710938 454.800781 C 93.898438 454.140625 93.089844 453.46875 92.28125 452.800781 C 91.46875 452.128906 90.671875 451.449219 89.871094 450.769531 C 89.070312 450.089844 88.28125 449.398438 87.488281 448.710938 C 86.699219 448.019531 85.910156 447.320312 85.128906 446.621094 C 84.289062 445.871094 83.460938 445.121094 82.640625 444.351562 C 81.929688 443.699219 81.21875 443.03125 80.511719 442.371094 C 80.5 442.371094 80.488281 442.359375 80.480469 442.339844 C 78.960938 440.910156 77.449219 439.449219 75.96875 437.980469 C 75.21875 437.25 74.480469 436.5 73.75 435.761719 C 73.011719 435.011719 72.28125 434.261719 71.550781 433.5 Z M 440.460938 433.5 " style=" stroke:none;fill-rule:nonzero;fill:rgb(100%,100%,100%);fill-opacity:1;" />
<path d="M 440.449219 433.433594 C 436.847656 434.164062 429.050781 444.746094 426.101562 447.371094 C 420.625 452.253906 414.933594 456.886719 409.046875 461.265625 C 397.308594 470 384.808594 477.703125 371.746094 484.292969 C 344.996094 497.789062 315.90625 506.589844 286.167969 510.199219 C 224.230469 517.71875 159.03125 501.210938 107.871094 464.804688 C 94.8125 455.511719 82.535156 445.027344 71.476562 433.421875 C 74.707031 433.949219 78.449219 433.5 81.746094 433.5 C 90.710938 433.5 99.679688 433.5 108.644531 433.5 C 137.894531 433.5 167.140625 433.5 196.390625 433.5 C 262.355469 433.5 328.320312 433.5 394.285156 433.5 C 405.332031 433.5 416.378906 433.5 427.421875 433.5 C 431.625 433.5 436.402344 434.09375 440.53125 433.421875 C 440.503906 433.425781 440.476562 433.429688 440.449219 433.433594 Z M 440.449219 433.433594 " style=" stroke:none;fill-rule:nonzero;fill:rgb(19.607843%,23.137255%,35.294118%);fill-opacity:1;" />
<path d="M 211.667969 433.5 L 300.335938 433.5 L 300.335938 458 L 211.667969 458 Z M 211.667969 433.5 " style=" stroke:none;fill-rule:nonzero;fill:rgb(81.568627%,96.470588%,100%);fill-opacity:1;" />
<path d="M 180.261719 433.5 L 71.53125 433.5 C 70.679688 432.621094 69.851562 431.738281 69.011719 430.851562 C 68.488281 430.289062 67.96875 429.730469 67.449219 429.160156 C 64.28125 425.710938 61.199219 422.171875 58.21875 418.550781 C 61.019531 417.429688 64.070312 416.800781 67.269531 416.761719 C 67.320312 416.46875 67.378906 416.171875 67.449219 415.878906 C 70.890625 399.601562 85.320312 387.378906 102.621094 387.378906 C 108.03125 387.378906 113.148438 388.578125 117.75 390.710938 C 121.710938 387.898438 126.539062 386.25 131.769531 386.25 C 145.171875 386.25 156.03125 397.109375 156.03125 410.511719 C 169 410.511719 179.601562 420.691406 180.261719 433.5 Z M 180.261719 433.5 " style=" stroke:none;fill-rule:nonzero;fill:rgb(42.352941%,86.27451%,17.647059%);fill-opacity:1;" />
<path d="M 156.289062 433.5 L 71.53125 433.5 C 70.679688 432.621094 69.851562 431.738281 69.011719 430.851562 C 71.808594 426 77.011719 422.71875 83 422.640625 C 85.011719 411.800781 94.511719 403.578125 105.929688 403.578125 C 109.441406 403.578125 112.761719 404.359375 115.738281 405.75 C 118.308594 403.921875 121.449219 402.851562 124.839844 402.851562 C 133.53125 402.851562 140.578125 409.898438 140.578125 418.589844 C 148.988281 418.589844 155.859375 425.191406 156.289062 433.5 Z M 156.289062 433.5 " style=" stroke:none;fill-rule:nonzero;fill:rgb(0%,62.745098%,25.882353%);fill-opacity:1;" />
<path d="M 453.78125 418.550781 C 450.800781 422.171875 447.71875 425.710938 444.550781 429.160156 C 444.03125 429.730469 443.511719 430.289062 442.988281 430.851562 C 442.148438 431.738281 441.320312 432.621094 440.46875 433.5 L 331.738281 433.5 C 332.398438 420.691406 343 410.511719 355.96875 410.511719 C 355.96875 397.109375 366.828125 386.25 380.230469 386.25 C 385.460938 386.25 390.289062 387.898438 394.25 390.710938 C 398.851562 388.578125 403.96875 387.378906 409.378906 387.378906 C 426.679688 387.378906 441.109375 399.601562 444.550781 415.878906 C 444.621094 416.171875 444.679688 416.46875 444.730469 416.761719 C 447.929688 416.800781 450.980469 417.429688 453.78125 418.550781 Z M 453.78125 418.550781 " style=" stroke:none;fill-rule:nonzero;fill:rgb(42.352941%,86.27451%,17.647059%);fill-opacity:1;" />
<path d="M 442.988281 430.851562 C 442.148438 431.738281 441.320312 432.621094 440.46875 433.5 L 355.710938 433.5 C 356.140625 425.191406 363.011719 418.589844 371.421875 418.589844 C 371.421875 409.898438 378.46875 402.851562 387.160156 402.851562 C 390.550781 402.851562 393.691406 403.921875 396.261719 405.75 C 399.238281 404.359375 402.558594 403.578125 406.070312 403.578125 C 417.488281 403.578125 426.988281 411.800781 429 422.640625 C 434.988281 422.71875 440.191406 426 442.988281 430.851562 Z M 442.988281 430.851562 " style=" stroke:none;fill-rule:nonzero;fill:rgb(0%,62.745098%,25.882353%);fill-opacity:1;" />
<path d="M 129.996094 221.988281 C 129.996094 221.921875 130 221.855469 130 221.789062 C 130 209.617188 120.132812 199.753906 107.964844 199.753906 C 105.070312 199.753906 102.3125 200.316406 99.78125 201.328125 C 94.894531 192.574219 85.546875 186.648438 74.808594 186.648438 C 60.863281 186.648438 49.257812 196.636719 46.734375 209.84375 C 45.984375 209.738281 45.214844 209.679688 44.433594 209.679688 C 36.851562 209.679688 30.5 214.925781 28.800781 221.988281 Z M 129.996094 221.988281 " style=" stroke:none;fill-rule:nonzero;fill:rgb(100%,100%,100%);fill-opacity:1;" />
<path d="M 108.492188 221.988281 C 108.492188 221.949219 108.496094 221.910156 108.496094 221.871094 C 108.496094 214.875 102.824219 209.203125 95.824219 209.203125 C 94.164062 209.203125 92.578125 209.523438 91.121094 210.109375 C 88.3125 205.074219 82.9375 201.667969 76.761719 201.667969 C 68.742188 201.667969 62.070312 207.410156 60.617188 215.007812 C 60.1875 214.945312 59.746094 214.910156 59.296875 214.910156 C 54.9375 214.910156 51.285156 217.929688 50.308594 221.988281 Z M 108.492188 221.988281 " style=" stroke:none;fill-rule:nonzero;fill:rgb(81.568627%,96.470588%,100%);fill-opacity:1;" />
<path d="M 470.234375 221.988281 C 470.234375 221.921875 470.238281 221.855469 470.238281 221.789062 C 470.238281 209.617188 460.371094 199.753906 448.203125 199.753906 C 445.3125 199.753906 442.550781 200.316406 440.023438 201.328125 C 435.136719 192.574219 425.785156 186.648438 415.046875 186.648438 C 401.105469 186.648438 389.496094 196.636719 386.976562 209.84375 C 386.222656 209.738281 385.453125 209.679688 384.671875 209.679688 C 377.089844 209.679688 370.738281 214.925781 369.042969 221.988281 Z M 470.234375 221.988281 " style=" stroke:none;fill-rule:nonzero;fill:rgb(100%,100%,100%);fill-opacity:1;" />
<path d="M 448.734375 221.988281 C 448.734375 221.949219 448.734375 221.910156 448.734375 221.871094 C 448.734375 214.875 443.0625 209.203125 436.066406 209.203125 C 434.402344 209.203125 432.816406 209.523438 431.363281 210.109375 C 428.550781 205.074219 423.175781 201.667969 417 201.667969 C 408.984375 201.667969 402.308594 207.410156 400.859375 215.007812 C 400.425781 214.945312 399.984375 214.910156 399.535156 214.910156 C 395.175781 214.910156 391.523438 217.929688 390.546875 221.988281 Z M 448.734375 221.988281 " style=" stroke:none;fill-rule:nonzero;fill:rgb(81.568627%,96.470588%,100%);fill-opacity:1;" />
<path d="M 210.238281 156.386719 C 210.238281 156.320312 210.246094 156.257812 210.246094 156.1875 C 210.246094 144.019531 200.378906 134.152344 188.207031 134.152344 C 185.316406 134.152344 182.558594 134.714844 180.027344 135.726562 C 175.140625 126.972656 165.789062 121.050781 155.054688 121.050781 C 141.109375 121.050781 129.503906 131.035156 126.980469 144.246094 C 126.226562 144.136719 125.460938 144.078125 124.679688 144.078125 C 117.097656 144.078125 110.742188 149.328125 109.046875 156.386719 Z M 210.238281 156.386719 " style=" stroke:none;fill-rule:nonzero;fill:rgb(100%,100%,100%);fill-opacity:1;" />
<path d="M 188.738281 156.386719 C 188.738281 156.351562 188.742188 156.3125 188.742188 156.273438 C 188.742188 149.277344 183.070312 143.601562 176.070312 143.601562 C 174.40625 143.601562 172.820312 143.925781 171.367188 144.507812 C 168.558594 139.476562 163.183594 136.070312 157.007812 136.070312 C 148.988281 136.070312 142.316406 141.8125 140.863281 149.40625 C 140.433594 149.34375 139.988281 149.3125 139.539062 149.3125 C 135.179688 149.3125 131.527344 152.328125 130.554688 156.390625 L 188.738281 156.390625 Z M 188.738281 156.386719 " style=" stroke:none;fill-rule:nonzero;fill:rgb(81.568627%,96.470588%,100%);fill-opacity:1;" />
<path d="M 402.945312 156.386719 C 402.945312 156.320312 402.953125 156.257812 402.953125 156.1875 C 402.953125 144.019531 393.085938 134.152344 380.914062 134.152344 C 378.023438 134.152344 375.265625 134.714844 372.734375 135.726562 C 367.847656 126.972656 358.496094 121.050781 347.761719 121.050781 C 333.816406 121.050781 322.210938 131.035156 319.6875 144.246094 C 318.9375 144.136719 318.167969 144.078125 317.386719 144.078125 C 309.804688 144.078125 303.453125 149.328125 301.753906 156.386719 Z M 402.945312 156.386719 " style=" stroke:none;fill-rule:nonzero;fill:rgb(100%,100%,100%);fill-opacity:1;" />
<path d="M 381.445312 156.386719 C 381.445312 156.351562 381.449219 156.3125 381.449219 156.273438 C 381.449219 149.277344 375.777344 143.601562 368.777344 143.601562 C 367.113281 143.601562 365.527344 143.925781 364.074219 144.507812 C 361.265625 139.476562 355.890625 136.070312 349.714844 136.070312 C 341.695312 136.070312 335.023438 141.8125 333.570312 149.40625 C 333.140625 149.34375 332.695312 149.3125 332.246094 149.3125 C 327.886719 149.3125 324.234375 152.328125 323.261719 156.390625 L 381.445312 156.390625 Z M 381.445312 156.386719 " style=" stroke:none;fill-rule:nonzero;fill:rgb(81.568627%,96.470588%,100%);fill-opacity:1;" />
<path d="M 287.105469 288.210938 C 287.105469 271.035156 273.179688 257.109375 256 257.109375 C 238.820312 257.109375 224.894531 271.035156 224.894531 288.210938 C 224.894531 305.386719 238.820312 319.3125 256 319.3125 C 273.179688 319.3125 287.105469 305.386719 287.105469 288.210938 Z M 287.105469 288.210938 " style=" stroke:none;fill-rule:nonzero;fill:rgb(27.843137%,30.980392%,43.529412%);fill-opacity:1;" />
<path d="M 287.105469 288.210938 C 287.105469 305.386719 273.175781 319.316406 256 319.316406 L 256 257.113281 C 273.175781 257.113281 287.105469 271.03125 287.105469 288.210938 Z M 287.105469 288.210938 " style=" stroke:none;fill-rule:nonzero;fill:rgb(19.607843%,23.137255%,35.294118%);fill-opacity:1;" />
<path d="M 277.988281 288.210938 C 277.988281 276.0625 268.144531 266.21875 256 266.21875 C 243.855469 266.21875 234.011719 276.0625 234.011719 288.210938 C 234.011719 300.359375 243.855469 310.203125 256 310.203125 C 268.144531 310.203125 277.988281 300.359375 277.988281 288.210938 Z M 277.988281 288.210938 " style=" stroke:none;fill-rule:nonzero;fill:rgb(81.568627%,96.470588%,100%);fill-opacity:1;" />
<path d="M 277.988281 288.210938 C 277.988281 300.355469 268.144531 310.207031 256 310.207031 L 256 266.21875 C 268.144531 266.21875 277.988281 276.0625 277.988281 288.210938 Z M 277.988281 288.210938 " style=" stroke:none;fill-rule:nonzero;fill:rgb(39.607843%,69.803922%,100%);fill-opacity:1;" />
<path d="M 258 290.210938 L 241.894531 290.210938 L 241.894531 286.210938 L 254 286.210938 L 254 270.050781 L 258 270.050781 Z M 258 290.210938 " style=" stroke:none;fill-rule:nonzero;fill:rgb(27.843137%,30.980392%,43.529412%);fill-opacity:1;" />
<path d="M 255.289062 288.917969 L 256.703125 287.503906 L 266.046875 296.847656 L 264.632812 298.261719 Z M 255.289062 288.917969 " style=" stroke:none;fill-rule:nonzero;fill:rgb(27.843137%,30.980392%,43.529412%);fill-opacity:1;" />
<path d="M 224.550781 361.949219 L 287.449219 361.949219 L 287.449219 433.5 L 224.550781 433.5 Z M 224.550781 361.949219 " style=" stroke:none;fill-rule:nonzero;fill:rgb(65.098039%,22.352941%,7.843137%);fill-opacity:1;" />
<path d="M 256 361.949219 L 287.449219 361.949219 L 287.449219 433.5 L 256 433.5 Z M 256 361.949219 " style=" stroke:none;fill-rule:nonzero;fill:rgb(47.843137%,17.647059%,10.196078%);fill-opacity:1;" />
<path d="M 125.8125 349.5 L 156.980469 349.5 L 156.980469 380.664062 L 125.8125 380.664062 Z M 125.8125 349.5 " style=" stroke:none;fill-rule:nonzero;fill:rgb(27.843137%,30.980392%,43.529412%);fill-opacity:1;" />
<path d="M 141.398438 349.5 L 156.980469 349.5 L 156.980469 380.664062 L 141.398438 380.664062 Z M 141.398438 349.5 " style=" stroke:none;fill-rule:nonzero;fill:rgb(19.607843%,23.137255%,35.294118%);fill-opacity:1;" />
<path d="M 83.921875 349.5 L 115.085938 349.5 L 115.085938 380.664062 L 83.921875 380.664062 Z M 83.921875 349.5 " style=" stroke:none;fill-rule:nonzero;fill:rgb(27.843137%,30.980392%,43.529412%);fill-opacity:1;" />
<path d="M 99.503906 349.5 L 115.085938 349.5 L 115.085938 380.664062 L 99.503906 380.664062 Z M 99.503906 349.5 " style=" stroke:none;fill-rule:nonzero;fill:rgb(19.607843%,23.137255%,35.294118%);fill-opacity:1;" />
<path d="M 167.835938 349.5 L 199.003906 349.5 L 199.003906 380.664062 L 167.835938 380.664062 Z M 167.835938 349.5 " style=" stroke:none;fill-rule:nonzero;fill:rgb(27.843137%,30.980392%,43.529412%);fill-opacity:1;" />
<path d="M 183.421875 349.5 L 199.003906 349.5 L 199.003906 380.664062 L 183.421875 380.664062 Z M 183.421875 349.5 " style=" stroke:none;fill-rule:nonzero;fill:rgb(19.607843%,23.137255%,35.294118%);fill-opacity:1;" />
<path d="M 125.8125 301.5 L 156.980469 301.5 L 156.980469 332.664062 L 125.8125 332.664062 Z M 125.8125 301.5 " style=" stroke:none;fill-rule:nonzero;fill:rgb(27.843137%,30.980392%,43.529412%);fill-opacity:1;" />
<path d="M 141.398438 301.5 L 156.980469 301.5 L 156.980469 332.664062 L 141.398438 332.664062 Z M 141.398438 301.5 " style=" stroke:none;fill-rule:nonzero;fill:rgb(19.607843%,23.137255%,35.294118%);fill-opacity:1;" />
<path d="M 83.921875 301.5 L 115.085938 301.5 L 115.085938 332.664062 L 83.921875 332.664062 Z M 83.921875 301.5 " style=" stroke:none;fill-rule:nonzero;fill:rgb(27.843137%,30.980392%,43.529412%);fill-opacity:1;" />
<path d="M 99.503906 301.5 L 115.085938 301.5 L 115.085938 332.664062 L 99.503906 332.664062 Z M 99.503906 301.5 " style=" stroke:none;fill-rule:nonzero;fill:rgb(19.607843%,23.137255%,35.294118%);fill-opacity:1;" />
<path d="M 167.835938 301.5 L 199.003906 301.5 L 199.003906 332.664062 L 167.835938 332.664062 Z M 167.835938 301.5 " style=" stroke:none;fill-rule:nonzero;fill:rgb(27.843137%,30.980392%,43.529412%);fill-opacity:1;" />
<path d="M 183.421875 301.5 L 199.003906 301.5 L 199.003906 332.664062 L 183.421875 332.664062 Z M 183.421875 301.5 " style=" stroke:none;fill-rule:nonzero;fill:rgb(19.607843%,23.137255%,35.294118%);fill-opacity:1;" />
<path d="M 356.917969 349.5 L 388.082031 349.5 L 388.082031 380.664062 L 356.917969 380.664062 Z M 356.917969 349.5 " style=" stroke:none;fill-rule:nonzero;fill:rgb(27.843137%,30.980392%,43.529412%);fill-opacity:1;" />
<path d="M 372.5 349.5 L 388.082031 349.5 L 388.082031 380.664062 L 372.5 380.664062 Z M 372.5 349.5 " style=" stroke:none;fill-rule:nonzero;fill:rgb(19.607843%,23.137255%,35.294118%);fill-opacity:1;" />
<path d="M 315.023438 349.5 L 346.1875 349.5 L 346.1875 380.664062 L 315.023438 380.664062 Z M 315.023438 349.5 " style=" stroke:none;fill-rule:nonzero;fill:rgb(27.843137%,30.980392%,43.529412%);fill-opacity:1;" />
<path d="M 330.605469 349.5 L 346.1875 349.5 L 346.1875 380.664062 L 330.605469 380.664062 Z M 330.605469 349.5 " style=" stroke:none;fill-rule:nonzero;fill:rgb(19.607843%,23.137255%,35.294118%);fill-opacity:1;" />
<path d="M 398.941406 349.5 L 430.105469 349.5 L 430.105469 380.664062 L 398.941406 380.664062 Z M 398.941406 349.5 " style=" stroke:none;fill-rule:nonzero;fill:rgb(27.843137%,30.980392%,43.529412%);fill-opacity:1;" />
<path d="M 414.523438 349.5 L 430.105469 349.5 L 430.105469 380.664062 L 414.523438 380.664062 Z M 414.523438 349.5 " style=" stroke:none;fill-rule:nonzero;fill:rgb(19.607843%,23.137255%,35.294118%);fill-opacity:1;" />
<path d="M 356.917969 301.5 L 388.082031 301.5 L 388.082031 332.664062 L 356.917969 332.664062 Z M 356.917969 301.5 " style=" stroke:none;fill-rule:nonzero;fill:rgb(27.843137%,30.980392%,43.529412%);fill-opacity:1;" />
<path d="M 372.5 301.5 L 388.082031 301.5 L 388.082031 332.664062 L 372.5 332.664062 Z M 372.5 301.5 " style=" stroke:none;fill-rule:nonzero;fill:rgb(19.607843%,23.137255%,35.294118%);fill-opacity:1;" />
<path d="M 315.023438 301.5 L 346.1875 301.5 L 346.1875 332.664062 L 315.023438 332.664062 Z M 315.023438 301.5 " style=" stroke:none;fill-rule:nonzero;fill:rgb(27.843137%,30.980392%,43.529412%);fill-opacity:1;" />
<path d="M 330.605469 301.5 L 346.1875 301.5 L 346.1875 332.664062 L 330.605469 332.664062 Z M 330.605469 301.5 " style=" stroke:none;fill-rule:nonzero;fill:rgb(19.607843%,23.137255%,35.294118%);fill-opacity:1;" />
<path d="M 398.941406 301.5 L 430.105469 301.5 L 430.105469 332.664062 L 398.941406 332.664062 Z M 398.941406 301.5 " style=" stroke:none;fill-rule:nonzero;fill:rgb(27.843137%,30.980392%,43.529412%);fill-opacity:1;" />
<path d="M 414.523438 301.5 L 430.105469 301.5 L 430.105469 332.664062 L 414.523438 332.664062 Z M 414.523438 301.5 " style=" stroke:none;fill-rule:nonzero;fill:rgb(19.607843%,23.137255%,35.294118%);fill-opacity:1;" />
<path d="M 211.671875 433.5 L 211.671875 458 L 98.730469 458 C 98.210938 457.589844 97.691406 457.179688 97.171875 456.769531 C 96.351562 456.121094 95.53125 455.460938 94.710938 454.800781 C 93.898438 454.140625 93.089844 453.46875 92.28125 452.800781 C 91.46875 452.128906 90.671875 451.449219 89.871094 450.769531 C 89.070312 450.089844 88.28125 449.398438 87.488281 448.710938 C 86.699219 448.019531 85.910156 447.320312 85.128906 446.621094 C 84.289062 445.871094 83.460938 445.121094 82.640625 444.351562 C 81.929688 443.699219 81.21875 443.03125 80.511719 442.371094 C 80.5 442.371094 80.488281 442.359375 80.480469 442.339844 C 78.960938 440.921875 77.460938 439.46875 75.96875 437.980469 C 75.21875 437.25 74.480469 436.5 73.75 435.761719 C 72.988281 435.011719 72.261719 434.261719 71.53125 433.5 Z M 211.671875 433.5 " style=" stroke:none;fill-rule:nonzero;fill:rgb(100%,100%,100%);fill-opacity:1;" />
<path d="M 440.46875 433.5 C 439.738281 434.261719 439.011719 435.011719 438.261719 435.761719 C 437.53125 436.511719 436.789062 437.25 436.039062 437.980469 C 435.289062 438.71875 434.539062 439.460938 433.789062 440.179688 C 433.039062 440.910156 432.269531 441.640625 431.511719 442.359375 C 430.75 443.078125 429.980469 443.789062 429.210938 444.5 C 428.460938 445.191406 427.699219 445.878906 426.949219 446.558594 C 426.828125 446.671875 426.710938 446.78125 426.578125 446.890625 C 425.648438 447.71875 424.710938 448.550781 423.769531 449.359375 C 423.660156 449.460938 423.539062 449.558594 423.429688 449.648438 C 422.460938 450.5 421.480469 451.339844 420.488281 452.160156 C 418.121094 454.148438 415.71875 456.101562 413.28125 458 C 413.28125 458 413.28125 458 413.269531 458 L 300.328125 458 L 300.328125 433.5 Z M 440.46875 433.5 " style=" stroke:none;fill-rule:nonzero;fill:rgb(100%,100%,100%);fill-opacity:1;" />
<path d="M 256 164.996094 L 208 248.503906 L 162.769531 248.503906 Z M 256 164.996094 " style=" stroke:none;fill-rule:nonzero;fill:rgb(92.941176%,46.666667%,10.588235%);fill-opacity:1;" />
<path d="M 289.980469 57.316406 C 289.980469 76.082031 274.769531 91.296875 256 91.296875 L 255.996094 91.296875 C 237.226562 91.296875 222.019531 76.082031 222.019531 57.316406 C 222.019531 38.546875 237.226562 23.335938 255.996094 23.335938 L 256 23.335938 C 274.769531 23.332031 289.980469 38.546875 289.980469 57.316406 Z M 289.980469 57.316406 " style=" stroke:none;fill-rule:nonzero;fill:rgb(100%,91.372549%,33.333333%);fill-opacity:1;" />
<path d="M 289.980469 57.316406 C 289.980469 76.082031 274.769531 91.296875 256 91.296875 L 255.996094 91.296875 L 255.996094 23.332031 L 256 23.332031 C 274.769531 23.332031 289.980469 38.546875 289.980469 57.316406 Z M 289.980469 57.316406 " style=" stroke:none;fill-rule:nonzero;fill:rgb(100%,81.960784%,7.058824%);fill-opacity:1;" />
</g>
</svg>