<?xml version="1.0" encoding="iso-8859-1"?>
<!-- Generator: Adobe Illustrator 19.0.0, SVG Export Plug-In . SVG Version: 6.00 Build 0)  -->
<svg version="1.1" id="Capa_1" xmlns="http://www.w3.org/2000/svg" xmlns:xlink="http://www.w3.org/1999/xlink" x="0px" y="0px"
	 viewBox="0 0 512 512" style="enable-background:new 0 0 512 512;" xml:space="preserve">
<polygon style="fill:#F2FCFB;" points="502,502 10,502 10,10 402,10 502,110 "/>
<polyline style="fill:#FFFFFF;" points="459,110 459,459 52.999,459 52.999,53 402,53 "/>
<g>
	<rect x="189" y="53" style="fill:#FDE6C5;" width="134" height="134"/>
	<rect x="52.999" y="187" style="fill:#FDE6C5;" width="136" height="134"/>
	<rect x="324" y="187" style="fill:#FDE6C5;" width="134" height="134"/>
	<rect x="189" y="321" style="fill:#FDE6C5;" width="134" height="138"/>
</g>
<polyline style="fill:#C0F0ED;" points="402,10 402,110 502,110 "/>
<path d="M509.071,102.929l-100-100C407.196,1.054,404.652,0,402,0H10C4.477,0,0,4.477,0,10v492c0,5.522,4.477,10,10,10h492
	c5.523,0,10-4.478,10-10V110C512,107.348,510.946,104.804,509.071,102.929z M412,34.142L477.858,100H412V34.142z M20,492V20h372v90
	c0,5.523,4.477,10,10,10h90v372H20z"/>
<path d="M459,177c-5.523,0-10,4.477-10,10v262H63V63h301.333c5.523,0,10-4.477,10-10s-4.477-10-10-10H53c-5.523,0-10,4.477-10,10
	v406c0,5.522,4.477,10,10,10h406c5.523,0,10-4.478,10-10V187C469,181.477,464.523,177,459,177z"/>
<path d="M333,87.667c0-5.523-4.477-10-10-10s-10,4.477-10,10V177H199V87.667c0-5.523-4.477-10-10-10s-10,4.477-10,10V177h-47
	c-5.523,0-10,4.477-10,10s4.477,10,10,10h47v114H99c-5.523,0-10,4.478-10,10s4.477,10,10,10h80v91.937c0,5.522,4.477,10,10,10
	s10-4.478,10-10V331h114v91.937c0,5.522,4.477,10,10,10s10-4.478,10-10V331h80c5.523,0,10-4.478,10-10s-4.477-10-10-10h-80V197h80
	c5.523,0,10-4.477,10-10s-4.477-10-10-10h-80V87.667z M313,311H199V197h114V311z"/>
<path d="M256,165.5c5.523,0,10-4.477,10-10V84.167c0-4.044-2.437-7.691-6.173-9.239c-3.735-1.547-8.037-0.692-10.897,2.167
	l-20.543,20.542c-3.905,3.905-3.906,10.237,0,14.142c3.906,3.907,10.238,3.905,14.142,0l3.472-3.472V155.5
	C246,161.023,250.477,165.5,256,165.5z"/>
<path d="M127.12,246h-14.286C97.486,246,85,258.485,85,273.833s12.486,27.834,27.833,27.834h32.119c5.523,0,10-4.478,10-10
	s-4.477-10-10-10h-32.119c-4.319,0-7.833-3.515-7.833-7.834s3.514-7.833,7.833-7.833h14.286c15.347,0,27.833-12.486,27.833-27.833
	s-12.486-27.833-27.833-27.833H95c-5.523,0-10,4.477-10,10s4.477,10,10,10h32.12c4.319,0,7.833,3.514,7.833,7.833
	S131.439,246,127.12,246z"/>
<path d="M280.977,364.833c5.523,0,10-4.478,10-10s-4.477-10-10-10h-49.953c-5.523,0-10,4.478-10,10V390.5c0,5.522,4.477,10,10,10
	h32.12c4.319,0,7.833,3.514,7.833,7.833s-3.514,7.834-7.833,7.834h-32.12c-5.523,0-10,4.478-10,10s4.477,10,10,10h32.12
	c15.348,0,27.833-12.486,27.833-27.834S278.491,380.5,263.143,380.5h-22.12v-15.667H280.977z"/>
<path d="M413,301.667c5.523,0,10-4.478,10-10v-71.333c0-5.523-4.477-10-10-10s-10,4.477-10,10V246h-24v-25.667
	c0-5.523-4.477-10-10-10s-10,4.477-10,10V256c0,5.522,4.477,10,10,10h34v25.667C403,297.189,407.477,301.667,413,301.667z"/>
<path d="M459,160c2.63,0,5.21-1.07,7.07-2.93S469,152.63,469,150s-1.07-5.21-2.93-7.07S461.63,140,459,140s-5.21,1.07-7.07,2.93
	c-1.86,1.86-2.93,4.44-2.93,7.07s1.07,5.21,2.93,7.07C453.79,158.93,456.37,160,459,160z"/>
<path d="M95,197c2.63,0,5.21-1.07,7.07-2.93S105,189.63,105,187s-1.07-5.21-2.93-7.07S97.63,177,95,177s-5.21,1.07-7.07,2.93
	C86.07,181.79,85,184.37,85,187s1.07,5.21,2.93,7.07C89.79,195.93,92.37,197,95,197z"/>
<g>
</g>
<g>
</g>
<g>
</g>
<g>
</g>
<g>
</g>
<g>
</g>
<g>
</g>
<g>
</g>
<g>
</g>
<g>
</g>
<g>
</g>
<g>
</g>
<g>
</g>
<g>
</g>
<g>
</g>
</svg>
