<svg xmlns="http://www.w3.org/2000/svg" height="512pt" version="1.1" viewBox="0 -27 512.00007 512" width="512pt">
<g id="surface1">
<path d="M 37.257812 414.179688 C 36.972656 414.140625 36.683594 414.121094 36.398438 414.121094 C 33.957031 414.121094 31.414062 415.332031 29.230469 417.527344 C 27.332031 419.4375 25.921875 421.871094 25.363281 424.195312 C 24.039062 429.65625 26.5 435.792969 31.207031 438.792969 C 33.269531 440.105469 35.722656 440.800781 38.300781 440.800781 C 41.519531 440.800781 44.5625 439.726562 46.871094 437.777344 C 51.238281 434.097656 52.703125 427.671875 50.363281 422.496094 C 47.925781 417.117188 41.730469 414.648438 37.257812 414.179688 Z M 37.257812 414.179688 " style=" stroke:none;fill-rule:nonzero;fill:rgb(100%,100%,100%);fill-opacity:1;" />
<path d="M 6.195312 397.480469 L 74.957031 400.210938 L 75.730469 374.175781 L 7.105469 374.109375 Z M 6.195312 397.480469 " style=" stroke:none;fill-rule:nonzero;fill:rgb(100%,100%,100%);fill-opacity:1;" />
<path d="M 84.855469 67.699219 L 18.839844 70.074219 L 17.808594 97.007812 L 84.054688 94.410156 Z M 84.855469 67.699219 " style=" stroke:none;fill-rule:nonzero;fill:rgb(100%,100%,100%);fill-opacity:1;" />
<path d="M 145.179688 129.003906 L 141.070312 130.375 C 140.921875 130.425781 140.863281 130.433594 140.863281 130.433594 L 84.046875 130.558594 L 83.558594 147.054688 L 144.5625 145.457031 Z M 145.179688 129.003906 " style=" stroke:none;fill-rule:nonzero;fill:rgb(100%,100%,100%);fill-opacity:1;" />
<path d="M 164.089844 418.484375 C 155.582031 418.484375 146.914062 418.246094 138.324219 417.777344 L 135.273438 417.609375 L 134.824219 429.859375 L 137.789062 430 C 150.769531 430.605469 163.9375 430.910156 176.929688 430.910156 C 184.800781 430.910156 192.738281 430.800781 200.519531 430.574219 L 203.644531 430.914062 L 204.503906 416.785156 L 201.070312 417.050781 C 188.722656 418 176.28125 418.484375 164.089844 418.484375 Z M 164.089844 418.484375 " style=" stroke:none;fill-rule:nonzero;fill:rgb(100%,100%,100%);fill-opacity:1;" />
<path d="M 301.816406 408.984375 L 305.03125 408.984375 L 305.109375 406.0625 C 305.1875 403.035156 305.277344 400.019531 305.367188 396.890625 L 305.457031 393.886719 L 207.109375 391.203125 L 206.167969 406.800781 L 301.667969 408.953125 Z M 301.816406 408.984375 " style=" stroke:none;fill-rule:nonzero;fill:rgb(100%,100%,100%);fill-opacity:1;" />
<path d="M 497.351562 357.824219 L 395.480469 358.71875 L 394.253906 384.050781 L 496.085938 385.742188 Z M 497.351562 357.824219 " style=" stroke:none;fill-rule:nonzero;fill:rgb(100%,100%,100%);fill-opacity:1;" />
<path d="M 359.070312 153.675781 C 359.472656 153.675781 359.878906 153.667969 360.277344 153.664062 C 375.113281 153.421875 389.773438 148.316406 401.574219 139.277344 C 401.648438 139.21875 401.753906 139.1875 401.925781 139.1875 C 401.929688 139.1875 404.972656 139.371094 404.972656 139.371094 L 406.082031 116.015625 L 401.566406 118.152344 C 388.980469 124.105469 374.714844 127.253906 360.308594 127.253906 C 347.511719 127.253906 334.722656 124.734375 323.324219 119.96875 L 319.441406 118.34375 L 319.171875 122.542969 C 318.832031 127.898438 318.503906 133.261719 318.183594 138.613281 L 318.082031 140.300781 L 319.46875 141.261719 C 331.035156 149.265625 345.09375 153.675781 359.070312 153.675781 Z M 359.070312 153.675781 " style=" stroke:none;fill-rule:nonzero;fill:rgb(100%,100%,100%);fill-opacity:1;" />
<path d="M 324.796875 24.328125 L 225.226562 27.226562 L 224.988281 39.15625 L 323.777344 38.050781 Z M 324.796875 24.328125 " style=" stroke:none;fill-rule:nonzero;fill:rgb(100%,100%,100%);fill-opacity:1;" />
<path d="M 454.859375 88.398438 C 455.417969 88.429688 455.976562 88.441406 456.53125 88.441406 C 463.566406 88.441406 470.164062 86.15625 475.105469 82.003906 C 480.484375 77.496094 483.582031 70.320312 483.386719 62.808594 C 483.207031 55.304688 479.890625 48.566406 474.289062 44.320312 C 471.390625 42.125 467.777344 41.011719 463.558594 41.011719 C 453.472656 41.011719 443.027344 47.265625 438.316406 53.152344 C 433.957031 58.609375 430.347656 67.992188 434.527344 76.472656 C 437.863281 83.226562 445.839844 87.910156 454.859375 88.398438 Z M 454.859375 88.398438 " style=" stroke:none;fill-rule:nonzero;fill:rgb(100%,100%,100%);fill-opacity:1;" />
<path d="M 408.050781 97.601562 L 395.53125 357.648438 L 497.398438 356.757812 L 499.976562 299.507812 C 500.824219 280.835938 501.820312 261.839844 502.785156 243.472656 L 502.894531 241.410156 C 504.519531 210.582031 506.199219 178.703125 507.238281 146.960938 C 507.75 131.34375 507.980469 115.738281 507.917969 100.578125 L 507.90625 97.59375 Z M 431.988281 302.84375 L 435.300781 301.414062 L 435.582031 303.167969 Z M 431.988281 302.84375 " style=" stroke:none;fill-rule:nonzero;fill:rgb(79.607843%,89.803922%,50.196078%);fill-opacity:1;" />
<path d="M 408.429688 55.617188 L 408.4375 55.988281 C 408.636719 64.921875 408.839844 74.15625 408.800781 83.402344 C 408.800781 83.402344 408.796875 83.445312 408.777344 83.542969 L 408.714844 83.800781 L 408.101562 96.542969 L 507.890625 96.523438 L 507.859375 93.492188 C 507.636719 72.480469 506.863281 52.511719 505.492188 32.441406 L 505.300781 29.679688 L 408.039062 28.425781 L 408.046875 31.472656 C 408.070312 39.878906 408.269531 48.605469 408.429688 55.617188 Z M 439.855469 54.375 C 444.292969 48.820312 454.082031 42.914062 463.476562 42.914062 C 467.261719 42.914062 470.503906 43.914062 473.105469 45.882812 C 478.230469 49.769531 481.261719 55.957031 481.429688 62.855469 C 481.601562 69.78125 478.765625 76.378906 473.855469 80.503906 C 469.316406 84.304688 463.011719 86.484375 456.550781 86.484375 C 456.023438 86.484375 455.484375 86.464844 454.964844 86.4375 C 446.519531 85.976562 439.363281 81.824219 436.292969 75.605469 C 433.179688 69.300781 434.578125 60.96875 439.855469 54.375 Z M 439.855469 54.375 " style=" stroke:none;fill-rule:nonzero;fill:rgb(79.607843%,89.803922%,50.196078%);fill-opacity:1;" />
<path d="M 390.914062 453.410156 L 493.015625 453.753906 L 496.046875 386.804688 L 394.203125 385.125 Z M 390.914062 453.410156 " style=" stroke:none;fill-rule:nonzero;fill:rgb(79.607843%,89.803922%,50.196078%);fill-opacity:1;" />
<path d="M 321.40625 87.8125 C 320.796875 96.871094 320.21875 105.929688 319.636719 115.03125 L 319.503906 117.101562 L 321.394531 117.953125 C 333.304688 123.347656 346.773438 126.195312 360.34375 126.195312 C 375.929688 126.195312 391.175781 122.511719 404.363281 115.578125 L 404.449219 115.542969 L 406.152344 114.671875 L 407.652344 83.578125 L 321.589844 85.058594 Z M 321.40625 87.8125 " style=" stroke:none;fill-rule:nonzero;fill:rgb(69.803922%,91.764706%,97.647059%);fill-opacity:1;" />
<path d="M 360.351562 154.734375 L 359.179688 154.742188 C 346.1875 154.742188 333.417969 151.148438 322.25 144.351562 L 317.992188 141.757812 L 317.695312 146.734375 C 312.492188 234.207031 308.578125 322.667969 306.070312 409.65625 L 305.984375 412.6875 L 388.195312 414.121094 C 388.246094 414.125 388.292969 414.136719 388.339844 414.144531 L 391.710938 414.757812 L 405.019531 138.21875 L 400 141.761719 C 388.464844 149.898438 374.367188 154.503906 360.351562 154.734375 Z M 339.503906 262.445312 C 340.867188 262.046875 342.226562 261.625 343.582031 261.1875 L 343.757812 263.015625 C 342.335938 262.839844 340.917969 262.648438 339.503906 262.445312 Z M 339.503906 262.445312 " style=" stroke:none;fill-rule:nonzero;fill:rgb(69.803922%,91.764706%,97.647059%);fill-opacity:1;" />
<path d="M 388.140625 415.183594 L 305.945312 413.761719 L 305.859375 416.730469 C 305.550781 427.84375 305.261719 438.957031 304.992188 450.058594 L 304.914062 453.125 L 389.847656 453.402344 L 391.699219 414.90625 L 388.316406 415.164062 Z M 388.140625 415.183594 " style=" stroke:none;fill-rule:nonzero;fill:rgb(69.803922%,91.764706%,97.647059%);fill-opacity:1;" />
<path d="M 225.1875 29.195312 L 324.652344 26.292969 L 325.242188 18.292969 C 325.507812 14.679688 325.777344 11.066406 326.050781 7.460938 L 326.308594 4.097656 L 225.605469 8.28125 Z M 225.1875 29.195312 " style=" stroke:none;fill-rule:nonzero;fill:rgb(68.627451%,47.45098%,47.45098%);fill-opacity:1;" />
<path d="M 246.988281 378.097656 C 244.570312 379.207031 241.691406 379.722656 237.929688 379.722656 C 236.496094 379.722656 235.109375 379.652344 233.765625 379.585938 L 207.882812 378.230469 L 207.167969 390.136719 L 305.484375 392.824219 L 305.914062 380.335938 L 302.390625 380.8125 C 298.179688 381.375 294.015625 381.664062 290.007812 381.664062 C 286.738281 381.664062 283.433594 381.488281 280.191406 381.140625 C 277.296875 380.828125 273.9375 380.320312 270.972656 378.921875 C 267.75 377.398438 265.347656 374.898438 264.378906 372.066406 C 263.261719 368.78125 264.332031 364.902344 266.863281 363.050781 C 267.871094 362.316406 269.167969 361.914062 270.511719 361.914062 C 271.039062 361.914062 271.566406 361.976562 272.078125 362.097656 C 273.710938 362.492188 275.039062 363.492188 275.722656 364.847656 C 275.851562 365.101562 275.738281 365.433594 275.492188 365.554688 C 275.410156 365.597656 275.332031 365.617188 275.246094 365.617188 C 275.082031 365.617188 274.867188 365.539062 274.800781 365.40625 C 274.277344 364.285156 273.1875 363.457031 271.824219 363.136719 C 271.394531 363.03125 270.953125 362.980469 270.503906 362.980469 C 269.382812 362.980469 268.316406 363.3125 267.503906 363.90625 C 265.277344 365.527344 264.394531 368.824219 265.394531 371.71875 C 266.25 374.265625 268.445312 376.539062 271.425781 377.957031 C 274.222656 379.277344 277.34375 379.757812 280.300781 380.074219 C 283.480469 380.417969 286.71875 380.589844 289.925781 380.589844 C 294.425781 380.589844 298.984375 380.25 303.464844 379.582031 L 305.9375 379.210938 L 306.019531 376.710938 C 309.488281 270.566406 315.011719 163.058594 322.433594 57.175781 L 322.664062 53.855469 L 297.660156 54.6875 C 293.960938 54.8125 290.136719 54.945312 286.5625 56.03125 C 282.65625 57.210938 279.53125 59.546875 277.980469 62.445312 C 276.09375 65.988281 276.710938 70.4375 279.449219 72.824219 C 280.535156 73.746094 281.996094 74.253906 283.558594 74.253906 C 284.054688 74.253906 284.550781 74.199219 284.976562 74.105469 C 286.757812 73.75 288.171875 72.726562 288.867188 71.289062 C 288.96875 71.066406 289.179688 70.988281 289.34375 70.988281 C 289.421875 70.988281 289.5 71.007812 289.574219 71.042969 C 289.738281 71.121094 289.8125 71.25 289.847656 71.347656 C 289.878906 71.441406 289.902344 71.589844 289.820312 71.761719 C 289 73.476562 287.320312 74.710938 285.199219 75.152344 C 284.660156 75.269531 284.101562 75.328125 283.546875 75.328125 C 281.722656 75.328125 280.011719 74.714844 278.730469 73.605469 C 275.6875 70.976562 274.945312 65.847656 277.042969 61.929688 C 278.738281 58.75 282.007812 56.292969 286.25 55.003906 C 289.945312 53.878906 294.007812 53.738281 297.664062 53.613281 L 322.738281 52.785156 L 322.949219 49.789062 C 323.121094 47.320312 323.296875 44.855469 323.476562 42.386719 L 323.71875 39.128906 L 224.964844 40.230469 L 224.578125 59.375 L 227.976562 58.996094 C 231.660156 58.589844 234.730469 58.058594 237.980469 57.5 L 238.214844 57.460938 C 241.691406 56.851562 245.289062 56.222656 249.621094 55.78125 C 250.933594 55.644531 252.421875 55.492188 253.941406 55.492188 C 256.570312 55.492188 258.683594 55.972656 260.390625 56.945312 C 263.085938 58.5 264.882812 61.507812 264.96875 64.613281 C 265.054688 67.667969 263.390625 70.839844 260.824219 72.507812 C 259.464844 73.390625 257.84375 73.878906 256.277344 73.886719 C 255.480469 73.886719 254.679688 73.753906 253.953125 73.503906 C 251.546875 72.6875 249.78125 70.539062 249.550781 68.167969 C 249.527344 67.871094 249.738281 67.609375 250.09375 67.578125 C 250.363281 67.578125 250.59375 67.792969 250.617188 68.050781 C 250.796875 69.992188 252.304688 71.820312 254.316406 72.503906 C 254.925781 72.707031 255.582031 72.808594 256.265625 72.808594 C 257.648438 72.808594 259.0625 72.382812 260.238281 71.613281 C 262.53125 70.128906 263.96875 67.394531 263.90625 64.636719 C 263.824219 61.902344 262.242188 59.25 259.847656 57.867188 C 258.292969 56.980469 256.421875 56.570312 253.96875 56.570312 C 252.585938 56.570312 251.117188 56.699219 249.730469 56.839844 C 245.519531 57.273438 242.132812 57.859375 238.550781 58.480469 L 238.386719 58.507812 C 235.351562 59.042969 231.570312 59.703125 227.195312 60.160156 L 224.5625 60.433594 L 223.175781 129.621094 C 223.175781 129.703125 223.128906 129.8125 223.085938 129.890625 L 222.78125 130.464844 L 207.949219 377.171875 L 233.660156 378.511719 C 234.957031 378.578125 236.425781 378.65625 237.902344 378.65625 C 240.179688 378.65625 243.554688 378.496094 246.535156 377.121094 C 250.207031 375.441406 253.378906 371.117188 252.097656 367.0625 C 251.300781 364.5625 248.820312 362.691406 246.195312 362.613281 L 246.023438 362.613281 C 243.457031 362.613281 240.941406 364.355469 240.050781 366.746094 C 239.957031 366.988281 239.726562 367.097656 239.539062 367.097656 C 239.480469 367.097656 239.417969 367.085938 239.367188 367.066406 C 239.1875 367 239.097656 366.875 239.054688 366.78125 C 239.015625 366.691406 238.980469 366.550781 239.042969 366.378906 C 240.113281 363.53125 242.972656 361.539062 245.992188 361.539062 L 246.203125 361.542969 C 249.332031 361.628906 252.175781 363.765625 253.117188 366.742188 C 254.578125 371.347656 251.074219 376.222656 246.988281 378.097656 Z M 246.988281 378.097656 " style=" stroke:none;fill-rule:nonzero;fill:rgb(68.627451%,47.45098%,47.45098%);fill-opacity:1;" />
<path d="M 203.609375 449.289062 L 203.101562 452.769531 L 303.847656 453.113281 L 303.917969 450.175781 C 304.226562 437.316406 304.578125 424.199219 304.988281 410.078125 L 305.078125 406.992188 L 301.988281 406.992188 C 301.917969 406.992188 301.847656 406.996094 301.777344 407 L 206.289062 404.839844 Z M 203.609375 449.289062 " style=" stroke:none;fill-rule:nonzero;fill:rgb(68.627451%,47.45098%,47.45098%);fill-opacity:1;" />
<path d="M 144.925781 163.855469 L 219.652344 164.777344 L 221.984375 125.910156 L 146.371094 125.996094 Z M 144.925781 163.855469 " style=" stroke:none;fill-rule:nonzero;fill:rgb(96.862745%,70.196078%,43.529412%);fill-opacity:1;" />
<path d="M 144.894531 164.925781 L 135.320312 416.550781 L 138.265625 416.707031 C 146.832031 417.171875 155.546875 417.40625 164.164062 417.40625 C 176.777344 417.40625 189.492188 416.90625 201.957031 415.914062 L 204.554688 415.707031 L 219.582031 165.851562 Z M 144.894531 164.925781 " style=" stroke:none;fill-rule:nonzero;fill:rgb(96.862745%,70.196078%,43.529412%);fill-opacity:1;" />
<path d="M 200.511719 428.613281 C 192.75 428.839844 184.742188 428.953125 176.71875 428.953125 C 163.921875 428.953125 150.863281 428.648438 137.910156 428.046875 L 134.886719 427.90625 L 133.953125 452.542969 L 202.871094 452.773438 C 202.871094 452.773438 202.542969 449.382812 202.542969 449.335938 L 203.789062 428.519531 Z M 200.511719 428.613281 " style=" stroke:none;fill-rule:nonzero;fill:rgb(96.862745%,70.196078%,43.529412%);fill-opacity:1;" />
<path d="M 53.679688 33.976562 L 52.96875 34.035156 C 42.816406 34.855469 32.878906 35.632812 22.894531 36.117188 L 20.148438 36.25 L 18.886719 69.007812 L 84.886719 66.632812 L 85.925781 31.789062 L 82.679688 31.949219 C 72.976562 32.425781 63.167969 33.214844 53.679688 33.976562 Z M 53.679688 33.976562 " style=" stroke:none;fill-rule:nonzero;fill:rgb(92.941176%,42.745098%,40%);fill-opacity:1;" />
<path d="M 7.140625 373.039062 L 75.761719 373.105469 L 84.023438 95.480469 L 17.757812 98.082031 Z M 7.140625 373.039062 " style=" stroke:none;fill-rule:nonzero;fill:rgb(92.941176%,42.745098%,40%);fill-opacity:1;" />
<path d="M 6.15625 398.546875 L 4.089844 452.101562 L 72.546875 452.332031 L 73.882812 446.640625 C 73.742188 446.570312 73.578125 446.40625 73.585938 446.152344 L 74.914062 401.285156 Z M 45.605469 436.28125 C 43.640625 437.941406 41.050781 438.851562 38.3125 438.851562 C 36.117188 438.851562 34.023438 438.261719 32.265625 437.144531 C 29.046875 435.089844 26.96875 431.183594 26.96875 427.191406 C 26.96875 426.308594 27.070312 425.460938 27.265625 424.65625 C 28.246094 420.605469 32.246094 416.089844 36.417969 416.089844 C 36.601562 416.089844 36.789062 416.097656 36.964844 416.117188 C 41.335938 416.578125 46.621094 418.976562 48.578125 423.300781 C 50.5 427.546875 49.191406 433.25 45.605469 436.28125 Z M 45.605469 436.28125 " style=" stroke:none;fill-rule:nonzero;fill:rgb(92.941176%,42.745098%,40%);fill-opacity:1;" />
<path d="M 85.589844 78.953125 L 84.078125 129.488281 L 140.859375 129.363281 C 140.933594 129.363281 141.023438 129.382812 141.105469 129.417969 L 145.101562 131.097656 L 147.0625 79.585938 Z M 85.589844 78.953125 " style=" stroke:none;fill-rule:nonzero;fill:rgb(97.647059%,84.705882%,53.72549%);fill-opacity:1;" />
<path d="M 77.222656 360.035156 L 82.511719 354.980469 C 88.992188 348.792969 97.6875 345.058594 106.378906 344.730469 C 106.832031 344.710938 107.285156 344.703125 107.738281 344.703125 C 116.359375 344.703125 125.113281 348.015625 131.75 353.785156 L 136.480469 357.898438 L 144.519531 146.53125 L 83.523438 148.128906 Z M 77.222656 360.035156 " style=" stroke:none;fill-rule:nonzero;fill:rgb(97.647059%,84.705882%,53.72549%);fill-opacity:1;" />
<path d="M 135.570312 359.285156 C 135.515625 359.226562 135.457031 359.164062 135.390625 359.097656 C 128.84375 350.875 118.238281 345.769531 107.699219 345.769531 C 107.269531 345.769531 106.839844 345.777344 106.417969 345.792969 C 95.382812 346.210938 84.691406 352.160156 78.535156 361.292969 C 78.53125 361.296875 78.492188 361.347656 78.347656 361.453125 L 77.15625 362.320312 L 74.652344 446.183594 C 74.644531 446.46875 74.441406 446.59375 74.355469 446.636719 L 75.636719 452.34375 L 130.007812 452.53125 L 133.464844 452.488281 L 133.003906 449.226562 L 136.394531 360.191406 Z M 135.570312 359.285156 " style=" stroke:none;fill-rule:nonzero;fill:rgb(97.647059%,84.705882%,53.72549%);fill-opacity:1;" />
<path d="M 509.324219 28.898438 C 509.195312 27.066406 507.683594 25.640625 505.84375 25.613281 L 407.566406 24.34375 C 406.621094 24.316406 405.714844 24.695312 405.042969 25.359375 C 404.371094 26.019531 403.988281 26.921875 403.984375 27.863281 C 403.945312 37.261719 404.15625 46.640625 404.359375 55.714844 C 404.535156 63.503906 404.707031 71.527344 404.726562 79.558594 L 324.875 80.9375 C 326.609375 55.171875 328.449219 29.453125 330.410156 3.804688 C 330.488281 2.796875 330.128906 1.804688 329.429688 1.078125 C 328.726562 0.351562 327.75 -0.03125 326.738281 0 L 224.941406 4.238281 C 223.074219 4.316406 221.589844 5.832031 221.550781 7.699219 L 219.261719 121.847656 L 149.523438 121.925781 L 151.148438 79.191406 C 151.1875 78.234375 150.835938 77.308594 150.175781 76.617188 C 149.519531 75.925781 148.609375 75.53125 147.652344 75.519531 L 88.707031 74.921875 L 90.003906 31.347656 C 90.035156 30.367188 89.65625 29.417969 88.957031 28.730469 C 88.261719 28.039062 87.320312 27.664062 86.328125 27.710938 C 75.066406 28.167969 63.664062 29.089844 52.640625 29.980469 C 41.683594 30.863281 30.351562 31.78125 19.234375 32.230469 C 17.28125 32.308594 15.765625 33.953125 15.84375 35.90625 C 15.859375 36.261719 15.941406 36.597656 16.054688 36.917969 C 16.054688 36.933594 16.046875 36.949219 16.046875 36.96875 L 0.00390625 452.5 C -0.0351562 453.457031 0.320312 454.390625 0.984375 455.082031 C 1.648438 455.773438 2.5625 456.167969 3.523438 456.167969 L 492.695312 457.824219 L 493.519531 457.828125 C 493.523438 457.828125 493.527344 457.828125 493.53125 457.828125 C 495.421875 457.828125 496.980469 456.34375 497.0625 454.453125 L 504.046875 299.691406 C 504.917969 280.335938 505.957031 260.65625 506.957031 241.621094 C 508.589844 210.652344 510.277344 178.625 511.304688 147.089844 C 512.671875 105.355469 512.023438 66.695312 509.324219 28.898438 Z M 502.5 32.640625 C 503.859375 52.5625 504.640625 72.75 504.863281 93.523438 L 411.246094 93.539062 L 411.695312 84.214844 C 411.757812 83.953125 411.800781 83.683594 411.800781 83.402344 C 411.84375 74.003906 411.632812 64.625 411.425781 55.554688 C 411.25 47.679688 411.070312 39.574219 411.050781 31.457031 Z M 493.226562 382.691406 L 397.402344 381.105469 L 398.335938 361.691406 L 494.210938 360.855469 Z M 9.988281 377.117188 L 72.636719 377.175781 L 72.042969 397.09375 L 9.3125 394.601562 Z M 86.441406 151.050781 L 141.398438 149.613281 L 133.722656 351.519531 C 126.214844 345 116.21875 341.332031 106.261719 341.726562 C 96.6875 342.09375 87.355469 346.199219 80.4375 352.808594 Z M 138.164062 420.777344 C 146.777344 421.242188 155.429688 421.484375 164.085938 421.484375 C 176.515625 421.484375 188.953125 420.996094 201.296875 420.042969 L 200.839844 427.589844 C 200.75 427.582031 200.660156 427.570312 200.5625 427.574219 C 179.765625 428.171875 158.714844 427.976562 137.925781 427.007812 Z M 209.925781 394.285156 L 302.371094 396.808594 C 302.277344 399.867188 302.195312 402.925781 302.105469 405.984375 C 302.050781 405.980469 302 405.96875 301.945312 405.964844 L 209.347656 403.867188 Z M 303.015625 376.617188 C 295.605469 377.71875 288.074219 377.886719 280.621094 377.089844 C 277.9375 376.800781 275.117188 376.378906 272.714844 375.242188 C 270.476562 374.1875 268.84375 372.550781 268.234375 370.761719 C 267.675781 369.109375 268.128906 367.164062 269.269531 366.332031 C 269.71875 366.007812 270.464844 365.890625 271.121094 366.050781 C 271.585938 366.164062 271.945312 366.394531 272.082031 366.667969 C 272.960938 368.410156 275.085938 369.117188 276.828125 368.238281 C 278.574219 367.359375 279.277344 365.234375 278.398438 363.492188 C 277.324219 361.355469 275.277344 359.785156 272.78125 359.179688 C 270.101562 358.535156 267.230469 359.070312 265.101562 360.625 C 261.492188 363.257812 259.992188 368.480469 261.542969 373.035156 C 262.761719 376.628906 265.734375 379.765625 269.691406 381.632812 C 273.054688 383.222656 276.722656 383.78125 279.867188 384.117188 C 283.238281 384.480469 286.625 384.660156 290.011719 384.660156 C 294.28125 384.660156 298.546875 384.355469 302.785156 383.78125 C 302.71875 385.769531 302.65625 387.753906 302.59375 389.742188 L 210.347656 387.226562 L 210.699219 381.382812 L 233.449219 382.566406 C 234.851562 382.640625 236.359375 382.71875 237.925781 382.71875 C 241.273438 382.71875 244.882812 382.359375 248.234375 380.820312 C 253.59375 378.359375 257.957031 372.078125 255.980469 365.835938 C 254.65625 361.660156 250.671875 358.660156 246.289062 358.546875 C 241.878906 358.414062 237.777344 361.21875 236.238281 365.320312 C 235.550781 367.148438 236.476562 369.1875 238.304688 369.871094 C 240.128906 370.558594 242.167969 369.632812 242.855469 367.804688 C 243.328125 366.539062 244.734375 365.570312 246.105469 365.613281 C 247.453125 365.648438 248.832031 366.683594 249.238281 367.972656 C 249.992188 370.34375 247.757812 373.261719 245.285156 374.398438 C 241.941406 375.929688 237.625 375.707031 233.816406 375.507812 L 211.121094 374.328125 L 225.734375 131.292969 C 225.996094 130.808594 226.164062 130.261719 226.171875 129.675781 L 227.507812 63.140625 C 231.820312 62.691406 235.421875 62.066406 238.902344 61.460938 C 242.484375 60.839844 245.863281 60.253906 250.03125 59.824219 C 253.371094 59.484375 256.308594 59.296875 258.363281 60.476562 C 259.832031 61.320312 260.855469 63.023438 260.898438 64.71875 C 260.945312 66.414062 260.023438 68.171875 258.601562 69.097656 C 257.5625 69.769531 256.25 69.988281 255.253906 69.648438 C 254.402344 69.359375 253.675781 68.535156 253.601562 67.773438 C 253.417969 65.832031 251.699219 64.40625 249.75 64.589844 C 247.804688 64.777344 246.378906 66.5 246.566406 68.445312 C 246.902344 71.980469 249.484375 75.15625 252.984375 76.34375 C 254.039062 76.703125 255.152344 76.878906 256.277344 76.878906 C 258.40625 76.878906 260.574219 76.246094 262.453125 75.023438 C 265.917969 72.777344 268.082031 68.652344 267.964844 64.523438 C 267.851562 60.394531 265.460938 56.398438 261.878906 54.347656 C 257.6875 51.941406 252.847656 52.433594 249.3125 52.796875 C 244.898438 53.246094 241.234375 53.882812 237.691406 54.5 C 234.429688 55.066406 231.328125 55.601562 227.648438 56.015625 L 227.90625 43.195312 L 320.484375 42.160156 C 320.296875 44.730469 320.117188 47.300781 319.933594 49.871094 L 297.566406 50.617188 C 293.773438 50.746094 289.476562 50.886719 285.371094 52.136719 C 280.367188 53.65625 276.46875 56.632812 274.390625 60.519531 C 271.617188 65.703125 272.636719 72.308594 276.761719 75.875 C 278.601562 77.46875 281.03125 78.328125 283.546875 78.324219 C 284.304688 78.324219 285.070312 78.25 285.828125 78.089844 C 288.855469 77.460938 291.296875 75.621094 292.527344 73.050781 C 293.371094 71.289062 292.625 69.179688 290.863281 68.335938 C 289.101562 67.492188 286.992188 68.238281 286.148438 70 C 285.765625 70.804688 284.789062 71.085938 284.386719 71.171875 C 283.277344 71.402344 282.101562 71.152344 281.386719 70.53125 C 279.753906 69.117188 279.410156 66.121094 280.625 63.851562 C 281.792969 61.664062 284.273438 59.859375 287.425781 58.902344 C 290.640625 57.925781 294.28125 57.804688 297.800781 57.6875 L 319.429688 56.964844 C 312 163.113281 306.503906 270.167969 303.015625 376.617188 Z M 320.992188 35.085938 L 228.054688 36.121094 L 228.171875 30.144531 L 321.558594 27.425781 C 321.371094 29.976562 321.175781 32.527344 320.992188 35.085938 Z M 201.722656 412.925781 C 180.742188 414.59375 159.464844 414.851562 138.433594 413.710938 L 147.777344 167.964844 L 216.402344 168.808594 Z M 141.667969 142.535156 L 86.652344 143.972656 L 86.960938 133.550781 L 140.867188 133.429688 C 141.273438 133.429688 141.65625 133.347656 142.019531 133.21875 Z M 81.144531 91.519531 L 20.925781 93.886719 L 21.734375 72.976562 L 81.757812 70.816406 Z M 20.652344 100.96875 L 80.929688 98.601562 L 72.847656 370.105469 L 10.261719 370.046875 Z M 77.652344 446.277344 L 80.105469 363.882812 C 80.441406 363.644531 80.753906 363.363281 80.996094 363 C 86.648438 354.621094 96.429688 349.175781 106.53125 348.789062 C 116.617188 348.402344 126.804688 353.089844 133.074219 361.015625 C 133.160156 361.121094 133.257812 361.203125 133.351562 361.300781 L 130.003906 449.332031 C 130 449.398438 130.011719 449.460938 130.015625 449.527344 L 75.648438 449.34375 C 76.796875 448.789062 77.613281 447.640625 77.652344 446.277344 Z M 137.773438 431.039062 C 150.695312 431.640625 163.714844 431.957031 176.71875 431.957031 C 184.695312 431.957031 192.667969 431.84375 200.597656 431.613281 L 199.546875 449.128906 C 199.53125 449.347656 199.546875 449.558594 199.570312 449.765625 L 137.070312 449.550781 Z M 206.601562 449.554688 L 209.105469 407.902344 L 301.855469 410.003906 C 301.871094 410.003906 301.886719 410.003906 301.902344 410.003906 C 301.929688 410.003906 301.960938 409.996094 301.988281 409.996094 C 301.601562 423.378906 301.238281 436.75 300.917969 450.105469 L 206.566406 449.785156 C 206.574219 449.707031 206.597656 449.632812 206.601562 449.554688 Z M 308.863281 416.8125 L 388.089844 418.1875 C 388.113281 418.1875 388.132812 418.1875 388.15625 418.1875 C 388.285156 418.1875 388.414062 418.164062 388.539062 418.148438 L 386.988281 450.398438 L 307.988281 450.132812 C 308.253906 439.035156 308.550781 427.925781 308.863281 416.8125 Z M 388.875 411.195312 C 388.660156 411.152344 388.441406 411.121094 388.214844 411.117188 L 309.066406 409.746094 C 311.589844 322.371094 315.476562 234.480469 320.691406 146.910156 C 332.222656 153.9375 345.664062 157.738281 359.175781 157.738281 C 359.566406 157.738281 359.957031 157.738281 360.347656 157.730469 C 375.097656 157.492188 389.679688 152.707031 401.730469 144.207031 Z M 402.117188 136.199219 C 401.289062 136.144531 400.445312 136.363281 399.734375 136.90625 C 388.460938 145.546875 374.433594 150.433594 360.234375 150.664062 C 346.371094 150.914062 332.566406 146.675781 321.179688 138.792969 C 321.503906 133.441406 321.832031 128.085938 322.167969 122.734375 C 334.171875 127.753906 347.238281 130.253906 360.3125 130.253906 C 374.984375 130.253906 389.660156 127.105469 402.855469 120.859375 Z M 404.5 86.632812 L 403.242188 112.789062 C 403.203125 112.808594 403.160156 112.820312 403.117188 112.839844 C 378.625 125.75 347.855469 126.644531 322.632812 115.226562 C 323.207031 106.152344 323.792969 97.078125 324.398438 88.011719 Z M 323.0625 7.230469 C 322.652344 12.605469 322.257812 17.992188 321.859375 23.375 L 228.253906 26.101562 L 228.554688 11.164062 Z M 218.800781 128.914062 L 216.824219 161.742188 L 148.042969 160.894531 L 149.257812 128.992188 Z M 143.949219 82.550781 L 142.273438 126.65625 C 141.839844 126.46875 141.363281 126.359375 140.859375 126.359375 C 140.859375 126.359375 140.855469 126.359375 140.851562 126.359375 L 87.171875 126.480469 L 88.5 81.984375 Z M 53.210938 37.023438 C 62.925781 36.238281 72.933594 35.429688 82.828125 34.941406 L 81.96875 63.734375 L 22.007812 65.894531 L 23.039062 39.117188 C 33.152344 38.625 43.328125 37.820312 53.210938 37.023438 Z M 9.039062 401.664062 L 71.835938 404.160156 L 70.585938 446.066406 C 70.542969 447.492188 71.359375 448.738281 72.558594 449.332031 L 7.207031 449.113281 Z M 490.15625 450.746094 L 394.066406 450.421875 L 397.0625 388.171875 L 492.90625 389.757812 Z M 504.242188 146.859375 C 503.210938 178.324219 501.527344 210.3125 499.898438 241.25 C 498.894531 260.296875 497.859375 279.988281 496.984375 299.371094 L 494.53125 353.785156 L 398.675781 354.621094 L 410.90625 100.609375 L 504.914062 100.589844 C 504.980469 115.648438 504.757812 131.027344 504.242188 146.859375 Z M 504.242188 146.859375 " style=" stroke:none;fill-rule:nonzero;fill:rgb(0%,0%,0%);fill-opacity:1;" />
<path d="M 33.082031 347.1875 C 36.324219 349.617188 40.359375 350.867188 44.386719 350.867188 C 47.285156 350.867188 50.179688 350.222656 52.773438 348.90625 C 55.84375 347.351562 58.039062 345.054688 58.953125 342.4375 C 60.644531 337.609375 57.871094 332.5625 54.574219 329.917969 C 51.167969 327.179688 46.929688 326.027344 43.191406 325.003906 C 42.613281 324.847656 41.988281 324.957031 41.496094 325.304688 C 41.003906 325.648438 40.695312 326.199219 40.648438 326.800781 L 40.03125 334.90625 C 39.945312 336.019531 40.777344 336.988281 41.890625 337.074219 C 43.011719 337.148438 43.972656 336.328125 44.054688 335.214844 L 44.488281 329.5625 C 47.230469 330.367188 49.90625 331.347656 52.046875 333.066406 C 54.339844 334.90625 56.136719 338.257812 55.144531 341.101562 C 54.375 343.300781 52.183594 344.675781 50.949219 345.304688 C 46.078125 347.769531 39.871094 347.230469 35.5 343.957031 C 31.132812 340.683594 28.867188 334.878906 29.867188 329.511719 C 30.074219 328.414062 29.351562 327.359375 28.253906 327.15625 C 27.15625 326.949219 26.101562 327.675781 25.898438 328.769531 C 24.621094 335.613281 27.507812 343.015625 33.082031 347.1875 Z M 33.082031 347.1875 " style=" stroke:none;fill-rule:nonzero;fill:rgb(0%,0%,0%);fill-opacity:1;" />
<path d="M 31.320312 316.433594 C 34.117188 318.324219 37.628906 318.394531 40.199219 318.449219 L 56.136719 318.773438 C 56.238281 318.773438 56.355469 318.777344 56.484375 318.777344 C 57.441406 318.777344 59.101562 318.648438 60.171875 317.3125 C 61.210938 316.011719 61.003906 314.386719 60.90625 313.605469 L 59.695312 303.976562 C 59.554688 302.871094 58.539062 302.078125 57.4375 302.226562 C 56.332031 302.363281 55.546875 303.375 55.6875 304.480469 L 56.898438 314.109375 C 56.929688 314.363281 56.949219 314.566406 56.953125 314.710938 C 56.808594 314.726562 56.578125 314.742188 56.21875 314.730469 L 46.003906 314.523438 L 45.957031 302.859375 C 45.953125 301.746094 45.046875 300.847656 43.9375 300.847656 C 43.933594 300.847656 43.929688 300.847656 43.929688 300.847656 C 42.8125 300.855469 41.914062 301.761719 41.917969 302.878906 L 41.964844 314.441406 L 40.28125 314.40625 C 37.511719 314.351562 35.257812 314.21875 33.582031 313.085938 C 32.046875 312.050781 31 310.070312 30.714844 307.660156 C 30.429688 305.261719 30.859375 302.699219 31.28125 300.226562 C 31.464844 299.125 30.726562 298.082031 29.625 297.898438 C 28.523438 297.710938 27.484375 298.453125 27.296875 299.554688 C 26.851562 302.179688 26.347656 305.160156 26.703125 308.136719 C 27.128906 311.714844 28.8125 314.738281 31.320312 316.433594 Z M 31.320312 316.433594 " style=" stroke:none;fill-rule:nonzero;fill:rgb(0%,0%,0%);fill-opacity:1;" />
<path d="M 55.546875 269.460938 C 50.742188 266.898438 44.84375 266.539062 39.765625 268.488281 C 34.539062 270.5 30.613281 274.449219 29.511719 278.800781 C 28.917969 281.15625 28.875 284.742188 32.054688 288.449219 C 36.550781 293.6875 42.394531 295.878906 47.703125 295.878906 C 50.890625 295.878906 53.882812 295.089844 56.273438 293.699219 C 61.964844 290.378906 64.824219 283.238281 62.777344 277.433594 C 61.625 274.164062 59.054688 271.332031 55.546875 269.460938 Z M 54.238281 290.207031 C 47.832031 293.941406 39.484375 290.90625 35.121094 285.820312 C 33.472656 283.898438 32.90625 281.871094 33.429688 279.789062 C 34.199219 276.738281 37.253906 273.78125 41.214844 272.261719 C 42.921875 271.605469 44.742188 271.28125 46.566406 271.28125 C 49.023438 271.28125 51.476562 271.867188 53.644531 273.023438 C 56.222656 274.398438 58.160156 276.496094 58.964844 278.777344 C 60.367188 282.742188 58.246094 287.871094 54.238281 290.207031 Z M 54.238281 290.207031 " style=" stroke:none;fill-rule:nonzero;fill:rgb(0%,0%,0%);fill-opacity:1;" />
<path d="M 29.449219 243.042969 L 45.96875 249.875 C 41.074219 253.449219 35.734375 256.351562 30.054688 258.515625 C 29.175781 258.847656 28.644531 259.746094 28.773438 260.679688 C 28.902344 261.613281 29.660156 262.332031 30.59375 262.414062 L 59.730469 264.980469 C 59.789062 264.988281 59.851562 264.988281 59.910156 264.988281 C 60.945312 264.988281 61.828125 264.199219 61.917969 263.148438 C 62.015625 262.035156 61.195312 261.054688 60.085938 260.957031 L 38.714844 259.074219 C 43.15625 256.800781 47.347656 254.070312 51.242188 250.914062 C 51.796875 250.46875 52.070312 249.761719 51.96875 249.054688 C 51.867188 248.351562 51.402344 247.75 50.742188 247.480469 L 37.523438 242.011719 C 45.699219 240.902344 53.980469 240.644531 62.222656 241.253906 C 63.339844 241.34375 64.300781 240.503906 64.382812 239.390625 C 64.464844 238.277344 63.632812 237.308594 62.519531 237.226562 C 51.585938 236.417969 40.585938 237.082031 29.832031 239.195312 C 28.957031 239.367188 28.296875 240.089844 28.210938 240.976562 C 28.121094 241.863281 28.625 242.699219 29.449219 243.042969 Z M 29.449219 243.042969 " style=" stroke:none;fill-rule:nonzero;fill:rgb(0%,0%,0%);fill-opacity:1;" />
<path d="M 37.695312 226.308594 C 37.203125 225.863281 37.144531 224.511719 37.113281 223.78125 L 36.589844 212.285156 C 36.539062 211.171875 35.605469 210.324219 34.480469 210.359375 C 33.367188 210.40625 32.503906 211.351562 32.554688 212.46875 L 33.078125 223.964844 C 33.140625 225.367188 33.246094 227.714844 34.96875 229.289062 C 36.472656 230.660156 38.445312 230.753906 39.753906 230.816406 L 60.675781 231.808594 C 60.707031 231.8125 60.738281 231.8125 60.769531 231.8125 C 61.304688 231.8125 61.824219 231.597656 62.203125 231.214844 C 62.605469 230.8125 62.816406 230.253906 62.785156 229.683594 L 61.765625 210.535156 C 61.707031 209.425781 60.742188 208.558594 59.644531 208.628906 C 58.527344 208.6875 57.671875 209.640625 57.734375 210.75 L 58.632812 227.667969 L 49.875 227.25 L 48.800781 217.390625 C 48.679688 216.28125 47.6875 215.480469 46.574219 215.601562 C 45.464844 215.722656 44.664062 216.71875 44.785156 217.828125 L 45.789062 227.058594 L 39.945312 226.78125 C 39.214844 226.75 38.117188 226.695312 37.695312 226.308594 Z M 37.695312 226.308594 " style=" stroke:none;fill-rule:nonzero;fill:rgb(0%,0%,0%);fill-opacity:1;" />
<path d="M 64.148438 193.25 C 64.132812 192.136719 63.191406 191.265625 62.101562 191.257812 C 53.648438 191.363281 45.125 190.855469 36.746094 189.742188 L 36.90625 184.179688 C 36.9375 183.0625 36.0625 182.132812 34.945312 182.101562 C 33.828125 182.082031 32.902344 182.949219 32.871094 184.0625 L 32.34375 202.433594 C 32.3125 203.550781 33.191406 204.480469 34.304688 204.511719 C 34.324219 204.511719 34.34375 204.511719 34.363281 204.511719 C 35.453125 204.511719 36.351562 203.644531 36.382812 202.550781 L 36.632812 193.792969 C 44.320312 194.792969 52.121094 195.3125 59.878906 195.3125 C 60.636719 195.3125 61.398438 195.308594 62.15625 195.296875 C 63.269531 195.28125 64.160156 194.367188 64.148438 193.25 Z M 64.148438 193.25 " style=" stroke:none;fill-rule:nonzero;fill:rgb(0%,0%,0%);fill-opacity:1;" />
<path d="M 63.023438 158.042969 L 46.980469 171.195312 L 46.667969 167.285156 C 46.539062 165.707031 46.398438 163.917969 45.710938 162.199219 C 44.839844 160.019531 43.234375 158.441406 41.296875 157.863281 C 38.277344 156.957031 35.324219 158.660156 33.738281 160.746094 C 32.226562 162.738281 31.632812 165.085938 31.109375 167.160156 C 30.613281 169.136719 29.289062 174.394531 32.800781 177.289062 C 34.519531 178.699219 36.6875 178.886719 38.390625 178.886719 C 38.71875 178.886719 39.035156 178.882812 39.320312 178.875 L 59.234375 178.429688 C 60.351562 178.402344 61.234375 177.480469 61.207031 176.363281 C 61.183594 175.265625 60.285156 174.390625 59.191406 174.390625 C 59.175781 174.390625 59.160156 174.390625 59.144531 174.390625 L 49.1875 174.613281 L 49.179688 174.613281 L 65.585938 161.164062 C 66.445312 160.457031 66.574219 159.1875 65.867188 158.324219 C 65.160156 157.460938 63.886719 157.332031 63.023438 158.042969 Z M 39.234375 174.835938 C 37.667969 174.867188 36.195312 174.847656 35.371094 174.167969 C 34.335938 173.316406 34.222656 171.34375 35.03125 168.144531 C 35.476562 166.363281 35.941406 164.523438 36.957031 163.191406 C 37.582031 162.363281 38.632812 161.65625 39.613281 161.65625 C 39.792969 161.65625 39.96875 161.679688 40.144531 161.730469 C 40.867188 161.945312 41.5625 162.699219 41.960938 163.695312 C 42.421875 164.847656 42.53125 166.246094 42.640625 167.601562 L 43.210938 174.742188 Z M 39.234375 174.835938 " style=" stroke:none;fill-rule:nonzero;fill:rgb(0%,0%,0%);fill-opacity:1;" />
<path d="M 30.824219 136.765625 L 42.515625 143.40625 L 32.871094 149.863281 C 31.945312 150.480469 31.695312 151.738281 32.316406 152.664062 C 32.703125 153.246094 33.34375 153.558594 33.996094 153.558594 C 34.382812 153.558594 34.773438 153.449219 35.117188 153.21875 L 47.480469 144.945312 C 47.503906 144.925781 47.523438 144.902344 47.546875 144.882812 L 67.886719 147.421875 C 67.96875 147.433594 68.054688 147.4375 68.136719 147.4375 C 69.140625 147.4375 70.011719 146.691406 70.136719 145.667969 C 70.277344 144.5625 69.492188 143.554688 68.382812 143.414062 L 47.175781 140.769531 C 46.847656 140.726562 46.53125 140.773438 46.242188 140.878906 L 32.820312 133.253906 C 31.851562 132.703125 30.617188 133.042969 30.066406 134.011719 C 29.515625 134.980469 29.855469 136.214844 30.824219 136.765625 Z M 30.824219 136.765625 " style=" stroke:none;fill-rule:nonzero;fill:rgb(0%,0%,0%);fill-opacity:1;" />
<path d="M 123.761719 304.558594 C 124.625 304.558594 125.425781 304 125.695312 303.128906 C 126.019531 302.0625 125.421875 300.933594 124.355469 300.605469 L 114.351562 297.539062 L 114.007812 283.761719 L 122.371094 280.667969 C 123.414062 280.28125 123.949219 279.121094 123.5625 278.074219 C 123.175781 277.027344 122.015625 276.496094 120.96875 276.882812 L 92.617188 287.363281 C 91.859375 287.644531 90.273438 288.230469 89.652344 289.84375 C 89.308594 290.738281 89.351562 291.703125 89.769531 292.566406 C 90.625 294.328125 92.722656 295.132812 93.582031 295.394531 L 123.167969 304.46875 C 123.367188 304.527344 123.566406 304.558594 123.761719 304.558594 Z M 93.933594 291.183594 C 93.960938 291.175781 93.988281 291.164062 94.019531 291.152344 L 110.003906 285.242188 L 110.277344 296.289062 L 94.765625 291.535156 C 94.4375 291.433594 94.15625 291.308594 93.933594 291.183594 Z M 93.933594 291.183594 " style=" stroke:none;fill-rule:nonzero;fill:rgb(0%,0%,0%);fill-opacity:1;" />
<path d="M 92.226562 272.996094 C 92.949219 273.257812 93.683594 273.34375 94.371094 273.34375 C 95.125 273.34375 95.828125 273.238281 96.417969 273.15625 L 123.871094 269.171875 C 124.976562 269.011719 125.742188 267.988281 125.582031 266.882812 C 125.421875 265.78125 124.398438 265.015625 123.292969 265.175781 L 109.351562 267.199219 C 113.265625 261.261719 118.3125 256.03125 124.117188 251.945312 C 125.027344 251.300781 125.246094 250.039062 124.605469 249.128906 C 123.960938 248.21875 122.703125 248 121.789062 248.640625 C 116.585938 252.308594 111.945312 256.832031 108.117188 261.9375 C 108.089844 261.40625 108.046875 260.875 107.984375 260.339844 C 107.539062 256.589844 106.023438 253.351562 103.71875 251.222656 C 100.785156 248.519531 96.605469 247.722656 93.316406 249.246094 C 90.640625 250.480469 88.59375 253.253906 87.84375 256.664062 C 87.222656 259.5 87.488281 262.390625 87.71875 264.941406 C 87.886719 266.757812 88.332031 271.589844 92.226562 272.996094 Z M 91.792969 257.53125 C 92.273438 255.347656 93.476562 253.621094 95.011719 252.910156 C 95.566406 252.65625 96.195312 252.53125 96.84375 252.53125 C 98.273438 252.53125 99.820312 253.121094 100.980469 254.191406 C 102.578125 255.667969 103.640625 258.019531 103.972656 260.816406 C 104.25 263.148438 104.039062 265.601562 103.765625 268.007812 L 95.835938 269.15625 C 95.050781 269.269531 94.164062 269.402344 93.59375 269.195312 C 92.601562 268.835938 91.996094 267.324219 91.746094 264.574219 C 91.527344 262.203125 91.304688 259.753906 91.792969 257.53125 Z M 91.792969 257.53125 " style=" stroke:none;fill-rule:nonzero;fill:rgb(0%,0%,0%);fill-opacity:1;" />
<path d="M 93.105469 242.46875 C 93.125 242.46875 93.144531 242.46875 93.164062 242.46875 C 94.253906 242.46875 95.152344 241.601562 95.183594 240.507812 L 95.570312 227.109375 L 123.242188 227.246094 C 123.246094 227.246094 123.25 227.246094 123.253906 227.246094 C 124.363281 227.246094 125.269531 226.351562 125.273438 225.238281 C 125.28125 224.121094 124.378906 223.214844 123.261719 223.207031 L 95.683594 223.070312 L 95.929688 214.523438 C 95.960938 213.410156 95.082031 212.480469 93.96875 212.449219 C 92.847656 212.410156 91.925781 213.292969 91.894531 214.40625 L 91.148438 240.386719 C 91.113281 241.503906 91.992188 242.433594 93.105469 242.46875 Z M 93.105469 242.46875 " style=" stroke:none;fill-rule:nonzero;fill:rgb(0%,0%,0%);fill-opacity:1;" />
<path d="M 156.398438 309.339844 C 156.433594 309.339844 156.46875 309.34375 156.503906 309.34375 C 157.570312 309.34375 158.460938 308.503906 158.519531 307.425781 L 158.925781 299.5 L 190.449219 301.152344 C 190.484375 301.15625 190.523438 301.15625 190.554688 301.15625 C 191.625 301.15625 192.515625 300.320312 192.570312 299.242188 C 192.628906 298.128906 191.773438 297.179688 190.660156 297.121094 L 159.136719 295.46875 L 159.5625 287.167969 C 159.621094 286.054688 158.765625 285.101562 157.652344 285.046875 C 156.539062 284.972656 155.585938 285.84375 155.53125 286.957031 L 154.484375 307.21875 C 154.425781 308.332031 155.285156 309.28125 156.398438 309.339844 Z M 156.398438 309.339844 " style=" stroke:none;fill-rule:nonzero;fill:rgb(0%,0%,0%);fill-opacity:1;" />
<path d="M 150.792969 358.574219 C 156.492188 359.546875 162.253906 360.203125 168.03125 360.550781 L 168.203125 374.492188 C 162.660156 374.21875 157.128906 373.730469 151.644531 373.019531 C 150.542969 372.878906 149.523438 373.65625 149.382812 374.761719 C 149.238281 375.871094 150.019531 376.882812 151.125 377.023438 C 160.246094 378.207031 169.492188 378.800781 178.707031 378.800781 C 181.378906 378.800781 184.046875 378.75 186.710938 378.652344 C 187.824219 378.609375 188.695312 377.671875 188.652344 376.554688 C 188.609375 375.441406 187.675781 374.558594 186.558594 374.613281 C 181.800781 374.792969 177.023438 374.800781 172.246094 374.652344 L 172.074219 360.738281 C 173.957031 360.808594 175.84375 360.847656 177.730469 360.847656 C 180.382812 360.847656 183.035156 360.78125 185.679688 360.648438 C 186.796875 360.59375 187.652344 359.644531 187.597656 358.53125 C 187.542969 357.417969 186.605469 356.539062 185.480469 356.617188 C 174.125 357.179688 162.679688 356.5 151.46875 354.59375 C 150.375 354.40625 149.328125 355.144531 149.140625 356.242188 C 148.953125 357.34375 149.691406 358.386719 150.792969 358.574219 Z M 150.792969 358.574219 " style=" stroke:none;fill-rule:nonzero;fill:rgb(0%,0%,0%);fill-opacity:1;" />
<path d="M 154.441406 343.464844 C 165.710938 345.449219 177.238281 346.535156 188.691406 346.695312 C 188.699219 346.695312 188.707031 346.695312 188.71875 346.695312 C 189.820312 346.695312 190.722656 345.808594 190.738281 344.703125 C 190.753906 343.589844 189.863281 342.671875 188.746094 342.65625 C 177.507812 342.5 166.199219 341.433594 155.136719 339.488281 C 154.039062 339.292969 152.992188 340.027344 152.800781 341.125 C 152.605469 342.226562 153.339844 343.273438 154.441406 343.464844 Z M 154.441406 343.464844 " style=" stroke:none;fill-rule:nonzero;fill:rgb(0%,0%,0%);fill-opacity:1;" />
<path d="M 157.042969 331.171875 C 158.675781 333.25 160.90625 334.5625 163.160156 334.773438 C 166.894531 335.132812 170.042969 332.554688 171.753906 330.039062 C 172.824219 328.476562 173.558594 326.792969 174.269531 325.167969 C 174.675781 324.246094 175.054688 323.371094 175.492188 322.535156 C 176.375 320.828125 177.867188 318.667969 179.96875 318.085938 C 181.871094 317.554688 184.191406 318.484375 185.488281 320.292969 C 186.75 322.050781 187.136719 324.574219 186.519531 327.039062 C 185.964844 329.265625 184.648438 331.488281 182.609375 333.636719 C 181.84375 334.449219 181.875 335.726562 182.6875 336.492188 C 183.074219 336.863281 183.574219 337.046875 184.074219 337.046875 C 184.609375 337.046875 185.144531 336.835938 185.542969 336.417969 C 188.066406 333.753906 189.714844 330.929688 190.441406 328.019531 C 191.335938 324.414062 190.714844 320.648438 188.769531 317.9375 C 186.484375 314.75 182.417969 313.210938 178.886719 314.191406 C 176.113281 314.964844 173.699219 317.207031 171.902344 320.675781 C 171.410156 321.632812 170.980469 322.605469 170.570312 323.550781 C 169.902344 325.070312 169.273438 326.511719 168.417969 327.765625 C 167.398438 329.257812 165.519531 330.933594 163.53125 330.75 C 162.378906 330.640625 161.171875 329.886719 160.21875 328.675781 C 159.226562 327.410156 158.582031 325.828125 157.957031 324.1875 C 157.292969 322.445312 156.71875 320.757812 156.953125 319.21875 C 157.132812 318.035156 158.0625 316.964844 158.910156 316.964844 C 158.929688 316.96875 158.949219 316.96875 158.964844 316.96875 C 160.066406 316.96875 160.964844 316.085938 160.984375 314.984375 C 161.003906 313.867188 160.117188 312.949219 159.003906 312.929688 C 155.746094 312.90625 153.394531 315.773438 152.960938 318.613281 C 152.578125 321.117188 153.355469 323.445312 154.179688 325.621094 C 154.894531 327.492188 155.699219 329.457031 157.042969 331.171875 Z M 157.042969 331.171875 " style=" stroke:none;fill-rule:nonzero;fill:rgb(0%,0%,0%);fill-opacity:1;" />
<path d="M 190.976562 260.917969 C 184.445312 256.101562 176.757812 254.214844 169.882812 255.734375 C 164.671875 256.890625 158.15625 261.316406 156.269531 266.730469 C 155.171875 269.875 155.742188 272.953125 157.914062 275.625 C 163.914062 283.011719 172.46875 287.246094 181.160156 287.246094 C 181.921875 287.246094 182.6875 287.214844 183.449219 287.148438 C 187.191406 286.828125 190.386719 285.78125 192.953125 284.039062 C 196.125 281.886719 198.203125 278.6875 198.652344 275.261719 C 199.300781 270.304688 196.433594 264.941406 190.976562 260.917969 Z M 194.648438 274.738281 C 194.355469 276.984375 192.871094 279.210938 190.683594 280.699219 C 188.699219 282.046875 186.148438 282.863281 183.101562 283.125 C 174.984375 283.824219 166.730469 280.074219 161.050781 273.078125 C 159.773438 271.507812 159.457031 269.863281 160.085938 268.058594 C 161.445312 264.15625 166.699219 260.578125 170.757812 259.679688 C 171.988281 259.40625 173.269531 259.273438 174.574219 259.273438 C 179.257812 259.273438 184.273438 260.992188 188.578125 264.167969 C 190.171875 265.34375 195.324219 269.582031 194.648438 274.738281 Z M 194.648438 274.738281 " style=" stroke:none;fill-rule:nonzero;fill:rgb(0%,0%,0%);fill-opacity:1;" />
<path d="M 157.617188 251.507812 C 159.210938 252.527344 161.054688 252.574219 162.402344 252.609375 L 174.632812 252.929688 C 174.742188 252.992188 174.855469 253.046875 174.972656 253.09375 C 175.535156 253.304688 176.144531 253.253906 176.648438 252.980469 L 195.523438 253.46875 C 195.542969 253.46875 195.558594 253.46875 195.578125 253.46875 C 196.667969 253.46875 197.566406 252.597656 197.59375 251.5 C 197.625 250.386719 196.742188 249.460938 195.628906 249.429688 L 180.148438 249.03125 C 185.464844 243.042969 191.609375 237.890625 198.460938 233.683594 C 199.414062 233.101562 199.710938 231.855469 199.125 230.90625 C 198.542969 229.957031 197.296875 229.660156 196.351562 230.242188 C 189.421875 234.496094 183.183594 239.667969 177.746094 245.660156 C 177.578125 242.726562 177.003906 239.75 175.523438 237.039062 C 173 232.417969 166.972656 228.910156 161.632812 231.308594 C 157.929688 232.96875 155.566406 236.949219 154.800781 242.816406 C 154.117188 248.070312 155.957031 250.445312 157.617188 251.507812 Z M 158.808594 243.335938 C 159.136719 240.824219 160.152344 236.398438 163.285156 234.992188 C 163.90625 234.714844 164.5625 234.585938 165.230469 234.585938 C 167.875 234.585938 170.671875 236.582031 171.980469 238.972656 C 173.574219 241.890625 173.828125 245.46875 173.753906 248.863281 L 162.503906 248.570312 C 161.535156 248.546875 160.441406 248.519531 159.792969 248.105469 C 158.457031 247.25 158.660156 244.484375 158.808594 243.335938 Z M 158.808594 243.335938 " style=" stroke:none;fill-rule:nonzero;fill:rgb(0%,0%,0%);fill-opacity:1;" />
<path d="M 158.605469 225.859375 C 159 225.859375 159.398438 225.746094 159.746094 225.503906 L 175.59375 214.597656 L 199.816406 217.570312 C 199.898438 217.578125 199.984375 217.585938 200.0625 217.585938 C 201.070312 217.585938 201.941406 216.832031 202.066406 215.8125 C 202.203125 214.703125 201.414062 213.695312 200.308594 213.5625 L 175.367188 210.5 L 161.699219 199.363281 C 160.832031 198.660156 159.5625 198.789062 158.855469 199.65625 C 158.152344 200.519531 158.28125 201.792969 159.144531 202.496094 L 171.46875 212.535156 L 157.457031 222.179688 C 156.539062 222.808594 156.304688 224.066406 156.9375 224.988281 C 157.332031 225.554688 157.960938 225.859375 158.605469 225.859375 Z M 158.605469 225.859375 " style=" stroke:none;fill-rule:nonzero;fill:rgb(0%,0%,0%);fill-opacity:1;" />
<path d="M 368.363281 361.566406 C 365.46875 360.3125 362.246094 360.207031 359.519531 361.289062 C 355.523438 362.871094 353.125 366.246094 350.804688 369.507812 C 349.066406 371.957031 347.417969 374.269531 345.207031 375.71875 C 343.074219 377.113281 340.253906 377.523438 337.476562 376.832031 C 334.695312 376.144531 332.390625 374.472656 331.15625 372.238281 C 329.921875 370.007812 329.730469 367.167969 330.625 364.445312 C 331.519531 361.722656 333.363281 359.554688 335.679688 358.488281 C 336.691406 358.023438 337.136719 356.824219 336.671875 355.8125 C 336.207031 354.800781 335.007812 354.355469 333.996094 354.820312 C 330.660156 356.347656 328.03125 359.398438 326.789062 363.1875 C 325.542969 366.972656 325.847656 370.984375 327.625 374.195312 C 329.402344 377.40625 332.636719 379.800781 336.507812 380.757812 C 340.378906 381.714844 344.355469 381.109375 347.425781 379.097656 C 350.273438 377.230469 352.21875 374.492188 354.101562 371.847656 C 356.171875 368.9375 358.125 366.1875 361.007812 365.042969 C 362.742188 364.359375 364.839844 364.441406 366.753906 365.273438 C 368.671875 366.105469 370.164062 367.578125 370.847656 369.3125 C 371.53125 371.050781 371.441406 373.144531 370.605469 375.0625 C 369.765625 376.976562 368.289062 378.464844 366.550781 379.140625 C 365.511719 379.546875 365 380.71875 365.40625 381.757812 C 365.71875 382.554688 366.480469 383.042969 367.289062 383.042969 C 367.53125 383.042969 367.78125 383 368.023438 382.90625 C 370.75 381.839844 373.042969 379.570312 374.304688 376.679688 C 375.570312 373.785156 375.679688 370.5625 374.605469 367.835938 C 373.53125 365.109375 371.257812 362.824219 368.363281 361.566406 Z M 368.363281 361.566406 " style=" stroke:none;fill-rule:nonzero;fill:rgb(0%,0%,0%);fill-opacity:1;" />
<path d="M 339.332031 326.683594 C 338.5625 325.875 337.285156 325.847656 336.476562 326.617188 C 333.195312 329.742188 331.898438 334.914062 333.167969 339.789062 C 334.195312 343.738281 336.785156 347.476562 340.652344 350.601562 C 345.355469 354.402344 350.855469 356.476562 356.210938 356.476562 C 356.410156 356.476562 356.609375 356.472656 356.808594 356.464844 C 363.167969 356.28125 368.992188 353.039062 372.007812 348.003906 C 375.300781 342.496094 374.648438 335.019531 370.484375 330.617188 C 369.714844 329.804688 368.4375 329.769531 367.628906 330.535156 C 366.816406 331.304688 366.78125 332.582031 367.546875 333.390625 C 370.511719 336.527344 370.941406 341.917969 368.539062 345.929688 C 366.261719 349.734375 361.613281 352.285156 356.695312 352.429688 C 352.125 352.566406 347.320312 350.796875 343.195312 347.460938 C 340.96875 345.664062 338.101562 342.695312 337.078125 338.769531 C 336.183594 335.347656 337.066406 331.640625 339.265625 329.539062 C 340.070312 328.769531 340.101562 327.492188 339.332031 326.683594 Z M 339.332031 326.683594 " style=" stroke:none;fill-rule:nonzero;fill:rgb(0%,0%,0%);fill-opacity:1;" />
<path d="M 372.351562 314.164062 L 334.667969 311.773438 C 333.546875 311.707031 332.59375 312.546875 332.523438 313.660156 C 332.453125 314.773438 333.300781 315.734375 334.410156 315.804688 L 372.09375 318.195312 C 372.136719 318.199219 372.183594 318.199219 372.226562 318.199219 C 373.28125 318.199219 374.171875 317.378906 374.238281 316.308594 C 374.3125 315.195312 373.464844 314.234375 372.351562 314.164062 Z M 372.351562 314.164062 " style=" stroke:none;fill-rule:nonzero;fill:rgb(0%,0%,0%);fill-opacity:1;" />
<path d="M 374.78125 275.265625 C 374.753906 274.148438 373.824219 273.242188 372.710938 273.300781 C 371.59375 273.328125 370.714844 274.257812 370.742188 275.371094 L 371.285156 295.84375 C 371.300781 296.480469 371.332031 297.546875 371.007812 297.929688 C 370.585938 298.429688 368.996094 298.339844 368.398438 298.308594 L 355.855469 297.617188 L 356.15625 284.523438 C 356.179688 283.410156 355.296875 282.484375 354.179688 282.457031 C 353.046875 282.398438 352.144531 283.316406 352.117188 284.429688 L 351.820312 297.394531 L 340.617188 296.777344 C 339.554688 296.71875 338.355469 296.652344 337.644531 296.160156 C 336.53125 295.398438 336.265625 293.425781 336.105469 291.640625 L 334.632812 275.429688 C 334.53125 274.316406 333.550781 273.503906 332.441406 273.601562 C 331.328125 273.703125 330.507812 274.683594 330.609375 275.792969 L 332.082031 292.003906 C 332.257812 293.953125 332.585938 297.585938 335.355469 299.488281 C 337 300.621094 338.960938 300.730469 340.394531 300.808594 L 368.175781 302.339844 C 368.476562 302.355469 368.851562 302.378906 369.265625 302.378906 C 370.734375 302.378906 372.75 302.121094 374.089844 300.539062 C 375.410156 298.984375 375.355469 296.949219 375.324219 295.734375 Z M 374.78125 275.265625 " style=" stroke:none;fill-rule:nonzero;fill:rgb(0%,0%,0%);fill-opacity:1;" />
<path d="M 376.460938 243.34375 C 363.039062 240.867188 349.320312 240 335.691406 240.773438 C 334.578125 240.835938 333.726562 241.789062 333.789062 242.902344 C 333.855469 244.015625 334.808594 244.859375 335.921875 244.804688 C 347.367188 244.15625 358.871094 244.695312 370.207031 246.394531 C 358.894531 252.648438 346.851562 257.480469 334.332031 260.777344 C 333.410156 261.019531 332.785156 261.875 332.828125 262.828125 C 332.875 263.78125 333.582031 264.570312 334.527344 264.722656 C 347.890625 266.878906 361.535156 267.980469 375.074219 267.996094 C 375.078125 267.996094 375.078125 267.996094 375.078125 267.996094 C 376.191406 267.996094 377.097656 267.09375 377.097656 265.976562 C 377.101562 264.863281 376.195312 263.957031 375.082031 263.953125 C 364.832031 263.941406 354.527344 263.300781 344.328125 262.039062 C 355.78125 258.296875 366.785156 253.277344 377.136719 247.058594 C 377.855469 246.625 378.234375 245.792969 378.085938 244.96875 C 377.929688 244.144531 377.285156 243.496094 376.460938 243.34375 Z M 376.460938 243.34375 " style=" stroke:none;fill-rule:nonzero;fill:rgb(0%,0%,0%);fill-opacity:1;" />
<path d="M 377.273438 207.777344 C 376.273438 208.273438 375.867188 209.484375 376.363281 210.484375 C 379.132812 216.066406 377.679688 223.714844 372.976562 228.277344 C 368.417969 232.699219 361.03125 234.316406 354.601562 232.292969 C 348.398438 230.339844 343.152344 225.296875 340.570312 218.800781 C 339.699219 216.601562 339.378906 214.785156 339.601562 213.242188 C 339.839844 211.566406 340.847656 210.125 342.105469 209.65625 C 343.148438 209.265625 343.679688 208.105469 343.289062 207.058594 C 342.902344 206.011719 341.738281 205.480469 340.691406 205.871094 C 338.050781 206.859375 336.050781 209.527344 335.601562 212.671875 C 335.277344 214.929688 335.675781 217.421875 336.8125 220.289062 C 339.839844 227.90625 346.035156 233.832031 353.390625 236.144531 C 355.679688 236.863281 358.039062 237.214844 360.375 237.214844 C 366.132812 237.214844 371.75 235.097656 375.789062 231.175781 C 381.792969 225.351562 383.554688 215.894531 379.980469 208.6875 C 379.484375 207.691406 378.273438 207.28125 377.273438 207.777344 Z M 377.273438 207.777344 " style=" stroke:none;fill-rule:nonzero;fill:rgb(0%,0%,0%);fill-opacity:1;" />
<path d="M 339.5625 193.792969 C 342.375 196.117188 346.167969 196.53125 348.941406 196.832031 L 367.933594 198.90625 C 369.058594 199.03125 370.199219 199.132812 371.328125 199.132812 C 373.523438 199.132812 375.660156 198.746094 377.5 197.382812 C 380.503906 195.15625 381.683594 190.878906 380.734375 185.648438 C 380.589844 184.851562 380.414062 184.050781 380.238281 183.25 C 379.675781 180.675781 379.144531 178.246094 379.6875 176.03125 C 379.957031 174.949219 379.292969 173.855469 378.210938 173.585938 C 377.125 173.320312 376.035156 173.980469 375.765625 175.066406 C 374.996094 178.191406 375.65625 181.203125 376.292969 184.113281 C 376.457031 184.867188 376.625 185.621094 376.761719 186.371094 C 377.074219 188.101562 377.542969 192.324219 375.09375 194.136719 C 373.480469 195.335938 370.992188 195.175781 368.371094 194.890625 L 359.058594 193.875 L 358.75 180.214844 C 358.722656 179.117188 357.824219 178.242188 356.730469 178.242188 C 356.714844 178.242188 356.699219 178.242188 356.683594 178.242188 C 355.570312 178.269531 354.683594 179.195312 354.710938 180.308594 L 355.007812 193.433594 L 349.378906 192.816406 C 346.988281 192.558594 344.015625 192.234375 342.136719 190.679688 C 340.578125 189.390625 339.640625 187.144531 339.5625 184.507812 C 339.488281 181.910156 340.183594 179.214844 340.859375 176.609375 C 341.140625 175.53125 340.492188 174.429688 339.410156 174.148438 C 338.332031 173.867188 337.230469 174.515625 336.949219 175.597656 C 336.238281 178.339844 335.429688 181.453125 335.527344 184.628906 C 335.636719 188.425781 337.109375 191.765625 339.5625 193.792969 Z M 339.5625 193.792969 " style=" stroke:none;fill-rule:nonzero;fill:rgb(0%,0%,0%);fill-opacity:1;" />
<path d="M 477.210938 271.289062 L 423.886719 275.222656 C 422.976562 275.289062 422.226562 275.960938 422.054688 276.859375 C 421.882812 277.757812 422.335938 278.660156 423.160156 279.054688 L 449.78125 291.914062 L 427.261719 301.613281 C 426.414062 301.980469 425.921875 302.871094 426.070312 303.785156 C 426.214844 304.699219 426.960938 305.394531 427.882812 305.480469 L 473.410156 309.601562 C 473.472656 309.605469 473.53125 309.609375 473.59375 309.609375 C 474.625 309.609375 475.507812 308.820312 475.601562 307.769531 C 475.703125 306.660156 474.882812 305.675781 473.773438 305.578125 L 436.171875 302.175781 L 455.441406 293.871094 C 456.167969 293.558594 456.644531 292.851562 456.660156 292.0625 C 456.675781 291.269531 456.230469 290.542969 455.519531 290.199219 L 431.703125 278.695312 L 477.511719 275.3125 C 478.621094 275.230469 479.457031 274.265625 479.375 273.152344 C 479.292969 272.039062 478.328125 271.199219 477.210938 271.289062 Z M 477.210938 271.289062 " style=" stroke:none;fill-rule:nonzero;fill:rgb(0%,0%,0%);fill-opacity:1;" />
<path d="M 423.234375 254.824219 L 473.949219 262.265625 C 474.050781 262.28125 474.148438 262.289062 474.246094 262.289062 C 475.230469 262.289062 476.09375 261.566406 476.242188 260.5625 C 476.402344 259.457031 475.640625 258.433594 474.535156 258.269531 L 457.179688 255.722656 L 455.574219 240.15625 C 460.589844 238.476562 465.695312 237.042969 470.886719 235.882812 C 471.976562 235.640625 472.664062 234.558594 472.417969 233.472656 C 472.175781 232.382812 471.097656 231.699219 470.007812 231.941406 C 453.191406 235.695312 437.199219 242.144531 422.480469 251.101562 C 421.753906 251.542969 421.378906 252.394531 421.550781 253.230469 C 421.71875 254.0625 422.390625 254.703125 423.234375 254.824219 Z M 451.65625 241.539062 L 453.058594 255.117188 L 429.527344 251.664062 C 436.636719 247.691406 444.035156 244.328125 451.65625 241.539062 Z M 451.65625 241.539062 " style=" stroke:none;fill-rule:nonzero;fill:rgb(0%,0%,0%);fill-opacity:1;" />
<path d="M 435.804688 205.152344 L 435.761719 193.558594 C 435.757812 192.449219 434.851562 191.546875 433.742188 191.546875 C 433.738281 191.546875 433.734375 191.546875 433.734375 191.546875 C 432.617188 191.550781 431.714844 192.460938 431.71875 193.574219 L 431.867188 231.269531 C 431.871094 232.382812 432.773438 233.28125 433.886719 233.28125 C 433.886719 233.28125 433.890625 233.28125 433.894531 233.28125 C 435.007812 233.277344 435.910156 232.371094 435.90625 231.253906 L 435.820312 209.199219 L 472.835938 211.394531 C 472.878906 211.398438 472.917969 211.398438 472.960938 211.398438 C 474.019531 211.398438 474.910156 210.574219 474.972656 209.5 C 475.039062 208.386719 474.191406 207.429688 473.078125 207.363281 Z M 435.804688 205.152344 " style=" stroke:none;fill-rule:nonzero;fill:rgb(0%,0%,0%);fill-opacity:1;" />
<path d="M 432.464844 182.386719 C 445.59375 184.277344 458.976562 185.472656 472.234375 185.933594 C 472.257812 185.933594 472.28125 185.933594 472.304688 185.933594 C 473.386719 185.933594 474.285156 185.074219 474.324219 183.984375 C 474.363281 182.871094 473.492188 181.9375 472.375 181.894531 C 466.980469 181.707031 461.566406 181.390625 456.152344 180.957031 L 457.207031 160.105469 C 457.222656 159.796875 457.160156 159.5 457.046875 159.230469 L 470.695312 161.683594 C 470.816406 161.703125 470.933594 161.714844 471.050781 161.714844 C 472.011719 161.714844 472.863281 161.03125 473.039062 160.050781 C 473.234375 158.953125 472.503906 157.902344 471.40625 157.707031 L 434.457031 151.070312 C 433.359375 150.867188 432.308594 151.601562 432.113281 152.699219 C 431.914062 153.796875 432.644531 154.847656 433.742188 155.042969 L 453.710938 158.632812 C 453.398438 158.96875 453.195312 159.410156 453.171875 159.902344 L 452.125 180.621094 C 445.734375 180.039062 439.359375 179.296875 433.042969 178.386719 C 431.9375 178.230469 430.914062 178.992188 430.753906 180.097656 C 430.597656 181.203125 431.363281 182.226562 432.464844 182.386719 Z M 432.464844 182.386719 " style=" stroke:none;fill-rule:nonzero;fill:rgb(0%,0%,0%);fill-opacity:1;" />
<path d="M 279.78125 322.683594 C 279.714844 321.570312 278.753906 320.71875 277.644531 320.789062 C 276.53125 320.851562 275.679688 321.808594 275.746094 322.921875 L 276.644531 338.140625 C 276.675781 338.652344 276.753906 340.023438 276.375 340.382812 C 276.003906 340.738281 274.652344 340.597656 274.144531 340.542969 L 239.746094 336.976562 C 238.628906 336.847656 237.644531 337.664062 237.53125 338.777344 C 237.414062 339.886719 238.21875 340.878906 239.328125 340.992188 L 273.726562 344.5625 C 274.144531 344.605469 274.679688 344.660156 275.273438 344.660156 C 276.511719 344.660156 277.996094 344.417969 279.160156 343.3125 C 280.898438 341.660156 280.753906 339.214844 280.675781 337.902344 Z M 279.78125 322.683594 " style=" stroke:none;fill-rule:nonzero;fill:rgb(0%,0%,0%);fill-opacity:1;" />
<path d="M 278.363281 318.769531 C 278.375 318.769531 278.386719 318.769531 278.398438 318.769531 C 279.496094 318.769531 280.398438 317.886719 280.417969 316.785156 C 280.4375 315.667969 279.550781 314.75 278.433594 314.730469 L 244.636719 314.132812 C 243.511719 314.144531 242.601562 315 242.582031 316.117188 C 242.5625 317.230469 243.453125 318.152344 244.566406 318.171875 Z M 278.363281 318.769531 " style=" stroke:none;fill-rule:nonzero;fill:rgb(0%,0%,0%);fill-opacity:1;" />
<path d="M 281.316406 297.78125 C 269.40625 297.121094 257.300781 296.542969 245.339844 296.0625 C 245.269531 296.0625 245.203125 296.074219 245.132812 296.078125 L 244.828125 288.34375 C 244.785156 287.230469 243.84375 286.375 242.730469 286.40625 C 241.617188 286.449219 240.75 287.390625 240.792969 288.503906 L 241.519531 306.894531 C 241.5625 307.980469 242.457031 308.832031 243.539062 308.832031 C 243.566406 308.832031 243.589844 308.832031 243.617188 308.832031 C 244.734375 308.789062 245.601562 307.847656 245.554688 306.734375 L 245.292969 300.105469 C 257.199219 300.582031 269.242188 301.160156 281.09375 301.816406 C 281.128906 301.816406 281.167969 301.816406 281.207031 301.816406 C 282.269531 301.816406 283.160156 300.984375 283.21875 299.910156 C 283.28125 298.796875 282.429688 297.84375 281.316406 297.78125 Z M 281.316406 297.78125 " style=" stroke:none;fill-rule:nonzero;fill:rgb(0%,0%,0%);fill-opacity:1;" />
<path d="M 281.328125 264.964844 C 280.226562 264.914062 279.261719 265.757812 279.203125 266.871094 L 278.359375 282.304688 L 267.082031 282.078125 L 266.257812 269.886719 C 266.183594 268.773438 265.222656 267.910156 264.109375 268.007812 C 262.996094 268.082031 262.152344 269.042969 262.230469 270.15625 L 263.027344 281.996094 L 252.589844 281.785156 C 251.417969 281.761719 250.324219 281.699219 249.773438 281.234375 C 249.082031 280.652344 248.980469 279.199219 248.972656 277.710938 L 248.914062 265.714844 C 248.910156 264.605469 248.003906 263.707031 246.894531 263.707031 C 246.890625 263.707031 246.886719 263.707031 246.882812 263.707031 C 245.769531 263.710938 244.871094 264.621094 244.875 265.734375 L 244.933594 277.730469 C 244.941406 279.382812 244.957031 282.457031 247.171875 284.324219 C 248.859375 285.746094 251.054688 285.792969 252.507812 285.824219 L 280.230469 286.382812 C 280.242188 286.382812 280.257812 286.382812 280.269531 286.382812 C 281.339844 286.382812 282.226562 285.546875 282.285156 284.476562 L 283.238281 267.09375 C 283.296875 265.976562 282.445312 265.027344 281.328125 264.964844 Z M 281.328125 264.964844 " style=" stroke:none;fill-rule:nonzero;fill:rgb(0%,0%,0%);fill-opacity:1;" />
<path d="M 244.757812 257.984375 C 246.355469 259.28125 248.253906 259.574219 250.175781 259.574219 C 250.75 259.574219 251.324219 259.550781 251.894531 259.515625 L 280.875 257.777344 C 281.988281 257.710938 282.839844 256.753906 282.773438 255.640625 C 282.707031 254.527344 281.738281 253.683594 280.636719 253.746094 L 268.238281 254.488281 C 272.109375 249.605469 276.597656 245.265625 281.621094 241.550781 C 282.519531 240.886719 282.707031 239.621094 282.042969 238.726562 C 281.382812 237.828125 280.117188 237.640625 279.21875 238.300781 C 274.523438 241.773438 270.265625 245.769531 266.515625 250.214844 C 266.359375 248.515625 266.058594 246.773438 265.523438 245.054688 C 264.21875 240.875 261.683594 237.59375 258.390625 235.8125 C 254.433594 233.675781 249.480469 234.054688 246.351562 236.738281 C 242.683594 239.882812 242.226562 244.953125 242.082031 249.460938 C 242.011719 251.625 241.886719 255.652344 244.757812 257.984375 Z M 246.121094 249.589844 C 246.238281 245.773438 246.558594 241.878906 248.980469 239.804688 C 250.007812 238.921875 251.429688 238.472656 252.914062 238.472656 C 254.117188 238.472656 255.359375 238.769531 256.46875 239.367188 C 258.796875 240.625 260.691406 243.136719 261.664062 246.257812 C 262.546875 249.082031 262.667969 252.113281 262.605469 254.828125 L 251.652344 255.484375 C 249.902344 255.589844 248.25 255.617188 247.300781 254.851562 C 246.144531 253.910156 246.050781 251.765625 246.121094 249.589844 Z M 246.121094 249.589844 " style=" stroke:none;fill-rule:nonzero;fill:rgb(0%,0%,0%);fill-opacity:1;" />
<path d="M 283.703125 230.441406 L 271.585938 225.5 L 272.132812 211.617188 C 272.136719 211.53125 272.125 211.449219 272.121094 211.367188 L 282.148438 208.433594 C 283.21875 208.117188 283.832031 206.996094 283.519531 205.925781 C 283.207031 204.855469 282.082031 204.238281 281.015625 204.554688 L 244.960938 215.113281 C 244.136719 215.355469 243.558594 216.089844 243.511719 216.945312 C 243.46875 217.804688 243.972656 218.597656 244.769531 218.917969 L 282.175781 234.179688 C 282.425781 234.285156 282.6875 234.332031 282.941406 234.332031 C 283.734375 234.332031 284.492188 233.859375 284.8125 233.074219 C 285.230469 232.042969 284.738281 230.863281 283.703125 230.441406 Z M 268.054688 212.558594 L 267.605469 223.875 L 251.644531 217.363281 Z M 268.054688 212.558594 " style=" stroke:none;fill-rule:nonzero;fill:rgb(0%,0%,0%);fill-opacity:1;" />
<path d="M 286.695312 190.59375 L 249.601562 186.007812 L 250.679688 175.117188 C 250.789062 174.007812 249.976562 173.019531 248.867188 172.910156 C 247.761719 172.796875 246.769531 173.609375 246.660156 174.722656 L 243.707031 204.59375 C 243.597656 205.703125 244.40625 206.691406 245.519531 206.800781 C 245.585938 206.808594 245.652344 206.808594 245.71875 206.808594 C 246.746094 206.808594 247.621094 206.03125 247.726562 204.988281 L 249.203125 190.027344 L 286.199219 194.601562 C 286.28125 194.613281 286.367188 194.617188 286.449219 194.617188 C 287.453125 194.617188 288.324219 193.867188 288.453125 192.847656 C 288.589844 191.738281 287.804688 190.730469 286.695312 190.59375 Z M 286.695312 190.59375 " style=" stroke:none;fill-rule:nonzero;fill:rgb(0%,0%,0%);fill-opacity:1;" />
<path d="M 289.234375 164.0625 C 286.929688 162.21875 284.160156 161.320312 281.746094 160.621094 C 273.839844 158.328125 265.660156 157.050781 257.429688 156.816406 C 256.332031 156.789062 255.386719 157.664062 255.355469 158.777344 C 255.324219 159.894531 256.203125 160.824219 257.316406 160.855469 C 265.203125 161.078125 273.046875 162.304688 280.625 164.5 C 282.664062 165.089844 284.984375 165.835938 286.707031 167.214844 C 288.304688 168.496094 289.207031 170.328125 289.007812 171.886719 C 288.828125 173.273438 287.75 174.683594 286.191406 175.570312 C 284.476562 176.539062 282.382812 176.886719 280.5625 177.097656 C 272.820312 177.988281 264.914062 176.894531 257.703125 173.933594 C 256.671875 173.515625 255.492188 174.007812 255.066406 175.035156 C 254.644531 176.070312 255.136719 177.246094 256.167969 177.671875 C 262.238281 180.160156 268.757812 181.4375 275.296875 181.4375 C 277.207031 181.4375 279.121094 181.328125 281.023438 181.109375 C 283.246094 180.851562 285.835938 180.410156 288.183594 179.082031 C 290.867188 177.558594 292.671875 175.058594 293.011719 172.398438 C 293.394531 169.429688 291.945312 166.238281 289.234375 164.0625 Z M 289.234375 164.0625 " style=" stroke:none;fill-rule:nonzero;fill:rgb(0%,0%,0%);fill-opacity:1;" />
<path d="M 291 129.277344 L 273.207031 147.265625 C 272.980469 143.40625 272.285156 139.585938 270.273438 136.210938 C 267.226562 131.089844 260.203125 127.636719 254.609375 130.664062 C 250.074219 133.117188 248.597656 138.335938 247.570312 143.035156 C 247.210938 144.664062 246.125 149.628906 249.664062 151.976562 C 251.03125 152.882812 252.59375 152.984375 253.734375 153.058594 L 290.1875 155.429688 C 290.234375 155.433594 290.277344 155.433594 290.320312 155.433594 C 291.375 155.433594 292.265625 154.613281 292.332031 153.546875 C 292.40625 152.433594 291.5625 151.472656 290.449219 151.398438 L 275.746094 150.441406 L 293.871094 132.117188 C 294.65625 131.324219 294.648438 130.046875 293.855469 129.261719 C 293.0625 128.476562 291.785156 128.484375 291 129.277344 Z M 253.996094 149.027344 C 253.234375 148.976562 252.367188 148.921875 251.898438 148.609375 C 251.089844 148.074219 250.957031 146.445312 251.515625 143.898438 C 252.355469 140.074219 253.5 135.855469 256.53125 134.21875 C 257.359375 133.769531 258.257812 133.566406 259.175781 133.566406 C 262.121094 133.566406 265.238281 135.652344 266.804688 138.277344 C 268.796875 141.625 269.203125 145.828125 269.261719 150.019531 Z M 253.996094 149.027344 " style=" stroke:none;fill-rule:nonzero;fill:rgb(0%,0%,0%);fill-opacity:1;" />
<path d="M 255.605469 123.421875 C 255.632812 123.421875 255.664062 123.417969 255.691406 123.417969 L 285.023438 122.140625 C 286.546875 122.074219 289.382812 121.949219 291.007812 119.761719 C 292.25 118.09375 292.125 116.070312 292.046875 114.730469 L 291.324219 102.730469 C 291.257812 101.617188 290.289062 100.746094 289.1875 100.835938 C 288.070312 100.902344 287.222656 101.859375 287.289062 102.972656 L 288.011719 114.972656 C 288.058594 115.726562 288.128906 116.867188 287.765625 117.355469 C 287.289062 118 285.640625 118.070312 284.847656 118.105469 L 273.710938 118.589844 L 273.550781 103.257812 C 273.539062 102.144531 272.613281 101.285156 271.511719 101.261719 C 270.398438 101.273438 269.5 102.183594 269.511719 103.300781 L 269.671875 118.765625 L 257.65625 119.289062 L 257.945312 99.878906 C 257.960938 98.765625 257.070312 97.847656 255.953125 97.828125 C 255.945312 97.828125 255.933594 97.828125 255.921875 97.828125 C 254.820312 97.828125 253.921875 98.714844 253.90625 99.820312 L 253.582031 121.371094 C 253.574219 121.925781 253.796875 122.464844 254.195312 122.851562 C 254.574219 123.214844 255.082031 123.421875 255.605469 123.421875 Z M 255.605469 123.421875 " style=" stroke:none;fill-rule:nonzero;fill:rgb(0%,0%,0%);fill-opacity:1;" />
<path d="M 37.277344 413.132812 C 31.359375 412.523438 25.707031 418.332031 24.351562 423.957031 C 22.929688 429.832031 25.578125 436.441406 30.648438 439.667969 C 32.945312 441.128906 35.628906 441.847656 38.3125 441.847656 C 41.644531 441.847656 44.972656 440.738281 47.542969 438.570312 C 52.179688 434.65625 53.800781 427.5625 51.3125 422.0625 C 48.695312 416.289062 42.117188 413.640625 37.277344 413.132812 Z M 44.941406 435.484375 C 41.667969 438.246094 36.457031 438.582031 32.820312 436.261719 C 29.160156 433.933594 27.25 429.15625 28.277344 424.90625 C 29.164062 421.238281 32.902344 417.125 36.398438 417.125 C 36.550781 417.125 36.703125 417.132812 36.855469 417.148438 C 40.929688 417.578125 45.84375 419.78125 47.632812 423.730469 C 49.402344 427.640625 48.246094 432.695312 44.941406 435.484375 Z M 44.941406 435.484375 " style=" stroke:none;fill-rule:nonzero;fill:rgb(0%,0%,0%);fill-opacity:1;" />
<path d="M 454.796875 89.433594 C 455.382812 89.464844 455.964844 89.480469 456.546875 89.480469 C 463.734375 89.480469 470.660156 87.089844 475.777344 82.800781 C 481.390625 78.09375 484.625 70.609375 484.429688 62.78125 C 484.238281 54.957031 480.773438 47.929688 474.921875 43.496094 C 463.613281 34.933594 444.914062 43.246094 437.507812 52.503906 C 431.511719 60 429.976562 69.589844 433.601562 76.929688 C 437.152344 84.125 445.273438 88.917969 454.796875 89.433594 Z M 440.660156 55.027344 C 445.230469 49.3125 455.070312 44.011719 463.558594 44.011719 C 466.867188 44.011719 469.972656 44.816406 472.484375 46.71875 C 477.347656 50.402344 480.230469 56.292969 480.394531 62.878906 C 480.558594 69.492188 477.863281 75.78125 473.183594 79.703125 C 468.425781 83.691406 461.796875 85.757812 455.015625 85.398438 C 447.070312 84.96875 440.085938 80.941406 437.222656 75.144531 C 433.65625 67.925781 436.847656 59.796875 440.660156 55.027344 Z M 440.660156 55.027344 " style=" stroke:none;fill-rule:nonzero;fill:rgb(0%,0%,0%);fill-opacity:1;" />
</g>
</svg>