<svg xmlns="http://www.w3.org/2000/svg" height="512pt" version="1.1" viewBox="0 0 512 512" width="512pt">
<g id="surface1">
<path d="M 512 256 C 512 397.386719 397.386719 512 256 512 C 114.613281 512 0 397.386719 0 256 C 0 114.613281 114.613281 0 256 0 C 397.386719 0 512 114.613281 512 256 Z M 512 256 " style=" stroke:none;fill-rule:nonzero;fill:rgb(40.784314%,98.823529%,87.45098%);fill-opacity:1;" />
<path d="M 512 256 C 512 282.050781 508.109375 307.191406 500.871094 330.871094 C 468.859375 435.71875 371.328125 512 256 512 C 151.441406 512 61.511719 449.300781 21.769531 359.449219 C 7.769531 327.820312 0 292.820312 0 256 C 0 209.78125 12.25 166.429688 33.679688 129 C 77.800781 206.070312 160.839844 258 256 258 C 351.160156 258 434.210938 206.070312 478.320312 129 C 499.75 166.429688 512 209.78125 512 256 Z M 512 256 " style=" stroke:none;fill-rule:nonzero;fill:rgb(6.27451%,88.627451%,76.862745%);fill-opacity:1;" />
<path d="M 30.742188 377.703125 C 37.898438 390.921875 46.171875 403.441406 55.460938 415.128906 C 102.359375 474.148438 174.761719 512 256 512 C 337.238281 512 409.640625 474.148438 456.539062 415.128906 C 465.828125 403.441406 474.101562 390.921875 481.257812 377.703125 Z M 30.742188 377.703125 " style=" stroke:none;fill-rule:nonzero;fill:rgb(10.196078%,72.941176%,62.352941%);fill-opacity:1;" />
<path d="M 354.175781 159.613281 C 348.769531 179.054688 335.359375 196.183594 315.773438 205.71875 C 296.191406 215.25 274.433594 215.234375 255.785156 207.503906 C 261.1875 188.050781 274.609375 170.914062 294.195312 161.382812 C 313.78125 151.847656 335.535156 151.863281 354.175781 159.613281 Z M 354.175781 159.613281 " style=" stroke:none;fill-rule:nonzero;fill:rgb(42.352941%,86.27451%,17.647059%);fill-opacity:1;" />
<path d="M 255.785156 207.503906 C 274.4375 215.234375 296.191406 215.25 315.777344 205.71875 C 335.359375 196.183594 348.769531 179.054688 354.179688 159.613281 Z M 255.785156 207.503906 " style=" stroke:none;fill-rule:nonzero;fill:rgb(0%,62.745098%,25.882353%);fill-opacity:1;" />
<path d="M 248.460938 182.199219 L 263.460938 182.199219 L 263.460938 260.328125 L 248.460938 260.328125 Z M 248.460938 182.199219 " style=" stroke:none;fill-rule:nonzero;fill:rgb(47.843137%,17.647059%,10.196078%);fill-opacity:1;" />
<path d="M 428.800781 377.601562 C 397.78125 354.089844 341.300781 339.289062 341.300781 297.371094 C 341.300781 279.378906 381.429688 239.800781 388.089844 224.238281 C 388.121094 224.191406 388.140625 224.128906 388.171875 224.070312 C 374.929688 213.238281 359.328125 207.230469 342.460938 207.230469 C 314.160156 207.230469 285.910156 223.640625 263.460938 250.628906 C 260.878906 253.730469 258.378906 256.960938 255.960938 260.328125 C 253.539062 256.960938 251.039062 253.730469 248.460938 250.628906 C 235.101562 234.578125 219.699219 222.261719 203.449219 214.921875 C 192.378906 209.921875 180.929688 207.230469 169.460938 207.230469 C 117.808594 207.230469 78.140625 263.601562 81.191406 341.429688 C 83.480469 400.070312 108.859375 455.628906 144.738281 486.609375 C 169.160156 498.421875 195.730469 506.460938 223.71875 509.980469 C 228.761719 508.75 233.601562 506.96875 238.21875 504.691406 C 244.558594 501.570312 250.488281 497.480469 255.960938 492.558594 C 265.398438 501.070312 276.238281 507.058594 288.199219 509.988281 C 288.210938 509.988281 288.210938 509.988281 288.210938 509.988281 C 316.160156 506.480469 342.699219 498.46875 367.089844 486.699219 C 395.46875 462.230469 417.300781 422.378906 426.339844 377.78125 C 426.128906 377.789062 425.929688 377.800781 425.71875 377.800781 C 426.75 377.761719 427.78125 377.691406 428.800781 377.601562 Z M 428.800781 377.601562 " style=" stroke:none;fill-rule:nonzero;fill:rgb(100%,20.392157%,27.058824%);fill-opacity:1;" />
<path d="M 428.796875 377.601562 C 426.496094 377.804688 424.167969 377.898438 421.820312 377.898438 C 377.351562 377.898438 341.300781 341.847656 341.300781 297.371094 C 341.300781 264.945312 360.472656 236.996094 388.09375 224.242188 C 381.425781 239.796875 377.738281 256.929688 377.738281 274.914062 C 377.738281 316.84375 397.777344 354.089844 428.796875 377.601562 Z M 428.796875 377.601562 " style=" stroke:none;fill-rule:nonzero;fill:rgb(100%,100%,100%);fill-opacity:1;" />
<path d="M 426.339844 377.78125 C 417.300781 422.378906 395.46875 462.230469 367.089844 486.699219 C 342.699219 498.46875 316.160156 506.480469 288.210938 509.988281 C 288.210938 509.988281 288.210938 509.988281 288.199219 509.988281 C 276.238281 507.058594 265.398438 501.070312 255.960938 492.558594 C 250.488281 497.480469 244.558594 501.570312 238.21875 504.691406 C 193.859375 473.949219 161.46875 409 158.78125 340.101562 C 156.589844 284.480469 174.730469 239.089844 203.449219 214.921875 C 219.699219 222.261719 235.101562 234.578125 248.460938 250.628906 C 251.039062 253.730469 253.539062 256.960938 255.960938 260.328125 C 258.378906 256.960938 260.878906 253.730469 263.460938 250.628906 C 285.910156 223.640625 314.160156 207.230469 342.460938 207.230469 C 359.328125 207.230469 374.929688 213.238281 388.171875 224.070312 C 388.140625 224.128906 388.121094 224.191406 388.089844 224.238281 C 360.46875 237 341.300781 264.949219 341.300781 297.371094 C 341.300781 341.851562 377.351562 377.898438 421.820312 377.898438 C 422.351562 377.898438 422.878906 377.898438 423.410156 377.878906 C 423.519531 377.878906 423.628906 377.878906 423.730469 377.871094 C 423.898438 377.871094 424.070312 377.871094 424.238281 377.859375 C 424.25 377.871094 424.25 377.859375 424.25 377.859375 C 424.609375 377.859375 424.96875 377.839844 425.328125 377.820312 C 425.460938 377.820312 425.589844 377.820312 425.71875 377.800781 C 425.929688 377.800781 426.128906 377.789062 426.339844 377.78125 Z M 426.339844 377.78125 " style=" stroke:none;fill-rule:nonzero;fill:rgb(86.666667%,7.058824%,39.607843%);fill-opacity:1;" />
<path d="M 426.339844 377.78125 C 417.300781 422.378906 395.46875 462.230469 367.089844 486.699219 C 342.699219 498.46875 316.160156 506.480469 288.210938 509.988281 C 288.210938 509.988281 288.210938 509.988281 288.199219 509.988281 C 276.238281 507.058594 265.398438 501.070312 255.960938 492.558594 L 255.960938 260.328125 C 258.378906 256.960938 260.878906 253.730469 263.460938 250.628906 C 285.910156 223.640625 314.160156 207.230469 342.460938 207.230469 C 359.328125 207.230469 374.929688 213.238281 388.171875 224.070312 C 388.140625 224.128906 388.121094 224.191406 388.089844 224.238281 C 360.46875 237 341.300781 264.949219 341.300781 297.371094 C 341.300781 341.851562 377.351562 377.898438 421.820312 377.898438 C 422.351562 377.898438 422.878906 377.898438 423.410156 377.878906 C 423.519531 377.878906 423.628906 377.878906 423.730469 377.871094 C 423.898438 377.871094 424.070312 377.871094 424.238281 377.859375 C 424.25 377.871094 424.25 377.859375 424.25 377.859375 C 424.609375 377.859375 424.96875 377.839844 425.328125 377.820312 C 425.460938 377.820312 425.589844 377.820312 425.71875 377.800781 C 425.929688 377.800781 426.128906 377.789062 426.339844 377.78125 Z M 426.339844 377.78125 " style=" stroke:none;fill-rule:nonzero;fill:rgb(72.941176%,5.098039%,36.078431%);fill-opacity:1;" />
</g>
</svg>