<svg xmlns="http://www.w3.org/2000/svg" height="512pt" version="1.1" viewBox="0 0 512 512" width="512pt">
<g id="surface1">
<path d="M 512 256 C 512 397.386719 397.386719 512 256 512 C 114.613281 512 0 397.386719 0 256 C 0 114.613281 114.613281 0 256 0 C 397.386719 0 512 114.613281 512 256 Z M 512 256 " style=" stroke:none;fill-rule:nonzero;fill:rgb(100%,91.372549%,33.333333%);fill-opacity:1;" />
<path d="M 512 256 C 512 282.050781 508.109375 307.191406 500.871094 330.871094 C 468.859375 435.71875 371.328125 512 256 512 C 151.441406 512 61.511719 449.300781 21.769531 359.449219 C 7.769531 327.820312 0 292.820312 0 256 C 0 209.78125 12.25 166.429688 33.679688 129 C 77.800781 206.070312 160.839844 258 256 258 C 351.160156 258 434.210938 206.070312 478.320312 129 C 499.75 166.429688 512 209.78125 512 256 Z M 512 256 " style=" stroke:none;fill-rule:nonzero;fill:rgb(100%,81.960784%,7.058824%);fill-opacity:1;" />
<path d="M 30.742188 377.703125 C 37.898438 390.921875 46.171875 403.441406 55.460938 415.128906 C 102.359375 474.148438 174.761719 512 256 512 C 337.238281 512 409.640625 474.148438 456.539062 415.128906 C 465.828125 403.441406 474.101562 390.921875 481.257812 377.703125 Z M 30.742188 377.703125 " style=" stroke:none;fill-rule:nonzero;fill:rgb(100%,62.352941%,0%);fill-opacity:1;" />
<path d="M 390.058594 474.121094 L 390.058594 474.128906 C 387.308594 475.820312 384.53125 477.46875 381.710938 479.050781 C 344.578125 500.03125 301.691406 512 256 512 C 232.730469 512 210.191406 508.890625 188.761719 503.070312 C 168.121094 497.46875 148.511719 489.351562 130.289062 479.050781 C 127.328125 477.390625 124.410156 475.660156 121.53125 473.871094 L 121.53125 449.078125 L 360.5 449.078125 C 360.808594 449.078125 361.121094 449.078125 361.429688 449.101562 C 361.601562 449.101562 361.769531 449.109375 361.929688 449.121094 C 362.378906 449.128906 362.820312 449.171875 363.261719 449.210938 C 363.398438 449.21875 363.550781 449.230469 363.691406 449.25 C 363.761719 449.261719 363.828125 449.261719 363.910156 449.28125 C 363.910156 449.28125 363.921875 449.269531 363.929688 449.28125 L 363.96875 449.28125 C 364.019531 449.289062 364.070312 449.300781 364.121094 449.308594 C 364.148438 449.308594 364.191406 449.308594 364.21875 449.320312 C 364.261719 449.308594 364.300781 449.320312 364.339844 449.328125 C 364.480469 449.339844 364.621094 449.359375 364.769531 449.390625 C 364.929688 449.398438 365.089844 449.429688 365.261719 449.460938 C 365.628906 449.519531 366 449.578125 366.371094 449.660156 C 366.769531 449.730469 367.160156 449.820312 367.550781 449.921875 C 367.628906 449.941406 367.71875 449.960938 367.808594 449.980469 C 367.929688 450.011719 368.050781 450.039062 368.160156 450.070312 C 368.429688 450.140625 368.691406 450.210938 368.960938 450.300781 C 369.011719 450.308594 369.058594 450.320312 369.121094 450.339844 C 369.160156 450.351562 369.210938 450.371094 369.25 450.378906 C 369.28125 450.390625 369.320312 450.398438 369.351562 450.410156 C 369.488281 450.449219 369.628906 450.5 369.769531 450.550781 C 369.921875 450.589844 370.070312 450.640625 370.21875 450.699219 C 370.28125 450.710938 370.339844 450.730469 370.398438 450.761719 C 370.628906 450.828125 370.851562 450.910156 371.058594 451 C 371.128906 451.019531 371.191406 451.050781 371.261719 451.078125 C 371.441406 451.148438 371.621094 451.21875 371.789062 451.289062 C 371.960938 451.351562 372.121094 451.421875 372.28125 451.488281 C 372.328125 451.511719 372.390625 451.53125 372.441406 451.558594 C 372.589844 451.621094 372.738281 451.691406 372.890625 451.769531 C 373.140625 451.871094 373.378906 451.980469 373.628906 452.109375 C 373.808594 452.191406 373.980469 452.28125 374.160156 452.378906 C 374.421875 452.5 374.679688 452.640625 374.941406 452.789062 C 375.019531 452.828125 375.101562 452.871094 375.179688 452.921875 C 375.261719 452.960938 375.351562 453.011719 375.429688 453.070312 C 375.578125 453.148438 375.730469 453.230469 375.878906 453.328125 C 376.03125 453.421875 376.179688 453.511719 376.320312 453.601562 C 376.421875 453.648438 376.519531 453.710938 376.609375 453.78125 C 376.691406 453.828125 376.769531 453.878906 376.851562 453.929688 C 376.941406 453.988281 377.039062 454.050781 377.128906 454.121094 C 377.210938 454.171875 377.300781 454.230469 377.378906 454.289062 C 377.449219 454.328125 377.53125 454.378906 377.601562 454.441406 C 377.878906 454.628906 378.160156 454.828125 378.429688 455.039062 C 378.820312 455.320312 379.191406 455.621094 379.558594 455.929688 C 379.878906 456.191406 380.191406 456.449219 380.488281 456.730469 C 381.289062 457.441406 382.039062 458.191406 382.75 458.980469 C 383 459.25 383.238281 459.53125 383.480469 459.808594 C 383.480469 459.820312 383.488281 459.820312 383.488281 459.828125 C 383.648438 460.019531 383.808594 460.210938 383.960938 460.410156 C 384.101562 460.578125 384.230469 460.75 384.359375 460.921875 C 384.378906 460.929688 384.390625 460.949219 384.398438 460.96875 C 384.628906 461.28125 384.859375 461.589844 385.078125 461.910156 C 385.109375 461.949219 385.140625 461.988281 385.160156 462.03125 C 385.179688 462.039062 385.179688 462.050781 385.179688 462.058594 C 385.21875 462.101562 385.25 462.148438 385.269531 462.191406 C 385.300781 462.21875 385.320312 462.25 385.339844 462.28125 C 385.398438 462.359375 385.449219 462.429688 385.488281 462.511719 C 385.601562 462.671875 385.699219 462.828125 385.800781 462.988281 C 385.839844 463.039062 385.871094 463.089844 385.898438 463.148438 C 385.929688 463.179688 385.949219 463.21875 385.96875 463.261719 C 386.039062 463.371094 386.109375 463.488281 386.179688 463.609375 C 386.339844 463.859375 386.488281 464.121094 386.621094 464.378906 C 386.75 464.601562 386.878906 464.828125 387 465.058594 C 387.089844 465.21875 387.171875 465.371094 387.238281 465.53125 C 387.410156 465.859375 387.570312 466.191406 387.730469 466.539062 C 387.828125 466.738281 387.921875 466.929688 388 467.128906 C 388.078125 467.328125 388.171875 467.539062 388.25 467.738281 C 388.28125 467.789062 388.300781 467.839844 388.308594 467.890625 C 388.378906 468.039062 388.441406 468.191406 388.488281 468.351562 C 388.570312 468.550781 388.640625 468.761719 388.71875 468.96875 C 388.871094 469.378906 389.011719 469.800781 389.140625 470.21875 C 389.261719 470.609375 389.378906 471.011719 389.480469 471.410156 C 389.539062 471.640625 389.601562 471.871094 389.648438 472.101562 C 389.710938 472.328125 389.769531 472.558594 389.808594 472.800781 C 389.859375 473.019531 389.910156 473.238281 389.941406 473.460938 C 389.988281 473.679688 390.03125 473.898438 390.058594 474.121094 Z M 390.058594 474.121094 " style=" stroke:none;fill-rule:nonzero;fill:rgb(100%,100%,100%);fill-opacity:1;" />
<path d="M 390.058594 474.121094 L 390.058594 474.128906 C 387.308594 475.820312 384.53125 477.46875 381.710938 479.050781 C 344.578125 500.03125 301.691406 512 256 512 C 232.730469 512 210.191406 508.890625 188.761719 503.070312 L 188.761719 449.078125 L 360.5 449.078125 C 360.808594 449.078125 361.121094 449.078125 361.429688 449.101562 C 361.601562 449.101562 361.769531 449.109375 361.929688 449.121094 C 362.378906 449.128906 362.820312 449.171875 363.261719 449.210938 C 363.398438 449.21875 363.550781 449.230469 363.691406 449.25 C 363.761719 449.261719 363.828125 449.261719 363.910156 449.28125 C 363.910156 449.28125 363.921875 449.269531 363.929688 449.28125 C 364 449.289062 364.058594 449.300781 364.121094 449.308594 C 364.148438 449.308594 364.191406 449.308594 364.21875 449.320312 C 364.261719 449.308594 364.300781 449.320312 364.339844 449.328125 C 364.480469 449.339844 364.621094 449.359375 364.769531 449.390625 C 364.929688 449.398438 365.089844 449.429688 365.261719 449.460938 C 365.628906 449.519531 366 449.578125 366.371094 449.660156 C 366.769531 449.730469 367.160156 449.820312 367.550781 449.921875 C 367.628906 449.941406 367.71875 449.960938 367.808594 449.980469 C 367.929688 450.011719 368.050781 450.039062 368.160156 450.070312 C 368.429688 450.140625 368.691406 450.210938 368.960938 450.300781 C 369.011719 450.308594 369.058594 450.320312 369.121094 450.339844 C 369.160156 450.351562 369.210938 450.371094 369.25 450.378906 C 369.28125 450.390625 369.320312 450.398438 369.351562 450.410156 C 369.488281 450.449219 369.628906 450.5 369.769531 450.550781 C 369.921875 450.589844 370.070312 450.640625 370.21875 450.699219 C 370.28125 450.710938 370.339844 450.730469 370.398438 450.761719 C 370.628906 450.828125 370.851562 450.910156 371.058594 451 C 371.128906 451.019531 371.191406 451.050781 371.261719 451.078125 C 371.441406 451.148438 371.621094 451.21875 371.789062 451.289062 C 371.960938 451.351562 372.121094 451.421875 372.28125 451.488281 C 372.328125 451.511719 372.390625 451.53125 372.441406 451.558594 C 372.589844 451.621094 372.738281 451.691406 372.890625 451.769531 C 373.140625 451.871094 373.378906 451.980469 373.628906 452.109375 C 373.808594 452.191406 373.980469 452.28125 374.160156 452.378906 C 374.421875 452.5 374.679688 452.640625 374.941406 452.789062 C 375.019531 452.828125 375.101562 452.871094 375.179688 452.921875 C 375.261719 452.960938 375.351562 453.011719 375.429688 453.070312 C 375.578125 453.148438 375.730469 453.230469 375.878906 453.328125 C 376.03125 453.421875 376.179688 453.511719 376.320312 453.601562 C 376.421875 453.648438 376.519531 453.710938 376.609375 453.78125 C 376.691406 453.828125 376.769531 453.878906 376.851562 453.929688 C 376.941406 453.988281 377.039062 454.050781 377.128906 454.121094 C 377.210938 454.171875 377.300781 454.230469 377.378906 454.289062 C 377.449219 454.328125 377.53125 454.378906 377.601562 454.441406 C 377.878906 454.628906 378.160156 454.828125 378.429688 455.039062 C 378.820312 455.320312 379.191406 455.621094 379.558594 455.929688 C 379.878906 456.191406 380.191406 456.449219 380.488281 456.730469 C 381.289062 457.441406 382.039062 458.191406 382.75 458.980469 C 383 459.25 383.238281 459.53125 383.480469 459.808594 C 383.480469 459.820312 383.488281 459.820312 383.488281 459.828125 C 383.648438 460.019531 383.808594 460.210938 383.960938 460.410156 C 384.101562 460.578125 384.230469 460.75 384.359375 460.921875 C 384.378906 460.929688 384.390625 460.949219 384.398438 460.96875 C 384.628906 461.28125 384.859375 461.589844 385.078125 461.910156 C 385.109375 461.949219 385.140625 461.988281 385.160156 462.03125 C 385.179688 462.039062 385.179688 462.050781 385.179688 462.058594 C 385.21875 462.101562 385.25 462.148438 385.269531 462.191406 C 385.300781 462.21875 385.320312 462.25 385.339844 462.28125 C 385.398438 462.359375 385.449219 462.429688 385.488281 462.511719 C 385.601562 462.671875 385.699219 462.828125 385.800781 462.988281 C 385.839844 463.039062 385.871094 463.089844 385.898438 463.148438 C 385.929688 463.179688 385.949219 463.21875 385.96875 463.261719 C 386.039062 463.371094 386.109375 463.488281 386.179688 463.609375 C 386.339844 463.859375 386.488281 464.121094 386.621094 464.378906 C 386.75 464.601562 386.878906 464.828125 387 465.058594 C 387.089844 465.21875 387.171875 465.371094 387.238281 465.53125 C 387.410156 465.859375 387.570312 466.191406 387.730469 466.539062 C 387.828125 466.738281 387.921875 466.929688 388 467.128906 C 388.078125 467.328125 388.171875 467.539062 388.25 467.738281 C 388.28125 467.789062 388.300781 467.839844 388.308594 467.890625 C 388.378906 468.039062 388.441406 468.191406 388.488281 468.351562 C 388.570312 468.550781 388.640625 468.761719 388.71875 468.96875 C 388.871094 469.378906 389.011719 469.800781 389.140625 470.21875 C 389.261719 470.609375 389.378906 471.011719 389.480469 471.410156 C 389.539062 471.640625 389.601562 471.871094 389.648438 472.101562 C 389.710938 472.328125 389.769531 472.558594 389.808594 472.800781 C 389.859375 473.019531 389.910156 473.238281 389.941406 473.460938 C 389.988281 473.679688 390.03125 473.898438 390.058594 474.121094 Z M 390.058594 474.121094 " style=" stroke:none;fill-rule:nonzero;fill:rgb(81.568627%,96.470588%,100%);fill-opacity:1;" />
<path d="M 390.058594 474.121094 L 390.058594 474.128906 C 387.308594 475.820312 384.53125 477.46875 381.710938 479.050781 C 344.578125 500.03125 301.691406 512 256 512 L 256 449.078125 L 360.5 449.078125 C 360.808594 449.078125 361.121094 449.078125 361.429688 449.101562 C 361.601562 449.101562 361.769531 449.109375 361.929688 449.121094 C 362.378906 449.128906 362.820312 449.171875 363.261719 449.210938 C 363.398438 449.21875 363.550781 449.230469 363.691406 449.25 C 363.761719 449.261719 363.828125 449.261719 363.910156 449.28125 C 363.910156 449.28125 363.921875 449.269531 363.929688 449.28125 L 363.96875 449.28125 C 364.050781 449.289062 364.128906 449.300781 364.21875 449.320312 C 364.261719 449.308594 364.300781 449.320312 364.339844 449.328125 C 364.480469 449.339844 364.621094 449.359375 364.769531 449.390625 C 364.929688 449.398438 365.089844 449.429688 365.261719 449.460938 C 365.628906 449.519531 366 449.578125 366.371094 449.660156 C 366.769531 449.730469 367.160156 449.820312 367.550781 449.921875 C 367.628906 449.941406 367.71875 449.960938 367.808594 449.980469 C 367.929688 450.011719 368.050781 450.039062 368.160156 450.070312 C 368.429688 450.140625 368.691406 450.210938 368.960938 450.300781 C 369.011719 450.308594 369.058594 450.320312 369.121094 450.339844 C 369.140625 450.351562 369.160156 450.359375 369.191406 450.371094 C 369.210938 450.371094 369.230469 450.371094 369.25 450.378906 C 369.28125 450.390625 369.320312 450.398438 369.351562 450.410156 C 369.488281 450.449219 369.628906 450.5 369.769531 450.550781 C 369.921875 450.589844 370.070312 450.640625 370.21875 450.699219 C 370.28125 450.710938 370.339844 450.730469 370.398438 450.761719 C 370.628906 450.828125 370.851562 450.910156 371.058594 451 C 371.128906 451.019531 371.191406 451.050781 371.261719 451.078125 C 371.441406 451.148438 371.621094 451.21875 371.789062 451.289062 C 371.960938 451.351562 372.121094 451.421875 372.28125 451.488281 C 372.328125 451.511719 372.390625 451.53125 372.441406 451.558594 C 372.589844 451.621094 372.738281 451.691406 372.890625 451.769531 C 373.140625 451.871094 373.378906 451.980469 373.628906 452.109375 C 373.808594 452.191406 373.980469 452.28125 374.160156 452.378906 C 374.421875 452.5 374.679688 452.640625 374.941406 452.789062 C 375.019531 452.828125 375.101562 452.871094 375.179688 452.921875 C 375.261719 452.960938 375.351562 453.011719 375.429688 453.070312 C 375.578125 453.148438 375.730469 453.230469 375.878906 453.328125 C 376.03125 453.421875 376.179688 453.511719 376.320312 453.601562 C 376.421875 453.648438 376.519531 453.710938 376.609375 453.78125 C 376.691406 453.828125 376.769531 453.878906 376.851562 453.929688 C 376.941406 453.988281 377.039062 454.050781 377.128906 454.121094 C 377.210938 454.171875 377.300781 454.230469 377.378906 454.289062 C 377.449219 454.328125 377.53125 454.378906 377.601562 454.441406 C 377.878906 454.628906 378.160156 454.828125 378.429688 455.039062 C 378.820312 455.320312 379.191406 455.621094 379.558594 455.929688 C 379.878906 456.191406 380.191406 456.449219 380.488281 456.730469 C 381.289062 457.441406 382.039062 458.191406 382.75 458.980469 C 383 459.25 383.238281 459.53125 383.480469 459.808594 C 383.480469 459.820312 383.488281 459.820312 383.488281 459.828125 C 383.648438 460.019531 383.808594 460.210938 383.960938 460.410156 C 384.101562 460.578125 384.230469 460.75 384.359375 460.921875 C 384.378906 460.929688 384.390625 460.949219 384.398438 460.96875 C 384.628906 461.28125 384.859375 461.589844 385.078125 461.910156 C 385.109375 461.949219 385.140625 461.988281 385.160156 462.03125 C 385.179688 462.039062 385.179688 462.050781 385.179688 462.058594 C 385.238281 462.128906 385.300781 462.210938 385.339844 462.28125 C 385.398438 462.359375 385.449219 462.429688 385.488281 462.511719 C 385.601562 462.671875 385.699219 462.828125 385.800781 462.988281 C 385.839844 463.039062 385.871094 463.089844 385.898438 463.148438 C 385.929688 463.179688 385.949219 463.21875 385.96875 463.261719 C 386.039062 463.371094 386.109375 463.488281 386.179688 463.609375 C 386.339844 463.859375 386.488281 464.121094 386.621094 464.378906 C 386.75 464.601562 386.878906 464.828125 387 465.058594 C 387.089844 465.21875 387.171875 465.371094 387.238281 465.53125 C 387.410156 465.859375 387.570312 466.191406 387.730469 466.539062 C 387.828125 466.738281 387.921875 466.929688 388 467.128906 C 388.078125 467.328125 388.171875 467.539062 388.25 467.738281 C 388.28125 467.789062 388.300781 467.839844 388.308594 467.890625 C 388.378906 468.039062 388.441406 468.191406 388.488281 468.351562 C 388.570312 468.550781 388.640625 468.761719 388.71875 468.96875 C 388.871094 469.378906 389.011719 469.800781 389.140625 470.21875 C 389.261719 470.609375 389.378906 471.011719 389.480469 471.410156 C 389.5 471.460938 389.519531 471.511719 389.53125 471.558594 C 389.570312 471.738281 389.621094 471.921875 389.648438 472.101562 C 389.710938 472.328125 389.769531 472.558594 389.808594 472.800781 C 389.859375 473.019531 389.910156 473.238281 389.941406 473.460938 C 389.988281 473.679688 390.03125 473.898438 390.058594 474.121094 Z M 390.058594 474.121094 " style=" stroke:none;fill-rule:nonzero;fill:rgb(56.078431%,78.823529%,96.862745%);fill-opacity:1;" />
<path d="M 349.003906 464.066406 L 235.152344 464.066406 C 235.152344 445.972656 249.820312 431.304688 267.917969 431.304688 L 316.238281 431.304688 C 325.289062 431.304688 333.476562 434.972656 339.40625 440.898438 C 345.335938 446.828125 349.003906 455.019531 349.003906 464.066406 Z M 349.003906 464.066406 " style=" stroke:none;fill-rule:nonzero;fill:rgb(39.607843%,69.803922%,100%);fill-opacity:1;" />
<path d="M 349.003906 464.066406 L 262.1875 464.066406 C 262.1875 445.972656 276.855469 431.304688 294.953125 431.304688 L 316.234375 431.304688 C 325.285156 431.304688 333.476562 434.972656 339.40625 440.898438 C 345.335938 446.828125 349.003906 455.019531 349.003906 464.066406 Z M 349.003906 464.066406 " style=" stroke:none;fill-rule:nonzero;fill:rgb(5.882353%,60.784314%,90.980392%);fill-opacity:1;" />
<path d="M 349.003906 464.066406 L 292.078125 464.066406 L 292.078125 431.304688 L 316.238281 431.304688 C 325.289062 431.304688 333.476562 434.972656 339.40625 440.898438 C 345.335938 446.828125 349.003906 455.019531 349.003906 464.066406 Z M 349.003906 464.066406 " style=" stroke:none;fill-rule:nonzero;fill:rgb(0%,40%,90.980392%);fill-opacity:1;" />
<path d="M 282.492188 415.851562 L 282.492188 439.496094 C 282.492188 444.789062 286.785156 449.078125 292.078125 449.078125 C 297.371094 449.078125 301.660156 444.789062 301.660156 439.496094 L 301.660156 411.773438 Z M 282.492188 415.851562 " style=" stroke:none;fill-rule:nonzero;fill:rgb(19.607843%,23.137255%,35.294118%);fill-opacity:1;" />
<path d="M 356.957031 374.304688 L 194.949219 413.8125 L 191.859375 400.863281 L 191.859375 400.855469 L 188.765625 387.898438 L 350.769531 348.390625 Z M 356.957031 374.304688 " style=" stroke:none;fill-rule:nonzero;fill:rgb(27.843137%,30.980392%,43.529412%);fill-opacity:1;" />
<path d="M 356.957031 374.304688 L 194.949219 413.8125 L 191.859375 400.863281 L 191.859375 400.855469 L 353.863281 361.347656 Z M 356.957031 374.304688 " style=" stroke:none;fill-rule:nonzero;fill:rgb(19.607843%,23.137255%,35.294118%);fill-opacity:1;" />
<path d="M 326.367188 412.660156 L 261.996094 428.144531 L 259.894531 419.335938 L 259.894531 419.328125 L 257.789062 410.515625 L 322.15625 395.035156 Z M 326.367188 412.660156 " style=" stroke:none;fill-rule:nonzero;fill:rgb(27.843137%,30.980392%,43.529412%);fill-opacity:1;" />
<path d="M 326.367188 412.660156 L 261.996094 428.144531 L 259.894531 419.335938 L 259.894531 419.328125 L 324.261719 403.847656 Z M 326.367188 412.660156 " style=" stroke:none;fill-rule:nonzero;fill:rgb(19.607843%,23.137255%,35.294118%);fill-opacity:1;" />
<path d="M 262.1875 202.390625 L 262.1875 240.828125 L 212.324219 240.828125 C 183.453125 240.828125 159.96875 264.316406 159.96875 293.1875 L 159.96875 431.304688 L 121.527344 431.304688 L 121.527344 293.1875 C 121.527344 268.933594 130.96875 246.132812 148.121094 228.980469 C 165.269531 211.832031 188.070312 202.390625 212.324219 202.390625 Z M 262.1875 202.390625 " style=" stroke:none;fill-rule:nonzero;fill:rgb(27.843137%,30.980392%,43.529412%);fill-opacity:1;" />
<path d="M 262.1875 221.609375 L 262.1875 240.832031 L 212.324219 240.832031 C 183.453125 240.832031 159.96875 264.316406 159.96875 293.1875 L 159.96875 431.304688 L 140.746094 431.304688 L 140.746094 293.1875 C 140.746094 253.65625 172.792969 221.609375 212.324219 221.609375 Z M 262.1875 221.609375 " style=" stroke:none;fill-rule:nonzero;fill:rgb(19.607843%,23.137255%,35.294118%);fill-opacity:1;" />
<path d="M 205.605469 116.550781 L 264.203125 102.550781 L 273.417969 141.125 L 214.820312 155.128906 Z M 205.605469 116.550781 " style=" stroke:none;fill-rule:nonzero;fill:rgb(45.490196%,49.411765%,61.960784%);fill-opacity:1;" />
<path d="M 219.945312 113.125 L 264.203125 102.550781 L 273.417969 141.125 L 229.164062 151.699219 Z M 219.945312 113.125 " style=" stroke:none;fill-rule:nonzero;fill:rgb(27.843137%,30.980392%,43.529412%);fill-opacity:1;" />
<path d="M 234.902344 109.550781 L 264.203125 102.550781 L 273.417969 141.125 L 244.121094 148.125 Z M 234.902344 109.550781 " style=" stroke:none;fill-rule:nonzero;fill:rgb(19.607843%,23.137255%,35.294118%);fill-opacity:1;" />
<path d="M 254.175781 319.832031 L 312.773438 305.832031 L 321.992188 344.40625 L 263.394531 358.410156 Z M 254.175781 319.832031 " style=" stroke:none;fill-rule:nonzero;fill:rgb(45.490196%,49.411765%,61.960784%);fill-opacity:1;" />
<path d="M 268.519531 316.40625 L 312.773438 305.832031 L 321.992188 344.40625 L 277.738281 354.980469 Z M 268.519531 316.40625 " style=" stroke:none;fill-rule:nonzero;fill:rgb(27.843137%,30.980392%,43.529412%);fill-opacity:1;" />
<path d="M 283.472656 312.832031 L 312.773438 305.828125 L 321.992188 344.40625 L 292.691406 351.40625 Z M 283.472656 312.832031 " style=" stroke:none;fill-rule:nonzero;fill:rgb(19.607843%,23.137255%,35.294118%);fill-opacity:1;" />
<path d="M 205.617188 149.589844 L 279.121094 132.023438 L 322.226562 312.421875 L 248.722656 329.984375 Z M 205.617188 149.589844 " style=" stroke:none;fill-rule:nonzero;fill:rgb(100%,100%,100%);fill-opacity:1;" />
<path d="M 224.054688 145.183594 L 279.121094 132.023438 L 322.226562 312.421875 L 267.160156 325.582031 Z M 224.054688 145.183594 " style=" stroke:none;fill-rule:nonzero;fill:rgb(81.568627%,96.470588%,100%);fill-opacity:1;" />
<path d="M 242.371094 140.804688 L 279.121094 132.023438 L 322.230469 312.421875 L 285.476562 321.203125 Z M 242.371094 140.804688 " style=" stroke:none;fill-rule:nonzero;fill:rgb(56.078431%,78.823529%,96.862745%);fill-opacity:1;" />
<path d="M 241.253906 298.730469 L 314.757812 281.167969 L 322.226562 312.421875 L 248.722656 329.984375 Z M 241.253906 298.730469 " style=" stroke:none;fill-rule:nonzero;fill:rgb(39.607843%,69.803922%,100%);fill-opacity:1;" />
<path d="M 259.6875 294.324219 L 314.757812 281.164062 L 322.226562 312.421875 L 267.15625 325.578125 Z M 259.6875 294.324219 " style=" stroke:none;fill-rule:nonzero;fill:rgb(5.882353%,60.784314%,90.980392%);fill-opacity:1;" />
<path d="M 278.003906 289.949219 L 314.757812 281.164062 L 322.226562 312.421875 L 285.472656 321.203125 Z M 278.003906 289.949219 " style=" stroke:none;fill-rule:nonzero;fill:rgb(0%,40%,90.980392%);fill-opacity:1;" />
<path d="M 253.765625 221.609375 C 253.765625 235.957031 242.136719 247.585938 227.789062 247.585938 C 213.445312 247.585938 201.816406 235.957031 201.816406 221.609375 C 201.816406 207.265625 213.445312 195.636719 227.789062 195.636719 C 242.136719 195.636719 253.765625 207.265625 253.765625 221.609375 Z M 253.765625 221.609375 " style=" stroke:none;fill-rule:nonzero;fill:rgb(45.490196%,49.411765%,61.960784%);fill-opacity:1;" />
<path d="M 253.765625 221.609375 C 253.765625 235.953125 242.136719 247.585938 227.789062 247.585938 L 227.789062 195.632812 C 242.132812 195.632812 253.765625 207.265625 253.765625 221.609375 Z M 253.765625 221.609375 " style=" stroke:none;fill-rule:nonzero;fill:rgb(27.843137%,30.980392%,43.529412%);fill-opacity:1;" />
<path d="M 241.578125 221.609375 C 241.578125 229.226562 235.40625 235.398438 227.789062 235.398438 C 220.175781 235.398438 214 229.226562 214 221.609375 C 214 213.996094 220.175781 207.820312 227.789062 207.820312 C 235.40625 207.820312 241.578125 213.996094 241.578125 221.609375 Z M 241.578125 221.609375 " style=" stroke:none;fill-rule:nonzero;fill:rgb(27.843137%,30.980392%,43.529412%);fill-opacity:1;" />
<path d="M 241.578125 221.609375 C 241.578125 229.226562 235.40625 235.398438 227.789062 235.398438 L 227.789062 207.820312 C 235.40625 207.820312 241.578125 213.992188 241.578125 221.609375 Z M 241.578125 221.609375 " style=" stroke:none;fill-rule:nonzero;fill:rgb(19.607843%,23.137255%,35.294118%);fill-opacity:1;" />
<path d="M 296.847656 440.550781 C 296.847656 443.183594 294.710938 445.316406 292.078125 445.316406 C 289.445312 445.316406 287.308594 443.183594 287.308594 440.550781 C 287.308594 437.917969 289.445312 435.78125 292.078125 435.78125 C 294.710938 435.78125 296.847656 437.917969 296.847656 440.550781 Z M 296.847656 440.550781 " style=" stroke:none;fill-rule:nonzero;fill:rgb(45.490196%,49.411765%,61.960784%);fill-opacity:1;" />
<path d="M 296.84375 440.550781 C 296.84375 443.183594 294.710938 445.316406 292.078125 445.316406 L 292.078125 435.78125 C 294.710938 435.78125 296.84375 437.917969 296.84375 440.550781 Z M 296.84375 440.550781 " style=" stroke:none;fill-rule:nonzero;fill:rgb(27.843137%,30.980392%,43.529412%);fill-opacity:1;" />
<path d="M 294.609375 440.550781 C 294.609375 441.949219 293.476562 443.082031 292.078125 443.082031 C 290.679688 443.082031 289.546875 441.949219 289.546875 440.550781 C 289.546875 439.152344 290.679688 438.019531 292.078125 438.019531 C 293.476562 438.019531 294.609375 439.152344 294.609375 440.550781 Z M 294.609375 440.550781 " style=" stroke:none;fill-rule:nonzero;fill:rgb(27.843137%,30.980392%,43.529412%);fill-opacity:1;" />
<path d="M 294.609375 440.550781 C 294.609375 441.949219 293.476562 443.082031 292.078125 443.082031 L 292.078125 438.019531 C 293.476562 438.019531 294.609375 439.152344 294.609375 440.550781 Z M 294.609375 440.550781 " style=" stroke:none;fill-rule:nonzero;fill:rgb(19.607843%,23.137255%,35.294118%);fill-opacity:1;" />
<path d="M 157.972656 359.257812 L 121.527344 359.257812 L 121.527344 449.078125 L 227.144531 449.078125 L 227.144531 428.429688 C 227.144531 390.226562 196.175781 359.257812 157.972656 359.257812 Z M 157.972656 359.257812 " style=" stroke:none;fill-rule:nonzero;fill:rgb(100%,100%,100%);fill-opacity:1;" />
<path d="M 147.9375 383.992188 L 121.527344 383.992188 L 121.527344 449.078125 L 198.058594 449.078125 L 198.058594 434.113281 C 198.058594 406.433594 175.617188 383.992188 147.9375 383.992188 Z M 147.9375 383.992188 " style=" stroke:none;fill-rule:nonzero;fill:rgb(81.568627%,96.470588%,100%);fill-opacity:1;" />
<path d="M 185.769531 411.589844 C 185.769531 425.933594 174.140625 437.5625 159.792969 437.5625 C 145.449219 437.5625 133.820312 425.933594 133.820312 411.589844 C 133.820312 397.242188 145.449219 385.613281 159.792969 385.613281 C 174.140625 385.613281 185.769531 397.242188 185.769531 411.589844 Z M 185.769531 411.589844 " style=" stroke:none;fill-rule:nonzero;fill:rgb(45.490196%,49.411765%,61.960784%);fill-opacity:1;" />
<path d="M 185.769531 411.589844 C 185.769531 425.933594 174.136719 437.566406 159.792969 437.566406 L 159.792969 385.613281 C 174.136719 385.613281 185.769531 397.242188 185.769531 411.589844 Z M 185.769531 411.589844 " style=" stroke:none;fill-rule:nonzero;fill:rgb(27.843137%,30.980392%,43.529412%);fill-opacity:1;" />
<path d="M 173.582031 411.589844 C 173.582031 419.203125 167.410156 425.378906 159.792969 425.378906 C 152.175781 425.378906 146.003906 419.203125 146.003906 411.589844 C 146.003906 403.972656 152.175781 397.800781 159.792969 397.800781 C 167.410156 397.800781 173.582031 403.972656 173.582031 411.589844 Z M 173.582031 411.589844 " style=" stroke:none;fill-rule:nonzero;fill:rgb(27.843137%,30.980392%,43.529412%);fill-opacity:1;" />
<path d="M 173.582031 411.589844 C 173.582031 419.203125 167.410156 425.378906 159.792969 425.378906 L 159.792969 397.800781 C 167.410156 397.800781 173.582031 403.972656 173.582031 411.589844 Z M 173.582031 411.589844 " style=" stroke:none;fill-rule:nonzero;fill:rgb(19.607843%,23.137255%,35.294118%);fill-opacity:1;" />
<path d="M 390.058594 474.121094 L 390.058594 474.128906 C 387.308594 475.820312 384.53125 477.46875 381.710938 479.050781 L 130.289062 479.050781 C 127.328125 477.390625 124.410156 475.660156 121.53125 473.871094 L 121.53125 449.078125 L 360.5 449.078125 C 360.808594 449.078125 361.121094 449.078125 361.429688 449.101562 C 361.601562 449.101562 361.769531 449.109375 361.929688 449.121094 C 362.378906 449.128906 362.820312 449.171875 363.261719 449.210938 C 363.398438 449.21875 363.550781 449.230469 363.691406 449.25 C 363.761719 449.261719 363.828125 449.261719 363.910156 449.28125 C 363.910156 449.28125 363.921875 449.269531 363.929688 449.28125 L 363.96875 449.28125 C 364.019531 449.289062 364.070312 449.300781 364.121094 449.308594 C 364.148438 449.308594 364.191406 449.308594 364.21875 449.320312 C 364.261719 449.308594 364.300781 449.320312 364.339844 449.328125 C 364.480469 449.339844 364.621094 449.359375 364.769531 449.390625 C 364.929688 449.398438 365.089844 449.429688 365.261719 449.460938 C 365.628906 449.519531 366 449.578125 366.371094 449.660156 C 366.769531 449.730469 367.160156 449.820312 367.550781 449.921875 C 367.628906 449.941406 367.71875 449.960938 367.808594 449.980469 C 367.929688 450.011719 368.050781 450.039062 368.160156 450.070312 C 368.429688 450.140625 368.691406 450.210938 368.960938 450.300781 C 369.011719 450.308594 369.058594 450.320312 369.121094 450.339844 C 369.140625 450.351562 369.160156 450.359375 369.191406 450.371094 C 369.210938 450.371094 369.230469 450.371094 369.25 450.378906 C 369.28125 450.390625 369.320312 450.398438 369.351562 450.410156 C 369.488281 450.449219 369.628906 450.5 369.769531 450.550781 C 369.921875 450.589844 370.070312 450.640625 370.21875 450.699219 C 370.28125 450.710938 370.339844 450.730469 370.398438 450.761719 C 370.628906 450.828125 370.851562 450.910156 371.058594 451 C 371.128906 451.019531 371.191406 451.050781 371.261719 451.078125 C 371.441406 451.148438 371.621094 451.21875 371.789062 451.289062 C 371.960938 451.351562 372.121094 451.421875 372.28125 451.488281 C 372.328125 451.511719 372.390625 451.53125 372.441406 451.558594 C 372.589844 451.621094 372.738281 451.691406 372.890625 451.769531 C 373.140625 451.871094 373.378906 451.980469 373.628906 452.109375 C 373.808594 452.191406 373.980469 452.28125 374.160156 452.378906 C 374.421875 452.5 374.679688 452.640625 374.941406 452.789062 C 375.019531 452.828125 375.101562 452.871094 375.179688 452.921875 C 375.261719 452.960938 375.351562 453.011719 375.429688 453.070312 C 375.578125 453.148438 375.730469 453.230469 375.878906 453.328125 C 376.03125 453.421875 376.179688 453.511719 376.320312 453.601562 C 376.421875 453.648438 376.519531 453.710938 376.609375 453.78125 C 376.691406 453.828125 376.769531 453.878906 376.851562 453.929688 C 376.941406 453.988281 377.039062 454.050781 377.128906 454.121094 C 377.210938 454.171875 377.300781 454.230469 377.378906 454.289062 C 377.449219 454.328125 377.53125 454.378906 377.601562 454.441406 C 377.878906 454.628906 378.160156 454.828125 378.429688 455.039062 C 378.820312 455.320312 379.191406 455.621094 379.558594 455.929688 C 379.878906 456.191406 380.191406 456.449219 380.488281 456.730469 C 381.289062 457.441406 382.039062 458.191406 382.75 458.980469 C 383 459.25 383.238281 459.53125 383.480469 459.808594 C 383.480469 459.820312 383.488281 459.820312 383.488281 459.828125 C 383.648438 460.019531 383.808594 460.210938 383.960938 460.410156 C 384.101562 460.578125 384.230469 460.75 384.359375 460.921875 C 384.378906 460.929688 384.390625 460.949219 384.398438 460.96875 C 384.628906 461.28125 384.859375 461.589844 385.078125 461.910156 C 385.109375 461.949219 385.140625 461.988281 385.160156 462.03125 C 385.179688 462.039062 385.179688 462.050781 385.179688 462.058594 C 385.21875 462.101562 385.25 462.148438 385.269531 462.191406 C 385.300781 462.21875 385.320312 462.25 385.339844 462.28125 C 385.398438 462.359375 385.449219 462.429688 385.488281 462.511719 C 385.601562 462.671875 385.699219 462.828125 385.800781 462.988281 C 385.839844 463.039062 385.871094 463.089844 385.898438 463.148438 C 385.929688 463.179688 385.949219 463.21875 385.96875 463.261719 C 386.039062 463.371094 386.109375 463.488281 386.179688 463.609375 C 386.339844 463.859375 386.488281 464.121094 386.621094 464.378906 C 386.75 464.601562 386.878906 464.828125 387 465.058594 C 387.089844 465.21875 387.171875 465.371094 387.238281 465.53125 C 387.410156 465.859375 387.570312 466.191406 387.730469 466.539062 C 387.828125 466.738281 387.921875 466.929688 388 467.128906 C 388.078125 467.328125 388.171875 467.539062 388.25 467.738281 C 388.28125 467.789062 388.300781 467.839844 388.308594 467.890625 C 388.378906 468.039062 388.441406 468.191406 388.488281 468.351562 C 388.570312 468.550781 388.640625 468.761719 388.71875 468.96875 C 388.871094 469.378906 389.011719 469.800781 389.140625 470.21875 C 389.261719 470.609375 389.378906 471.011719 389.480469 471.410156 C 389.539062 471.640625 389.601562 471.871094 389.648438 472.101562 C 389.710938 472.328125 389.769531 472.558594 389.808594 472.800781 C 389.859375 473.019531 389.910156 473.238281 389.941406 473.460938 C 389.988281 473.679688 390.03125 473.898438 390.058594 474.121094 Z M 390.058594 474.121094 " style=" stroke:none;fill-rule:nonzero;fill:rgb(45.490196%,49.411765%,61.960784%);fill-opacity:1;" />
<path d="M 390.058594 474.121094 L 390.058594 474.128906 C 387.308594 475.820312 384.53125 477.46875 381.710938 479.050781 L 188.761719 479.050781 L 188.761719 449.078125 L 360.5 449.078125 C 360.808594 449.078125 361.121094 449.078125 361.429688 449.101562 C 361.601562 449.101562 361.769531 449.109375 361.929688 449.121094 C 362.378906 449.128906 362.820312 449.171875 363.261719 449.210938 C 363.398438 449.21875 363.550781 449.230469 363.691406 449.25 C 363.761719 449.261719 363.828125 449.261719 363.910156 449.28125 C 363.910156 449.28125 363.921875 449.269531 363.929688 449.28125 L 363.96875 449.28125 C 364.050781 449.289062 364.128906 449.300781 364.21875 449.320312 C 364.261719 449.308594 364.300781 449.320312 364.339844 449.328125 C 364.480469 449.339844 364.621094 449.359375 364.769531 449.390625 C 364.929688 449.398438 365.089844 449.429688 365.261719 449.460938 C 365.628906 449.519531 366 449.578125 366.371094 449.660156 C 366.769531 449.730469 367.160156 449.820312 367.550781 449.921875 C 367.628906 449.941406 367.71875 449.960938 367.808594 449.980469 C 367.929688 450.011719 368.050781 450.039062 368.160156 450.070312 C 368.429688 450.140625 368.691406 450.210938 368.960938 450.300781 C 369.011719 450.308594 369.058594 450.320312 369.121094 450.339844 C 369.140625 450.351562 369.160156 450.359375 369.191406 450.371094 C 369.210938 450.371094 369.230469 450.371094 369.25 450.378906 C 369.28125 450.390625 369.320312 450.398438 369.351562 450.410156 C 369.488281 450.449219 369.628906 450.5 369.769531 450.550781 C 369.921875 450.589844 370.070312 450.640625 370.21875 450.699219 C 370.28125 450.710938 370.339844 450.730469 370.398438 450.761719 C 370.628906 450.828125 370.851562 450.910156 371.058594 451 C 371.128906 451.019531 371.191406 451.050781 371.261719 451.078125 C 371.441406 451.148438 371.621094 451.21875 371.789062 451.289062 C 371.960938 451.351562 372.121094 451.421875 372.28125 451.488281 C 372.328125 451.511719 372.390625 451.53125 372.441406 451.558594 C 372.589844 451.621094 372.738281 451.691406 372.890625 451.769531 C 373.140625 451.871094 373.378906 451.980469 373.628906 452.109375 C 373.808594 452.191406 373.980469 452.28125 374.160156 452.378906 C 374.421875 452.5 374.679688 452.640625 374.941406 452.789062 C 375.019531 452.828125 375.101562 452.871094 375.179688 452.921875 C 375.261719 452.960938 375.351562 453.011719 375.429688 453.070312 C 375.578125 453.148438 375.730469 453.230469 375.878906 453.328125 C 376.03125 453.421875 376.179688 453.511719 376.320312 453.601562 C 376.421875 453.648438 376.519531 453.710938 376.609375 453.78125 C 376.691406 453.828125 376.769531 453.878906 376.851562 453.929688 C 376.941406 453.988281 377.039062 454.050781 377.128906 454.121094 C 377.210938 454.171875 377.300781 454.230469 377.378906 454.289062 C 377.449219 454.328125 377.53125 454.378906 377.601562 454.441406 C 377.878906 454.628906 378.160156 454.828125 378.429688 455.039062 C 378.820312 455.320312 379.191406 455.621094 379.558594 455.929688 C 379.878906 456.191406 380.191406 456.449219 380.488281 456.730469 C 381.289062 457.441406 382.039062 458.191406 382.75 458.980469 C 383 459.25 383.238281 459.53125 383.480469 459.808594 C 383.480469 459.820312 383.488281 459.820312 383.488281 459.828125 C 383.648438 460.019531 383.808594 460.210938 383.960938 460.410156 C 384.101562 460.578125 384.230469 460.75 384.359375 460.921875 C 384.378906 460.929688 384.390625 460.949219 384.398438 460.96875 C 384.628906 461.28125 384.859375 461.589844 385.078125 461.910156 C 385.109375 461.949219 385.140625 461.988281 385.160156 462.03125 C 385.179688 462.039062 385.179688 462.050781 385.179688 462.058594 C 385.238281 462.128906 385.300781 462.210938 385.339844 462.28125 C 385.398438 462.359375 385.449219 462.429688 385.488281 462.511719 C 385.601562 462.671875 385.699219 462.828125 385.800781 462.988281 C 385.839844 463.039062 385.871094 463.089844 385.898438 463.148438 C 385.929688 463.179688 385.949219 463.21875 385.96875 463.261719 C 386.039062 463.371094 386.109375 463.488281 386.179688 463.609375 C 386.339844 463.859375 386.488281 464.121094 386.621094 464.378906 C 386.75 464.601562 386.878906 464.828125 387 465.058594 C 387.089844 465.21875 387.171875 465.371094 387.238281 465.53125 C 387.410156 465.859375 387.570312 466.191406 387.730469 466.539062 C 387.828125 466.738281 387.921875 466.929688 388 467.128906 C 388.078125 467.328125 388.171875 467.539062 388.25 467.738281 C 388.28125 467.789062 388.300781 467.839844 388.308594 467.890625 C 388.378906 468.039062 388.441406 468.191406 388.488281 468.351562 C 388.570312 468.550781 388.640625 468.761719 388.71875 468.96875 C 388.871094 469.378906 389.011719 469.800781 389.140625 470.21875 C 389.261719 470.609375 389.378906 471.011719 389.480469 471.410156 C 389.5 471.460938 389.519531 471.511719 389.53125 471.558594 C 389.570312 471.738281 389.621094 471.921875 389.648438 472.101562 C 389.710938 472.328125 389.769531 472.558594 389.808594 472.800781 C 389.859375 473.019531 389.910156 473.238281 389.941406 473.460938 C 389.988281 473.679688 390.03125 473.898438 390.058594 474.121094 Z M 390.058594 474.121094 " style=" stroke:none;fill-rule:nonzero;fill:rgb(27.843137%,30.980392%,43.529412%);fill-opacity:1;" />
<path d="M 390.058594 474.121094 L 390.058594 474.128906 C 387.308594 475.820312 384.53125 477.46875 381.710938 479.050781 L 256 479.050781 L 256 449.078125 L 360.5 449.078125 C 360.808594 449.078125 361.121094 449.078125 361.429688 449.101562 C 361.601562 449.101562 361.769531 449.109375 361.929688 449.121094 C 362.378906 449.128906 362.820312 449.171875 363.261719 449.210938 C 363.398438 449.21875 363.550781 449.230469 363.691406 449.25 C 363.761719 449.261719 363.828125 449.261719 363.910156 449.28125 C 363.910156 449.28125 363.921875 449.269531 363.929688 449.28125 L 363.96875 449.28125 C 364.050781 449.289062 364.128906 449.300781 364.21875 449.320312 C 364.261719 449.308594 364.300781 449.320312 364.339844 449.328125 C 364.480469 449.339844 364.621094 449.359375 364.769531 449.390625 C 364.929688 449.398438 365.089844 449.429688 365.261719 449.460938 C 365.628906 449.519531 366 449.578125 366.371094 449.660156 C 366.769531 449.730469 367.160156 449.820312 367.550781 449.921875 C 367.628906 449.941406 367.71875 449.960938 367.808594 449.980469 C 367.929688 450.011719 368.050781 450.039062 368.160156 450.070312 C 368.429688 450.140625 368.691406 450.210938 368.960938 450.300781 C 369.011719 450.308594 369.058594 450.320312 369.121094 450.339844 C 369.140625 450.351562 369.160156 450.359375 369.191406 450.371094 C 369.210938 450.371094 369.230469 450.371094 369.25 450.378906 C 369.28125 450.390625 369.320312 450.398438 369.351562 450.410156 C 369.488281 450.449219 369.628906 450.5 369.769531 450.550781 C 369.921875 450.589844 370.070312 450.640625 370.21875 450.699219 C 370.28125 450.710938 370.339844 450.730469 370.398438 450.761719 C 370.628906 450.828125 370.851562 450.910156 371.058594 451 C 371.128906 451.019531 371.191406 451.050781 371.261719 451.078125 C 371.441406 451.148438 371.621094 451.21875 371.789062 451.289062 C 371.960938 451.351562 372.121094 451.421875 372.28125 451.488281 C 372.328125 451.511719 372.390625 451.53125 372.441406 451.558594 C 372.589844 451.621094 372.738281 451.691406 372.890625 451.769531 C 373.140625 451.871094 373.378906 451.980469 373.628906 452.109375 C 373.808594 452.191406 373.980469 452.28125 374.160156 452.378906 C 374.421875 452.5 374.679688 452.640625 374.941406 452.789062 C 375.019531 452.828125 375.101562 452.871094 375.179688 452.921875 C 375.261719 452.960938 375.351562 453.011719 375.429688 453.070312 C 375.578125 453.148438 375.730469 453.230469 375.878906 453.328125 C 376.03125 453.421875 376.179688 453.511719 376.320312 453.601562 C 376.421875 453.648438 376.519531 453.710938 376.609375 453.78125 C 376.691406 453.828125 376.769531 453.878906 376.851562 453.929688 C 376.941406 453.988281 377.039062 454.050781 377.128906 454.121094 C 377.210938 454.171875 377.300781 454.230469 377.378906 454.289062 C 377.449219 454.328125 377.53125 454.378906 377.601562 454.441406 C 377.878906 454.628906 378.160156 454.828125 378.429688 455.039062 C 378.820312 455.320312 379.191406 455.621094 379.558594 455.929688 C 379.878906 456.191406 380.191406 456.449219 380.488281 456.730469 C 381.289062 457.441406 382.039062 458.191406 382.75 458.980469 C 383 459.25 383.238281 459.53125 383.480469 459.808594 C 383.480469 459.820312 383.488281 459.820312 383.488281 459.828125 C 383.648438 460.019531 383.808594 460.210938 383.960938 460.410156 C 384.101562 460.578125 384.230469 460.75 384.359375 460.921875 C 384.378906 460.929688 384.390625 460.949219 384.398438 460.96875 C 384.628906 461.28125 384.859375 461.589844 385.078125 461.910156 C 385.109375 461.949219 385.140625 461.988281 385.160156 462.03125 C 385.179688 462.039062 385.179688 462.050781 385.179688 462.058594 C 385.238281 462.128906 385.300781 462.210938 385.339844 462.28125 C 385.398438 462.359375 385.449219 462.429688 385.488281 462.511719 C 385.601562 462.671875 385.699219 462.828125 385.800781 462.988281 C 385.839844 463.039062 385.871094 463.089844 385.898438 463.148438 C 385.929688 463.179688 385.949219 463.21875 385.96875 463.261719 C 386.039062 463.371094 386.109375 463.488281 386.179688 463.609375 C 386.339844 463.859375 386.488281 464.121094 386.621094 464.378906 C 386.75 464.601562 386.878906 464.828125 387 465.058594 C 387.089844 465.21875 387.171875 465.371094 387.238281 465.53125 C 387.410156 465.859375 387.570312 466.191406 387.730469 466.539062 C 387.828125 466.738281 387.921875 466.929688 388 467.128906 C 388.078125 467.328125 388.171875 467.539062 388.25 467.738281 C 388.28125 467.789062 388.300781 467.839844 388.308594 467.890625 C 388.378906 468.039062 388.441406 468.191406 388.488281 468.351562 C 388.570312 468.550781 388.640625 468.761719 388.71875 468.96875 C 388.871094 469.378906 389.011719 469.800781 389.140625 470.21875 C 389.261719 470.609375 389.378906 471.011719 389.480469 471.410156 C 389.5 471.460938 389.519531 471.511719 389.53125 471.558594 C 389.570312 471.738281 389.621094 471.921875 389.648438 472.101562 C 389.710938 472.328125 389.769531 472.558594 389.808594 472.800781 C 389.859375 473.019531 389.910156 473.238281 389.941406 473.460938 C 389.988281 473.679688 390.03125 473.898438 390.058594 474.121094 Z M 390.058594 474.121094 " style=" stroke:none;fill-rule:nonzero;fill:rgb(19.607843%,23.137255%,35.294118%);fill-opacity:1;" />
</g>
</svg>