<svg xmlns="http://www.w3.org/2000/svg" height="512pt" version="1.1" viewBox="0 0 512 512" width="512pt">
<g id="surface1">
<path d="M 512 256 C 512 397.386719 397.386719 512 256 512 C 114.613281 512 0 397.386719 0 256 C 0 114.613281 114.613281 0 256 0 C 397.386719 0 512 114.613281 512 256 Z M 512 256 " style=" stroke:none;fill-rule:nonzero;fill:rgb(70.980392%,88.627451%,21.568627%);fill-opacity:1;" />
<path d="M 512 256 C 512 282.050781 508.109375 307.191406 500.871094 330.871094 C 468.859375 435.71875 371.328125 512 256 512 C 151.441406 512 61.511719 449.300781 21.769531 359.449219 C 7.769531 327.820312 0 292.820312 0 256 C 0 209.78125 12.25 166.429688 33.679688 129 C 77.800781 206.070312 160.839844 258 256 258 C 351.160156 258 434.210938 206.070312 478.320312 129 C 499.75 166.429688 512 209.78125 512 256 Z M 512 256 " style=" stroke:none;fill-rule:nonzero;fill:rgb(58.431373%,83.921569%,0%);fill-opacity:1;" />
<path d="M 30.742188 377.703125 C 37.898438 390.921875 46.171875 403.441406 55.460938 415.128906 C 102.359375 474.148438 174.761719 512 256 512 C 337.238281 512 409.640625 474.148438 456.539062 415.128906 C 465.828125 403.441406 474.101562 390.921875 481.257812 377.703125 Z M 30.742188 377.703125 " style=" stroke:none;fill-rule:nonzero;fill:rgb(52.156863%,68.627451%,7.058824%);fill-opacity:1;" />
<path d="M 140.46875 273.679688 L 140.46875 484.5 C 135.089844 481.78125 129.828125 478.878906 124.679688 475.789062 C 116.828125 471.089844 109.25 465.980469 101.96875 460.488281 C 94.421875 454.800781 87.199219 448.699219 80.339844 442.21875 C 74.441406 436.660156 68.800781 430.808594 63.460938 424.710938 L 63.460938 273.679688 L 80.339844 249.789062 L 84.03125 201.160156 C 84.378906 196.488281 88.269531 192.890625 92.949219 192.890625 L 110.988281 192.890625 C 115.660156 192.890625 119.550781 196.488281 119.910156 201.160156 L 123.589844 249.789062 Z M 140.46875 273.679688 " style=" stroke:none;fill-rule:nonzero;fill:rgb(100%,20.392157%,27.058824%);fill-opacity:1;" />
<path d="M 140.46875 273.679688 L 140.46875 484.5 C 135.089844 481.78125 129.828125 478.878906 124.679688 475.789062 C 116.828125 471.089844 109.25 465.980469 101.96875 460.488281 C 94.421875 454.800781 87.199219 448.699219 80.339844 442.21875 L 80.339844 249.789062 L 84.03125 201.160156 C 84.378906 196.488281 88.269531 192.890625 92.949219 192.890625 L 110.988281 192.890625 C 115.660156 192.890625 119.550781 196.488281 119.910156 201.160156 L 123.589844 249.789062 Z M 140.46875 273.679688 " style=" stroke:none;fill-rule:nonzero;fill:rgb(37.647059%,37.647059%,37.647059%);fill-opacity:1;" />
<path d="M 140.46875 273.679688 L 140.46875 484.5 C 135.089844 481.78125 129.828125 478.878906 124.679688 475.789062 C 116.828125 471.089844 109.25 465.980469 101.96875 460.488281 C 94.421875 454.800781 87.199219 448.699219 80.339844 442.21875 L 80.339844 249.789062 L 84.03125 201.160156 C 84.378906 196.488281 88.269531 192.890625 92.949219 192.890625 L 110.988281 192.890625 C 115.660156 192.890625 119.550781 196.488281 119.910156 201.160156 L 123.589844 249.789062 Z M 140.46875 273.679688 " style=" stroke:none;fill-rule:nonzero;fill:rgb(86.666667%,7.058824%,39.607843%);fill-opacity:1;" />
<path d="M 140.46875 273.679688 L 140.46875 484.5 C 135.089844 481.78125 129.828125 478.878906 124.679688 475.789062 C 116.828125 471.089844 109.25 465.980469 101.96875 460.488281 L 101.96875 192.890625 L 110.988281 192.890625 C 115.660156 192.890625 119.550781 196.488281 119.910156 201.160156 L 123.589844 249.789062 Z M 140.46875 273.679688 " style=" stroke:none;fill-rule:nonzero;fill:rgb(72.941176%,5.098039%,36.078431%);fill-opacity:1;" />
<path d="M 140.46875 306.21875 L 140.46875 484.5 C 135.089844 481.78125 129.828125 478.878906 124.679688 475.789062 C 116.828125 471.089844 109.25 465.980469 101.96875 460.488281 C 94.421875 454.800781 87.199219 448.699219 80.339844 442.21875 C 74.441406 436.660156 68.800781 430.808594 63.460938 424.710938 L 63.460938 306.21875 Z M 140.46875 306.21875 " style=" stroke:none;fill-rule:nonzero;fill:rgb(100%,20.392157%,27.058824%);fill-opacity:1;" />
<path d="M 140.46875 306.21875 L 140.46875 484.5 C 135.089844 481.78125 129.828125 478.878906 124.679688 475.789062 C 116.828125 471.089844 109.25 465.980469 101.96875 460.488281 C 94.421875 454.800781 87.199219 448.699219 80.339844 442.21875 L 80.339844 306.21875 Z M 140.46875 306.21875 " style=" stroke:none;fill-rule:nonzero;fill:rgb(86.666667%,7.058824%,39.607843%);fill-opacity:1;" />
<path d="M 140.46875 306.21875 L 140.46875 484.5 C 135.089844 481.78125 129.828125 478.878906 124.679688 475.789062 C 116.828125 471.089844 109.25 465.980469 101.96875 460.488281 L 101.96875 306.21875 Z M 140.46875 306.21875 " style=" stroke:none;fill-rule:nonzero;fill:rgb(72.941176%,5.098039%,36.078431%);fill-opacity:1;" />
<path d="M 63.457031 306.222656 L 140.476562 306.222656 L 140.476562 325.726562 L 63.457031 325.726562 Z M 63.457031 306.222656 " style=" stroke:none;fill-rule:nonzero;fill:rgb(45.490196%,49.411765%,61.960784%);fill-opacity:1;" />
<path d="M 80.339844 306.222656 L 140.476562 306.222656 L 140.476562 325.726562 L 80.339844 325.726562 Z M 80.339844 306.222656 " style=" stroke:none;fill-rule:nonzero;fill:rgb(27.843137%,30.980392%,43.529412%);fill-opacity:1;" />
<path d="M 101.96875 306.222656 L 140.476562 306.222656 L 140.476562 325.726562 L 101.96875 325.726562 Z M 101.96875 306.222656 " style=" stroke:none;fill-rule:nonzero;fill:rgb(19.607843%,23.137255%,35.294118%);fill-opacity:1;" />
<path d="M 124.679688 380.828125 L 124.679688 475.789062 C 116.828125 471.089844 109.25 465.980469 101.96875 460.488281 C 94.421875 454.800781 87.199219 448.699219 80.339844 442.21875 L 80.339844 380.828125 C 80.339844 368.769531 89.96875 358.960938 101.96875 358.671875 C 102.148438 358.660156 102.328125 358.660156 102.511719 358.660156 C 108.640625 358.660156 114.179688 361.140625 118.191406 365.160156 C 122.199219 369.171875 124.679688 374.710938 124.679688 380.828125 Z M 124.679688 380.828125 " style=" stroke:none;fill-rule:nonzero;fill:rgb(81.568627%,96.470588%,100%);fill-opacity:1;" />
<path d="M 124.679688 380.828125 L 124.679688 475.789062 C 116.828125 471.089844 109.25 465.980469 101.96875 460.488281 L 101.96875 358.671875 C 102.148438 358.660156 102.328125 358.660156 102.511719 358.660156 C 108.640625 358.660156 114.179688 361.140625 118.191406 365.160156 C 122.199219 369.171875 124.679688 374.710938 124.679688 380.828125 Z M 124.679688 380.828125 " style=" stroke:none;fill-rule:nonzero;fill:rgb(56.078431%,78.823529%,96.862745%);fill-opacity:1;" />
<path d="M 371.53125 273.679688 L 371.53125 484.5 C 366.128906 487.238281 360.628906 489.789062 355.019531 492.140625 C 347.851562 495.148438 340.511719 497.851562 333.019531 500.210938 C 328.671875 501.578125 324.28125 502.828125 319.839844 503.96875 C 317.039062 504.691406 314.21875 505.371094 311.390625 505.988281 C 305.828125 507.21875 300.199219 508.261719 294.511719 509.121094 L 294.511719 273.679688 L 311.390625 249.789062 L 315.078125 201.160156 C 315.429688 196.488281 319.320312 192.890625 324 192.890625 L 342.039062 192.890625 C 346.710938 192.890625 350.601562 196.488281 350.960938 201.160156 L 354.640625 249.789062 Z M 371.53125 273.679688 " style=" stroke:none;fill-rule:nonzero;fill:rgb(61.960784%,41.176471%,88.627451%);fill-opacity:1;" />
<path d="M 371.53125 273.679688 L 371.53125 484.5 C 366.128906 487.238281 360.628906 489.789062 355.019531 492.140625 C 347.851562 495.148438 340.511719 497.851562 333.019531 500.210938 C 328.671875 501.578125 324.28125 502.828125 319.839844 503.96875 C 317.039062 504.691406 314.21875 505.371094 311.390625 505.988281 L 311.390625 249.789062 L 315.078125 201.160156 C 315.429688 196.488281 319.320312 192.890625 324 192.890625 L 342.039062 192.890625 C 346.710938 192.890625 350.601562 196.488281 350.960938 201.160156 L 354.640625 249.789062 Z M 371.53125 273.679688 " style=" stroke:none;fill-rule:nonzero;fill:rgb(37.647059%,37.647059%,37.647059%);fill-opacity:1;" />
<path d="M 371.53125 273.679688 L 371.53125 484.5 C 366.128906 487.238281 360.628906 489.789062 355.019531 492.140625 C 347.851562 495.148438 340.511719 497.851562 333.019531 500.210938 C 328.671875 501.578125 324.28125 502.828125 319.839844 503.96875 C 317.039062 504.691406 314.21875 505.371094 311.390625 505.988281 L 311.390625 249.789062 L 315.078125 201.160156 C 315.429688 196.488281 319.320312 192.890625 324 192.890625 L 342.039062 192.890625 C 346.710938 192.890625 350.601562 196.488281 350.960938 201.160156 L 354.640625 249.789062 Z M 371.53125 273.679688 " style=" stroke:none;fill-rule:nonzero;fill:rgb(55.686275%,30.980392%,82.352941%);fill-opacity:1;" />
<path d="M 371.53125 273.679688 L 371.53125 484.5 C 366.128906 487.238281 360.628906 489.789062 355.019531 492.140625 C 347.851562 495.148438 340.511719 497.851562 333.019531 500.210938 L 333.019531 192.890625 L 342.039062 192.890625 C 346.710938 192.890625 350.601562 196.488281 350.960938 201.160156 L 354.640625 249.789062 Z M 371.53125 273.679688 " style=" stroke:none;fill-rule:nonzero;fill:rgb(43.921569%,21.960784%,72.941176%);fill-opacity:1;" />
<path d="M 371.53125 306.21875 L 371.53125 484.5 C 366.128906 487.238281 360.628906 489.789062 355.019531 492.140625 C 347.851562 495.148438 340.511719 497.851562 333.019531 500.210938 C 328.671875 501.578125 324.28125 502.828125 319.839844 503.96875 C 317.039062 504.691406 314.21875 505.371094 311.390625 505.988281 C 305.828125 507.21875 300.199219 508.261719 294.511719 509.121094 L 294.511719 306.21875 Z M 371.53125 306.21875 " style=" stroke:none;fill-rule:nonzero;fill:rgb(61.960784%,41.176471%,88.627451%);fill-opacity:1;" />
<path d="M 371.53125 306.21875 L 371.53125 484.5 C 366.128906 487.238281 360.628906 489.789062 355.019531 492.140625 C 347.851562 495.148438 340.511719 497.851562 333.019531 500.210938 C 328.671875 501.578125 324.28125 502.828125 319.839844 503.96875 C 317.039062 504.691406 314.21875 505.371094 311.390625 505.988281 L 311.390625 306.21875 Z M 371.53125 306.21875 " style=" stroke:none;fill-rule:nonzero;fill:rgb(55.686275%,30.980392%,82.352941%);fill-opacity:1;" />
<path d="M 371.53125 306.21875 L 371.53125 484.5 C 366.128906 487.238281 360.628906 489.789062 355.019531 492.140625 C 347.851562 495.148438 340.511719 497.851562 333.019531 500.210938 L 333.019531 306.21875 Z M 371.53125 306.21875 " style=" stroke:none;fill-rule:nonzero;fill:rgb(43.921569%,21.960784%,72.941176%);fill-opacity:1;" />
<path d="M 294.507812 306.222656 L 371.527344 306.222656 L 371.527344 325.726562 L 294.507812 325.726562 Z M 294.507812 306.222656 " style=" stroke:none;fill-rule:nonzero;fill:rgb(45.490196%,49.411765%,61.960784%);fill-opacity:1;" />
<path d="M 311.390625 306.222656 L 371.527344 306.222656 L 371.527344 325.726562 L 311.390625 325.726562 Z M 311.390625 306.222656 " style=" stroke:none;fill-rule:nonzero;fill:rgb(27.843137%,30.980392%,43.529412%);fill-opacity:1;" />
<path d="M 333.019531 306.222656 L 371.527344 306.222656 L 371.527344 325.726562 L 333.019531 325.726562 Z M 333.019531 306.222656 " style=" stroke:none;fill-rule:nonzero;fill:rgb(19.607843%,23.137255%,35.294118%);fill-opacity:1;" />
<path d="M 355.730469 380.828125 L 355.730469 486.550781 C 355.730469 488.480469 355.480469 490.351562 355.019531 492.140625 C 347.851562 495.148438 340.511719 497.851562 333.019531 500.210938 C 328.671875 501.578125 324.28125 502.828125 319.839844 503.96875 C 314.691406 499.910156 311.390625 493.621094 311.390625 486.550781 L 311.390625 380.828125 C 311.390625 368.769531 321.019531 358.960938 333.019531 358.671875 C 333.199219 358.660156 333.378906 358.660156 333.570312 358.660156 C 339.691406 358.660156 345.230469 361.140625 349.238281 365.160156 C 353.25 369.171875 355.730469 374.710938 355.730469 380.828125 Z M 355.730469 380.828125 " style=" stroke:none;fill-rule:nonzero;fill:rgb(81.568627%,96.470588%,100%);fill-opacity:1;" />
<path d="M 355.730469 380.828125 L 355.730469 486.550781 C 355.730469 488.480469 355.480469 490.351562 355.019531 492.140625 C 347.851562 495.148438 340.511719 497.851562 333.019531 500.210938 L 333.019531 358.671875 C 333.199219 358.660156 333.378906 358.660156 333.570312 358.660156 C 339.691406 358.660156 345.230469 361.140625 349.238281 365.160156 C 353.25 369.171875 355.730469 374.710938 355.730469 380.828125 Z M 355.730469 380.828125 " style=" stroke:none;fill-rule:nonzero;fill:rgb(56.078431%,78.823529%,96.862745%);fill-opacity:1;" />
<path d="M 294.511719 273.679688 L 294.511719 509.121094 C 281.949219 511.019531 269.089844 512 256 512 C 248.71875 512 241.511719 511.699219 234.378906 511.101562 C 228.699219 510.621094 223.070312 509.960938 217.488281 509.121094 L 217.488281 273.679688 L 234.378906 249.789062 L 238.058594 201.160156 C 238.421875 196.488281 242.308594 192.890625 246.980469 192.890625 L 265.019531 192.890625 C 269.699219 192.890625 273.589844 196.488281 273.941406 201.160156 L 277.628906 249.789062 Z M 294.511719 273.679688 " style=" stroke:none;fill-rule:nonzero;fill:rgb(39.607843%,69.803922%,100%);fill-opacity:1;" />
<path d="M 294.511719 273.679688 L 294.511719 509.121094 C 281.949219 511.019531 269.089844 512 256 512 C 248.71875 512 241.511719 511.699219 234.378906 511.101562 L 234.378906 249.789062 L 238.058594 201.160156 C 238.421875 196.488281 242.308594 192.890625 246.980469 192.890625 L 265.019531 192.890625 C 269.699219 192.890625 273.589844 196.488281 273.941406 201.160156 L 277.628906 249.789062 Z M 294.511719 273.679688 " style=" stroke:none;fill-rule:nonzero;fill:rgb(37.647059%,37.647059%,37.647059%);fill-opacity:1;" />
<path d="M 294.511719 273.679688 L 294.511719 509.121094 C 281.949219 511.019531 269.089844 512 256 512 C 248.71875 512 241.511719 511.699219 234.378906 511.101562 L 234.378906 249.789062 L 238.058594 201.160156 C 238.421875 196.488281 242.308594 192.890625 246.980469 192.890625 L 265.019531 192.890625 C 269.699219 192.890625 273.589844 196.488281 273.941406 201.160156 L 277.628906 249.789062 Z M 294.511719 273.679688 " style=" stroke:none;fill-rule:nonzero;fill:rgb(5.882353%,60.784314%,90.980392%);fill-opacity:1;" />
<path d="M 294.511719 273.679688 L 294.511719 509.121094 C 281.949219 511.019531 269.089844 512 256 512 L 256 192.890625 L 265.019531 192.890625 C 269.699219 192.890625 273.589844 196.488281 273.941406 201.160156 L 277.628906 249.789062 Z M 294.511719 273.679688 " style=" stroke:none;fill-rule:nonzero;fill:rgb(0%,40%,90.980392%);fill-opacity:1;" />
<path d="M 294.511719 306.21875 L 294.511719 509.121094 C 281.949219 511.019531 269.089844 512 256 512 C 248.71875 512 241.511719 511.699219 234.378906 511.101562 C 228.699219 510.621094 223.070312 509.960938 217.488281 509.121094 L 217.488281 306.21875 Z M 294.511719 306.21875 " style=" stroke:none;fill-rule:nonzero;fill:rgb(39.607843%,69.803922%,100%);fill-opacity:1;" />
<path d="M 294.511719 306.21875 L 294.511719 509.121094 C 281.949219 511.019531 269.089844 512 256 512 C 248.71875 512 241.511719 511.699219 234.378906 511.101562 L 234.378906 306.21875 Z M 294.511719 306.21875 " style=" stroke:none;fill-rule:nonzero;fill:rgb(5.882353%,60.784314%,90.980392%);fill-opacity:1;" />
<path d="M 294.511719 306.21875 L 294.511719 509.121094 C 281.949219 511.019531 269.089844 512 256 512 L 256 306.21875 Z M 294.511719 306.21875 " style=" stroke:none;fill-rule:nonzero;fill:rgb(0%,40%,90.980392%);fill-opacity:1;" />
<path d="M 217.492188 306.222656 L 294.511719 306.222656 L 294.511719 325.726562 L 217.492188 325.726562 Z M 217.492188 306.222656 " style=" stroke:none;fill-rule:nonzero;fill:rgb(45.490196%,49.411765%,61.960784%);fill-opacity:1;" />
<path d="M 234.375 306.222656 L 294.511719 306.222656 L 294.511719 325.726562 L 234.375 325.726562 Z M 234.375 306.222656 " style=" stroke:none;fill-rule:nonzero;fill:rgb(27.843137%,30.980392%,43.529412%);fill-opacity:1;" />
<path d="M 256.003906 306.222656 L 294.511719 306.222656 L 294.511719 325.726562 L 256.003906 325.726562 Z M 256.003906 306.222656 " style=" stroke:none;fill-rule:nonzero;fill:rgb(19.607843%,23.137255%,35.294118%);fill-opacity:1;" />
<path d="M 278.71875 380.835938 L 278.71875 486.550781 C 278.71875 498.796875 268.792969 508.71875 256.550781 508.71875 C 256.367188 508.71875 256.1875 508.71875 256.003906 508.710938 C 244.007812 508.425781 234.375 498.617188 234.375 486.550781 L 234.375 380.835938 C 234.375 368.769531 244.007812 358.957031 256.003906 358.671875 C 256.1875 358.664062 256.367188 358.664062 256.550781 358.664062 C 262.671875 358.664062 268.214844 361.140625 272.226562 365.15625 C 276.238281 369.167969 278.71875 374.707031 278.71875 380.835938 Z M 278.71875 380.835938 " style=" stroke:none;fill-rule:nonzero;fill:rgb(81.568627%,96.470588%,100%);fill-opacity:1;" />
<path d="M 278.71875 380.835938 L 278.71875 486.550781 C 278.71875 498.796875 268.792969 508.71875 256.550781 508.71875 C 256.367188 508.71875 256.1875 508.71875 256.003906 508.710938 L 256.003906 358.671875 C 256.1875 358.664062 256.367188 358.664062 256.550781 358.664062 C 262.671875 358.664062 268.214844 361.140625 272.226562 365.15625 C 276.238281 369.167969 278.71875 374.707031 278.71875 380.835938 Z M 278.71875 380.835938 " style=" stroke:none;fill-rule:nonzero;fill:rgb(56.078431%,78.823529%,96.862745%);fill-opacity:1;" />
<path d="M 217.488281 273.679688 L 217.488281 509.121094 C 209.179688 507.871094 201.011719 506.21875 192.980469 504.179688 C 188.261719 502.988281 183.601562 501.660156 178.988281 500.210938 C 171.929688 497.988281 165 495.46875 158.21875 492.648438 C 157.929688 492.539062 157.648438 492.421875 157.359375 492.300781 C 151.621094 489.910156 145.988281 487.308594 140.480469 484.511719 L 140.480469 273.679688 L 157.359375 249.789062 L 161.050781 201.160156 C 161.398438 196.488281 165.289062 192.890625 169.96875 192.890625 L 188.011719 192.890625 C 192.679688 192.890625 196.570312 196.488281 196.929688 201.160156 L 200.609375 249.789062 Z M 217.488281 273.679688 " style=" stroke:none;fill-rule:nonzero;fill:rgb(100%,91.372549%,33.333333%);fill-opacity:1;" />
<path d="M 217.488281 273.679688 L 217.488281 509.121094 C 209.179688 507.871094 201.011719 506.21875 192.980469 504.179688 C 188.261719 502.988281 183.601562 501.660156 178.988281 500.210938 C 171.929688 497.988281 165 495.46875 158.21875 492.648438 C 157.929688 492.539062 157.648438 492.421875 157.359375 492.300781 L 157.359375 249.789062 L 161.050781 201.160156 C 161.398438 196.488281 165.289062 192.890625 169.96875 192.890625 L 188.011719 192.890625 C 192.679688 192.890625 196.570312 196.488281 196.929688 201.160156 L 200.609375 249.789062 Z M 217.488281 273.679688 " style=" stroke:none;fill-rule:nonzero;fill:rgb(37.647059%,37.647059%,37.647059%);fill-opacity:1;" />
<path d="M 217.488281 273.679688 L 217.488281 509.121094 C 209.179688 507.871094 201.011719 506.21875 192.980469 504.179688 C 188.261719 502.988281 183.601562 501.660156 178.988281 500.210938 C 171.929688 497.988281 165 495.46875 158.21875 492.648438 C 157.929688 492.539062 157.648438 492.421875 157.359375 492.300781 L 157.359375 249.789062 L 161.050781 201.160156 C 161.398438 196.488281 165.289062 192.890625 169.96875 192.890625 L 188.011719 192.890625 C 192.679688 192.890625 196.570312 196.488281 196.929688 201.160156 L 200.609375 249.789062 Z M 217.488281 273.679688 " style=" stroke:none;fill-rule:nonzero;fill:rgb(100%,81.960784%,7.058824%);fill-opacity:1;" />
<path d="M 217.488281 273.679688 L 217.488281 509.121094 C 209.179688 507.871094 201.011719 506.21875 192.980469 504.179688 C 188.261719 502.988281 183.601562 501.660156 178.988281 500.210938 L 178.988281 192.890625 L 188.011719 192.890625 C 192.679688 192.890625 196.570312 196.488281 196.929688 201.160156 L 200.609375 249.789062 Z M 217.488281 273.679688 " style=" stroke:none;fill-rule:nonzero;fill:rgb(100%,62.352941%,0%);fill-opacity:1;" />
<path d="M 217.488281 306.21875 L 217.488281 509.121094 C 209.179688 507.871094 201.011719 506.21875 192.980469 504.179688 C 188.261719 502.988281 183.601562 501.660156 178.988281 500.210938 C 171.929688 497.988281 165 495.46875 158.21875 492.648438 C 157.929688 492.539062 157.648438 492.421875 157.359375 492.300781 C 151.621094 489.910156 145.988281 487.308594 140.480469 484.511719 L 140.480469 306.21875 Z M 217.488281 306.21875 " style=" stroke:none;fill-rule:nonzero;fill:rgb(100%,91.372549%,33.333333%);fill-opacity:1;" />
<path d="M 217.488281 306.21875 L 217.488281 509.121094 C 209.179688 507.871094 201.011719 506.21875 192.980469 504.179688 C 188.261719 502.988281 183.601562 501.660156 178.988281 500.210938 C 171.929688 497.988281 165 495.46875 158.21875 492.648438 C 157.929688 492.539062 157.648438 492.421875 157.359375 492.300781 L 157.359375 306.21875 Z M 217.488281 306.21875 " style=" stroke:none;fill-rule:nonzero;fill:rgb(100%,81.960784%,7.058824%);fill-opacity:1;" />
<path d="M 217.488281 306.21875 L 217.488281 509.121094 C 209.179688 507.871094 201.011719 506.21875 192.980469 504.179688 C 188.261719 502.988281 183.601562 501.660156 178.988281 500.210938 L 178.988281 306.21875 Z M 217.488281 306.21875 " style=" stroke:none;fill-rule:nonzero;fill:rgb(100%,62.352941%,0%);fill-opacity:1;" />
<path d="M 140.476562 306.222656 L 217.496094 306.222656 L 217.496094 325.726562 L 140.476562 325.726562 Z M 140.476562 306.222656 " style=" stroke:none;fill-rule:nonzero;fill:rgb(45.490196%,49.411765%,61.960784%);fill-opacity:1;" />
<path d="M 157.359375 306.222656 L 217.496094 306.222656 L 217.496094 325.726562 L 157.359375 325.726562 Z M 157.359375 306.222656 " style=" stroke:none;fill-rule:nonzero;fill:rgb(27.843137%,30.980392%,43.529412%);fill-opacity:1;" />
<path d="M 178.988281 306.222656 L 217.496094 306.222656 L 217.496094 325.726562 L 178.988281 325.726562 Z M 178.988281 306.222656 " style=" stroke:none;fill-rule:nonzero;fill:rgb(19.607843%,23.137255%,35.294118%);fill-opacity:1;" />
<path d="M 201.699219 380.828125 L 201.699219 486.550781 C 201.699219 493.738281 198.28125 500.128906 192.980469 504.179688 C 188.261719 502.988281 183.601562 501.660156 178.988281 500.210938 C 171.929688 497.988281 165 495.46875 158.21875 492.648438 C 157.660156 490.710938 157.359375 488.660156 157.359375 486.550781 L 157.359375 380.828125 C 157.359375 368.769531 166.988281 358.960938 178.988281 358.671875 C 179.171875 358.660156 179.351562 358.660156 179.53125 358.660156 C 185.660156 358.660156 191.199219 361.140625 195.210938 365.160156 C 199.21875 369.171875 201.699219 374.710938 201.699219 380.828125 Z M 201.699219 380.828125 " style=" stroke:none;fill-rule:nonzero;fill:rgb(81.568627%,96.470588%,100%);fill-opacity:1;" />
<path d="M 201.699219 380.828125 L 201.699219 486.550781 C 201.699219 493.738281 198.28125 500.128906 192.980469 504.179688 C 188.261719 502.988281 183.601562 501.660156 178.988281 500.210938 L 178.988281 358.671875 C 179.171875 358.660156 179.351562 358.660156 179.53125 358.660156 C 185.660156 358.660156 191.199219 361.140625 195.210938 365.160156 C 199.21875 369.171875 201.699219 374.710938 201.699219 380.828125 Z M 201.699219 380.828125 " style=" stroke:none;fill-rule:nonzero;fill:rgb(56.078431%,78.823529%,96.862745%);fill-opacity:1;" />
<path d="M 448.539062 273.679688 L 448.539062 424.710938 C 443.519531 430.429688 438.25 435.941406 432.75 441.191406 C 425.558594 448.050781 417.980469 454.488281 410.039062 460.480469 C 410.039062 460.488281 410.039062 460.488281 410.03125 460.488281 C 403.089844 465.730469 395.878906 470.621094 388.410156 475.140625 C 382.921875 478.46875 377.289062 481.589844 371.53125 484.5 L 371.53125 273.679688 L 388.410156 249.789062 L 392.089844 201.160156 C 392.449219 196.488281 396.339844 192.890625 401.011719 192.890625 L 419.050781 192.890625 C 423.730469 192.890625 427.621094 196.488281 427.96875 201.160156 L 431.660156 249.789062 Z M 448.539062 273.679688 " style=" stroke:none;fill-rule:nonzero;fill:rgb(92.941176%,46.666667%,10.588235%);fill-opacity:1;" />
<path d="M 448.539062 273.679688 L 448.539062 424.710938 C 443.519531 430.429688 438.25 435.941406 432.75 441.191406 C 425.558594 448.050781 417.980469 454.488281 410.039062 460.480469 C 410.039062 460.488281 410.039062 460.488281 410.03125 460.488281 C 403.089844 465.730469 395.878906 470.621094 388.410156 475.140625 L 388.410156 249.789062 L 392.089844 201.160156 C 392.449219 196.488281 396.339844 192.890625 401.011719 192.890625 L 419.050781 192.890625 C 423.730469 192.890625 427.621094 196.488281 427.96875 201.160156 L 431.660156 249.789062 Z M 448.539062 273.679688 " style=" stroke:none;fill-rule:nonzero;fill:rgb(37.647059%,37.647059%,37.647059%);fill-opacity:1;" />
<path d="M 448.539062 273.679688 L 448.539062 424.710938 C 443.519531 430.429688 438.25 435.941406 432.75 441.191406 C 425.558594 448.050781 417.980469 454.488281 410.039062 460.480469 C 410.039062 460.488281 410.039062 460.488281 410.03125 460.488281 C 403.089844 465.730469 395.878906 470.621094 388.410156 475.140625 L 388.410156 249.789062 L 392.089844 201.160156 C 392.449219 196.488281 396.339844 192.890625 401.011719 192.890625 L 419.050781 192.890625 C 423.730469 192.890625 427.621094 196.488281 427.96875 201.160156 L 431.660156 249.789062 Z M 448.539062 273.679688 " style=" stroke:none;fill-rule:nonzero;fill:rgb(65.098039%,22.352941%,7.843137%);fill-opacity:1;" />
<path d="M 448.539062 273.679688 L 448.539062 424.710938 C 443.519531 430.429688 438.25 435.941406 432.75 441.191406 C 425.558594 448.050781 417.980469 454.488281 410.039062 460.480469 C 410.039062 460.488281 410.039062 460.488281 410.03125 460.488281 L 410.03125 192.890625 L 419.050781 192.890625 C 423.730469 192.890625 427.621094 196.488281 427.96875 201.160156 L 431.660156 249.789062 Z M 448.539062 273.679688 " style=" stroke:none;fill-rule:nonzero;fill:rgb(47.843137%,17.647059%,10.196078%);fill-opacity:1;" />
<path d="M 448.539062 306.21875 L 448.539062 424.710938 C 443.519531 430.429688 438.25 435.941406 432.75 441.191406 C 425.558594 448.050781 417.980469 454.488281 410.039062 460.480469 C 410.039062 460.488281 410.039062 460.488281 410.03125 460.488281 C 403.089844 465.730469 395.878906 470.621094 388.410156 475.140625 C 382.921875 478.46875 377.289062 481.589844 371.53125 484.5 L 371.53125 306.21875 Z M 448.539062 306.21875 " style=" stroke:none;fill-rule:nonzero;fill:rgb(92.941176%,46.666667%,10.588235%);fill-opacity:1;" />
<path d="M 448.539062 306.21875 L 448.539062 424.710938 C 443.519531 430.429688 438.25 435.941406 432.75 441.191406 C 425.558594 448.050781 417.980469 454.488281 410.039062 460.480469 C 410.039062 460.488281 410.039062 460.488281 410.03125 460.488281 C 403.089844 465.730469 395.878906 470.621094 388.410156 475.140625 L 388.410156 306.21875 Z M 448.539062 306.21875 " style=" stroke:none;fill-rule:nonzero;fill:rgb(65.098039%,22.352941%,7.843137%);fill-opacity:1;" />
<path d="M 448.539062 306.21875 L 448.539062 424.710938 C 443.519531 430.429688 438.25 435.941406 432.75 441.191406 C 425.558594 448.050781 417.980469 454.488281 410.039062 460.480469 C 410.039062 460.488281 410.039062 460.488281 410.03125 460.488281 L 410.03125 306.21875 Z M 448.539062 306.21875 " style=" stroke:none;fill-rule:nonzero;fill:rgb(47.843137%,17.647059%,10.196078%);fill-opacity:1;" />
<path d="M 371.523438 306.222656 L 448.542969 306.222656 L 448.542969 325.726562 L 371.523438 325.726562 Z M 371.523438 306.222656 " style=" stroke:none;fill-rule:nonzero;fill:rgb(45.490196%,49.411765%,61.960784%);fill-opacity:1;" />
<path d="M 388.40625 306.222656 L 448.542969 306.222656 L 448.542969 325.726562 L 388.40625 325.726562 Z M 388.40625 306.222656 " style=" stroke:none;fill-rule:nonzero;fill:rgb(27.843137%,30.980392%,43.529412%);fill-opacity:1;" />
<path d="M 410.035156 306.222656 L 448.542969 306.222656 L 448.542969 325.726562 L 410.035156 325.726562 Z M 410.035156 306.222656 " style=" stroke:none;fill-rule:nonzero;fill:rgb(19.607843%,23.137255%,35.294118%);fill-opacity:1;" />
<path d="M 432.75 380.828125 L 432.75 441.191406 C 425.558594 448.050781 417.980469 454.488281 410.039062 460.480469 C 410.039062 460.488281 410.039062 460.488281 410.03125 460.488281 C 403.089844 465.730469 395.878906 470.621094 388.410156 475.140625 L 388.410156 380.828125 C 388.410156 368.769531 398.03125 358.96875 410.03125 358.671875 L 410.039062 358.671875 C 410.21875 358.660156 410.398438 358.660156 410.578125 358.660156 C 416.699219 358.660156 422.25 361.140625 426.261719 365.160156 C 430.269531 369.171875 432.75 374.710938 432.75 380.828125 Z M 432.75 380.828125 " style=" stroke:none;fill-rule:nonzero;fill:rgb(100%,100%,100%);fill-opacity:1;" />
<path d="M 432.75 380.828125 L 432.75 441.191406 C 425.558594 448.050781 417.980469 454.488281 410.039062 460.480469 L 410.039062 358.671875 C 410.21875 358.660156 410.398438 358.660156 410.578125 358.660156 C 416.699219 358.660156 422.25 361.140625 426.261719 365.160156 C 430.269531 369.171875 432.75 374.710938 432.75 380.828125 Z M 432.75 380.828125 " style=" stroke:none;fill-rule:nonzero;fill:rgb(81.568627%,96.470588%,100%);fill-opacity:1;" />
</g>
</svg>