<svg xmlns="http://www.w3.org/2000/svg" height="512pt" version="1.1" viewBox="0 0 512 512" width="512pt">
<g id="surface1">
<path d="M 512 256 C 512 397.386719 397.386719 512 256 512 C 114.613281 512 0 397.386719 0 256 C 0 114.613281 114.613281 0 256 0 C 397.386719 0 512 114.613281 512 256 Z M 512 256 " style=" stroke:none;fill-rule:nonzero;fill:rgb(100%,91.372549%,33.333333%);fill-opacity:1;" />
<path d="M 512 256 C 512 282.050781 508.109375 307.191406 500.871094 330.871094 C 468.859375 435.71875 371.328125 512 256 512 C 151.441406 512 61.511719 449.300781 21.769531 359.449219 C 7.769531 327.820312 0 292.820312 0 256 C 0 209.78125 12.25 166.429688 33.679688 129 C 77.800781 206.070312 160.839844 258 256 258 C 351.160156 258 434.210938 206.070312 478.320312 129 C 499.75 166.429688 512 209.78125 512 256 Z M 512 256 " style=" stroke:none;fill-rule:nonzero;fill:rgb(100%,81.960784%,7.058824%);fill-opacity:1;" />
<path d="M 30.742188 377.703125 C 37.898438 390.921875 46.171875 403.441406 55.460938 415.128906 C 102.359375 474.148438 174.761719 512 256 512 C 337.238281 512 409.640625 474.148438 456.539062 415.128906 C 465.828125 403.441406 474.101562 390.921875 481.257812 377.703125 Z M 30.742188 377.703125 " style=" stroke:none;fill-rule:nonzero;fill:rgb(100%,62.352941%,0%);fill-opacity:1;" />
<path d="M 256.179688 158.648438 C 229.300781 158.648438 201.488281 165.429688 175.921875 173.320312 C 173.511719 174.058594 171.109375 174.828125 168.710938 175.640625 C 146.601562 182.949219 125.199219 192.371094 104.851562 203.730469 C 89.148438 212.46875 74.109375 222.371094 59.859375 233.300781 C 38.699219 249.511719 19.28125 267.960938 2.019531 288.289062 C 8.308594 338.289062 29.03125 383.800781 59.859375 420.519531 C 69.859375 432.429688 80.929688 443.421875 92.910156 453.328125 C 115.621094 440.078125 141.300781 431.371094 168.710938 428.410156 C 175.570312 427.660156 182.519531 427.28125 189.578125 427.28125 C 200.019531 427.28125 210.261719 428.101562 220.238281 429.710938 C 232.21875 431.640625 243.960938 434.460938 256.179688 434.460938 C 261.25 434.460938 266.261719 434.179688 271.199219 433.640625 C 280.710938 432.609375 289.929688 430.609375 298.761719 427.761719 C 354.078125 409.808594 394.089844 357.851562 394.089844 296.550781 C 394.089844 220.378906 332.339844 158.648438 256.179688 158.648438 Z M 120.191406 410.441406 C 100.578125 410.441406 84.691406 394.550781 84.691406 374.949219 C 84.691406 355.339844 100.578125 339.449219 120.191406 339.449219 C 139.800781 339.449219 155.679688 355.339844 155.679688 374.949219 C 155.679688 394.550781 139.800781 410.441406 120.191406 410.441406 Z M 120.191406 410.441406 " style=" stroke:none;fill-rule:nonzero;fill:rgb(77.254902%,34.509804%,20.784314%);fill-opacity:1;" />
<path d="M 256.179688 158.648438 C 229.300781 158.648438 201.488281 165.429688 175.921875 173.320312 C 173.511719 174.058594 171.109375 174.828125 168.710938 175.640625 C 146.601562 182.949219 125.199219 192.371094 104.851562 203.730469 C 89.148438 212.46875 74.109375 222.371094 59.859375 233.300781 L 59.859375 420.519531 C 69.859375 432.429688 80.929688 443.421875 92.910156 453.328125 C 115.621094 440.078125 141.300781 431.371094 168.710938 428.410156 C 175.570312 427.660156 182.519531 427.28125 189.578125 427.28125 C 200.019531 427.28125 210.261719 428.101562 220.238281 429.710938 C 232.21875 431.640625 243.960938 434.460938 256.179688 434.460938 C 261.25 434.460938 266.261719 434.179688 271.199219 433.640625 C 280.710938 432.609375 289.929688 430.609375 298.761719 427.761719 C 354.078125 409.808594 394.089844 357.851562 394.089844 296.550781 C 394.089844 220.378906 332.339844 158.648438 256.179688 158.648438 Z M 120.191406 410.441406 C 100.578125 410.441406 84.691406 394.550781 84.691406 374.949219 C 84.691406 355.339844 100.578125 339.449219 120.191406 339.449219 C 139.800781 339.449219 155.679688 355.339844 155.679688 374.949219 C 155.679688 394.550781 139.800781 410.441406 120.191406 410.441406 Z M 120.191406 410.441406 " style=" stroke:none;fill-rule:nonzero;fill:rgb(65.098039%,22.352941%,7.843137%);fill-opacity:1;" />
<path d="M 394.085938 296.550781 C 394.085938 357.851562 354.085938 409.804688 298.757812 427.757812 C 289.933594 430.609375 280.714844 432.613281 271.199219 433.636719 C 266.265625 434.179688 261.25 434.460938 256.179688 434.460938 C 243.960938 434.460938 232.21875 431.644531 220.238281 429.710938 C 210.261719 428.105469 200.019531 427.28125 189.574219 427.28125 C 182.515625 427.28125 175.566406 427.664062 168.707031 428.410156 L 168.707031 175.640625 C 171.105469 174.832031 173.507812 174.0625 175.925781 173.320312 C 201.492188 165.425781 229.300781 158.644531 256.179688 158.644531 C 332.339844 158.644531 394.085938 220.382812 394.085938 296.550781 Z M 394.085938 296.550781 " style=" stroke:none;fill-rule:nonzero;fill:rgb(47.843137%,17.647059%,10.196078%);fill-opacity:1;" />
<path d="M 268.710938 251.28125 C 269.871094 253.550781 270.84375 255.910156 271.101562 258.429688 C 272.039062 267.625 263.324219 275.839844 264.53125 285.003906 C 264.898438 287.800781 266.480469 290.683594 269.167969 291.542969 C 272.382812 292.570312 275.636719 290.441406 278.679688 288.980469 C 281.78125 287.492188 285.195312 286.648438 288.636719 286.507812 C 292.039062 286.363281 293.214844 287.367188 295.847656 289.152344 C 300.398438 292.230469 308.230469 296.566406 313.296875 292.203125 C 317.84375 288.289062 315.628906 280.8125 317.660156 275.164062 C 319.539062 269.9375 324.808594 266.894531 329.359375 263.710938 C 336.410156 258.78125 341.773438 249.703125 333.164062 243.328125 C 327.554688 239.171875 320.582031 238.347656 314.304688 235.679688 C 311.675781 234.566406 307.90625 232.96875 306.011719 230.746094 C 303.902344 228.273438 303.507812 224.683594 301.328125 222.101562 C 299.171875 219.550781 295.675781 217.839844 292.460938 218.746094 C 286.601562 220.402344 287.464844 228.238281 281.519531 229.457031 C 279.1875 229.9375 276.78125 229.503906 274.414062 229.25 C 272.050781 228.996094 269.523438 228.957031 267.445312 230.117188 C 264.410156 231.808594 263.164062 235.695312 263.566406 239.148438 C 263.96875 242.597656 265.691406 245.734375 267.367188 248.777344 C 267.824219 249.601562 268.28125 250.433594 268.710938 251.28125 Z M 268.710938 251.28125 " style=" stroke:none;fill-rule:nonzero;fill:rgb(100%,20.392157%,27.058824%);fill-opacity:1;" />
<path d="M 100.273438 244.074219 C 101.050781 245.601562 101.707031 247.1875 101.878906 248.878906 C 102.511719 255.058594 96.652344 260.578125 97.464844 266.738281 C 97.710938 268.617188 98.773438 270.554688 100.582031 271.132812 C 102.742188 271.820312 104.925781 270.390625 106.972656 269.410156 C 109.058594 268.410156 111.351562 267.84375 113.664062 267.746094 C 115.949219 267.652344 116.738281 268.324219 118.507812 269.523438 C 121.566406 271.59375 126.832031 274.507812 130.234375 271.574219 C 133.289062 268.941406 131.800781 263.917969 133.167969 260.125 C 134.429688 256.613281 137.972656 254.566406 141.03125 252.429688 C 145.765625 249.113281 149.371094 243.015625 143.589844 238.730469 C 139.816406 235.9375 135.132812 235.382812 130.910156 233.589844 C 129.144531 232.839844 126.613281 231.769531 125.339844 230.273438 C 123.921875 228.613281 123.65625 226.199219 122.191406 224.464844 C 120.742188 222.75 118.394531 221.601562 116.234375 222.210938 C 112.296875 223.320312 112.875 228.589844 108.882812 229.40625 C 107.316406 229.730469 105.699219 229.4375 104.105469 229.269531 C 102.515625 229.097656 100.820312 229.070312 99.421875 229.851562 C 97.382812 230.988281 96.546875 233.597656 96.816406 235.917969 C 97.085938 238.238281 98.242188 240.347656 99.371094 242.390625 C 99.675781 242.945312 99.984375 243.507812 100.273438 244.074219 Z M 100.273438 244.074219 " style=" stroke:none;fill-rule:nonzero;fill:rgb(70.980392%,88.627451%,21.568627%);fill-opacity:1;" />
<path d="M 310.226562 327.324219 C 308.738281 328.4375 307.164062 329.429688 305.386719 329.925781 C 298.894531 331.742188 291.910156 326.503906 285.476562 328.507812 C 283.515625 329.117188 281.640625 330.613281 281.355469 332.648438 C 281.019531 335.085938 282.949219 337.160156 284.378906 339.164062 C 285.832031 341.210938 286.859375 343.558594 287.390625 346.011719 C 287.914062 348.4375 287.339844 349.40625 286.386719 351.519531 C 284.738281 355.171875 282.597656 361.335938 286.359375 364.433594 C 289.734375 367.214844 294.832031 364.695312 299.140625 365.453125 C 303.128906 366.15625 305.96875 369.5625 308.820312 372.4375 C 313.238281 376.890625 320.425781 379.617188 323.9375 372.644531 C 326.226562 368.097656 325.953125 362.984375 327.089844 358.140625 C 327.566406 356.113281 328.242188 353.210938 329.605469 351.570312 C 331.121094 349.75 333.648438 349.023438 335.234375 347.136719 C 336.800781 345.269531 337.597656 342.546875 336.546875 340.347656 C 334.628906 336.347656 329.105469 337.9375 327.492188 333.820312 C 326.859375 332.203125 326.871094 330.421875 326.757812 328.6875 C 326.644531 326.957031 326.363281 325.136719 325.269531 323.785156 C 323.675781 321.816406 320.730469 321.40625 318.300781 322.121094 C 315.871094 322.839844 313.832031 324.464844 311.855469 326.050781 C 311.320312 326.476562 310.777344 326.910156 310.226562 327.324219 Z M 310.226562 327.324219 " style=" stroke:none;fill-rule:nonzero;fill:rgb(39.607843%,69.803922%,100%);fill-opacity:1;" />
<path d="M 212.359375 197.859375 C 210.871094 198.972656 209.296875 199.964844 207.519531 200.464844 C 201.03125 202.28125 194.046875 197.039062 187.613281 199.042969 C 185.648438 199.65625 183.773438 201.148438 183.492188 203.1875 C 183.152344 205.625 185.085938 207.695312 186.511719 209.699219 C 187.964844 211.746094 188.996094 214.09375 189.523438 216.546875 C 190.050781 218.976562 189.472656 219.941406 188.519531 222.054688 C 186.871094 225.707031 184.730469 231.875 188.492188 234.972656 C 191.871094 237.753906 196.96875 235.230469 201.273438 235.992188 C 205.265625 236.695312 208.101562 240.101562 210.957031 242.976562 C 215.375 247.425781 222.5625 250.15625 226.074219 243.179688 C 228.359375 238.632812 228.089844 233.523438 229.226562 228.679688 C 229.699219 226.652344 230.378906 223.746094 231.742188 222.109375 C 233.257812 220.289062 235.785156 219.558594 237.367188 217.671875 C 238.933594 215.804688 239.730469 213.082031 238.679688 210.886719 C 236.765625 206.882812 231.238281 208.476562 229.625 204.355469 C 228.992188 202.738281 229.003906 200.957031 228.894531 199.226562 C 228.78125 197.492188 228.496094 195.675781 227.40625 194.324219 C 225.8125 192.355469 222.867188 191.941406 220.4375 192.660156 C 218.007812 193.375 215.964844 195.003906 213.988281 196.585938 C 213.453125 197.015625 212.914062 197.445312 212.359375 197.859375 Z M 212.359375 197.859375 " style=" stroke:none;fill-rule:nonzero;fill:rgb(100%,81.960784%,7.058824%);fill-opacity:1;" />
<path d="M 455.183594 181.273438 C 455.234375 196.144531 453.035156 209.273438 448.914062 220.792969 L 410.976562 220.921875 C 406.773438 209.429688 404.488281 196.316406 404.4375 181.445312 C 404.417969 175.785156 404.726562 170.195312 405.339844 164.703125 C 408.019531 140.691406 416.574219 118.449219 429.53125 99.449219 C 429.550781 99.476562 429.574219 99.511719 429.59375 99.539062 C 442.4375 118.128906 451.054688 139.886719 454.027344 163.410156 C 454.777344 169.257812 455.164062 175.222656 455.183594 181.273438 Z M 455.183594 181.273438 " style=" stroke:none;fill-rule:nonzero;fill:rgb(100%,100%,100%);fill-opacity:1;" />
<path d="M 455.183594 181.273438 C 455.234375 196.144531 453.035156 209.273438 448.914062 220.792969 L 424.132812 220.878906 C 418.761719 206.195312 415.84375 189.441406 415.777344 170.449219 C 415.695312 145.339844 420.605469 121.390625 429.59375 99.539062 C 445.636719 122.757812 455.082031 150.910156 455.183594 181.273438 Z M 455.183594 181.273438 " style=" stroke:none;fill-rule:nonzero;fill:rgb(100%,75.294118%,64.313725%);fill-opacity:1;" />
<path d="M 453.410156 220.78125 L 451.988281 310.449219 L 450.199219 422.78125 L 450.199219 422.789062 C 444.058594 429.941406 437.53125 436.75 430.640625 443.179688 C 427.730469 445.898438 424.761719 448.539062 421.730469 451.109375 C 418.46875 453.890625 415.148438 456.578125 411.75 459.179688 L 408.378906 310.601562 L 406.351562 220.941406 L 410.980469 220.921875 L 419.238281 220.898438 L 424.128906 220.878906 L 426.078125 220.871094 L 429.890625 220.859375 L 429.941406 220.859375 L 438.089844 220.828125 L 439.421875 220.828125 Z M 453.410156 220.78125 " style=" stroke:none;fill-rule:nonzero;fill:rgb(45.490196%,49.411765%,61.960784%);fill-opacity:1;" />
<path d="M 453.410156 220.78125 L 451.988281 310.449219 L 450.199219 422.78125 L 450.199219 422.789062 C 444.058594 429.941406 437.53125 436.75 430.640625 443.179688 C 427.730469 445.898438 424.761719 448.539062 421.730469 451.109375 L 420.210938 310.558594 L 419.238281 220.898438 L 419.238281 220.890625 L 424.128906 220.871094 L 426.078125 220.871094 L 429.890625 220.859375 L 429.941406 220.859375 L 438.089844 220.828125 L 439.421875 220.828125 L 448.921875 220.789062 Z M 453.410156 220.78125 " style=" stroke:none;fill-rule:nonzero;fill:rgb(27.843137%,30.980392%,43.529412%);fill-opacity:1;" />
<path d="M 453.410156 220.78125 L 451.988281 310.449219 L 450.199219 422.78125 L 450.199219 422.789062 C 444.058594 429.941406 437.53125 436.75 430.640625 443.179688 L 430.191406 310.53125 L 430.191406 310.519531 L 429.890625 220.859375 L 429.941406 220.859375 L 438.089844 220.828125 L 439.421875 220.828125 Z M 453.410156 220.78125 " style=" stroke:none;fill-rule:nonzero;fill:rgb(19.607843%,23.137255%,35.294118%);fill-opacity:1;" />
<path d="M 455.183594 181.273438 C 455.234375 196.144531 453.035156 209.273438 448.914062 220.792969 L 429.941406 220.855469 L 429.53125 99.445312 C 445.613281 122.6875 455.082031 150.867188 455.183594 181.273438 Z M 455.183594 181.273438 " style=" stroke:none;fill-rule:nonzero;fill:rgb(100%,65.882353%,47.843137%);fill-opacity:1;" />
<path d="M 453.414062 220.777344 L 451.988281 310.453125 L 408.382812 310.601562 L 406.351562 220.9375 Z M 453.414062 220.777344 " style=" stroke:none;fill-rule:nonzero;fill:rgb(100%,100%,100%);fill-opacity:1;" />
<path d="M 453.414062 220.777344 L 451.988281 310.453125 L 420.207031 310.5625 L 419.238281 220.894531 Z M 453.414062 220.777344 " style=" stroke:none;fill-rule:nonzero;fill:rgb(81.568627%,96.470588%,100%);fill-opacity:1;" />
<path d="M 453.414062 220.777344 L 451.988281 310.453125 L 430.191406 310.527344 L 429.886719 220.855469 Z M 453.414062 220.777344 " style=" stroke:none;fill-rule:nonzero;fill:rgb(56.078431%,78.823529%,96.862745%);fill-opacity:1;" />
<path d="M 454.027344 163.410156 C 451.644531 166.746094 449.046875 169.625 445.042969 169.640625 C 436.273438 169.671875 437.644531 166.527344 429.742188 161.507812 C 429.074219 161.085938 428.34375 160.648438 427.535156 160.207031 C 422.148438 157.21875 419.183594 158.703125 416.003906 160.734375 C 413.210938 162.515625 410.25 164.714844 405.339844 164.703125 C 408.019531 140.691406 416.574219 118.449219 429.53125 99.445312 C 429.550781 99.476562 429.574219 99.511719 429.59375 99.539062 C 431.183594 101.84375 432.714844 104.191406 434.167969 106.59375 C 434.53125 107.1875 434.886719 107.789062 435.242188 108.390625 C 435.265625 108.425781 435.292969 108.460938 435.308594 108.503906 C 435.683594 109.140625 436.054688 109.78125 436.417969 110.425781 C 436.570312 110.679688 436.710938 110.941406 436.855469 111.203125 C 436.925781 111.324219 436.996094 111.445312 437.054688 111.566406 C 437.304688 111.996094 437.539062 112.433594 437.78125 112.871094 C 437.824219 112.949219 437.867188 113.027344 437.902344 113.105469 C 437.914062 113.128906 437.929688 113.15625 437.945312 113.183594 C 438.238281 113.714844 438.515625 114.253906 438.792969 114.78125 C 438.878906 114.9375 438.957031 115.09375 439.035156 115.25 C 439.15625 115.480469 439.277344 115.710938 439.390625 115.941406 C 439.714844 116.570312 440.035156 117.199219 440.347656 117.835938 C 440.734375 118.621094 441.117188 119.414062 441.488281 120.214844 C 441.769531 120.808594 442.046875 121.410156 442.316406 122.011719 C 442.480469 122.371094 442.640625 122.726562 442.796875 123.085938 C 442.832031 123.148438 442.859375 123.214844 442.890625 123.285156 C 443.023438 123.59375 443.167969 123.90625 443.296875 124.21875 C 443.339844 124.304688 443.375 124.382812 443.402344 124.464844 C 443.558594 124.828125 443.71875 125.195312 443.867188 125.554688 C 443.882812 125.582031 443.894531 125.613281 443.902344 125.640625 C 444.460938 126.957031 444.996094 128.285156 445.511719 129.621094 C 445.996094 130.867188 446.460938 132.121094 446.90625 133.386719 C 446.996094 133.65625 447.097656 133.925781 447.183594 134.195312 C 447.3125 134.539062 447.425781 134.886719 447.542969 135.234375 C 447.597656 135.390625 447.648438 135.539062 447.699219 135.6875 C 447.714844 135.714844 447.71875 135.742188 447.726562 135.765625 C 447.941406 136.414062 448.15625 137.066406 448.363281 137.726562 C 448.910156 139.414062 449.417969 141.113281 449.882812 142.835938 C 449.925781 142.960938 449.964844 143.097656 450 143.230469 C 450.042969 143.402344 450.09375 143.578125 450.140625 143.746094 C 450.199219 143.953125 450.257812 144.164062 450.308594 144.378906 C 450.355469 144.546875 450.398438 144.726562 450.441406 144.894531 C 450.542969 145.257812 450.636719 145.617188 450.722656 145.976562 C 450.738281 146.019531 450.753906 146.070312 450.757812 146.121094 C 450.9375 146.808594 451.105469 147.492188 451.269531 148.179688 C 451.3125 148.355469 451.355469 148.535156 451.390625 148.710938 C 451.664062 149.894531 451.929688 151.089844 452.175781 152.285156 C 452.226562 152.492188 452.269531 152.695312 452.304688 152.902344 C 452.40625 153.390625 452.5 153.894531 452.59375 154.390625 C 452.59375 154.390625 452.601562 154.390625 452.59375 154.394531 C 452.636719 154.566406 452.664062 154.742188 452.695312 154.921875 C 452.714844 154.996094 452.730469 155.074219 452.738281 155.152344 C 452.839844 155.679688 452.933594 156.203125 453.019531 156.726562 C 453.085938 157.039062 453.132812 157.34375 453.179688 157.652344 C 453.488281 159.472656 453.757812 161.308594 453.988281 163.148438 C 454.011719 163.234375 454.019531 163.316406 454.027344 163.410156 Z M 454.027344 163.410156 " style=" stroke:none;fill-rule:nonzero;fill:rgb(100%,20.392157%,27.058824%);fill-opacity:1;" />
<path d="M 454.027344 163.410156 C 451.644531 166.746094 449.046875 169.625 445.042969 169.640625 C 436.273438 169.671875 437.644531 166.527344 429.742188 161.507812 C 429.074219 161.085938 428.34375 160.648438 427.535156 160.207031 C 422.148438 157.21875 419.183594 158.703125 416.003906 160.734375 C 417.039062 139.15625 421.773438 118.554688 429.59375 99.539062 C 431.183594 101.84375 432.714844 104.191406 434.167969 106.59375 C 434.53125 107.1875 434.886719 107.789062 435.242188 108.390625 C 435.265625 108.425781 435.292969 108.460938 435.308594 108.503906 C 435.683594 109.140625 436.054688 109.78125 436.417969 110.425781 C 436.570312 110.679688 436.710938 110.941406 436.855469 111.203125 C 436.925781 111.324219 436.996094 111.445312 437.054688 111.566406 C 437.347656 112.074219 437.625 112.589844 437.902344 113.105469 C 437.914062 113.128906 437.929688 113.15625 437.945312 113.183594 C 438.316406 113.871094 438.679688 114.558594 439.035156 115.25 C 439.15625 115.484375 439.277344 115.710938 439.394531 115.941406 C 439.714844 116.570312 440.035156 117.203125 440.347656 117.839844 C 440.734375 118.621094 441.117188 119.414062 441.492188 120.214844 C 441.769531 120.808594 442.046875 121.410156 442.320312 122.011719 C 442.484375 122.371094 442.640625 122.726562 442.796875 123.085938 C 442.832031 123.152344 442.859375 123.214844 442.890625 123.285156 C 443.027344 123.597656 443.167969 123.90625 443.296875 124.21875 C 443.339844 124.304688 443.375 124.382812 443.402344 124.46875 C 443.5625 124.828125 443.71875 125.195312 443.867188 125.554688 C 443.882812 125.585938 443.898438 125.613281 443.902344 125.640625 C 444.460938 126.957031 444.996094 128.285156 445.511719 129.625 C 445.996094 130.867188 446.464844 132.121094 446.90625 133.386719 C 447 133.65625 447.097656 133.925781 447.183594 134.195312 C 447.3125 134.542969 447.429688 134.886719 447.542969 135.234375 C 447.828125 136.0625 448.101562 136.890625 448.367188 137.726562 C 448.910156 139.417969 449.417969 141.117188 449.886719 142.835938 C 449.929688 142.964844 449.964844 143.097656 450 143.230469 C 450.109375 143.613281 450.207031 143.996094 450.308594 144.378906 C 450.359375 144.550781 450.402344 144.726562 450.445312 144.894531 C 450.546875 145.257812 450.640625 145.617188 450.726562 145.980469 C 450.738281 146.019531 450.753906 146.070312 450.761719 146.121094 C 450.941406 146.808594 451.105469 147.492188 451.269531 148.179688 C 451.3125 148.359375 451.355469 148.535156 451.394531 148.710938 C 451.671875 149.894531 451.933594 151.089844 452.175781 152.285156 C 452.226562 152.492188 452.269531 152.699219 452.308594 152.902344 C 452.40625 153.390625 452.503906 153.894531 452.59375 154.390625 C 452.59375 154.390625 452.601562 154.390625 452.59375 154.398438 C 452.636719 154.566406 452.667969 154.742188 452.695312 154.921875 C 452.71875 155 452.730469 155.078125 452.738281 155.15625 C 452.839844 155.679688 452.933594 156.203125 453.019531 156.726562 C 453.085938 157.039062 453.136719 157.34375 453.179688 157.65625 C 453.492188 159.476562 453.765625 161.300781 453.992188 163.148438 C 454.011719 163.234375 454.019531 163.316406 454.027344 163.410156 Z M 454.027344 163.410156 " style=" stroke:none;fill-rule:nonzero;fill:rgb(86.666667%,7.058824%,39.607843%);fill-opacity:1;" />
<path d="M 454.027344 163.394531 C 454.027344 163.394531 454.035156 163.402344 454.027344 163.410156 C 451.644531 166.746094 449.046875 169.625 445.042969 169.640625 C 436.273438 169.671875 437.644531 166.527344 429.742188 161.507812 L 429.53125 99.445312 C 429.957031 100.0625 430.378906 100.683594 430.789062 101.304688 C 430.984375 101.589844 431.175781 101.871094 431.359375 102.160156 C 431.730469 102.726562 432.101562 103.292969 432.464844 103.863281 C 432.90625 104.550781 433.339844 105.242188 433.769531 105.941406 C 433.824219 106.027344 433.882812 106.113281 433.933594 106.203125 C 434.375 106.925781 434.816406 107.652344 435.242188 108.390625 C 435.792969 109.316406 436.335938 110.257812 436.855469 111.203125 C 437.167969 111.757812 437.476562 112.3125 437.78125 112.871094 C 437.839844 112.980469 437.894531 113.078125 437.945312 113.183594 C 438.238281 113.714844 438.515625 114.253906 438.792969 114.78125 C 439 115.164062 439.199219 115.554688 439.394531 115.941406 C 440.390625 117.878906 441.339844 119.847656 442.238281 121.839844 C 442.460938 122.320312 442.675781 122.804688 442.890625 123.285156 C 443.027344 123.59375 443.167969 123.90625 443.296875 124.21875 C 443.503906 124.691406 443.703125 125.164062 443.902344 125.640625 C 444.460938 126.957031 444.996094 128.285156 445.511719 129.621094 C 445.769531 130.296875 446.027344 130.960938 446.269531 131.640625 C 446.46875 132.179688 446.671875 132.714844 446.855469 133.261719 C 446.96875 133.570312 447.085938 133.882812 447.183594 134.195312 C 447.363281 134.6875 447.527344 135.191406 447.699219 135.6875 C 447.714844 135.714844 447.722656 135.742188 447.730469 135.765625 C 448.171875 137.109375 448.609375 138.46875 449.019531 139.835938 C 449.226562 140.527344 449.433594 141.222656 449.628906 141.914062 C 449.804688 142.523438 449.972656 143.140625 450.144531 143.746094 C 450.199219 143.953125 450.257812 144.164062 450.308594 144.378906 C 450.464844 144.957031 450.617188 145.539062 450.761719 146.117188 C 450.953125 146.863281 451.140625 147.613281 451.3125 148.371094 C 451.621094 149.699219 451.925781 151.039062 452.199219 152.382812 C 452.21875 152.46875 452.242188 152.5625 452.257812 152.652344 C 452.371094 153.226562 452.488281 153.808594 452.59375 154.386719 C 452.636719 154.558594 452.667969 154.734375 452.695312 154.917969 C 453.226562 157.714844 453.671875 160.542969 454.027344 163.394531 Z M 454.027344 163.394531 " style=" stroke:none;fill-rule:nonzero;fill:rgb(72.941176%,5.098039%,36.078431%);fill-opacity:1;" />
</g>
</svg>