<svg xmlns="http://www.w3.org/2000/svg" height="512pt" version="1.1" viewBox="0 0 512 512" width="512pt">
<g id="surface1">
<path d="M 512 256 C 512 397.386719 397.386719 512 256 512 C 114.613281 512 0 397.386719 0 256 C 0 114.613281 114.613281 0 256 0 C 397.386719 0 512 114.613281 512 256 Z M 512 256 " style=" stroke:none;fill-rule:nonzero;fill:rgb(40.784314%,98.823529%,87.45098%);fill-opacity:1;" />
<path d="M 512 256 C 512 282.050781 508.109375 307.191406 500.871094 330.871094 C 468.859375 435.71875 371.328125 512 256 512 C 151.441406 512 61.511719 449.300781 21.769531 359.449219 C 7.769531 327.820312 0 292.820312 0 256 C 0 209.78125 12.25 166.429688 33.679688 129 C 77.800781 206.070312 160.839844 258 256 258 C 351.160156 258 434.210938 206.070312 478.320312 129 C 499.75 166.429688 512 209.78125 512 256 Z M 512 256 " style=" stroke:none;fill-rule:nonzero;fill:rgb(6.27451%,88.627451%,76.862745%);fill-opacity:1;" />
<path d="M 30.742188 377.703125 C 37.898438 390.921875 46.171875 403.441406 55.460938 415.128906 C 102.359375 474.148438 174.761719 512 256 512 C 337.238281 512 409.640625 474.148438 456.539062 415.128906 C 465.828125 403.441406 474.101562 390.921875 481.257812 377.703125 Z M 30.742188 377.703125 " style=" stroke:none;fill-rule:nonzero;fill:rgb(10.196078%,72.941176%,62.352941%);fill-opacity:1;" />
<path d="M 450.929688 243.140625 L 450.929688 421.949219 C 445.441406 428.398438 439.628906 434.570312 433.53125 440.441406 C 421.730469 451.808594 408.839844 462.039062 395.03125 470.988281 C 380.441406 480.441406 364.828125 488.449219 348.398438 494.808594 C 347.191406 495.28125 345.980469 495.738281 344.761719 496.179688 C 321.941406 504.628906 297.589844 509.910156 272.238281 511.488281 L 272.238281 512 L 239.761719 512 L 239.761719 511.488281 C 216.328125 510.03125 193.761719 505.410156 172.460938 498.050781 C 169.480469 497.03125 166.53125 495.949219 163.601562 494.808594 C 147.171875 488.449219 131.558594 480.441406 116.96875 470.988281 C 103.160156 462.039062 90.269531 451.808594 78.46875 440.441406 C 72.371094 434.570312 66.558594 428.398438 61.070312 421.949219 L 61.070312 243.140625 C 61.070312 233.339844 69.011719 225.398438 78.808594 225.398438 L 433.191406 225.398438 C 442.988281 225.398438 450.929688 233.339844 450.929688 243.140625 Z M 450.929688 243.140625 " style=" stroke:none;fill-rule:nonzero;fill:rgb(100%,20.392157%,27.058824%);fill-opacity:1;" />
<path d="M 450.929688 243.140625 L 450.929688 421.949219 C 445.441406 428.398438 439.628906 434.570312 433.53125 440.441406 C 421.730469 451.808594 408.839844 462.039062 395.03125 470.988281 C 380.441406 480.441406 364.828125 488.449219 348.398438 494.808594 C 347.191406 495.28125 345.980469 495.738281 344.761719 496.179688 C 321.941406 504.628906 297.589844 509.910156 272.238281 511.488281 L 272.238281 512 L 239.761719 512 L 239.761719 511.488281 C 216.328125 510.03125 193.761719 505.410156 172.460938 498.050781 L 172.460938 225.398438 L 433.191406 225.398438 C 442.988281 225.398438 450.929688 233.339844 450.929688 243.140625 Z M 450.929688 243.140625 " style=" stroke:none;fill-rule:nonzero;fill:rgb(86.666667%,7.058824%,39.607843%);fill-opacity:1;" />
<path d="M 450.929688 243.140625 L 450.929688 421.949219 C 445.441406 428.398438 439.628906 434.570312 433.53125 440.441406 C 421.730469 451.808594 408.839844 462.039062 395.03125 470.988281 C 380.441406 480.441406 364.828125 488.449219 348.398438 494.808594 C 347.191406 495.28125 345.980469 495.738281 344.761719 496.179688 C 321.941406 504.628906 297.589844 509.910156 272.238281 511.488281 L 272.238281 512 L 256 512 L 256 225.398438 L 433.191406 225.398438 C 442.988281 225.398438 450.929688 233.339844 450.929688 243.140625 Z M 450.929688 243.140625 " style=" stroke:none;fill-rule:nonzero;fill:rgb(86.666667%,7.058824%,39.607843%);fill-opacity:1;" />
<path d="M 450.929688 243.140625 L 450.929688 421.949219 C 445.441406 428.398438 439.628906 434.570312 433.53125 440.441406 C 421.730469 451.808594 408.839844 462.039062 395.03125 470.988281 C 380.441406 480.441406 364.828125 488.449219 348.398438 494.808594 C 347.191406 495.28125 345.980469 495.738281 344.761719 496.179688 L 344.761719 225.398438 L 433.191406 225.398438 C 442.988281 225.398438 450.929688 233.339844 450.929688 243.140625 Z M 450.929688 243.140625 " style=" stroke:none;fill-rule:nonzero;fill:rgb(72.941176%,5.098039%,36.078431%);fill-opacity:1;" />
<path d="M 239.761719 225.398438 L 272.238281 225.398438 L 272.238281 512 L 239.761719 512 Z M 239.761719 225.398438 " style=" stroke:none;fill-rule:nonzero;fill:rgb(72.941176%,5.098039%,36.078431%);fill-opacity:1;" />
<path d="M 433.53125 282.53125 L 433.53125 440.441406 C 421.730469 451.808594 408.839844 462.039062 395.03125 470.988281 C 380.441406 480.441406 364.828125 488.449219 348.398438 494.808594 L 265.609375 494.808594 C 260.300781 494.808594 256 490.511719 256 485.199219 L 256 276.011719 C 256 270.710938 260.300781 266.410156 265.609375 266.410156 L 417.410156 266.410156 C 426.308594 266.410156 433.53125 273.621094 433.53125 282.53125 Z M 433.53125 282.53125 " style=" stroke:none;fill-rule:nonzero;fill:rgb(56.078431%,78.823529%,96.862745%);fill-opacity:1;" />
<path d="M 256 276.011719 L 256 485.199219 C 256 490.511719 251.699219 494.808594 246.390625 494.808594 L 163.601562 494.808594 C 147.171875 488.449219 131.558594 480.441406 116.96875 470.988281 C 103.160156 462.039062 90.269531 451.808594 78.46875 440.441406 L 78.46875 266.410156 L 246.390625 266.410156 C 251.699219 266.410156 256 270.710938 256 276.011719 Z M 256 276.011719 " style=" stroke:none;fill-rule:nonzero;fill:rgb(56.078431%,78.823529%,96.862745%);fill-opacity:1;" />
<path d="M 256 252.191406 L 256 461.378906 C 256 466.679688 251.699219 470.988281 246.390625 470.988281 L 116.96875 470.988281 C 103.160156 462.039062 90.269531 451.808594 78.46875 440.441406 L 78.46875 258.699219 C 78.46875 249.800781 85.691406 242.578125 94.589844 242.578125 L 246.390625 242.578125 C 248.210938 242.578125 249.921875 243.089844 251.378906 243.96875 C 251.640625 244.140625 251.898438 244.308594 252.140625 244.488281 C 252.511719 244.769531 252.859375 245.070312 253.191406 245.398438 C 254.929688 247.140625 256 249.539062 256 252.191406 Z M 256 252.191406 " style=" stroke:none;fill-rule:nonzero;fill:rgb(100%,100%,100%);fill-opacity:1;" />
<path d="M 433.53125 258.699219 L 433.53125 440.441406 C 421.730469 451.808594 408.839844 462.039062 395.03125 470.988281 L 265.609375 470.988281 C 260.300781 470.988281 256 466.679688 256 461.378906 L 256 252.191406 C 256 246.890625 260.300781 242.578125 265.609375 242.578125 L 417.410156 242.578125 C 426.308594 242.578125 433.53125 249.800781 433.53125 258.699219 Z M 433.53125 258.699219 " style=" stroke:none;fill-rule:nonzero;fill:rgb(100%,100%,100%);fill-opacity:1;" />
<path d="M 433.53125 258.699219 L 433.53125 440.441406 C 421.730469 451.808594 408.839844 462.039062 395.03125 470.988281 L 344.761719 470.988281 L 344.761719 242.578125 L 417.410156 242.578125 C 426.308594 242.578125 433.53125 249.800781 433.53125 258.699219 Z M 433.53125 258.699219 " style=" stroke:none;fill-rule:nonzero;fill:rgb(81.568627%,96.470588%,100%);fill-opacity:1;" />
<path d="M 256 252.191406 L 256 461.382812 C 256 466.683594 251.699219 470.988281 246.390625 470.988281 L 172.457031 470.988281 L 172.457031 242.585938 L 246.390625 242.585938 C 251.699219 242.585938 256 246.882812 256 252.191406 Z M 256 252.191406 " style=" stroke:none;fill-rule:nonzero;fill:rgb(81.568627%,96.470588%,100%);fill-opacity:1;" />
<path d="M 100.515625 278.15625 L 188.703125 278.15625 L 188.703125 292.96875 L 100.515625 292.96875 Z M 100.515625 278.15625 " style=" stroke:none;fill-rule:nonzero;fill:rgb(19.607843%,23.137255%,35.294118%);fill-opacity:1;" />
<path d="M 285.628906 278.15625 L 373.8125 278.15625 L 373.8125 292.96875 L 285.628906 292.96875 Z M 285.628906 278.15625 " style=" stroke:none;fill-rule:nonzero;fill:rgb(19.607843%,23.137255%,35.294118%);fill-opacity:1;" />
<path d="M 100.515625 317.113281 L 188.703125 317.113281 L 188.703125 331.929688 L 100.515625 331.929688 Z M 100.515625 317.113281 " style=" stroke:none;fill-rule:nonzero;fill:rgb(19.607843%,23.137255%,35.294118%);fill-opacity:1;" />
<path d="M 100.515625 341.972656 L 188.703125 341.972656 L 188.703125 356.785156 L 100.515625 356.785156 Z M 100.515625 341.972656 " style=" stroke:none;fill-rule:nonzero;fill:rgb(19.607843%,23.137255%,35.294118%);fill-opacity:1;" />
<path d="M 100.515625 366.828125 L 188.703125 366.828125 L 188.703125 381.644531 L 100.515625 381.644531 Z M 100.515625 366.828125 " style=" stroke:none;fill-rule:nonzero;fill:rgb(19.607843%,23.137255%,35.294118%);fill-opacity:1;" />
<path d="M 100.515625 391.6875 L 188.703125 391.6875 L 188.703125 406.5 L 100.515625 406.5 Z M 100.515625 391.6875 " style=" stroke:none;fill-rule:nonzero;fill:rgb(19.607843%,23.137255%,35.294118%);fill-opacity:1;" />
<path d="M 100.515625 416.542969 L 188.703125 416.542969 L 188.703125 431.359375 L 100.515625 431.359375 Z M 100.515625 416.542969 " style=" stroke:none;fill-rule:nonzero;fill:rgb(19.607843%,23.137255%,35.294118%);fill-opacity:1;" />
<path d="M 285.628906 317.113281 L 373.8125 317.113281 L 373.8125 331.929688 L 285.628906 331.929688 Z M 285.628906 317.113281 " style=" stroke:none;fill-rule:nonzero;fill:rgb(19.607843%,23.137255%,35.294118%);fill-opacity:1;" />
<path d="M 285.628906 341.972656 L 373.8125 341.972656 L 373.8125 356.785156 L 285.628906 356.785156 Z M 285.628906 341.972656 " style=" stroke:none;fill-rule:nonzero;fill:rgb(19.607843%,23.137255%,35.294118%);fill-opacity:1;" />
<path d="M 285.628906 366.828125 L 373.8125 366.828125 L 373.8125 381.644531 L 285.628906 381.644531 Z M 285.628906 366.828125 " style=" stroke:none;fill-rule:nonzero;fill:rgb(19.607843%,23.137255%,35.294118%);fill-opacity:1;" />
<path d="M 285.628906 391.6875 L 373.8125 391.6875 L 373.8125 406.5 L 285.628906 406.5 Z M 285.628906 391.6875 " style=" stroke:none;fill-rule:nonzero;fill:rgb(19.607843%,23.137255%,35.294118%);fill-opacity:1;" />
<path d="M 285.628906 416.542969 L 373.8125 416.542969 L 373.8125 431.359375 L 285.628906 431.359375 Z M 285.628906 416.542969 " style=" stroke:none;fill-rule:nonzero;fill:rgb(19.607843%,23.137255%,35.294118%);fill-opacity:1;" />
<path d="M 415.375 168.609375 L 118.601562 168.609375 C 113.453125 168.609375 108.351562 167.644531 103.558594 165.769531 L 74.21875 154.28125 C 72.726562 153.695312 71.980469 152.351562 71.980469 151 C 71.980469 149.648438 72.726562 148.304688 74.21875 147.71875 L 88.328125 142.191406 L 103.558594 136.230469 C 108.351562 134.355469 113.453125 133.390625 118.601562 133.390625 L 415.375 133.390625 Z M 415.375 168.609375 " style=" stroke:none;fill-rule:nonzero;fill:rgb(100%,91.372549%,33.333333%);fill-opacity:1;" />
<path d="M 415.375 168.609375 L 118.601562 168.609375 C 113.453125 168.609375 108.351562 167.644531 103.558594 165.769531 L 74.21875 154.28125 C 72.726562 153.695312 71.980469 152.351562 71.980469 151 C 71.980469 149.648438 72.726562 148.304688 74.21875 147.71875 L 88.328125 142.191406 L 415.375 142.191406 Z M 415.375 168.609375 " style=" stroke:none;fill-rule:nonzero;fill:rgb(100%,81.960784%,7.058824%);fill-opacity:1;" />
<path d="M 415.375 168.609375 L 118.601562 168.609375 C 113.453125 168.609375 108.351562 167.644531 103.558594 165.769531 L 74.21875 154.28125 C 72.726562 153.695312 71.980469 152.351562 71.980469 151 L 415.375 151 Z M 415.375 168.609375 " style=" stroke:none;fill-rule:nonzero;fill:rgb(100%,62.352941%,0%);fill-opacity:1;" />
<path d="M 118.601562 168.609375 C 113.453125 168.609375 108.351562 167.644531 103.558594 165.769531 L 103.1875 165.625 L 74.214844 154.28125 C 72.722656 153.695312 71.980469 152.351562 71.980469 151 C 71.980469 149.648438 72.722656 148.304688 74.214844 147.71875 L 88.328125 142.191406 L 103.1875 136.375 L 103.558594 136.230469 C 108.351562 134.355469 113.453125 133.390625 118.601562 133.390625 Z M 118.601562 168.609375 " style=" stroke:none;fill-rule:nonzero;fill:rgb(100%,100%,100%);fill-opacity:1;" />
<path d="M 118.601562 168.609375 C 113.453125 168.609375 108.351562 167.644531 103.558594 165.769531 L 74.21875 154.28125 C 72.726562 153.695312 71.980469 152.351562 71.980469 151 C 71.980469 149.648438 72.726562 148.304688 74.21875 147.71875 L 88.328125 142.191406 L 118.601562 142.191406 Z M 118.601562 168.609375 " style=" stroke:none;fill-rule:nonzero;fill:rgb(81.568627%,96.470588%,100%);fill-opacity:1;" />
<path d="M 118.601562 168.609375 C 113.453125 168.609375 108.351562 167.644531 103.558594 165.769531 L 74.21875 154.28125 C 72.726562 153.695312 71.980469 152.351562 71.980469 151 L 118.601562 151 Z M 118.601562 168.609375 " style=" stroke:none;fill-rule:nonzero;fill:rgb(39.607843%,69.803922%,100%);fill-opacity:1;" />
<path d="M 284.105469 176 L 434.304688 176 C 440.785156 176 446.035156 170.75 446.035156 164.269531 L 446.035156 137.730469 C 446.035156 131.25 440.785156 126 434.304688 126 L 284.105469 126 C 277.625 126 272.375 131.25 272.375 137.730469 L 272.375 164.269531 C 272.375 170.75 277.625 176 284.105469 176 Z M 284.105469 176 " style=" stroke:none;fill-rule:nonzero;fill:rgb(100%,91.372549%,33.333333%);fill-opacity:1;" />
<path d="M 284.105469 176 L 434.304688 176 C 440.785156 176 446.035156 170.75 446.035156 164.269531 L 446.035156 150.230469 C 446.035156 143.75 440.785156 138.5 434.304688 138.5 L 284.105469 138.5 C 277.625 138.5 272.375 143.75 272.375 150.230469 L 272.375 164.269531 C 272.375 170.75 277.625 176 284.105469 176 Z M 284.105469 176 " style=" stroke:none;fill-rule:nonzero;fill:rgb(100%,81.960784%,7.058824%);fill-opacity:1;" />
<path d="M 284.105469 176 L 434.304688 176 C 440.785156 176 446.035156 170.75 446.035156 164.269531 L 446.035156 151 L 272.375 151 L 272.375 164.269531 C 272.375 170.75 277.625 176 284.105469 176 Z M 284.105469 176 " style=" stroke:none;fill-rule:nonzero;fill:rgb(100%,62.352941%,0%);fill-opacity:1;" />
<path d="M 399.375 124.476562 L 421.375 124.476562 L 421.375 177.523438 L 399.375 177.523438 Z M 399.375 124.476562 " style=" stroke:none;fill-rule:nonzero;fill:rgb(45.490196%,49.411765%,61.960784%);fill-opacity:1;" />
<path d="M 399.375 137.738281 L 421.375 137.738281 L 421.375 177.523438 L 399.375 177.523438 Z M 399.375 137.738281 " style=" stroke:none;fill-rule:nonzero;fill:rgb(27.843137%,30.980392%,43.529412%);fill-opacity:1;" />
<path d="M 299.183594 187.050781 L 400.851562 187.050781 C 406.109375 187.050781 410.375 182.785156 410.375 177.523438 L 399.375 177.523438 L 399.375 151 L 421.375 151 L 421.375 180.691406 C 421.375 190.304688 413.582031 198.097656 403.96875 198.097656 L 310.234375 198.097656 C 304.132812 198.097656 299.183594 193.152344 299.183594 187.050781 Z M 299.183594 187.050781 " style=" stroke:none;fill-rule:nonzero;fill:rgb(19.607843%,23.137255%,35.294118%);fill-opacity:1;" />
</g>
</svg>