<svg xmlns="http://www.w3.org/2000/svg" height="512pt" version="1.1" viewBox="0 0 512 512" width="512pt">
<g id="surface1">
<path d="M 512 256 C 512 397.386719 397.386719 512 256 512 C 114.613281 512 0 397.386719 0 256 C 0 114.613281 114.613281 0 256 0 C 397.386719 0 512 114.613281 512 256 Z M 512 256 " style=" stroke:none;fill-rule:nonzero;fill:rgb(61.960784%,41.176471%,88.627451%);fill-opacity:1;" />
<path d="M 512 256 C 512 282.050781 508.109375 307.191406 500.871094 330.871094 C 468.859375 435.71875 371.328125 512 256 512 C 151.441406 512 61.511719 449.300781 21.769531 359.449219 C 7.769531 327.820312 0 292.820312 0 256 C 0 209.78125 12.25 166.429688 33.679688 129 C 77.800781 206.070312 160.839844 258 256 258 C 351.160156 258 434.210938 206.070312 478.320312 129 C 499.75 166.429688 512 209.78125 512 256 Z M 512 256 " style=" stroke:none;fill-rule:nonzero;fill:rgb(55.686275%,30.980392%,82.352941%);fill-opacity:1;" />
<path d="M 30.742188 377.703125 C 37.898438 390.921875 46.171875 403.441406 55.460938 415.128906 C 102.359375 474.148438 174.761719 512 256 512 C 337.238281 512 409.640625 474.148438 456.539062 415.128906 C 465.828125 403.441406 474.101562 390.921875 481.257812 377.703125 Z M 30.742188 377.703125 " style=" stroke:none;fill-rule:nonzero;fill:rgb(43.921569%,21.960784%,72.941176%);fill-opacity:1;" />
<path d="M 131.371094 173.949219 L 131.371094 479.660156 C 118.601562 472.53125 106.511719 464.351562 95.210938 455.210938 C 91.429688 452.160156 87.730469 448.988281 84.128906 445.730469 C 80.339844 442.289062 76.648438 438.738281 73.070312 435.089844 C 67.28125 429.171875 61.769531 422.980469 56.578125 416.53125 C 49.421875 407.648438 42.839844 398.28125 36.898438 388.46875 L 36.898438 173.949219 C 36.898438 167.898438 41.800781 163 47.851562 163 L 120.421875 163 C 126.46875 163 131.371094 167.898438 131.371094 173.949219 Z M 131.371094 173.949219 " style=" stroke:none;fill-rule:nonzero;fill:rgb(39.607843%,69.803922%,100%);fill-opacity:1;" />
<path d="M 131.371094 173.949219 L 131.371094 479.660156 C 118.601562 472.53125 106.511719 464.351562 95.210938 455.210938 C 91.429688 452.160156 87.730469 448.988281 84.128906 445.730469 C 80.339844 442.289062 76.648438 438.738281 73.070312 435.089844 C 67.28125 429.171875 61.769531 422.980469 56.578125 416.53125 L 56.578125 173.949219 C 56.578125 167.898438 61.480469 163 67.53125 163 L 120.421875 163 C 126.46875 163 131.371094 167.898438 131.371094 173.949219 Z M 131.371094 173.949219 " style=" stroke:none;fill-rule:nonzero;fill:rgb(5.882353%,60.784314%,90.980392%);fill-opacity:1;" />
<path d="M 131.371094 173.949219 L 131.371094 479.660156 C 118.601562 472.53125 106.511719 464.351562 95.210938 455.210938 C 91.429688 452.160156 87.730469 448.988281 84.128906 445.730469 L 84.128906 163 L 120.421875 163 C 126.46875 163 131.371094 167.898438 131.371094 173.949219 Z M 131.371094 173.949219 " style=" stroke:none;fill-rule:nonzero;fill:rgb(0%,40%,90.980392%);fill-opacity:1;" />
<path d="M 111.683594 199.574219 L 111.683594 290.226562 C 111.683594 295.628906 107.304688 300.007812 101.902344 300.007812 L 66.359375 300.007812 C 60.960938 300.007812 56.578125 295.628906 56.578125 290.226562 L 56.578125 199.574219 C 56.578125 194.167969 60.960938 189.785156 66.359375 189.785156 L 101.902344 189.785156 C 107.304688 189.785156 111.683594 194.167969 111.683594 199.574219 Z M 111.683594 199.574219 " style=" stroke:none;fill-rule:nonzero;fill:rgb(100%,100%,100%);fill-opacity:1;" />
<path d="M 111.683594 199.574219 L 111.683594 290.226562 C 111.683594 295.628906 107.304688 300.007812 101.902344 300.007812 L 80.136719 300.007812 C 74.738281 300.007812 70.355469 295.628906 70.355469 290.226562 L 70.355469 199.574219 C 70.355469 194.167969 74.738281 189.785156 80.136719 189.785156 L 101.902344 189.785156 C 107.304688 189.785156 111.683594 194.167969 111.683594 199.574219 Z M 111.683594 199.574219 " style=" stroke:none;fill-rule:nonzero;fill:rgb(81.568627%,96.470588%,100%);fill-opacity:1;" />
<path d="M 111.6875 199.574219 L 111.6875 290.226562 C 111.6875 295.628906 107.304688 300.007812 101.90625 300.007812 L 84.136719 300.007812 L 84.136719 189.785156 L 101.90625 189.785156 C 107.304688 189.785156 111.6875 194.167969 111.6875 199.574219 Z M 111.6875 199.574219 " style=" stroke:none;fill-rule:nonzero;fill:rgb(56.078431%,78.823529%,96.862745%);fill-opacity:1;" />
<path d="M 95.210938 318.75 L 95.210938 455.210938 C 91.429688 452.160156 87.730469 448.988281 84.128906 445.730469 C 80.339844 442.289062 76.648438 438.738281 73.070312 435.089844 L 73.070312 318.75 C 73.070312 316.550781 74.859375 314.761719 77.058594 314.761719 L 91.210938 314.761719 C 93.410156 314.761719 95.210938 316.550781 95.210938 318.75 Z M 95.210938 318.75 " style=" stroke:none;fill-rule:nonzero;fill:rgb(81.568627%,96.470588%,100%);fill-opacity:1;" />
<path d="M 56.578125 208.863281 L 111.683594 208.863281 L 111.683594 230.785156 L 56.578125 230.785156 Z M 56.578125 208.863281 " style=" stroke:none;fill-rule:nonzero;fill:rgb(45.490196%,49.411765%,61.960784%);fill-opacity:1;" />
<path d="M 70.355469 208.863281 L 111.683594 208.863281 L 111.683594 230.785156 L 70.355469 230.785156 Z M 70.355469 208.863281 " style=" stroke:none;fill-rule:nonzero;fill:rgb(27.843137%,30.980392%,43.529412%);fill-opacity:1;" />
<path d="M 56.578125 246.253906 L 111.683594 246.253906 L 111.683594 268.179688 L 56.578125 268.179688 Z M 56.578125 246.253906 " style=" stroke:none;fill-rule:nonzero;fill:rgb(45.490196%,49.411765%,61.960784%);fill-opacity:1;" />
<path d="M 70.355469 246.253906 L 111.683594 246.253906 L 111.683594 268.179688 L 70.355469 268.179688 Z M 70.355469 246.253906 " style=" stroke:none;fill-rule:nonzero;fill:rgb(27.843137%,30.980392%,43.529412%);fill-opacity:1;" />
<path d="M 84.132812 208.863281 L 111.683594 208.863281 L 111.683594 230.785156 L 84.132812 230.785156 Z M 84.132812 208.863281 " style=" stroke:none;fill-rule:nonzero;fill:rgb(19.607843%,23.137255%,35.294118%);fill-opacity:1;" />
<path d="M 84.132812 246.253906 L 111.683594 246.253906 L 111.683594 268.179688 L 84.132812 268.179688 Z M 84.132812 246.253906 " style=" stroke:none;fill-rule:nonzero;fill:rgb(19.607843%,23.137255%,35.294118%);fill-opacity:1;" />
<path d="M 95.210938 318.75 L 95.210938 455.210938 C 91.429688 452.160156 87.730469 448.988281 84.128906 445.730469 L 84.128906 314.761719 L 91.210938 314.761719 C 93.410156 314.761719 95.210938 316.550781 95.210938 318.75 Z M 95.210938 318.75 " style=" stroke:none;fill-rule:nonzero;fill:rgb(56.078431%,78.823529%,96.862745%);fill-opacity:1;" />
<path d="M 225.828125 173.949219 L 225.828125 501.050781 C 225.828125 504.078125 224.601562 506.808594 222.621094 508.789062 C 222.300781 509.121094 221.960938 509.421875 221.601562 509.699219 C 221.589844 509.710938 221.589844 509.699219 221.589844 509.699219 C 206.820312 507.71875 192.460938 504.480469 178.601562 500.078125 C 169.171875 497.101562 159.96875 493.578125 151.050781 489.558594 C 144.328125 486.539062 137.761719 483.230469 131.371094 479.660156 L 131.371094 173.949219 C 131.371094 167.898438 136.269531 163 142.320312 163 L 214.890625 163 C 216.019531 163 217.101562 163.171875 218.128906 163.488281 C 218.308594 163.539062 218.480469 163.601562 218.640625 163.660156 C 218.808594 163.71875 218.980469 163.789062 219.140625 163.859375 C 220.449219 164.410156 221.628906 165.210938 222.621094 166.210938 C 224.601562 168.191406 225.828125 170.921875 225.828125 173.949219 Z M 225.828125 173.949219 " style=" stroke:none;fill-rule:nonzero;fill:rgb(100%,91.372549%,33.333333%);fill-opacity:1;" />
<path d="M 225.828125 173.949219 L 225.828125 501.050781 C 225.828125 504.078125 224.601562 506.808594 222.621094 508.789062 C 222.300781 509.121094 221.960938 509.421875 221.601562 509.699219 C 221.589844 509.710938 221.589844 509.699219 221.589844 509.699219 C 206.820312 507.71875 192.460938 504.480469 178.601562 500.078125 C 169.171875 497.101562 159.96875 493.578125 151.050781 489.558594 L 151.050781 173.949219 C 151.050781 167.898438 155.949219 163 162 163 L 214.890625 163 C 216.019531 163 217.101562 163.171875 218.128906 163.488281 C 218.308594 163.539062 218.480469 163.601562 218.640625 163.660156 C 218.808594 163.71875 218.980469 163.789062 219.140625 163.859375 C 220.449219 164.410156 221.628906 165.210938 222.621094 166.210938 C 224.601562 168.191406 225.828125 170.921875 225.828125 173.949219 Z M 225.828125 173.949219 " style=" stroke:none;fill-rule:nonzero;fill:rgb(100%,81.960784%,7.058824%);fill-opacity:1;" />
<path d="M 225.839844 173.949219 L 225.839844 501.050781 C 225.839844 504.078125 224.609375 506.820312 222.621094 508.789062 C 222.300781 509.121094 221.960938 509.421875 221.601562 509.699219 C 221.550781 509.738281 221.488281 509.78125 221.441406 509.828125 C 221.488281 509.78125 221.539062 509.738281 221.589844 509.699219 C 206.820312 507.71875 192.460938 504.480469 178.601562 500.078125 L 178.601562 163 L 214.890625 163 C 216.019531 163 217.101562 163.171875 218.128906 163.488281 C 218.308594 163.539062 218.480469 163.601562 218.640625 163.660156 C 218.808594 163.71875 218.980469 163.789062 219.140625 163.859375 C 220.449219 164.410156 221.628906 165.210938 222.621094 166.210938 C 224.609375 168.179688 225.839844 170.921875 225.839844 173.949219 Z M 225.839844 173.949219 " style=" stroke:none;fill-rule:nonzero;fill:rgb(100%,62.352941%,0%);fill-opacity:1;" />
<path d="M 206.152344 199.574219 L 206.152344 290.226562 C 206.152344 295.628906 201.769531 300.007812 196.371094 300.007812 L 160.828125 300.007812 C 155.429688 300.007812 151.046875 295.628906 151.046875 290.226562 L 151.046875 199.574219 C 151.046875 194.167969 155.429688 189.785156 160.828125 189.785156 L 196.371094 189.785156 C 201.769531 189.785156 206.152344 194.167969 206.152344 199.574219 Z M 206.152344 199.574219 " style=" stroke:none;fill-rule:nonzero;fill:rgb(100%,100%,100%);fill-opacity:1;" />
<path d="M 206.152344 199.574219 L 206.152344 290.226562 C 206.152344 295.628906 201.769531 300.007812 196.371094 300.007812 L 174.605469 300.007812 C 169.207031 300.007812 164.824219 295.628906 164.824219 290.226562 L 164.824219 199.574219 C 164.824219 194.167969 169.207031 189.785156 174.605469 189.785156 L 196.371094 189.785156 C 201.769531 189.785156 206.152344 194.167969 206.152344 199.574219 Z M 206.152344 199.574219 " style=" stroke:none;fill-rule:nonzero;fill:rgb(81.568627%,96.470588%,100%);fill-opacity:1;" />
<path d="M 206.15625 199.574219 L 206.15625 290.226562 C 206.15625 295.628906 201.773438 300.007812 196.375 300.007812 L 178.605469 300.007812 L 178.605469 189.785156 L 196.375 189.785156 C 201.773438 189.785156 206.15625 194.167969 206.15625 199.574219 Z M 206.15625 199.574219 " style=" stroke:none;fill-rule:nonzero;fill:rgb(56.078431%,78.823529%,96.862745%);fill-opacity:1;" />
<path d="M 151.046875 208.863281 L 206.152344 208.863281 L 206.152344 230.785156 L 151.046875 230.785156 Z M 151.046875 208.863281 " style=" stroke:none;fill-rule:nonzero;fill:rgb(45.490196%,49.411765%,61.960784%);fill-opacity:1;" />
<path d="M 164.824219 208.863281 L 206.152344 208.863281 L 206.152344 230.785156 L 164.824219 230.785156 Z M 164.824219 208.863281 " style=" stroke:none;fill-rule:nonzero;fill:rgb(27.843137%,30.980392%,43.529412%);fill-opacity:1;" />
<path d="M 151.046875 246.253906 L 206.152344 246.253906 L 206.152344 268.179688 L 151.046875 268.179688 Z M 151.046875 246.253906 " style=" stroke:none;fill-rule:nonzero;fill:rgb(45.490196%,49.411765%,61.960784%);fill-opacity:1;" />
<path d="M 164.824219 246.253906 L 206.152344 246.253906 L 206.152344 268.179688 L 164.824219 268.179688 Z M 164.824219 246.253906 " style=" stroke:none;fill-rule:nonzero;fill:rgb(27.843137%,30.980392%,43.529412%);fill-opacity:1;" />
<path d="M 178.601562 208.863281 L 206.152344 208.863281 L 206.152344 230.785156 L 178.601562 230.785156 Z M 178.601562 208.863281 " style=" stroke:none;fill-rule:nonzero;fill:rgb(19.607843%,23.137255%,35.294118%);fill-opacity:1;" />
<path d="M 178.601562 246.253906 L 206.152344 246.253906 L 206.152344 268.179688 L 178.601562 268.179688 Z M 178.601562 246.253906 " style=" stroke:none;fill-rule:nonzero;fill:rgb(19.607843%,23.137255%,35.294118%);fill-opacity:1;" />
<path d="M 199.269531 460.503906 C 199.269531 471.914062 190.015625 481.167969 178.605469 481.167969 C 167.191406 481.167969 157.941406 471.914062 157.941406 460.503906 C 157.941406 449.089844 167.191406 439.839844 178.605469 439.839844 C 190.015625 439.839844 199.269531 449.089844 199.269531 460.503906 Z M 199.269531 460.503906 " style=" stroke:none;fill-rule:nonzero;fill:rgb(81.568627%,96.470588%,100%);fill-opacity:1;" />
<path d="M 199.269531 460.503906 C 199.269531 471.917969 190.015625 481.167969 178.605469 481.167969 L 178.605469 439.839844 C 190.015625 439.839844 199.269531 449.089844 199.269531 460.503906 Z M 199.269531 460.503906 " style=" stroke:none;fill-rule:nonzero;fill:rgb(56.078431%,78.823529%,96.862745%);fill-opacity:1;" />
<path d="M 320.300781 173.949219 L 320.300781 501.050781 C 320.300781 502.058594 320.160156 503.03125 319.910156 503.960938 C 304.789062 507.839844 289.128906 510.378906 273.070312 511.441406 L 273.070312 512 L 236.789062 512 C 235.058594 512 233.429688 511.601562 231.980469 510.890625 L 231.96875 510.890625 C 228.339844 509.101562 225.839844 505.371094 225.839844 501.050781 L 225.839844 173.949219 C 225.839844 167.898438 230.738281 163 236.789062 163 L 309.359375 163 C 315.398438 163 320.300781 167.898438 320.300781 173.949219 Z M 320.300781 173.949219 " style=" stroke:none;fill-rule:nonzero;fill:rgb(45.490196%,49.411765%,61.960784%);fill-opacity:1;" />
<path d="M 320.300781 173.949219 L 320.300781 501.050781 C 320.300781 502.058594 320.160156 503.03125 319.910156 503.960938 C 304.789062 507.839844 289.128906 510.378906 273.070312 511.441406 L 273.070312 512 L 256.46875 512 C 250.421875 512 245.519531 507.101562 245.519531 501.050781 L 245.519531 173.949219 C 245.519531 167.898438 250.421875 163 256.46875 163 L 309.359375 163 C 315.398438 163 320.300781 167.898438 320.300781 173.949219 Z M 320.300781 173.949219 " style=" stroke:none;fill-rule:nonzero;fill:rgb(27.843137%,30.980392%,43.529412%);fill-opacity:1;" />
<path d="M 320.300781 173.949219 L 320.300781 501.050781 C 320.300781 502.058594 320.160156 503.03125 319.910156 503.960938 C 304.789062 507.839844 289.128906 510.378906 273.070312 511.441406 L 273.070312 163 L 309.359375 163 C 315.398438 163 320.300781 167.898438 320.300781 173.949219 Z M 320.300781 173.949219 " style=" stroke:none;fill-rule:nonzero;fill:rgb(19.607843%,23.137255%,35.294118%);fill-opacity:1;" />
<path d="M 225.839844 201.527344 L 320.304688 201.527344 L 320.304688 224.160156 L 225.839844 224.160156 Z M 225.839844 201.527344 " style=" stroke:none;fill-rule:nonzero;fill:rgb(100%,91.372549%,33.333333%);fill-opacity:1;" />
<path d="M 245.519531 201.527344 L 320.304688 201.527344 L 320.304688 224.160156 L 245.519531 224.160156 Z M 245.519531 201.527344 " style=" stroke:none;fill-rule:nonzero;fill:rgb(100%,81.960784%,7.058824%);fill-opacity:1;" />
<path d="M 273.070312 201.527344 L 320.304688 201.527344 L 320.304688 224.160156 L 273.070312 224.160156 Z M 273.070312 201.527344 " style=" stroke:none;fill-rule:nonzero;fill:rgb(100%,62.352941%,0%);fill-opacity:1;" />
<path d="M 225.839844 454.539062 L 320.304688 454.539062 L 320.304688 477.175781 L 225.839844 477.175781 Z M 225.839844 454.539062 " style=" stroke:none;fill-rule:nonzero;fill:rgb(100%,91.372549%,33.333333%);fill-opacity:1;" />
<path d="M 245.519531 454.539062 L 320.304688 454.539062 L 320.304688 477.175781 L 245.519531 477.175781 Z M 245.519531 454.539062 " style=" stroke:none;fill-rule:nonzero;fill:rgb(100%,81.960784%,7.058824%);fill-opacity:1;" />
<path d="M 273.070312 454.539062 L 320.304688 454.539062 L 320.304688 477.175781 L 273.070312 477.175781 Z M 273.070312 454.539062 " style=" stroke:none;fill-rule:nonzero;fill:rgb(100%,62.352941%,0%);fill-opacity:1;" />
<path d="M 302.035156 269.078125 L 302.035156 410.960938 C 302.035156 417.515625 296.726562 422.820312 290.171875 422.820312 L 257.378906 422.820312 C 250.824219 422.820312 245.519531 417.515625 245.519531 410.960938 L 245.519531 269.078125 C 245.519531 262.523438 250.824219 257.21875 257.378906 257.21875 L 290.171875 257.21875 C 296.726562 257.21875 302.035156 262.523438 302.035156 269.078125 Z M 302.035156 269.078125 " style=" stroke:none;fill-rule:nonzero;fill:rgb(81.568627%,96.470588%,100%);fill-opacity:1;" />
<path d="M 302.035156 269.078125 L 302.035156 410.960938 C 302.035156 417.515625 296.726562 422.820312 290.171875 422.820312 L 273.070312 422.820312 L 273.070312 257.21875 L 290.171875 257.21875 C 296.726562 257.21875 302.035156 262.523438 302.035156 269.078125 Z M 302.035156 269.078125 " style=" stroke:none;fill-rule:nonzero;fill:rgb(56.078431%,78.823529%,96.862745%);fill-opacity:1;" />
<path d="M 397.699219 235.03125 L 397.699219 469.238281 C 389.941406 474.410156 381.871094 479.160156 373.539062 483.46875 C 368.78125 485.941406 363.929688 488.261719 359 490.429688 C 351.648438 493.671875 344.121094 496.558594 336.429688 499.101562 C 331.140625 500.859375 325.78125 502.441406 320.351562 503.839844 C 320.320312 503.570312 320.308594 503.300781 320.308594 503.03125 L 320.308594 235.03125 C 320.308594 230.078125 324.320312 226.058594 329.28125 226.058594 L 388.730469 226.058594 C 393.691406 226.058594 397.699219 230.078125 397.699219 235.03125 Z M 397.699219 235.03125 " style=" stroke:none;fill-rule:nonzero;fill:rgb(39.607843%,69.803922%,100%);fill-opacity:1;" />
<path d="M 397.699219 235.03125 L 397.699219 469.238281 C 389.941406 474.410156 381.871094 479.160156 373.539062 483.46875 C 368.78125 485.941406 363.929688 488.261719 359 490.429688 C 351.648438 493.671875 344.121094 496.558594 336.429688 499.101562 L 336.429688 235.03125 C 336.429688 230.078125 340.449219 226.058594 345.398438 226.058594 L 388.730469 226.058594 C 393.691406 226.058594 397.699219 230.078125 397.699219 235.03125 Z M 397.699219 235.03125 " style=" stroke:none;fill-rule:nonzero;fill:rgb(5.882353%,60.784314%,90.980392%);fill-opacity:1;" />
<path d="M 397.699219 235.03125 L 397.699219 469.238281 C 389.941406 474.410156 381.871094 479.160156 373.539062 483.46875 C 368.78125 485.941406 363.929688 488.261719 359 490.429688 L 359 226.058594 L 388.730469 226.058594 C 393.691406 226.058594 397.699219 230.078125 397.699219 235.03125 Z M 397.699219 235.03125 " style=" stroke:none;fill-rule:nonzero;fill:rgb(0%,40%,90.980392%);fill-opacity:1;" />
<path d="M 320.304688 257.628906 L 397.703125 257.628906 L 397.703125 276.171875 L 320.304688 276.171875 Z M 320.304688 257.628906 " style=" stroke:none;fill-rule:nonzero;fill:rgb(100%,91.372549%,33.333333%);fill-opacity:1;" />
<path d="M 336.429688 257.628906 L 397.703125 257.628906 L 397.703125 276.171875 L 336.429688 276.171875 Z M 336.429688 257.628906 " style=" stroke:none;fill-rule:nonzero;fill:rgb(100%,81.960784%,7.058824%);fill-opacity:1;" />
<path d="M 359.003906 257.628906 L 397.703125 257.628906 L 397.703125 276.171875 L 359.003906 276.171875 Z M 359.003906 257.628906 " style=" stroke:none;fill-rule:nonzero;fill:rgb(100%,62.352941%,0%);fill-opacity:1;" />
<path d="M 397.699219 464.921875 L 397.699219 469.238281 C 389.941406 474.410156 381.871094 479.160156 373.539062 483.46875 L 320.308594 483.46875 L 320.308594 464.921875 Z M 397.699219 464.921875 " style=" stroke:none;fill-rule:nonzero;fill:rgb(100%,91.372549%,33.333333%);fill-opacity:1;" />
<path d="M 397.699219 464.921875 L 397.699219 469.238281 C 389.941406 474.410156 381.871094 479.160156 373.539062 483.46875 L 336.429688 483.46875 L 336.429688 464.921875 Z M 397.699219 464.921875 " style=" stroke:none;fill-rule:nonzero;fill:rgb(100%,81.960784%,7.058824%);fill-opacity:1;" />
<path d="M 397.699219 464.921875 L 397.699219 469.238281 C 389.941406 474.410156 381.871094 479.160156 373.539062 483.46875 L 359 483.46875 L 359 464.921875 Z M 397.699219 464.921875 " style=" stroke:none;fill-rule:nonzero;fill:rgb(100%,62.352941%,0%);fill-opacity:1;" />
<path d="M 382.734375 312.972656 L 382.734375 429.21875 C 382.734375 434.585938 378.386719 438.933594 373.015625 438.933594 L 346.148438 438.933594 C 340.777344 438.933594 336.429688 434.585938 336.429688 429.21875 L 336.429688 312.972656 C 336.429688 307.601562 340.777344 303.253906 346.148438 303.253906 L 373.015625 303.253906 C 378.386719 303.253906 382.734375 307.601562 382.734375 312.972656 Z M 382.734375 312.972656 " style=" stroke:none;fill-rule:nonzero;fill:rgb(81.568627%,96.470588%,100%);fill-opacity:1;" />
<path d="M 382.734375 312.972656 L 382.734375 429.21875 C 382.734375 434.585938 378.386719 438.933594 373.015625 438.933594 L 359.003906 438.933594 L 359.003906 303.253906 L 373.015625 303.253906 C 378.386719 303.253906 382.734375 307.601562 382.734375 312.972656 Z M 382.734375 312.972656 " style=" stroke:none;fill-rule:nonzero;fill:rgb(56.078431%,78.823529%,96.862745%);fill-opacity:1;" />
<path d="M 475.101562 235.03125 L 475.101562 388.46875 C 470.488281 396.089844 465.488281 403.441406 460.128906 410.5 C 452.859375 420.101562 444.929688 429.160156 436.398438 437.628906 L 436.398438 438.929688 L 435.089844 438.929688 C 428.351562 445.519531 421.261719 451.75 413.828125 457.570312 C 410.609375 460.101562 407.320312 462.550781 403.980469 464.921875 C 401.910156 466.390625 399.820312 467.828125 397.699219 469.238281 L 397.699219 235.03125 C 397.699219 230.078125 401.71875 226.058594 406.671875 226.058594 L 466.128906 226.058594 C 471.089844 226.058594 475.101562 230.078125 475.101562 235.03125 Z M 475.101562 235.03125 " style=" stroke:none;fill-rule:nonzero;fill:rgb(100%,20.392157%,27.058824%);fill-opacity:1;" />
<path d="M 475.101562 235.03125 L 475.101562 388.46875 C 470.488281 396.089844 465.488281 403.441406 460.128906 410.5 C 452.859375 420.101562 444.929688 429.160156 436.398438 437.628906 L 436.398438 438.929688 L 435.089844 438.929688 C 428.351562 445.519531 421.261719 451.75 413.828125 457.570312 L 413.828125 235.03125 C 413.828125 230.078125 417.839844 226.058594 422.800781 226.058594 L 466.128906 226.058594 C 471.089844 226.058594 475.101562 230.078125 475.101562 235.03125 Z M 475.101562 235.03125 " style=" stroke:none;fill-rule:nonzero;fill:rgb(86.666667%,7.058824%,39.607843%);fill-opacity:1;" />
<path d="M 475.101562 235.03125 L 475.101562 388.46875 C 470.488281 396.089844 465.488281 403.441406 460.128906 410.5 C 452.859375 420.101562 444.929688 429.160156 436.398438 437.628906 L 436.398438 226.058594 L 466.128906 226.058594 C 471.089844 226.058594 475.101562 230.078125 475.101562 235.03125 Z M 475.101562 235.03125 " style=" stroke:none;fill-rule:nonzero;fill:rgb(72.941176%,5.098039%,36.078431%);fill-opacity:1;" />
<path d="M 397.703125 257.628906 L 475.101562 257.628906 L 475.101562 276.171875 L 397.703125 276.171875 Z M 397.703125 257.628906 " style=" stroke:none;fill-rule:nonzero;fill:rgb(100%,91.372549%,33.333333%);fill-opacity:1;" />
<path d="M 413.828125 257.628906 L 475.101562 257.628906 L 475.101562 276.171875 L 413.828125 276.171875 Z M 413.828125 257.628906 " style=" stroke:none;fill-rule:nonzero;fill:rgb(100%,81.960784%,7.058824%);fill-opacity:1;" />
<path d="M 436.402344 257.628906 L 475.101562 257.628906 L 475.101562 276.171875 L 436.402344 276.171875 Z M 436.402344 257.628906 " style=" stroke:none;fill-rule:nonzero;fill:rgb(100%,62.352941%,0%);fill-opacity:1;" />
<path d="M 403.980469 464.921875 C 401.910156 466.390625 399.820312 467.828125 397.699219 469.238281 L 397.699219 464.921875 Z M 403.980469 464.921875 " style=" stroke:none;fill-rule:nonzero;fill:rgb(100%,91.372549%,33.333333%);fill-opacity:1;" />
<path d="M 460.128906 312.96875 L 460.128906 410.5 C 452.859375 420.101562 444.929688 429.160156 436.398438 437.628906 L 436.398438 438.929688 L 423.550781 438.929688 C 418.179688 438.929688 413.828125 434.589844 413.828125 429.21875 L 413.828125 312.96875 C 413.828125 307.601562 418.179688 303.25 423.550781 303.25 L 450.410156 303.25 C 455.78125 303.25 460.128906 307.601562 460.128906 312.96875 Z M 460.128906 312.96875 " style=" stroke:none;fill-rule:nonzero;fill:rgb(81.568627%,96.470588%,100%);fill-opacity:1;" />
<path d="M 460.128906 312.96875 L 460.128906 410.5 C 452.859375 420.101562 444.929688 429.160156 436.398438 437.628906 L 436.398438 303.25 L 450.410156 303.25 C 455.78125 303.25 460.128906 307.601562 460.128906 312.96875 Z M 460.128906 312.96875 " style=" stroke:none;fill-rule:nonzero;fill:rgb(56.078431%,78.823529%,96.862745%);fill-opacity:1;" />
</g>
</svg>