<svg xmlns="http://www.w3.org/2000/svg" height="512pt" version="1.1" viewBox="0 0 512.00025 512" width="512pt">
<g id="surface1">
<path d="M 511.5625 255.546875 C 511.695312 288.601562 505.550781 321.667969 493.046875 352.367188 C 474.101562 398.894531 440.738281 439.101562 399.171875 467.191406 C 354.433594 497.421875 300.273438 513.445312 246.25 511.382812 C 193.1875 509.359375 140.859375 490.355469 98.9375 457.746094 C 60.304688 427.691406 31.023438 386.207031 15.003906 340.003906 C -7.113281 276.210938 -3.546875 203.632812 26.066406 142.8125 C 47.734375 98.304688 82.957031 60.488281 125.480469 35.230469 C 172.125 7.519531 227.417969 -4.09375 281.328125 1.277344 C 332.585938 6.386719 382.210938 26.949219 421.5625 60.277344 C 459.875 92.722656 487.726562 136.859375 501.546875 185.050781 C 508.117188 207.960938 511.464844 231.75 511.5625 255.546875 Z M 511.5625 255.546875 " style=" stroke:none;fill-rule:nonzero;fill:rgb(70.980392%,88.627451%,21.568627%);fill-opacity:1;" />
<path d="M 512 255.542969 C 511.996094 279.726562 508.609375 303.90625 501.847656 327.132812 C 486.890625 378.527344 455.578125 424.511719 413.40625 457.449219 C 370.617188 490.875 317.597656 509.921875 263.328125 511.464844 C 207.316406 513.054688 151.644531 496.027344 106.207031 463.210938 C 59.839844 429.722656 25.378906 380.824219 9.703125 325.789062 C -5.503906 272.386719 -2.769531 214.070312 17.441406 162.351562 C 19.691406 156.589844 22.15625 150.914062 24.820312 145.335938 C 26.1875 142.480469 27.605469 139.644531 29.074219 136.84375 C 29.726562 135.597656 30.390625 134.359375 31.0625 133.125 C 31.769531 131.828125 32.511719 129.742188 33.621094 128.789062 C 34.933594 129.695312 36.011719 132.613281 36.847656 133.992188 C 38.019531 135.929688 39.21875 137.847656 40.441406 139.75 C 42.800781 143.421875 45.253906 147.035156 47.796875 150.582031 C 52.789062 157.539062 58.128906 164.246094 63.785156 170.667969 C 75.195312 183.621094 87.90625 195.421875 101.671875 205.835938 C 129.460938 226.855469 161.503906 242.105469 195.367188 250.328125 C 230.621094 258.882812 267.691406 259.839844 303.34375 253.167969 C 337.898438 246.707031 370.980469 233.003906 400.019531 213.207031 C 428.578125 193.734375 453.117188 168.480469 471.75 139.367188 C 472.804688 137.71875 473.84375 136.054688 474.863281 134.378906 C 475.410156 133.476562 475.957031 132.574219 476.492188 131.664062 C 476.988281 130.820312 477.449219 129.289062 478.324219 128.789062 C 479.691406 129.960938 480.53125 132.464844 481.386719 134.050781 C 482.304688 135.75 483.203125 137.460938 484.082031 139.183594 C 486.085938 143.105469 487.988281 147.078125 489.789062 151.097656 C 493.117188 158.539062 496.089844 166.140625 498.691406 173.867188 C 503.980469 189.589844 507.722656 205.828125 509.855469 222.277344 C 511.289062 233.304688 512 244.425781 512 255.542969 Z M 512 255.542969 " style=" stroke:none;fill-rule:nonzero;fill:rgb(58.431373%,83.921569%,0%);fill-opacity:1;" />
<path d="M 30.691406 377.261719 C 37.847656 390.476562 46.125 403 55.414062 414.691406 C 102.316406 473.714844 174.726562 511.570312 255.972656 511.570312 C 337.222656 511.570312 409.628906 473.714844 456.53125 414.691406 C 465.820312 403 474.09375 390.476562 481.253906 377.261719 Z M 30.691406 377.261719 " style=" stroke:none;fill-rule:nonzero;fill:rgb(52.156863%,68.627451%,7.058824%);fill-opacity:1;" />
<path d="M 429.921875 177.867188 L 429.921875 417.742188 L 82.023438 417.742188 L 82.023438 177.867188 C 82.023438 171.058594 87.550781 165.535156 94.367188 165.535156 L 417.578125 165.535156 C 424.398438 165.535156 429.921875 171.058594 429.921875 177.867188 Z M 429.921875 177.867188 " style=" stroke:none;fill-rule:nonzero;fill:rgb(45.490196%,49.411765%,61.960784%);fill-opacity:1;" />
<path d="M 429.921875 177.867188 L 429.921875 417.742188 L 168.445312 417.742188 L 168.445312 165.535156 L 417.578125 165.535156 C 424.398438 165.535156 429.921875 171.058594 429.921875 177.867188 Z M 429.921875 177.867188 " style=" stroke:none;fill-rule:nonzero;fill:rgb(27.843137%,30.980392%,43.529412%);fill-opacity:1;" />
<path d="M 429.921875 177.867188 L 429.921875 417.742188 L 255.972656 417.742188 L 255.972656 165.535156 L 417.578125 165.535156 C 424.398438 165.535156 429.921875 171.058594 429.921875 177.867188 Z M 429.921875 177.867188 " style=" stroke:none;fill-rule:nonzero;fill:rgb(19.607843%,23.137255%,35.294118%);fill-opacity:1;" />
<path d="M 412.714844 193.46875 L 412.714844 381.722656 L 99.230469 381.722656 L 99.230469 193.46875 C 99.230469 187.375 104.183594 182.417969 110.28125 182.417969 L 401.664062 182.417969 C 407.761719 182.417969 412.714844 187.375 412.714844 193.46875 Z M 412.714844 193.46875 " style=" stroke:none;fill-rule:nonzero;fill:rgb(39.607843%,69.803922%,100%);fill-opacity:1;" />
<path d="M 412.714844 193.46875 L 412.714844 381.722656 L 168.617188 381.722656 L 168.617188 182.417969 L 401.664062 182.417969 C 407.761719 182.417969 412.714844 187.375 412.714844 193.46875 Z M 412.714844 193.46875 " style=" stroke:none;fill-rule:nonzero;fill:rgb(5.882353%,60.784314%,90.980392%);fill-opacity:1;" />
<path d="M 412.714844 193.46875 L 412.714844 381.722656 L 255.972656 381.722656 L 255.972656 182.417969 L 401.664062 182.417969 C 407.761719 182.417969 412.714844 187.375 412.714844 193.46875 Z M 412.714844 193.46875 " style=" stroke:none;fill-rule:nonzero;fill:rgb(0%,40%,90.980392%);fill-opacity:1;" />
<path d="M 392.011719 220.605469 L 392.011719 339.722656 C 392.011719 345.492188 387.335938 350.171875 381.566406 350.171875 L 130.382812 350.171875 C 124.613281 350.171875 119.933594 345.492188 119.933594 339.722656 L 119.933594 220.605469 C 119.933594 214.835938 124.613281 210.15625 130.382812 210.15625 L 381.566406 210.15625 C 387.335938 210.15625 392.011719 214.835938 392.011719 220.605469 Z M 392.011719 220.605469 " style=" stroke:none;fill-rule:nonzero;fill:rgb(100%,100%,100%);fill-opacity:1;" />
<path d="M 392.011719 220.605469 L 392.011719 239.914062 L 119.933594 239.914062 L 119.933594 220.605469 C 119.933594 214.835938 124.613281 210.15625 130.382812 210.15625 L 381.566406 210.15625 C 387.335938 210.15625 392.011719 214.835938 392.011719 220.605469 Z M 392.011719 220.605469 " style=" stroke:none;fill-rule:nonzero;fill:rgb(100%,20.392157%,27.058824%);fill-opacity:1;" />
<path d="M 135.21875 255.769531 L 213.703125 255.769531 L 213.703125 270.402344 L 135.21875 270.402344 Z M 135.21875 255.769531 " style=" stroke:none;fill-rule:nonzero;fill:rgb(27.843137%,30.980392%,43.529412%);fill-opacity:1;" />
<path d="M 135.21875 287.480469 L 255.972656 287.480469 L 255.972656 302.113281 L 135.21875 302.113281 Z M 135.21875 287.480469 " style=" stroke:none;fill-rule:nonzero;fill:rgb(27.843137%,30.980392%,43.529412%);fill-opacity:1;" />
<path d="M 135.21875 319.191406 L 255.972656 319.191406 L 255.972656 333.824219 L 135.21875 333.824219 Z M 135.21875 319.191406 " style=" stroke:none;fill-rule:nonzero;fill:rgb(27.843137%,30.980392%,43.529412%);fill-opacity:1;" />
<path d="M 440.441406 433.0625 L 440.449219 433.0625 C 440.292969 433.230469 440.121094 433.402344 439.949219 433.570312 C 439.859375 433.660156 439.78125 433.75 439.691406 433.839844 C 439.300781 434.25 438.902344 434.671875 438.5 435.082031 L 73.445312 435.082031 C 62.945312 424.398438 53.363281 412.796875 44.863281 400.417969 L 467.082031 400.417969 C 459.113281 412.027344 450.183594 422.941406 440.441406 433.0625 Z M 440.441406 433.0625 " style=" stroke:none;fill-rule:nonzero;fill:rgb(27.843137%,30.980392%,43.529412%);fill-opacity:1;" />
<path d="M 440.441406 433.0625 L 440.449219 433.0625 C 440.292969 433.230469 440.121094 433.402344 439.949219 433.570312 C 439.859375 433.660156 439.78125 433.75 439.691406 433.839844 C 439.300781 434.25 438.902344 434.671875 438.5 435.082031 L 168.445312 435.082031 L 168.445312 400.417969 L 467.082031 400.417969 C 459.113281 412.027344 450.183594 422.941406 440.441406 433.0625 Z M 440.441406 433.0625 " style=" stroke:none;fill-rule:nonzero;fill:rgb(19.607843%,23.137255%,35.294118%);fill-opacity:1;" />
<path d="M 440.441406 433.0625 L 440.449219 433.0625 C 440.292969 433.230469 440.121094 433.402344 439.949219 433.570312 C 439.859375 433.660156 439.78125 433.75 439.691406 433.839844 C 439.300781 434.25 438.902344 434.671875 438.5 435.082031 L 255.972656 435.082031 L 255.972656 400.417969 L 467.082031 400.417969 C 459.113281 412.027344 450.183594 422.941406 440.441406 433.0625 Z M 440.441406 433.0625 " style=" stroke:none;fill-rule:nonzero;fill:rgb(12.54902%,15.294118%,22.745098%);fill-opacity:1;" />
<path d="M 319.605469 400.410156 L 319.605469 400.417969 C 319.597656 408.800781 312.816406 415.582031 304.441406 415.582031 L 207.503906 415.582031 C 199.128906 415.582031 192.339844 408.792969 192.339844 400.410156 Z M 319.605469 400.410156 " style=" stroke:none;fill-rule:nonzero;fill:rgb(45.490196%,49.411765%,61.960784%);fill-opacity:1;" />
<path d="M 319.605469 400.417969 C 319.597656 408.800781 312.816406 415.582031 304.441406 415.582031 L 255.972656 415.582031 L 255.972656 400.417969 Z M 319.605469 400.417969 " style=" stroke:none;fill-rule:nonzero;fill:rgb(27.843137%,30.980392%,43.529412%);fill-opacity:1;" />
<path d="M 440.449219 433.0625 C 440.292969 433.230469 440.121094 433.402344 439.949219 433.570312 C 439.859375 433.660156 439.78125 433.75 439.691406 433.839844 C 439.289062 434.25 438.890625 434.671875 438.480469 435.082031 C 438.410156 435.160156 438.332031 435.242188 438.25 435.320312 C 437.519531 436.070312 436.78125 436.8125 436.03125 437.542969 C 435.28125 438.28125 434.53125 439.019531 433.78125 439.742188 C 433.03125 440.472656 432.261719 441.203125 431.5 441.921875 C 430.738281 442.640625 429.96875 443.351562 429.199219 444.0625 C 428.449219 444.75 427.691406 445.441406 426.941406 446.121094 C 426.03125 446.941406 425.109375 447.753906 424.191406 448.550781 C 423.808594 448.882812 423.417969 449.222656 423.03125 449.550781 C 422.109375 450.351562 421.179688 451.140625 420.238281 451.921875 C 419.257812 452.742188 418.277344 453.554688 417.289062 454.363281 C 416.980469 454.613281 416.660156 454.863281 416.347656 455.113281 C 415.347656 455.921875 414.347656 456.714844 413.339844 457.503906 C 412.769531 457.953125 412.1875 458.402344 411.609375 458.84375 C 408.519531 461.214844 405.367188 463.523438 402.167969 465.742188 C 401.308594 466.34375 400.4375 466.945312 399.566406 467.535156 C 397.828125 468.714844 396.078125 469.875 394.304688 471.015625 C 390.765625 473.292969 387.15625 475.496094 383.484375 477.605469 C 381.675781 478.644531 379.84375 479.664062 378.003906 480.664062 C 377.105469 481.15625 376.195312 481.644531 375.273438 482.125 C 374.363281 482.617188 373.445312 483.085938 372.523438 483.554688 C 371.605469 484.027344 370.683594 484.496094 369.753906 484.957031 C 368.832031 485.414062 367.902344 485.867188 366.964844 486.316406 C 366.035156 486.765625 365.105469 487.214844 364.164062 487.644531 C 363.222656 488.085938 362.285156 488.527344 361.332031 488.945312 C 360.613281 489.277344 359.882812 489.605469 359.152344 489.917969 C 359.042969 489.976562 358.941406 490.015625 358.832031 490.066406 C 358.382812 490.265625 357.941406 490.457031 357.492188 490.644531 C 356.671875 491.007812 355.84375 491.355469 355.011719 491.707031 C 353.300781 492.425781 351.582031 493.125 349.851562 493.808594 C 348.980469 494.148438 348.113281 494.488281 347.230469 494.816406 C 346.140625 495.238281 345.050781 495.648438 343.960938 496.035156 C 342.992188 496.398438 342.019531 496.746094 341.050781 497.085938 C 340.359375 497.335938 339.671875 497.578125 338.972656 497.808594 C 338.851562 497.855469 338.730469 497.898438 338.609375 497.9375 C 337.992188 498.148438 337.359375 498.355469 336.742188 498.558594 C 335.902344 498.847656 335.0625 499.117188 334.21875 499.386719 C 334.058594 499.4375 333.910156 499.488281 333.75 499.539062 C 332.78125 499.847656 331.800781 500.15625 330.832031 500.449219 C 330.71875 500.476562 330.621094 500.515625 330.511719 500.546875 C 329.761719 500.777344 329.011719 500.996094 328.25 501.21875 C 327.871094 501.335938 327.488281 501.449219 327.101562 501.558594 C 327.089844 501.558594 327.070312 501.566406 327.058594 501.566406 C 326.359375 501.765625 325.648438 501.976562 324.941406 502.167969 C 323.070312 502.699219 321.179688 503.199219 319.289062 503.675781 C 318.578125 503.859375 317.878906 504.039062 317.167969 504.207031 C 317 504.246094 316.820312 504.296875 316.640625 504.335938 C 316.507812 504.367188 316.378906 504.398438 316.25 504.429688 C 315.429688 504.628906 314.609375 504.816406 313.789062 505.007812 C 313.359375 505.109375 312.917969 505.207031 312.476562 505.308594 C 312.039062 505.40625 311.597656 505.507812 311.160156 505.597656 C 310.988281 505.636719 310.808594 505.679688 310.636719 505.71875 C 310.046875 505.847656 309.457031 505.96875 308.867188 506.097656 C 308.679688 506.136719 308.476562 506.179688 308.289062 506.21875 C 307.648438 506.347656 306.996094 506.476562 306.359375 506.609375 C 305.96875 506.6875 305.578125 506.769531 305.1875 506.839844 C 304.527344 506.96875 303.878906 507.097656 303.21875 507.207031 C 302.308594 507.386719 301.386719 507.558594 300.46875 507.707031 C 299.816406 507.828125 299.167969 507.949219 298.507812 508.046875 C 298.46875 508.058594 298.417969 508.058594 298.375 508.066406 C 297.605469 508.199219 296.828125 508.328125 296.058594 508.449219 C 295.917969 508.46875 295.785156 508.488281 295.648438 508.507812 C 294.648438 508.667969 293.65625 508.816406 292.65625 508.957031 C 291.894531 509.066406 291.136719 509.179688 290.375 509.269531 C 289.777344 509.359375 289.175781 509.4375 288.574219 509.507812 C 287.617188 509.636719 286.644531 509.757812 285.664062 509.867188 C 285.574219 509.878906 285.484375 509.886719 285.394531 509.898438 C 284.515625 510 283.636719 510.089844 282.746094 510.1875 C 281.65625 510.296875 280.574219 510.410156 279.484375 510.5 C 278.796875 510.570312 278.105469 510.628906 277.40625 510.679688 C 276.824219 510.726562 276.246094 510.777344 275.675781 510.820312 C 275.542969 510.828125 275.425781 510.839844 275.292969 510.847656 C 274.472656 510.910156 273.644531 510.96875 272.824219 511.019531 C 271.703125 511.097656 270.59375 511.160156 269.472656 511.21875 C 268.554688 511.269531 267.632812 511.308594 266.714844 511.339844 C 266.5625 511.347656 266.414062 511.347656 266.265625 511.359375 C 265.09375 511.410156 263.914062 511.449219 262.742188 511.476562 C 261.8125 511.507812 260.882812 511.527344 259.941406 511.539062 L 259.792969 511.539062 C 258.523438 511.558594 257.253906 511.570312 255.972656 511.570312 C 254.691406 511.570312 253.421875 511.558594 252.152344 511.539062 L 252.003906 511.539062 C 251.0625 511.527344 250.132812 511.507812 249.203125 511.476562 C 248.03125 511.449219 246.851562 511.410156 245.683594 511.359375 C 245.53125 511.347656 245.382812 511.347656 245.230469 511.339844 C 244.3125 511.308594 243.390625 511.269531 242.472656 511.21875 C 241.351562 511.160156 240.242188 511.097656 239.121094 511.019531 C 238.300781 510.96875 237.472656 510.910156 236.652344 510.847656 C 236.519531 510.839844 236.402344 510.828125 236.269531 510.820312 C 235.699219 510.777344 235.121094 510.726562 234.539062 510.679688 C 233.839844 510.628906 233.152344 510.570312 232.460938 510.5 C 231.371094 510.410156 230.289062 510.296875 229.199219 510.1875 C 228.308594 510.089844 227.429688 510 226.550781 509.898438 C 226.460938 509.886719 226.371094 509.878906 226.28125 509.867188 C 225.300781 509.757812 224.328125 509.636719 223.371094 509.507812 C 222.769531 509.4375 222.167969 509.359375 221.570312 509.269531 C 220.808594 509.179688 220.050781 509.066406 219.289062 508.957031 C 218.289062 508.816406 217.300781 508.667969 216.296875 508.507812 C 216.160156 508.488281 216.027344 508.46875 215.890625 508.449219 C 215.117188 508.328125 214.339844 508.199219 213.570312 508.066406 C 213.527344 508.058594 213.476562 508.058594 213.4375 508.046875 C 212.777344 507.949219 212.128906 507.828125 211.476562 507.707031 C 210.558594 507.558594 209.636719 507.386719 208.726562 507.207031 C 208.066406 507.097656 207.417969 506.96875 206.757812 506.839844 C 206.367188 506.769531 205.976562 506.6875 205.585938 506.609375 C 204.949219 506.476562 204.296875 506.347656 203.65625 506.21875 C 203.46875 506.179688 203.265625 506.136719 203.078125 506.097656 C 202.488281 505.96875 201.898438 505.847656 201.308594 505.71875 C 201.136719 505.679688 200.957031 505.636719 200.789062 505.597656 C 200.347656 505.507812 199.90625 505.40625 199.46875 505.308594 C 199.027344 505.207031 198.585938 505.109375 198.15625 505.007812 C 197.335938 504.816406 196.515625 504.628906 195.695312 504.429688 C 195.566406 504.398438 195.4375 504.367188 195.308594 504.335938 C 195.125 504.296875 194.957031 504.246094 194.785156 504.207031 C 194.078125 504.039062 193.367188 503.859375 192.65625 503.675781 C 190.765625 503.199219 188.875 502.699219 187.003906 502.167969 C 186.296875 501.976562 185.585938 501.765625 184.886719 501.566406 C 184.875 501.566406 184.855469 501.558594 184.84375 501.558594 C 184.457031 501.449219 184.074219 501.335938 183.695312 501.21875 C 182.933594 500.996094 182.183594 500.777344 181.433594 500.546875 C 181.324219 500.515625 181.226562 500.476562 181.117188 500.449219 C 180.144531 500.15625 179.164062 499.847656 178.195312 499.539062 C 178.035156 499.488281 177.886719 499.4375 177.726562 499.386719 C 176.886719 499.117188 176.042969 498.847656 175.203125 498.558594 C 174.585938 498.355469 173.953125 498.148438 173.335938 497.9375 C 173.214844 497.898438 173.09375 497.855469 172.972656 497.808594 C 172.273438 497.578125 171.585938 497.335938 170.894531 497.085938 C 169.925781 496.746094 168.953125 496.398438 167.984375 496.035156 C 166.894531 495.648438 165.804688 495.238281 164.714844 494.816406 C 163.832031 494.488281 162.964844 494.148438 162.09375 493.808594 C 160.363281 493.125 158.644531 492.425781 156.933594 491.707031 C 156.101562 491.355469 155.273438 491.007812 154.453125 490.644531 C 154.003906 490.457031 153.5625 490.265625 153.113281 490.066406 C 153.003906 490.015625 152.902344 489.976562 152.792969 489.917969 C 152.0625 489.605469 151.332031 489.277344 150.613281 488.945312 C 149.664062 488.527344 148.722656 488.085938 147.78125 487.644531 C 146.84375 487.214844 145.910156 486.765625 144.980469 486.316406 C 144.042969 485.867188 143.113281 485.414062 142.191406 484.957031 C 141.261719 484.496094 140.339844 484.027344 139.421875 483.554688 C 138.5 483.085938 137.582031 482.617188 136.671875 482.125 C 135.75 481.644531 134.839844 481.15625 133.941406 480.664062 C 131.660156 479.433594 129.398438 478.15625 127.167969 476.84375 C 126.46875 476.433594 125.769531 476.023438 125.070312 475.605469 C 124.378906 475.203125 123.699219 474.792969 123.019531 474.375 C 122.121094 473.835938 121.21875 473.273438 120.328125 472.714844 C 119.429688 472.164062 118.550781 471.59375 117.660156 471.023438 C 116.769531 470.453125 115.890625 469.875 115.007812 469.292969 C 113.25 468.132812 111.507812 466.953125 109.777344 465.742188 C 108.917969 465.144531 108.058594 464.535156 107.207031 463.921875 C 106.347656 463.3125 105.496094 462.695312 104.648438 462.074219 C 103.796875 461.453125 102.957031 460.824219 102.117188 460.195312 L 99.867188 458.484375 C 99.65625 458.3125 99.4375 458.152344 99.226562 457.984375 C 98.527344 457.433594 97.828125 456.894531 97.125 456.332031 C 96.308594 455.683594 95.488281 455.023438 94.667969 454.363281 C 93.855469 453.703125 93.046875 453.03125 92.238281 452.363281 C 91.425781 451.691406 90.625 451.011719 89.828125 450.332031 C 89.027344 449.652344 88.234375 448.960938 87.445312 448.273438 C 86.65625 447.582031 85.867188 446.882812 85.085938 446.183594 C 84.304688 445.480469 83.527344 444.78125 82.753906 444.0625 C 81.984375 443.351562 81.214844 442.640625 80.457031 441.921875 C 79.683594 441.203125 78.933594 440.472656 78.175781 439.742188 C 76.585938 438.210938 75.015625 436.652344 73.472656 435.082031 C 72.804688 434.410156 72.15625 433.742188 71.503906 433.0625 Z M 440.449219 433.0625 " style=" stroke:none;fill-rule:nonzero;fill:rgb(100%,65.882353%,47.843137%);fill-opacity:1;" />
<path d="M 440.449219 433.0625 C 440.292969 433.230469 440.121094 433.402344 439.949219 433.570312 C 439.859375 433.660156 439.78125 433.75 439.691406 433.839844 C 439.289062 434.25 438.890625 434.671875 438.480469 435.082031 C 438.410156 435.160156 438.332031 435.242188 438.25 435.320312 C 437.519531 436.070312 436.78125 436.8125 436.03125 437.542969 C 435.28125 438.28125 434.53125 439.019531 433.78125 439.742188 C 433.03125 440.472656 432.261719 441.203125 431.5 441.921875 C 430.738281 442.640625 429.96875 443.351562 429.199219 444.0625 C 428.449219 444.75 427.691406 445.441406 426.941406 446.121094 C 426.03125 446.941406 425.109375 447.753906 424.191406 448.550781 C 423.808594 448.882812 423.417969 449.222656 423.03125 449.550781 C 422.109375 450.351562 421.179688 451.140625 420.238281 451.921875 C 419.257812 452.742188 418.277344 453.554688 417.289062 454.363281 C 416.980469 454.613281 416.660156 454.863281 416.347656 455.113281 C 415.347656 455.921875 414.347656 456.714844 413.339844 457.503906 C 412.769531 457.953125 412.1875 458.402344 411.609375 458.84375 C 408.519531 461.214844 405.367188 463.523438 402.167969 465.742188 C 401.308594 466.34375 400.4375 466.945312 399.566406 467.535156 C 397.828125 468.714844 396.078125 469.875 394.304688 471.015625 C 390.765625 473.292969 387.15625 475.496094 383.484375 477.605469 C 381.675781 478.644531 379.84375 479.664062 378.003906 480.664062 C 377.105469 481.15625 376.195312 481.644531 375.273438 482.125 C 374.363281 482.617188 373.445312 483.085938 372.523438 483.554688 C 371.605469 484.027344 370.683594 484.496094 369.753906 484.957031 C 368.832031 485.414062 367.902344 485.867188 366.964844 486.316406 C 366.035156 486.765625 365.105469 487.214844 364.164062 487.644531 C 363.222656 488.085938 362.285156 488.527344 361.332031 488.945312 C 360.613281 489.277344 359.882812 489.605469 359.152344 489.917969 C 359.042969 489.976562 358.941406 490.015625 358.832031 490.066406 C 358.382812 490.265625 357.941406 490.457031 357.492188 490.644531 C 356.671875 491.007812 355.84375 491.355469 355.011719 491.707031 C 353.300781 492.425781 351.582031 493.125 349.851562 493.808594 C 348.980469 494.148438 348.113281 494.488281 347.230469 494.816406 C 346.140625 495.238281 345.050781 495.648438 343.960938 496.035156 C 342.992188 496.398438 342.019531 496.746094 341.050781 497.085938 C 340.359375 497.335938 339.671875 497.578125 338.972656 497.808594 C 338.851562 497.855469 338.730469 497.898438 338.609375 497.9375 C 337.992188 498.148438 337.359375 498.355469 336.742188 498.558594 C 335.902344 498.847656 335.0625 499.117188 334.21875 499.386719 C 334.058594 499.4375 333.910156 499.488281 333.75 499.539062 C 332.78125 499.847656 331.800781 500.15625 330.832031 500.449219 C 330.71875 500.476562 330.621094 500.515625 330.511719 500.546875 C 329.761719 500.777344 329.011719 500.996094 328.25 501.21875 C 327.871094 501.335938 327.488281 501.449219 327.101562 501.558594 C 327.089844 501.558594 327.070312 501.566406 327.058594 501.566406 C 326.359375 501.765625 325.648438 501.976562 324.941406 502.167969 C 323.070312 502.699219 321.179688 503.199219 319.289062 503.675781 C 318.578125 503.859375 317.878906 504.039062 317.167969 504.207031 C 317 504.246094 316.820312 504.296875 316.640625 504.335938 C 316.507812 504.367188 316.378906 504.398438 316.25 504.429688 C 315.429688 504.628906 314.609375 504.816406 313.789062 505.007812 C 313.359375 505.109375 312.917969 505.207031 312.476562 505.308594 C 312.039062 505.40625 311.597656 505.507812 311.160156 505.597656 C 310.988281 505.636719 310.808594 505.679688 310.636719 505.71875 C 310.046875 505.847656 309.457031 505.96875 308.867188 506.097656 C 308.679688 506.136719 308.476562 506.179688 308.289062 506.21875 C 307.648438 506.347656 306.996094 506.476562 306.359375 506.609375 C 305.96875 506.6875 305.578125 506.769531 305.1875 506.839844 C 304.527344 506.96875 303.878906 507.097656 303.21875 507.207031 C 302.308594 507.386719 301.386719 507.558594 300.46875 507.707031 C 299.816406 507.828125 299.167969 507.949219 298.507812 508.046875 C 298.46875 508.058594 298.417969 508.058594 298.375 508.066406 C 297.605469 508.199219 296.828125 508.328125 296.058594 508.449219 C 295.917969 508.46875 295.785156 508.488281 295.648438 508.507812 C 294.648438 508.667969 293.65625 508.816406 292.65625 508.957031 C 291.894531 509.066406 291.136719 509.179688 290.375 509.269531 C 289.777344 509.359375 289.175781 509.4375 288.574219 509.507812 C 287.617188 509.636719 286.644531 509.757812 285.664062 509.867188 C 285.574219 509.878906 285.484375 509.886719 285.394531 509.898438 C 284.515625 510 283.636719 510.089844 282.746094 510.1875 C 281.65625 510.296875 280.574219 510.410156 279.484375 510.5 C 278.796875 510.570312 278.105469 510.628906 277.40625 510.679688 C 276.824219 510.726562 276.246094 510.777344 275.675781 510.820312 C 275.542969 510.828125 275.425781 510.839844 275.292969 510.847656 C 274.472656 510.910156 273.644531 510.96875 272.824219 511.019531 C 271.703125 511.097656 270.59375 511.160156 269.472656 511.21875 C 268.554688 511.269531 267.632812 511.308594 266.714844 511.339844 C 266.5625 511.347656 266.414062 511.347656 266.265625 511.359375 C 265.09375 511.410156 263.914062 511.449219 262.742188 511.476562 C 261.8125 511.507812 260.882812 511.527344 259.941406 511.539062 L 259.792969 511.539062 C 258.523438 511.558594 257.253906 511.570312 255.972656 511.570312 L 255.972656 433.0625 Z M 440.449219 433.0625 " style=" stroke:none;fill-rule:nonzero;fill:rgb(92.941176%,46.666667%,10.588235%);fill-opacity:1;" />
<path d="M 273.632812 135.945312 C 271.070312 135.945312 268.511719 134.972656 266.558594 133.019531 C 260.511719 126.96875 250.671875 126.96875 244.625 133.019531 C 240.71875 136.921875 234.386719 136.921875 230.480469 133.019531 C 226.574219 129.113281 226.574219 122.78125 230.480469 118.875 C 244.328125 105.027344 266.855469 105.027344 280.703125 118.875 C 284.609375 122.78125 284.609375 129.113281 280.703125 133.019531 C 278.75 134.96875 276.191406 135.945312 273.632812 135.945312 Z M 330.261719 79.316406 C 327.703125 79.316406 325.144531 78.339844 323.191406 76.386719 C 305.136719 58.332031 281.128906 48.386719 255.59375 48.386719 C 230.058594 48.382812 206.046875 58.328125 187.992188 76.386719 C 184.085938 80.289062 177.753906 80.289062 173.847656 76.386719 C 169.941406 72.480469 169.941406 66.148438 173.847656 62.242188 C 195.679688 40.410156 224.714844 28.382812 255.589844 28.382812 C 255.59375 28.382812 255.589844 28.382812 255.59375 28.382812 C 286.472656 28.382812 315.5 40.410156 337.332031 62.242188 C 341.238281 66.148438 341.238281 72.480469 337.332031 76.386719 C 335.382812 78.339844 332.824219 79.316406 330.261719 79.316406 Z M 330.261719 79.316406 " style=" stroke:none;fill-rule:nonzero;fill:rgb(100%,100%,100%);fill-opacity:1;" />
<path d="M 301 108.578125 C 298.441406 108.578125 295.882812 107.601562 293.929688 105.648438 C 283.6875 95.410156 270.074219 89.769531 255.589844 89.769531 C 241.109375 89.769531 227.496094 95.410156 217.257812 105.648438 C 213.347656 109.554688 207.019531 109.554688 203.113281 105.648438 C 199.207031 101.742188 199.207031 95.410156 203.113281 91.503906 C 217.128906 77.484375 235.765625 69.765625 255.589844 69.765625 C 275.417969 69.765625 294.054688 77.484375 308.074219 91.503906 C 311.976562 95.410156 311.976562 101.742188 308.074219 105.648438 C 306.121094 107.601562 303.558594 108.578125 301 108.578125 Z M 301 108.578125 " style=" stroke:none;fill-rule:nonzero;fill:rgb(100%,100%,100%);fill-opacity:1;" />
<path d="M 273.632812 135.945312 C 271.070312 135.945312 268.511719 134.972656 266.558594 133.019531 C 260.511719 126.96875 250.671875 126.96875 244.625 133.019531 C 240.71875 136.921875 234.386719 136.921875 230.480469 133.019531 C 226.574219 129.113281 226.574219 122.78125 230.480469 118.875 C 244.328125 105.027344 266.855469 105.027344 280.703125 118.875 C 284.609375 122.78125 284.609375 129.113281 280.703125 133.019531 C 278.75 134.96875 276.191406 135.945312 273.632812 135.945312 Z M 273.632812 135.945312 " style=" stroke:none;fill-rule:nonzero;fill:rgb(100%,100%,100%);fill-opacity:1;" />
</g>
</svg>