<svg xmlns="http://www.w3.org/2000/svg" height="512pt" version="1.1" viewBox="0 0 512 512" width="512pt">
<g id="surface1">
<path d="M 512 256 C 512 397.386719 397.386719 512 256 512 C 114.613281 512 0 397.386719 0 256 C 0 114.613281 114.613281 0 256 0 C 397.386719 0 512 114.613281 512 256 Z M 512 256 " style=" stroke:none;fill-rule:nonzero;fill:rgb(39.607843%,69.803922%,100%);fill-opacity:1;" />
<path d="M 512 256 C 512 282.050781 508.109375 307.191406 500.871094 330.871094 C 468.859375 435.71875 371.328125 512 256 512 C 151.441406 512 61.511719 449.300781 21.769531 359.449219 C 7.769531 327.820312 0 292.820312 0 256 C 0 209.78125 12.25 166.429688 33.679688 129 C 77.800781 206.070312 160.839844 258 256 258 C 351.160156 258 434.210938 206.070312 478.320312 129 C 499.75 166.429688 512 209.78125 512 256 Z M 512 256 " style=" stroke:none;fill-rule:nonzero;fill:rgb(5.882353%,60.784314%,90.980392%);fill-opacity:1;" />
<path d="M 30.742188 377.703125 C 37.898438 390.921875 46.171875 403.441406 55.460938 415.128906 C 102.359375 474.148438 174.761719 512 256 512 C 337.238281 512 409.640625 474.148438 456.539062 415.128906 C 465.828125 403.441406 474.101562 390.921875 481.257812 377.703125 Z M 30.742188 377.703125 " style=" stroke:none;fill-rule:nonzero;fill:rgb(0%,40%,90.980392%);fill-opacity:1;" />
<path d="M 373.464844 136.136719 L 138.535156 136.136719 C 127.574219 136.136719 118.6875 145.023438 118.6875 155.984375 L 118.6875 306.90625 L 393.316406 306.90625 L 393.316406 155.984375 C 393.3125 145.023438 384.429688 136.136719 373.464844 136.136719 Z M 373.464844 136.136719 " style=" stroke:none;fill-rule:nonzero;fill:rgb(19.607843%,23.137255%,35.294118%);fill-opacity:1;" />
<path d="M 512 256 C 512 273.429688 510.261719 290.460938 506.929688 306.910156 L 500.179688 333.101562 C 499.070312 336.628906 497.878906 340.128906 496.609375 343.601562 C 494.878906 348.378906 493 353.078125 490.988281 357.71875 C 489.121094 362.039062 487.128906 366.300781 485.019531 370.5 C 483.230469 374.078125 481.359375 377.621094 479.398438 381.101562 C 477.890625 383.789062 476.339844 386.441406 474.738281 389.058594 C 473.230469 391.550781 471.671875 394 470.078125 396.429688 C 467.488281 400.359375 464.800781 404.21875 462 408 C 459.070312 411.980469 456.019531 415.859375 452.859375 419.648438 C 446.058594 427.828125 438.75 435.578125 430.988281 442.851562 C 425.101562 448.378906 418.941406 453.621094 412.539062 458.570312 C 369.261719 492.058594 314.960938 512 256 512 C 197.039062 512 142.738281 492.058594 99.460938 458.570312 C 93.058594 453.621094 86.898438 448.378906 81.011719 442.851562 C 73.25 435.578125 65.941406 427.828125 59.140625 419.648438 C 55.980469 415.859375 52.929688 411.980469 50 408 C 47.199219 404.21875 44.511719 400.359375 41.921875 396.429688 C 40.328125 394 38.769531 391.550781 37.261719 389.058594 C 35.660156 386.441406 34.109375 383.789062 32.601562 381.101562 C 30.648438 377.621094 28.78125 374.101562 26.988281 370.519531 C 22.621094 361.820312 18.75 352.828125 15.390625 343.601562 C 14.121094 340.128906 12.929688 336.628906 11.820312 333.101562 C 9.121094 324.558594 6.859375 315.820312 5.070312 306.910156 C 1.738281 290.460938 0 273.429688 0 256 C 0 253.449219 0.0390625 250.910156 0.109375 248.378906 L 511.890625 248.378906 C 511.960938 250.910156 512 253.449219 512 256 Z M 512 256 " style=" stroke:none;fill-rule:nonzero;fill:rgb(19.607843%,23.137255%,35.294118%);fill-opacity:1;" />
<path d="M 15.390625 333.101562 L 15.390625 343.601562 C 14.121094 340.128906 12.929688 336.628906 11.820312 333.101562 Z M 15.390625 333.101562 " style=" stroke:none;fill-rule:nonzero;fill:rgb(100%,100%,100%);fill-opacity:1;" />
<path d="M 15.390625 333.101562 L 15.390625 343.601562 C 14.121094 340.128906 12.929688 336.628906 11.820312 333.101562 Z M 15.390625 333.101562 " style=" stroke:none;fill-rule:nonzero;fill:rgb(81.568627%,96.470588%,100%);fill-opacity:1;" />
<path d="M 59.140625 333.101562 L 59.140625 419.648438 C 55.980469 415.859375 52.929688 411.980469 50 408 C 47.199219 404.21875 44.511719 400.359375 41.921875 396.429688 C 40.328125 394 38.769531 391.550781 37.261719 389.058594 C 35.660156 386.441406 34.109375 383.789062 32.601562 381.101562 C 30.648438 377.621094 28.78125 374.101562 26.988281 370.519531 C 22.621094 361.820312 18.75 352.828125 15.390625 343.601562 L 15.390625 333.101562 Z M 59.140625 333.101562 " style=" stroke:none;fill-rule:nonzero;fill:rgb(100%,100%,100%);fill-opacity:1;" />
<path d="M 32.601562 333.101562 L 32.601562 381.101562 C 30.648438 377.621094 28.78125 374.101562 26.988281 370.519531 C 22.621094 361.820312 18.75 352.828125 15.390625 343.601562 L 15.390625 333.101562 Z M 32.601562 333.101562 " style=" stroke:none;fill-rule:nonzero;fill:rgb(81.568627%,96.470588%,100%);fill-opacity:1;" />
<path d="M 15.390625 333.101562 L 15.390625 343.601562 C 14.121094 340.128906 12.929688 336.628906 11.820312 333.101562 Z M 15.390625 333.101562 " style=" stroke:none;fill-rule:nonzero;fill:rgb(56.078431%,78.823529%,96.862745%);fill-opacity:1;" />
<path d="M 59.140625 333.101562 L 59.140625 419.648438 C 55.980469 415.859375 52.929688 411.980469 50 408 C 47.199219 404.21875 44.511719 400.359375 41.921875 396.429688 C 40.328125 394 38.769531 391.550781 37.261719 389.058594 L 37.261719 333.101562 Z M 59.140625 333.101562 " style=" stroke:none;fill-rule:nonzero;fill:rgb(81.568627%,96.470588%,100%);fill-opacity:1;" />
<path d="M 102.878906 333.101562 L 102.878906 458.570312 L 99.460938 458.570312 C 93.058594 453.621094 86.898438 448.378906 81.011719 442.851562 C 73.25 435.578125 65.941406 427.828125 59.140625 419.648438 L 59.140625 333.101562 Z M 102.878906 333.101562 " style=" stroke:none;fill-rule:nonzero;fill:rgb(100%,100%,100%);fill-opacity:1;" />
<path d="M 76.351562 333.097656 L 76.351562 400.429688 C 76.351562 404.605469 72.964844 407.996094 68.785156 407.996094 L 59.136719 407.996094 L 59.136719 333.097656 Z M 76.351562 333.097656 " style=" stroke:none;fill-rule:nonzero;fill:rgb(81.568627%,96.470588%,100%);fill-opacity:1;" />
<path d="M 59.140625 333.101562 L 59.140625 408 L 50 408 C 47.199219 404.21875 44.511719 400.359375 41.921875 396.429688 L 41.921875 333.101562 Z M 59.140625 333.101562 " style=" stroke:none;fill-rule:nonzero;fill:rgb(56.078431%,78.823529%,96.862745%);fill-opacity:1;" />
<path d="M 102.878906 333.101562 L 102.878906 458.570312 L 99.460938 458.570312 C 93.058594 453.621094 86.898438 448.378906 81.011719 442.851562 L 81.011719 333.101562 Z M 102.878906 333.101562 " style=" stroke:none;fill-rule:nonzero;fill:rgb(81.568627%,96.470588%,100%);fill-opacity:1;" />
<path d="M 102.886719 333.097656 L 146.632812 333.097656 L 146.632812 458.574219 L 102.886719 458.574219 Z M 102.886719 333.097656 " style=" stroke:none;fill-rule:nonzero;fill:rgb(100%,100%,100%);fill-opacity:1;" />
<path d="M 120.101562 333.097656 L 120.101562 400.429688 C 120.101562 404.605469 116.710938 407.996094 112.53125 407.996094 L 102.886719 407.996094 L 102.886719 333.097656 Z M 120.101562 333.097656 " style=" stroke:none;fill-rule:nonzero;fill:rgb(81.568627%,96.470588%,100%);fill-opacity:1;" />
<path d="M 102.886719 333.097656 L 102.886719 407.996094 L 93.238281 407.996094 C 89.058594 407.996094 85.671875 404.605469 85.671875 400.429688 L 85.671875 333.097656 Z M 102.886719 333.097656 " style=" stroke:none;fill-rule:nonzero;fill:rgb(56.078431%,78.823529%,96.862745%);fill-opacity:1;" />
<path d="M 124.757812 333.097656 L 146.632812 333.097656 L 146.632812 458.574219 L 124.757812 458.574219 Z M 124.757812 333.097656 " style=" stroke:none;fill-rule:nonzero;fill:rgb(81.568627%,96.470588%,100%);fill-opacity:1;" />
<path d="M 146.632812 333.097656 L 190.378906 333.097656 L 190.378906 458.574219 L 146.632812 458.574219 Z M 146.632812 333.097656 " style=" stroke:none;fill-rule:nonzero;fill:rgb(100%,100%,100%);fill-opacity:1;" />
<path d="M 163.847656 333.097656 L 163.847656 400.429688 C 163.847656 404.605469 160.457031 407.996094 156.277344 407.996094 L 146.632812 407.996094 L 146.632812 333.097656 Z M 163.847656 333.097656 " style=" stroke:none;fill-rule:nonzero;fill:rgb(81.568627%,96.470588%,100%);fill-opacity:1;" />
<path d="M 146.632812 333.097656 L 146.632812 407.996094 L 136.984375 407.996094 C 132.804688 407.996094 129.417969 404.605469 129.417969 400.429688 L 129.417969 333.097656 Z M 146.632812 333.097656 " style=" stroke:none;fill-rule:nonzero;fill:rgb(56.078431%,78.823529%,96.862745%);fill-opacity:1;" />
<path d="M 168.507812 333.097656 L 190.378906 333.097656 L 190.378906 458.574219 L 168.507812 458.574219 Z M 168.507812 333.097656 " style=" stroke:none;fill-rule:nonzero;fill:rgb(81.568627%,96.470588%,100%);fill-opacity:1;" />
<path d="M 190.378906 333.097656 L 234.128906 333.097656 L 234.128906 458.574219 L 190.378906 458.574219 Z M 190.378906 333.097656 " style=" stroke:none;fill-rule:nonzero;fill:rgb(100%,100%,100%);fill-opacity:1;" />
<path d="M 207.59375 333.097656 L 207.59375 400.429688 C 207.59375 404.605469 204.207031 407.996094 200.027344 407.996094 L 190.378906 407.996094 L 190.378906 333.097656 Z M 207.59375 333.097656 " style=" stroke:none;fill-rule:nonzero;fill:rgb(81.568627%,96.470588%,100%);fill-opacity:1;" />
<path d="M 190.378906 333.097656 L 190.378906 407.996094 L 180.734375 407.996094 C 176.554688 407.996094 173.164062 404.605469 173.164062 400.429688 L 173.164062 333.097656 Z M 190.378906 333.097656 " style=" stroke:none;fill-rule:nonzero;fill:rgb(56.078431%,78.823529%,96.862745%);fill-opacity:1;" />
<path d="M 212.253906 333.097656 L 234.128906 333.097656 L 234.128906 458.574219 L 212.253906 458.574219 Z M 212.253906 333.097656 " style=" stroke:none;fill-rule:nonzero;fill:rgb(81.568627%,96.470588%,100%);fill-opacity:1;" />
<path d="M 234.128906 333.097656 L 256 333.097656 L 256 458.574219 L 234.128906 458.574219 Z M 234.128906 333.097656 " style=" stroke:none;fill-rule:nonzero;fill:rgb(100%,100%,100%);fill-opacity:1;" />
<path d="M 251.34375 333.097656 L 251.34375 400.429688 C 251.34375 404.605469 247.953125 407.996094 243.773438 407.996094 L 234.128906 407.996094 L 234.128906 333.097656 Z M 251.34375 333.097656 " style=" stroke:none;fill-rule:nonzero;fill:rgb(81.568627%,96.470588%,100%);fill-opacity:1;" />
<path d="M 234.128906 333.097656 L 234.128906 407.996094 L 224.480469 407.996094 C 220.300781 407.996094 216.910156 404.605469 216.910156 400.429688 L 216.910156 333.097656 Z M 234.128906 333.097656 " style=" stroke:none;fill-rule:nonzero;fill:rgb(56.078431%,78.823529%,96.862745%);fill-opacity:1;" />
<path d="M 26.988281 333.101562 L 26.988281 370.519531 C 22.621094 361.820312 18.75 352.828125 15.390625 343.601562 C 14.121094 340.128906 12.929688 336.628906 11.820312 333.101562 Z M 26.988281 333.101562 " style=" stroke:none;fill-rule:nonzero;fill:rgb(45.490196%,49.411765%,61.960784%);fill-opacity:1;" />
<path d="M 26.988281 333.101562 L 26.988281 370.519531 C 22.621094 361.820312 18.75 352.828125 15.390625 343.601562 C 14.121094 340.128906 12.929688 336.628906 11.820312 333.101562 Z M 26.988281 333.101562 " style=" stroke:none;fill-rule:nonzero;fill:rgb(27.843137%,30.980392%,43.529412%);fill-opacity:1;" />
<path d="M 70.730469 333.097656 L 70.730469 398.105469 C 70.730469 400.921875 68.449219 403.203125 65.636719 403.203125 L 52.640625 403.203125 C 49.824219 403.203125 47.542969 400.925781 47.542969 398.105469 L 47.542969 333.097656 Z M 70.730469 333.097656 " style=" stroke:none;fill-rule:nonzero;fill:rgb(45.490196%,49.411765%,61.960784%);fill-opacity:1;" />
<path d="M 70.644531 333.097656 L 70.644531 398.105469 C 70.644531 400.921875 68.359375 403.203125 65.546875 403.203125 L 58.347656 403.203125 C 55.53125 403.203125 53.25 400.925781 53.25 398.105469 L 53.25 333.097656 Z M 70.644531 333.097656 " style=" stroke:none;fill-rule:nonzero;fill:rgb(27.843137%,30.980392%,43.529412%);fill-opacity:1;" />
<path d="M 114.480469 333.097656 L 114.480469 398.105469 C 114.480469 400.921875 112.199219 403.203125 109.382812 403.203125 L 96.386719 403.203125 C 93.570312 403.203125 91.289062 400.925781 91.289062 398.105469 L 91.289062 333.097656 Z M 114.480469 333.097656 " style=" stroke:none;fill-rule:nonzero;fill:rgb(45.490196%,49.411765%,61.960784%);fill-opacity:1;" />
<path d="M 114.65625 333.097656 L 114.65625 398.105469 C 114.65625 400.921875 112.375 403.203125 109.558594 403.203125 L 102.359375 403.203125 C 99.546875 403.203125 97.265625 400.925781 97.265625 398.105469 L 97.265625 333.097656 Z M 114.65625 333.097656 " style=" stroke:none;fill-rule:nonzero;fill:rgb(27.843137%,30.980392%,43.529412%);fill-opacity:1;" />
<path d="M 158.226562 333.097656 L 158.226562 398.105469 C 158.226562 400.921875 155.945312 403.203125 153.128906 403.203125 L 140.136719 403.203125 C 137.320312 403.203125 135.035156 400.925781 135.035156 398.105469 L 135.035156 333.097656 Z M 158.226562 333.097656 " style=" stroke:none;fill-rule:nonzero;fill:rgb(45.490196%,49.411765%,61.960784%);fill-opacity:1;" />
<path d="M 158.140625 333.097656 L 158.140625 398.105469 C 158.140625 400.921875 155.855469 403.203125 153.039062 403.203125 L 145.84375 403.203125 C 143.027344 403.203125 140.746094 400.925781 140.746094 398.105469 L 140.746094 333.097656 Z M 158.140625 333.097656 " style=" stroke:none;fill-rule:nonzero;fill:rgb(27.843137%,30.980392%,43.529412%);fill-opacity:1;" />
<path d="M 201.976562 333.097656 L 201.976562 398.105469 C 201.976562 400.921875 199.691406 403.203125 196.878906 403.203125 L 183.882812 403.203125 C 181.066406 403.203125 178.785156 400.925781 178.785156 398.105469 L 178.785156 333.097656 Z M 201.976562 333.097656 " style=" stroke:none;fill-rule:nonzero;fill:rgb(45.490196%,49.411765%,61.960784%);fill-opacity:1;" />
<path d="M 201.886719 333.097656 L 201.886719 398.105469 C 201.886719 400.921875 199.601562 403.203125 196.785156 403.203125 L 189.589844 403.203125 C 186.773438 403.203125 184.492188 400.925781 184.492188 398.105469 L 184.492188 333.097656 Z M 201.886719 333.097656 " style=" stroke:none;fill-rule:nonzero;fill:rgb(27.843137%,30.980392%,43.529412%);fill-opacity:1;" />
<path d="M 245.722656 333.097656 L 245.722656 398.105469 C 245.722656 400.921875 243.441406 403.203125 240.625 403.203125 L 227.628906 403.203125 C 224.8125 403.203125 222.53125 400.925781 222.53125 398.105469 L 222.53125 333.097656 Z M 245.722656 333.097656 " style=" stroke:none;fill-rule:nonzero;fill:rgb(45.490196%,49.411765%,61.960784%);fill-opacity:1;" />
<path d="M 245.898438 333.097656 L 245.898438 398.105469 C 245.898438 400.921875 243.617188 403.203125 240.800781 403.203125 L 233.601562 403.203125 C 230.785156 403.203125 228.507812 400.925781 228.507812 398.105469 L 228.507812 333.097656 Z M 245.898438 333.097656 " style=" stroke:none;fill-rule:nonzero;fill:rgb(27.843137%,30.980392%,43.529412%);fill-opacity:1;" />
<path d="M 26.988281 333.101562 L 26.988281 370.519531 C 22.621094 361.820312 18.75 352.828125 15.390625 343.601562 L 15.390625 333.101562 Z M 26.988281 333.101562 " style=" stroke:none;fill-rule:nonzero;fill:rgb(19.607843%,23.137255%,35.294118%);fill-opacity:1;" />
<path d="M 70.730469 333.097656 L 70.730469 398.105469 C 70.730469 400.921875 68.449219 403.203125 65.636719 403.203125 L 59.136719 403.203125 L 59.136719 333.097656 Z M 70.730469 333.097656 " style=" stroke:none;fill-rule:nonzero;fill:rgb(19.607843%,23.137255%,35.294118%);fill-opacity:1;" />
<path d="M 114.480469 333.097656 L 114.480469 398.105469 C 114.480469 400.921875 112.199219 403.203125 109.382812 403.203125 L 102.886719 403.203125 L 102.886719 333.097656 Z M 114.480469 333.097656 " style=" stroke:none;fill-rule:nonzero;fill:rgb(19.607843%,23.137255%,35.294118%);fill-opacity:1;" />
<path d="M 158.226562 333.097656 L 158.226562 398.105469 C 158.226562 400.921875 155.945312 403.203125 153.128906 403.203125 L 146.632812 403.203125 L 146.632812 333.097656 Z M 158.226562 333.097656 " style=" stroke:none;fill-rule:nonzero;fill:rgb(19.607843%,23.137255%,35.294118%);fill-opacity:1;" />
<path d="M 201.976562 333.097656 L 201.976562 398.105469 C 201.976562 400.921875 199.691406 403.203125 196.878906 403.203125 L 190.378906 403.203125 L 190.378906 333.097656 Z M 201.976562 333.097656 " style=" stroke:none;fill-rule:nonzero;fill:rgb(19.607843%,23.137255%,35.294118%);fill-opacity:1;" />
<path d="M 245.722656 333.097656 L 245.722656 398.105469 C 245.722656 400.921875 243.441406 403.203125 240.625 403.203125 L 234.128906 403.203125 L 234.128906 333.097656 Z M 245.722656 333.097656 " style=" stroke:none;fill-rule:nonzero;fill:rgb(19.607843%,23.137255%,35.294118%);fill-opacity:1;" />
<path d="M 277.875 333.097656 L 277.875 458.574219 L 260.507812 458.574219 C 258.933594 458.574219 257.414062 458.316406 256 457.84375 L 256 333.828125 C 257.414062 333.355469 258.933594 333.097656 260.507812 333.097656 Z M 277.875 333.097656 " style=" stroke:none;fill-rule:nonzero;fill:rgb(100%,100%,100%);fill-opacity:1;" />
<path d="M 256 333.097656 L 277.875 333.097656 L 277.875 458.574219 L 256 458.574219 Z M 256 333.097656 " style=" stroke:none;fill-rule:nonzero;fill:rgb(81.568627%,96.470588%,100%);fill-opacity:1;" />
<path d="M 277.875 333.097656 L 321.621094 333.097656 L 321.621094 458.574219 L 277.875 458.574219 Z M 277.875 333.097656 " style=" stroke:none;fill-rule:nonzero;fill:rgb(100%,100%,100%);fill-opacity:1;" />
<path d="M 295.089844 333.097656 L 295.089844 400.429688 C 295.089844 404.609375 291.699219 407.996094 287.523438 407.996094 L 277.875 407.996094 L 277.875 333.097656 Z M 295.089844 333.097656 " style=" stroke:none;fill-rule:nonzero;fill:rgb(81.568627%,96.470588%,100%);fill-opacity:1;" />
<path d="M 277.875 333.097656 L 277.875 407.996094 L 268.226562 407.996094 C 264.050781 407.996094 260.660156 404.609375 260.660156 400.429688 L 260.660156 333.097656 Z M 277.875 333.097656 " style=" stroke:none;fill-rule:nonzero;fill:rgb(56.078431%,78.823529%,96.862745%);fill-opacity:1;" />
<path d="M 299.746094 333.097656 L 321.621094 333.097656 L 321.621094 458.574219 L 299.746094 458.574219 Z M 299.746094 333.097656 " style=" stroke:none;fill-rule:nonzero;fill:rgb(81.568627%,96.470588%,100%);fill-opacity:1;" />
<path d="M 321.621094 333.097656 L 365.371094 333.097656 L 365.371094 458.574219 L 321.621094 458.574219 Z M 321.621094 333.097656 " style=" stroke:none;fill-rule:nonzero;fill:rgb(100%,100%,100%);fill-opacity:1;" />
<path d="M 338.835938 333.097656 L 338.835938 400.429688 C 338.835938 404.609375 335.449219 407.996094 331.269531 407.996094 L 321.621094 407.996094 L 321.621094 333.097656 Z M 338.835938 333.097656 " style=" stroke:none;fill-rule:nonzero;fill:rgb(81.568627%,96.470588%,100%);fill-opacity:1;" />
<path d="M 321.621094 333.097656 L 321.621094 407.996094 L 311.972656 407.996094 C 307.796875 407.996094 304.40625 404.609375 304.40625 400.429688 L 304.40625 333.097656 Z M 321.621094 333.097656 " style=" stroke:none;fill-rule:nonzero;fill:rgb(56.078431%,78.823529%,96.862745%);fill-opacity:1;" />
<path d="M 343.496094 333.097656 L 365.371094 333.097656 L 365.371094 458.574219 L 343.496094 458.574219 Z M 343.496094 333.097656 " style=" stroke:none;fill-rule:nonzero;fill:rgb(81.568627%,96.470588%,100%);fill-opacity:1;" />
<path d="M 365.371094 333.097656 L 409.117188 333.097656 L 409.117188 458.574219 L 365.371094 458.574219 Z M 365.371094 333.097656 " style=" stroke:none;fill-rule:nonzero;fill:rgb(100%,100%,100%);fill-opacity:1;" />
<path d="M 382.585938 333.097656 L 382.585938 400.429688 C 382.585938 404.609375 379.195312 407.996094 375.015625 407.996094 L 365.371094 407.996094 L 365.371094 333.097656 Z M 382.585938 333.097656 " style=" stroke:none;fill-rule:nonzero;fill:rgb(81.568627%,96.470588%,100%);fill-opacity:1;" />
<path d="M 365.371094 333.097656 L 365.371094 407.996094 L 355.722656 407.996094 C 351.542969 407.996094 348.15625 404.609375 348.15625 400.429688 L 348.15625 333.097656 Z M 365.371094 333.097656 " style=" stroke:none;fill-rule:nonzero;fill:rgb(56.078431%,78.823529%,96.862745%);fill-opacity:1;" />
<path d="M 387.242188 333.097656 L 409.117188 333.097656 L 409.117188 458.574219 L 387.242188 458.574219 Z M 387.242188 333.097656 " style=" stroke:none;fill-rule:nonzero;fill:rgb(81.568627%,96.470588%,100%);fill-opacity:1;" />
<path d="M 452.859375 333.101562 L 452.859375 419.648438 C 446.058594 427.828125 438.75 435.578125 430.988281 442.851562 C 425.101562 448.378906 418.941406 453.621094 412.539062 458.570312 L 409.121094 458.570312 L 409.121094 333.101562 Z M 452.859375 333.101562 " style=" stroke:none;fill-rule:nonzero;fill:rgb(100%,100%,100%);fill-opacity:1;" />
<path d="M 426.332031 333.097656 L 426.332031 400.429688 C 426.332031 404.609375 422.945312 407.996094 418.765625 407.996094 L 409.117188 407.996094 L 409.117188 333.097656 Z M 426.332031 333.097656 " style=" stroke:none;fill-rule:nonzero;fill:rgb(81.568627%,96.470588%,100%);fill-opacity:1;" />
<path d="M 409.117188 333.097656 L 409.117188 407.996094 L 399.46875 407.996094 C 395.289062 407.996094 391.902344 404.609375 391.902344 400.429688 L 391.902344 333.097656 Z M 409.117188 333.097656 " style=" stroke:none;fill-rule:nonzero;fill:rgb(56.078431%,78.823529%,96.862745%);fill-opacity:1;" />
<path d="M 452.859375 333.101562 L 452.859375 419.648438 C 446.058594 427.828125 438.75 435.578125 430.988281 442.851562 L 430.988281 333.101562 Z M 452.859375 333.101562 " style=" stroke:none;fill-rule:nonzero;fill:rgb(81.568627%,96.470588%,100%);fill-opacity:1;" />
<path d="M 496.609375 333.101562 L 496.609375 343.601562 C 494.878906 348.378906 493 353.078125 490.988281 357.71875 C 489.121094 362.039062 487.128906 366.300781 485.019531 370.5 C 483.230469 374.078125 481.359375 377.621094 479.398438 381.101562 C 477.890625 383.789062 476.339844 386.441406 474.738281 389.058594 C 473.230469 391.550781 471.671875 394 470.078125 396.429688 C 467.488281 400.359375 464.800781 404.21875 462 408 C 459.070312 411.980469 456.019531 415.859375 452.859375 419.648438 L 452.859375 333.101562 Z M 496.609375 333.101562 " style=" stroke:none;fill-rule:nonzero;fill:rgb(100%,100%,100%);fill-opacity:1;" />
<path d="M 470.078125 333.101562 L 470.078125 396.429688 C 467.488281 400.359375 464.800781 404.21875 462 408 L 452.859375 408 L 452.859375 333.101562 Z M 470.078125 333.101562 " style=" stroke:none;fill-rule:nonzero;fill:rgb(81.568627%,96.470588%,100%);fill-opacity:1;" />
<path d="M 452.863281 333.097656 L 452.863281 407.996094 L 443.21875 407.996094 C 439.039062 407.996094 435.648438 404.609375 435.648438 400.429688 L 435.648438 333.097656 Z M 452.863281 333.097656 " style=" stroke:none;fill-rule:nonzero;fill:rgb(56.078431%,78.823529%,96.862745%);fill-opacity:1;" />
<path d="M 496.609375 333.101562 L 496.609375 343.601562 C 494.878906 348.378906 493 353.078125 490.988281 357.71875 C 489.121094 362.039062 487.128906 366.300781 485.019531 370.5 C 483.230469 374.078125 481.359375 377.621094 479.398438 381.101562 C 477.890625 383.789062 476.339844 386.441406 474.738281 389.058594 L 474.738281 333.101562 Z M 496.609375 333.101562 " style=" stroke:none;fill-rule:nonzero;fill:rgb(81.568627%,96.470588%,100%);fill-opacity:1;" />
<path d="M 500.179688 333.101562 C 499.070312 336.628906 497.878906 340.128906 496.609375 343.601562 L 496.609375 333.101562 Z M 500.179688 333.101562 " style=" stroke:none;fill-rule:nonzero;fill:rgb(100%,100%,100%);fill-opacity:1;" />
<path d="M 500.179688 333.101562 C 499.070312 336.628906 497.878906 340.128906 496.609375 343.601562 L 496.609375 333.101562 Z M 500.179688 333.101562 " style=" stroke:none;fill-rule:nonzero;fill:rgb(81.568627%,96.470588%,100%);fill-opacity:1;" />
<path d="M 496.609375 333.101562 L 496.609375 343.601562 C 494.878906 348.378906 493 353.078125 490.988281 357.71875 C 489.121094 362.039062 487.128906 366.300781 485.019531 370.5 C 483.230469 374.078125 481.359375 377.621094 479.398438 381.101562 L 479.398438 333.101562 Z M 496.609375 333.101562 " style=" stroke:none;fill-rule:nonzero;fill:rgb(56.078431%,78.823529%,96.862745%);fill-opacity:1;" />
<path d="M 289.472656 333.097656 L 289.472656 398.109375 C 289.472656 400.925781 287.1875 403.203125 284.371094 403.203125 L 271.378906 403.203125 C 268.5625 403.203125 266.277344 400.925781 266.277344 398.109375 L 266.277344 333.097656 Z M 289.472656 333.097656 " style=" stroke:none;fill-rule:nonzero;fill:rgb(45.490196%,49.411765%,61.960784%);fill-opacity:1;" />
<path d="M 289.472656 333.097656 L 289.472656 398.109375 C 289.472656 400.925781 287.1875 403.203125 284.371094 403.203125 L 277.175781 403.203125 C 274.359375 403.203125 272.078125 400.925781 272.078125 398.109375 L 272.078125 333.097656 Z M 289.472656 333.097656 " style=" stroke:none;fill-rule:nonzero;fill:rgb(27.843137%,30.980392%,43.529412%);fill-opacity:1;" />
<path d="M 333.21875 333.097656 L 333.21875 398.109375 C 333.21875 400.925781 330.933594 403.203125 328.121094 403.203125 L 315.125 403.203125 C 312.308594 403.203125 310.027344 400.925781 310.027344 398.109375 L 310.027344 333.097656 Z M 333.21875 333.097656 " style=" stroke:none;fill-rule:nonzero;fill:rgb(45.490196%,49.411765%,61.960784%);fill-opacity:1;" />
<path d="M 333.128906 333.097656 L 333.128906 398.109375 C 333.128906 400.925781 330.847656 403.203125 328.03125 403.203125 L 320.832031 403.203125 C 318.015625 403.203125 315.734375 400.925781 315.734375 398.109375 L 315.734375 333.097656 Z M 333.128906 333.097656 " style=" stroke:none;fill-rule:nonzero;fill:rgb(27.843137%,30.980392%,43.529412%);fill-opacity:1;" />
<path d="M 376.964844 333.097656 L 376.964844 398.109375 C 376.964844 400.925781 374.683594 403.203125 371.867188 403.203125 L 358.871094 403.203125 C 356.058594 403.203125 353.773438 400.925781 353.773438 398.109375 L 353.773438 333.097656 Z M 376.964844 333.097656 " style=" stroke:none;fill-rule:nonzero;fill:rgb(45.490196%,49.411765%,61.960784%);fill-opacity:1;" />
<path d="M 377.140625 333.097656 L 377.140625 398.109375 C 377.140625 400.925781 374.859375 403.203125 372.042969 403.203125 L 364.847656 403.203125 C 362.03125 403.203125 359.75 400.925781 359.75 398.109375 L 359.75 333.097656 Z M 377.140625 333.097656 " style=" stroke:none;fill-rule:nonzero;fill:rgb(27.843137%,30.980392%,43.529412%);fill-opacity:1;" />
<path d="M 420.714844 333.097656 L 420.714844 398.109375 C 420.714844 400.925781 418.429688 403.203125 415.613281 403.203125 L 402.621094 403.203125 C 399.804688 403.203125 397.519531 400.925781 397.519531 398.109375 L 397.519531 333.097656 Z M 420.714844 333.097656 " style=" stroke:none;fill-rule:nonzero;fill:rgb(45.490196%,49.411765%,61.960784%);fill-opacity:1;" />
<path d="M 420.625 333.097656 L 420.625 398.109375 C 420.625 400.925781 418.339844 403.203125 415.523438 403.203125 L 408.328125 403.203125 C 405.511719 403.203125 403.230469 400.925781 403.230469 398.109375 L 403.230469 333.097656 Z M 420.625 333.097656 " style=" stroke:none;fill-rule:nonzero;fill:rgb(27.843137%,30.980392%,43.529412%);fill-opacity:1;" />
<path d="M 464.460938 333.097656 L 464.460938 398.109375 C 464.460938 400.925781 462.175781 403.203125 459.363281 403.203125 L 446.367188 403.203125 C 443.550781 403.203125 441.269531 400.925781 441.269531 398.109375 L 441.269531 333.097656 Z M 464.460938 333.097656 " style=" stroke:none;fill-rule:nonzero;fill:rgb(45.490196%,49.411765%,61.960784%);fill-opacity:1;" />
<path d="M 464.371094 333.097656 L 464.371094 398.109375 C 464.371094 400.925781 462.089844 403.203125 459.273438 403.203125 L 452.074219 403.203125 C 449.257812 403.203125 446.976562 400.925781 446.976562 398.109375 L 446.976562 333.097656 Z M 464.371094 333.097656 " style=" stroke:none;fill-rule:nonzero;fill:rgb(27.843137%,30.980392%,43.529412%);fill-opacity:1;" />
<path d="M 500.179688 333.101562 C 499.070312 336.628906 497.878906 340.128906 496.609375 343.601562 C 494.878906 348.378906 493 353.078125 490.988281 357.71875 C 489.121094 362.039062 487.128906 366.300781 485.019531 370.5 L 485.019531 333.101562 Z M 500.179688 333.101562 " style=" stroke:none;fill-rule:nonzero;fill:rgb(45.490196%,49.411765%,61.960784%);fill-opacity:1;" />
<path d="M 500.179688 333.101562 C 499.070312 336.628906 497.878906 340.128906 496.609375 343.601562 C 494.878906 348.378906 493 353.078125 490.988281 357.71875 L 490.988281 333.101562 Z M 500.179688 333.101562 " style=" stroke:none;fill-rule:nonzero;fill:rgb(27.843137%,30.980392%,43.529412%);fill-opacity:1;" />
<path d="M 289.472656 333.097656 L 289.472656 398.109375 C 289.472656 400.925781 287.1875 403.203125 284.371094 403.203125 L 277.875 403.203125 L 277.875 333.097656 Z M 289.472656 333.097656 " style=" stroke:none;fill-rule:nonzero;fill:rgb(19.607843%,23.137255%,35.294118%);fill-opacity:1;" />
<path d="M 333.21875 333.097656 L 333.21875 398.109375 C 333.21875 400.925781 330.933594 403.203125 328.121094 403.203125 L 321.621094 403.203125 L 321.621094 333.097656 Z M 333.21875 333.097656 " style=" stroke:none;fill-rule:nonzero;fill:rgb(19.607843%,23.137255%,35.294118%);fill-opacity:1;" />
<path d="M 376.964844 333.097656 L 376.964844 398.109375 C 376.964844 400.925781 374.683594 403.203125 371.867188 403.203125 L 365.371094 403.203125 L 365.371094 333.097656 Z M 376.964844 333.097656 " style=" stroke:none;fill-rule:nonzero;fill:rgb(19.607843%,23.137255%,35.294118%);fill-opacity:1;" />
<path d="M 420.714844 333.097656 L 420.714844 398.109375 C 420.714844 400.925781 418.429688 403.203125 415.613281 403.203125 L 409.117188 403.203125 L 409.117188 333.097656 Z M 420.714844 333.097656 " style=" stroke:none;fill-rule:nonzero;fill:rgb(19.607843%,23.137255%,35.294118%);fill-opacity:1;" />
<path d="M 464.460938 333.097656 L 464.460938 398.109375 C 464.460938 400.925781 462.175781 403.203125 459.363281 403.203125 L 452.863281 403.203125 L 452.863281 333.097656 Z M 464.460938 333.097656 " style=" stroke:none;fill-rule:nonzero;fill:rgb(19.607843%,23.137255%,35.294118%);fill-opacity:1;" />
<path d="M 500.179688 333.101562 C 499.070312 336.628906 497.878906 340.128906 496.609375 343.601562 L 496.609375 333.101562 Z M 500.179688 333.101562 " style=" stroke:none;fill-rule:nonzero;fill:rgb(19.607843%,23.137255%,35.294118%);fill-opacity:1;" />
<path d="M 506.929688 306.910156 L 5.070312 306.910156 C 6.859375 315.820312 9.121094 324.558594 11.820312 333.101562 L 500.179688 333.101562 Z M 506.929688 306.910156 " style=" stroke:none;fill-rule:nonzero;fill:rgb(12.54902%,15.294118%,22.745098%);fill-opacity:1;" />
<path d="M 210.921875 167.710938 C 195.003906 166.300781 178.863281 167.363281 163.28125 170.910156 C 154.828125 172.835938 146.542969 175.492188 138.542969 178.832031 C 138.539062 178.835938 138.535156 178.839844 138.535156 178.84375 L 138.535156 292.417969 C 138.535156 297.136719 143.191406 300.382812 147.652344 298.847656 C 152.777344 297.085938 157.996094 295.597656 163.28125 294.394531 C 178.867188 290.84375 195.003906 289.78125 210.921875 291.191406 C 226.398438 292.566406 241.640625 296.320312 255.976562 302.304688 C 255.988281 302.3125 256 302.304688 256 302.289062 L 256 178.835938 C 256 178.835938 256 178.835938 255.996094 178.832031 C 241.65625 172.84375 226.40625 169.085938 210.921875 167.710938 Z M 210.921875 167.710938 " style=" stroke:none;fill-rule:nonzero;fill:rgb(81.568627%,96.470588%,100%);fill-opacity:1;" />
<path d="M 328.386719 167.710938 C 312.46875 166.300781 296.332031 167.363281 280.746094 170.910156 C 272.292969 172.835938 264.007812 175.492188 256.007812 178.832031 C 256.003906 178.835938 256 178.839844 256 178.84375 L 256 302.316406 C 264.003906 298.972656 272.289062 296.320312 280.746094 294.394531 C 296.332031 290.84375 312.472656 289.78125 328.390625 291.191406 C 340.628906 292.28125 352.722656 294.855469 364.339844 298.847656 C 368.808594 300.382812 373.46875 297.121094 373.46875 292.398438 L 373.46875 178.835938 C 373.464844 178.835938 373.464844 178.835938 373.464844 178.832031 C 359.121094 172.84375 343.871094 169.085938 328.386719 167.710938 Z M 328.386719 167.710938 " style=" stroke:none;fill-rule:nonzero;fill:rgb(56.078431%,78.823529%,96.862745%);fill-opacity:1;" />
<path d="M 210.921875 153.785156 C 195.003906 152.371094 178.863281 153.433594 163.28125 156.984375 C 155.84375 158.679688 148.53125 160.9375 141.433594 163.730469 C 139.675781 164.425781 138.535156 166.144531 138.535156 168.035156 L 138.535156 281.601562 C 138.535156 284.839844 141.757812 287.050781 144.796875 285.933594 C 150.832031 283.722656 157.011719 281.894531 163.28125 280.464844 C 178.863281 276.914062 195.003906 275.851562 210.921875 277.265625 C 224.191406 278.441406 237.292969 281.371094 249.796875 285.957031 C 252.8125 287.0625 256 284.785156 256 281.574219 L 256 168.03125 C 256 166.144531 254.859375 164.425781 253.105469 163.734375 C 239.609375 158.421875 225.367188 155.066406 210.921875 153.785156 Z M 210.921875 153.785156 " style=" stroke:none;fill-rule:nonzero;fill:rgb(100%,100%,100%);fill-opacity:1;" />
<path d="M 328.386719 153.785156 C 312.46875 152.371094 296.332031 153.433594 280.746094 156.984375 C 273.308594 158.679688 266 160.9375 258.898438 163.730469 C 257.140625 164.425781 256 166.144531 256 168.035156 L 256 281.601562 C 256 284.839844 259.222656 287.050781 262.261719 285.933594 C 268.296875 283.722656 274.476562 281.894531 280.746094 280.464844 C 296.328125 276.914062 312.46875 275.851562 328.386719 277.265625 C 341.65625 278.441406 354.757812 281.371094 367.265625 285.957031 C 370.277344 287.0625 373.464844 284.785156 373.464844 281.574219 L 373.464844 168.03125 C 373.464844 166.144531 372.328125 164.425781 370.570312 163.734375 C 357.078125 158.421875 342.832031 155.066406 328.386719 153.785156 Z M 328.386719 153.785156 " style=" stroke:none;fill-rule:nonzero;fill:rgb(81.568627%,96.470588%,100%);fill-opacity:1;" />
<path d="M 234.066406 176.507812 C 209.710938 171.863281 184.433594 171.828125 160.0625 176.398438 C 157.886719 176.804688 156.320312 178.734375 156.320312 180.949219 C 156.320312 183.84375 158.949219 186.03125 161.796875 185.496094 C 185.015625 181.144531 209.097656 181.183594 232.304688 185.609375 C 235.15625 186.152344 237.792969 183.964844 237.792969 181.0625 L 237.792969 181.054688 C 237.792969 178.847656 236.238281 176.921875 234.066406 176.507812 Z M 234.066406 176.507812 " style=" stroke:none;fill-rule:nonzero;fill:rgb(19.607843%,23.137255%,35.294118%);fill-opacity:1;" />
<path d="M 234.066406 201.796875 C 209.710938 197.152344 184.433594 197.113281 160.0625 201.683594 C 157.886719 202.09375 156.320312 204.019531 156.320312 206.234375 C 156.320312 209.132812 158.949219 211.316406 161.796875 210.785156 C 185.015625 206.433594 209.097656 206.472656 232.304688 210.894531 C 235.15625 211.4375 237.792969 209.253906 237.792969 206.351562 L 237.792969 206.34375 C 237.792969 204.136719 236.238281 202.210938 234.066406 201.796875 Z M 234.066406 201.796875 " style=" stroke:none;fill-rule:nonzero;fill:rgb(19.607843%,23.137255%,35.294118%);fill-opacity:1;" />
<path d="M 234.066406 227.082031 C 209.710938 222.4375 184.433594 222.402344 160.0625 226.972656 C 157.886719 227.378906 156.320312 229.308594 156.320312 231.523438 C 156.320312 234.417969 158.949219 236.605469 161.796875 236.070312 C 185.015625 231.71875 209.097656 231.761719 232.304688 236.183594 C 235.15625 236.726562 237.792969 234.539062 237.792969 231.636719 L 237.792969 231.628906 C 237.792969 229.421875 236.238281 227.496094 234.066406 227.082031 Z M 234.066406 227.082031 " style=" stroke:none;fill-rule:nonzero;fill:rgb(19.607843%,23.137255%,35.294118%);fill-opacity:1;" />
<path d="M 234.066406 252.371094 C 209.707031 247.726562 184.433594 247.6875 160.0625 252.257812 C 157.882812 252.667969 156.320312 254.59375 156.320312 256.808594 C 156.320312 259.707031 158.945312 261.890625 161.792969 261.359375 C 185.015625 257.007812 209.09375 257.046875 232.304688 261.46875 C 235.152344 262.011719 237.789062 259.828125 237.789062 256.925781 L 237.789062 256.917969 C 237.792969 254.710938 236.238281 252.785156 234.066406 252.371094 Z M 234.066406 252.371094 " style=" stroke:none;fill-rule:nonzero;fill:rgb(19.607843%,23.137255%,35.294118%);fill-opacity:1;" />
<path d="M 351.742188 176.507812 C 327.382812 171.863281 302.109375 171.828125 277.738281 176.398438 C 275.558594 176.804688 273.996094 178.734375 273.996094 180.949219 C 273.996094 183.84375 276.621094 186.03125 279.46875 185.496094 C 302.691406 181.144531 326.769531 181.183594 349.980469 185.609375 C 352.828125 186.152344 355.46875 183.964844 355.46875 181.0625 L 355.46875 181.054688 C 355.46875 178.847656 353.910156 176.921875 351.742188 176.507812 Z M 351.742188 176.507812 " style=" stroke:none;fill-rule:nonzero;fill:rgb(19.607843%,23.137255%,35.294118%);fill-opacity:1;" />
<path d="M 351.742188 201.796875 C 327.382812 197.152344 302.109375 197.113281 277.738281 201.683594 C 275.558594 202.09375 273.996094 204.019531 273.996094 206.234375 C 273.996094 209.132812 276.621094 211.316406 279.46875 210.785156 C 302.691406 206.433594 326.769531 206.472656 349.980469 210.894531 C 352.828125 211.4375 355.46875 209.253906 355.46875 206.351562 L 355.46875 206.34375 C 355.46875 204.136719 353.910156 202.210938 351.742188 201.796875 Z M 351.742188 201.796875 " style=" stroke:none;fill-rule:nonzero;fill:rgb(19.607843%,23.137255%,35.294118%);fill-opacity:1;" />
<path d="M 351.742188 227.082031 C 327.382812 222.4375 302.105469 222.402344 277.738281 226.972656 C 275.558594 227.378906 273.996094 229.308594 273.996094 231.523438 C 273.996094 234.417969 276.621094 236.605469 279.46875 236.070312 C 302.691406 231.71875 326.769531 231.761719 349.980469 236.183594 C 352.828125 236.726562 355.46875 234.539062 355.46875 231.636719 L 355.46875 231.628906 C 355.46875 229.421875 353.910156 227.496094 351.742188 227.082031 Z M 351.742188 227.082031 " style=" stroke:none;fill-rule:nonzero;fill:rgb(19.607843%,23.137255%,35.294118%);fill-opacity:1;" />
<path d="M 351.742188 252.371094 C 327.382812 247.726562 302.109375 247.6875 277.738281 252.257812 C 275.558594 252.667969 273.996094 254.59375 273.996094 256.808594 C 273.996094 259.707031 276.621094 261.890625 279.46875 261.359375 C 302.691406 257.007812 326.769531 257.046875 349.980469 261.46875 C 352.828125 262.011719 355.46875 259.828125 355.46875 256.925781 L 355.46875 256.917969 C 355.46875 254.710938 353.910156 252.785156 351.742188 252.371094 Z M 351.742188 252.371094 " style=" stroke:none;fill-rule:nonzero;fill:rgb(19.607843%,23.137255%,35.294118%);fill-opacity:1;" />
</g>
</svg>