<svg xmlns="http://www.w3.org/2000/svg" height="512pt" version="1.1" viewBox="0 0 512 512" width="512pt">
<g id="surface1">
<path d="M 512 256 C 512 397.386719 397.386719 512 256 512 C 114.613281 512 0 397.386719 0 256 C 0 114.613281 114.613281 0 256 0 C 397.386719 0 512 114.613281 512 256 Z M 512 256 " style=" stroke:none;fill-rule:nonzero;fill:rgb(40.784314%,98.823529%,87.45098%);fill-opacity:1;" />
<path d="M 512 256 C 512 282.050781 508.109375 307.191406 500.871094 330.871094 C 468.859375 435.71875 371.328125 512 256 512 C 151.441406 512 61.511719 449.300781 21.769531 359.449219 C 7.769531 327.820312 0 292.820312 0 256 C 0 209.78125 12.25 166.429688 33.679688 129 C 77.800781 206.070312 160.839844 258 256 258 C 351.160156 258 434.210938 206.070312 478.320312 129 C 499.75 166.429688 512 209.78125 512 256 Z M 512 256 " style=" stroke:none;fill-rule:nonzero;fill:rgb(6.27451%,88.627451%,76.862745%);fill-opacity:1;" />
<path d="M 30.742188 377.703125 C 37.898438 390.921875 46.171875 403.441406 55.460938 415.128906 C 102.359375 474.148438 174.761719 512 256 512 C 337.238281 512 409.640625 474.148438 456.539062 415.128906 C 465.828125 403.441406 474.101562 390.921875 481.257812 377.703125 Z M 30.742188 377.703125 " style=" stroke:none;fill-rule:nonzero;fill:rgb(10.196078%,72.941176%,62.352941%);fill-opacity:1;" />
<path d="M 190.292969 174.386719 L 95.257812 256.007812 C 85.683594 264.230469 70.734375 258.164062 69.738281 245.578125 C 67.453125 216.96875 78.394531 187.707031 101.851562 167.558594 L 102.035156 167.402344 C 125.453125 147.382812 155.96875 141.027344 183.835938 147.585938 C 196.125 150.472656 199.867188 166.164062 190.292969 174.386719 Z M 190.292969 174.386719 " style=" stroke:none;fill-rule:nonzero;fill:rgb(45.490196%,49.411765%,61.960784%);fill-opacity:1;" />
<path d="M 190.292969 174.386719 L 121.476562 233.488281 C 110.488281 242.925781 93.332031 235.960938 92.199219 221.523438 C 90.722656 203.054688 94.058594 184.347656 102.035156 167.402344 C 125.453125 147.382812 155.96875 141.027344 183.835938 147.585938 C 196.125 150.472656 199.867188 166.164062 190.292969 174.386719 Z M 190.292969 174.386719 " style=" stroke:none;fill-rule:nonzero;fill:rgb(27.843137%,30.980392%,43.529412%);fill-opacity:1;" />
<path d="M 190.292969 174.386719 L 142.769531 215.203125 L 101.851562 167.558594 L 101.863281 167.550781 C 125.308594 147.414062 155.898438 141.011719 183.835938 147.585938 C 196.125 150.472656 199.867188 166.164062 190.292969 174.386719 Z M 190.292969 174.386719 " style=" stroke:none;fill-rule:nonzero;fill:rgb(19.607843%,23.137255%,35.294118%);fill-opacity:1;" />
<path d="M 321.707031 174.386719 L 416.742188 256.007812 C 426.316406 264.230469 441.265625 258.164062 442.261719 245.578125 C 444.546875 216.96875 433.605469 187.707031 410.148438 167.558594 L 409.964844 167.402344 C 386.546875 147.382812 356.03125 141.027344 328.164062 147.585938 C 315.875 150.472656 312.132812 166.164062 321.707031 174.386719 Z M 321.707031 174.386719 " style=" stroke:none;fill-rule:nonzero;fill:rgb(45.490196%,49.411765%,61.960784%);fill-opacity:1;" />
<path d="M 321.707031 174.386719 L 390.523438 233.488281 C 401.511719 242.925781 418.667969 235.960938 419.800781 221.523438 C 421.277344 203.054688 417.941406 184.347656 409.964844 167.402344 C 386.546875 147.382812 356.03125 141.027344 328.164062 147.585938 C 315.875 150.472656 312.132812 166.164062 321.707031 174.386719 Z M 321.707031 174.386719 " style=" stroke:none;fill-rule:nonzero;fill:rgb(27.843137%,30.980392%,43.529412%);fill-opacity:1;" />
<path d="M 321.707031 174.386719 L 369.230469 215.203125 L 410.148438 167.558594 L 410.136719 167.550781 C 386.691406 147.414062 356.101562 141.011719 328.164062 147.585938 C 315.875 150.472656 312.132812 166.164062 321.707031 174.386719 Z M 321.707031 174.386719 " style=" stroke:none;fill-rule:nonzero;fill:rgb(19.607843%,23.137255%,35.294118%);fill-opacity:1;" />
<path d="M 208.941406 465.558594 C 208.710938 467.761719 207.910156 469.929688 206.519531 471.839844 L 198.191406 483.320312 L 184.679688 501.929688 C 180.25 500.648438 175.871094 499.25 171.550781 497.730469 C 167.269531 496.25 163.050781 494.640625 158.878906 492.929688 L 174.5 471.410156 L 185.351562 456.46875 C 187.5 453.5 190.679688 451.699219 194.050781 451.21875 C 197.300781 450.730469 200.75 451.46875 203.621094 453.558594 C 207.550781 456.421875 209.421875 461.050781 208.941406 465.558594 Z M 208.941406 465.558594 " style=" stroke:none;fill-rule:nonzero;fill:rgb(27.843137%,30.980392%,43.529412%);fill-opacity:1;" />
<path d="M 208.941406 465.558594 C 208.710938 467.761719 207.910156 469.929688 206.519531 471.839844 L 198.191406 483.320312 L 184.679688 501.929688 C 180.25 500.648438 175.871094 499.25 171.550781 497.730469 L 186.011719 477.820312 L 200.488281 457.871094 L 203.621094 453.558594 C 207.550781 456.421875 209.421875 461.050781 208.941406 465.558594 Z M 208.941406 465.558594 " style=" stroke:none;fill-rule:nonzero;fill:rgb(19.607843%,23.137255%,35.294118%);fill-opacity:1;" />
<path d="M 353.121094 492.929688 C 348.949219 494.640625 344.730469 496.25 340.449219 497.730469 C 336.128906 499.25 331.75 500.648438 327.320312 501.929688 L 313.808594 483.320312 L 313.808594 483.308594 L 305.480469 471.839844 C 301.238281 465.988281 302.53125 457.808594 308.378906 453.558594 C 314.21875 449.320312 322.398438 450.621094 326.648438 456.46875 L 337.5 471.410156 Z M 353.121094 492.929688 " style=" stroke:none;fill-rule:nonzero;fill:rgb(27.843137%,30.980392%,43.529412%);fill-opacity:1;" />
<path d="M 340.449219 497.730469 C 336.128906 499.25 331.75 500.648438 327.320312 501.929688 L 313.808594 483.320312 L 313.808594 483.308594 L 305.480469 471.839844 C 301.238281 465.988281 302.53125 457.808594 308.378906 453.558594 L 325.988281 477.820312 Z M 340.449219 497.730469 " style=" stroke:none;fill-rule:nonzero;fill:rgb(19.607843%,23.137255%,35.294118%);fill-opacity:1;" />
<path d="M 411.9375 338.449219 C 411.9375 424.085938 342.917969 493.582031 257.472656 494.367188 C 256.984375 494.378906 256.484375 494.378906 255.996094 494.378906 C 169.882812 494.378906 100.066406 424.574219 100.066406 338.449219 C 100.066406 252.332031 169.878906 182.515625 255.996094 182.515625 C 256.484375 182.515625 256.984375 182.515625 257.472656 182.527344 C 342.917969 183.3125 411.9375 252.820312 411.9375 338.449219 Z M 411.9375 338.449219 " style=" stroke:none;fill-rule:nonzero;fill:rgb(100%,20.392157%,27.058824%);fill-opacity:1;" />
<path d="M 411.9375 338.449219 C 411.9375 424.085938 342.917969 493.582031 257.472656 494.367188 C 194.738281 470.382812 150.183594 409.625 150.183594 338.449219 C 150.183594 267.28125 194.738281 206.519531 257.472656 182.527344 C 342.917969 183.3125 411.9375 252.820312 411.9375 338.449219 Z M 411.9375 338.449219 " style=" stroke:none;fill-rule:nonzero;fill:rgb(86.666667%,7.058824%,39.607843%);fill-opacity:1;" />
<path d="M 411.9375 338.449219 C 411.9375 424.574219 342.121094 494.378906 255.996094 494.378906 L 255.996094 182.515625 C 342.121094 182.515625 411.9375 252.332031 411.9375 338.449219 Z M 411.9375 338.449219 " style=" stroke:none;fill-rule:nonzero;fill:rgb(72.941176%,5.098039%,36.078431%);fill-opacity:1;" />
<path d="M 378.164062 338.449219 C 378.164062 341.132812 378.078125 343.792969 377.90625 346.441406 C 376.839844 362.914062 372.515625 378.503906 365.550781 392.558594 C 363.199219 397.316406 360.539062 401.910156 357.605469 406.296875 C 348.683594 419.632812 337.199219 431.117188 323.851562 440.046875 C 319.460938 442.984375 314.871094 445.652344 310.105469 448.011719 C 296.050781 454.957031 280.460938 459.292969 263.988281 460.347656 C 261.347656 460.523438 258.679688 460.609375 256.003906 460.609375 C 253.355469 460.609375 250.71875 460.523438 248.109375 460.359375 C 231.628906 459.304688 216.035156 454.984375 201.972656 448.050781 C 197.203125 445.691406 192.609375 443.03125 188.214844 440.097656 C 174.859375 431.164062 163.367188 419.679688 154.425781 406.335938 C 151.488281 401.953125 148.832031 397.367188 146.460938 392.597656 C 139.503906 378.53125 135.167969 362.933594 134.105469 346.441406 C 133.929688 343.792969 133.84375 341.132812 133.84375 338.449219 C 133.84375 335.800781 133.929688 333.160156 134.09375 330.550781 C 135.148438 314.058594 139.476562 298.449219 146.433594 284.375 C 148.792969 279.609375 151.449219 275.023438 154.375 270.628906 C 163.316406 257.265625 174.820312 245.769531 188.175781 236.828125 C 192.570312 233.890625 197.15625 231.226562 201.925781 228.863281 L 201.933594 228.863281 C 216.007812 221.917969 231.617188 217.59375 248.109375 216.535156 C 250.71875 216.375 253.359375 216.289062 256.007812 216.289062 C 258.683594 216.289062 261.351562 216.375 263.988281 216.546875 C 280.480469 217.613281 296.078125 221.9375 310.144531 228.902344 C 314.914062 231.273438 319.5 233.929688 323.894531 236.878906 C 337.246094 245.820312 348.730469 257.320312 357.652344 270.675781 C 360.589844 275.0625 363.246094 279.65625 365.589844 284.414062 C 372.542969 298.480469 376.859375 314.070312 377.914062 330.554688 C 378.078125 333.160156 378.164062 335.800781 378.164062 338.449219 Z M 378.164062 338.449219 " style=" stroke:none;fill-rule:nonzero;fill:rgb(100%,100%,100%);fill-opacity:1;" />
<path d="M 378.160156 338.449219 C 378.160156 405.914062 323.464844 460.609375 256 460.609375 L 256 216.289062 C 323.464844 216.289062 378.160156 270.984375 378.160156 338.449219 Z M 378.160156 338.449219 " style=" stroke:none;fill-rule:nonzero;fill:rgb(81.568627%,96.470588%,100%);fill-opacity:1;" />
<path d="M 160.898438 338.371094 L 160.898438 338.621094 C 160.910156 342.929688 157.464844 346.4375 153.167969 346.4375 L 134.105469 346.4375 C 133.929688 343.789062 133.84375 341.132812 133.84375 338.445312 C 133.84375 335.800781 133.929688 333.160156 134.09375 330.550781 L 153.167969 330.550781 C 157.464844 330.550781 160.898438 334.0625 160.898438 338.371094 Z M 160.898438 338.371094 " style=" stroke:none;fill-rule:nonzero;fill:rgb(19.607843%,23.137255%,35.294118%);fill-opacity:1;" />
<path d="M 173.71875 290.738281 C 173.648438 290.863281 173.582031 290.976562 173.515625 291.09375 C 171.386719 294.796875 166.648438 296.050781 162.953125 293.921875 L 146.433594 284.375 C 148.792969 279.609375 151.449219 275.023438 154.375 270.628906 L 170.898438 280.164062 C 174.601562 282.304688 175.867188 287.042969 173.71875 290.738281 Z M 173.71875 290.738281 " style=" stroke:none;fill-rule:nonzero;fill:rgb(19.607843%,23.137255%,35.294118%);fill-opacity:1;" />
<path d="M 208.648438 255.96875 C 208.523438 256.035156 208.410156 256.101562 208.285156 256.171875 C 204.589844 258.320312 199.851562 257.054688 197.710938 253.347656 L 188.175781 236.828125 C 192.570312 233.890625 197.15625 231.226562 201.921875 228.863281 L 201.933594 228.863281 L 211.480469 245.40625 C 213.609375 249.097656 212.351562 253.839844 208.648438 255.96875 Z M 208.648438 255.96875 " style=" stroke:none;fill-rule:nonzero;fill:rgb(19.607843%,23.137255%,35.294118%);fill-opacity:1;" />
<path d="M 263.988281 216.546875 L 263.988281 235.621094 C 263.988281 239.917969 260.476562 243.363281 256.167969 243.351562 L 255.929688 243.351562 C 251.621094 243.351562 248.109375 239.917969 248.109375 235.621094 L 248.109375 216.539062 C 250.71875 216.375 253.355469 216.289062 256.003906 216.289062 C 258.683594 216.289062 261.347656 216.375 263.988281 216.546875 Z M 263.988281 216.546875 " style=" stroke:none;fill-rule:nonzero;fill:rgb(19.607843%,23.137255%,35.294118%);fill-opacity:1;" />
<path d="M 323.890625 236.875 L 314.355469 253.386719 C 312.21875 257.089844 307.476562 258.367188 303.78125 256.207031 C 303.65625 256.140625 303.542969 256.074219 303.429688 256.007812 C 299.726562 253.875 298.46875 249.136719 300.597656 245.441406 L 310.144531 228.902344 C 314.910156 231.273438 319.496094 233.929688 323.890625 236.875 Z M 323.890625 236.875 " style=" stroke:none;fill-rule:nonzero;fill:rgb(19.607843%,23.137255%,35.294118%);fill-opacity:1;" />
<path d="M 365.585938 284.414062 L 349.066406 293.949219 C 345.371094 296.089844 340.632812 294.824219 338.503906 291.121094 C 338.4375 291.007812 338.367188 290.890625 338.3125 290.777344 C 336.160156 287.082031 337.429688 282.34375 341.132812 280.214844 L 357.652344 270.675781 C 360.589844 275.058594 363.246094 279.65625 365.585938 284.414062 Z M 365.585938 284.414062 " style=" stroke:none;fill-rule:nonzero;fill:rgb(19.607843%,23.137255%,35.294118%);fill-opacity:1;" />
<path d="M 378.164062 338.449219 C 378.164062 341.132812 378.078125 343.792969 377.90625 346.441406 L 358.832031 346.441406 C 354.535156 346.441406 351.089844 342.929688 351.101562 338.621094 L 351.101562 338.371094 C 351.101562 334.0625 354.535156 330.554688 358.832031 330.554688 L 377.914062 330.554688 C 378.078125 333.160156 378.164062 335.800781 378.164062 338.449219 Z M 378.164062 338.449219 " style=" stroke:none;fill-rule:nonzero;fill:rgb(19.607843%,23.137255%,35.294118%);fill-opacity:1;" />
<path d="M 256.046875 401.632812 C 251.910156 401.632812 248.550781 398.28125 248.546875 394.140625 L 248.496094 338.503906 L 248.496094 261.582031 C 248.496094 257.441406 251.855469 254.082031 255.996094 254.082031 C 260.140625 254.082031 263.496094 257.441406 263.496094 261.582031 L 263.496094 338.496094 L 263.546875 394.128906 C 263.550781 398.269531 260.195312 401.632812 256.054688 401.636719 C 256.050781 401.632812 256.050781 401.632812 256.046875 401.632812 Z M 256.046875 401.632812 " style=" stroke:none;fill-rule:nonzero;fill:rgb(19.607843%,23.137255%,35.294118%);fill-opacity:1;" />
<path d="M 276.863281 338.449219 C 276.863281 349.972656 267.523438 359.316406 255.996094 359.316406 C 244.472656 359.316406 235.132812 349.972656 235.132812 338.449219 C 235.132812 326.921875 244.472656 317.582031 255.996094 317.582031 C 267.523438 317.582031 276.863281 326.921875 276.863281 338.449219 Z M 276.863281 338.449219 " style=" stroke:none;fill-rule:nonzero;fill:rgb(19.607843%,23.137255%,35.294118%);fill-opacity:1;" />
<path d="M 264.269531 338.449219 C 264.269531 343.015625 260.566406 346.71875 255.996094 346.71875 C 251.429688 346.71875 247.726562 343.015625 247.726562 338.449219 C 247.726562 333.878906 251.429688 330.179688 255.996094 330.179688 C 260.566406 330.179688 264.269531 333.878906 264.269531 338.449219 Z M 264.269531 338.449219 " style=" stroke:none;fill-rule:nonzero;fill:rgb(81.568627%,96.470588%,100%);fill-opacity:1;" />
<path d="M 207.0625 354.683594 L 188.972656 354.683594 C 185.027344 354.683594 181.828125 351.484375 181.828125 347.539062 L 181.828125 329.449219 C 181.828125 325.507812 185.027344 322.308594 188.972656 322.308594 L 207.0625 322.308594 C 211.003906 322.308594 214.203125 325.507812 214.203125 329.449219 L 214.203125 347.539062 C 214.203125 351.484375 211.003906 354.683594 207.0625 354.683594 Z M 207.0625 354.683594 " style=" stroke:none;fill-rule:nonzero;fill:rgb(100%,81.960784%,7.058824%);fill-opacity:1;" />
<path d="M 170.933594 396.796875 L 154.425781 406.335938 C 151.488281 401.949219 148.832031 397.363281 146.460938 392.59375 L 162.992188 383.050781 C 166.695312 380.917969 171.425781 382.175781 173.554688 385.871094 C 173.621094 385.984375 173.6875 386.109375 173.757812 386.226562 C 175.90625 389.917969 174.636719 394.660156 170.933594 396.796875 Z M 170.933594 396.796875 " style=" stroke:none;fill-rule:nonzero;fill:rgb(19.607843%,23.137255%,35.294118%);fill-opacity:1;" />
<path d="M 211.519531 431.507812 L 201.972656 448.050781 C 197.203125 445.6875 192.609375 443.03125 188.214844 440.097656 L 197.75 423.574219 C 199.890625 419.871094 204.628906 418.597656 208.324219 420.746094 C 208.4375 420.8125 208.5625 420.878906 208.679688 420.945312 C 212.382812 423.074219 213.648438 427.816406 211.519531 431.507812 Z M 211.519531 431.507812 " style=" stroke:none;fill-rule:nonzero;fill:rgb(19.607843%,23.137255%,35.294118%);fill-opacity:1;" />
<path d="M 263.988281 441.277344 L 263.988281 460.347656 C 261.347656 460.523438 258.679688 460.609375 256.003906 460.609375 C 253.355469 460.609375 250.71875 460.523438 248.109375 460.359375 L 248.109375 441.277344 C 248.109375 436.980469 251.621094 433.542969 255.929688 433.542969 L 256.167969 433.542969 C 260.476562 433.535156 263.988281 436.976562 263.988281 441.277344 Z M 263.988281 441.277344 " style=" stroke:none;fill-rule:nonzero;fill:rgb(19.607843%,23.137255%,35.294118%);fill-opacity:1;" />
<path d="M 310.105469 448.011719 L 300.558594 431.472656 C 298.429688 427.769531 299.6875 423.039062 303.390625 420.90625 C 303.503906 420.839844 303.617188 420.773438 303.742188 420.707031 C 307.4375 418.558594 312.175781 419.824219 314.316406 423.527344 L 323.851562 440.050781 Z M 310.105469 448.011719 " style=" stroke:none;fill-rule:nonzero;fill:rgb(19.607843%,23.137255%,35.294118%);fill-opacity:1;" />
<path d="M 365.550781 392.558594 C 363.199219 397.316406 360.539062 401.910156 357.605469 406.296875 L 341.09375 396.761719 C 337.390625 394.621094 336.125 389.882812 338.273438 386.1875 C 338.339844 386.074219 338.40625 385.957031 338.464844 385.84375 C 340.605469 382.140625 345.335938 380.871094 349.027344 383.011719 Z M 365.550781 392.558594 " style=" stroke:none;fill-rule:nonzero;fill:rgb(19.607843%,23.137255%,35.294118%);fill-opacity:1;" />
</g>
</svg>