<svg xmlns="http://www.w3.org/2000/svg" height="512pt" version="1.1" viewBox="0 0 512 512" width="512pt">
<g id="surface1">
<path d="M 512 256 C 512 397.386719 397.386719 512 256 512 C 114.613281 512 0 397.386719 0 256 C 0 114.613281 114.613281 0 256 0 C 397.386719 0 512 114.613281 512 256 Z M 512 256 " style=" stroke:none;fill-rule:nonzero;fill:rgb(39.607843%,69.803922%,100%);fill-opacity:1;" />
<path d="M 512 256 C 512 282.050781 508.109375 307.191406 500.871094 330.871094 C 468.859375 435.71875 371.328125 512 256 512 C 151.441406 512 61.511719 449.300781 21.769531 359.449219 C 7.769531 327.820312 0 292.820312 0 256 C 0 209.78125 12.25 166.429688 33.679688 129 C 77.800781 206.070312 160.839844 258 256 258 C 351.160156 258 434.210938 206.070312 478.320312 129 C 499.75 166.429688 512 209.78125 512 256 Z M 512 256 " style=" stroke:none;fill-rule:nonzero;fill:rgb(5.882353%,60.784314%,90.980392%);fill-opacity:1;" />
<path d="M 30.742188 377.703125 C 37.898438 390.921875 46.171875 403.441406 55.460938 415.128906 C 102.359375 474.148438 174.761719 512 256 512 C 337.238281 512 409.640625 474.148438 456.539062 415.128906 C 465.828125 403.441406 474.101562 390.921875 481.257812 377.703125 Z M 30.742188 377.703125 " style=" stroke:none;fill-rule:nonzero;fill:rgb(0%,40%,90.980392%);fill-opacity:1;" />
<path d="M 312.398438 289.058594 L 125.300781 476.160156 C 69.25 442.820312 27.011719 388.679688 9.238281 324.378906 L 178.480469 155.140625 Z M 312.398438 289.058594 " style=" stroke:none;fill-rule:nonzero;fill:rgb(81.568627%,96.470588%,100%);fill-opacity:1;" />
<path d="M 463.445312 295.070312 L 350.578125 407.9375 L 350.578125 468.53125 L 315.46875 468.53125 L 315.46875 393.394531 L 428.019531 280.84375 L 307.355469 160.179688 L 319.769531 147.769531 L 319.769531 147.765625 L 332.179688 135.355469 L 463.445312 266.617188 C 471.300781 274.472656 471.300781 287.210938 463.445312 295.070312 Z M 463.445312 295.070312 " style=" stroke:none;fill-rule:nonzero;fill:rgb(100%,100%,100%);fill-opacity:1;" />
<path d="M 463.445312 295.070312 L 350.578125 407.9375 L 350.578125 468.53125 L 333.023438 468.53125 L 333.023438 400.664062 L 452.84375 280.84375 L 319.769531 147.769531 L 319.769531 147.765625 L 332.179688 135.355469 L 463.445312 266.617188 C 471.300781 274.472656 471.300781 287.210938 463.445312 295.070312 Z M 463.445312 295.070312 " style=" stroke:none;fill-rule:nonzero;fill:rgb(56.078431%,78.823529%,96.862745%);fill-opacity:1;" />
<path d="M 289.484375 178.050781 C 273.144531 161.707031 246.652344 161.707031 230.3125 178.050781 C 213.96875 194.390625 213.96875 220.882812 230.3125 237.222656 C 246.652344 253.5625 273.144531 253.5625 289.484375 237.222656 C 305.824219 220.882812 305.824219 194.390625 289.484375 178.050781 Z M 289.484375 178.050781 " style=" stroke:none;fill-rule:nonzero;fill:rgb(100%,81.960784%,7.058824%);fill-opacity:1;" />
<path d="M 289.488281 237.222656 C 273.148438 253.5625 246.65625 253.5625 230.316406 237.222656 L 289.488281 178.050781 C 305.828125 194.390625 305.828125 220.882812 289.488281 237.222656 Z M 289.488281 237.222656 " style=" stroke:none;fill-rule:nonzero;fill:rgb(100%,62.352941%,0%);fill-opacity:1;" />
<path d="M 312.398438 289.058594 L 178.480469 155.140625 C 200.222656 133.398438 229.902344 124.445312 258.191406 128.265625 L 296.226562 90.230469 C 307.425781 79.035156 322.097656 73.4375 336.769531 73.4375 C 351.441406 73.4375 366.113281 79.035156 377.308594 90.230469 L 377.523438 90.445312 C 399.699219 112.851562 399.625 148.992188 377.308594 171.308594 L 339.269531 209.347656 C 343.09375 237.632812 334.140625 267.316406 312.398438 289.058594 Z M 312.398438 289.058594 " style=" stroke:none;fill-rule:nonzero;fill:rgb(45.490196%,49.411765%,61.960784%);fill-opacity:1;" />
<path d="M 312.398438 289.058594 L 199.929688 176.585938 C 223.039062 153.476562 254.59375 143.960938 284.664062 148.019531 L 325.097656 107.585938 C 337 95.683594 352.597656 89.734375 368.191406 89.734375 C 371.3125 89.734375 374.433594 89.96875 377.523438 90.445312 C 399.699219 112.851562 399.625 148.992188 377.308594 171.308594 L 339.269531 209.347656 C 343.09375 237.632812 334.140625 267.316406 312.398438 289.058594 Z M 312.398438 289.058594 " style=" stroke:none;fill-rule:nonzero;fill:rgb(27.843137%,30.980392%,43.529412%);fill-opacity:1;" />
<path d="M 312.398438 289.058594 L 245.4375 222.097656 L 377.308594 90.230469 C 399.695312 112.621094 399.695312 148.917969 377.308594 171.308594 L 339.269531 209.347656 C 343.09375 237.632812 334.140625 267.316406 312.398438 289.058594 Z M 312.398438 289.058594 " style=" stroke:none;fill-rule:nonzero;fill:rgb(19.607843%,23.137255%,35.294118%);fill-opacity:1;" />
<path d="M 476.53125 279.679688 C 476.53125 297.429688 462.140625 311.820312 444.386719 311.820312 C 426.636719 311.820312 412.242188 297.429688 412.242188 279.679688 C 412.242188 261.925781 426.636719 247.535156 444.386719 247.535156 C 462.140625 247.535156 476.53125 261.925781 476.53125 279.679688 Z M 476.53125 279.679688 " style=" stroke:none;fill-rule:nonzero;fill:rgb(100%,81.960784%,7.058824%);fill-opacity:1;" />
<path d="M 476.53125 279.675781 C 476.53125 297.429688 462.140625 311.820312 444.386719 311.820312 L 444.386719 247.535156 C 462.140625 247.535156 476.53125 261.925781 476.53125 279.675781 Z M 476.53125 279.675781 " style=" stroke:none;fill-rule:nonzero;fill:rgb(100%,62.352941%,0%);fill-opacity:1;" />
<path d="M 459.382812 279.679688 C 459.382812 287.957031 452.667969 294.671875 444.386719 294.671875 C 436.105469 294.671875 429.394531 287.957031 429.394531 279.679688 C 429.394531 271.398438 436.105469 264.683594 444.386719 264.683594 C 452.667969 264.683594 459.382812 271.398438 459.382812 279.679688 Z M 459.382812 279.679688 " style=" stroke:none;fill-rule:nonzero;fill:rgb(27.843137%,30.980392%,43.529412%);fill-opacity:1;" />
<path d="M 425.058594 448.230469 C 398.640625 471.488281 367.398438 489.378906 333.019531 500.210938 C 308.710938 507.871094 282.839844 512 256 512 L 253.988281 512 L 253.988281 511.988281 C 232.929688 511.828125 212.480469 509.121094 192.921875 504.171875 L 192.921875 489.53125 C 192.921875 466.71875 211.410156 448.230469 234.21875 448.230469 Z M 425.058594 448.230469 " style=" stroke:none;fill-rule:nonzero;fill:rgb(45.490196%,49.411765%,61.960784%);fill-opacity:1;" />
<path d="M 425.058594 448.230469 C 398.640625 471.488281 367.398438 489.378906 333.019531 500.210938 C 308.710938 507.871094 282.839844 512 256 512 L 253.988281 512 L 253.988281 489.53125 C 253.988281 466.71875 272.480469 448.230469 295.300781 448.230469 Z M 425.058594 448.230469 " style=" stroke:none;fill-rule:nonzero;fill:rgb(27.843137%,30.980392%,43.529412%);fill-opacity:1;" />
<path d="M 425.058594 448.230469 C 398.640625 471.488281 367.398438 489.378906 333.019531 500.210938 L 333.019531 448.230469 Z M 425.058594 448.230469 " style=" stroke:none;fill-rule:nonzero;fill:rgb(19.607843%,23.137255%,35.294118%);fill-opacity:1;" />
</g>
</svg>