<svg xmlns="http://www.w3.org/2000/svg" height="512pt" version="1.1" viewBox="0 0 512 512" width="512pt">
<g id="surface1">
<path d="M 512 256 C 512 397.386719 397.386719 512 256 512 C 114.613281 512 0 397.386719 0 256 C 0 114.613281 114.613281 0 256 0 C 397.386719 0 512 114.613281 512 256 Z M 512 256 " style=" stroke:none;fill-rule:nonzero;fill:rgb(61.960784%,41.176471%,88.627451%);fill-opacity:1;" />
<path d="M 512 256 C 512 282.050781 508.109375 307.191406 500.871094 330.871094 C 468.859375 435.71875 371.328125 512 256 512 C 151.441406 512 61.511719 449.300781 21.769531 359.449219 C 7.769531 327.820312 0 292.820312 0 256 C 0 209.78125 12.25 166.429688 33.679688 129 C 77.800781 206.070312 160.839844 258 256 258 C 351.160156 258 434.210938 206.070312 478.320312 129 C 499.75 166.429688 512 209.78125 512 256 Z M 512 256 " style=" stroke:none;fill-rule:nonzero;fill:rgb(55.686275%,30.980392%,82.352941%);fill-opacity:1;" />
<path d="M 30.742188 377.703125 C 37.898438 390.921875 46.171875 403.441406 55.460938 415.128906 C 102.359375 474.148438 174.761719 512 256 512 C 337.238281 512 409.640625 474.148438 456.539062 415.128906 C 465.828125 403.441406 474.101562 390.921875 481.257812 377.703125 Z M 30.742188 377.703125 " style=" stroke:none;fill-rule:nonzero;fill:rgb(43.921569%,21.960784%,72.941176%);fill-opacity:1;" />
<path d="M 432.5 335.5 C 432.5 374.660156 419.742188 410.855469 398.148438 440.136719 C 376.730469 469.195312 346.601562 491.445312 311.621094 503.050781 C 294.238281 508.820312 275.660156 511.964844 256.339844 512 L 256 512 C 236.5625 512 217.859375 508.855469 200.378906 503.050781 C 165.398438 491.445312 135.269531 469.195312 113.851562 440.136719 C 92.257812 410.855469 79.5 374.660156 79.5 335.5 C 79.5 335.132812 79.5 334.773438 79.507812 334.410156 C 79.730469 296.449219 91.941406 261.324219 112.558594 232.632812 C 134.488281 202.113281 165.90625 178.878906 202.507812 167.257812 C 219.382812 161.894531 237.355469 159 256 159 L 256.339844 159 C 274.867188 159.035156 292.71875 161.929688 309.492188 167.257812 C 346.09375 178.878906 377.511719 202.117188 399.441406 232.632812 C 420.058594 261.324219 432.269531 296.449219 432.492188 334.410156 C 432.5 334.773438 432.5 335.132812 432.5 335.5 Z M 432.5 335.5 " style=" stroke:none;fill-rule:nonzero;fill:rgb(100%,100%,100%);fill-opacity:1;" />
<path d="M 432.5 335.5 C 432.5 374.660156 419.742188 410.855469 398.148438 440.136719 C 376.730469 469.195312 346.601562 491.445312 311.621094 503.050781 C 294.238281 508.820312 275.660156 511.964844 256.339844 512 C 229.402344 497.90625 206.082031 477.832031 188.175781 453.527344 C 163.8125 420.496094 149.425781 379.675781 149.425781 335.5 C 149.425781 335.085938 149.425781 334.679688 149.4375 334.273438 C 149.683594 291.453125 163.464844 251.828125 186.71875 219.46875 C 204.828125 194.269531 228.671875 173.480469 256.339844 159 C 274.867188 159.035156 292.71875 161.929688 309.492188 167.257812 C 346.09375 178.878906 377.511719 202.113281 399.441406 232.632812 C 420.058594 261.324219 432.269531 296.445312 432.492188 334.410156 C 432.5 334.773438 432.5 335.132812 432.5 335.5 Z M 432.5 335.5 " style=" stroke:none;fill-rule:nonzero;fill:rgb(81.568627%,96.470588%,100%);fill-opacity:1;" />
<path d="M 432.5 335.5 C 432.5 374.660156 419.742188 410.855469 398.148438 440.136719 C 376.730469 469.195312 346.601562 491.445312 311.621094 503.050781 C 294.140625 508.855469 275.4375 512 256 512 L 256 159 C 274.644531 159 292.617188 161.894531 309.492188 167.257812 C 346.09375 178.878906 377.511719 202.117188 399.441406 232.632812 C 420.058594 261.324219 432.269531 296.449219 432.492188 334.410156 C 432.5 334.773438 432.5 335.132812 432.5 335.5 Z M 432.5 335.5 " style=" stroke:none;fill-rule:nonzero;fill:rgb(56.078431%,78.823529%,96.862745%);fill-opacity:1;" />
<path d="M 318.140625 321.546875 L 294.40625 394.597656 L 217.59375 394.597656 L 193.851562 321.546875 L 256 276.394531 Z M 318.140625 321.546875 " style=" stroke:none;fill-rule:nonzero;fill:rgb(27.843137%,30.980392%,43.529412%);fill-opacity:1;" />
<path d="M 256 276.394531 L 318.140625 321.546875 L 294.40625 394.597656 L 256 394.597656 Z M 256 276.394531 " style=" stroke:none;fill-rule:nonzero;fill:rgb(19.607843%,23.137255%,35.294118%);fill-opacity:1;" />
<path d="M 318.140625 193.894531 L 256 239.039062 L 202.507812 200.171875 L 193.859375 193.894531 L 202.507812 167.257812 C 219.382812 161.894531 237.355469 159 256 159 L 256.339844 159 C 257.390625 159 258.441406 159.007812 259.492188 159.035156 C 260.644531 159.054688 261.804688 159.09375 262.960938 159.136719 C 263.621094 159.15625 264.277344 159.183594 264.929688 159.230469 C 265.53125 159.246094 266.121094 159.285156 266.71875 159.320312 C 268.996094 159.449219 271.253906 159.636719 273.503906 159.855469 C 274.628906 159.976562 275.761719 160.097656 276.875 160.226562 C 279.070312 160.484375 281.246094 160.777344 283.410156 161.121094 C 285.6875 161.46875 287.945312 161.875 290.195312 162.316406 C 291.289062 162.53125 292.378906 162.75 293.464844 162.992188 C 295.621094 163.453125 297.761719 163.960938 299.890625 164.503906 C 299.90625 164.511719 299.925781 164.519531 299.945312 164.519531 C 302.082031 165.066406 304.203125 165.65625 306.3125 166.28125 C 307.382812 166.59375 308.441406 166.925781 309.492188 167.257812 Z M 318.140625 193.894531 " style=" stroke:none;fill-rule:nonzero;fill:rgb(45.490196%,49.411765%,61.960784%);fill-opacity:1;" />
<path d="M 318.140625 193.894531 L 256 239.039062 L 202.507812 200.171875 C 217.898438 183.570312 236.09375 169.597656 256.332031 159 L 256.339844 159 C 257.390625 159 258.441406 159.007812 259.492188 159.035156 C 260.644531 159.054688 261.804688 159.09375 262.960938 159.136719 C 263.621094 159.15625 264.277344 159.183594 264.929688 159.230469 C 265.53125 159.246094 266.121094 159.285156 266.71875 159.320312 C 268.984375 159.460938 271.253906 159.636719 273.503906 159.855469 C 274.628906 159.976562 275.761719 160.097656 276.875 160.226562 C 279.070312 160.484375 281.246094 160.789062 283.410156 161.121094 C 285.6875 161.46875 287.945312 161.875 290.195312 162.316406 C 291.289062 162.53125 292.378906 162.75 293.464844 162.992188 C 295.621094 163.460938 297.761719 163.960938 299.890625 164.503906 C 299.90625 164.511719 299.925781 164.519531 299.945312 164.519531 C 302.082031 165.074219 304.210938 165.65625 306.3125 166.28125 C 307.382812 166.59375 308.441406 166.925781 309.492188 167.257812 Z M 318.140625 193.894531 " style=" stroke:none;fill-rule:nonzero;fill:rgb(27.843137%,30.980392%,43.529412%);fill-opacity:1;" />
<path d="M 318.140625 193.894531 L 256 239.039062 L 256 159 C 274.644531 159 292.617188 161.894531 309.492188 167.257812 Z M 318.140625 193.894531 " style=" stroke:none;fill-rule:nonzero;fill:rgb(19.607843%,23.137255%,35.294118%);fill-opacity:1;" />
<path d="M 164.253906 305.695312 L 150.402344 315.757812 L 150.394531 315.757812 L 102.113281 350.835938 L 79.511719 334.414062 C 79.730469 296.449219 91.9375 261.324219 112.5625 232.628906 L 140.523438 232.628906 L 156.632812 282.226562 Z M 164.253906 305.695312 " style=" stroke:none;fill-rule:nonzero;fill:rgb(45.490196%,49.411765%,61.960784%);fill-opacity:1;" />
<path d="M 164.253906 305.695312 L 150.402344 315.757812 C 151.53125 304.265625 153.632812 293.058594 156.632812 282.226562 Z M 164.253906 305.695312 " style=" stroke:none;fill-rule:nonzero;fill:rgb(27.843137%,30.980392%,43.529412%);fill-opacity:1;" />
<path d="M 223.039062 486.589844 L 220.800781 488.210938 L 220.789062 488.21875 L 200.371094 503.050781 C 165.398438 491.441406 135.269531 469.191406 113.851562 440.128906 L 122.488281 413.539062 L 199.289062 413.539062 Z M 223.039062 486.589844 " style=" stroke:none;fill-rule:nonzero;fill:rgb(45.490196%,49.411765%,61.960784%);fill-opacity:1;" />
<path d="M 223.039062 486.589844 L 220.800781 488.210938 L 220.789062 488.21875 C 208.578125 478 197.621094 466.359375 188.171875 453.53125 C 179.078125 441.210938 171.378906 427.800781 165.300781 413.539062 L 199.289062 413.539062 Z M 223.039062 486.589844 " style=" stroke:none;fill-rule:nonzero;fill:rgb(27.843137%,30.980392%,43.529412%);fill-opacity:1;" />
<path d="M 398.152344 440.132812 C 376.730469 469.195312 346.601562 491.449219 311.621094 503.054688 L 288.964844 486.589844 L 312.699219 413.539062 L 389.515625 413.539062 Z M 398.152344 440.132812 " style=" stroke:none;fill-rule:nonzero;fill:rgb(19.607843%,23.137255%,35.294118%);fill-opacity:1;" />
<path d="M 432.492188 334.410156 L 409.882812 350.839844 L 347.738281 305.691406 L 371.476562 232.636719 L 399.441406 232.636719 C 420.054688 261.324219 432.269531 296.449219 432.492188 334.410156 Z M 432.492188 334.410156 " style=" stroke:none;fill-rule:nonzero;fill:rgb(19.607843%,23.137255%,35.294118%);fill-opacity:1;" />
</g>
</svg>