<svg xmlns="http://www.w3.org/2000/svg" height="512pt" version="1.1" viewBox="0 0 512 512" width="512pt">
<g id="surface1">
<path d="M 512 256 C 512 397.386719 397.386719 512 256 512 C 114.613281 512 0 397.386719 0 256 C 0 114.613281 114.613281 0 256 0 C 397.386719 0 512 114.613281 512 256 Z M 512 256 " style=" stroke:none;fill-rule:nonzero;fill:rgb(70.980392%,88.627451%,21.568627%);fill-opacity:1;" />
<path d="M 512 256 C 512 282.050781 508.109375 307.191406 500.871094 330.871094 C 468.859375 435.71875 371.328125 512 256 512 C 151.441406 512 61.511719 449.300781 21.769531 359.449219 C 7.769531 327.820312 0 292.820312 0 256 C 0 209.78125 12.25 166.429688 33.679688 129 C 77.800781 206.070312 160.839844 258 256 258 C 351.160156 258 434.210938 206.070312 478.320312 129 C 499.75 166.429688 512 209.78125 512 256 Z M 512 256 " style=" stroke:none;fill-rule:nonzero;fill:rgb(58.431373%,83.921569%,0%);fill-opacity:1;" />
<path d="M 30.742188 377.703125 C 37.898438 390.921875 46.171875 403.441406 55.460938 415.128906 C 102.359375 474.148438 174.761719 512 256 512 C 337.238281 512 409.640625 474.148438 456.539062 415.128906 C 465.828125 403.441406 474.101562 390.921875 481.257812 377.703125 Z M 30.742188 377.703125 " style=" stroke:none;fill-rule:nonzero;fill:rgb(52.156863%,68.627451%,7.058824%);fill-opacity:1;" />
<path d="M 433.023438 150.351562 L 433.023438 364.160156 L 78.984375 364.160156 C 78.980469 364.160156 78.976562 364.15625 78.976562 364.152344 L 78.976562 150.351562 C 78.976562 142.042969 85.714844 135.304688 94.023438 135.304688 L 417.984375 135.304688 C 426.285156 135.304688 433.023438 142.042969 433.023438 150.351562 Z M 433.023438 150.351562 " style=" stroke:none;fill-rule:nonzero;fill:rgb(92.941176%,46.666667%,10.588235%);fill-opacity:1;" />
<path d="M 433.023438 150.351562 L 433.023438 364.160156 L 168.890625 364.160156 L 168.890625 135.304688 L 417.984375 135.304688 C 426.285156 135.304688 433.023438 142.042969 433.023438 150.351562 Z M 433.023438 150.351562 " style=" stroke:none;fill-rule:nonzero;fill:rgb(65.098039%,22.352941%,7.843137%);fill-opacity:1;" />
<path d="M 433.023438 150.351562 L 433.023438 364.160156 L 256 364.160156 L 256 135.304688 L 417.984375 135.304688 C 426.285156 135.304688 433.023438 142.042969 433.023438 150.351562 Z M 433.023438 150.351562 " style=" stroke:none;fill-rule:nonzero;fill:rgb(47.843137%,17.647059%,10.196078%);fill-opacity:1;" />
<path d="M 101.179688 151.648438 L 101.179688 347.820312 L 410.820312 347.820312 L 410.820312 151.648438 Z M 101.179688 151.648438 " style=" stroke:none;fill-rule:nonzero;fill:rgb(45.490196%,49.411765%,61.960784%);fill-opacity:1;" />
<path d="M 168.890625 151.652344 L 410.824219 151.652344 L 410.824219 347.816406 L 168.890625 347.816406 Z M 168.890625 151.652344 " style=" stroke:none;fill-rule:nonzero;fill:rgb(27.843137%,30.980392%,43.529412%);fill-opacity:1;" />
<path d="M 256 151.652344 L 410.824219 151.652344 L 410.824219 347.816406 L 256 347.816406 Z M 256 151.652344 " style=" stroke:none;fill-rule:nonzero;fill:rgb(19.607843%,23.137255%,35.294118%);fill-opacity:1;" />
<path d="M 457.550781 364.160156 L 457.550781 384.355469 C 457.550781 390.378906 452.667969 395.257812 446.648438 395.257812 L 65.351562 395.257812 C 59.332031 395.257812 54.449219 390.378906 54.449219 384.355469 L 54.449219 364.160156 Z M 457.550781 364.160156 " style=" stroke:none;fill-rule:nonzero;fill:rgb(100%,100%,100%);fill-opacity:1;" />
<path d="M 457.550781 364.160156 L 457.550781 384.355469 C 457.550781 390.378906 452.667969 395.257812 446.648438 395.257812 L 168.890625 395.257812 L 168.890625 364.160156 Z M 457.550781 364.160156 " style=" stroke:none;fill-rule:nonzero;fill:rgb(81.568627%,96.470588%,100%);fill-opacity:1;" />
<path d="M 457.550781 364.160156 L 457.550781 384.355469 C 457.550781 390.378906 452.667969 395.257812 446.648438 395.257812 L 256 395.257812 L 256 364.160156 Z M 457.550781 364.160156 " style=" stroke:none;fill-rule:nonzero;fill:rgb(56.078431%,78.823529%,96.862745%);fill-opacity:1;" />
<path d="M 168.449219 269.578125 L 168.449219 259.210938 L 187.558594 259.210938 L 187.558594 252.800781 L 168.449219 252.800781 L 168.449219 244.359375 L 188.988281 244.359375 L 188.988281 237.921875 L 160.761719 237.921875 L 160.761719 275.988281 L 189.71875 275.988281 L 189.71875 269.578125 Z M 168.449219 269.578125 " style=" stroke:none;fill-rule:nonzero;fill:rgb(100%,100%,100%);fill-opacity:1;" />
<path d="M 209.351562 248.101562 L 209.351562 254.800781 L 235.980469 254.800781 L 235.980469 248.101562 Z M 209.351562 259.601562 L 209.351562 266.328125 L 235.980469 266.328125 L 235.980469 259.601562 Z M 209.351562 259.601562 " style=" stroke:none;fill-rule:nonzero;fill:rgb(100%,100%,100%);fill-opacity:1;" />
<path d="M 296.078125 252.640625 C 295.390625 251.050781 294.339844 249.839844 292.941406 249.019531 C 291.53125 248.199219 289.820312 247.789062 287.789062 247.789062 C 286.199219 247.789062 284.699219 248.148438 283.300781 248.878906 C 281.898438 249.601562 280.589844 250.699219 279.378906 252.179688 C 278.550781 250.699219 277.480469 249.601562 276.179688 248.878906 C 274.878906 248.148438 273.351562 247.789062 271.589844 247.789062 C 268.261719 247.789062 265.398438 249.25 262.988281 252.179688 L 262.988281 248.410156 L 256.261719 248.410156 L 256.261719 275.988281 L 263.558594 275.988281 L 263.558594 262.589844 C 263.558594 259.941406 263.761719 258.039062 264.140625 256.898438 C 264.53125 255.761719 265.179688 254.890625 266.078125 254.28125 C 266.980469 253.671875 267.988281 253.371094 269.121094 253.371094 C 270.050781 253.371094 270.789062 253.558594 271.339844 253.941406 C 271.878906 254.320312 272.289062 254.898438 272.550781 255.679688 C 272.808594 256.460938 272.941406 258.191406 272.941406 260.878906 L 272.941406 275.988281 L 280.230469 275.988281 L 280.230469 262.75 C 280.230469 260.148438 280.429688 258.25 280.828125 257.039062 C 281.230469 255.839844 281.878906 254.929688 282.78125 254.300781 C 283.679688 253.679688 284.640625 253.371094 285.660156 253.371094 C 287.070312 253.371094 288.101562 253.890625 288.78125 254.929688 C 289.28125 255.71875 289.53125 257.488281 289.53125 260.230469 L 289.53125 275.988281 L 296.828125 275.988281 L 296.828125 258.359375 C 296.828125 255.71875 296.578125 253.820312 296.078125 252.640625 Z M 296.078125 252.640625 " style=" stroke:none;fill-rule:nonzero;fill:rgb(100%,100%,100%);fill-opacity:1;" />
<path d="M 328.519531 261.988281 C 327.878906 264.78125 326.820312 266.820312 325.351562 268.121094 C 323.878906 269.421875 322.121094 270.070312 320.078125 270.070312 C 317.308594 270.070312 315.058594 269.050781 313.320312 267.011719 C 311.589844 264.960938 310.730469 261.53125 310.730469 256.71875 C 310.730469 252.179688 311.609375 248.898438 313.359375 246.878906 C 315.121094 244.851562 317.410156 243.839844 320.230469 243.839844 C 322.28125 243.839844 324.011719 244.410156 325.441406 245.550781 C 326.871094 246.691406 327.808594 248.25 328.261719 250.230469 L 335.871094 248.410156 C 335 245.359375 333.699219 243.019531 331.96875 241.398438 C 329.058594 238.640625 325.28125 237.269531 320.621094 237.269531 C 315.289062 237.269531 310.988281 239.019531 307.710938 242.53125 C 304.441406 246.03125 302.808594 250.949219 302.808594 257.289062 C 302.808594 263.28125 304.429688 268.011719 307.691406 271.460938 C 310.941406 274.910156 315.101562 276.640625 320.148438 276.640625 C 324.238281 276.640625 327.609375 275.628906 330.269531 273.621094 C 332.929688 271.601562 334.828125 268.511719 335.96875 264.359375 Z M 328.519531 261.988281 " style=" stroke:none;fill-rule:nonzero;fill:rgb(100%,100%,100%);fill-opacity:1;" />
<path d="M 345.800781 242.230469 C 346.058594 241.941406 346.671875 241.351562 347.628906 240.46875 C 348.601562 239.589844 349.261719 238.910156 349.628906 238.441406 C 350.191406 237.730469 350.601562 237.050781 350.851562 236.398438 C 351.109375 235.75 351.238281 235.070312 351.238281 234.351562 C 351.238281 233.089844 350.789062 232.039062 349.890625 231.191406 C 348.988281 230.339844 347.761719 229.921875 346.191406 229.921875 C 344.75 229.921875 343.558594 230.28125 342.601562 231.011719 C 341.640625 231.75 341.070312 232.949219 340.890625 234.628906 L 343.941406 234.941406 C 343.988281 234.050781 344.210938 233.410156 344.589844 233.019531 C 344.960938 232.640625 345.46875 232.449219 346.109375 232.449219 C 346.75 232.449219 347.261719 232.628906 347.628906 233 C 347.988281 233.359375 348.179688 233.890625 348.179688 234.570312 C 348.179688 235.179688 347.960938 235.808594 347.539062 236.441406 C 347.230469 236.890625 346.390625 237.761719 345.011719 239.050781 C 343.300781 240.628906 342.160156 241.910156 341.578125 242.871094 C 341 243.828125 340.648438 244.839844 340.53125 245.921875 L 351.238281 245.921875 L 351.238281 243.078125 L 345.179688 243.078125 C 345.328125 242.800781 345.539062 242.519531 345.800781 242.230469 Z M 345.800781 242.230469 " style=" stroke:none;fill-rule:nonzero;fill:rgb(100%,100%,100%);fill-opacity:1;" />
<path d="M 207.140625 395.261719 L 171.769531 497.808594 C 161.359375 494.191406 151.261719 489.921875 141.519531 485.03125 L 172.488281 395.261719 Z M 207.140625 395.261719 " style=" stroke:none;fill-rule:nonzero;fill:rgb(92.941176%,46.666667%,10.588235%);fill-opacity:1;" />
<path d="M 370.480469 485.03125 C 360.738281 489.921875 350.640625 494.191406 340.230469 497.808594 L 304.859375 395.261719 L 339.511719 395.261719 Z M 370.480469 485.03125 " style=" stroke:none;fill-rule:nonzero;fill:rgb(65.098039%,22.352941%,7.843137%);fill-opacity:1;" />
<path d="M 172.878906 341.308594 L 172.878906 358.460938 C 172.878906 361.820312 170.152344 364.546875 166.78125 364.546875 L 111.730469 364.546875 C 108.367188 364.546875 105.640625 361.820312 105.640625 358.460938 L 105.640625 341.308594 Z M 172.878906 341.308594 " style=" stroke:none;fill-rule:nonzero;fill:rgb(100%,100%,100%);fill-opacity:1;" />
<path d="M 172.878906 341.308594 L 172.878906 358.460938 C 172.878906 361.820312 170.152344 364.546875 166.78125 364.546875 L 125.214844 364.546875 C 121.851562 364.546875 119.125 361.820312 119.125 358.460938 L 119.125 341.308594 Z M 172.878906 341.308594 " style=" stroke:none;fill-rule:nonzero;fill:rgb(81.568627%,96.470588%,100%);fill-opacity:1;" />
<path d="M 172.878906 341.308594 L 172.878906 358.460938 C 172.878906 361.820312 170.152344 364.546875 166.78125 364.546875 L 139.261719 364.546875 L 139.261719 341.308594 Z M 172.878906 341.308594 " style=" stroke:none;fill-rule:nonzero;fill:rgb(56.078431%,78.823529%,96.862745%);fill-opacity:1;" />
<path d="M 101.339844 333.414062 L 177.179688 333.414062 L 177.179688 347.949219 L 101.339844 347.949219 Z M 101.339844 333.414062 " style=" stroke:none;fill-rule:nonzero;fill:rgb(39.607843%,69.803922%,100%);fill-opacity:1;" />
<path d="M 119.128906 333.414062 L 177.179688 333.414062 L 177.179688 347.949219 L 119.128906 347.949219 Z M 119.128906 333.414062 " style=" stroke:none;fill-rule:nonzero;fill:rgb(5.882353%,60.784314%,90.980392%);fill-opacity:1;" />
<path d="M 139.261719 333.414062 L 177.179688 333.414062 L 177.179688 347.949219 L 139.261719 347.949219 Z M 139.261719 333.414062 " style=" stroke:none;fill-rule:nonzero;fill:rgb(0%,40%,90.980392%);fill-opacity:1;" />
</g>
</svg>