<svg xmlns="http://www.w3.org/2000/svg" height="512pt" version="1.1" viewBox="0 0 512 512" width="512pt">
<g id="surface1">
<path d="M 512 256 C 512 397.386719 397.386719 512 256 512 C 114.613281 512 0 397.386719 0 256 C 0 114.613281 114.613281 0 256 0 C 397.386719 0 512 114.613281 512 256 Z M 512 256 " style=" stroke:none;fill-rule:nonzero;fill:rgb(100%,91.372549%,33.333333%);fill-opacity:1;" />
<path d="M 512 256 C 512 282.050781 508.109375 307.191406 500.871094 330.871094 C 468.859375 435.71875 371.328125 512 256 512 C 151.441406 512 61.511719 449.300781 21.769531 359.449219 C 7.769531 327.820312 0 292.820312 0 256 C 0 209.78125 12.25 166.429688 33.679688 129 C 77.800781 206.070312 160.839844 258 256 258 C 351.160156 258 434.210938 206.070312 478.320312 129 C 499.75 166.429688 512 209.78125 512 256 Z M 512 256 " style=" stroke:none;fill-rule:nonzero;fill:rgb(100%,81.960784%,7.058824%);fill-opacity:1;" />
<path d="M 30.742188 377.703125 C 37.898438 390.921875 46.171875 403.441406 55.460938 415.128906 C 102.359375 474.148438 174.761719 512 256 512 C 337.238281 512 409.640625 474.148438 456.539062 415.128906 C 465.828125 403.441406 474.101562 390.921875 481.257812 377.703125 Z M 30.742188 377.703125 " style=" stroke:none;fill-rule:nonzero;fill:rgb(100%,62.352941%,0%);fill-opacity:1;" />
<path d="M 245.992188 123.074219 L 245.992188 290.257812 L 111.597656 290.257812 C 99.105469 277.769531 91.96875 270.632812 79.746094 258.40625 C 79.4375 258.097656 79.125 257.785156 78.8125 257.472656 L 78.8125 123.074219 Z M 245.992188 123.074219 " style=" stroke:none;fill-rule:nonzero;fill:rgb(39.607843%,69.803922%,100%);fill-opacity:1;" />
<path d="M 162.402344 123.074219 L 245.992188 123.074219 L 245.992188 290.257812 L 162.402344 290.257812 Z M 162.402344 123.074219 " style=" stroke:none;fill-rule:nonzero;fill:rgb(5.882353%,60.784314%,90.980392%);fill-opacity:1;" />
<path d="M 111.597656 258.40625 L 111.597656 290.257812 C 99.105469 277.769531 91.96875 270.632812 79.746094 258.40625 Z M 111.597656 258.40625 " style=" stroke:none;fill-rule:nonzero;fill:rgb(0%,40%,90.980392%);fill-opacity:1;" />
<path d="M 95.671875 141.96875 L 162.402344 141.96875 L 162.402344 156.707031 L 95.671875 156.707031 Z M 95.671875 141.96875 " style=" stroke:none;fill-rule:nonzero;fill:rgb(100%,100%,100%);fill-opacity:1;" />
<path d="M 95.671875 171.3125 L 230.445312 171.3125 L 230.445312 186.050781 L 95.671875 186.050781 Z M 95.671875 171.3125 " style=" stroke:none;fill-rule:nonzero;fill:rgb(100%,100%,100%);fill-opacity:1;" />
<path d="M 95.671875 200.652344 L 230.445312 200.652344 L 230.445312 215.390625 L 95.671875 215.390625 Z M 95.671875 200.652344 " style=" stroke:none;fill-rule:nonzero;fill:rgb(100%,100%,100%);fill-opacity:1;" />
<path d="M 95.671875 229.992188 L 230.445312 229.992188 L 230.445312 244.730469 L 95.671875 244.730469 Z M 95.671875 229.992188 " style=" stroke:none;fill-rule:nonzero;fill:rgb(100%,100%,100%);fill-opacity:1;" />
<path d="M 433.191406 123 L 433.191406 285.890625 L 298.792969 285.890625 C 286.300781 273.402344 279.164062 266.265625 266.941406 254.039062 C 266.632812 253.730469 266.320312 253.414062 266.007812 253.101562 L 266.007812 123 Z M 433.191406 123 " style=" stroke:none;fill-rule:nonzero;fill:rgb(100%,20.392157%,27.058824%);fill-opacity:1;" />
<path d="M 349.597656 123 L 433.191406 123 L 433.191406 285.890625 L 349.597656 285.890625 Z M 349.597656 123 " style=" stroke:none;fill-rule:nonzero;fill:rgb(86.666667%,7.058824%,39.607843%);fill-opacity:1;" />
<path d="M 298.792969 254.039062 L 298.792969 285.890625 C 286.300781 273.402344 279.164062 266.265625 266.941406 254.039062 Z M 298.792969 254.039062 " style=" stroke:none;fill-rule:nonzero;fill:rgb(72.941176%,5.098039%,36.078431%);fill-opacity:1;" />
<path d="M 282.867188 137.601562 L 349.597656 137.601562 L 349.597656 152.339844 L 282.867188 152.339844 Z M 282.867188 137.601562 " style=" stroke:none;fill-rule:nonzero;fill:rgb(100%,100%,100%);fill-opacity:1;" />
<path d="M 282.867188 166.941406 L 417.640625 166.941406 L 417.640625 181.679688 L 282.867188 181.679688 Z M 282.867188 166.941406 " style=" stroke:none;fill-rule:nonzero;fill:rgb(100%,100%,100%);fill-opacity:1;" />
<path d="M 282.867188 196.285156 L 417.640625 196.285156 L 417.640625 211.023438 L 282.867188 211.023438 Z M 282.867188 196.285156 " style=" stroke:none;fill-rule:nonzero;fill:rgb(100%,100%,100%);fill-opacity:1;" />
<path d="M 282.867188 225.625 L 417.640625 225.625 L 417.640625 240.363281 L 282.867188 240.363281 Z M 282.867188 225.625 " style=" stroke:none;fill-rule:nonzero;fill:rgb(100%,100%,100%);fill-opacity:1;" />
<path d="M 78.808594 440.769531 L 78.808594 311.988281 L 245.988281 311.988281 L 245.988281 479.171875 L 130.5 479.171875 C 124.019531 475.519531 117.710938 471.601562 111.601562 467.410156 C 102.601562 461.261719 94.019531 454.539062 85.898438 447.320312 Z M 78.808594 440.769531 " style=" stroke:none;fill-rule:nonzero;fill:rgb(70.980392%,88.627451%,21.568627%);fill-opacity:1;" />
<path d="M 162.402344 311.992188 L 245.992188 311.992188 L 245.992188 479.175781 L 162.402344 479.175781 Z M 162.402344 311.992188 " style=" stroke:none;fill-rule:nonzero;fill:rgb(58.431373%,83.921569%,0%);fill-opacity:1;" />
<path d="M 111.601562 447.320312 L 111.601562 467.410156 C 102.601562 461.261719 94.019531 454.539062 85.898438 447.320312 Z M 111.601562 447.320312 " style=" stroke:none;fill-rule:nonzero;fill:rgb(52.156863%,68.627451%,7.058824%);fill-opacity:1;" />
<path d="M 95.671875 330.886719 L 162.402344 330.886719 L 162.402344 345.625 L 95.671875 345.625 Z M 95.671875 330.886719 " style=" stroke:none;fill-rule:nonzero;fill:rgb(100%,100%,100%);fill-opacity:1;" />
<path d="M 95.671875 360.226562 L 230.445312 360.226562 L 230.445312 374.964844 L 95.671875 374.964844 Z M 95.671875 360.226562 " style=" stroke:none;fill-rule:nonzero;fill:rgb(100%,100%,100%);fill-opacity:1;" />
<path d="M 95.671875 389.566406 L 230.445312 389.566406 L 230.445312 404.304688 L 95.671875 404.304688 Z M 95.671875 389.566406 " style=" stroke:none;fill-rule:nonzero;fill:rgb(100%,100%,100%);fill-opacity:1;" />
<path d="M 95.671875 418.910156 L 230.445312 418.910156 L 230.445312 433.648438 L 95.671875 433.648438 Z M 95.671875 418.910156 " style=" stroke:none;fill-rule:nonzero;fill:rgb(100%,100%,100%);fill-opacity:1;" />
<path d="M 433.191406 311.921875 L 433.191406 440.769531 C 419.761719 453.648438 404.929688 465.078125 388.949219 474.808594 L 298.789062 474.808594 C 286.300781 462.320312 279.160156 455.179688 266.941406 442.949219 C 266.628906 442.648438 266.320312 442.328125 266.011719 442.019531 L 266.011719 311.921875 Z M 433.191406 311.921875 " style=" stroke:none;fill-rule:nonzero;fill:rgb(61.960784%,41.176471%,88.627451%);fill-opacity:1;" />
<path d="M 433.191406 311.921875 L 433.191406 440.769531 C 419.761719 453.648438 404.929688 465.078125 388.949219 474.808594 L 349.601562 474.808594 L 349.601562 311.921875 Z M 433.191406 311.921875 " style=" stroke:none;fill-rule:nonzero;fill:rgb(55.686275%,30.980392%,82.352941%);fill-opacity:1;" />
<path d="M 298.792969 442.953125 L 298.792969 474.804688 C 286.300781 462.320312 279.164062 455.183594 266.941406 442.953125 Z M 298.792969 442.953125 " style=" stroke:none;fill-rule:nonzero;fill:rgb(43.921569%,21.960784%,72.941176%);fill-opacity:1;" />
<path d="M 282.867188 326.519531 L 349.597656 326.519531 L 349.597656 341.257812 L 282.867188 341.257812 Z M 282.867188 326.519531 " style=" stroke:none;fill-rule:nonzero;fill:rgb(100%,100%,100%);fill-opacity:1;" />
<path d="M 282.867188 355.859375 L 417.640625 355.859375 L 417.640625 370.597656 L 282.867188 370.597656 Z M 282.867188 355.859375 " style=" stroke:none;fill-rule:nonzero;fill:rgb(100%,100%,100%);fill-opacity:1;" />
<path d="M 282.867188 385.199219 L 417.640625 385.199219 L 417.640625 399.9375 L 282.867188 399.9375 Z M 282.867188 385.199219 " style=" stroke:none;fill-rule:nonzero;fill:rgb(100%,100%,100%);fill-opacity:1;" />
<path d="M 282.867188 414.539062 L 417.640625 414.539062 L 417.640625 429.277344 L 282.867188 429.277344 Z M 282.867188 414.539062 " style=" stroke:none;fill-rule:nonzero;fill:rgb(100%,100%,100%);fill-opacity:1;" />
</g>
</svg>