<svg xmlns="http://www.w3.org/2000/svg" height="512pt" version="1.1" viewBox="0 0 512 512" width="512pt">
<g id="surface1">
<path d="M 512 256 C 512 397.386719 397.386719 512 256 512 C 114.613281 512 0 397.386719 0 256 C 0 114.613281 114.613281 0 256 0 C 397.386719 0 512 114.613281 512 256 Z M 512 256 " style=" stroke:none;fill-rule:nonzero;fill:rgb(61.960784%,41.176471%,88.627451%);fill-opacity:1;" />
<path d="M 512 256 C 512 282.050781 508.109375 307.191406 500.871094 330.871094 C 468.859375 435.71875 371.328125 512 256 512 C 151.441406 512 61.511719 449.300781 21.769531 359.449219 C 7.769531 327.820312 0 292.820312 0 256 C 0 209.78125 12.25 166.429688 33.679688 129 C 77.800781 206.070312 160.839844 258 256 258 C 351.160156 258 434.210938 206.070312 478.320312 129 C 499.75 166.429688 512 209.78125 512 256 Z M 512 256 " style=" stroke:none;fill-rule:nonzero;fill:rgb(55.686275%,30.980392%,82.352941%);fill-opacity:1;" />
<path d="M 30.742188 377.703125 C 37.898438 390.921875 46.171875 403.441406 55.460938 415.128906 C 102.359375 474.148438 174.761719 512 256 512 C 337.238281 512 409.640625 474.148438 456.539062 415.128906 C 465.828125 403.441406 474.101562 390.921875 481.257812 377.703125 Z M 30.742188 377.703125 " style=" stroke:none;fill-rule:nonzero;fill:rgb(43.921569%,21.960784%,72.941176%);fill-opacity:1;" />
<path d="M 284.160156 433.601562 C 284.160156 455.171875 278.628906 475.449219 268.921875 493.101562 C 268.921875 493.109375 268.910156 493.109375 268.910156 493.121094 C 268.839844 493.25 268.761719 493.390625 268.679688 493.519531 C 268.351562 494.109375 268 494.691406 267.628906 495.261719 C 267.25 495.859375 266.851562 496.441406 266.429688 497.011719 L 266.429688 497.019531 C 266.109375 497.449219 265.800781 497.859375 265.46875 498.269531 C 264.699219 499.230469 263.890625 500.148438 263.03125 501.011719 C 261.53125 502.539062 259.910156 503.921875 258.179688 505.148438 C 256.101562 506.628906 253.871094 507.898438 251.519531 508.910156 C 248.5 510.230469 245.289062 511.148438 241.980469 511.621094 C 213.320312 510.070312 185.921875 503.808594 160.53125 493.601562 C 150.390625 489.519531 140.570312 484.820312 131.128906 479.53125 C 121.238281 473.988281 111.761719 467.820312 102.738281 461.070312 C 100.730469 459.570312 98.75 458.039062 96.789062 456.46875 L 96.78125 456.460938 C 95.851562 455.730469 94.941406 455 94.03125 454.25 C 85.320312 447.128906 77.089844 439.441406 69.390625 431.25 C 59.460938 420.679688 50.410156 409.25 42.371094 397.109375 C 51.679688 366.898438 72.261719 341.640625 99.199219 326.21875 C 112.550781 318.578125 120.898438 304.480469 120.898438 289.078125 L 120.898438 220.050781 L 200.148438 220.050781 L 200.148438 289.078125 C 200.148438 304.5 208.539062 318.589844 221.921875 326.261719 C 224.308594 327.628906 226.648438 329.078125 228.941406 330.601562 C 235.519531 334.980469 241.648438 339.96875 247.261719 345.488281 C 247.398438 345.621094 247.53125 345.761719 247.671875 345.898438 C 254.859375 353.03125 261.171875 361.050781 266.429688 369.769531 C 275.179688 384.25 281.039062 400.671875 283.210938 418.230469 C 283.839844 423.269531 284.160156 428.398438 284.160156 433.601562 Z M 284.160156 433.601562 " style=" stroke:none;fill-rule:nonzero;fill:rgb(100%,100%,100%);fill-opacity:1;" />
<path d="M 284.160156 433.601562 C 284.160156 455.171875 278.628906 475.449219 268.921875 493.101562 C 268.921875 493.109375 268.910156 493.109375 268.910156 493.121094 C 268.839844 493.25 268.761719 493.390625 268.679688 493.519531 C 268.351562 494.109375 268 494.691406 267.628906 495.261719 C 267.25 495.859375 266.851562 496.441406 266.429688 497.011719 L 266.429688 497.019531 C 266.109375 497.449219 265.800781 497.859375 265.46875 498.269531 C 264.699219 499.230469 263.890625 500.148438 263.03125 501.011719 C 261.53125 502.539062 259.910156 503.921875 258.179688 505.148438 C 256.101562 506.628906 253.871094 507.898438 251.519531 508.910156 C 248.5 510.230469 245.289062 511.148438 241.980469 511.621094 C 213.320312 510.070312 185.921875 503.808594 160.53125 493.601562 C 150.390625 489.519531 140.570312 484.820312 131.128906 479.53125 C 121.238281 473.988281 111.761719 467.820312 102.738281 461.070312 C 100.730469 459.570312 98.75 458.039062 96.789062 456.46875 L 96.78125 456.460938 C 95.851562 455.730469 94.941406 455 94.03125 454.25 L 94.03125 443.078125 C 94.03125 442.210938 94.039062 441.328125 94.050781 440.460938 C 94.070312 439.71875 94.078125 438.96875 94.109375 438.230469 C 94.128906 437.5 94.160156 436.78125 94.191406 436.058594 C 94.199219 435.800781 94.21875 435.558594 94.230469 435.308594 C 94.261719 434.671875 94.300781 434.03125 94.339844 433.378906 C 94.371094 432.820312 94.410156 432.25 94.460938 431.691406 C 94.519531 430.808594 94.601562 429.941406 94.679688 429.058594 C 94.730469 428.480469 94.789062 427.898438 94.851562 427.320312 C 94.910156 426.738281 94.96875 426.160156 95.039062 425.578125 C 95.171875 424.421875 95.320312 423.261719 95.480469 422.109375 C 95.550781 421.589844 95.628906 421.070312 95.710938 420.550781 C 95.96875 418.761719 96.269531 416.96875 96.601562 415.191406 C 96.871094 413.75 97.160156 412.308594 97.480469 410.878906 C 97.550781 410.558594 97.609375 410.230469 97.679688 409.910156 C 97.789062 409.398438 97.910156 408.890625 98.03125 408.378906 C 98.820312 404.980469 99.730469 401.609375 100.761719 398.269531 C 100.980469 397.558594 101.199219 396.839844 101.441406 396.128906 C 101.558594 395.738281 101.691406 395.339844 101.828125 394.949219 C 102.199219 393.839844 102.578125 392.738281 102.96875 391.648438 C 103.371094 390.550781 103.769531 389.460938 104.191406 388.371094 C 106.738281 381.71875 109.761719 375.238281 113.25 368.980469 L 123.199219 351.089844 C 134.058594 331.578125 139.75 309.621094 139.75 287.289062 L 139.75 220.050781 L 200.148438 220.050781 L 200.148438 289.078125 C 200.148438 304.5 208.539062 318.589844 221.921875 326.261719 C 224.308594 327.628906 226.648438 329.078125 228.941406 330.601562 C 235.519531 334.980469 241.648438 339.96875 247.261719 345.488281 C 247.398438 345.621094 247.53125 345.761719 247.671875 345.898438 C 254.859375 353.03125 261.171875 361.050781 266.429688 369.769531 C 275.179688 384.25 281.039062 400.671875 283.210938 418.230469 C 283.839844 423.269531 284.160156 428.398438 284.160156 433.601562 Z M 284.160156 433.601562 " style=" stroke:none;fill-rule:nonzero;fill:rgb(81.568627%,96.470588%,100%);fill-opacity:1;" />
<path d="M 284.160156 433.601562 C 284.160156 455.171875 278.628906 475.449219 268.921875 493.101562 C 268.921875 493.109375 268.910156 493.109375 268.910156 493.121094 C 268.839844 493.25 268.761719 493.390625 268.679688 493.519531 C 268.351562 494.109375 268 494.691406 267.628906 495.261719 C 267.25 495.859375 266.851562 496.441406 266.429688 497.011719 L 266.429688 497.019531 C 266.121094 497.449219 265.800781 497.859375 265.46875 498.269531 C 264.699219 499.230469 263.890625 500.148438 263.03125 501.011719 C 261.53125 502.539062 259.910156 503.921875 258.179688 505.148438 C 256.101562 506.628906 253.871094 507.898438 251.519531 508.910156 C 248.5 510.230469 245.289062 511.148438 241.980469 511.621094 C 213.320312 510.070312 185.921875 503.808594 160.53125 493.601562 L 160.53125 220.050781 L 200.148438 220.050781 L 200.148438 289.078125 C 200.148438 304.5 208.539062 318.589844 221.921875 326.261719 C 224.308594 327.628906 226.648438 329.078125 228.941406 330.601562 C 235.519531 334.980469 241.648438 339.96875 247.261719 345.488281 C 247.398438 345.621094 247.53125 345.761719 247.671875 345.898438 C 254.859375 353.03125 261.171875 361.050781 266.429688 369.769531 C 275.179688 384.25 281.039062 400.671875 283.210938 418.230469 C 283.839844 423.269531 284.160156 428.398438 284.160156 433.601562 Z M 284.160156 433.601562 " style=" stroke:none;fill-rule:nonzero;fill:rgb(56.078431%,78.823529%,96.862745%);fill-opacity:1;" />
<path d="M 204.601562 220.050781 L 116.445312 220.050781 C 110.738281 220.050781 106.113281 224.675781 106.113281 230.382812 C 106.113281 236.089844 110.738281 240.714844 116.445312 240.714844 L 204.601562 240.714844 C 210.308594 240.714844 214.933594 236.089844 214.933594 230.382812 C 214.933594 224.675781 210.308594 220.050781 204.601562 220.050781 Z M 204.601562 220.050781 " style=" stroke:none;fill-rule:nonzero;fill:rgb(100%,100%,100%);fill-opacity:1;" />
<path d="M 251.691406 433.601562 C 251.691406 434.171875 251.679688 434.738281 251.671875 435.308594 C 251.660156 435.789062 251.648438 436.269531 251.628906 436.761719 C 251.621094 437.238281 251.601562 437.71875 251.570312 438.199219 C 251.539062 438.800781 251.511719 439.390625 251.46875 439.988281 C 251.441406 440.359375 251.410156 440.71875 251.378906 441.089844 C 251.351562 441.460938 251.320312 441.828125 251.28125 442.210938 C 251.25 442.558594 251.21875 442.910156 251.179688 443.25 C 251.160156 443.460938 251.128906 443.671875 251.109375 443.878906 C 251.050781 444.421875 250.980469 444.960938 250.910156 445.5 C 250.761719 446.621094 250.589844 447.738281 250.398438 448.859375 C 250.339844 449.191406 250.289062 449.511719 250.230469 449.839844 C 250.179688 450.128906 250.128906 450.421875 250.070312 450.710938 C 249.941406 451.410156 249.800781 452.109375 249.648438 452.808594 C 249.5 453.511719 249.339844 454.199219 249.171875 454.898438 C 249.101562 455.230469 249.019531 455.550781 248.929688 455.871094 C 248.851562 456.199219 248.761719 456.519531 248.679688 456.839844 C 248.519531 457.488281 248.339844 458.128906 248.148438 458.78125 C 248 459.328125 247.839844 459.871094 247.671875 460.410156 C 247.539062 460.851562 247.398438 461.28125 247.261719 461.710938 C 246.820312 463.089844 246.339844 464.460938 245.828125 465.808594 C 245.609375 466.398438 245.378906 466.988281 245.140625 467.570312 C 244.851562 468.308594 244.539062 469.050781 244.230469 469.78125 C 243.949219 470.429688 243.660156 471.070312 243.359375 471.710938 C 242.46875 473.660156 241.5 475.578125 240.460938 477.460938 C 239.78125 478.71875 238.289062 479.53125 236.691406 479.53125 L 131.128906 479.53125 C 121.238281 473.988281 111.761719 467.820312 102.738281 461.070312 C 100.730469 459.570312 98.75 458.039062 96.789062 456.46875 L 96.78125 456.460938 C 95.851562 455.730469 94.941406 455 94.03125 454.25 C 85.320312 447.128906 77.089844 439.441406 69.390625 431.25 C 69.78125 416.140625 73.898438 401.410156 81.359375 388.371094 L 239.691406 388.371094 C 240.089844 389.070312 240.488281 389.78125 240.871094 390.5 C 241.488281 391.660156 242.089844 392.828125 242.660156 394.011719 C 243.238281 395.199219 243.78125 396.398438 244.308594 397.621094 C 244.5 398.070312 244.691406 398.519531 244.878906 398.980469 C 245.089844 399.511719 245.300781 400.039062 245.511719 400.570312 C 246.140625 402.191406 246.71875 403.820312 247.261719 405.46875 C 247.398438 405.910156 247.539062 406.351562 247.671875 406.789062 C 248.589844 409.789062 249.359375 412.828125 249.960938 415.910156 C 250.058594 416.390625 250.148438 416.871094 250.230469 417.359375 C 250.289062 417.679688 250.351562 418 250.398438 418.328125 C 250.480469 418.828125 250.570312 419.328125 250.640625 419.828125 C 250.671875 419.980469 250.691406 420.128906 250.710938 420.28125 C 250.761719 420.558594 250.800781 420.851562 250.828125 421.140625 C 250.851562 421.210938 250.851562 421.269531 250.859375 421.339844 C 250.929688 421.828125 250.988281 422.328125 251.050781 422.820312 C 251.191406 423.929688 251.300781 425.050781 251.390625 426.171875 C 251.449219 426.921875 251.5 427.671875 251.539062 428.429688 C 251.578125 429 251.601562 429.578125 251.621094 430.160156 C 251.640625 430.730469 251.660156 431.308594 251.671875 431.890625 C 251.679688 432.460938 251.691406 433.03125 251.691406 433.601562 Z M 251.691406 433.601562 " style=" stroke:none;fill-rule:nonzero;fill:rgb(70.980392%,88.627451%,21.568627%);fill-opacity:1;" />
<path d="M 251.691406 433.601562 C 251.691406 434.171875 251.679688 434.738281 251.671875 435.308594 C 251.660156 435.789062 251.648438 436.269531 251.628906 436.761719 C 251.621094 437.238281 251.601562 437.71875 251.570312 438.199219 C 251.539062 438.800781 251.511719 439.390625 251.46875 439.988281 C 251.441406 440.359375 251.410156 440.71875 251.378906 441.089844 C 251.351562 441.460938 251.320312 441.828125 251.28125 442.210938 C 251.25 442.558594 251.21875 442.910156 251.179688 443.25 C 251.160156 443.460938 251.128906 443.671875 251.109375 443.878906 C 251.050781 444.421875 250.980469 444.960938 250.910156 445.5 C 250.761719 446.621094 250.589844 447.738281 250.398438 448.859375 C 250.339844 449.191406 250.289062 449.511719 250.230469 449.839844 C 250.179688 450.128906 250.128906 450.421875 250.070312 450.710938 C 249.941406 451.410156 249.800781 452.109375 249.648438 452.808594 C 249.5 453.511719 249.339844 454.199219 249.171875 454.898438 C 249.101562 455.230469 249.019531 455.550781 248.929688 455.871094 C 248.851562 456.199219 248.761719 456.519531 248.679688 456.839844 C 248.519531 457.488281 248.339844 458.128906 248.148438 458.78125 C 248 459.328125 247.839844 459.871094 247.671875 460.410156 C 247.539062 460.851562 247.398438 461.28125 247.261719 461.710938 C 246.820312 463.089844 246.339844 464.460938 245.828125 465.808594 C 245.609375 466.398438 245.378906 466.988281 245.140625 467.570312 C 244.851562 468.308594 244.539062 469.050781 244.230469 469.78125 C 243.949219 470.429688 243.660156 471.070312 243.359375 471.710938 C 242.46875 473.660156 241.5 475.578125 240.460938 477.460938 C 239.78125 478.71875 238.289062 479.53125 236.691406 479.53125 L 131.128906 479.53125 C 121.238281 473.988281 111.761719 467.820312 102.738281 461.070312 C 100.730469 459.570312 98.75 458.039062 96.789062 456.46875 L 96.78125 456.460938 C 95.851562 455.730469 94.941406 455 94.03125 454.25 L 94.03125 443.078125 C 94.03125 442.210938 94.039062 441.328125 94.050781 440.460938 C 94.070312 439.71875 94.078125 438.96875 94.109375 438.230469 C 94.128906 437.5 94.160156 436.78125 94.191406 436.058594 C 94.199219 435.800781 94.21875 435.558594 94.230469 435.308594 C 94.261719 434.671875 94.300781 434.03125 94.339844 433.378906 C 94.371094 432.820312 94.410156 432.25 94.460938 431.691406 C 94.519531 430.808594 94.601562 429.941406 94.679688 429.058594 C 94.730469 428.480469 94.789062 427.898438 94.851562 427.320312 C 94.910156 426.738281 94.96875 426.160156 95.039062 425.578125 C 95.171875 424.421875 95.320312 423.261719 95.480469 422.109375 C 95.550781 421.589844 95.628906 421.070312 95.710938 420.550781 C 95.96875 418.761719 96.269531 416.96875 96.601562 415.191406 C 96.871094 413.75 97.160156 412.308594 97.480469 410.878906 L 97.691406 409.921875 C 97.800781 409.398438 97.910156 408.890625 98.03125 408.378906 C 98.828125 404.980469 99.738281 401.609375 100.761719 398.269531 C 100.988281 397.558594 101.210938 396.839844 101.449219 396.128906 C 101.570312 395.730469 101.699219 395.339844 101.828125 394.949219 C 102.199219 393.839844 102.578125 392.738281 102.96875 391.648438 C 103.371094 390.550781 103.769531 389.460938 104.191406 388.371094 L 239.691406 388.371094 C 240.089844 389.070312 240.488281 389.78125 240.871094 390.5 C 241.488281 391.660156 242.089844 392.828125 242.660156 394.011719 C 243.238281 395.199219 243.78125 396.398438 244.308594 397.621094 C 244.5 398.070312 244.691406 398.519531 244.878906 398.980469 C 245.089844 399.511719 245.300781 400.039062 245.511719 400.570312 C 246.140625 402.191406 246.71875 403.820312 247.261719 405.46875 C 247.398438 405.910156 247.539062 406.351562 247.671875 406.789062 C 248.589844 409.789062 249.359375 412.828125 249.960938 415.910156 C 250.058594 416.390625 250.148438 416.871094 250.230469 417.359375 C 250.289062 417.679688 250.351562 418 250.398438 418.328125 C 250.480469 418.828125 250.570312 419.328125 250.640625 419.828125 C 250.671875 419.980469 250.691406 420.128906 250.710938 420.28125 C 250.761719 420.558594 250.800781 420.851562 250.828125 421.140625 C 250.851562 421.210938 250.851562 421.269531 250.859375 421.339844 C 250.929688 421.828125 250.988281 422.328125 251.050781 422.820312 C 251.191406 423.929688 251.300781 425.050781 251.390625 426.171875 C 251.449219 426.921875 251.5 427.671875 251.539062 428.429688 C 251.578125 429 251.601562 429.578125 251.621094 430.160156 C 251.640625 430.730469 251.660156 431.308594 251.671875 431.890625 C 251.679688 432.460938 251.691406 433.03125 251.691406 433.601562 Z M 251.691406 433.601562 " style=" stroke:none;fill-rule:nonzero;fill:rgb(58.431373%,83.921569%,0%);fill-opacity:1;" />
<path d="M 251.691406 433.597656 C 251.691406 448.953125 247.808594 464.128906 240.464844 477.464844 C 239.777344 478.71875 238.289062 479.53125 236.691406 479.53125 L 160.527344 479.53125 L 160.527344 388.371094 L 239.691406 388.371094 C 247.539062 402.070312 251.691406 417.675781 251.691406 433.597656 Z M 251.691406 433.597656 " style=" stroke:none;fill-rule:nonzero;fill:rgb(52.156863%,68.627451%,7.058824%);fill-opacity:1;" />
<path d="M 117.171875 450.539062 C 117.171875 456.648438 112.21875 461.601562 106.109375 461.601562 C 104.929688 461.601562 103.800781 461.421875 102.738281 461.070312 C 100.730469 459.570312 98.75 458.039062 96.789062 456.46875 L 96.78125 456.460938 C 95.691406 454.75 95.058594 452.71875 95.058594 450.539062 C 95.058594 444.441406 100.011719 439.488281 106.109375 439.488281 C 112.21875 439.488281 117.171875 444.441406 117.171875 450.539062 Z M 117.171875 450.539062 " style=" stroke:none;fill-rule:nonzero;fill:rgb(100%,100%,100%);fill-opacity:1;" />
<path d="M 222.34375 408.4375 C 222.34375 412.527344 219.027344 415.84375 214.933594 415.84375 C 210.84375 415.84375 207.527344 412.527344 207.527344 408.4375 C 207.527344 404.34375 210.84375 401.027344 214.933594 401.027344 C 219.027344 401.027344 222.34375 404.34375 222.34375 408.4375 Z M 222.34375 408.4375 " style=" stroke:none;fill-rule:nonzero;fill:rgb(100%,100%,100%);fill-opacity:1;" />
<path d="M 222.34375 457.949219 C 222.34375 462.042969 219.027344 465.359375 214.933594 465.359375 C 210.84375 465.359375 207.527344 462.042969 207.527344 457.949219 C 207.527344 453.859375 210.84375 450.542969 214.933594 450.542969 C 219.027344 450.542969 222.34375 453.859375 222.34375 457.949219 Z M 222.34375 457.949219 " style=" stroke:none;fill-rule:nonzero;fill:rgb(100%,100%,100%);fill-opacity:1;" />
<path d="M 108.84375 403.535156 C 108.84375 407.625 105.527344 410.941406 101.433594 410.941406 C 97.34375 410.941406 94.027344 407.625 94.027344 403.535156 C 94.027344 399.445312 97.34375 396.128906 101.433594 396.128906 C 105.527344 396.128906 108.84375 399.445312 108.84375 403.535156 Z M 108.84375 403.535156 " style=" stroke:none;fill-rule:nonzero;fill:rgb(100%,100%,100%);fill-opacity:1;" />
<path d="M 167.933594 428.601562 C 167.933594 432.695312 164.617188 436.011719 160.523438 436.011719 C 156.433594 436.011719 153.117188 432.695312 153.117188 428.601562 C 153.117188 424.511719 156.433594 421.195312 160.523438 421.195312 C 164.617188 421.195312 167.933594 424.511719 167.933594 428.601562 Z M 167.933594 428.601562 " style=" stroke:none;fill-rule:nonzero;fill:rgb(100%,100%,100%);fill-opacity:1;" />
<path d="M 303.933594 125.761719 L 303.933594 474.496094 C 303.933594 494.910156 287.632812 511.511719 267.339844 511.988281 C 267.039062 511.992188 266.738281 512 266.4375 512 L 266.433594 512 C 245.726562 512 228.9375 495.210938 228.9375 474.496094 L 228.9375 125.761719 Z M 303.933594 125.761719 " style=" stroke:none;fill-rule:nonzero;fill:rgb(100%,100%,100%);fill-opacity:1;" />
<path d="M 303.933594 125.761719 L 303.933594 474.496094 C 303.933594 494.910156 287.632812 511.511719 267.339844 511.988281 C 255.386719 505.605469 247.257812 493.003906 247.257812 478.507812 L 247.257812 125.761719 Z M 303.933594 125.761719 " style=" stroke:none;fill-rule:nonzero;fill:rgb(81.568627%,96.470588%,100%);fill-opacity:1;" />
<path d="M 303.933594 125.761719 L 303.933594 474.496094 C 303.933594 495.210938 287.144531 512 266.4375 512 L 266.433594 512 L 266.433594 125.761719 Z M 303.933594 125.761719 " style=" stroke:none;fill-rule:nonzero;fill:rgb(56.078431%,78.823529%,96.862745%);fill-opacity:1;" />
<path d="M 285.203125 277.496094 L 285.203125 474.496094 C 285.203125 484.851562 276.785156 493.269531 266.433594 493.269531 C 256.085938 493.269531 247.667969 484.851562 247.667969 474.496094 L 247.667969 277.496094 Z M 285.203125 277.496094 " style=" stroke:none;fill-rule:nonzero;fill:rgb(55.686275%,30.980392%,82.352941%);fill-opacity:1;" />
<path d="M 310.515625 125.761719 L 222.359375 125.761719 C 216.652344 125.761719 212.023438 130.390625 212.023438 136.097656 C 212.023438 141.804688 216.652344 146.429688 222.359375 146.429688 L 310.515625 146.429688 C 316.222656 146.429688 320.847656 141.804688 320.847656 136.097656 C 320.847656 130.390625 316.222656 125.761719 310.515625 125.761719 Z M 310.515625 125.761719 " style=" stroke:none;fill-rule:nonzero;fill:rgb(100%,100%,100%);fill-opacity:1;" />
<path d="M 285.203125 277.496094 L 285.203125 474.496094 C 285.203125 484.851562 276.785156 493.269531 266.433594 493.269531 L 266.433594 277.496094 Z M 285.203125 277.496094 " style=" stroke:none;fill-rule:nonzero;fill:rgb(43.921569%,21.960784%,72.941176%);fill-opacity:1;" />
<path d="M 389.390625 474.539062 C 388.03125 475.378906 386.648438 476.199219 385.269531 477 C 363.03125 490.039062 338.648438 499.820312 312.78125 505.671875 C 305.699219 507.28125 298.519531 508.589844 291.230469 509.601562 L 291.21875 509.601562 C 289.070312 508.890625 287.011719 508.039062 285.039062 507.058594 C 278.5 503.808594 272.96875 499.121094 268.679688 493.519531 C 268.578125 493.398438 268.488281 493.28125 268.410156 493.160156 C 267.710938 492.238281 267.050781 491.300781 266.429688 490.328125 C 256.601562 475.160156 255.25 454.679688 266.429688 437.890625 C 267.679688 436.011719 269.101562 434.171875 270.671875 432.390625 L 283.210938 418.230469 L 285.199219 415.988281 L 303.941406 394.828125 L 340.578125 353.46875 C 345.21875 348.25 347.78125 341.5 347.78125 334.519531 L 347.78125 230.378906 L 422.769531 230.378906 L 422.769531 334.519531 C 422.769531 341.5 425.328125 348.25 429.960938 353.46875 L 469.191406 397.761719 C 462.128906 408.359375 454.300781 418.410156 445.769531 427.820312 C 429.351562 445.949219 410.359375 461.710938 389.390625 474.539062 Z M 389.390625 474.539062 " style=" stroke:none;fill-rule:nonzero;fill:rgb(100%,100%,100%);fill-opacity:1;" />
<path d="M 389.390625 474.539062 C 388.03125 475.378906 386.648438 476.199219 385.269531 477 C 363.03125 490.039062 338.648438 499.820312 312.78125 505.671875 C 307.300781 501.96875 302.960938 496.890625 300.070312 491.101562 C 296.460938 483.859375 295.101562 475.519531 296.601562 467.351562 L 296.601562 467.339844 C 297.511719 462.289062 299.511719 457.320312 302.71875 452.710938 L 302.738281 452.691406 C 303.121094 452.148438 303.519531 451.609375 303.941406 451.070312 C 304.460938 450.410156 305.011719 449.75 305.578125 449.101562 L 360.808594 386.75 C 364.480469 382.621094 366.5 377.289062 366.5 371.769531 L 366.5 230.378906 L 422.769531 230.378906 L 422.769531 334.519531 C 422.769531 341.5 425.328125 348.25 429.960938 353.46875 L 469.191406 397.761719 C 462.128906 408.359375 454.300781 418.410156 445.769531 427.820312 C 429.351562 445.949219 410.359375 461.710938 389.390625 474.539062 Z M 389.390625 474.539062 " style=" stroke:none;fill-rule:nonzero;fill:rgb(81.568627%,96.470588%,100%);fill-opacity:1;" />
<path d="M 389.390625 474.539062 C 388.03125 475.378906 386.648438 476.199219 385.269531 477 L 385.269531 230.378906 L 422.769531 230.378906 L 422.769531 334.519531 C 422.769531 341.5 425.328125 348.25 429.960938 353.46875 L 469.191406 397.761719 C 462.128906 408.359375 454.300781 418.410156 445.769531 427.820312 C 429.351562 445.949219 410.359375 461.710938 389.390625 474.539062 Z M 389.390625 474.539062 " style=" stroke:none;fill-rule:nonzero;fill:rgb(56.078431%,78.823529%,96.862745%);fill-opacity:1;" />
<path d="M 429.351562 220.050781 L 341.195312 220.050781 C 335.488281 220.050781 330.859375 224.675781 330.859375 230.382812 C 330.859375 236.089844 335.488281 240.714844 341.195312 240.714844 L 429.351562 240.714844 C 435.058594 240.714844 439.683594 236.089844 439.683594 230.382812 C 439.683594 224.675781 435.054688 220.050781 429.351562 220.050781 Z M 429.351562 220.050781 " style=" stroke:none;fill-rule:nonzero;fill:rgb(100%,100%,100%);fill-opacity:1;" />
<path d="M 389.390625 474.539062 L 306.5 474.539062 C 305.570312 474.539062 304.71875 474.449219 303.941406 474.269531 C 300.089844 473.441406 298.070312 470.730469 297.019531 468.398438 C 296.871094 468.070312 296.730469 467.71875 296.601562 467.351562 L 296.601562 467.339844 C 295.648438 464.601562 295.46875 460.898438 298.71875 457.230469 L 302.71875 452.710938 L 302.738281 452.691406 L 303.941406 451.339844 L 337.351562 413.621094 L 433.191406 413.621094 L 445.769531 427.820312 C 429.351562 445.949219 410.359375 461.710938 389.390625 474.539062 Z M 389.390625 474.539062 " style=" stroke:none;fill-rule:nonzero;fill:rgb(86.666667%,7.058824%,39.607843%);fill-opacity:1;" />
<path d="M 389.390625 474.539062 L 385.269531 474.539062 L 385.269531 413.621094 L 433.191406 413.621094 L 445.769531 427.820312 C 429.351562 445.949219 410.359375 461.710938 389.390625 474.539062 Z M 389.390625 474.539062 " style=" stroke:none;fill-rule:nonzero;fill:rgb(72.941176%,5.098039%,36.078431%);fill-opacity:1;" />
<path d="M 349.53125 436.011719 C 349.53125 440.101562 346.214844 443.421875 342.125 443.421875 C 338.03125 443.421875 334.714844 440.101562 334.714844 436.011719 C 334.714844 431.921875 338.03125 428.605469 342.125 428.605469 C 346.214844 428.605469 349.53125 431.921875 349.53125 436.011719 Z M 349.53125 436.011719 " style=" stroke:none;fill-rule:nonzero;fill:rgb(100%,100%,100%);fill-opacity:1;" />
<path d="M 385.269531 460.277344 C 385.269531 464.371094 381.953125 467.6875 377.863281 467.6875 C 373.773438 467.6875 370.453125 464.371094 370.453125 460.277344 C 370.453125 456.1875 373.773438 452.871094 377.863281 452.871094 C 381.953125 452.871094 385.269531 456.1875 385.269531 460.277344 Z M 385.269531 460.277344 " style=" stroke:none;fill-rule:nonzero;fill:rgb(100%,100%,100%);fill-opacity:1;" />
<path d="M 403.996094 433.953125 C 403.996094 438.042969 400.679688 441.359375 396.589844 441.359375 C 392.496094 441.359375 389.179688 438.042969 389.179688 433.953125 C 389.179688 429.859375 392.496094 426.542969 396.589844 426.542969 C 400.679688 426.542969 403.996094 429.859375 403.996094 433.953125 Z M 403.996094 433.953125 " style=" stroke:none;fill-rule:nonzero;fill:rgb(100%,100%,100%);fill-opacity:1;" />
<path d="M 66.960938 229.972656 L 65.4375 229.972656 C 58.683594 229.972656 53.210938 224.5 53.210938 217.746094 L 53.210938 216.222656 L 44.492188 216.222656 L 44.492188 217.746094 C 44.492188 224.5 39.019531 229.972656 32.265625 229.972656 L 30.742188 229.972656 L 30.742188 238.691406 L 32.265625 238.691406 C 39.019531 238.691406 44.492188 244.164062 44.492188 250.917969 L 44.492188 252.441406 L 53.210938 252.441406 L 53.210938 250.917969 C 53.210938 244.164062 58.683594 238.691406 65.4375 238.691406 L 66.960938 238.691406 Z M 66.960938 229.972656 " style=" stroke:none;fill-rule:nonzero;fill:rgb(100%,100%,100%);fill-opacity:1;" />
<path d="M 485.960938 229.972656 L 484.4375 229.972656 C 477.683594 229.972656 472.210938 224.5 472.210938 217.746094 L 472.210938 216.222656 L 463.492188 216.222656 L 463.492188 217.746094 C 463.492188 224.5 458.019531 229.972656 451.265625 229.972656 L 449.742188 229.972656 L 449.742188 238.691406 L 451.265625 238.691406 C 458.019531 238.691406 463.492188 244.164062 463.492188 250.917969 L 463.492188 252.441406 L 472.210938 252.441406 L 472.210938 250.917969 C 472.210938 244.164062 477.683594 238.691406 484.4375 238.691406 L 485.960938 238.691406 Z M 485.960938 229.972656 " style=" stroke:none;fill-rule:nonzero;fill:rgb(100%,100%,100%);fill-opacity:1;" />
<path d="M 274.117188 50.53125 L 272.59375 50.53125 C 265.84375 50.53125 260.367188 45.058594 260.367188 38.304688 L 260.367188 36.78125 L 251.652344 36.78125 L 251.652344 38.304688 C 251.652344 45.058594 246.179688 50.53125 239.425781 50.53125 L 237.898438 50.53125 L 237.898438 59.246094 L 239.425781 59.246094 C 246.179688 59.246094 251.652344 64.722656 251.652344 71.476562 L 251.652344 73 L 260.367188 73 L 260.367188 71.476562 C 260.367188 64.722656 265.84375 59.246094 272.59375 59.246094 L 274.117188 59.246094 Z M 274.117188 50.53125 " style=" stroke:none;fill-rule:nonzero;fill:rgb(100%,100%,100%);fill-opacity:1;" />
<path d="M 143.117188 100.53125 L 141.59375 100.53125 C 134.84375 100.53125 129.367188 95.058594 129.367188 88.304688 L 129.367188 86.78125 L 120.652344 86.78125 L 120.652344 88.304688 C 120.652344 95.058594 115.179688 100.53125 108.425781 100.53125 L 106.898438 100.53125 L 106.898438 109.246094 L 108.425781 109.246094 C 115.179688 109.246094 120.652344 114.722656 120.652344 121.476562 L 120.652344 123 L 129.367188 123 L 129.367188 121.476562 C 129.367188 114.722656 134.84375 109.246094 141.59375 109.246094 L 143.117188 109.246094 Z M 143.117188 100.53125 " style=" stroke:none;fill-rule:nonzero;fill:rgb(100%,100%,100%);fill-opacity:1;" />
<path d="M 397.46875 100.53125 L 395.945312 100.53125 C 389.191406 100.53125 383.71875 95.058594 383.71875 88.304688 L 383.71875 86.78125 L 375 86.78125 L 375 88.304688 C 375 95.058594 369.527344 100.53125 362.773438 100.53125 L 361.25 100.53125 L 361.25 109.246094 L 362.773438 109.246094 C 369.527344 109.246094 375 114.722656 375 121.476562 L 375 123 L 383.71875 123 L 383.71875 121.476562 C 383.71875 114.722656 389.191406 109.246094 395.945312 109.246094 L 397.46875 109.246094 Z M 397.46875 100.53125 " style=" stroke:none;fill-rule:nonzero;fill:rgb(100%,100%,100%);fill-opacity:1;" />
</g>
</svg>