<svg xmlns="http://www.w3.org/2000/svg" height="512pt" version="1.1" viewBox="0 0 512 512" width="512pt">
<g id="surface1">
<path d="M 512 256 C 512 397.386719 397.386719 512 256 512 C 114.613281 512 0 397.386719 0 256 C 0 114.613281 114.613281 0 256 0 C 397.386719 0 512 114.613281 512 256 Z M 512 256 " style=" stroke:none;fill-rule:nonzero;fill:rgb(70.980392%,88.627451%,21.568627%);fill-opacity:1;" />
<path d="M 512 256 C 512 282.050781 508.109375 307.191406 500.871094 330.871094 C 468.859375 435.71875 371.328125 512 256 512 C 151.441406 512 61.511719 449.300781 21.769531 359.449219 C 7.769531 327.820312 0 292.820312 0 256 C 0 209.78125 12.25 166.429688 33.679688 129 C 77.800781 206.070312 160.839844 258 256 258 C 351.160156 258 434.210938 206.070312 478.320312 129 C 499.75 166.429688 512 209.78125 512 256 Z M 512 256 " style=" stroke:none;fill-rule:nonzero;fill:rgb(58.431373%,83.921569%,0%);fill-opacity:1;" />
<path d="M 30.742188 377.703125 C 37.898438 390.921875 46.171875 403.441406 55.460938 415.128906 C 102.359375 474.148438 174.761719 512 256 512 C 337.238281 512 409.640625 474.148438 456.539062 415.128906 C 465.828125 403.441406 474.101562 390.921875 481.257812 377.703125 Z M 30.742188 377.703125 " style=" stroke:none;fill-rule:nonzero;fill:rgb(52.156863%,68.627451%,7.058824%);fill-opacity:1;" />
<path d="M 256 510.996094 C 228.792969 510.996094 203.550781 488.433594 184.921875 447.46875 C 166.863281 407.757812 156.917969 355.070312 156.917969 299.109375 C 156.917969 243.148438 166.863281 190.460938 184.921875 150.746094 C 203.550781 109.78125 228.792969 87.21875 256 87.21875 C 283.203125 87.21875 308.445312 109.78125 327.074219 150.746094 C 345.136719 190.457031 355.082031 243.148438 355.082031 299.109375 C 355.082031 355.066406 345.136719 407.757812 327.074219 447.46875 C 308.445312 488.4375 283.203125 510.996094 256 510.996094 Z M 256 97.21875 C 232.945312 97.21875 210.9375 117.699219 194.027344 154.886719 C 176.546875 193.324219 166.917969 244.546875 166.917969 299.109375 C 166.917969 353.671875 176.546875 404.890625 194.027344 443.332031 C 210.9375 480.519531 232.945312 500.996094 256 500.996094 C 279.054688 500.996094 301.0625 480.519531 317.972656 443.332031 C 335.453125 404.890625 345.082031 353.671875 345.082031 299.109375 C 345.082031 244.546875 335.453125 193.328125 317.972656 154.886719 C 301.0625 117.699219 279.054688 97.21875 256 97.21875 Z M 256 97.21875 " style=" stroke:none;fill-rule:nonzero;fill:rgb(100%,100%,100%);fill-opacity:1;" />
<path d="M 150.253906 464.882812 C 131.824219 464.882812 116.785156 459.546875 106.171875 448.9375 C 86.933594 429.699219 85.039062 395.898438 100.835938 353.757812 C 116.144531 312.90625 146.371094 268.617188 185.9375 229.046875 C 225.507812 189.476562 269.796875 159.253906 310.648438 143.941406 C 352.785156 128.144531 386.589844 130.042969 405.828125 149.28125 C 425.066406 168.519531 426.960938 202.320312 411.167969 244.460938 C 395.855469 285.308594 365.632812 329.601562 326.0625 369.167969 C 286.492188 408.738281 242.203125 438.964844 201.351562 454.273438 C 182.457031 461.355469 165.234375 464.882812 150.253906 464.882812 Z M 361.757812 143.285156 C 348.050781 143.285156 331.996094 146.617188 314.160156 153.304688 C 274.617188 168.125 231.59375 197.535156 193.011719 236.117188 C 154.429688 274.699219 125.019531 317.726562 110.199219 357.265625 C 95.859375 395.519531 96.941406 425.5625 113.242188 441.867188 C 129.546875 458.167969 159.589844 459.246094 197.84375 444.910156 C 237.382812 430.089844 280.40625 400.679688 318.992188 362.097656 C 357.574219 323.515625 386.984375 280.492188 401.804688 240.949219 C 416.140625 202.699219 415.058594 172.652344 398.757812 156.351562 C 390.058594 147.652344 377.441406 143.285156 361.757812 143.285156 Z M 361.757812 143.285156 " style=" stroke:none;fill-rule:nonzero;fill:rgb(100%,100%,100%);fill-opacity:1;" />
<path d="M 256 398.1875 C 200.039062 398.1875 147.351562 388.242188 107.636719 370.183594 C 66.671875 351.554688 44.113281 326.3125 44.113281 299.109375 C 44.113281 271.902344 66.671875 246.660156 107.636719 228.03125 C 147.351562 209.972656 200.039062 200.027344 256 200.027344 C 311.960938 200.027344 364.648438 209.972656 404.363281 228.03125 C 445.328125 246.660156 467.886719 271.902344 467.886719 299.109375 C 467.886719 326.3125 445.328125 351.554688 404.363281 370.183594 C 364.648438 388.242188 311.960938 398.1875 256 398.1875 Z M 256 210.027344 C 201.4375 210.027344 150.21875 219.652344 111.777344 237.132812 C 74.589844 254.042969 54.113281 276.054688 54.113281 299.109375 C 54.113281 322.160156 74.589844 344.171875 111.777344 361.082031 C 150.21875 378.5625 201.4375 388.1875 256 388.1875 C 310.5625 388.1875 361.78125 378.5625 400.222656 361.082031 C 437.410156 344.171875 457.890625 322.160156 457.890625 299.109375 C 457.890625 276.054688 437.410156 254.046875 400.222656 237.132812 C 361.78125 219.652344 310.5625 210.027344 256 210.027344 Z M 256 210.027344 " style=" stroke:none;fill-rule:nonzero;fill:rgb(100%,100%,100%);fill-opacity:1;" />
<path d="M 361.746094 464.882812 C 346.761719 464.882812 329.546875 461.355469 310.648438 454.273438 C 269.796875 438.964844 225.507812 408.738281 185.9375 369.167969 C 146.367188 329.601562 116.144531 285.308594 100.835938 244.460938 C 85.039062 202.320312 86.933594 168.519531 106.171875 149.28125 C 125.410156 130.042969 159.210938 128.148438 201.351562 143.941406 C 242.199219 159.253906 286.488281 189.476562 326.058594 229.046875 C 365.628906 268.617188 395.855469 312.90625 411.164062 353.757812 C 426.960938 395.898438 425.0625 429.699219 405.824219 448.9375 C 395.21875 459.546875 380.171875 464.882812 361.746094 464.882812 Z M 150.242188 143.285156 C 134.554688 143.285156 121.941406 147.652344 113.242188 156.351562 C 96.941406 172.652344 95.859375 202.695312 110.195312 240.949219 C 125.019531 280.488281 154.429688 323.515625 193.011719 362.097656 C 231.59375 400.679688 274.617188 430.089844 314.15625 444.910156 C 352.410156 459.246094 382.453125 458.164062 398.757812 441.863281 C 415.058594 425.5625 416.140625 395.519531 401.800781 357.265625 C 386.980469 317.726562 357.570312 274.699219 318.988281 236.117188 C 280.40625 197.535156 237.382812 168.125 197.839844 153.304688 C 180.003906 146.621094 163.949219 143.285156 150.242188 143.285156 Z M 150.242188 143.285156 " style=" stroke:none;fill-rule:nonzero;fill:rgb(100%,100%,100%);fill-opacity:1;" />
<path d="M 308.882812 286.367188 C 308.882812 316.074219 284.800781 340.15625 255.09375 340.15625 L 254.96875 340.15625 C 225.320312 340.085938 201.308594 316.03125 201.308594 286.367188 C 201.308594 256.707031 225.320312 232.652344 254.96875 232.582031 L 255.09375 232.582031 C 284.800781 232.582031 308.882812 256.664062 308.882812 286.367188 Z M 308.882812 286.367188 " style=" stroke:none;fill-rule:nonzero;fill:rgb(100%,91.372549%,33.333333%);fill-opacity:1;" />
<path d="M 308.882812 286.367188 C 308.882812 316.074219 284.800781 340.15625 255.09375 340.15625 L 254.96875 340.15625 C 237.148438 328.886719 225.316406 309.011719 225.316406 286.367188 C 225.316406 263.730469 237.148438 243.851562 254.96875 232.582031 L 255.09375 232.582031 C 284.800781 232.582031 308.882812 256.664062 308.882812 286.367188 Z M 308.882812 286.367188 " style=" stroke:none;fill-rule:nonzero;fill:rgb(100%,81.960784%,7.058824%);fill-opacity:1;" />
<path d="M 308.882812 286.367188 C 308.882812 316.074219 284.800781 340.15625 255.09375 340.15625 L 255.09375 232.582031 C 284.800781 232.582031 308.882812 256.664062 308.882812 286.367188 Z M 308.882812 286.367188 " style=" stroke:none;fill-rule:nonzero;fill:rgb(100%,62.352941%,0%);fill-opacity:1;" />
<path d="M 127.46875 166.800781 C 127.46875 179.910156 116.839844 190.53125 103.730469 190.53125 C 90.628906 190.53125 80 179.910156 80 166.800781 C 80 153.691406 90.628906 143.058594 103.730469 143.058594 C 116.839844 143.058594 127.46875 153.691406 127.46875 166.800781 Z M 127.46875 166.800781 " style=" stroke:none;fill-rule:nonzero;fill:rgb(61.960784%,41.176471%,88.627451%);fill-opacity:1;" />
<path d="M 127.46875 166.800781 C 127.46875 179.910156 116.839844 190.53125 103.730469 190.53125 L 103.730469 143.058594 C 116.839844 143.058594 127.46875 153.691406 127.46875 166.800781 Z M 127.46875 166.800781 " style=" stroke:none;fill-rule:nonzero;fill:rgb(55.686275%,30.980392%,82.352941%);fill-opacity:1;" />
<path d="M 201.308594 419.453125 C 201.308594 432.566406 190.679688 443.183594 177.570312 443.183594 C 164.46875 443.183594 153.839844 432.566406 153.839844 419.453125 C 153.839844 406.34375 164.46875 395.714844 177.570312 395.714844 C 190.679688 395.714844 201.308594 406.34375 201.308594 419.453125 Z M 201.308594 419.453125 " style=" stroke:none;fill-rule:nonzero;fill:rgb(61.960784%,41.176471%,88.627451%);fill-opacity:1;" />
<path d="M 201.308594 419.453125 C 201.308594 432.566406 190.679688 443.183594 177.570312 443.183594 L 177.570312 395.714844 C 190.679688 395.714844 201.308594 406.34375 201.308594 419.453125 Z M 201.308594 419.453125 " style=" stroke:none;fill-rule:nonzero;fill:rgb(55.686275%,30.980392%,82.352941%);fill-opacity:1;" />
<path d="M 481.261719 299.105469 C 481.261719 312.214844 470.632812 322.839844 457.527344 322.839844 C 444.417969 322.839844 433.789062 312.214844 433.789062 299.105469 C 433.789062 285.996094 444.417969 275.371094 457.527344 275.371094 C 470.632812 275.371094 481.261719 285.996094 481.261719 299.105469 Z M 481.261719 299.105469 " style=" stroke:none;fill-rule:nonzero;fill:rgb(61.960784%,41.176471%,88.627451%);fill-opacity:1;" />
<path d="M 481.257812 299.101562 C 481.257812 312.214844 470.640625 322.84375 457.527344 322.84375 L 457.527344 275.371094 C 470.640625 275.371094 481.257812 285.992188 481.257812 299.101562 Z M 481.257812 299.101562 " style=" stroke:none;fill-rule:nonzero;fill:rgb(55.686275%,30.980392%,82.352941%);fill-opacity:1;" />
</g>
</svg>