<svg xmlns="http://www.w3.org/2000/svg" height="512pt" version="1.1" viewBox="0 0 512 512" width="512pt">
<g id="surface1">
<path d="M 512 256 C 512 397.386719 397.386719 512 256 512 C 114.613281 512 0 397.386719 0 256 C 0 114.613281 114.613281 0 256 0 C 397.386719 0 512 114.613281 512 256 Z M 512 256 " style=" stroke:none;fill-rule:nonzero;fill:rgb(39.607843%,69.803922%,100%);fill-opacity:1;" />
<path d="M 512 256 C 512 282.050781 508.109375 307.191406 500.871094 330.871094 C 468.859375 435.71875 371.328125 512 256 512 C 151.441406 512 61.511719 449.300781 21.769531 359.449219 C 7.769531 327.820312 0 292.820312 0 256 C 0 209.78125 12.25 166.429688 33.679688 129 C 77.800781 206.070312 160.839844 258 256 258 C 351.160156 258 434.210938 206.070312 478.320312 129 C 499.75 166.429688 512 209.78125 512 256 Z M 512 256 " style=" stroke:none;fill-rule:nonzero;fill:rgb(5.882353%,60.784314%,90.980392%);fill-opacity:1;" />
<path d="M 30.742188 377.703125 C 37.898438 390.921875 46.171875 403.441406 55.460938 415.128906 C 102.359375 474.148438 174.761719 512 256 512 C 337.238281 512 409.640625 474.148438 456.539062 415.128906 C 465.828125 403.441406 474.101562 390.921875 481.257812 377.703125 Z M 30.742188 377.703125 " style=" stroke:none;fill-rule:nonzero;fill:rgb(0%,40%,90.980392%);fill-opacity:1;" />
<path d="M 364.902344 251.964844 C 364.902344 279.941406 354.34375 305.457031 337 324.746094 C 316.898438 347.097656 305.425781 375.875 305.425781 405.933594 L 305.425781 406.84375 L 206.574219 406.84375 L 206.574219 406.8125 C 206.574219 376.714844 195.691406 347.488281 175.441406 325.234375 C 157.796875 305.851562 147.0625 280.074219 147.101562 251.789062 C 147.191406 192.167969 196.578125 143.097656 256 143.066406 C 256.59375 143.066406 257.195312 143.074219 257.796875 143.078125 C 317.109375 144.035156 364.902344 192.421875 364.902344 251.964844 Z M 364.902344 251.964844 " style=" stroke:none;fill-rule:nonzero;fill:rgb(100%,81.960784%,7.058824%);fill-opacity:1;" />
<path d="M 364.902344 251.964844 C 364.902344 279.941406 354.34375 305.457031 337 324.746094 C 316.898438 347.097656 305.425781 375.875 305.425781 405.933594 L 305.425781 406.84375 L 256 406.84375 L 256 143.066406 C 256.59375 143.066406 257.195312 143.074219 257.792969 143.078125 C 317.109375 144.035156 364.902344 192.421875 364.902344 251.964844 Z M 364.902344 251.964844 " style=" stroke:none;fill-rule:nonzero;fill:rgb(100%,62.352941%,0%);fill-opacity:1;" />
<path d="M 326.070312 254.875 C 326.070312 293.574219 294.699219 324.949219 256 324.949219 C 217.300781 324.949219 185.929688 293.574219 185.929688 254.875 C 185.929688 216.175781 217.300781 184.804688 256 184.804688 C 294.699219 184.804688 326.070312 216.175781 326.070312 254.875 Z M 326.070312 254.875 " style=" stroke:none;fill-rule:nonzero;fill:rgb(100%,91.372549%,33.333333%);fill-opacity:1;" />
<path d="M 326.070312 254.875 C 326.070312 293.582031 294.699219 324.949219 256 324.949219 L 256 184.804688 C 294.699219 184.804688 326.070312 216.179688 326.070312 254.875 Z M 326.070312 254.875 " style=" stroke:none;fill-rule:nonzero;fill:rgb(100%,81.960784%,7.058824%);fill-opacity:1;" />
<path d="M 290.417969 483.78125 L 222.34375 483.78125 L 221.585938 284.875 L 206.441406 237.679688 L 305.558594 237.679688 L 290.417969 284.859375 Z M 237.285156 468.78125 L 275.417969 468.78125 L 275.417969 282.511719 L 284.992188 252.679688 L 227.007812 252.679688 L 236.578125 282.496094 L 236.582031 283.65625 Z M 237.285156 468.78125 " style=" stroke:none;fill-rule:nonzero;fill:rgb(100%,100%,100%);fill-opacity:1;" />
<path d="M 305.425781 406.835938 L 305.425781 462.570312 C 305.425781 462.726562 305.425781 462.882812 305.414062 463.035156 C 305.171875 489.941406 283.425781 511.714844 256.53125 511.984375 C 256.378906 511.996094 256.222656 511.996094 256.078125 511.996094 L 256 511.996094 C 228.863281 511.996094 206.828125 490.113281 206.585938 463.039062 C 206.574219 462.882812 206.574219 462.726562 206.574219 462.574219 L 206.574219 406.839844 L 305.425781 406.839844 Z M 305.425781 406.835938 " style=" stroke:none;fill-rule:nonzero;fill:rgb(45.490196%,49.411765%,61.960784%);fill-opacity:1;" />
<path d="M 305.421875 406.839844 L 305.421875 462.574219 C 305.421875 489.6875 283.578125 511.714844 256.53125 511.988281 C 256.378906 511.996094 256.226562 511.996094 256.074219 511.996094 C 239.929688 502.703125 229.050781 485.28125 229.050781 465.324219 L 229.050781 406.84375 L 305.421875 406.84375 Z M 305.421875 406.839844 " style=" stroke:none;fill-rule:nonzero;fill:rgb(27.843137%,30.980392%,43.529412%);fill-opacity:1;" />
<path d="M 305.425781 406.84375 L 305.425781 462.574219 C 305.425781 489.867188 283.292969 512 256 512 L 256 406.84375 Z M 305.425781 406.84375 " style=" stroke:none;fill-rule:nonzero;fill:rgb(19.607843%,23.137255%,35.294118%);fill-opacity:1;" />
<path d="M 198.667969 392.28125 L 313.332031 392.28125 L 313.332031 421.402344 L 198.667969 421.402344 Z M 198.667969 392.28125 " style=" stroke:none;fill-rule:nonzero;fill:rgb(45.490196%,49.411765%,61.960784%);fill-opacity:1;" />
<path d="M 305.425781 433.914062 L 305.425781 462.574219 C 305.425781 462.726562 305.425781 462.882812 305.414062 463.039062 L 206.585938 463.039062 C 206.574219 462.882812 206.574219 462.726562 206.574219 462.574219 L 206.574219 433.914062 Z M 305.425781 433.914062 " style=" stroke:none;fill-rule:nonzero;fill:rgb(100%,100%,100%);fill-opacity:1;" />
<path d="M 229.050781 392.28125 L 313.332031 392.28125 L 313.332031 421.402344 L 229.050781 421.402344 Z M 229.050781 392.28125 " style=" stroke:none;fill-rule:nonzero;fill:rgb(27.843137%,30.980392%,43.529412%);fill-opacity:1;" />
<path d="M 256 392.28125 L 313.332031 392.28125 L 313.332031 421.402344 L 256 421.402344 Z M 256 392.28125 " style=" stroke:none;fill-rule:nonzero;fill:rgb(19.607843%,23.137255%,35.294118%);fill-opacity:1;" />
<path d="M 66.960938 229.972656 L 65.4375 229.972656 C 58.683594 229.972656 53.210938 224.5 53.210938 217.746094 L 53.210938 216.222656 L 44.492188 216.222656 L 44.492188 217.746094 C 44.492188 224.5 39.019531 229.972656 32.265625 229.972656 L 30.742188 229.972656 L 30.742188 238.691406 L 32.265625 238.691406 C 39.019531 238.691406 44.492188 244.164062 44.492188 250.917969 L 44.492188 252.441406 L 53.210938 252.441406 L 53.210938 250.917969 C 53.210938 244.164062 58.683594 238.691406 65.4375 238.691406 L 66.960938 238.691406 Z M 66.960938 229.972656 " style=" stroke:none;fill-rule:nonzero;fill:rgb(100%,100%,100%);fill-opacity:1;" />
<path d="M 485.960938 229.972656 L 484.4375 229.972656 C 477.683594 229.972656 472.210938 224.5 472.210938 217.746094 L 472.210938 216.222656 L 463.492188 216.222656 L 463.492188 217.746094 C 463.492188 224.5 458.019531 229.972656 451.265625 229.972656 L 449.742188 229.972656 L 449.742188 238.691406 L 451.265625 238.691406 C 458.019531 238.691406 463.492188 244.164062 463.492188 250.917969 L 463.492188 252.441406 L 472.210938 252.441406 L 472.210938 250.917969 C 472.210938 244.164062 477.683594 238.691406 484.4375 238.691406 L 485.960938 238.691406 Z M 485.960938 229.972656 " style=" stroke:none;fill-rule:nonzero;fill:rgb(100%,100%,100%);fill-opacity:1;" />
<path d="M 274.117188 50.53125 L 272.59375 50.53125 C 265.84375 50.53125 260.367188 45.058594 260.367188 38.304688 L 260.367188 36.78125 L 251.652344 36.78125 L 251.652344 38.304688 C 251.652344 45.058594 246.179688 50.53125 239.425781 50.53125 L 237.898438 50.53125 L 237.898438 59.246094 L 239.425781 59.246094 C 246.179688 59.246094 251.652344 64.722656 251.652344 71.476562 L 251.652344 73 L 260.367188 73 L 260.367188 71.476562 C 260.367188 64.722656 265.84375 59.246094 272.59375 59.246094 L 274.117188 59.246094 Z M 274.117188 50.53125 " style=" stroke:none;fill-rule:nonzero;fill:rgb(100%,100%,100%);fill-opacity:1;" />
<path d="M 143.117188 100.53125 L 141.59375 100.53125 C 134.84375 100.53125 129.367188 95.058594 129.367188 88.304688 L 129.367188 86.78125 L 120.652344 86.78125 L 120.652344 88.304688 C 120.652344 95.058594 115.179688 100.53125 108.425781 100.53125 L 106.898438 100.53125 L 106.898438 109.246094 L 108.425781 109.246094 C 115.179688 109.246094 120.652344 114.722656 120.652344 121.476562 L 120.652344 123 L 129.367188 123 L 129.367188 121.476562 C 129.367188 114.722656 134.84375 109.246094 141.59375 109.246094 L 143.117188 109.246094 Z M 143.117188 100.53125 " style=" stroke:none;fill-rule:nonzero;fill:rgb(100%,100%,100%);fill-opacity:1;" />
<path d="M 397.46875 100.53125 L 395.945312 100.53125 C 389.191406 100.53125 383.71875 95.058594 383.71875 88.304688 L 383.71875 86.78125 L 375 86.78125 L 375 88.304688 C 375 95.058594 369.527344 100.53125 362.773438 100.53125 L 361.25 100.53125 L 361.25 109.246094 L 362.773438 109.246094 C 369.527344 109.246094 375 114.722656 375 121.476562 L 375 123 L 383.71875 123 L 383.71875 121.476562 C 383.71875 114.722656 389.191406 109.246094 395.945312 109.246094 L 397.46875 109.246094 Z M 397.46875 100.53125 " style=" stroke:none;fill-rule:nonzero;fill:rgb(100%,100%,100%);fill-opacity:1;" />
</g>
</svg>