<svg xmlns="http://www.w3.org/2000/svg" height="512pt" version="1.1" viewBox="0 0 512 512" width="512pt">
<g id="surface1">
<path d="M 512 256 C 512 369.738281 437.820312 466.160156 335.199219 499.511719 C 310.261719 507.621094 283.640625 512 256 512 C 252.441406 512 248.898438 511.929688 245.378906 511.78125 C 228.011719 511.070312 211.078125 508.628906 194.769531 504.628906 C 191.578125 503.851562 188.421875 503 185.28125 502.101562 C 176.910156 499.699219 168.710938 496.890625 160.71875 493.679688 C 66.519531 455.878906 0 363.710938 0 256 C 0 114.621094 114.621094 0 256 0 C 397.378906 0 512 114.621094 512 256 Z M 512 256 " style=" stroke:none;fill-rule:nonzero;fill:rgb(40.784314%,98.823529%,87.45098%);fill-opacity:1;" />
<path d="M 512 256 C 512 282.050781 508.109375 307.191406 500.871094 330.871094 C 468.859375 435.71875 371.328125 512 256 512 C 151.441406 512 61.511719 449.300781 21.769531 359.449219 C 7.769531 327.820312 0 292.820312 0 256 C 0 209.78125 12.25 166.429688 33.679688 129 C 77.800781 206.070312 160.839844 258 256 258 C 351.160156 258 434.210938 206.070312 478.320312 129 C 499.75 166.429688 512 209.78125 512 256 Z M 512 256 " style=" stroke:none;fill-rule:nonzero;fill:rgb(6.27451%,88.627451%,76.862745%);fill-opacity:1;" />
<path d="M 30.742188 377.703125 C 37.898438 390.921875 46.171875 403.441406 55.460938 415.128906 C 102.359375 474.148438 174.761719 512 256 512 C 337.238281 512 409.640625 474.148438 456.539062 415.128906 C 465.828125 403.441406 474.101562 390.921875 481.257812 377.703125 Z M 30.742188 377.703125 " style=" stroke:none;fill-rule:nonzero;fill:rgb(10.196078%,72.941176%,62.352941%);fill-opacity:1;" />
<path d="M 225.921875 381.148438 L 263.753906 381.148438 L 263.753906 449.601562 L 225.921875 449.601562 Z M 225.921875 381.148438 " style=" stroke:none;fill-rule:nonzero;fill:rgb(19.607843%,23.137255%,35.294118%);fill-opacity:1;" />
<path d="M 244.839844 381.148438 L 263.757812 381.148438 L 263.757812 449.601562 L 244.839844 449.601562 Z M 244.839844 381.148438 " style=" stroke:none;fill-rule:nonzero;fill:rgb(27.843137%,30.980392%,43.529412%);fill-opacity:1;" />
<path d="M 364.890625 233.539062 C 364.890625 300.433594 310.664062 354.660156 243.769531 354.660156 C 243.429688 354.660156 243.089844 354.660156 242.753906 354.65625 C 176.324219 354.109375 122.648438 300.089844 122.648438 233.539062 C 122.648438 166.988281 176.324219 112.96875 242.753906 112.421875 C 243.089844 112.414062 243.429688 112.414062 243.769531 112.414062 C 310.664062 112.417969 364.890625 166.644531 364.890625 233.539062 Z M 364.890625 233.539062 " style=" stroke:none;fill-rule:nonzero;fill:rgb(39.607843%,69.803922%,100%);fill-opacity:1;" />
<path d="M 364.890625 233.539062 C 364.890625 300.433594 310.664062 354.660156 243.769531 354.660156 C 243.429688 354.660156 243.089844 354.660156 242.753906 354.65625 C 204.15625 328.234375 178.828125 283.84375 178.828125 233.539062 C 178.828125 183.234375 204.15625 138.84375 242.753906 112.421875 C 243.089844 112.414062 243.429688 112.414062 243.769531 112.414062 C 310.664062 112.417969 364.890625 166.644531 364.890625 233.539062 Z M 364.890625 233.539062 " style=" stroke:none;fill-rule:nonzero;fill:rgb(5.882353%,60.784314%,90.980392%);fill-opacity:1;" />
<path d="M 364.890625 233.539062 C 364.890625 300.433594 310.664062 354.660156 243.769531 354.660156 L 243.769531 112.417969 C 310.664062 112.417969 364.890625 166.644531 364.890625 233.539062 Z M 364.890625 233.539062 " style=" stroke:none;fill-rule:nonzero;fill:rgb(0%,40%,90.980392%);fill-opacity:1;" />
<path d="M 322.0625 179.121094 C 322.933594 178.847656 323.855469 177.609375 324.089844 176.652344 C 324.695312 174.210938 324.925781 171.675781 325.304688 169.203125 C 329.113281 170.203125 331.84375 173.574219 335.867188 172.496094 C 336.554688 174.578125 336.679688 177.074219 337.984375 178.453125 C 340.152344 180.753906 341.585938 177.4375 343.527344 176.683594 C 344.585938 178.816406 345.59375 180.839844 346.597656 182.863281 C 346.949219 182.960938 347.296875 183.058594 347.648438 183.15625 C 348.359375 181.949219 349.074219 180.738281 349.789062 179.53125 C 350.03125 179.558594 350.273438 179.582031 350.515625 179.609375 C 350.714844 183.324219 352.566406 184.585938 354.878906 185.265625 C 344.855469 162.226562 327.886719 142.90625 306.601562 129.96875 C 306.925781 132.734375 307.226562 135.480469 307.734375 138.183594 C 308.097656 140.085938 309.507812 141.246094 311.632812 141.28125 C 313.480469 141.316406 314.632812 142.261719 315.722656 143.820312 C 316.507812 144.953125 318.132812 145.589844 319.492188 146.199219 C 320.46875 146.636719 321.632812 146.664062 322.058594 146.746094 C 322.617188 149.910156 323.097656 152.542969 323.542969 155.183594 C 323.617188 155.628906 323.699219 156.183594 323.511719 156.550781 C 321.753906 160.007812 316.796875 164.285156 313.488281 164.144531 C 309.992188 163.992188 306.871094 165.378906 303.90625 167.574219 C 304.90625 169.417969 305.832031 171.164062 306.796875 172.886719 C 311.015625 180.449219 313.933594 181.695312 322.0625 179.121094 Z M 322.0625 179.121094 " style=" stroke:none;fill-rule:nonzero;fill:rgb(58.431373%,83.921569%,0%);fill-opacity:1;" />
<path d="M 270.632812 123.90625 C 268.902344 124.117188 267.222656 124.960938 265.605469 125.714844 C 264.84375 126.070312 263.695312 126.917969 263.757812 127.414062 C 263.863281 128.257812 264.625 129.402344 265.394531 129.710938 C 267.621094 130.597656 269.988281 131.132812 272.296875 131.804688 C 273.117188 130.164062 273.753906 129.207031 274.085938 128.152344 C 274.410156 127.132812 274.902344 125.367188 274.488281 125.066406 C 273.449219 124.304688 271.886719 123.753906 270.632812 123.90625 Z M 270.632812 123.90625 " style=" stroke:none;fill-rule:nonzero;fill:rgb(58.431373%,83.921569%,0%);fill-opacity:1;" />
<path d="M 245.601562 121.363281 C 246.980469 125.863281 248.347656 130.269531 253.242188 132.582031 C 256.390625 128.84375 259.4375 125.101562 262.648438 121.503906 C 263.535156 120.511719 264.878906 119.351562 266.054688 119.300781 C 268.867188 119.183594 270.558594 117.890625 271.953125 115.722656 C 263.859375 113.792969 255.449219 112.667969 246.816406 112.457031 C 245.632812 115.257812 244.601562 118.085938 245.601562 121.363281 Z M 245.601562 121.363281 " style=" stroke:none;fill-rule:nonzero;fill:rgb(58.431373%,83.921569%,0%);fill-opacity:1;" />
<path d="M 358.742188 195.351562 C 353.867188 195.515625 349.9375 193.261719 346.421875 189.867188 C 342.570312 186.152344 337.925781 184.699219 332.632812 184.972656 C 331.527344 185.027344 330.40625 184.59375 329.285156 184.457031 C 325.914062 184.050781 322.46875 183.0625 319.179688 183.429688 C 312.902344 184.125 306.523438 185.089844 302.628906 191.265625 C 301.855469 192.496094 300.21875 193.417969 298.78125 193.949219 C 294.585938 195.5 291.746094 198.324219 290.035156 202.363281 C 289.753906 203.027344 289.675781 203.804688 289.625 204.535156 C 289.414062 207.789062 289.476562 211.078125 289.023438 214.296875 C 288.230469 219.910156 287.027344 225.464844 286.203125 231.074219 C 285.796875 233.851562 286.832031 236.226562 289.085938 238.113281 C 291.703125 240.304688 294.097656 242.761719 296.699219 244.972656 C 302.070312 249.53125 307.953125 252.648438 315.378906 251.65625 C 317.902344 251.320312 320.507812 251.421875 323.054688 251.585938 C 324.421875 251.671875 326.039062 251.980469 327.027344 252.804688 C 328.546875 254.066406 329.863281 254.445312 331.644531 253.625 C 332.953125 253.019531 334.027344 253.429688 333.996094 254.976562 C 333.941406 257.953125 334.414062 261.222656 333.347656 263.835938 C 330.871094 269.898438 330.449219 275.632812 333.078125 281.710938 C 335.011719 286.175781 333.65625 290.25 330.5625 293.8125 C 329.566406 294.960938 328.425781 295.988281 327.515625 297.199219 C 324.480469 301.21875 321.699219 305.625 323.207031 310.785156 C 324.9375 316.726562 323.652344 321.835938 320.875 326.949219 C 347.757812 304.734375 364.890625 271.136719 364.890625 233.535156 C 364.890625 220.195312 362.726562 207.359375 358.742188 195.351562 Z M 358.742188 195.351562 " style=" stroke:none;fill-rule:nonzero;fill:rgb(58.431373%,83.921569%,0%);fill-opacity:1;" />
<path d="M 175.1875 177.738281 C 172.476562 176.683594 170.117188 177.546875 168.667969 180.578125 C 172.832031 182.640625 183.929688 183.65625 186.753906 181.992188 C 185.8125 181.550781 185.152344 181.160156 184.445312 180.914062 C 181.363281 179.84375 178.226562 178.914062 175.1875 177.738281 Z M 175.1875 177.738281 " style=" stroke:none;fill-rule:nonzero;fill:rgb(70.980392%,88.627451%,21.568627%);fill-opacity:1;" />
<path d="M 298.199219 146.472656 C 298.785156 147.519531 299.332031 148.488281 299.996094 149.675781 C 301.339844 149.1875 302.453125 148.78125 303.800781 148.292969 C 304.207031 150.1875 304.460938 151.855469 304.933594 153.460938 C 305.691406 156.042969 307.671875 156.921875 310.28125 155.980469 C 313.6875 154.75 314.324219 153.5 313.539062 150.722656 C 312.011719 145.316406 307.222656 142.917969 303.460938 139.597656 C 303.199219 139.367188 300.941406 140.867188 300.96875 140.921875 C 302.367188 143.859375 299.882812 144.929688 298.199219 146.472656 Z M 298.199219 146.472656 " style=" stroke:none;fill-rule:nonzero;fill:rgb(58.431373%,83.921569%,0%);fill-opacity:1;" />
<path d="M 193.75 189.113281 C 188.554688 186.425781 186.101562 186.667969 182.066406 190.382812 C 185.183594 190.738281 188.054688 190.703125 190.6875 191.46875 C 193.382812 192.25 193.828125 191.289062 193.75 189.113281 Z M 193.75 189.113281 " style=" stroke:none;fill-rule:nonzero;fill:rgb(70.980392%,88.627451%,21.568627%);fill-opacity:1;" />
<path d="M 238.136719 258.242188 C 237.453125 260.167969 236.609375 262.390625 235.121094 263.59375 C 231.957031 266.148438 230.84375 269.660156 229.214844 273.074219 C 227.152344 277.394531 224.9375 281.824219 221.867188 285.429688 C 219.972656 287.660156 216.328125 288.363281 213.546875 289.894531 C 211.792969 290.859375 209.835938 291.796875 208.585938 293.265625 C 206.265625 295.996094 204.148438 298.976562 202.394531 302.105469 C 201.328125 304.007812 200.03125 305.621094 198.558594 307.054688 C 196.828125 308.746094 194.851562 310.175781 192.730469 311.488281 C 187.367188 314.816406 182.878906 318.996094 181.023438 325.253906 C 180.40625 327.335938 180.054688 329.660156 180.28125 331.796875 C 180.476562 333.617188 180.785156 335.421875 181.136719 337.226562 C 176.011719 334.121094 171.136719 330.652344 166.542969 326.847656 C 166.042969 325.046875 165.753906 323.144531 165.699219 321.132812 C 165.660156 319.480469 164.699219 317.855469 164.570312 316.191406 C 164.3125 312.734375 164.109375 309.242188 164.292969 305.792969 C 164.480469 302.34375 165.785156 298.984375 164.285156 295.449219 C 163.785156 294.273438 164.214844 292.640625 164.425781 291.242188 C 164.902344 288.054688 165.542969 284.894531 166.046875 281.707031 C 166.511719 278.777344 167.167969 276.023438 164.789062 273.207031 C 163.636719 271.851562 163.84375 269.074219 163.988281 266.980469 C 164.097656 265.265625 163.632812 264.378906 162.445312 263.160156 C 158.632812 259.230469 153.863281 255.5625 151.777344 250.785156 C 148.691406 243.710938 146.84375 235.757812 151.90625 228.316406 C 153.769531 225.574219 155.824219 222.929688 157.46875 220.058594 C 160.714844 214.359375 159.972656 211 154.628906 207.238281 C 152.558594 205.78125 151.675781 203.910156 151.296875 201.578125 C 150.859375 198.890625 149.777344 196.660156 147.585938 194.78125 C 146.660156 193.984375 146.425781 191.960938 146.492188 190.523438 C 146.574219 188.820312 146.101562 188.03125 144.589844 187.273438 C 142.40625 186.175781 140.234375 184.894531 138.398438 183.300781 C 137.023438 182.109375 136.082031 180.632812 135.574219 179.039062 C 155.382812 139.800781 195.890625 112.804688 242.75 112.421875 C 243.089844 112.414062 243.425781 112.414062 243.769531 112.414062 C 243.9375 112.414062 243.296875 112.664062 243.46875 112.667969 C 243.632812 112.675781 243.3125 113.027344 243.484375 113.027344 C 243.503906 113.160156 243.753906 113.589844 243.769531 113.738281 C 241.074219 115.96875 239.445312 117.316406 236.503906 119.75 C 236.082031 119.054688 235.632812 118.472656 235.160156 117.984375 C 232.5 115.261719 229.019531 115.527344 225.257812 116.570312 C 224.191406 116.867188 222.527344 116.855469 221.808594 116.226562 C 220.117188 114.746094 218.929688 115.410156 217.550781 116.441406 C 215.878906 117.691406 214.21875 118.957031 212.484375 120.113281 C 209.296875 122.242188 208.304688 124.511719 209.039062 128.28125 C 209.480469 130.523438 210.964844 131.566406 212.933594 130.421875 C 215.402344 128.984375 217.519531 126.949219 219.835938 125.238281 C 220.476562 124.765625 221.472656 124.066406 221.992188 124.269531 C 224.226562 125.144531 225.804688 124.273438 227.414062 122.886719 C 229.570312 121.035156 230.585938 120.3125 231.738281 120.746094 C 232.496094 121.027344 233.308594 121.796875 234.546875 123.070312 C 238.179688 126.816406 238.167969 126.808594 235.867188 131.449219 C 235.597656 132.007812 235.484375 132.640625 235.21875 133.519531 C 236.3125 133.429688 237.117188 133.367188 238.414062 133.261719 C 238.058594 135.269531 237.9375 137.238281 237.335938 139.054688 C 235.796875 143.71875 232.996094 144.738281 228.878906 142.144531 C 227.121094 141.039062 225.449219 140.867188 224.429688 142.609375 C 222.609375 145.726562 219.613281 145.976562 216.765625 145.859375 C 213.152344 145.714844 209.84375 146.507812 206.597656 147.644531 C 205.320312 148.089844 204.050781 148.59375 202.777344 149.113281 C 200.953125 149.855469 198.835938 149.851562 196.871094 150.269531 C 196.175781 150.421875 195.5 150.765625 194.863281 151.109375 C 191.136719 153.148438 187.371094 155.136719 183.726562 157.320312 C 182.761719 157.898438 181.738281 159.011719 181.496094 160.050781 C 180.773438 163.1875 180.503906 166.421875 179.882812 169.589844 C 179.710938 170.457031 178.9375 171.207031 178.441406 172.011719 C 177.664062 171.410156 176.664062 170.949219 176.164062 170.171875 C 175.515625 169.160156 175.140625 167.929688 174.859375 166.742188 C 173.511719 160.933594 169.636719 158.144531 163.742188 158.914062 C 157.582031 159.714844 152.386719 162.570312 149.054688 167.699219 C 147.546875 170.019531 147.277344 173.40625 147.226562 176.324219 C 147.183594 178.75 149.140625 180.132812 151.75 179.984375 C 152.695312 179.929688 153.679688 179.503906 154.558594 179.675781 C 155.730469 179.902344 157.238281 180.265625 157.808594 181.105469 C 158.246094 181.761719 157.746094 183.421875 157.160156 184.304688 C 156.453125 185.359375 155.191406 186.042969 154.199219 186.917969 C 152.78125 188.160156 152.78125 189.328125 154.074219 190.804688 C 154.828125 191.664062 155.234375 192.964844 155.429688 194.132812 C 155.628906 195.320312 155.464844 196.597656 155.308594 197.820312 C 154.660156 202.785156 157.261719 205.644531 161.441406 207.570312 C 165.066406 209.234375 167.667969 208.613281 170.144531 205.40625 C 172.746094 202.042969 173.988281 202.007812 177.503906 204.191406 C 178.734375 204.953125 180.039062 205.589844 181.367188 206.199219 C 182.964844 206.933594 184.582031 207.632812 186.113281 208.480469 C 188.890625 210.019531 191.519531 211.824219 194.207031 213.523438 C 195.632812 214.425781 196.960938 215.535156 198.488281 216.210938 C 205.824219 219.472656 211.253906 224.421875 214.269531 232.101562 C 215.597656 235.480469 218 238.449219 220.054688 241.507812 C 220.449219 242.09375 221.5 242.234375 222.242188 242.582031 C 226.597656 244.589844 231.203125 246.203125 235.242188 248.722656 C 239.328125 251.277344 239.773438 253.644531 238.136719 258.242188 Z M 238.136719 258.242188 " style=" stroke:none;fill-rule:nonzero;fill:rgb(85.098039%,96.862745%,41.960784%);fill-opacity:1;" />
<path d="M 238.136719 258.242188 C 237.453125 260.167969 236.609375 262.390625 235.121094 263.59375 C 231.957031 266.148438 230.84375 269.660156 229.214844 273.074219 C 227.152344 277.394531 224.9375 281.824219 221.867188 285.429688 C 219.972656 287.660156 216.328125 288.363281 213.546875 289.894531 C 211.792969 290.859375 209.835938 291.796875 208.585938 293.265625 C 206.265625 295.996094 204.148438 298.976562 202.394531 302.105469 C 201.328125 304.007812 200.03125 305.621094 198.558594 307.054688 C 186.011719 285.441406 178.828125 260.328125 178.828125 233.535156 C 178.828125 224.191406 179.703125 215.058594 181.367188 206.203125 C 182.964844 206.9375 184.585938 207.636719 186.117188 208.484375 C 188.894531 210.023438 191.523438 211.828125 194.210938 213.527344 C 195.636719 214.429688 196.964844 215.539062 198.488281 216.214844 C 205.828125 219.476562 211.257812 224.425781 214.273438 232.105469 C 215.601562 235.484375 218.003906 238.453125 220.058594 241.511719 C 220.449219 242.09375 221.503906 242.238281 222.246094 242.585938 C 226.601562 244.59375 231.207031 246.203125 235.246094 248.726562 C 239.328125 251.277344 239.773438 253.644531 238.136719 258.242188 Z M 238.136719 258.242188 " style=" stroke:none;fill-rule:nonzero;fill:rgb(70.980392%,88.627451%,21.568627%);fill-opacity:1;" />
<path d="M 206.597656 147.648438 C 213.820312 137.660156 222.277344 128.617188 231.738281 120.75 C 232.496094 121.027344 233.3125 121.800781 234.546875 123.074219 C 238.179688 126.816406 238.171875 126.8125 235.871094 131.453125 C 235.597656 132.007812 235.488281 132.644531 235.21875 133.523438 C 236.316406 133.433594 237.121094 133.367188 238.414062 133.261719 C 238.058594 135.269531 237.9375 137.242188 237.339844 139.054688 C 235.796875 143.71875 232.996094 144.742188 228.878906 142.148438 C 227.125 141.039062 225.449219 140.871094 224.433594 142.613281 C 222.613281 145.726562 219.613281 145.976562 216.769531 145.863281 C 213.15625 145.722656 209.847656 146.511719 206.597656 147.648438 Z M 206.597656 147.648438 " style=" stroke:none;fill-rule:nonzero;fill:rgb(70.980392%,88.627451%,21.568627%);fill-opacity:1;" />
<path d="M 236.503906 119.753906 C 236.085938 119.058594 235.636719 118.476562 235.164062 117.988281 C 237.628906 116.050781 240.160156 114.195312 242.753906 112.421875 C 243.089844 112.417969 243.429688 112.417969 243.769531 112.417969 C 243.941406 112.417969 244.109375 112.417969 244.277344 112.421875 C 244.445312 112.425781 243.644531 112.417969 243.816406 112.417969 C 243.835938 112.550781 243.757812 113.59375 243.769531 113.742188 C 241.078125 115.972656 239.449219 117.316406 236.503906 119.753906 Z M 236.503906 119.753906 " style=" stroke:none;fill-rule:nonzero;fill:rgb(70.980392%,88.627451%,21.568627%);fill-opacity:1;" />
<path d="M 409 232.648438 C 409 277.011719 391.730469 318.710938 360.359375 350.070312 C 329 381.441406 287.300781 398.710938 242.941406 398.710938 C 198.679688 398.710938 157.050781 381.5 125.710938 350.261719 L 125.160156 349.691406 L 113.234375 336.609375 C 107.09375 329.878906 107.574219 319.441406 114.304688 313.304688 C 121.039062 307.160156 131.480469 307.640625 137.617188 314.378906 L 149.269531 327.160156 C 174.390625 352.0625 207.710938 365.757812 243.117188 365.710938 C 278.320312 365.664062 312.253906 351.566406 337.121094 326.648438 C 362.195312 301.527344 376 268.144531 376 232.648438 C 376 197.101562 362.160156 163.679688 337.03125 138.550781 L 327.324219 128.847656 C 320.878906 122.402344 320.875 111.953125 327.320312 105.511719 C 333.765625 99.066406 344.214844 99.066406 350.65625 105.511719 L 360.359375 115.21875 C 391.730469 146.578125 409 188.289062 409 232.648438 Z M 409 232.648438 " style=" stroke:none;fill-rule:nonzero;fill:rgb(27.843137%,30.980392%,43.529412%);fill-opacity:1;" />
<path d="M 409 232.648438 C 409 277.011719 391.730469 318.710938 360.359375 350.070312 C 329 381.441406 287.300781 398.710938 242.941406 398.710938 C 198.679688 398.710938 157.050781 381.5 125.710938 350.261719 L 125.160156 349.691406 L 113.234375 336.609375 C 107.09375 329.878906 107.574219 319.441406 114.304688 313.304688 L 114.308594 313.300781 L 137.351562 338.578125 C 165.578125 366.71875 203.070312 382.210938 242.941406 382.210938 C 283.308594 382.210938 322.164062 365.761719 350.285156 336.800781 C 377.679688 308.589844 392.660156 271.445312 392.5 232.011719 C 392.335938 192.125 375.84375 154.035156 347.636719 125.828125 L 327.320312 105.511719 C 333.765625 99.066406 344.214844 99.066406 350.65625 105.511719 L 360.359375 115.21875 C 391.730469 146.578125 409 188.289062 409 232.648438 Z M 409 232.648438 " style=" stroke:none;fill-rule:nonzero;fill:rgb(19.607843%,23.137255%,35.294118%);fill-opacity:1;" />
<path d="M 335.199219 499.511719 C 310.261719 507.621094 283.640625 512 256 512 L 245.378906 512 L 245.378906 511.78125 C 228.011719 511.070312 211.078125 508.628906 194.769531 504.628906 C 191.578125 503.851562 188.421875 503 185.28125 502.101562 C 176.910156 499.699219 168.710938 496.890625 160.71875 493.679688 L 176.921875 475.371094 L 176.921875 449 L 208.929688 449 L 208.929688 422.03125 L 281.828125 422.03125 L 281.828125 449 L 313.839844 449 L 313.839844 475.371094 Z M 335.199219 499.511719 " style=" stroke:none;fill-rule:nonzero;fill:rgb(45.490196%,49.411765%,61.960784%);fill-opacity:1;" />
<path d="M 335.199219 499.511719 C 310.261719 507.621094 283.640625 512 256 512 L 245.378906 512 L 245.378906 511.78125 C 228.011719 511.070312 211.078125 508.628906 194.769531 504.628906 C 191.578125 503.851562 188.421875 503 185.28125 502.101562 L 208.929688 475.371094 L 208.929688 449 L 226.300781 449 L 226.300781 422.03125 L 281.828125 422.03125 L 281.828125 449 L 313.839844 449 L 313.839844 475.371094 Z M 335.199219 499.511719 " style=" stroke:none;fill-rule:nonzero;fill:rgb(27.843137%,30.980392%,43.529412%);fill-opacity:1;" />
<path d="M 335.199219 499.511719 C 310.261719 507.621094 283.640625 512 256 512 L 245.378906 512 L 245.378906 422.03125 L 281.828125 422.03125 L 281.828125 449 L 313.839844 449 L 313.839844 475.371094 Z M 335.199219 499.511719 " style=" stroke:none;fill-rule:nonzero;fill:rgb(19.607843%,23.137255%,35.294118%);fill-opacity:1;" />
<path d="M 335.199219 499.511719 C 310.261719 507.621094 283.640625 512 256 512 L 245.378906 512 L 245.378906 449 L 313.839844 449 L 313.839844 475.371094 Z M 335.199219 499.511719 " style=" stroke:none;fill-rule:nonzero;fill:rgb(19.607843%,23.137255%,35.294118%);fill-opacity:1;" />
<path d="M 335.199219 499.511719 C 310.261719 507.621094 283.640625 512 256 512 L 245.378906 512 L 245.378906 511.78125 C 228.011719 511.070312 211.078125 508.628906 194.769531 504.628906 C 191.578125 503.851562 188.421875 503 185.28125 502.101562 C 176.910156 499.699219 168.710938 496.890625 160.71875 493.679688 L 176.921875 475.371094 L 313.839844 475.371094 Z M 335.199219 499.511719 " style=" stroke:none;fill-rule:nonzero;fill:rgb(77.254902%,34.509804%,20.784314%);fill-opacity:1;" />
<path d="M 335.199219 499.511719 C 310.261719 507.621094 283.640625 512 256 512 L 245.378906 512 L 245.378906 511.78125 C 228.011719 511.070312 211.078125 508.628906 194.769531 504.628906 L 212.878906 475.371094 L 313.839844 475.371094 Z M 335.199219 499.511719 " style=" stroke:none;fill-rule:nonzero;fill:rgb(65.098039%,22.352941%,7.843137%);fill-opacity:1;" />
<path d="M 335.199219 499.511719 C 310.261719 507.621094 283.640625 512 256 512 L 245.378906 512 L 245.378906 475.371094 L 313.839844 475.371094 Z M 335.199219 499.511719 " style=" stroke:none;fill-rule:nonzero;fill:rgb(47.843137%,17.647059%,10.196078%);fill-opacity:1;" />
</g>
</svg>