<svg xmlns="http://www.w3.org/2000/svg" height="512pt" version="1.1" viewBox="0 0 512 512" width="512pt">
<g id="surface1">
<path d="M 512 256 C 512 397.386719 397.386719 512 256 512 C 114.613281 512 0 397.386719 0 256 C 0 114.613281 114.613281 0 256 0 C 397.386719 0 512 114.613281 512 256 Z M 512 256 " style=" stroke:none;fill-rule:nonzero;fill:rgb(61.960784%,41.176471%,88.627451%);fill-opacity:1;" />
<path d="M 512 256 C 512 282.050781 508.109375 307.191406 500.871094 330.871094 C 468.859375 435.71875 371.328125 512 256 512 C 151.441406 512 61.511719 449.300781 21.769531 359.449219 C 7.769531 327.820312 0 292.820312 0 256 C 0 209.78125 12.25 166.429688 33.679688 129 C 77.800781 206.070312 160.839844 258 256 258 C 351.160156 258 434.210938 206.070312 478.320312 129 C 499.75 166.429688 512 209.78125 512 256 Z M 512 256 " style=" stroke:none;fill-rule:nonzero;fill:rgb(55.686275%,30.980392%,82.352941%);fill-opacity:1;" />
<path d="M 30.742188 377.703125 C 37.898438 390.921875 46.171875 403.441406 55.460938 415.128906 C 102.359375 474.148438 174.761719 512 256 512 C 337.238281 512 409.640625 474.148438 456.539062 415.128906 C 465.828125 403.441406 474.101562 390.921875 481.257812 377.703125 Z M 30.742188 377.703125 " style=" stroke:none;fill-rule:nonzero;fill:rgb(43.921569%,21.960784%,72.941176%);fill-opacity:1;" />
<path d="M 497.769531 171.648438 L 270.390625 287.351562 C 270.390625 287.351562 270.390625 287.339844 270.378906 287.351562 C 270.378906 287.351562 270.378906 287.339844 270.371094 287.351562 L 270.269531 287.410156 L 256.269531 294.53125 L 255.121094 295.121094 L 255.109375 295.121094 L 254.960938 295.199219 L 239.960938 287.570312 L 239.609375 287.390625 L 239.601562 287.390625 L 13.929688 172.53125 C 17.628906 161.769531 22.03125 151.339844 27.078125 141.289062 C 31.890625 131.71875 37.269531 122.488281 43.199219 113.648438 L 254.960938 221.429688 L 256.269531 220.761719 L 468.289062 112.890625 C 474.25 121.710938 479.671875 130.921875 484.5 140.46875 C 489.589844 150.5 494.03125 160.910156 497.769531 171.648438 Z M 497.769531 171.648438 " style=" stroke:none;fill-rule:nonzero;fill:rgb(86.666667%,7.058824%,39.607843%);fill-opacity:1;" />
<path d="M 497.769531 171.648438 L 270.390625 287.351562 C 270.390625 287.351562 270.390625 287.339844 270.378906 287.351562 C 270.378906 287.351562 270.378906 287.339844 270.371094 287.351562 L 270.269531 287.410156 L 256.269531 294.53125 L 256.269531 220.761719 L 468.289062 112.890625 C 474.25 121.710938 479.671875 130.921875 484.5 140.46875 C 489.589844 150.5 494.03125 160.910156 497.769531 171.648438 Z M 497.769531 171.648438 " style=" stroke:none;fill-rule:nonzero;fill:rgb(72.941176%,5.098039%,36.078431%);fill-opacity:1;" />
<path d="M 484.5 140.46875 L 257.761719 255.851562 L 256.269531 256.609375 L 255.121094 257.191406 L 254.960938 257.269531 L 252.25 255.890625 L 27.078125 141.289062 C 31.890625 131.71875 37.269531 122.488281 43.199219 113.648438 L 254.960938 221.429688 L 256.269531 220.761719 L 468.289062 112.890625 C 474.25 121.710938 479.671875 130.921875 484.5 140.46875 Z M 484.5 140.46875 " style=" stroke:none;fill-rule:nonzero;fill:rgb(100%,20.392157%,27.058824%);fill-opacity:1;" />
<path d="M 484.5 140.46875 L 257.761719 255.851562 L 256.269531 256.609375 L 256.269531 220.761719 L 468.289062 112.890625 C 474.25 121.710938 479.671875 130.921875 484.5 140.46875 Z M 484.5 140.46875 " style=" stroke:none;fill-rule:nonzero;fill:rgb(86.666667%,7.058824%,39.607843%);fill-opacity:1;" />
<path d="M 270.269531 270.773438 L 270.269531 292.628906 C 270.269531 296.8125 268.570312 300.605469 265.828125 303.347656 C 263.085938 306.089844 259.300781 307.785156 255.117188 307.785156 L 255.109375 307.785156 C 246.746094 307.785156 239.957031 300.996094 239.957031 292.628906 L 239.957031 270.773438 C 239.957031 262.402344 246.742188 255.617188 255.109375 255.617188 L 255.117188 255.617188 C 263.484375 255.625 270.269531 262.402344 270.269531 270.773438 Z M 270.269531 270.773438 " style=" stroke:none;fill-rule:nonzero;fill:rgb(100%,62.352941%,0%);fill-opacity:1;" />
<path d="M 270.269531 270.773438 L 270.269531 292.628906 C 270.269531 296.8125 268.570312 300.605469 265.828125 303.347656 C 263.085938 306.089844 259.300781 307.785156 255.117188 307.785156 L 255.117188 255.621094 C 263.484375 255.625 270.269531 262.402344 270.269531 270.773438 Z M 270.269531 270.773438 " style=" stroke:none;fill-rule:nonzero;fill:rgb(92.941176%,46.666667%,10.588235%);fill-opacity:1;" />
<path d="M 346.515625 377.476562 L 346.515625 406.058594 C 346.515625 456.539062 305.589844 497.460938 255.113281 497.460938 C 204.628906 497.460938 163.710938 456.539062 163.710938 406.058594 L 163.710938 377.476562 Z M 346.515625 377.476562 " style=" stroke:none;fill-rule:nonzero;fill:rgb(100%,62.352941%,0%);fill-opacity:1;" />
<path d="M 346.515625 377.476562 L 346.515625 406.058594 C 346.515625 456.539062 305.589844 497.460938 255.113281 497.460938 L 255.113281 377.476562 Z M 346.515625 377.476562 " style=" stroke:none;fill-rule:nonzero;fill:rgb(92.941176%,46.666667%,10.588235%);fill-opacity:1;" />
<path d="M 346.515625 377.476562 C 346.515625 427.960938 305.589844 468.878906 255.113281 468.878906 C 254.789062 468.878906 254.460938 468.878906 254.136719 468.871094 C 204.105469 468.351562 163.710938 427.636719 163.710938 377.476562 C 163.710938 326.996094 204.632812 286.074219 255.113281 286.074219 C 255.304688 286.074219 255.492188 286.074219 255.683594 286.078125 C 305.898438 286.382812 346.515625 327.1875 346.515625 377.476562 Z M 346.515625 377.476562 " style=" stroke:none;fill-rule:nonzero;fill:rgb(100%,81.960784%,7.058824%);fill-opacity:1;" />
<path d="M 346.515625 377.476562 C 346.515625 427.960938 305.589844 468.878906 255.113281 468.878906 L 255.113281 286.074219 C 305.589844 286.074219 346.515625 326.996094 346.515625 377.476562 Z M 346.515625 377.476562 " style=" stroke:none;fill-rule:nonzero;fill:rgb(100%,62.352941%,0%);fill-opacity:1;" />
<path d="M 313.5 377.476562 C 313.5 409.722656 287.359375 435.863281 255.109375 435.863281 C 222.863281 435.863281 196.722656 409.722656 196.722656 377.476562 C 196.722656 345.230469 222.863281 319.089844 255.109375 319.089844 C 287.359375 319.089844 313.5 345.230469 313.5 377.476562 Z M 313.5 377.476562 " style=" stroke:none;fill-rule:nonzero;fill:rgb(100%,91.372549%,33.333333%);fill-opacity:1;" />
<path d="M 313.5 377.476562 C 313.5 409.722656 287.355469 435.863281 255.109375 435.863281 L 255.109375 319.089844 C 287.355469 319.089844 313.5 345.230469 313.5 377.476562 Z M 313.5 377.476562 " style=" stroke:none;fill-rule:nonzero;fill:rgb(100%,81.960784%,7.058824%);fill-opacity:1;" />
<path d="M 285.15625 374.699219 L 278.292969 381.386719 C 276.546875 383.085938 275.746094 385.539062 276.160156 387.941406 L 277.78125 397.382812 C 278.816406 403.433594 272.46875 408.046875 267.035156 405.191406 L 258.558594 400.734375 C 257.480469 400.164062 256.292969 399.878906 255.113281 399.878906 C 253.925781 399.878906 252.738281 400.164062 251.664062 400.734375 L 243.183594 405.191406 C 237.753906 408.042969 231.402344 403.433594 232.4375 397.382812 L 234.058594 387.941406 C 234.472656 385.539062 233.675781 383.085938 231.925781 381.386719 L 225.070312 374.699219 C 220.671875 370.414062 223.097656 362.949219 229.171875 362.066406 L 238.652344 360.6875 C 241.066406 360.335938 243.148438 358.824219 244.226562 356.640625 L 248.46875 348.042969 C 249.824219 345.292969 252.46875 343.921875 255.109375 343.921875 C 257.75 343.921875 260.394531 345.292969 261.753906 348.042969 L 265.988281 356.640625 C 267.066406 358.824219 269.152344 360.339844 271.566406 360.6875 L 281.046875 362.066406 C 287.125 362.949219 289.546875 370.414062 285.15625 374.699219 Z M 285.15625 374.699219 " style=" stroke:none;fill-rule:nonzero;fill:rgb(100%,62.352941%,0%);fill-opacity:1;" />
<path d="M 285.15625 374.699219 L 278.292969 381.386719 C 276.546875 383.085938 275.746094 385.539062 276.160156 387.941406 L 277.78125 397.382812 C 278.816406 403.433594 272.46875 408.046875 267.035156 405.191406 L 258.558594 400.734375 C 257.480469 400.164062 256.292969 399.878906 255.113281 399.878906 L 255.113281 343.921875 C 257.75 343.921875 260.394531 345.292969 261.753906 348.042969 L 265.988281 356.640625 C 267.066406 358.824219 269.152344 360.339844 271.566406 360.6875 L 281.050781 362.066406 C 287.125 362.949219 289.546875 370.414062 285.15625 374.699219 Z M 285.15625 374.699219 " style=" stroke:none;fill-rule:nonzero;fill:rgb(92.941176%,46.666667%,10.588235%);fill-opacity:1;" />
<path d="M 155.523438 290.84375 L 154 290.84375 C 147.246094 290.84375 141.773438 285.367188 141.773438 278.613281 L 141.773438 277.089844 L 133.058594 277.089844 L 133.058594 278.613281 C 133.058594 285.367188 127.582031 290.84375 120.828125 290.84375 L 119.304688 290.84375 L 119.304688 299.558594 L 120.828125 299.558594 C 127.582031 299.558594 133.058594 305.03125 133.058594 311.785156 L 133.058594 313.308594 L 141.773438 313.308594 L 141.773438 311.785156 C 141.773438 305.03125 147.246094 299.558594 154 299.558594 L 155.523438 299.558594 Z M 155.523438 290.84375 " style=" stroke:none;fill-rule:nonzero;fill:rgb(100%,100%,100%);fill-opacity:1;" />
<path d="M 146.300781 425.945312 L 144.777344 425.945312 C 138.023438 425.945312 132.550781 420.472656 132.550781 413.71875 L 132.550781 412.195312 L 123.835938 412.195312 L 123.835938 413.71875 C 123.835938 420.472656 118.359375 425.945312 111.605469 425.945312 L 110.082031 425.945312 L 110.082031 434.660156 L 111.605469 434.660156 C 118.359375 434.660156 123.835938 440.136719 123.835938 446.886719 L 123.835938 448.414062 L 132.550781 448.414062 L 132.550781 446.886719 C 132.550781 440.136719 138.023438 434.660156 144.777344 434.660156 L 146.300781 434.660156 Z M 146.300781 425.945312 " style=" stroke:none;fill-rule:nonzero;fill:rgb(100%,100%,100%);fill-opacity:1;" />
<path d="M 469.730469 316.140625 L 468.203125 316.140625 C 461.453125 316.140625 455.976562 310.667969 455.976562 303.914062 L 455.976562 302.390625 L 447.261719 302.390625 L 447.261719 303.914062 C 447.261719 310.667969 441.789062 316.140625 435.035156 316.140625 L 433.511719 316.140625 L 433.511719 324.859375 L 435.035156 324.859375 C 441.789062 324.859375 447.261719 330.332031 447.261719 337.085938 L 447.261719 338.609375 L 455.976562 338.609375 L 455.976562 337.085938 C 455.976562 330.332031 461.453125 324.859375 468.203125 324.859375 L 469.730469 324.859375 Z M 469.730469 316.140625 " style=" stroke:none;fill-rule:nonzero;fill:rgb(100%,100%,100%);fill-opacity:1;" />
<path d="M 408.683594 407.835938 L 407.15625 407.835938 C 400.40625 407.835938 394.929688 402.363281 394.929688 395.609375 L 394.929688 394.085938 L 386.214844 394.085938 L 386.214844 395.609375 C 386.214844 402.363281 380.742188 407.835938 373.988281 407.835938 L 372.464844 407.835938 L 372.464844 416.550781 L 373.988281 416.550781 C 380.742188 416.550781 386.214844 422.027344 386.214844 428.777344 L 386.214844 430.304688 L 394.929688 430.304688 L 394.929688 428.777344 C 394.929688 422.027344 400.40625 416.550781 407.15625 416.550781 L 408.683594 416.550781 Z M 408.683594 407.835938 " style=" stroke:none;fill-rule:nonzero;fill:rgb(100%,100%,100%);fill-opacity:1;" />
<path d="M 390.574219 282.652344 L 389.050781 282.652344 C 382.296875 282.652344 376.820312 277.175781 376.820312 270.425781 L 376.820312 268.898438 L 368.105469 268.898438 L 368.105469 270.425781 C 368.105469 277.175781 362.632812 282.652344 355.878906 282.652344 L 354.355469 282.652344 L 354.355469 291.367188 L 355.878906 291.367188 C 362.632812 291.367188 368.105469 296.839844 368.105469 303.59375 L 368.105469 305.117188 L 376.820312 305.117188 L 376.820312 303.59375 C 376.820312 296.839844 382.296875 291.367188 389.050781 291.367188 L 390.574219 291.367188 Z M 390.574219 282.652344 " style=" stroke:none;fill-rule:nonzero;fill:rgb(100%,100%,100%);fill-opacity:1;" />
<path d="M 79.574219 324.105469 L 78.050781 324.105469 C 71.296875 324.105469 65.824219 318.632812 65.824219 311.878906 L 65.824219 310.355469 L 57.105469 310.355469 L 57.105469 311.878906 C 57.105469 318.632812 51.632812 324.105469 44.878906 324.105469 L 43.355469 324.105469 L 43.355469 332.820312 L 44.878906 332.820312 C 51.632812 332.820312 57.105469 338.296875 57.105469 345.050781 L 57.105469 346.574219 L 65.824219 346.574219 L 65.824219 345.050781 C 65.824219 338.296875 71.296875 332.820312 78.050781 332.820312 L 79.574219 332.820312 Z M 79.574219 324.105469 " style=" stroke:none;fill-rule:nonzero;fill:rgb(100%,100%,100%);fill-opacity:1;" />
</g>
</svg>