<svg xmlns="http://www.w3.org/2000/svg" height="512pt" version="1.1" viewBox="0 0 512 512" width="512pt">
<g id="surface1">
<path d="M 512 256 C 512 397.386719 397.386719 512 256 512 C 114.613281 512 0 397.386719 0 256 C 0 114.613281 114.613281 0 256 0 C 397.386719 0 512 114.613281 512 256 Z M 512 256 " style=" stroke:none;fill-rule:nonzero;fill:rgb(40.784314%,98.823529%,87.45098%);fill-opacity:1;" />
<path d="M 512 256 C 512 282.050781 508.109375 307.191406 500.871094 330.871094 C 468.859375 435.71875 371.328125 512 256 512 C 151.441406 512 61.511719 449.300781 21.769531 359.449219 C 7.769531 327.820312 0 292.820312 0 256 C 0 209.78125 12.25 166.429688 33.679688 129 C 77.800781 206.070312 160.839844 258 256 258 C 351.160156 258 434.210938 206.070312 478.320312 129 C 499.75 166.429688 512 209.78125 512 256 Z M 512 256 " style=" stroke:none;fill-rule:nonzero;fill:rgb(6.27451%,88.627451%,76.862745%);fill-opacity:1;" />
<path d="M 481.261719 377.699219 C 474.101562 390.921875 465.828125 403.441406 456.539062 415.128906 C 409.75 474.011719 337.589844 511.820312 256.589844 512 L 256 512 C 174.761719 512 102.359375 474.148438 55.460938 415.128906 C 46.171875 403.441406 37.898438 390.921875 30.738281 377.699219 Z M 481.261719 377.699219 " style=" stroke:none;fill-rule:nonzero;fill:rgb(92.941176%,46.666667%,10.588235%);fill-opacity:1;" />
<path d="M 481.261719 377.699219 C 474.101562 390.921875 465.828125 403.441406 456.539062 415.128906 C 409.75 474.011719 337.589844 511.820312 256.589844 512 L 256.589844 377.699219 Z M 481.261719 377.699219 " style=" stroke:none;fill-rule:nonzero;fill:rgb(65.098039%,22.352941%,7.843137%);fill-opacity:1;" />
<path d="M 407.320312 291.699219 L 312.210938 291.699219 C 286.660156 291.699219 268.308594 316.289062 275.570312 340.78125 L 290.761719 391.980469 C 295.570312 408.199219 310.46875 419.320312 327.390625 419.320312 L 399.941406 419.320312 C 418.941406 419.320312 435.058594 405.359375 437.769531 386.558594 L 445.140625 335.359375 C 448.460938 312.328125 430.589844 291.699219 407.320312 291.699219 Z M 407.320312 291.699219 " style=" stroke:none;fill-rule:nonzero;fill:rgb(100%,100%,100%);fill-opacity:1;" />
<path d="M 407.320312 291.699219 L 359.621094 291.699219 C 334.070312 291.699219 315.71875 316.289062 322.980469 340.78125 L 338.171875 391.980469 C 342.980469 408.199219 357.878906 419.320312 374.800781 419.320312 L 399.941406 419.320312 C 418.941406 419.320312 435.058594 405.359375 437.769531 386.558594 L 445.140625 335.359375 C 448.460938 312.328125 430.589844 291.699219 407.320312 291.699219 Z M 407.320312 291.699219 " style=" stroke:none;fill-rule:nonzero;fill:rgb(81.568627%,96.470588%,100%);fill-opacity:1;" />
<path d="M 445.140625 335.359375 L 437.769531 386.558594 C 435.058594 405.359375 418.941406 419.320312 399.941406 419.320312 L 359.75 419.320312 L 359.75 291.699219 L 407.320312 291.699219 C 430.589844 291.699219 448.460938 312.328125 445.140625 335.359375 Z M 445.140625 335.359375 " style=" stroke:none;fill-rule:nonzero;fill:rgb(56.078431%,78.823529%,96.862745%);fill-opacity:1;" />
<path d="M 200.980469 291.699219 L 105.871094 291.699219 C 82.601562 291.699219 64.730469 312.328125 68.050781 335.359375 L 75.421875 386.558594 C 78.128906 405.359375 94.238281 419.320312 113.238281 419.320312 L 185.789062 419.320312 C 202.710938 419.320312 217.621094 408.199219 222.429688 391.980469 L 237.609375 340.78125 C 244.871094 316.289062 226.519531 291.699219 200.980469 291.699219 Z M 200.980469 291.699219 " style=" stroke:none;fill-rule:nonzero;fill:rgb(100%,100%,100%);fill-opacity:1;" />
<path d="M 200.980469 291.699219 L 153.75 291.699219 C 130.480469 291.699219 112.609375 312.328125 115.929688 335.359375 L 123.300781 386.558594 C 126.011719 405.359375 142.121094 419.320312 161.121094 419.320312 L 185.789062 419.320312 C 202.710938 419.320312 217.621094 408.199219 222.429688 391.980469 L 237.609375 340.78125 C 244.871094 316.289062 226.519531 291.699219 200.980469 291.699219 Z M 200.980469 291.699219 " style=" stroke:none;fill-rule:nonzero;fill:rgb(81.568627%,96.470588%,100%);fill-opacity:1;" />
<path d="M 237.609375 340.78125 L 222.429688 391.980469 C 217.621094 408.199219 202.710938 419.320312 185.789062 419.320312 L 152.710938 419.320312 L 152.710938 291.699219 L 200.980469 291.699219 C 226.519531 291.699219 244.871094 316.289062 237.609375 340.78125 Z M 237.609375 340.78125 " style=" stroke:none;fill-rule:nonzero;fill:rgb(56.078431%,78.823529%,96.862745%);fill-opacity:1;" />
<path d="M 466.792969 243.445312 L 466.792969 340.777344 C 466.792969 346.648438 462.03125 351.40625 456.160156 351.40625 C 450.289062 351.40625 445.53125 346.648438 445.53125 340.777344 L 445.53125 243.445312 C 445.53125 222.03125 428.113281 204.613281 406.699219 204.613281 C 400.832031 204.613281 396.070312 199.855469 396.070312 193.984375 C 396.070312 188.113281 400.828125 183.351562 406.699219 183.351562 C 422.753906 183.351562 437.839844 189.601562 449.191406 200.953125 C 460.542969 212.304688 466.792969 227.394531 466.792969 243.445312 Z M 466.792969 243.445312 " style=" stroke:none;fill-rule:nonzero;fill:rgb(27.843137%,30.980392%,43.529412%);fill-opacity:1;" />
<path d="M 456.160156 243.445312 L 456.160156 351.40625 C 450.292969 351.40625 445.53125 346.648438 445.53125 340.777344 L 445.53125 243.441406 C 445.53125 222.03125 428.113281 204.613281 406.699219 204.613281 C 400.832031 204.613281 396.070312 199.851562 396.070312 193.980469 L 406.699219 193.980469 C 434.019531 193.984375 456.160156 216.128906 456.160156 243.445312 Z M 456.160156 243.445312 " style=" stroke:none;fill-rule:nonzero;fill:rgb(19.607843%,23.137255%,35.294118%);fill-opacity:1;" />
<path d="M 46.390625 243.445312 L 46.390625 340.777344 C 46.390625 346.648438 51.152344 351.40625 57.023438 351.40625 C 62.894531 351.40625 67.652344 346.648438 67.652344 340.777344 L 67.652344 243.445312 C 67.652344 222.03125 85.070312 204.613281 106.484375 204.613281 C 112.351562 204.613281 117.113281 199.855469 117.113281 193.984375 C 117.113281 188.113281 112.355469 183.351562 106.484375 183.351562 C 90.433594 183.351562 75.34375 189.601562 63.992188 200.953125 C 52.640625 212.304688 46.390625 227.394531 46.390625 243.445312 Z M 46.390625 243.445312 " style=" stroke:none;fill-rule:nonzero;fill:rgb(27.843137%,30.980392%,43.529412%);fill-opacity:1;" />
<path d="M 57.023438 243.445312 L 57.023438 351.40625 C 62.890625 351.40625 67.652344 346.648438 67.652344 340.777344 L 67.652344 243.441406 C 67.652344 222.03125 85.070312 204.613281 106.484375 204.613281 C 112.351562 204.613281 117.113281 199.851562 117.113281 193.980469 L 106.484375 193.980469 C 79.164062 193.984375 57.023438 216.128906 57.023438 243.445312 Z M 57.023438 243.445312 " style=" stroke:none;fill-rule:nonzero;fill:rgb(19.607843%,23.137255%,35.294118%);fill-opacity:1;" />
<path d="M 492.941406 340.777344 C 492.941406 346.648438 488.183594 351.40625 482.3125 351.40625 L 444.351562 351.40625 C 438.480469 351.40625 433.71875 346.648438 433.71875 340.777344 C 433.71875 334.90625 438.480469 330.148438 444.351562 330.148438 L 482.3125 330.148438 C 488.183594 330.148438 492.941406 334.90625 492.941406 340.777344 Z M 492.941406 340.777344 " style=" stroke:none;fill-rule:nonzero;fill:rgb(27.843137%,30.980392%,43.529412%);fill-opacity:1;" />
<path d="M 492.941406 340.777344 C 492.941406 346.648438 488.183594 351.40625 482.3125 351.40625 L 444.351562 351.40625 C 438.480469 351.40625 433.71875 346.648438 433.71875 340.777344 Z M 492.941406 340.777344 " style=" stroke:none;fill-rule:nonzero;fill:rgb(19.607843%,23.137255%,35.294118%);fill-opacity:1;" />
<path d="M 78.277344 340.777344 C 78.277344 346.648438 73.519531 351.40625 67.648438 351.40625 L 29.6875 351.40625 C 23.816406 351.40625 19.054688 346.648438 19.054688 340.777344 C 19.054688 334.90625 23.816406 330.148438 29.6875 330.148438 L 67.648438 330.148438 C 73.519531 330.148438 78.277344 334.90625 78.277344 340.777344 Z M 78.277344 340.777344 " style=" stroke:none;fill-rule:nonzero;fill:rgb(27.843137%,30.980392%,43.529412%);fill-opacity:1;" />
<path d="M 78.277344 340.777344 C 78.277344 346.648438 73.519531 351.40625 67.648438 351.40625 L 29.6875 351.40625 C 23.816406 351.40625 19.054688 346.648438 19.054688 340.777344 Z M 78.277344 340.777344 " style=" stroke:none;fill-rule:nonzero;fill:rgb(19.607843%,23.137255%,35.294118%);fill-opacity:1;" />
<path d="M 237.609375 330.148438 L 275.574219 330.148438 L 275.574219 351.40625 L 237.609375 351.40625 Z M 237.609375 330.148438 " style=" stroke:none;fill-rule:nonzero;fill:rgb(100%,91.372549%,33.333333%);fill-opacity:1;" />
<path d="M 237.609375 330.148438 L 275.574219 330.148438 L 275.574219 351.40625 L 237.609375 351.40625 Z M 237.609375 330.148438 " style=" stroke:none;fill-rule:nonzero;fill:rgb(27.843137%,30.980392%,43.529412%);fill-opacity:1;" />
<path d="M 237.609375 340.777344 L 275.574219 340.777344 L 275.574219 351.40625 L 237.609375 351.40625 Z M 237.609375 340.777344 " style=" stroke:none;fill-rule:nonzero;fill:rgb(19.607843%,23.137255%,35.294118%);fill-opacity:1;" />
<path d="M 248.984375 320.78125 C 247.605469 313.566406 244.539062 306.625 240.117188 300.695312 C 235.691406 294.769531 229.902344 289.855469 223.378906 286.480469 C 216.433594 282.890625 208.894531 281.070312 200.976562 281.070312 L 105.867188 281.070312 C 91.691406 281.070312 78.234375 287.21875 68.953125 297.933594 C 59.671875 308.648438 55.503906 322.839844 57.523438 336.875 L 64.894531 388.070312 C 66.570312 399.695312 72.382812 410.335938 81.257812 418.027344 C 90.136719 425.71875 101.492188 429.953125 113.238281 429.953125 L 185.792969 429.953125 C 196.402344 429.953125 206.507812 426.597656 215.011719 420.253906 C 223.515625 413.90625 229.601562 405.171875 232.617188 395 L 247.800781 343.800781 C 250.054688 336.207031 250.449219 328.460938 248.984375 320.78125 Z M 227.417969 337.753906 L 212.238281 388.953125 C 210.53125 394.699219 207.09375 399.628906 202.292969 403.214844 C 197.492188 406.800781 191.785156 408.695312 185.792969 408.695312 L 113.238281 408.695312 C 106.609375 408.695312 100.195312 406.304688 95.179688 401.960938 C 90.167969 397.613281 86.886719 391.609375 85.9375 385.042969 L 78.566406 333.84375 C 77.425781 325.921875 79.78125 317.902344 85.023438 311.855469 C 90.265625 305.800781 97.863281 302.332031 105.867188 302.332031 L 200.976562 302.332031 C 209.765625 302.332031 217.824219 306.371094 223.078125 313.414062 C 228.335938 320.457031 229.917969 329.328125 227.417969 337.753906 Z M 227.417969 337.753906 " style=" stroke:none;fill-rule:nonzero;fill:rgb(27.843137%,30.980392%,43.529412%);fill-opacity:1;" />
<path d="M 444.230469 297.933594 C 434.949219 287.21875 421.492188 281.070312 407.316406 281.070312 L 312.210938 281.070312 C 304.289062 281.070312 296.753906 282.890625 289.804688 286.480469 C 283.28125 289.855469 277.492188 294.769531 273.070312 300.695312 C 268.644531 306.625 265.578125 313.566406 264.199219 320.78125 C 262.734375 328.460938 263.132812 336.207031 265.382812 343.800781 L 280.566406 395 C 283.582031 405.171875 289.671875 413.90625 298.175781 420.253906 C 306.679688 426.597656 316.78125 429.953125 327.394531 429.953125 L 399.945312 429.953125 C 411.691406 429.953125 423.050781 425.71875 431.925781 418.027344 C 440.804688 410.335938 446.613281 399.695312 448.289062 388.070312 L 455.660156 336.875 C 457.679688 322.839844 453.515625 308.648438 444.230469 297.933594 Z M 434.617188 333.84375 L 427.246094 385.042969 C 426.300781 391.609375 423.019531 397.613281 418.003906 401.960938 C 412.992188 406.304688 406.578125 408.695312 399.945312 408.695312 L 327.390625 408.695312 C 321.398438 408.695312 315.691406 406.800781 310.890625 403.214844 C 306.089844 399.628906 302.652344 394.699219 300.949219 388.953125 L 285.765625 337.753906 C 283.265625 329.328125 284.847656 320.457031 290.105469 313.414062 C 295.363281 306.367188 303.417969 302.328125 312.210938 302.328125 L 407.316406 302.328125 C 415.324219 302.328125 422.921875 305.800781 428.164062 311.851562 C 433.40625 317.902344 435.757812 325.921875 434.617188 333.84375 Z M 434.617188 333.84375 " style=" stroke:none;fill-rule:nonzero;fill:rgb(27.843137%,30.980392%,43.529412%);fill-opacity:1;" />
<path d="M 444.230469 297.933594 C 434.949219 287.21875 421.492188 281.070312 407.316406 281.070312 L 312.210938 281.070312 C 304.289062 281.070312 296.753906 282.890625 289.804688 286.480469 C 283.28125 289.855469 277.492188 294.769531 273.070312 300.695312 C 268.644531 306.625 265.578125 313.566406 264.199219 320.78125 C 262.734375 328.460938 263.132812 336.207031 265.382812 343.800781 L 280.566406 395 C 283.582031 405.171875 289.671875 413.90625 298.175781 420.253906 C 306.679688 426.597656 316.78125 429.953125 327.394531 429.953125 L 399.945312 429.953125 C 411.691406 429.953125 423.050781 425.71875 431.925781 418.027344 C 440.804688 410.335938 446.613281 399.695312 448.289062 388.070312 L 455.660156 336.875 C 457.679688 322.839844 453.515625 308.648438 444.230469 297.933594 Z M 445.136719 335.359375 L 437.765625 386.558594 C 435.058594 405.363281 418.945312 419.324219 399.945312 419.324219 L 327.390625 419.324219 C 310.472656 419.324219 295.566406 408.195312 290.757812 391.976562 L 275.574219 340.777344 C 268.3125 316.285156 286.664062 291.699219 312.210938 291.699219 L 407.316406 291.699219 C 430.585938 291.699219 448.453125 312.328125 445.136719 335.359375 Z M 445.136719 335.359375 " style=" stroke:none;fill-rule:nonzero;fill:rgb(19.607843%,23.137255%,35.294118%);fill-opacity:1;" />
<path d="M 248.984375 320.78125 C 247.605469 313.566406 244.539062 306.625 240.117188 300.695312 C 235.691406 294.769531 229.902344 289.855469 223.378906 286.480469 C 216.433594 282.890625 208.894531 281.070312 200.976562 281.070312 L 105.867188 281.070312 C 91.691406 281.070312 78.234375 287.21875 68.953125 297.933594 C 59.671875 308.648438 55.503906 322.839844 57.523438 336.875 L 64.894531 388.070312 C 66.570312 399.695312 72.382812 410.335938 81.257812 418.027344 C 90.136719 425.71875 101.492188 429.953125 113.238281 429.953125 L 185.792969 429.953125 C 196.402344 429.953125 206.507812 426.597656 215.011719 420.253906 C 223.515625 413.90625 229.601562 405.171875 232.617188 395 L 247.800781 343.800781 C 250.054688 336.207031 250.449219 328.460938 248.984375 320.78125 Z M 237.609375 340.777344 L 222.429688 391.976562 C 217.617188 408.195312 202.714844 419.324219 185.792969 419.324219 L 113.238281 419.324219 C 94.242188 419.324219 78.128906 405.363281 75.417969 386.558594 L 68.046875 335.359375 C 64.730469 312.324219 82.597656 291.699219 105.867188 291.699219 L 200.976562 291.699219 C 226.523438 291.699219 244.875 316.285156 237.609375 340.777344 Z M 237.609375 340.777344 " style=" stroke:none;fill-rule:nonzero;fill:rgb(19.607843%,23.137255%,35.294118%);fill-opacity:1;" />
</g>
</svg>