<svg xmlns="http://www.w3.org/2000/svg" height="512pt" version="1.1" viewBox="0 0 512 512" width="512pt">
<g id="surface1">
<path d="M 512 256 C 512 397.386719 397.386719 512 256 512 C 114.613281 512 0 397.386719 0 256 C 0 114.613281 114.613281 0 256 0 C 397.386719 0 512 114.613281 512 256 Z M 512 256 " style=" stroke:none;fill-rule:nonzero;fill:rgb(100%,91.372549%,33.333333%);fill-opacity:1;" />
<path d="M 512 256 C 512 282.050781 508.109375 307.191406 500.871094 330.871094 C 468.859375 435.71875 371.328125 512 256 512 C 151.441406 512 61.511719 449.300781 21.769531 359.449219 C 7.769531 327.820312 0 292.820312 0 256 C 0 209.78125 12.25 166.429688 33.679688 129 C 77.800781 206.070312 160.839844 258 256 258 C 351.160156 258 434.210938 206.070312 478.320312 129 C 499.75 166.429688 512 209.78125 512 256 Z M 512 256 " style=" stroke:none;fill-rule:nonzero;fill:rgb(100%,81.960784%,7.058824%);fill-opacity:1;" />
<path d="M 30.742188 377.703125 C 37.898438 390.921875 46.171875 403.441406 55.460938 415.128906 C 102.359375 474.148438 174.761719 512 256 512 C 337.238281 512 409.640625 474.148438 456.539062 415.128906 C 465.828125 403.441406 474.101562 390.921875 481.257812 377.703125 Z M 30.742188 377.703125 " style=" stroke:none;fill-rule:nonzero;fill:rgb(100%,62.352941%,0%);fill-opacity:1;" />
<path d="M 387.941406 150.730469 C 387.941406 150.609375 387.941406 150.5 387.921875 150.378906 L 387.921875 150.371094 C 387.929688 150.351562 387.929688 150.320312 387.921875 150.300781 C 387.910156 150.011719 387.878906 149.71875 387.851562 149.429688 C 387.820312 149.070312 387.769531 148.710938 387.71875 148.359375 C 387.710938 148.28125 387.699219 148.210938 387.679688 148.148438 C 387.671875 148.019531 387.648438 147.898438 387.621094 147.789062 C 387.519531 147.191406 387.390625 146.609375 387.238281 146.03125 C 387.160156 145.71875 387.070312 145.410156 386.980469 145.109375 C 386.898438 144.828125 386.808594 144.558594 386.710938 144.289062 C 386.671875 144.171875 386.628906 144.050781 386.589844 143.941406 C 386.570312 143.890625 386.558594 143.851562 386.539062 143.808594 C 386.53125 143.78125 386.519531 143.75 386.511719 143.71875 C 386.398438 143.441406 386.289062 143.171875 386.179688 142.898438 C 386.039062 142.558594 385.878906 142.21875 385.71875 141.890625 C 385.558594 141.558594 385.398438 141.230469 385.21875 140.910156 C 384.871094 140.269531 384.488281 139.640625 384.078125 139.03125 C 383.878906 138.730469 383.660156 138.429688 383.449219 138.140625 C 383.261719 137.878906 383.058594 137.628906 382.851562 137.378906 C 382.808594 137.328125 382.761719 137.269531 382.710938 137.21875 C 382.648438 137.140625 382.578125 137.058594 382.511719 136.980469 C 382.449219 136.898438 382.378906 136.828125 382.320312 136.761719 C 382.230469 136.660156 382.140625 136.558594 382.050781 136.460938 C 381.808594 136.191406 381.558594 135.929688 381.300781 135.671875 C 381.039062 135.410156 380.78125 135.148438 380.5 134.910156 C 380.289062 134.71875 380.078125 134.53125 379.859375 134.351562 C 379.769531 134.269531 379.679688 134.191406 379.589844 134.128906 C 379.410156 133.980469 379.230469 133.828125 379.039062 133.691406 C 378.878906 133.570312 378.71875 133.449219 378.558594 133.328125 C 378.398438 133.21875 378.25 133.109375 378.089844 133 C 377.789062 132.789062 377.480469 132.589844 377.160156 132.398438 C 376.679688 132.089844 376.179688 131.808594 375.671875 131.550781 C 375.5 131.449219 375.320312 131.371094 375.148438 131.28125 C 374.460938 130.949219 373.761719 130.648438 373.039062 130.378906 C 372.339844 130.128906 371.628906 129.910156 370.898438 129.71875 C 370.601562 129.640625 370.300781 129.570312 370 129.511719 C 369.839844 129.46875 369.679688 129.441406 369.519531 129.410156 C 369.289062 129.359375 369.050781 129.320312 368.820312 129.289062 C 368.691406 129.261719 368.550781 129.238281 368.421875 129.230469 C 368.128906 129.179688 367.828125 129.148438 367.539062 129.121094 C 367.25 129.089844 366.960938 129.058594 366.671875 129.050781 C 366.648438 129.039062 366.628906 129.039062 366.601562 129.050781 L 366.589844 129.050781 C 366.480469 129.039062 366.359375 129.03125 366.25 129.03125 C 365.910156 129.011719 365.558594 129 365.210938 129 L 108.929688 129 C 96.359375 129 86.179688 139.191406 86.179688 151.761719 L 86.179688 447.570312 C 89.210938 450.25 92.300781 452.871094 95.449219 455.410156 C 95.890625 455.761719 96.320312 456.109375 96.761719 456.449219 C 99.429688 458.578125 102.148438 460.660156 104.910156 462.671875 C 103.738281 460.511719 103.078125 458.039062 103.078125 455.410156 L 103.078125 455.398438 C 103.078125 450.378906 105.488281 445.921875 109.21875 443.121094 C 111.789062 441.191406 114.980469 440.050781 118.441406 440.050781 C 126.929688 440.050781 133.800781 446.921875 133.800781 455.398438 C 133.800781 463.878906 126.929688 470.761719 118.441406 470.761719 C 117.75 470.761719 117.070312 470.710938 116.398438 470.621094 C 119.269531 472.488281 122.191406 474.308594 125.140625 476.058594 C 135.148438 482.03125 145.601562 487.328125 156.429688 491.910156 C 181.519531 502.511719 208.648438 509.230469 237.070312 511.300781 L 237.070312 512 L 256 512 C 304.28125 512 349.429688 498.628906 387.96875 475.398438 L 387.96875 151.761719 C 387.96875 151.410156 387.960938 151.070312 387.941406 150.730469 Z M 103.078125 363.25 C 103.078125 358.230469 105.488281 353.78125 109.210938 350.96875 C 111.78125 349.039062 114.980469 347.890625 118.441406 347.890625 C 126.929688 347.890625 133.800781 354.769531 133.800781 363.25 C 133.800781 371.730469 126.929688 378.601562 118.441406 378.601562 C 114.980469 378.601562 111.789062 377.460938 109.21875 375.53125 C 105.488281 372.730469 103.078125 368.269531 103.078125 363.25 Z M 103.078125 271.089844 C 103.078125 266.070312 105.488281 261.609375 109.21875 258.808594 C 111.789062 256.878906 114.980469 255.738281 118.441406 255.738281 C 126.929688 255.738281 133.800781 262.609375 133.800781 271.089844 C 133.800781 279.570312 126.929688 286.449219 118.441406 286.449219 C 114.980469 286.449219 111.78125 285.300781 109.210938 283.371094 C 105.488281 280.558594 103.078125 276.109375 103.078125 271.089844 Z M 103.078125 178.941406 C 103.078125 173.910156 105.488281 169.449219 109.21875 166.648438 C 111.789062 164.71875 114.980469 163.578125 118.441406 163.578125 C 126.929688 163.578125 133.800781 170.449219 133.800781 178.941406 C 133.800781 187.421875 126.929688 194.289062 118.441406 194.289062 C 114.980469 194.289062 111.78125 193.140625 109.210938 191.210938 C 105.488281 188.410156 103.078125 183.960938 103.078125 178.941406 Z M 103.078125 178.941406 " style=" stroke:none;fill-rule:nonzero;fill:rgb(39.607843%,69.803922%,100%);fill-opacity:1;" />
<path d="M 118.441406 157.21875 C 111.011719 157.21875 104.449219 160.949219 100.539062 166.648438 C 98.128906 170.148438 96.730469 174.378906 96.730469 178.941406 C 96.730469 183.5 98.128906 187.71875 100.53125 191.210938 C 104.441406 196.910156 111 200.648438 118.441406 200.648438 C 130.441406 200.648438 140.160156 190.929688 140.160156 178.941406 C 140.160156 166.941406 130.441406 157.21875 118.441406 157.21875 Z M 118.441406 194.289062 C 114.980469 194.289062 111.78125 193.140625 109.210938 191.210938 C 105.488281 188.410156 103.078125 183.960938 103.078125 178.941406 C 103.078125 173.910156 105.488281 169.449219 109.21875 166.648438 C 111.789062 164.71875 114.980469 163.578125 118.441406 163.578125 C 126.929688 163.578125 133.800781 170.449219 133.800781 178.941406 C 133.800781 187.421875 126.929688 194.289062 118.441406 194.289062 Z M 118.441406 194.289062 " style=" stroke:none;fill-rule:nonzero;fill:rgb(100%,100%,100%);fill-opacity:1;" />
<path d="M 387.96875 151.761719 L 387.96875 475.398438 C 349.429688 498.628906 304.28125 512 256 512 L 237.070312 512 L 237.070312 511.300781 C 208.648438 509.230469 181.519531 502.511719 156.429688 491.910156 C 156.320312 491.03125 156.269531 490.140625 156.269531 489.238281 L 156.269531 151.761719 C 156.269531 139.191406 166.449219 129 179.019531 129 L 365.210938 129 C 365.558594 129 365.910156 129.011719 366.25 129.03125 C 366.359375 129.03125 366.480469 129.039062 366.589844 129.050781 L 366.601562 129.050781 C 366.628906 129.039062 366.648438 129.039062 366.671875 129.050781 C 366.960938 129.058594 367.25 129.089844 367.539062 129.121094 C 367.828125 129.148438 368.128906 129.179688 368.421875 129.230469 C 368.550781 129.238281 368.691406 129.261719 368.820312 129.289062 C 369.050781 129.320312 369.289062 129.359375 369.519531 129.410156 C 369.679688 129.441406 369.839844 129.46875 370 129.511719 C 370.300781 129.570312 370.601562 129.640625 370.898438 129.71875 C 371.628906 129.910156 372.339844 130.128906 373.039062 130.378906 C 373.761719 130.648438 374.460938 130.949219 375.148438 131.28125 C 375.320312 131.371094 375.5 131.449219 375.671875 131.550781 C 376.179688 131.808594 376.679688 132.089844 377.160156 132.398438 C 377.480469 132.589844 377.789062 132.789062 378.089844 133 C 378.25 133.109375 378.398438 133.21875 378.558594 133.328125 C 378.71875 133.449219 378.878906 133.570312 379.039062 133.691406 C 379.230469 133.828125 379.410156 133.980469 379.589844 134.128906 C 379.679688 134.191406 379.769531 134.269531 379.859375 134.351562 C 380.078125 134.53125 380.289062 134.71875 380.5 134.910156 C 380.78125 135.148438 381.039062 135.410156 381.300781 135.671875 C 381.558594 135.929688 381.808594 136.191406 382.050781 136.460938 C 382.140625 136.558594 382.230469 136.660156 382.320312 136.761719 C 382.378906 136.828125 382.449219 136.898438 382.511719 136.980469 C 382.578125 137.058594 382.648438 137.140625 382.710938 137.21875 C 382.761719 137.269531 382.808594 137.328125 382.851562 137.378906 C 383.058594 137.628906 383.261719 137.878906 383.449219 138.140625 C 383.660156 138.429688 383.878906 138.730469 384.078125 139.03125 C 384.488281 139.640625 384.871094 140.269531 385.21875 140.910156 C 385.398438 141.230469 385.558594 141.558594 385.71875 141.890625 C 385.878906 142.21875 386.039062 142.558594 386.179688 142.898438 C 386.289062 143.171875 386.398438 143.441406 386.511719 143.71875 C 386.519531 143.75 386.53125 143.78125 386.539062 143.808594 C 386.558594 143.851562 386.570312 143.890625 386.589844 143.941406 C 386.628906 144.050781 386.671875 144.171875 386.710938 144.289062 C 386.808594 144.558594 386.898438 144.828125 386.980469 145.109375 C 387.070312 145.410156 387.160156 145.71875 387.238281 146.03125 C 387.390625 146.609375 387.519531 147.191406 387.621094 147.789062 C 387.648438 147.898438 387.671875 148.019531 387.679688 148.148438 C 387.699219 148.210938 387.710938 148.28125 387.71875 148.359375 C 387.769531 148.710938 387.820312 149.070312 387.851562 149.429688 C 387.878906 149.71875 387.910156 150.011719 387.921875 150.300781 C 387.929688 150.320312 387.929688 150.351562 387.921875 150.371094 L 387.921875 150.378906 C 387.941406 150.5 387.941406 150.609375 387.941406 150.730469 C 387.960938 151.070312 387.96875 151.410156 387.96875 151.761719 Z M 387.96875 151.761719 " style=" stroke:none;fill-rule:nonzero;fill:rgb(5.882353%,60.784314%,90.980392%);fill-opacity:1;" />
<path d="M 387.96875 151.761719 L 387.96875 475.398438 C 349.429688 498.628906 304.28125 512 256 512 L 237.070312 512 L 237.070312 129 L 365.210938 129 C 365.558594 129 365.910156 129.011719 366.25 129.03125 C 366.359375 129.03125 366.480469 129.039062 366.589844 129.050781 L 366.601562 129.050781 C 366.628906 129.039062 366.648438 129.039062 366.671875 129.050781 C 366.960938 129.058594 367.25 129.089844 367.539062 129.121094 C 367.828125 129.148438 368.128906 129.179688 368.421875 129.230469 C 368.550781 129.238281 368.691406 129.261719 368.820312 129.289062 C 369.050781 129.320312 369.289062 129.359375 369.519531 129.410156 C 369.679688 129.441406 369.839844 129.46875 370 129.511719 C 370.300781 129.570312 370.601562 129.640625 370.898438 129.71875 C 371.628906 129.898438 372.339844 130.128906 373.039062 130.378906 C 373.761719 130.648438 374.460938 130.949219 375.148438 131.28125 C 375.320312 131.371094 375.5 131.449219 375.671875 131.550781 C 376.179688 131.808594 376.679688 132.089844 377.160156 132.398438 C 377.480469 132.589844 377.789062 132.789062 378.089844 133 C 378.25 133.109375 378.398438 133.21875 378.558594 133.328125 C 378.71875 133.449219 378.878906 133.570312 379.039062 133.691406 C 379.230469 133.828125 379.410156 133.980469 379.589844 134.128906 C 379.679688 134.191406 379.769531 134.269531 379.859375 134.351562 C 380.078125 134.53125 380.289062 134.71875 380.5 134.910156 C 380.78125 135.148438 381.039062 135.410156 381.300781 135.671875 C 381.558594 135.929688 381.808594 136.191406 382.050781 136.460938 C 382.140625 136.558594 382.230469 136.660156 382.320312 136.761719 C 382.378906 136.828125 382.449219 136.898438 382.511719 136.980469 C 382.578125 137.058594 382.648438 137.140625 382.710938 137.21875 C 382.761719 137.269531 382.808594 137.328125 382.851562 137.378906 C 383.058594 137.628906 383.261719 137.878906 383.449219 138.140625 C 383.660156 138.429688 383.878906 138.730469 384.078125 139.03125 C 384.488281 139.640625 384.871094 140.269531 385.21875 140.910156 C 385.398438 141.230469 385.558594 141.558594 385.71875 141.890625 C 385.878906 142.21875 386.039062 142.558594 386.179688 142.898438 C 386.289062 143.171875 386.398438 143.441406 386.511719 143.71875 C 386.519531 143.75 386.53125 143.78125 386.539062 143.808594 C 386.558594 143.851562 386.570312 143.890625 386.589844 143.941406 C 386.628906 144.050781 386.671875 144.171875 386.710938 144.289062 C 386.808594 144.558594 386.898438 144.828125 386.980469 145.109375 C 387.070312 145.410156 387.160156 145.71875 387.238281 146.03125 C 387.390625 146.609375 387.519531 147.191406 387.621094 147.789062 C 387.648438 147.898438 387.671875 148.019531 387.679688 148.148438 C 387.699219 148.210938 387.710938 148.28125 387.71875 148.359375 C 387.769531 148.710938 387.820312 149.070312 387.851562 149.429688 C 387.878906 149.71875 387.910156 150.011719 387.921875 150.300781 C 387.929688 150.320312 387.929688 150.351562 387.921875 150.371094 L 387.921875 150.378906 C 387.941406 150.5 387.941406 150.609375 387.941406 150.730469 C 387.960938 151.070312 387.96875 151.410156 387.96875 151.761719 Z M 387.96875 151.761719 " style=" stroke:none;fill-rule:nonzero;fill:rgb(0%,40%,90.980392%);fill-opacity:1;" />
<path d="M 317.875 208.972656 L 317.875 291.820312 C 317.875 295.605469 314.8125 298.667969 311.027344 298.667969 L 163.117188 298.667969 C 159.332031 298.667969 156.269531 295.605469 156.269531 291.820312 L 156.269531 208.972656 C 156.269531 205.1875 159.332031 202.125 163.117188 202.125 L 311.027344 202.125 C 314.8125 202.125 317.875 205.1875 317.875 208.972656 Z M 317.875 208.972656 " style=" stroke:none;fill-rule:nonzero;fill:rgb(100%,100%,100%);fill-opacity:1;" />
<path d="M 317.875 208.972656 L 317.875 291.820312 C 317.875 295.605469 314.8125 298.667969 311.027344 298.667969 L 237.074219 298.667969 L 237.074219 202.125 L 311.027344 202.125 C 314.8125 202.125 317.875 205.1875 317.875 208.972656 Z M 317.875 208.972656 " style=" stroke:none;fill-rule:nonzero;fill:rgb(56.078431%,78.823529%,96.862745%);fill-opacity:1;" />
<path d="M 122.757812 178.9375 C 122.757812 182.328125 121.382812 185.398438 119.160156 187.617188 C 116.933594 189.839844 113.871094 191.214844 110.472656 191.214844 L 58.140625 191.214844 C 51.351562 191.214844 45.855469 185.71875 45.855469 178.9375 C 45.855469 175.539062 47.226562 172.472656 49.453125 170.25 C 51.675781 168.023438 54.742188 166.652344 58.140625 166.652344 L 110.472656 166.652344 C 117.261719 166.652344 122.757812 172.148438 122.757812 178.9375 Z M 122.757812 178.9375 " style=" stroke:none;fill-rule:nonzero;fill:rgb(27.843137%,30.980392%,43.529412%);fill-opacity:1;" />
<path d="M 122.757812 178.9375 C 122.757812 182.328125 121.382812 185.398438 119.160156 187.617188 C 116.933594 189.839844 113.871094 191.214844 110.472656 191.214844 L 58.140625 191.214844 C 51.351562 191.214844 45.855469 185.71875 45.855469 178.9375 Z M 122.757812 178.9375 " style=" stroke:none;fill-rule:nonzero;fill:rgb(19.607843%,23.137255%,35.294118%);fill-opacity:1;" />
<path d="M 118.441406 249.371094 C 111.011719 249.371094 104.441406 253.109375 100.539062 258.808594 C 98.128906 262.308594 96.730469 266.539062 96.730469 271.089844 C 96.730469 275.640625 98.128906 279.871094 100.539062 283.371094 C 104.441406 289.070312 111.011719 292.808594 118.441406 292.808594 C 130.441406 292.808594 140.160156 283.078125 140.160156 271.089844 C 140.160156 259.101562 130.441406 249.371094 118.441406 249.371094 Z M 118.441406 286.449219 C 114.980469 286.449219 111.78125 285.300781 109.210938 283.371094 C 105.488281 280.558594 103.078125 276.109375 103.078125 271.089844 C 103.078125 266.070312 105.488281 261.609375 109.21875 258.808594 C 111.789062 256.878906 114.980469 255.738281 118.441406 255.738281 C 126.929688 255.738281 133.800781 262.609375 133.800781 271.089844 C 133.800781 279.570312 126.929688 286.449219 118.441406 286.449219 Z M 118.441406 286.449219 " style=" stroke:none;fill-rule:nonzero;fill:rgb(100%,100%,100%);fill-opacity:1;" />
<path d="M 122.757812 271.09375 C 122.757812 274.484375 121.382812 277.554688 119.160156 279.773438 C 116.933594 281.996094 113.871094 283.367188 110.472656 283.367188 L 58.140625 283.367188 C 51.351562 283.367188 45.855469 277.871094 45.855469 271.09375 C 45.855469 267.695312 47.226562 264.628906 49.453125 262.40625 C 51.675781 260.179688 54.742188 258.808594 58.140625 258.808594 L 110.472656 258.808594 C 117.261719 258.808594 122.757812 264.304688 122.757812 271.09375 Z M 122.757812 271.09375 " style=" stroke:none;fill-rule:nonzero;fill:rgb(27.843137%,30.980392%,43.529412%);fill-opacity:1;" />
<path d="M 122.757812 271.09375 C 122.757812 274.484375 121.382812 277.554688 119.160156 279.773438 C 116.933594 281.996094 113.871094 283.367188 110.472656 283.367188 L 58.140625 283.367188 C 51.351562 283.367188 45.855469 277.871094 45.855469 271.09375 Z M 122.757812 271.09375 " style=" stroke:none;fill-rule:nonzero;fill:rgb(19.607843%,23.137255%,35.294118%);fill-opacity:1;" />
<path d="M 118.441406 341.53125 C 111.011719 341.53125 104.441406 345.269531 100.539062 350.96875 C 98.128906 354.46875 96.730469 358.699219 96.730469 363.25 C 96.730469 367.800781 98.128906 372.03125 100.539062 375.53125 C 104.449219 381.230469 111.011719 384.960938 118.441406 384.960938 C 130.441406 384.960938 140.160156 375.238281 140.160156 363.25 C 140.160156 351.261719 130.441406 341.53125 118.441406 341.53125 Z M 118.441406 378.601562 C 114.980469 378.601562 111.789062 377.460938 109.21875 375.53125 C 105.488281 372.730469 103.078125 368.269531 103.078125 363.25 C 103.078125 358.230469 105.488281 353.78125 109.210938 350.96875 C 111.78125 349.039062 114.980469 347.890625 118.441406 347.890625 C 126.929688 347.890625 133.800781 354.769531 133.800781 363.25 C 133.800781 371.730469 126.929688 378.601562 118.441406 378.601562 Z M 118.441406 378.601562 " style=" stroke:none;fill-rule:nonzero;fill:rgb(100%,100%,100%);fill-opacity:1;" />
<path d="M 122.757812 363.25 C 122.757812 366.640625 121.382812 369.710938 119.160156 371.929688 C 116.933594 374.152344 113.871094 375.527344 110.472656 375.527344 L 58.140625 375.527344 C 51.351562 375.527344 45.855469 370.03125 45.855469 363.25 C 45.855469 359.851562 47.226562 356.785156 49.453125 354.5625 C 51.675781 352.335938 54.742188 350.964844 58.140625 350.964844 L 110.472656 350.964844 C 117.261719 350.964844 122.757812 356.460938 122.757812 363.25 Z M 122.757812 363.25 " style=" stroke:none;fill-rule:nonzero;fill:rgb(27.843137%,30.980392%,43.529412%);fill-opacity:1;" />
<path d="M 122.757812 363.25 C 122.757812 366.640625 121.382812 369.710938 119.160156 371.929688 C 116.933594 374.152344 113.871094 375.527344 110.472656 375.527344 L 58.140625 375.527344 C 51.351562 375.527344 45.855469 370.03125 45.855469 363.25 Z M 122.757812 363.25 " style=" stroke:none;fill-rule:nonzero;fill:rgb(19.607843%,23.137255%,35.294118%);fill-opacity:1;" />
<path d="M 118.441406 433.691406 C 111.011719 433.691406 104.449219 437.421875 100.539062 443.121094 C 98.128906 446.609375 96.730469 450.839844 96.730469 455.398438 L 96.730469 455.410156 C 96.730469 455.761719 96.738281 456.101562 96.761719 456.449219 C 99.429688 458.578125 102.148438 460.660156 104.910156 462.671875 C 103.738281 460.511719 103.078125 458.039062 103.078125 455.410156 L 103.078125 455.398438 C 103.078125 450.378906 105.488281 445.921875 109.21875 443.121094 C 111.789062 441.191406 114.980469 440.050781 118.441406 440.050781 C 126.929688 440.050781 133.800781 446.921875 133.800781 455.398438 C 133.800781 463.878906 126.929688 470.761719 118.441406 470.761719 C 117.75 470.761719 117.070312 470.710938 116.398438 470.621094 C 119.269531 472.488281 122.191406 474.308594 125.140625 476.058594 C 133.859375 473.238281 140.160156 465.050781 140.160156 455.398438 C 140.160156 443.410156 130.441406 433.691406 118.441406 433.691406 Z M 118.441406 433.691406 " style=" stroke:none;fill-rule:nonzero;fill:rgb(100%,100%,100%);fill-opacity:1;" />
<path d="M 111.878906 467.601562 C 114.710938 467.28125 117.238281 466 119.160156 464.089844 C 121.378906 461.871094 122.761719 458.800781 122.761719 455.410156 C 122.761719 448.621094 117.261719 443.121094 110.46875 443.121094 L 81.289062 443.121094 C 82.898438 444.621094 84.53125 446.101562 86.179688 447.570312 C 89.210938 450.25 92.300781 452.871094 95.449219 455.410156 C 95.890625 455.761719 96.320312 456.109375 96.761719 456.449219 C 99.429688 458.578125 102.148438 460.660156 104.910156 462.671875 Z M 111.878906 467.601562 " style=" stroke:none;fill-rule:nonzero;fill:rgb(27.843137%,30.980392%,43.529412%);fill-opacity:1;" />
<path d="M 111.878906 467.601562 C 114.710938 467.28125 117.238281 466 119.160156 464.089844 C 121.378906 461.871094 122.761719 458.800781 122.761719 455.410156 L 95.449219 455.410156 C 95.890625 455.761719 96.320312 456.109375 96.761719 456.449219 C 99.429688 458.578125 102.148438 460.660156 104.910156 462.671875 Z M 111.878906 467.601562 " style=" stroke:none;fill-rule:nonzero;fill:rgb(19.607843%,23.137255%,35.294118%);fill-opacity:1;" />
<path d="M 168.054688 216.199219 L 226.675781 216.199219 L 226.675781 230.855469 L 168.054688 230.855469 Z M 168.054688 216.199219 " style=" stroke:none;fill-rule:nonzero;fill:rgb(19.607843%,23.137255%,35.294118%);fill-opacity:1;" />
<path d="M 168.054688 243.070312 L 299.019531 243.070312 L 299.019531 257.722656 L 168.054688 257.722656 Z M 168.054688 243.070312 " style=" stroke:none;fill-rule:nonzero;fill:rgb(19.607843%,23.137255%,35.294118%);fill-opacity:1;" />
<path d="M 168.054688 269.902344 L 299.019531 269.902344 L 299.019531 284.558594 L 168.054688 284.558594 Z M 168.054688 269.902344 " style=" stroke:none;fill-rule:nonzero;fill:rgb(19.607843%,23.137255%,35.294118%);fill-opacity:1;" />
<path d="M 466.148438 195.289062 L 466.148438 402.230469 C 458.589844 413.070312 450.210938 423.308594 441.109375 432.839844 C 437.070312 437.050781 432.898438 441.140625 428.589844 445.078125 C 424.53125 448.78125 420.359375 452.351562 416.070312 455.789062 L 416.070312 195.289062 C 416.070312 187.96875 417.441406 180.710938 420.109375 173.898438 L 420.320312 173.371094 L 428.589844 152.238281 L 436.441406 132.179688 C 437.269531 130.058594 439.191406 129 441.109375 129 C 443.03125 129 444.941406 130.058594 445.78125 132.179688 L 461.898438 173.371094 L 462.109375 173.898438 C 464.78125 180.710938 466.148438 187.96875 466.148438 195.289062 Z M 466.148438 195.289062 " style=" stroke:none;fill-rule:nonzero;fill:rgb(39.607843%,69.803922%,100%);fill-opacity:1;" />
<path d="M 466.148438 195.289062 L 466.148438 402.230469 C 458.589844 413.070312 450.210938 423.308594 441.109375 432.839844 C 437.070312 437.050781 432.898438 441.140625 428.589844 445.078125 L 428.589844 152.238281 L 436.441406 132.179688 C 437.269531 130.058594 439.191406 129 441.109375 129 C 443.03125 129 444.941406 130.058594 445.78125 132.179688 L 461.898438 173.371094 L 462.109375 173.898438 C 464.78125 180.710938 466.148438 187.96875 466.148438 195.289062 Z M 466.148438 195.289062 " style=" stroke:none;fill-rule:nonzero;fill:rgb(5.882353%,60.784314%,90.980392%);fill-opacity:1;" />
<path d="M 466.148438 195.289062 L 466.148438 402.230469 C 458.589844 413.070312 450.210938 423.308594 441.109375 432.839844 L 441.109375 129 C 443.03125 129 444.941406 130.058594 445.78125 132.179688 L 461.898438 173.371094 L 462.109375 173.898438 C 464.78125 180.710938 466.148438 187.96875 466.148438 195.289062 Z M 466.148438 195.289062 " style=" stroke:none;fill-rule:nonzero;fill:rgb(0%,40%,90.980392%);fill-opacity:1;" />
<path d="M 466.144531 195.289062 C 466.144531 187.972656 464.773438 180.714844 462.109375 173.902344 L 461.902344 173.371094 L 445.777344 132.179688 C 444.941406 130.058594 443.027344 129 441.109375 129 C 439.1875 129 437.273438 130.058594 436.441406 132.179688 L 428.585938 152.242188 L 420.316406 173.371094 L 420.105469 173.902344 C 417.441406 180.714844 416.070312 187.972656 416.070312 195.289062 Z M 466.144531 195.289062 " style=" stroke:none;fill-rule:nonzero;fill:rgb(100%,75.294118%,64.313725%);fill-opacity:1;" />
<path d="M 466.144531 195.289062 C 466.144531 187.972656 464.773438 180.714844 462.109375 173.902344 L 445.777344 132.179688 C 444.941406 130.058594 443.027344 129 441.109375 129 C 439.1875 129 437.273438 130.058594 436.441406 132.179688 L 428.585938 152.242188 L 428.585938 195.289062 Z M 466.144531 195.289062 " style=" stroke:none;fill-rule:nonzero;fill:rgb(100%,65.882353%,47.843137%);fill-opacity:1;" />
<path d="M 466.144531 195.289062 C 466.144531 187.972656 464.773438 180.714844 462.109375 173.902344 L 445.777344 132.179688 C 444.941406 130.058594 443.027344 129 441.109375 129 L 441.109375 195.289062 Z M 466.144531 195.289062 " style=" stroke:none;fill-rule:nonzero;fill:rgb(89.019608%,51.372549%,35.294118%);fill-opacity:1;" />
<path d="M 461.902344 173.371094 L 445.777344 132.179688 C 444.941406 130.058594 443.027344 129 441.109375 129 C 439.1875 129 437.273438 130.058594 436.441406 132.179688 L 428.585938 152.242188 L 420.316406 173.371094 Z M 461.902344 173.371094 " style=" stroke:none;fill-rule:nonzero;fill:rgb(45.490196%,49.411765%,61.960784%);fill-opacity:1;" />
<path d="M 461.902344 173.371094 L 445.777344 132.179688 C 444.941406 130.058594 443.027344 129 441.109375 129 C 439.1875 129 437.273438 130.058594 436.441406 132.179688 L 428.585938 152.242188 L 428.585938 173.371094 Z M 461.902344 173.371094 " style=" stroke:none;fill-rule:nonzero;fill:rgb(27.843137%,30.980392%,43.529412%);fill-opacity:1;" />
<path d="M 461.902344 173.371094 L 445.777344 132.179688 C 444.941406 130.058594 443.027344 129 441.109375 129 L 441.109375 173.371094 Z M 461.902344 173.371094 " style=" stroke:none;fill-rule:nonzero;fill:rgb(19.607843%,23.137255%,35.294118%);fill-opacity:1;" />
</g>
</svg>