<svg xmlns="http://www.w3.org/2000/svg" height="512pt" version="1.1" viewBox="0 0 512 512" width="512pt">
<g id="surface1">
<path d="M 512 256 C 512 397.386719 397.386719 512 256 512 C 114.613281 512 0 397.386719 0 256 C 0 114.613281 114.613281 0 256 0 C 397.386719 0 512 114.613281 512 256 Z M 512 256 " style=" stroke:none;fill-rule:nonzero;fill:rgb(70.980392%,88.627451%,21.568627%);fill-opacity:1;" />
<path d="M 512 256 C 512 282.050781 508.109375 307.191406 500.871094 330.871094 C 468.859375 435.71875 371.328125 512 256 512 C 151.441406 512 61.511719 449.300781 21.769531 359.449219 C 7.769531 327.820312 0 292.820312 0 256 C 0 209.78125 12.25 166.429688 33.679688 129 C 77.800781 206.070312 160.839844 258 256 258 C 351.160156 258 434.210938 206.070312 478.320312 129 C 499.75 166.429688 512 209.78125 512 256 Z M 512 256 " style=" stroke:none;fill-rule:nonzero;fill:rgb(58.431373%,83.921569%,0%);fill-opacity:1;" />
<path d="M 30.742188 377.703125 C 37.898438 390.921875 46.171875 403.441406 55.460938 415.128906 C 102.359375 474.148438 174.761719 512 256 512 C 337.238281 512 409.640625 474.148438 456.539062 415.128906 C 465.828125 403.441406 474.101562 390.921875 481.257812 377.703125 Z M 30.742188 377.703125 " style=" stroke:none;fill-rule:nonzero;fill:rgb(52.156863%,68.627451%,7.058824%);fill-opacity:1;" />
<path d="M 274.238281 119.910156 L 274.238281 215.300781 L 224.421875 215.300781 L 224.421875 119.910156 C 224.421875 106.148438 235.570312 95 249.328125 95 L 249.378906 95 C 263.109375 95.03125 274.238281 106.171875 274.238281 119.910156 Z M 274.238281 119.910156 " style=" stroke:none;fill-rule:nonzero;fill:rgb(45.490196%,49.411765%,61.960784%);fill-opacity:1;" />
<path d="M 274.238281 119.910156 L 274.238281 215.300781 L 237.058594 215.300781 L 237.058594 116.941406 C 237.058594 107.648438 241.988281 99.511719 249.378906 95 C 263.109375 95.03125 274.238281 106.171875 274.238281 119.910156 Z M 274.238281 119.910156 " style=" stroke:none;fill-rule:nonzero;fill:rgb(27.843137%,30.980392%,43.529412%);fill-opacity:1;" />
<path d="M 274.234375 119.910156 L 274.234375 215.300781 L 249.328125 215.300781 L 249.328125 95 C 263.085938 95 274.234375 106.152344 274.234375 119.910156 Z M 274.234375 119.910156 " style=" stroke:none;fill-rule:nonzero;fill:rgb(19.607843%,23.137255%,35.294118%);fill-opacity:1;" />
<path d="M 390.09375 393.957031 L 108.566406 393.957031 C 105.253906 393.957031 102.566406 391.269531 102.566406 387.957031 C 102.566406 384.644531 105.253906 381.957031 108.566406 381.957031 L 390.09375 381.957031 C 393.40625 381.957031 396.09375 384.644531 396.09375 387.957031 C 396.09375 391.269531 393.40625 393.957031 390.09375 393.957031 Z M 390.09375 393.957031 " style=" stroke:none;fill-rule:nonzero;fill:rgb(19.607843%,23.137255%,35.294118%);fill-opacity:1;" />
<path d="M 370.238281 456.921875 C 370.210938 457.328125 370.171875 457.738281 370.140625 458.160156 C 370.070312 458.929688 369.988281 459.699219 369.910156 460.46875 C 369.851562 461.078125 369.78125 461.699219 369.699219 462.308594 C 369.601562 463.199219 369.480469 464.089844 369.359375 464.96875 C 369.238281 465.839844 369.109375 466.71875 368.96875 467.589844 C 368.890625 468.109375 368.808594 468.628906 368.71875 469.148438 C 368.488281 470.511719 368.238281 471.859375 367.980469 473.21875 C 367.730469 474.441406 367.480469 475.660156 367.199219 476.878906 C 366.359375 480.628906 365.371094 484.359375 364.21875 488.058594 C 363.578125 488.359375 362.941406 488.660156 362.300781 488.949219 L 315.191406 393.960938 L 309.230469 381.960938 L 252.839844 268.261719 L 249.328125 261.179688 L 245.820312 268.261719 L 189.429688 381.960938 L 183.46875 393.960938 L 138.949219 483.730469 C 136.691406 482.570312 134.449219 481.371094 132.230469 480.140625 C 130.429688 472.890625 129.191406 465.539062 128.519531 458.160156 C 128.488281 457.738281 128.449219 457.328125 128.421875 456.921875 C 128.089844 452.980469 127.929688 449.019531 127.929688 445.078125 C 127.929688 427.710938 131.039062 410.390625 137.210938 393.960938 C 138.738281 389.898438 140.449219 385.898438 142.351562 381.960938 C 142.53125 381.578125 142.71875 381.210938 142.898438 380.828125 L 202.859375 259.179688 L 224.421875 215.429688 L 224.421875 215.421875 L 224.480469 215.300781 L 225.921875 212.390625 L 233.46875 197.070312 L 265.191406 197.070312 L 274.179688 215.300781 L 274.238281 215.421875 L 274.238281 215.429688 L 295.808594 259.191406 L 355.761719 380.828125 C 355.941406 381.210938 356.128906 381.578125 356.308594 381.960938 C 358.210938 385.898438 359.921875 389.898438 361.441406 393.960938 C 369.011719 414.121094 371.980469 435.628906 370.238281 456.921875 Z M 370.238281 456.921875 " style=" stroke:none;fill-rule:nonzero;fill:rgb(100%,100%,100%);fill-opacity:1;" />
<path d="M 379.46875 480.308594 C 374.488281 483.058594 369.398438 485.648438 364.21875 488.058594 C 364.429688 487.378906 364.640625 486.699219 364.839844 486.019531 C 365 485.46875 365.160156 484.921875 365.308594 484.371094 C 366.710938 479.398438 367.828125 474.378906 368.691406 469.328125 C 368.789062 468.75 368.890625 468.171875 368.96875 467.589844 C 369.25 465.828125 369.488281 464.070312 369.699219 462.308594 C 369.78125 461.699219 369.851562 461.078125 369.910156 460.46875 C 369.988281 459.699219 370.070312 458.929688 370.140625 458.160156 C 370.171875 457.738281 370.210938 457.328125 370.238281 456.921875 L 373.578125 463.640625 C 376.230469 468.980469 378.199219 474.578125 379.46875 480.308594 Z M 379.46875 480.308594 " style=" stroke:none;fill-rule:nonzero;fill:rgb(19.607843%,23.137255%,35.294118%);fill-opacity:1;" />
<path d="M 132.230469 480.140625 C 128.441406 478.039062 124.699219 475.851562 121.03125 473.570312 C 122.128906 470.191406 123.480469 466.871094 125.078125 463.640625 L 128.421875 456.921875 C 128.449219 457.328125 128.488281 457.738281 128.519531 458.160156 C 129.191406 465.539062 130.429688 472.890625 132.230469 480.140625 Z M 132.230469 480.140625 " style=" stroke:none;fill-rule:nonzero;fill:rgb(19.607843%,23.137255%,35.294118%);fill-opacity:1;" />
<path d="M 370.238281 456.921875 C 370.210938 457.328125 370.171875 457.738281 370.140625 458.160156 C 370.070312 458.929688 369.988281 459.699219 369.910156 460.46875 C 369.851562 461.078125 369.78125 461.699219 369.699219 462.308594 C 369.601562 463.199219 369.480469 464.089844 369.359375 464.96875 C 369.238281 465.839844 369.109375 466.71875 368.96875 467.589844 C 368.890625 468.109375 368.808594 468.628906 368.71875 469.148438 C 368.488281 470.511719 368.238281 471.859375 367.980469 473.21875 C 367.730469 474.441406 367.480469 475.660156 367.199219 476.878906 C 366.359375 480.628906 365.371094 484.359375 364.21875 488.058594 C 363.578125 488.359375 362.941406 488.660156 362.300781 488.949219 L 315.191406 393.960938 L 309.230469 381.960938 L 252.839844 268.261719 L 249.328125 261.179688 L 245.820312 268.261719 L 189.429688 381.960938 L 183.46875 393.960938 L 138.949219 483.730469 C 136.691406 482.570312 134.449219 481.371094 132.230469 480.140625 C 130.429688 472.890625 129.191406 465.539062 128.519531 458.160156 C 128.488281 457.738281 128.449219 457.328125 128.421875 456.921875 L 159.628906 393.960938 L 161.78125 389.621094 L 165.558594 381.960938 L 221.601562 268.261719 L 226.019531 259.28125 C 226.019531 259.28125 226.019531 259.28125 226.019531 259.269531 L 237.03125 236.949219 L 242.71875 225.410156 L 247.699219 215.300781 L 249.070312 212.519531 L 249.328125 213.039062 L 249.589844 212.519531 L 250.960938 215.300781 L 255.941406 225.410156 L 261.628906 236.949219 L 277.058594 268.261719 L 333.101562 381.960938 L 336.878906 389.621094 L 339.03125 393.960938 Z M 370.238281 456.921875 " style=" stroke:none;fill-rule:nonzero;fill:rgb(81.568627%,96.470588%,100%);fill-opacity:1;" />
<path d="M 295.898438 185.589844 L 295.898438 257.808594 C 295.898438 263.578125 291.210938 268.261719 285.441406 268.261719 L 213.21875 268.261719 C 207.449219 268.261719 202.769531 263.578125 202.769531 257.808594 L 202.769531 185.589844 C 202.769531 179.820312 207.449219 175.128906 213.21875 175.128906 L 285.441406 175.128906 C 291.210938 175.128906 295.898438 179.820312 295.898438 185.589844 Z M 295.898438 185.589844 " style=" stroke:none;fill-rule:nonzero;fill:rgb(45.490196%,49.411765%,61.960784%);fill-opacity:1;" />
<path d="M 295.898438 185.589844 L 295.898438 257.808594 C 295.898438 263.578125 291.210938 268.261719 285.441406 268.261719 L 236.371094 268.261719 C 230.601562 268.261719 225.921875 263.578125 225.921875 257.808594 L 225.921875 185.589844 C 225.921875 179.820312 230.601562 175.128906 236.371094 175.128906 L 285.441406 175.128906 C 291.210938 175.128906 295.898438 179.820312 295.898438 185.589844 Z M 295.898438 185.589844 " style=" stroke:none;fill-rule:nonzero;fill:rgb(27.843137%,30.980392%,43.529412%);fill-opacity:1;" />
<path d="M 295.894531 185.59375 L 295.894531 257.8125 C 295.894531 263.582031 291.214844 268.261719 285.441406 268.261719 L 249.332031 268.261719 L 249.332031 175.132812 L 285.441406 175.132812 C 291.214844 175.136719 295.894531 179.816406 295.894531 185.59375 Z M 295.894531 185.59375 " style=" stroke:none;fill-rule:nonzero;fill:rgb(19.607843%,23.137255%,35.294118%);fill-opacity:1;" />
<path d="M 263.316406 357.25 L 263.316406 418.664062 C 263.316406 426.386719 257.054688 432.648438 249.332031 432.648438 C 241.609375 432.648438 235.347656 426.386719 235.347656 418.664062 L 235.347656 357.25 C 235.347656 349.527344 241.609375 343.265625 249.332031 343.265625 C 253.191406 343.265625 256.6875 344.835938 259.21875 347.363281 C 261.746094 349.894531 263.316406 353.390625 263.316406 357.25 Z M 263.316406 357.25 " style=" stroke:none;fill-rule:nonzero;fill:rgb(27.843137%,30.980392%,43.529412%);fill-opacity:1;" />
<path d="M 274.238281 215.304688 C 274.238281 229.0625 263.085938 240.214844 249.328125 240.214844 C 235.570312 240.214844 224.421875 229.0625 224.421875 215.304688 C 224.421875 201.546875 235.570312 190.394531 249.328125 190.394531 C 263.085938 190.394531 274.238281 201.546875 274.238281 215.304688 Z M 274.238281 215.304688 " style=" stroke:none;fill-rule:nonzero;fill:rgb(100%,62.352941%,0%);fill-opacity:1;" />
<path d="M 274.234375 215.300781 C 274.234375 229.0625 263.085938 240.214844 249.328125 240.214844 L 249.328125 190.398438 C 263.085938 190.398438 274.234375 201.546875 274.234375 215.300781 Z M 274.234375 215.300781 " style=" stroke:none;fill-rule:nonzero;fill:rgb(92.941176%,46.666667%,10.588235%);fill-opacity:1;" />
<path d="M 261.414062 215.304688 C 261.414062 208.632812 256.003906 203.226562 249.332031 203.226562 C 242.660156 203.226562 237.25 208.632812 237.25 215.304688 C 237.25 221.976562 242.660156 227.382812 249.332031 227.382812 C 256.003906 227.382812 261.414062 221.976562 261.414062 215.304688 Z M 261.414062 215.304688 " style=" stroke:none;fill-rule:nonzero;fill:rgb(100%,91.372549%,33.333333%);fill-opacity:1;" />
<path d="M 261.414062 215.300781 C 261.414062 221.972656 256 227.382812 249.332031 227.382812 L 249.332031 203.226562 C 256 203.226562 261.414062 208.632812 261.414062 215.300781 Z M 261.414062 215.300781 " style=" stroke:none;fill-rule:nonzero;fill:rgb(100%,62.352941%,0%);fill-opacity:1;" />
<path d="M 259.21875 347.363281 C 261.746094 349.894531 263.316406 353.390625 263.316406 357.25 L 263.316406 418.664062 C 263.316406 426.386719 257.050781 432.648438 249.328125 432.648438 L 249.328125 343.265625 C 253.191406 343.265625 256.6875 344.835938 259.21875 347.363281 Z M 259.21875 347.363281 " style=" stroke:none;fill-rule:nonzero;fill:rgb(19.607843%,23.137255%,35.294118%);fill-opacity:1;" />
</g>
</svg>