<svg xmlns="http://www.w3.org/2000/svg" height="512pt" version="1.1" viewBox="0 0 512 512" width="512pt">
<g id="surface1">
<path d="M 512 256 C 512 397.386719 397.386719 512 256 512 C 114.613281 512 0 397.386719 0 256 C 0 114.613281 114.613281 0 256 0 C 397.386719 0 512 114.613281 512 256 Z M 512 256 " style=" stroke:none;fill-rule:nonzero;fill:rgb(39.607843%,69.803922%,100%);fill-opacity:1;" />
<path d="M 512 256 C 512 282.050781 508.109375 307.191406 500.871094 330.871094 C 468.859375 435.71875 371.328125 512 256 512 C 151.441406 512 61.511719 449.300781 21.769531 359.449219 C 7.769531 327.820312 0 292.820312 0 256 C 0 209.78125 12.25 166.429688 33.679688 129 C 77.800781 206.070312 160.839844 258 256 258 C 351.160156 258 434.210938 206.070312 478.320312 129 C 499.75 166.429688 512 209.78125 512 256 Z M 512 256 " style=" stroke:none;fill-rule:nonzero;fill:rgb(5.882353%,60.784314%,90.980392%);fill-opacity:1;" />
<path d="M 30.742188 377.703125 C 37.898438 390.921875 46.171875 403.441406 55.460938 415.128906 C 102.359375 474.148438 174.761719 512 256 512 C 337.238281 512 409.640625 474.148438 456.539062 415.128906 C 465.828125 403.441406 474.101562 390.921875 481.257812 377.703125 Z M 30.742188 377.703125 " style=" stroke:none;fill-rule:nonzero;fill:rgb(0%,40%,90.980392%);fill-opacity:1;" />
<path d="M 301.839844 434.3125 C 301.839844 459.628906 281.316406 480.148438 256 480.148438 C 230.683594 480.148438 210.160156 459.628906 210.160156 434.3125 C 210.160156 408.996094 230.683594 388.472656 256 388.472656 C 281.316406 388.472656 301.839844 408.996094 301.839844 434.3125 Z M 301.839844 434.3125 " style=" stroke:none;fill-rule:nonzero;fill:rgb(92.941176%,46.666667%,10.588235%);fill-opacity:1;" />
<path d="M 301.839844 434.3125 C 301.839844 459.628906 281.316406 480.148438 256 480.148438 L 256 388.472656 C 281.316406 388.472656 301.839844 408.996094 301.839844 434.3125 Z M 301.839844 434.3125 " style=" stroke:none;fill-rule:nonzero;fill:rgb(65.098039%,22.352941%,7.843137%);fill-opacity:1;" />
<path d="M 357.648438 452.425781 L 154.351562 452.425781 C 142.746094 452.425781 135.566406 439.785156 141.511719 429.820312 L 156.949219 403.9375 L 156.949219 293.417969 C 156.949219 248.765625 186.496094 211.023438 227.105469 198.652344 L 227.105469 173.726562 C 227.105469 165.746094 230.339844 158.523438 235.566406 153.289062 C 240.925781 147.929688 248.382812 144.664062 256.601562 144.832031 C 272.421875 145.15625 284.898438 158.484375 284.898438 174.308594 L 284.898438 198.652344 C 325.503906 211.019531 355.050781 248.761719 355.050781 293.417969 L 355.050781 403.9375 L 370.488281 429.816406 C 376.433594 439.785156 369.253906 452.425781 357.648438 452.425781 Z M 357.648438 452.425781 " style=" stroke:none;fill-rule:nonzero;fill:rgb(100%,91.372549%,33.333333%);fill-opacity:1;" />
<path d="M 207.511719 403.9375 L 207.511719 293.417969 C 207.511719 248.765625 200.941406 211.023438 241.554688 198.652344 L 241.554688 173.726562 C 241.554688 165.746094 244.097656 151.601562 256 144.828125 C 271.960938 144.828125 284.902344 157.765625 284.902344 173.726562 L 284.902344 198.652344 C 325.503906 211.023438 355.050781 248.765625 355.050781 293.417969 L 355.050781 403.9375 L 370.488281 429.820312 C 376.433594 439.78125 369.253906 452.425781 357.652344 452.425781 L 178.589844 452.425781 Z M 207.511719 403.9375 " style=" stroke:none;fill-rule:nonzero;fill:rgb(100%,81.960784%,7.058824%);fill-opacity:1;" />
<path d="M 357.648438 452.425781 L 256 452.425781 L 256 144.828125 C 271.960938 144.828125 284.902344 157.769531 284.902344 173.730469 L 284.902344 198.652344 C 325.503906 211.023438 355.050781 248.765625 355.050781 293.421875 L 355.050781 403.941406 L 370.488281 429.820312 C 376.433594 439.785156 369.253906 452.425781 357.648438 452.425781 Z M 357.648438 452.425781 " style=" stroke:none;fill-rule:nonzero;fill:rgb(100%,62.352941%,0%);fill-opacity:1;" />
<path d="M 67.398438 356.996094 C 64.199219 356.996094 61 355.777344 58.558594 353.335938 C 4.886719 299.664062 4.886719 212.335938 58.558594 158.664062 C 63.441406 153.785156 71.355469 153.785156 76.234375 158.664062 C 81.117188 163.546875 81.117188 171.460938 76.234375 176.34375 C 32.3125 220.265625 32.3125 291.734375 76.234375 335.65625 C 81.117188 340.539062 81.117188 348.453125 76.234375 353.335938 C 73.796875 355.773438 70.597656 356.996094 67.398438 356.996094 Z M 134.515625 289.878906 C 131.316406 289.878906 128.117188 288.660156 125.675781 286.21875 C 109.011719 269.554688 109.011719 242.445312 125.675781 225.78125 C 130.554688 220.898438 138.472656 220.898438 143.351562 225.78125 C 148.234375 230.660156 148.234375 238.578125 143.351562 243.460938 C 136.4375 250.375 136.4375 261.625 143.351562 268.539062 C 148.234375 273.421875 148.234375 281.339844 143.351562 286.21875 C 140.910156 288.660156 137.710938 289.878906 134.515625 289.878906 Z M 134.515625 289.878906 " style=" stroke:none;fill-rule:nonzero;fill:rgb(100%,100%,100%);fill-opacity:1;" />
<path d="M 102.078125 322.3125 C 98.878906 322.3125 95.679688 321.09375 93.238281 318.652344 C 58.691406 284.105469 58.691406 227.894531 93.238281 193.347656 C 98.121094 188.464844 106.035156 188.464844 110.917969 193.347656 C 115.796875 198.226562 115.796875 206.140625 110.917969 211.023438 C 86.117188 235.824219 86.117188 276.175781 110.917969 300.976562 C 115.796875 305.855469 115.796875 313.769531 110.917969 318.652344 C 108.476562 321.09375 105.277344 322.3125 102.078125 322.3125 Z M 102.078125 322.3125 " style=" stroke:none;fill-rule:nonzero;fill:rgb(100%,100%,100%);fill-opacity:1;" />
<path d="M 134.515625 289.878906 C 131.316406 289.878906 128.117188 288.660156 125.675781 286.21875 C 109.011719 269.554688 109.011719 242.445312 125.675781 225.78125 C 130.554688 220.898438 138.472656 220.898438 143.351562 225.78125 C 148.234375 230.660156 148.234375 238.578125 143.351562 243.460938 C 136.4375 250.375 136.4375 261.625 143.351562 268.539062 C 148.234375 273.421875 148.234375 281.339844 143.351562 286.21875 C 140.910156 288.660156 137.710938 289.878906 134.515625 289.878906 Z M 134.515625 289.878906 " style=" stroke:none;fill-rule:nonzero;fill:rgb(100%,100%,100%);fill-opacity:1;" />
<path d="M 444.601562 356.996094 C 441.402344 356.996094 438.203125 355.773438 435.765625 353.335938 C 430.882812 348.453125 430.882812 340.539062 435.765625 335.65625 C 479.6875 291.734375 479.6875 220.265625 435.765625 176.34375 C 430.882812 171.460938 430.882812 163.546875 435.765625 158.664062 C 440.644531 153.785156 448.558594 153.785156 453.441406 158.664062 C 507.113281 212.335938 507.113281 299.664062 453.441406 353.335938 C 451 355.773438 447.800781 356.996094 444.601562 356.996094 Z M 377.484375 289.878906 C 374.285156 289.878906 371.089844 288.660156 368.648438 286.21875 C 363.765625 281.339844 363.765625 273.421875 368.648438 268.539062 C 375.5625 261.625 375.5625 250.375 368.648438 243.460938 C 363.765625 238.578125 363.765625 230.660156 368.648438 225.78125 C 373.53125 220.902344 381.445312 220.902344 386.324219 225.78125 C 402.988281 242.445312 402.988281 269.554688 386.324219 286.21875 C 383.886719 288.660156 380.6875 289.878906 377.484375 289.878906 Z M 377.484375 289.878906 " style=" stroke:none;fill-rule:nonzero;fill:rgb(100%,100%,100%);fill-opacity:1;" />
<path d="M 409.921875 322.3125 C 406.722656 322.3125 403.523438 321.09375 401.082031 318.652344 C 396.203125 313.769531 396.203125 305.855469 401.082031 300.976562 C 425.882812 276.175781 425.882812 235.824219 401.082031 211.023438 C 396.203125 206.140625 396.203125 198.226562 401.082031 193.347656 C 405.964844 188.464844 413.878906 188.464844 418.761719 193.347656 C 453.308594 227.894531 453.308594 284.105469 418.761719 318.652344 C 416.320312 321.09375 413.121094 322.3125 409.921875 322.3125 Z M 409.921875 322.3125 " style=" stroke:none;fill-rule:nonzero;fill:rgb(100%,100%,100%);fill-opacity:1;" />
<path d="M 377.484375 289.878906 C 374.285156 289.878906 371.089844 288.660156 368.648438 286.21875 C 363.765625 281.339844 363.765625 273.421875 368.648438 268.539062 C 375.5625 261.625 375.5625 250.375 368.648438 243.460938 C 363.765625 238.578125 363.765625 230.660156 368.648438 225.78125 C 373.53125 220.902344 381.445312 220.902344 386.324219 225.78125 C 402.988281 242.445312 402.988281 269.554688 386.324219 286.21875 C 383.886719 288.660156 380.6875 289.878906 377.484375 289.878906 Z M 377.484375 289.878906 " style=" stroke:none;fill-rule:nonzero;fill:rgb(100%,100%,100%);fill-opacity:1;" />
</g>
</svg>