<svg xmlns="http://www.w3.org/2000/svg" height="512pt" version="1.1" viewBox="0 0 512 512" width="512pt">
<g id="surface1">
<path d="M 512 256 C 512 397.386719 397.386719 512 256 512 C 114.613281 512 0 397.386719 0 256 C 0 114.613281 114.613281 0 256 0 C 397.386719 0 512 114.613281 512 256 Z M 512 256 " style=" stroke:none;fill-rule:nonzero;fill:rgb(100%,91.372549%,33.333333%);fill-opacity:1;" />
<path d="M 512 256 C 512 282.050781 508.109375 307.191406 500.871094 330.871094 C 468.859375 435.71875 371.328125 512 256 512 C 151.441406 512 61.511719 449.300781 21.769531 359.449219 C 7.769531 327.820312 0 292.820312 0 256 C 0 209.78125 12.25 166.429688 33.679688 129 C 77.800781 206.070312 160.839844 258 256 258 C 351.160156 258 434.210938 206.070312 478.320312 129 C 499.75 166.429688 512 209.78125 512 256 Z M 512 256 " style=" stroke:none;fill-rule:nonzero;fill:rgb(100%,81.960784%,7.058824%);fill-opacity:1;" />
<path d="M 30.742188 377.703125 C 37.898438 390.921875 46.171875 403.441406 55.460938 415.128906 C 102.359375 474.148438 174.761719 512 256 512 C 337.238281 512 409.640625 474.148438 456.539062 415.128906 C 465.828125 403.441406 474.101562 390.921875 481.257812 377.703125 Z M 30.742188 377.703125 " style=" stroke:none;fill-rule:nonzero;fill:rgb(100%,62.352941%,0%);fill-opacity:1;" />
<path d="M 351.808594 146.148438 L 351.808594 493.460938 C 322.21875 505.421875 289.878906 512 256.011719 512 L 256 512 C 238.828125 512 222.050781 510.308594 205.820312 507.078125 C 190.039062 503.949219 174.78125 499.359375 160.191406 493.460938 L 160.191406 146.148438 Z M 351.808594 146.148438 " style=" stroke:none;fill-rule:nonzero;fill:rgb(100%,100%,100%);fill-opacity:1;" />
<path d="M 351.808594 146.148438 L 351.808594 493.460938 C 322.21875 505.421875 289.878906 512 256.011719 512 L 256 512 C 238.828125 512 222.050781 510.308594 205.820312 507.078125 L 205.820312 146.148438 Z M 351.808594 146.148438 " style=" stroke:none;fill-rule:nonzero;fill:rgb(81.568627%,96.470588%,100%);fill-opacity:1;" />
<path d="M 351.808594 146.148438 L 351.808594 493.460938 C 322.21875 505.421875 289.878906 512 256.011719 512 L 256.011719 146.148438 Z M 351.808594 146.148438 " style=" stroke:none;fill-rule:nonzero;fill:rgb(56.078431%,78.823529%,96.862745%);fill-opacity:1;" />
<path d="M 351.808594 146.148438 L 351.808594 146.1875 C 351.757812 167.320312 308.890625 184.453125 256.011719 184.453125 C 237.613281 184.453125 220.417969 182.371094 205.816406 178.78125 C 178.78125 172.121094 160.636719 160.238281 160.199219 146.664062 C 160.1875 146.496094 160.1875 146.316406 160.1875 146.152344 C 160.1875 124.992188 203.097656 107.851562 256.011719 107.851562 C 308.929688 107.851562 351.808594 124.992188 351.808594 146.148438 Z M 351.808594 146.148438 " style=" stroke:none;fill-rule:nonzero;fill:rgb(56.078431%,78.823529%,96.862745%);fill-opacity:1;" />
<path d="M 351.808594 146.148438 L 351.808594 146.1875 C 351.757812 167.320312 308.890625 184.453125 256.011719 184.453125 C 237.613281 184.453125 220.417969 182.371094 205.816406 178.78125 L 205.816406 146.152344 L 351.808594 146.152344 Z M 351.808594 146.148438 " style=" stroke:none;fill-rule:nonzero;fill:rgb(5.882353%,60.784314%,90.980392%);fill-opacity:1;" />
<path d="M 351.808594 146.148438 L 351.808594 146.175781 C 351.808594 146.382812 351.796875 146.585938 351.785156 146.777344 L 351.746094 147.242188 C 350.320312 162.84375 318.230469 175.328125 278.824219 175.328125 C 268.019531 175.328125 257.78125 174.390625 248.554688 172.710938 C 223.625 168.167969 206.199219 158.171875 205.828125 146.535156 C 205.816406 146.421875 205.816406 146.277344 205.816406 146.148438 C 205.816406 130.035156 238.507812 116.972656 278.824219 116.972656 C 319.140625 116.972656 351.808594 130.035156 351.808594 146.148438 Z M 351.808594 146.148438 " style=" stroke:none;fill-rule:nonzero;fill:rgb(39.607843%,69.803922%,100%);fill-opacity:1;" />
<path d="M 300.191406 166.78125 C 281.179688 166.78125 264.574219 162.675781 255.613281 156.558594 L 255.613281 173.820312 C 262.90625 174.796875 270.707031 175.328125 278.824219 175.328125 C 318.230469 175.328125 350.320312 162.84375 351.746094 147.238281 C 350.335938 158.121094 327.804688 166.78125 300.191406 166.78125 Z M 300.191406 166.78125 " style=" stroke:none;fill-rule:nonzero;fill:rgb(0%,40%,90.980392%);fill-opacity:1;" />
<path d="M 351.8125 311.199219 L 351.8125 377.980469 C 351.8125 399.128906 308.921875 416.277344 256.007812 416.277344 C 237.605469 416.277344 220.414062 414.203125 205.816406 410.609375 C 178.441406 403.863281 160.191406 391.769531 160.191406 377.980469 L 160.191406 311.199219 C 160.191406 324.988281 178.441406 337.085938 205.816406 343.832031 C 220.414062 347.425781 237.605469 349.5 256.007812 349.5 C 308.921875 349.5 351.8125 332.347656 351.8125 311.199219 Z M 351.8125 311.199219 " style=" stroke:none;fill-rule:nonzero;fill:rgb(100%,20.392157%,27.058824%);fill-opacity:1;" />
<path d="M 351.8125 311.199219 L 351.8125 377.980469 C 351.8125 399.128906 308.921875 416.277344 256.007812 416.277344 C 237.605469 416.277344 220.414062 414.203125 205.816406 410.609375 L 205.816406 343.832031 C 220.414062 347.425781 237.605469 349.5 256.007812 349.5 C 308.921875 349.5 351.8125 332.347656 351.8125 311.199219 Z M 351.8125 311.199219 " style=" stroke:none;fill-rule:nonzero;fill:rgb(86.666667%,7.058824%,39.607843%);fill-opacity:1;" />
<path d="M 399.425781 388.6875 L 407.285156 434.472656 L 327.308594 362.722656 L 341.734375 338.21875 L 443.273438 373.351562 Z M 399.425781 388.6875 " style=" stroke:none;fill-rule:nonzero;fill:rgb(86.666667%,7.058824%,39.607843%);fill-opacity:1;" />
<path d="M 407.285156 434.472656 L 327.308594 362.722656 L 334.523438 350.46875 L 399.425781 388.6875 Z M 407.285156 434.472656 " style=" stroke:none;fill-rule:nonzero;fill:rgb(72.941176%,5.098039%,36.078431%);fill-opacity:1;" />
<path d="M 410.9375 311.175781 L 454.308594 327.8125 L 351.773438 359.910156 L 338.078125 334.988281 L 420.148438 265.648438 Z M 410.9375 311.175781 " style=" stroke:none;fill-rule:nonzero;fill:rgb(86.666667%,7.058824%,39.607843%);fill-opacity:1;" />
<path d="M 454.308594 327.8125 L 351.773438 359.910156 L 344.925781 347.449219 L 410.9375 311.175781 Z M 454.308594 327.8125 " style=" stroke:none;fill-rule:nonzero;fill:rgb(100%,20.392157%,27.058824%);fill-opacity:1;" />
<path d="M 351.8125 311.199219 L 351.8125 377.980469 C 351.8125 399.128906 308.921875 416.277344 256.007812 416.277344 L 256.007812 349.5 C 308.921875 349.5 351.8125 332.347656 351.8125 311.199219 Z M 351.8125 311.199219 " style=" stroke:none;fill-rule:nonzero;fill:rgb(72.941176%,5.098039%,36.078431%);fill-opacity:1;" />
</g>
</svg>