<svg xmlns="http://www.w3.org/2000/svg" height="512pt" version="1.1" viewBox="0 0 512 512" width="512pt">
<g id="surface1">
<path d="M 512 256 C 512 397.386719 397.386719 512 256 512 C 114.613281 512 0 397.386719 0 256 C 0 114.613281 114.613281 0 256 0 C 397.386719 0 512 114.613281 512 256 Z M 512 256 " style=" stroke:none;fill-rule:nonzero;fill:rgb(61.960784%,41.176471%,88.627451%);fill-opacity:1;" />
<path d="M 512 256 C 512 282.050781 508.109375 307.191406 500.871094 330.871094 C 468.859375 435.71875 371.328125 512 256 512 C 151.441406 512 61.511719 449.300781 21.769531 359.449219 C 7.769531 327.820312 0 292.820312 0 256 C 0 209.78125 12.25 166.429688 33.679688 129 C 77.800781 206.070312 160.839844 258 256 258 C 351.160156 258 434.210938 206.070312 478.320312 129 C 499.75 166.429688 512 209.78125 512 256 Z M 512 256 " style=" stroke:none;fill-rule:nonzero;fill:rgb(55.686275%,30.980392%,82.352941%);fill-opacity:1;" />
<path d="M 30.742188 377.703125 C 37.898438 390.921875 46.171875 403.441406 55.460938 415.128906 C 102.359375 474.148438 174.761719 512 256 512 C 337.238281 512 409.640625 474.148438 456.539062 415.128906 C 465.828125 403.441406 474.101562 390.921875 481.257812 377.703125 Z M 30.742188 377.703125 " style=" stroke:none;fill-rule:nonzero;fill:rgb(43.921569%,21.960784%,72.941176%);fill-opacity:1;" />
<path d="M 390.015625 212.320312 C 390.015625 215.292969 389.917969 218.238281 389.722656 221.15625 C 388.289062 243.296875 381.472656 263.96875 370.574219 281.871094 C 367.503906 286.929688 364.097656 291.761719 360.410156 296.34375 C 337.570312 324.683594 303.4375 343.53125 264.847656 346.046875 C 261.917969 346.238281 258.964844 346.335938 255.992188 346.335938 C 253.019531 346.335938 250.074219 346.238281 247.15625 346.046875 C 208.554688 343.542969 174.421875 324.691406 151.59375 296.34375 C 147.894531 291.761719 144.488281 286.933594 141.421875 281.871094 C 130.523438 263.96875 123.703125 243.296875 122.269531 221.15625 C 122.074219 218.238281 121.980469 215.292969 121.980469 212.320312 C 121.980469 209.351562 122.074219 206.394531 122.269531 203.46875 C 123.714844 181.335938 130.523438 160.664062 141.429688 142.753906 C 144.5 137.703125 147.894531 132.875 151.59375 128.28125 C 174.421875 99.941406 208.554688 81.09375 247.15625 78.582031 C 250.074219 78.386719 253.019531 78.289062 255.992188 78.289062 C 258.964844 78.289062 261.917969 78.386719 264.847656 78.582031 C 268.835938 78.835938 272.78125 79.269531 276.664062 79.882812 C 277.59375 80.015625 278.511719 80.171875 279.433594 80.332031 C 281.863281 80.757812 284.269531 81.253906 286.652344 81.808594 C 287.464844 82.003906 288.277344 82.199219 289.09375 82.410156 C 290.992188 82.890625 292.886719 83.417969 294.753906 83.984375 C 295.476562 84.195312 296.203125 84.425781 296.921875 84.65625 C 319.5625 91.910156 339.589844 105.019531 355.210938 122.203125 C 355.925781 123 356.632812 123.796875 357.332031 124.601562 C 357.332031 124.609375 357.34375 124.609375 357.34375 124.609375 C 358.039062 125.425781 358.730469 126.238281 359.410156 127.0625 C 359.746094 127.46875 360.074219 127.875 360.410156 128.28125 C 360.421875 128.300781 360.429688 128.308594 360.4375 128.316406 C 361.109375 129.15625 361.773438 129.996094 362.421875 130.847656 C 363.402344 132.128906 364.355469 133.429688 365.296875 134.738281 C 366.542969 136.488281 367.746094 138.269531 368.902344 140.082031 C 369.300781 140.710938 369.699219 141.335938 370.089844 141.972656 C 370.257812 142.230469 370.414062 142.496094 370.574219 142.753906 C 370.789062 143.105469 371 143.460938 371.203125 143.8125 C 371.414062 144.167969 371.628906 144.519531 371.832031 144.875 C 372.246094 145.582031 372.65625 146.289062 373.0625 147.015625 C 373.582031 147.960938 374.105469 148.90625 374.609375 149.863281 C 375.113281 150.816406 375.609375 151.78125 376.085938 152.753906 C 376.574219 153.726562 377.039062 154.699219 377.5 155.683594 C 378.191406 157.160156 378.855469 158.644531 379.484375 160.148438 C 385.179688 173.609375 388.734375 188.1875 389.726562 203.464844 C 389.917969 206.394531 390.015625 209.351562 390.015625 212.320312 Z M 390.015625 212.320312 " style=" stroke:none;fill-rule:nonzero;fill:rgb(100%,81.960784%,7.058824%);fill-opacity:1;" />
<path d="M 390.015625 212.320312 C 390.015625 215.292969 389.917969 218.238281 389.722656 221.15625 C 388.289062 243.296875 381.472656 263.96875 370.574219 281.871094 C 367.503906 286.929688 364.097656 291.761719 360.410156 296.34375 C 337.570312 324.683594 303.4375 343.53125 264.847656 346.046875 C 261.917969 346.238281 258.964844 346.335938 255.992188 346.335938 C 252.976562 344.53125 250.03125 342.632812 247.15625 340.632812 C 218.128906 320.5 196.269531 290.789062 186.152344 256.070312 C 182.894531 244.898438 180.851562 233.214844 180.1875 221.160156 C 180.011719 218.230469 179.933594 215.285156 179.933594 212.324219 C 179.933594 209.351562 180.011719 206.398438 180.1875 203.46875 C 180.851562 191.414062 182.894531 179.726562 186.152344 168.566406 C 196.277344 133.847656 218.144531 104.128906 247.15625 83.996094 C 250.03125 81.996094 252.976562 80.09375 255.992188 78.300781 L 255.992188 78.289062 C 258.964844 78.289062 261.917969 78.386719 264.847656 78.582031 C 268.835938 78.839844 272.78125 79.273438 276.664062 79.882812 C 277.59375 80.015625 278.511719 80.175781 279.433594 80.332031 C 281.863281 80.757812 284.269531 81.253906 286.652344 81.808594 C 287.464844 82.003906 288.277344 82.199219 289.09375 82.410156 C 290.992188 82.890625 292.886719 83.421875 294.753906 83.984375 C 295.476562 84.199219 296.203125 84.429688 296.921875 84.65625 C 319.5625 91.910156 339.589844 105.019531 355.210938 122.207031 C 355.925781 123.003906 356.632812 123.796875 357.332031 124.601562 C 357.332031 124.613281 357.34375 124.613281 357.34375 124.613281 C 358.039062 125.425781 358.730469 126.238281 359.410156 127.0625 C 359.746094 127.46875 360.074219 127.875 360.410156 128.28125 C 360.421875 128.300781 360.429688 128.308594 360.4375 128.316406 C 361.109375 129.15625 361.773438 130 362.421875 130.847656 C 363.402344 132.132812 364.355469 133.429688 365.296875 134.738281 C 366.542969 136.492188 367.746094 138.269531 368.902344 140.082031 C 369.300781 140.710938 369.699219 141.339844 370.089844 141.976562 C 370.257812 142.230469 370.414062 142.496094 370.574219 142.753906 C 370.789062 143.105469 371 143.460938 371.203125 143.8125 C 371.414062 144.167969 371.628906 144.523438 371.832031 144.875 C 372.246094 145.582031 372.65625 146.289062 373.0625 147.015625 C 373.582031 147.960938 374.105469 148.90625 374.609375 149.863281 C 375.113281 150.816406 375.609375 151.78125 376.085938 152.753906 C 376.574219 153.726562 377.039062 154.699219 377.5 155.683594 C 378.191406 157.160156 378.855469 158.644531 379.484375 160.148438 C 385.179688 173.613281 388.734375 188.1875 389.726562 203.464844 C 389.917969 206.394531 390.015625 209.351562 390.015625 212.320312 Z M 390.015625 212.320312 " style=" stroke:none;fill-rule:nonzero;fill:rgb(100%,62.352941%,0%);fill-opacity:1;" />
<path d="M 390.015625 212.320312 C 390.015625 215.292969 389.917969 218.238281 389.722656 221.15625 C 388.289062 243.296875 381.472656 263.96875 370.574219 281.871094 C 367.503906 286.929688 364.097656 291.761719 360.410156 296.34375 C 337.570312 324.683594 303.4375 343.53125 264.847656 346.046875 C 261.917969 346.238281 258.964844 346.335938 255.992188 346.335938 L 255.992188 78.289062 C 258.964844 78.289062 261.917969 78.386719 264.847656 78.582031 C 268.835938 78.839844 272.78125 79.273438 276.664062 79.882812 C 277.59375 80.015625 278.511719 80.175781 279.433594 80.332031 C 281.863281 80.757812 284.269531 81.253906 286.652344 81.808594 C 287.464844 82.003906 288.277344 82.199219 289.09375 82.410156 C 290.992188 82.890625 292.886719 83.421875 294.753906 83.984375 C 295.476562 84.199219 296.203125 84.429688 296.921875 84.65625 C 319.5625 91.910156 339.589844 105.019531 355.210938 122.207031 C 355.925781 123.003906 356.632812 123.796875 357.332031 124.601562 C 357.332031 124.613281 357.34375 124.613281 357.34375 124.613281 C 358.039062 125.425781 358.730469 126.238281 359.410156 127.0625 C 359.746094 127.46875 360.074219 127.875 360.410156 128.28125 C 360.421875 128.300781 360.429688 128.308594 360.4375 128.316406 C 361.109375 129.15625 361.773438 130 362.421875 130.847656 C 363.402344 132.132812 364.355469 133.429688 365.296875 134.738281 C 366.542969 136.492188 367.746094 138.269531 368.902344 140.082031 C 369.300781 140.710938 369.699219 141.339844 370.089844 141.976562 C 370.257812 142.230469 370.414062 142.496094 370.566406 142.753906 C 370.777344 143.105469 370.992188 143.460938 371.203125 143.8125 C 371.414062 144.167969 371.628906 144.523438 371.832031 144.875 C 372.246094 145.582031 372.65625 146.289062 373.0625 147.015625 C 373.582031 147.960938 374.105469 148.90625 374.609375 149.863281 C 375.113281 150.816406 375.609375 151.78125 376.085938 152.753906 C 376.574219 153.726562 377.039062 154.699219 377.5 155.683594 C 378.183594 157.160156 378.84375 158.644531 379.484375 160.148438 C 385.179688 173.613281 388.734375 188.1875 389.726562 203.464844 C 389.917969 206.394531 390.015625 209.351562 390.015625 212.320312 Z M 390.015625 212.320312 " style=" stroke:none;fill-rule:nonzero;fill:rgb(92.941176%,46.666667%,10.588235%);fill-opacity:1;" />
<path d="M 390.015625 212.320312 C 390.015625 209.351562 389.917969 206.394531 389.722656 203.46875 L 334.097656 203.46875 C 336.75 178.25 350.601562 156.324219 370.566406 142.753906 L 370.574219 142.753906 C 370.414062 142.496094 370.253906 142.230469 370.085938 141.976562 C 369.699219 141.339844 369.300781 140.710938 368.902344 140.082031 C 367.742188 138.269531 366.539062 136.492188 365.292969 134.742188 C 364.355469 133.433594 363.398438 132.132812 362.417969 130.847656 C 361.773438 130 361.109375 129.160156 360.4375 128.320312 C 360.425781 128.308594 360.417969 128.300781 360.410156 128.285156 C 335.871094 145.046875 319.03125 172.261719 316.335938 203.46875 L 264.847656 203.46875 L 264.847656 78.582031 C 261.917969 78.386719 258.964844 78.289062 255.992188 78.289062 C 253.019531 78.289062 250.074219 78.386719 247.15625 78.582031 L 247.15625 203.46875 L 195.667969 203.46875 C 194.597656 191.066406 191.296875 179.304688 186.148438 168.566406 C 178.375 152.28125 166.382812 138.386719 151.589844 128.285156 C 147.894531 132.875 144.496094 137.703125 141.429688 142.753906 C 161.402344 156.316406 175.253906 178.25 177.90625 203.46875 L 122.269531 203.46875 C 122.074219 206.398438 121.976562 209.351562 121.976562 212.324219 C 121.976562 215.296875 122.074219 218.238281 122.269531 221.160156 L 177.90625 221.160156 C 175.253906 246.386719 161.394531 268.3125 141.421875 281.871094 C 144.488281 286.933594 147.894531 291.761719 151.59375 296.34375 C 166.371094 286.242188 178.367188 272.347656 186.152344 256.070312 C 191.289062 245.332031 194.597656 233.558594 195.667969 221.160156 L 247.15625 221.160156 L 247.15625 346.046875 C 250.074219 346.238281 253.019531 346.335938 255.992188 346.335938 C 258.964844 346.335938 261.917969 346.238281 264.847656 346.046875 L 264.847656 221.160156 L 316.335938 221.160156 C 319.03125 252.363281 335.875 279.582031 360.410156 296.34375 C 364.097656 291.761719 367.503906 286.933594 370.574219 281.871094 C 350.601562 268.3125 336.75 246.378906 334.097656 221.160156 L 389.722656 221.160156 C 389.917969 218.238281 390.015625 215.292969 390.015625 212.320312 Z M 390.015625 212.320312 " style=" stroke:none;fill-rule:nonzero;fill:rgb(65.098039%,22.352941%,7.843137%);fill-opacity:1;" />
<path d="M 108.828125 281.730469 C 110.398438 286.359375 111.929688 291 113.398438 295.660156 C 115.039062 300.800781 116.621094 305.960938 118.140625 311.140625 C 134.949219 368.289062 144.980469 427.398438 147.519531 487.941406 C 180.460938 503.378906 217.21875 512 256 512 C 294.78125 512 331.539062 503.378906 364.480469 487.941406 C 367.011719 427.398438 377.039062 368.289062 393.859375 311.140625 C 395.378906 305.960938 396.949219 300.800781 398.589844 295.660156 C 400.070312 291 401.589844 286.359375 403.160156 281.730469 Z M 241.21875 482.441406 L 176.859375 482.441406 C 175.871094 461.761719 174.03125 441.140625 171.351562 420.601562 L 241.21875 420.601562 Z M 241.21875 391.039062 L 166.910156 391.039062 C 162.339844 364.25 156.359375 337.628906 148.941406 311.289062 L 241.21875 311.289062 Z M 335.140625 482.441406 L 270.78125 482.441406 L 270.78125 420.601562 L 340.648438 420.601562 C 337.96875 441.140625 336.121094 461.761719 335.140625 482.441406 Z M 345.089844 391.039062 L 270.78125 391.039062 L 270.78125 311.289062 L 363.050781 311.289062 C 355.628906 337.628906 349.660156 364.25 345.089844 391.039062 Z M 345.089844 391.039062 " style=" stroke:none;fill-rule:nonzero;fill:rgb(100%,100%,100%);fill-opacity:1;" />
<path d="M 256 281.730469 L 256 512 C 294.78125 512 331.539062 503.378906 364.480469 487.941406 C 367.011719 427.398438 377.039062 368.289062 393.859375 311.140625 C 395.378906 305.960938 396.949219 300.800781 398.589844 295.660156 C 400.070312 291 401.589844 286.359375 403.160156 281.730469 Z M 335.140625 482.441406 L 270.78125 482.441406 L 270.78125 420.601562 L 340.648438 420.601562 C 337.96875 441.140625 336.121094 461.761719 335.140625 482.441406 Z M 345.089844 391.039062 L 270.78125 391.039062 L 270.78125 311.289062 L 363.050781 311.289062 C 355.628906 337.628906 349.660156 364.25 345.089844 391.039062 Z M 345.089844 391.039062 " style=" stroke:none;fill-rule:nonzero;fill:rgb(81.568627%,96.470588%,100%);fill-opacity:1;" />
<path d="M 458.816406 295.660156 C 458.816406 299.933594 457.085938 303.808594 454.277344 306.605469 C 451.480469 309.410156 447.605469 311.140625 443.335938 311.140625 L 68.664062 311.140625 C 60.113281 311.140625 53.183594 304.214844 53.183594 295.660156 C 53.183594 291.390625 54.914062 287.515625 57.722656 284.71875 C 60.519531 281.910156 64.382812 280.183594 68.664062 280.183594 L 443.335938 280.183594 C 451.886719 280.183594 458.816406 287.109375 458.816406 295.660156 Z M 458.816406 295.660156 " style=" stroke:none;fill-rule:nonzero;fill:rgb(100%,100%,100%);fill-opacity:1;" />
<path d="M 458.816406 295.660156 C 458.816406 299.933594 457.085938 303.808594 454.277344 306.605469 C 451.480469 309.410156 447.605469 311.140625 443.335938 311.140625 L 68.664062 311.140625 C 60.113281 311.140625 53.183594 304.214844 53.183594 295.660156 Z M 458.816406 295.660156 " style=" stroke:none;fill-rule:nonzero;fill:rgb(81.568627%,96.470588%,100%);fill-opacity:1;" />
</g>
</svg>