<svg xmlns="http://www.w3.org/2000/svg" height="512pt" version="1.1" viewBox="0 0 512 512" width="512pt">
<g id="surface1">
<path d="M 512 256 C 512 397.386719 397.386719 512 256 512 C 114.613281 512 0 397.386719 0 256 C 0 114.613281 114.613281 0 256 0 C 397.386719 0 512 114.613281 512 256 Z M 512 256 " style=" stroke:none;fill-rule:nonzero;fill:rgb(70.980392%,88.627451%,21.568627%);fill-opacity:1;" />
<path d="M 512 256 C 512 282.050781 508.109375 307.191406 500.871094 330.871094 C 468.859375 435.71875 371.328125 512 256 512 C 151.441406 512 61.511719 449.300781 21.769531 359.449219 C 7.769531 327.820312 0 292.820312 0 256 C 0 209.78125 12.25 166.429688 33.679688 129 C 77.800781 206.070312 160.839844 258 256 258 C 351.160156 258 434.210938 206.070312 478.320312 129 C 499.75 166.429688 512 209.78125 512 256 Z M 512 256 " style=" stroke:none;fill-rule:nonzero;fill:rgb(58.431373%,83.921569%,0%);fill-opacity:1;" />
<path d="M 30.742188 377.703125 C 37.898438 390.921875 46.171875 403.441406 55.460938 415.128906 C 102.359375 474.148438 174.761719 512 256 512 C 337.238281 512 409.640625 474.148438 456.539062 415.128906 C 465.828125 403.441406 474.101562 390.921875 481.257812 377.703125 Z M 30.742188 377.703125 " style=" stroke:none;fill-rule:nonzero;fill:rgb(52.156863%,68.627451%,7.058824%);fill-opacity:1;" />
<path d="M 435.390625 269.328125 L 435.390625 438.640625 C 426.421875 447.449219 416.800781 455.601562 406.609375 463.03125 C 404.648438 464.460938 402.671875 465.859375 400.660156 467.230469 C 359.5 495.46875 309.679688 512 256 512 C 202.320312 512 152.5 495.46875 111.339844 467.230469 C 109.328125 465.859375 107.351562 464.460938 105.390625 463.03125 C 95.199219 455.601562 85.578125 447.449219 76.609375 438.640625 L 76.609375 269.328125 C 76.609375 257.25 86.398438 247.460938 98.480469 247.460938 L 413.519531 247.460938 C 425.601562 247.460938 435.390625 257.25 435.390625 269.328125 Z M 435.390625 269.328125 " style=" stroke:none;fill-rule:nonzero;fill:rgb(100%,100%,100%);fill-opacity:1;" />
<path d="M 435.390625 269.328125 L 435.390625 438.640625 C 426.421875 447.449219 416.800781 455.601562 406.609375 463.03125 C 404.648438 464.460938 402.671875 465.859375 400.660156 467.230469 C 359.5 495.46875 309.679688 512 256 512 L 256 247.460938 L 413.519531 247.460938 C 425.601562 247.460938 435.390625 257.25 435.390625 269.328125 Z M 435.390625 269.328125 " style=" stroke:none;fill-rule:nonzero;fill:rgb(81.568627%,96.470588%,100%);fill-opacity:1;" />
<path d="M 435.386719 269.328125 L 435.386719 289.539062 L 76.613281 289.539062 L 76.613281 269.328125 C 76.613281 257.253906 86.402344 247.457031 98.476562 247.457031 L 413.523438 247.457031 C 425.597656 247.457031 435.386719 257.253906 435.386719 269.328125 Z M 435.386719 269.328125 " style=" stroke:none;fill-rule:nonzero;fill:rgb(100%,20.392157%,27.058824%);fill-opacity:1;" />
<path d="M 435.386719 269.328125 L 435.386719 289.539062 L 256 289.539062 L 256 247.457031 L 413.523438 247.457031 C 425.597656 247.457031 435.386719 257.253906 435.386719 269.328125 Z M 435.386719 269.328125 " style=" stroke:none;fill-rule:nonzero;fill:rgb(86.666667%,7.058824%,39.607843%);fill-opacity:1;" />
<path d="M 158.652344 321.144531 L 107.675781 321.144531 C 104.832031 321.144531 102.523438 318.835938 102.523438 315.992188 L 102.523438 308.488281 C 102.523438 305.644531 104.832031 303.335938 107.675781 303.335938 L 158.652344 303.335938 C 161.496094 303.335938 163.804688 305.644531 163.804688 308.488281 L 163.804688 315.992188 C 163.804688 318.835938 161.496094 321.144531 158.652344 321.144531 Z M 158.652344 321.144531 " style=" stroke:none;fill-rule:nonzero;fill:rgb(39.607843%,69.803922%,100%);fill-opacity:1;" />
<path d="M 105.390625 388.113281 L 138.617188 388.113281 L 138.617188 421.339844 L 105.390625 421.339844 Z M 105.390625 388.113281 " style=" stroke:none;fill-rule:nonzero;fill:rgb(39.607843%,69.803922%,100%);fill-opacity:1;" />
<path d="M 150.054688 388.113281 L 183.28125 388.113281 L 183.28125 421.339844 L 150.054688 421.339844 Z M 150.054688 388.113281 " style=" stroke:none;fill-rule:nonzero;fill:rgb(39.607843%,69.803922%,100%);fill-opacity:1;" />
<path d="M 194.722656 388.113281 L 227.949219 388.113281 L 227.949219 421.339844 L 194.722656 421.339844 Z M 194.722656 388.113281 " style=" stroke:none;fill-rule:nonzero;fill:rgb(100%,20.392157%,27.058824%);fill-opacity:1;" />
<path d="M 239.386719 388.113281 L 272.613281 388.113281 L 272.613281 421.339844 L 239.386719 421.339844 Z M 239.386719 388.113281 " style=" stroke:none;fill-rule:nonzero;fill:rgb(39.607843%,69.803922%,100%);fill-opacity:1;" />
<path d="M 284.050781 388.113281 L 317.277344 388.113281 L 317.277344 421.339844 L 284.050781 421.339844 Z M 284.050781 388.113281 " style=" stroke:none;fill-rule:nonzero;fill:rgb(39.607843%,69.803922%,100%);fill-opacity:1;" />
<path d="M 328.71875 388.113281 L 361.945312 388.113281 L 361.945312 421.339844 L 328.71875 421.339844 Z M 328.71875 388.113281 " style=" stroke:none;fill-rule:nonzero;fill:rgb(39.607843%,69.803922%,100%);fill-opacity:1;" />
<path d="M 373.382812 388.113281 L 406.609375 388.113281 L 406.609375 421.339844 L 373.382812 421.339844 Z M 373.382812 388.113281 " style=" stroke:none;fill-rule:nonzero;fill:rgb(100%,20.392157%,27.058824%);fill-opacity:1;" />
<path d="M 138.621094 434 L 138.621094 467.230469 L 111.339844 467.230469 C 109.328125 465.859375 107.351562 464.460938 105.390625 463.03125 L 105.390625 434 Z M 138.621094 434 " style=" stroke:none;fill-rule:nonzero;fill:rgb(39.607843%,69.803922%,100%);fill-opacity:1;" />
<path d="M 150.054688 434 L 183.28125 434 L 183.28125 467.226562 L 150.054688 467.226562 Z M 150.054688 434 " style=" stroke:none;fill-rule:nonzero;fill:rgb(39.607843%,69.803922%,100%);fill-opacity:1;" />
<path d="M 194.722656 434 L 227.949219 434 L 227.949219 467.226562 L 194.722656 467.226562 Z M 194.722656 434 " style=" stroke:none;fill-rule:nonzero;fill:rgb(39.607843%,69.803922%,100%);fill-opacity:1;" />
<path d="M 239.386719 434 L 272.613281 434 L 272.613281 467.226562 L 239.386719 467.226562 Z M 239.386719 434 " style=" stroke:none;fill-rule:nonzero;fill:rgb(39.607843%,69.803922%,100%);fill-opacity:1;" />
<path d="M 284.050781 434 L 317.277344 434 L 317.277344 467.226562 L 284.050781 467.226562 Z M 284.050781 434 " style=" stroke:none;fill-rule:nonzero;fill:rgb(100%,20.392157%,27.058824%);fill-opacity:1;" />
<path d="M 328.71875 434 L 361.945312 434 L 361.945312 467.226562 L 328.71875 467.226562 Z M 328.71875 434 " style=" stroke:none;fill-rule:nonzero;fill:rgb(39.607843%,69.803922%,100%);fill-opacity:1;" />
<path d="M 406.609375 434 L 406.609375 463.03125 C 404.648438 464.460938 402.671875 465.859375 400.660156 467.230469 L 373.378906 467.230469 L 373.378906 434 Z M 406.609375 434 " style=" stroke:none;fill-rule:nonzero;fill:rgb(100%,20.392157%,27.058824%);fill-opacity:1;" />
<path d="M 105.390625 342.230469 L 138.617188 342.230469 L 138.617188 375.457031 L 105.390625 375.457031 Z M 105.390625 342.230469 " style=" stroke:none;fill-rule:nonzero;fill:rgb(39.607843%,69.803922%,100%);fill-opacity:1;" />
<path d="M 150.054688 342.230469 L 183.28125 342.230469 L 183.28125 375.457031 L 150.054688 375.457031 Z M 150.054688 342.230469 " style=" stroke:none;fill-rule:nonzero;fill:rgb(39.607843%,69.803922%,100%);fill-opacity:1;" />
<path d="M 194.722656 342.230469 L 227.949219 342.230469 L 227.949219 375.457031 L 194.722656 375.457031 Z M 194.722656 342.230469 " style=" stroke:none;fill-rule:nonzero;fill:rgb(39.607843%,69.803922%,100%);fill-opacity:1;" />
<path d="M 239.386719 342.230469 L 272.613281 342.230469 L 272.613281 375.457031 L 239.386719 375.457031 Z M 239.386719 342.230469 " style=" stroke:none;fill-rule:nonzero;fill:rgb(39.607843%,69.803922%,100%);fill-opacity:1;" />
<path d="M 284.050781 342.230469 L 317.277344 342.230469 L 317.277344 375.457031 L 284.050781 375.457031 Z M 284.050781 342.230469 " style=" stroke:none;fill-rule:nonzero;fill:rgb(39.607843%,69.803922%,100%);fill-opacity:1;" />
<path d="M 328.71875 342.230469 L 361.945312 342.230469 L 361.945312 375.457031 L 328.71875 375.457031 Z M 328.71875 342.230469 " style=" stroke:none;fill-rule:nonzero;fill:rgb(39.607843%,69.803922%,100%);fill-opacity:1;" />
<path d="M 373.382812 342.230469 L 406.609375 342.230469 L 406.609375 375.457031 L 373.382812 375.457031 Z M 373.382812 342.230469 " style=" stroke:none;fill-rule:nonzero;fill:rgb(100%,20.392157%,27.058824%);fill-opacity:1;" />
<path d="M 123.765625 270.332031 C 117.925781 270.332031 113.191406 265.597656 113.191406 259.757812 L 113.191406 231.09375 C 113.191406 225.253906 117.925781 220.519531 123.765625 220.519531 C 129.605469 220.519531 134.339844 225.253906 134.339844 231.09375 L 134.339844 259.757812 C 134.339844 265.597656 129.605469 270.332031 123.765625 270.332031 Z M 123.765625 270.332031 " style=" stroke:none;fill-rule:nonzero;fill:rgb(27.843137%,30.980392%,43.529412%);fill-opacity:1;" />
<path d="M 167.84375 270.332031 C 162.003906 270.332031 157.269531 265.597656 157.269531 259.757812 L 157.269531 231.09375 C 157.269531 225.253906 162.003906 220.519531 167.84375 220.519531 C 173.683594 220.519531 178.417969 225.253906 178.417969 231.09375 L 178.417969 259.757812 C 178.417969 265.597656 173.683594 270.332031 167.84375 270.332031 Z M 167.84375 270.332031 " style=" stroke:none;fill-rule:nonzero;fill:rgb(27.843137%,30.980392%,43.529412%);fill-opacity:1;" />
<path d="M 211.921875 270.332031 C 206.082031 270.332031 201.347656 265.597656 201.347656 259.757812 L 201.347656 231.09375 C 201.347656 225.253906 206.082031 220.519531 211.921875 220.519531 C 217.761719 220.519531 222.496094 225.253906 222.496094 231.09375 L 222.496094 259.757812 C 222.496094 265.597656 217.761719 270.332031 211.921875 270.332031 Z M 211.921875 270.332031 " style=" stroke:none;fill-rule:nonzero;fill:rgb(27.843137%,30.980392%,43.529412%);fill-opacity:1;" />
<path d="M 266.574219 231.089844 L 266.574219 259.761719 C 266.574219 265.597656 261.839844 270.328125 256 270.328125 C 250.160156 270.328125 245.425781 265.597656 245.425781 259.761719 L 245.425781 231.089844 C 245.425781 225.253906 250.160156 220.515625 256 220.515625 C 258.925781 220.515625 261.5625 221.703125 263.480469 223.609375 C 265.390625 225.527344 266.574219 228.175781 266.574219 231.089844 Z M 266.574219 231.089844 " style=" stroke:none;fill-rule:nonzero;fill:rgb(27.843137%,30.980392%,43.529412%);fill-opacity:1;" />
<path d="M 266.574219 231.089844 L 266.574219 259.761719 C 266.574219 265.597656 261.839844 270.328125 256 270.328125 L 256 220.515625 C 258.925781 220.515625 261.5625 221.703125 263.480469 223.609375 C 265.390625 225.527344 266.574219 228.175781 266.574219 231.089844 Z M 266.574219 231.089844 " style=" stroke:none;fill-rule:nonzero;fill:rgb(19.607843%,23.137255%,35.294118%);fill-opacity:1;" />
<path d="M 300.078125 270.332031 C 294.238281 270.332031 289.503906 265.597656 289.503906 259.757812 L 289.503906 231.09375 C 289.503906 225.253906 294.238281 220.519531 300.078125 220.519531 C 305.917969 220.519531 310.652344 225.253906 310.652344 231.09375 L 310.652344 259.757812 C 310.652344 265.597656 305.917969 270.332031 300.078125 270.332031 Z M 300.078125 270.332031 " style=" stroke:none;fill-rule:nonzero;fill:rgb(19.607843%,23.137255%,35.294118%);fill-opacity:1;" />
<path d="M 344.15625 270.332031 C 338.316406 270.332031 333.582031 265.597656 333.582031 259.757812 L 333.582031 231.09375 C 333.582031 225.253906 338.316406 220.519531 344.15625 220.519531 C 349.996094 220.519531 354.730469 225.253906 354.730469 231.09375 L 354.730469 259.757812 C 354.730469 265.597656 349.996094 270.332031 344.15625 270.332031 Z M 344.15625 270.332031 " style=" stroke:none;fill-rule:nonzero;fill:rgb(19.607843%,23.137255%,35.294118%);fill-opacity:1;" />
<path d="M 388.234375 270.332031 C 382.394531 270.332031 377.660156 265.597656 377.660156 259.757812 L 377.660156 231.09375 C 377.660156 225.253906 382.394531 220.519531 388.234375 220.519531 C 394.074219 220.519531 398.808594 225.253906 398.808594 231.09375 L 398.808594 259.757812 C 398.808594 265.597656 394.074219 270.332031 388.234375 270.332031 Z M 388.234375 270.332031 " style=" stroke:none;fill-rule:nonzero;fill:rgb(19.607843%,23.137255%,35.294118%);fill-opacity:1;" />
<path d="M 328.71875 123.226562 C 328.71875 163.371094 296.179688 195.90625 256.050781 195.933594 L 256 195.933594 C 215.84375 195.933594 183.28125 163.382812 183.28125 123.226562 C 183.28125 83.058594 215.84375 50.507812 256 50.507812 L 256.0625 50.507812 C 296.191406 50.546875 328.71875 83.082031 328.71875 123.226562 Z M 328.71875 123.226562 " style=" stroke:none;fill-rule:nonzero;fill:rgb(45.490196%,49.411765%,61.960784%);fill-opacity:1;" />
<path d="M 328.71875 123.226562 C 328.71875 163.371094 296.179688 195.90625 256.050781 195.933594 C 234.277344 179.164062 220.253906 152.835938 220.253906 123.226562 C 220.253906 93.601562 234.277344 67.265625 256.0625 50.507812 C 296.191406 50.546875 328.71875 83.082031 328.71875 123.226562 Z M 328.71875 123.226562 " style=" stroke:none;fill-rule:nonzero;fill:rgb(27.843137%,30.980392%,43.529412%);fill-opacity:1;" />
<path d="M 328.71875 123.226562 C 328.71875 163.382812 296.15625 195.933594 256 195.933594 L 256 50.507812 C 296.15625 50.507812 328.71875 83.058594 328.71875 123.226562 Z M 328.71875 123.226562 " style=" stroke:none;fill-rule:nonzero;fill:rgb(19.607843%,23.137255%,35.294118%);fill-opacity:1;" />
<path d="M 303.011719 123.226562 C 303.011719 149.183594 281.96875 170.234375 256 170.234375 C 245.75 170.234375 236.269531 166.964844 228.550781 161.394531 C 216.695312 152.847656 208.988281 138.933594 208.988281 123.226562 C 208.988281 107.492188 216.707031 93.566406 228.574219 85.03125 C 236.292969 79.476562 245.761719 76.203125 256 76.203125 C 281.96875 76.203125 303.011719 97.257812 303.011719 123.226562 Z M 303.011719 123.226562 " style=" stroke:none;fill-rule:nonzero;fill:rgb(100%,100%,100%);fill-opacity:1;" />
<path d="M 303.011719 123.226562 C 303.011719 149.183594 281.96875 170.234375 256 170.234375 C 245.75 170.234375 236.269531 166.964844 228.550781 161.394531 C 223.214844 149.773438 220.253906 136.847656 220.253906 123.226562 C 220.253906 109.59375 223.226562 96.664062 228.574219 85.03125 C 236.292969 79.476562 245.765625 76.203125 256 76.203125 C 281.96875 76.203125 303.011719 97.257812 303.011719 123.226562 Z M 303.011719 123.226562 " style=" stroke:none;fill-rule:nonzero;fill:rgb(81.568627%,96.470588%,100%);fill-opacity:1;" />
<path d="M 303.011719 123.226562 C 303.011719 149.183594 281.96875 170.234375 256 170.234375 L 256 76.203125 C 281.96875 76.203125 303.011719 97.257812 303.011719 123.226562 Z M 303.011719 123.226562 " style=" stroke:none;fill-rule:nonzero;fill:rgb(51.764706%,76.470588%,96.862745%);fill-opacity:1;" />
<path d="M 281.46875 126.71875 L 252.5 126.71875 L 252.5 87.546875 L 259.5 87.546875 L 259.5 119.71875 L 281.46875 119.71875 Z M 281.46875 126.71875 " style=" stroke:none;fill-rule:nonzero;fill:rgb(19.607843%,23.137255%,35.294118%);fill-opacity:1;" />
</g>
</svg>