<svg xmlns="http://www.w3.org/2000/svg" height="512pt" version="1.1" viewBox="0 0 512 512" width="512pt">
<g id="surface1">
<path d="M 512 256 C 512 397.386719 397.386719 512 256 512 C 114.613281 512 0 397.386719 0 256 C 0 114.613281 114.613281 0 256 0 C 397.386719 0 512 114.613281 512 256 Z M 512 256 " style=" stroke:none;fill-rule:nonzero;fill:rgb(40.784314%,98.823529%,87.45098%);fill-opacity:1;" />
<path d="M 512 256 C 512 282.050781 508.109375 307.191406 500.871094 330.871094 C 468.859375 435.71875 371.328125 512 256 512 C 151.441406 512 61.511719 449.300781 21.769531 359.449219 C 7.769531 327.820312 0 292.820312 0 256 C 0 209.78125 12.25 166.429688 33.679688 129 C 77.800781 206.070312 160.839844 258 256 258 C 351.160156 258 434.210938 206.070312 478.320312 129 C 499.75 166.429688 512 209.78125 512 256 Z M 512 256 " style=" stroke:none;fill-rule:nonzero;fill:rgb(6.27451%,88.627451%,76.862745%);fill-opacity:1;" />
<path d="M 30.742188 377.703125 C 37.898438 390.921875 46.171875 403.441406 55.460938 415.128906 C 102.359375 474.148438 174.761719 512 256 512 C 337.238281 512 409.640625 474.148438 456.539062 415.128906 C 465.828125 403.441406 474.101562 390.921875 481.257812 377.703125 Z M 30.742188 377.703125 " style=" stroke:none;fill-rule:nonzero;fill:rgb(10.196078%,72.941176%,62.352941%);fill-opacity:1;" />
<path d="M 339.140625 167.058594 L 256 167.058594 L 184.140625 176.949219 C 171.578125 176.949219 161.359375 187.171875 161.359375 199.730469 L 150.078125 460.921875 L 150.078125 489.121094 C 168.351562 497.441406 187.78125 503.671875 208.050781 507.511719 C 223.578125 510.460938 239.609375 512 256 512 C 293.78125 512 329.640625 503.820312 361.921875 489.121094 L 361.921875 189.839844 C 361.921875 177.28125 351.699219 167.058594 339.140625 167.058594 Z M 339.140625 167.058594 " style=" stroke:none;fill-rule:nonzero;fill:rgb(34.117647%,33.333333%,36.470588%);fill-opacity:1;" />
<path d="M 361.921875 189.839844 L 361.921875 489.121094 C 329.640625 503.820312 293.78125 512 256 512 C 239.609375 512 223.578125 510.460938 208.050781 507.511719 L 208.050781 167.058594 L 339.140625 167.058594 C 351.699219 167.058594 361.921875 177.28125 361.921875 189.839844 Z M 361.921875 189.839844 " style=" stroke:none;fill-rule:nonzero;fill:rgb(27.843137%,30.980392%,43.529412%);fill-opacity:1;" />
<path d="M 361.921875 189.839844 L 361.921875 489.121094 C 329.640625 503.820312 293.78125 512 256 512 L 256 167.058594 L 339.140625 167.058594 C 351.699219 167.058594 361.921875 177.28125 361.921875 189.839844 Z M 361.921875 189.839844 " style=" stroke:none;fill-rule:nonzero;fill:rgb(19.607843%,23.137255%,35.294118%);fill-opacity:1;" />
<path d="M 339.140625 167.058594 L 172.859375 167.058594 C 160.300781 167.058594 150.078125 177.28125 150.078125 189.839844 L 150.078125 460.921875 C 150.078125 473.480469 160.300781 483.699219 172.859375 483.699219 L 339.140625 483.699219 C 351.699219 483.699219 361.921875 473.480469 361.921875 460.921875 L 361.921875 189.839844 C 361.921875 177.28125 351.699219 167.058594 339.140625 167.058594 Z M 339.140625 167.058594 " style=" stroke:none;fill-rule:nonzero;fill:rgb(39.607843%,69.803922%,100%);fill-opacity:1;" />
<path d="M 361.917969 189.84375 L 361.917969 460.921875 C 361.917969 473.480469 351.703125 483.695312 339.144531 483.695312 L 208.054688 483.695312 L 208.054688 167.0625 L 339.144531 167.0625 C 351.703125 167.0625 361.917969 177.285156 361.917969 189.84375 Z M 361.917969 189.84375 " style=" stroke:none;fill-rule:nonzero;fill:rgb(5.882353%,60.784314%,90.980392%);fill-opacity:1;" />
<path d="M 361.917969 189.84375 L 361.917969 460.921875 C 361.917969 473.480469 351.703125 483.695312 339.144531 483.695312 L 255.996094 483.695312 L 255.996094 167.0625 L 339.144531 167.0625 C 351.703125 167.0625 361.917969 177.285156 361.917969 189.84375 Z M 361.917969 189.84375 " style=" stroke:none;fill-rule:nonzero;fill:rgb(0%,40%,90.980392%);fill-opacity:1;" />
<path d="M 345.578125 195.828125 L 345.578125 454.933594 C 345.578125 460.511719 341.054688 465.039062 335.46875 465.039062 L 176.53125 465.039062 C 170.945312 465.039062 166.421875 460.511719 166.421875 454.933594 L 166.421875 195.828125 C 166.421875 190.246094 170.945312 185.722656 176.53125 185.722656 L 335.46875 185.722656 C 341.054688 185.722656 345.578125 190.246094 345.578125 195.828125 Z M 345.578125 195.828125 " style=" stroke:none;fill-rule:nonzero;fill:rgb(100%,100%,100%);fill-opacity:1;" />
<path d="M 345.578125 195.828125 L 345.578125 454.933594 C 345.578125 460.511719 341.054688 465.039062 335.46875 465.039062 L 208.054688 465.039062 L 208.054688 185.722656 L 335.46875 185.722656 C 341.054688 185.722656 345.578125 190.246094 345.578125 195.828125 Z M 345.578125 195.828125 " style=" stroke:none;fill-rule:nonzero;fill:rgb(81.568627%,96.470588%,100%);fill-opacity:1;" />
<path d="M 345.578125 195.828125 L 345.578125 454.933594 C 345.578125 460.511719 341.054688 465.039062 335.46875 465.039062 L 256 465.039062 L 256 185.722656 L 335.46875 185.722656 C 341.054688 185.722656 345.578125 190.246094 345.578125 195.828125 Z M 345.578125 195.828125 " style=" stroke:none;fill-rule:nonzero;fill:rgb(56.078431%,78.823529%,96.862745%);fill-opacity:1;" />
<path d="M 190.738281 213.128906 L 321.257812 213.128906 L 321.257812 293.308594 L 190.738281 293.308594 Z M 190.738281 213.128906 " style=" stroke:none;fill-rule:nonzero;fill:rgb(34.117647%,33.333333%,36.470588%);fill-opacity:1;" />
<path d="M 208.054688 213.128906 L 321.257812 213.128906 L 321.257812 293.308594 L 208.054688 293.308594 Z M 208.054688 213.128906 " style=" stroke:none;fill-rule:nonzero;fill:rgb(27.843137%,30.980392%,43.529412%);fill-opacity:1;" />
<path d="M 225.363281 312.902344 L 225.363281 333.605469 C 225.363281 337.449219 222.246094 340.566406 218.402344 340.566406 L 197.699219 340.566406 C 193.855469 340.566406 190.738281 337.449219 190.738281 333.605469 L 190.738281 312.902344 C 190.738281 309.058594 193.855469 305.941406 197.699219 305.941406 L 218.402344 305.941406 C 222.246094 305.941406 225.363281 309.058594 225.363281 312.902344 Z M 225.363281 312.902344 " style=" stroke:none;fill-rule:nonzero;fill:rgb(34.117647%,33.333333%,36.470588%);fill-opacity:1;" />
<path d="M 273.308594 312.902344 L 273.308594 333.605469 C 273.308594 337.449219 270.195312 340.566406 266.351562 340.566406 L 245.648438 340.566406 C 241.804688 340.566406 238.691406 337.449219 238.691406 333.605469 L 238.691406 312.902344 C 238.691406 309.058594 241.804688 305.941406 245.648438 305.941406 L 266.351562 305.941406 C 270.195312 305.941406 273.308594 309.058594 273.308594 312.902344 Z M 273.308594 312.902344 " style=" stroke:none;fill-rule:nonzero;fill:rgb(27.843137%,30.980392%,43.529412%);fill-opacity:1;" />
<path d="M 314.296875 340.566406 L 293.59375 340.566406 C 289.75 340.566406 286.636719 337.449219 286.636719 333.605469 L 286.636719 312.902344 C 286.636719 309.058594 289.75 305.941406 293.59375 305.941406 L 314.296875 305.941406 C 318.140625 305.941406 321.257812 309.058594 321.257812 312.902344 L 321.257812 333.605469 C 321.257812 337.449219 318.140625 340.566406 314.296875 340.566406 Z M 314.296875 340.566406 " style=" stroke:none;fill-rule:nonzero;fill:rgb(19.607843%,23.137255%,35.294118%);fill-opacity:1;" />
<path d="M 225.363281 361.863281 L 225.363281 382.566406 C 225.363281 386.410156 222.246094 389.523438 218.402344 389.523438 L 197.699219 389.523438 C 193.855469 389.523438 190.738281 386.410156 190.738281 382.566406 L 190.738281 361.863281 C 190.738281 358.019531 193.855469 354.902344 197.699219 354.902344 L 218.402344 354.902344 C 222.246094 354.902344 225.363281 358.019531 225.363281 361.863281 Z M 225.363281 361.863281 " style=" stroke:none;fill-rule:nonzero;fill:rgb(34.117647%,33.333333%,36.470588%);fill-opacity:1;" />
<path d="M 273.308594 361.863281 L 273.308594 382.566406 C 273.308594 386.410156 270.195312 389.523438 266.351562 389.523438 L 245.648438 389.523438 C 241.804688 389.523438 238.691406 386.410156 238.691406 382.566406 L 238.691406 361.863281 C 238.691406 358.019531 241.804688 354.902344 245.648438 354.902344 L 266.351562 354.902344 C 270.195312 354.902344 273.308594 358.019531 273.308594 361.863281 Z M 273.308594 361.863281 " style=" stroke:none;fill-rule:nonzero;fill:rgb(27.843137%,30.980392%,43.529412%);fill-opacity:1;" />
<path d="M 225.363281 410.824219 L 225.363281 431.527344 C 225.363281 435.371094 222.246094 438.484375 218.402344 438.484375 L 197.699219 438.484375 C 193.855469 438.484375 190.738281 435.371094 190.738281 431.527344 L 190.738281 410.824219 C 190.738281 406.980469 193.855469 403.863281 197.699219 403.863281 L 218.402344 403.863281 C 222.246094 403.863281 225.363281 406.980469 225.363281 410.824219 Z M 225.363281 410.824219 " style=" stroke:none;fill-rule:nonzero;fill:rgb(34.117647%,33.333333%,36.470588%);fill-opacity:1;" />
<path d="M 273.308594 410.824219 L 273.308594 431.527344 C 273.308594 435.371094 270.195312 438.484375 266.351562 438.484375 L 245.648438 438.484375 C 241.804688 438.484375 238.691406 435.371094 238.691406 431.527344 L 238.691406 410.824219 C 238.691406 406.980469 241.804688 403.863281 245.648438 403.863281 L 266.351562 403.863281 C 270.195312 403.863281 273.308594 406.980469 273.308594 410.824219 Z M 273.308594 410.824219 " style=" stroke:none;fill-rule:nonzero;fill:rgb(27.843137%,30.980392%,43.529412%);fill-opacity:1;" />
<path d="M 286.636719 361.863281 L 286.636719 431.527344 C 286.636719 435.371094 289.753906 438.488281 293.597656 438.488281 L 314.300781 438.488281 C 318.144531 438.488281 321.257812 435.371094 321.257812 431.527344 L 321.257812 361.863281 C 321.257812 358.019531 318.144531 354.902344 314.300781 354.902344 L 293.597656 354.902344 C 289.753906 354.902344 286.636719 358.019531 286.636719 361.863281 Z M 286.636719 361.863281 " style=" stroke:none;fill-rule:nonzero;fill:rgb(19.607843%,23.137255%,35.294118%);fill-opacity:1;" />
<path d="M 273.308594 312.902344 L 273.308594 333.605469 C 273.308594 337.449219 270.195312 340.566406 266.351562 340.566406 L 256 340.566406 L 256 305.941406 L 266.351562 305.941406 C 270.195312 305.941406 273.308594 309.058594 273.308594 312.902344 Z M 273.308594 312.902344 " style=" stroke:none;fill-rule:nonzero;fill:rgb(19.607843%,23.137255%,35.294118%);fill-opacity:1;" />
<path d="M 273.308594 361.863281 L 273.308594 382.566406 C 273.308594 386.410156 270.195312 389.523438 266.351562 389.523438 L 256 389.523438 L 256 354.902344 L 266.351562 354.902344 C 270.195312 354.902344 273.308594 358.019531 273.308594 361.863281 Z M 273.308594 361.863281 " style=" stroke:none;fill-rule:nonzero;fill:rgb(19.607843%,23.137255%,35.294118%);fill-opacity:1;" />
<path d="M 273.308594 410.824219 L 273.308594 431.527344 C 273.308594 435.371094 270.195312 438.484375 266.351562 438.484375 L 256 438.484375 L 256 403.863281 L 266.351562 403.863281 C 270.195312 403.863281 273.308594 406.980469 273.308594 410.824219 Z M 273.308594 410.824219 " style=" stroke:none;fill-rule:nonzero;fill:rgb(19.607843%,23.137255%,35.294118%);fill-opacity:1;" />
<path d="M 256 213.128906 L 321.257812 213.128906 L 321.257812 293.308594 L 256 293.308594 Z M 256 213.128906 " style=" stroke:none;fill-rule:nonzero;fill:rgb(19.607843%,23.137255%,35.294118%);fill-opacity:1;" />
<path d="M 225.363281 312.902344 L 225.363281 333.605469 C 225.363281 337.449219 222.246094 340.566406 218.402344 340.566406 L 208.054688 340.566406 L 208.054688 305.941406 L 218.402344 305.941406 C 222.246094 305.941406 225.363281 309.058594 225.363281 312.902344 Z M 225.363281 312.902344 " style=" stroke:none;fill-rule:nonzero;fill:rgb(27.843137%,30.980392%,43.529412%);fill-opacity:1;" />
<path d="M 225.363281 361.863281 L 225.363281 382.566406 C 225.363281 386.410156 222.246094 389.523438 218.402344 389.523438 L 208.054688 389.523438 L 208.054688 354.902344 L 218.402344 354.902344 C 222.246094 354.902344 225.363281 358.019531 225.363281 361.863281 Z M 225.363281 361.863281 " style=" stroke:none;fill-rule:nonzero;fill:rgb(27.843137%,30.980392%,43.529412%);fill-opacity:1;" />
<path d="M 225.363281 410.824219 L 225.363281 431.527344 C 225.363281 435.371094 222.246094 438.484375 218.402344 438.484375 L 208.054688 438.484375 L 208.054688 403.863281 L 218.402344 403.863281 C 222.246094 403.863281 225.363281 406.980469 225.363281 410.824219 Z M 225.363281 410.824219 " style=" stroke:none;fill-rule:nonzero;fill:rgb(27.843137%,30.980392%,43.529412%);fill-opacity:1;" />
<path d="M 219.21875 94.328125 L 219.21875 140.800781 L 172.75 140.800781 C 159.921875 140.800781 148.300781 135.601562 139.890625 127.191406 C 131.480469 118.78125 126.28125 107.160156 126.28125 94.328125 C 126.28125 81.5 131.480469 69.878906 139.890625 61.480469 C 148.300781 53.070312 159.921875 47.871094 172.75 47.871094 C 198.421875 47.871094 219.21875 68.671875 219.21875 94.328125 Z M 219.21875 94.328125 " style=" stroke:none;fill-rule:nonzero;fill:rgb(55.686275%,30.980392%,82.352941%);fill-opacity:1;" />
<path d="M 219.21875 94.328125 L 219.21875 140.800781 L 172.75 140.800781 L 172.75 47.871094 C 198.421875 47.871094 219.21875 68.671875 219.21875 94.328125 Z M 219.21875 94.328125 " style=" stroke:none;fill-rule:nonzero;fill:rgb(43.921569%,21.960784%,72.941176%);fill-opacity:1;" />
<path d="M 199.980469 94.328125 C 199.980469 97.339844 197.539062 99.78125 194.53125 99.78125 L 150.96875 99.78125 C 147.960938 99.78125 145.519531 97.339844 145.519531 94.328125 C 145.519531 91.320312 147.960938 88.890625 150.96875 88.890625 L 194.53125 88.890625 C 197.539062 88.890625 199.980469 91.320312 199.980469 94.328125 Z M 199.980469 94.328125 " style=" stroke:none;fill-rule:nonzero;fill:rgb(100%,81.960784%,7.058824%);fill-opacity:1;" />
<path d="M 199.980469 94.328125 C 199.980469 97.339844 197.539062 99.78125 194.53125 99.78125 L 172.75 99.78125 L 172.75 88.890625 L 194.53125 88.890625 C 197.539062 88.890625 199.980469 91.320312 199.980469 94.328125 Z M 199.980469 94.328125 " style=" stroke:none;fill-rule:nonzero;fill:rgb(100%,62.352941%,0%);fill-opacity:1;" />
<path d="M 471.824219 221.769531 C 462.554688 231.039062 450.347656 235.671875 438.136719 235.671875 C 425.914062 235.671875 413.695312 231.039062 404.4375 221.769531 L 371.007812 188.339844 L 404.695312 154.648438 C 413.9375 145.421875 426.035156 140.800781 438.136719 140.800781 C 450.234375 140.800781 462.335938 145.421875 471.566406 154.648438 L 471.824219 154.910156 C 490.285156 173.371094 490.285156 203.308594 471.824219 221.769531 Z M 471.824219 221.769531 " style=" stroke:none;fill-rule:nonzero;fill:rgb(55.686275%,30.980392%,82.352941%);fill-opacity:1;" />
<path d="M 471.824219 221.769531 C 462.554688 231.039062 450.347656 235.671875 438.136719 235.671875 L 438.136719 140.800781 C 450.234375 140.800781 462.335938 145.421875 471.566406 154.648438 L 471.824219 154.910156 C 490.285156 173.371094 490.285156 203.308594 471.824219 221.769531 Z M 471.824219 221.769531 " style=" stroke:none;fill-rule:nonzero;fill:rgb(43.921569%,21.960784%,72.941176%);fill-opacity:1;" />
<path d="M 465.945312 188.339844 C 465.945312 191.410156 463.457031 193.898438 460.375 193.898438 L 415.886719 193.898438 C 412.804688 193.898438 410.316406 191.410156 410.316406 188.339844 C 410.316406 185.261719 412.804688 182.78125 415.886719 182.78125 L 460.375 182.78125 C 463.457031 182.78125 465.945312 185.261719 465.945312 188.339844 Z M 465.945312 188.339844 " style=" stroke:none;fill-rule:nonzero;fill:rgb(100%,81.960784%,7.058824%);fill-opacity:1;" />
<path d="M 443.695312 166.089844 C 443.695312 169.160156 441.207031 171.648438 438.136719 171.648438 C 435.054688 171.648438 432.566406 169.160156 432.566406 166.089844 C 432.566406 163.019531 435.054688 160.53125 438.136719 160.53125 C 441.207031 160.53125 443.695312 163.019531 443.695312 166.089844 Z M 443.695312 166.089844 " style=" stroke:none;fill-rule:nonzero;fill:rgb(100%,81.960784%,7.058824%);fill-opacity:1;" />
<path d="M 443.695312 210.589844 C 443.695312 213.660156 441.207031 216.148438 438.136719 216.148438 C 435.054688 216.148438 432.566406 213.660156 432.566406 210.589844 C 432.566406 207.519531 435.054688 205.03125 438.136719 205.03125 C 441.207031 205.03125 443.695312 207.519531 443.695312 210.589844 Z M 443.695312 210.589844 " style=" stroke:none;fill-rule:nonzero;fill:rgb(100%,81.960784%,7.058824%);fill-opacity:1;" />
<path d="M 443.695312 210.589844 C 443.695312 213.660156 441.207031 216.148438 438.136719 216.148438 L 438.136719 205.03125 C 441.207031 205.03125 443.695312 207.519531 443.695312 210.589844 Z M 443.695312 210.589844 " style=" stroke:none;fill-rule:nonzero;fill:rgb(100%,62.352941%,0%);fill-opacity:1;" />
<path d="M 438.136719 171.648438 L 438.136719 160.53125 C 441.207031 160.53125 443.695312 163.019531 443.695312 166.089844 C 443.695312 169.160156 441.207031 171.648438 438.136719 171.648438 Z M 438.136719 171.648438 " style=" stroke:none;fill-rule:nonzero;fill:rgb(100%,62.352941%,0%);fill-opacity:1;" />
<path d="M 465.945312 188.339844 C 465.945312 191.410156 463.457031 193.898438 460.375 193.898438 L 438.136719 193.898438 L 438.136719 182.78125 L 460.375 182.78125 C 463.457031 182.78125 465.945312 185.261719 465.945312 188.339844 Z M 465.945312 188.339844 " style=" stroke:none;fill-rule:nonzero;fill:rgb(100%,62.352941%,0%);fill-opacity:1;" />
<path d="M 140.917969 188.339844 L 107.359375 221.898438 C 98.089844 231.171875 85.9375 235.800781 73.789062 235.800781 C 61.648438 235.800781 49.5 231.171875 40.230469 221.898438 C 30.96875 212.640625 26.328125 200.488281 26.328125 188.339844 C 26.328125 176.191406 30.96875 164.039062 40.230469 154.78125 C 49.5 145.511719 61.648438 140.878906 73.789062 140.878906 C 85.9375 140.878906 98.089844 145.511719 107.359375 154.78125 Z M 140.917969 188.339844 " style=" stroke:none;fill-rule:nonzero;fill:rgb(55.686275%,30.980392%,82.352941%);fill-opacity:1;" />
<path d="M 140.917969 188.339844 L 107.359375 221.898438 C 98.089844 231.171875 85.9375 235.800781 73.789062 235.800781 L 73.789062 140.878906 C 85.9375 140.878906 98.089844 145.511719 107.359375 154.78125 Z M 140.917969 188.339844 " style=" stroke:none;fill-rule:nonzero;fill:rgb(43.921569%,21.960784%,72.941176%);fill-opacity:1;" />
<path d="M 101.609375 188.339844 C 101.609375 191.410156 99.117188 193.898438 96.039062 193.898438 L 79.359375 193.898438 L 79.359375 210.589844 C 79.359375 213.660156 76.867188 216.148438 73.789062 216.148438 C 70.71875 216.148438 68.230469 213.660156 68.230469 210.589844 L 68.230469 193.898438 L 51.550781 193.898438 C 48.46875 193.898438 45.980469 191.410156 45.980469 188.339844 C 45.980469 185.261719 48.46875 182.78125 51.550781 182.78125 L 68.230469 182.78125 L 68.230469 166.089844 C 68.230469 163.019531 70.71875 160.53125 73.789062 160.53125 C 76.867188 160.53125 79.359375 163.019531 79.359375 166.089844 L 79.359375 182.78125 L 96.039062 182.78125 C 99.117188 182.78125 101.609375 185.261719 101.609375 188.339844 Z M 101.609375 188.339844 " style=" stroke:none;fill-rule:nonzero;fill:rgb(100%,81.960784%,7.058824%);fill-opacity:1;" />
<path d="M 101.609375 188.339844 C 101.609375 191.410156 99.117188 193.898438 96.039062 193.898438 L 79.359375 193.898438 L 79.359375 210.589844 C 79.359375 213.660156 76.867188 216.148438 73.789062 216.148438 L 73.789062 160.53125 C 76.867188 160.53125 79.359375 163.019531 79.359375 166.089844 L 79.359375 182.78125 L 96.039062 182.78125 C 99.117188 182.78125 101.609375 185.261719 101.609375 188.339844 Z M 101.609375 188.339844 " style=" stroke:none;fill-rule:nonzero;fill:rgb(100%,62.352941%,0%);fill-opacity:1;" />
<path d="M 385.71875 94.148438 C 385.71875 119.75 364.820312 140.699219 339.25 140.800781 L 292.78125 140.800781 L 292.78125 94.148438 C 292.78125 68.589844 313.5 47.871094 339.070312 47.871094 L 339.429688 47.871094 C 352.210938 47.871094 363.78125 53.050781 372.160156 61.421875 C 380.539062 69.800781 385.71875 81.371094 385.71875 94.148438 Z M 385.71875 94.148438 " style=" stroke:none;fill-rule:nonzero;fill:rgb(55.686275%,30.980392%,82.352941%);fill-opacity:1;" />
<path d="M 385.71875 94.148438 C 385.71875 119.75 364.820312 140.699219 339.25 140.800781 L 339.25 47.871094 L 339.429688 47.871094 C 352.210938 47.871094 363.78125 53.050781 372.160156 61.421875 C 380.539062 69.800781 385.71875 81.371094 385.71875 94.148438 Z M 385.71875 94.148438 " style=" stroke:none;fill-rule:nonzero;fill:rgb(43.921569%,21.960784%,72.941176%);fill-opacity:1;" />
<path d="M 364.878906 112.269531 C 367.011719 114.390625 367.011719 117.839844 364.878906 119.96875 C 362.75 122.089844 359.308594 122.089844 357.179688 119.96875 L 339.25 102.03125 L 321.320312 119.96875 C 319.191406 122.089844 315.738281 122.089844 313.621094 119.96875 C 311.488281 117.839844 311.488281 114.390625 313.621094 112.269531 L 331.550781 94.328125 L 313.621094 76.398438 C 311.488281 74.269531 311.488281 70.828125 313.621094 68.699219 C 315.738281 66.570312 319.191406 66.570312 321.320312 68.699219 L 339.25 86.628906 L 357.179688 68.699219 C 359.308594 66.570312 362.75 66.570312 364.878906 68.699219 C 367.011719 70.828125 367.011719 74.269531 364.878906 76.398438 L 346.949219 94.328125 Z M 364.878906 112.269531 " style=" stroke:none;fill-rule:nonzero;fill:rgb(100%,81.960784%,7.058824%);fill-opacity:1;" />
<path d="M 364.878906 112.269531 C 367.011719 114.390625 367.011719 117.839844 364.878906 119.96875 C 362.75 122.089844 359.308594 122.089844 357.179688 119.96875 L 339.25 102.03125 L 339.25 86.628906 L 357.179688 68.699219 C 359.308594 66.570312 362.75 66.570312 364.878906 68.699219 C 367.011719 70.828125 367.011719 74.269531 364.878906 76.398438 L 346.949219 94.328125 Z M 364.878906 112.269531 " style=" stroke:none;fill-rule:nonzero;fill:rgb(100%,62.352941%,0%);fill-opacity:1;" />
</g>
</svg>