<svg xmlns="http://www.w3.org/2000/svg" height="512pt" version="1.1" viewBox="0 0 512 512" width="512pt">
<g id="surface1">
<path d="M 512 256 C 512 397.386719 397.386719 512 256 512 C 114.613281 512 0 397.386719 0 256 C 0 114.613281 114.613281 0 256 0 C 397.386719 0 512 114.613281 512 256 Z M 512 256 " style=" stroke:none;fill-rule:nonzero;fill:rgb(70.980392%,88.627451%,21.568627%);fill-opacity:1;" />
<path d="M 512 256 C 512 282.050781 508.109375 307.191406 500.871094 330.871094 C 468.859375 435.71875 371.328125 512 256 512 C 151.441406 512 61.511719 449.300781 21.769531 359.449219 C 7.769531 327.820312 0 292.820312 0 256 C 0 209.78125 12.25 166.429688 33.679688 129 C 77.800781 206.070312 160.839844 258 256 258 C 351.160156 258 434.210938 206.070312 478.320312 129 C 499.75 166.429688 512 209.78125 512 256 Z M 512 256 " style=" stroke:none;fill-rule:nonzero;fill:rgb(58.431373%,83.921569%,0%);fill-opacity:1;" />
<path d="M 30.742188 377.703125 C 37.898438 390.921875 46.171875 403.441406 55.460938 415.128906 C 102.359375 474.148438 174.761719 512 256 512 C 337.238281 512 409.640625 474.148438 456.539062 415.128906 C 465.828125 403.441406 474.101562 390.921875 481.257812 377.703125 Z M 30.742188 377.703125 " style=" stroke:none;fill-rule:nonzero;fill:rgb(52.156863%,68.627451%,7.058824%);fill-opacity:1;" />
<path d="M 376.367188 194.519531 L 494.742188 307.125 L 410.128906 391.738281 L 354.121094 341.5 Z M 376.367188 194.519531 " style=" stroke:none;fill-rule:nonzero;fill:rgb(100%,100%,100%);fill-opacity:1;" />
<path d="M 157.882812 341.496094 L 101.875 391.738281 L 17.257812 307.121094 L 135.636719 194.523438 Z M 157.882812 341.496094 " style=" stroke:none;fill-rule:nonzero;fill:rgb(100%,100%,100%);fill-opacity:1;" />
<path d="M 157.882812 341.496094 L 101.875 391.738281 L 135.636719 194.523438 Z M 157.882812 341.496094 " style=" stroke:none;fill-rule:nonzero;fill:rgb(81.568627%,96.470588%,100%);fill-opacity:1;" />
<path d="M 354.121094 341.496094 L 410.128906 391.738281 L 376.367188 194.523438 Z M 354.121094 341.496094 " style=" stroke:none;fill-rule:nonzero;fill:rgb(81.568627%,96.470588%,100%);fill-opacity:1;" />
<path d="M 376.371094 194.519531 L 376.371094 481.980469 C 340.648438 501.058594 299.871094 511.898438 256.570312 512 L 256 512 C 235.140625 512 214.851562 509.5 195.441406 504.789062 C 174.371094 499.679688 154.308594 491.960938 135.640625 481.988281 L 135.640625 194.519531 Z M 376.371094 194.519531 " style=" stroke:none;fill-rule:nonzero;fill:rgb(56.078431%,78.823529%,96.862745%);fill-opacity:1;" />
<path d="M 305.164062 194.59375 L 268.128906 231.628906 L 245.007812 231.628906 L 207.976562 194.59375 Z M 305.164062 194.59375 " style=" stroke:none;fill-rule:nonzero;fill:rgb(34.117647%,33.333333%,36.470588%);fill-opacity:1;" />
<path d="M 305.164062 194.59375 L 268.128906 231.628906 L 250.804688 231.628906 L 256.902344 194.59375 Z M 305.164062 194.59375 " style=" stroke:none;fill-rule:nonzero;fill:rgb(27.843137%,30.980392%,43.529412%);fill-opacity:1;" />
<path d="M 305.164062 194.59375 L 268.128906 231.628906 L 256.566406 231.628906 L 256.566406 194.59375 Z M 305.164062 194.59375 " style=" stroke:none;fill-rule:nonzero;fill:rgb(19.607843%,23.137255%,35.294118%);fill-opacity:1;" />
<path d="M 291.601562 305.484375 L 221.539062 305.484375 L 245.007812 231.628906 L 268.128906 231.628906 Z M 291.601562 305.484375 " style=" stroke:none;fill-rule:nonzero;fill:rgb(34.117647%,33.333333%,36.470588%);fill-opacity:1;" />
<path d="M 291.601562 305.484375 L 238.636719 305.484375 L 250.800781 231.628906 L 268.128906 231.628906 Z M 291.601562 305.484375 " style=" stroke:none;fill-rule:nonzero;fill:rgb(27.843137%,30.980392%,43.529412%);fill-opacity:1;" />
<path d="M 291.601562 305.484375 L 256.566406 305.484375 L 256.566406 231.628906 L 268.128906 231.628906 Z M 291.601562 305.484375 " style=" stroke:none;fill-rule:nonzero;fill:rgb(19.607843%,23.137255%,35.294118%);fill-opacity:1;" />
<path d="M 376.371094 194.519531 L 376.371094 481.980469 C 340.648438 501.058594 299.871094 511.898438 256.570312 512 L 256 512 C 235.140625 512 214.851562 509.5 195.441406 504.789062 C 174.371094 499.679688 154.308594 491.960938 135.640625 481.988281 L 135.640625 194.519531 L 183.421875 194.519531 L 184.800781 195.839844 L 195.441406 212.679688 L 217.640625 247.839844 C 218.710938 249.539062 219.890625 251.160156 221.171875 252.679688 C 221.488281 253.058594 221.808594 253.429688 222.140625 253.800781 C 222.28125 253.96875 222.441406 254.140625 222.601562 254.308594 C 222.75 254.480469 222.910156 254.648438 223.070312 254.820312 C 224.199219 256.019531 225.398438 257.148438 226.648438 258.199219 C 226.921875 258.441406 227.199219 258.671875 227.480469 258.890625 C 227.859375 259.210938 228.25 259.511719 228.640625 259.789062 C 229.019531 260.089844 229.410156 260.371094 229.800781 260.640625 C 230.601562 261.21875 231.429688 261.761719 232.269531 262.269531 C 232.621094 262.480469 232.960938 262.691406 233.320312 262.898438 C 233.808594 263.191406 234.300781 263.460938 234.808594 263.71875 C 234.988281 263.820312 235.171875 263.910156 235.351562 264 C 235.578125 264.128906 235.808594 264.238281 236.039062 264.339844 C 236.070312 264.371094 236.109375 264.378906 236.140625 264.390625 C 236.429688 264.539062 236.71875 264.679688 237.011719 264.800781 C 237.050781 264.828125 237.101562 264.851562 237.140625 264.871094 C 237.398438 264.988281 237.648438 265.101562 237.910156 265.210938 C 238.21875 265.351562 238.539062 265.488281 238.859375 265.609375 C 239.078125 265.710938 239.320312 265.800781 239.539062 265.890625 C 239.570312 265.898438 239.601562 265.910156 239.628906 265.921875 C 239.929688 266.039062 240.230469 266.148438 240.539062 266.261719 C 241.238281 266.519531 241.960938 266.761719 242.679688 266.96875 C 242.960938 267.058594 243.25 267.148438 243.539062 267.230469 C 243.980469 267.359375 244.429688 267.480469 244.878906 267.589844 C 245.070312 267.640625 245.261719 267.691406 245.449219 267.730469 L 246.230469 267.910156 C 247.140625 268.109375 248.050781 268.28125 248.980469 268.429688 C 249.488281 268.511719 250 268.578125 250.519531 268.640625 C 251.03125 268.710938 251.550781 268.761719 252.070312 268.800781 C 252.441406 268.839844 252.800781 268.871094 253.171875 268.890625 C 254.109375 268.949219 255.050781 268.980469 256 268.980469 L 256.570312 268.980469 C 256.800781 268.96875 257.039062 268.96875 257.269531 268.960938 C 257.578125 268.949219 257.878906 268.941406 258.179688 268.929688 C 258.421875 268.921875 258.648438 268.898438 258.890625 268.890625 C 259.140625 268.871094 259.378906 268.851562 259.628906 268.828125 C 259.871094 268.820312 260.109375 268.800781 260.351562 268.769531 C 260.769531 268.730469 261.191406 268.691406 261.601562 268.628906 C 261.800781 268.609375 262 268.589844 262.191406 268.558594 C 262.519531 268.519531 262.839844 268.46875 263.171875 268.410156 C 263.410156 268.378906 263.648438 268.328125 263.890625 268.289062 C 264 268.269531 264.109375 268.25 264.21875 268.230469 C 264.238281 268.230469 264.25 268.230469 264.269531 268.21875 C 264.460938 268.191406 264.648438 268.148438 264.839844 268.109375 C 264.929688 268.089844 265.019531 268.078125 265.101562 268.058594 C 265.121094 268.058594 265.128906 268.050781 265.140625 268.050781 C 265.449219 267.988281 265.761719 267.921875 266.058594 267.851562 C 266.28125 267.800781 266.5 267.75 266.710938 267.699219 C 266.941406 267.648438 267.179688 267.589844 267.410156 267.519531 C 267.640625 267.460938 267.859375 267.410156 268.078125 267.339844 C 268.160156 267.320312 268.25 267.289062 268.328125 267.269531 C 268.410156 267.25 268.488281 267.230469 268.570312 267.199219 C 268.71875 267.160156 268.859375 267.121094 269 267.078125 C 269.019531 267.078125 269.050781 267.070312 269.070312 267.058594 C 269.089844 267.058594 269.101562 267.050781 269.109375 267.039062 C 269.210938 267.019531 269.308594 266.988281 269.410156 266.960938 C 269.421875 266.960938 269.421875 266.949219 269.429688 266.949219 C 269.441406 266.941406 269.460938 266.941406 269.46875 266.941406 C 269.628906 266.890625 269.789062 266.839844 269.949219 266.78125 C 270.011719 266.769531 270.070312 266.75 270.121094 266.730469 C 270.351562 266.660156 270.570312 266.578125 270.800781 266.5 C 271.011719 266.429688 271.21875 266.359375 271.421875 266.28125 C 271.671875 266.191406 271.921875 266.101562 272.160156 266.011719 C 272.171875 266.011719 272.179688 266 272.191406 265.988281 C 272.28125 265.960938 272.359375 265.929688 272.449219 265.890625 C 272.460938 265.890625 272.46875 265.890625 272.480469 265.878906 C 272.539062 265.859375 272.601562 265.839844 272.660156 265.808594 C 272.738281 265.78125 272.820312 265.75 272.890625 265.71875 C 272.929688 265.699219 272.96875 265.691406 273.011719 265.671875 C 273.089844 265.640625 273.179688 265.609375 273.261719 265.570312 C 273.328125 265.539062 273.398438 265.511719 273.46875 265.480469 C 273.609375 265.429688 273.738281 265.371094 273.871094 265.308594 C 274.238281 265.160156 274.621094 264.988281 274.980469 264.820312 C 275.410156 264.621094 275.839844 264.421875 276.261719 264.210938 C 276.429688 264.121094 276.601562 264.039062 276.769531 263.949219 C 276.941406 263.859375 277.121094 263.769531 277.28125 263.679688 C 277.488281 263.570312 277.699219 263.460938 277.898438 263.351562 C 277.988281 263.300781 278.078125 263.25 278.160156 263.199219 C 278.25 263.148438 278.339844 263.101562 278.429688 263.050781 C 278.480469 263.019531 278.53125 262.988281 278.578125 262.960938 C 278.621094 262.949219 278.648438 262.929688 278.679688 262.910156 C 278.800781 262.839844 278.921875 262.769531 279.039062 262.699219 C 279.070312 262.679688 279.101562 262.660156 279.128906 262.648438 C 279.21875 262.589844 279.320312 262.539062 279.410156 262.480469 C 279.429688 262.46875 279.449219 262.460938 279.46875 262.441406 C 279.511719 262.421875 279.550781 262.390625 279.601562 262.359375 C 279.621094 262.351562 279.648438 262.328125 279.679688 262.308594 C 279.71875 262.289062 279.761719 262.269531 279.800781 262.238281 C 279.988281 262.128906 280.179688 262 280.371094 261.878906 C 280.460938 261.828125 280.550781 261.769531 280.628906 261.71875 L 280.628906 261.710938 L 280.640625 261.710938 C 280.71875 261.660156 280.800781 261.609375 280.878906 261.550781 C 281.011719 261.46875 281.140625 261.378906 281.269531 261.300781 C 281.339844 261.25 281.398438 261.210938 281.46875 261.160156 C 281.539062 261.121094 281.601562 261.070312 281.671875 261.019531 C 281.839844 260.910156 282.011719 260.789062 282.179688 260.671875 C 282.25 260.621094 282.320312 260.570312 282.390625 260.519531 C 282.519531 260.429688 282.660156 260.328125 282.789062 260.230469 C 282.820312 260.210938 282.839844 260.199219 282.871094 260.171875 C 283.003906 260.074219 283.136719 259.96875 283.269531 259.871094 C 283.390625 259.78125 283.5 259.691406 283.621094 259.601562 C 283.640625 259.589844 283.648438 259.578125 283.671875 259.570312 C 283.738281 259.519531 283.808594 259.46875 283.878906 259.410156 C 284.230469 259.140625 284.578125 258.859375 284.921875 258.578125 C 285.648438 257.96875 286.359375 257.351562 287.050781 256.699219 C 287.171875 256.589844 287.28125 256.480469 287.390625 256.371094 C 287.460938 256.308594 287.519531 256.25 287.578125 256.191406 C 287.808594 255.96875 288.039062 255.75 288.25 255.519531 C 288.511719 255.261719 288.761719 255 289.011719 254.738281 C 289.480469 254.25 289.929688 253.738281 290.371094 253.21875 C 290.441406 253.148438 290.5 253.078125 290.558594 253 C 290.660156 252.890625 290.75 252.78125 290.839844 252.671875 C 290.890625 252.621094 290.921875 252.578125 290.960938 252.53125 C 291.199219 252.238281 291.429688 251.949219 291.660156 251.660156 C 291.710938 251.601562 291.761719 251.539062 291.800781 251.46875 C 291.960938 251.28125 292.109375 251.078125 292.261719 250.878906 C 292.328125 250.789062 292.398438 250.699219 292.46875 250.601562 C 292.511719 250.539062 292.550781 250.488281 292.589844 250.429688 C 292.75 250.21875 292.898438 250.011719 293.039062 249.800781 C 293.089844 249.738281 293.128906 249.691406 293.160156 249.628906 C 293.25 249.519531 293.328125 249.398438 293.410156 249.28125 C 293.738281 248.808594 294.050781 248.328125 294.359375 247.839844 L 327.199219 194.519531 Z M 376.371094 194.519531 " style=" stroke:none;fill-rule:nonzero;fill:rgb(39.607843%,69.803922%,100%);fill-opacity:1;" />
<path d="M 376.371094 194.519531 L 376.371094 481.980469 C 340.648438 501.058594 299.871094 511.898438 256.570312 512 L 256 512 C 235.140625 512 214.851562 509.5 195.441406 504.789062 L 195.441406 212.679688 L 217.640625 247.839844 C 218.710938 249.539062 219.890625 251.160156 221.171875 252.679688 C 221.488281 253.058594 221.808594 253.429688 222.140625 253.800781 C 222.441406 254.148438 222.75 254.480469 223.070312 254.820312 C 223.851562 255.640625 224.648438 256.429688 225.488281 257.191406 C 225.75 257.429688 226.03125 257.671875 226.300781 257.910156 C 226.351562 257.949219 226.390625 257.988281 226.441406 258.03125 C 226.78125 258.320312 227.128906 258.609375 227.480469 258.890625 C 227.859375 259.199219 228.238281 259.5 228.640625 259.789062 C 229.019531 260.078125 229.410156 260.371094 229.800781 260.640625 C 230.101562 260.871094 230.410156 261.078125 230.71875 261.28125 C 230.941406 261.429688 231.160156 261.570312 231.390625 261.71875 C 231.679688 261.910156 231.96875 262.101562 232.269531 262.269531 C 232.628906 262.488281 232.988281 262.710938 233.359375 262.921875 C 233.480469 263 233.601562 263.070312 233.730469 263.128906 C 233.988281 263.289062 234.261719 263.441406 234.539062 263.570312 C 234.628906 263.628906 234.71875 263.671875 234.808594 263.71875 C 235.25 263.960938 235.691406 264.191406 236.140625 264.390625 C 236.429688 264.539062 236.71875 264.671875 237.011719 264.800781 C 237.339844 264.96875 237.660156 265.109375 238 265.25 L 238.78125 265.578125 C 239.058594 265.699219 239.351562 265.808594 239.628906 265.921875 C 239.96875 266.058594 240.300781 266.179688 240.648438 266.300781 C 241.058594 266.449219 241.46875 266.589844 241.878906 266.71875 C 242.140625 266.808594 242.410156 266.890625 242.679688 266.96875 C 242.960938 267.058594 243.25 267.148438 243.539062 267.230469 C 243.980469 267.359375 244.429688 267.480469 244.878906 267.589844 C 245 267.628906 245.121094 267.660156 245.25 267.679688 C 245.578125 267.761719 245.898438 267.839844 246.230469 267.910156 C 247.140625 268.109375 248.050781 268.28125 248.980469 268.429688 C 250 268.589844 251.03125 268.71875 252.070312 268.800781 C 252.441406 268.839844 252.800781 268.871094 253.171875 268.890625 C 254.109375 268.949219 255.050781 268.980469 256 268.980469 L 256.570312 268.980469 C 256.800781 268.96875 257.039062 268.96875 257.269531 268.960938 C 257.578125 268.949219 257.878906 268.941406 258.179688 268.929688 C 258.421875 268.921875 258.648438 268.898438 258.890625 268.890625 C 259.140625 268.871094 259.378906 268.851562 259.628906 268.828125 C 259.871094 268.820312 260.109375 268.800781 260.351562 268.769531 C 260.769531 268.730469 261.191406 268.691406 261.601562 268.628906 C 261.800781 268.609375 262 268.589844 262.191406 268.558594 C 262.761719 268.480469 263.328125 268.390625 263.890625 268.289062 C 264 268.269531 264.109375 268.25 264.21875 268.230469 C 264.238281 268.230469 264.25 268.230469 264.269531 268.21875 C 264.460938 268.191406 264.648438 268.148438 264.839844 268.109375 C 265.25 268.03125 265.660156 267.941406 266.058594 267.851562 C 266.28125 267.800781 266.5 267.75 266.710938 267.699219 C 266.941406 267.648438 267.179688 267.589844 267.410156 267.519531 C 267.640625 267.460938 267.859375 267.410156 268.078125 267.339844 C 268.160156 267.320312 268.25 267.289062 268.328125 267.269531 C 268.410156 267.25 268.488281 267.230469 268.570312 267.199219 C 268.71875 267.160156 268.859375 267.121094 269 267.078125 C 269.011719 267.078125 269.03125 267.070312 269.039062 267.070312 C 269.070312 267.058594 269.089844 267.050781 269.109375 267.039062 C 269.210938 267.019531 269.308594 266.988281 269.410156 266.960938 C 269.421875 266.949219 269.441406 266.949219 269.449219 266.941406 C 269.449219 266.941406 269.460938 266.941406 269.46875 266.941406 C 269.628906 266.890625 269.789062 266.839844 269.949219 266.78125 C 270.011719 266.769531 270.070312 266.75 270.121094 266.730469 C 270.351562 266.660156 270.570312 266.578125 270.800781 266.5 C 271.011719 266.429688 271.21875 266.359375 271.421875 266.28125 C 271.769531 266.148438 272.121094 266.03125 272.449219 265.890625 C 272.640625 265.820312 272.820312 265.75 273.011719 265.671875 C 273.089844 265.640625 273.179688 265.609375 273.261719 265.570312 C 273.328125 265.539062 273.398438 265.511719 273.46875 265.480469 C 273.609375 265.429688 273.738281 265.371094 273.871094 265.308594 C 274.238281 265.160156 274.621094 264.988281 274.980469 264.820312 C 275.410156 264.621094 275.839844 264.421875 276.261719 264.210938 C 276.429688 264.121094 276.601562 264.039062 276.769531 263.949219 C 276.941406 263.859375 277.121094 263.769531 277.28125 263.679688 C 277.488281 263.570312 277.699219 263.460938 277.898438 263.351562 C 277.988281 263.300781 278.078125 263.25 278.160156 263.199219 C 278.441406 263.050781 278.71875 262.878906 279 262.71875 C 279.050781 262.699219 279.089844 262.671875 279.128906 262.648438 C 279.21875 262.589844 279.320312 262.539062 279.410156 262.480469 C 279.488281 262.429688 279.570312 262.378906 279.660156 262.320312 C 279.898438 262.179688 280.140625 262.03125 280.371094 261.878906 C 280.460938 261.828125 280.550781 261.769531 280.640625 261.710938 C 280.71875 261.660156 280.800781 261.609375 280.878906 261.550781 C 281.140625 261.390625 281.398438 261.210938 281.648438 261.039062 C 281.828125 260.921875 282.011719 260.800781 282.179688 260.671875 C 282.25 260.621094 282.320312 260.570312 282.390625 260.519531 C 282.519531 260.429688 282.660156 260.328125 282.789062 260.230469 C 282.820312 260.210938 282.839844 260.199219 282.871094 260.171875 C 283.140625 259.96875 283.410156 259.78125 283.671875 259.570312 C 283.738281 259.519531 283.808594 259.46875 283.878906 259.410156 C 284.230469 259.140625 284.578125 258.859375 284.921875 258.578125 C 285.648438 257.96875 286.359375 257.351562 287.050781 256.699219 C 287.171875 256.589844 287.28125 256.480469 287.390625 256.371094 C 287.460938 256.308594 287.519531 256.25 287.578125 256.191406 C 287.808594 255.96875 288.039062 255.75 288.25 255.519531 C 288.511719 255.261719 288.761719 255 289.011719 254.738281 C 290.070312 253.609375 291.078125 252.429688 292.03125 251.179688 C 292.179688 250.988281 292.339844 250.78125 292.480469 250.578125 C 292.519531 250.53125 292.558594 250.480469 292.589844 250.429688 C 292.75 250.21875 292.898438 250.011719 293.039062 249.800781 C 293.070312 249.769531 293.089844 249.738281 293.109375 249.710938 C 293.25 249.519531 293.378906 249.320312 293.511719 249.128906 C 293.800781 248.710938 294.078125 248.28125 294.359375 247.839844 L 327.199219 194.519531 Z M 376.371094 194.519531 " style=" stroke:none;fill-rule:nonzero;fill:rgb(5.882353%,60.784314%,90.980392%);fill-opacity:1;" />
<path d="M 376.371094 194.519531 L 376.371094 481.980469 C 340.648438 501.058594 299.871094 511.898438 256.570312 512 L 256.570312 268.980469 C 256.800781 268.96875 257.039062 268.96875 257.269531 268.960938 C 257.578125 268.949219 257.878906 268.941406 258.179688 268.929688 C 258.421875 268.921875 258.648438 268.898438 258.890625 268.890625 L 258.929688 268.890625 C 259.398438 268.859375 259.878906 268.820312 260.351562 268.769531 C 260.769531 268.730469 261.191406 268.691406 261.601562 268.628906 C 261.800781 268.609375 262 268.589844 262.191406 268.558594 C 262.519531 268.519531 262.839844 268.46875 263.171875 268.410156 C 263.410156 268.371094 263.648438 268.328125 263.890625 268.289062 C 264 268.269531 264.109375 268.25 264.21875 268.230469 C 264.839844 268.121094 265.449219 267.988281 266.058594 267.851562 C 266.269531 267.808594 266.46875 267.761719 266.671875 267.710938 C 266.679688 267.710938 266.699219 267.699219 266.710938 267.699219 C 266.941406 267.648438 267.179688 267.589844 267.410156 267.519531 C 267.640625 267.460938 267.859375 267.410156 268.078125 267.339844 C 268.101562 267.328125 268.121094 267.328125 268.140625 267.320312 C 268.429688 267.25 268.71875 267.160156 269 267.078125 C 269.039062 267.070312 269.078125 267.058594 269.109375 267.039062 C 269.230469 267.011719 269.351562 266.96875 269.46875 266.941406 C 269.628906 266.890625 269.789062 266.839844 269.949219 266.78125 C 270.011719 266.769531 270.070312 266.75 270.121094 266.730469 C 270.351562 266.660156 270.570312 266.578125 270.800781 266.5 C 271.011719 266.429688 271.21875 266.359375 271.421875 266.28125 C 271.910156 266.101562 272.398438 265.921875 272.890625 265.71875 C 272.929688 265.710938 272.96875 265.691406 273.011719 265.671875 C 273.171875 265.609375 273.320312 265.550781 273.46875 265.480469 C 273.601562 265.429688 273.738281 265.371094 273.871094 265.308594 C 274.238281 265.160156 274.621094 264.988281 274.980469 264.820312 C 275.410156 264.621094 275.839844 264.421875 276.261719 264.210938 C 276.320312 264.179688 276.390625 264.148438 276.449219 264.109375 C 276.558594 264.058594 276.671875 264 276.769531 263.949219 C 276.941406 263.859375 277.121094 263.769531 277.28125 263.679688 C 277.488281 263.570312 277.699219 263.460938 277.898438 263.351562 C 277.988281 263.300781 278.078125 263.25 278.160156 263.199219 C 278.429688 263.058594 278.691406 262.898438 278.949219 262.75 C 279.011719 262.71875 279.070312 262.679688 279.128906 262.648438 C 279.21875 262.589844 279.320312 262.539062 279.410156 262.480469 C 279.5 262.429688 279.589844 262.371094 279.679688 262.308594 C 279.910156 262.171875 280.140625 262.03125 280.371094 261.878906 C 280.460938 261.828125 280.550781 261.769531 280.628906 261.71875 L 280.640625 261.699219 C 280.71875 261.660156 280.800781 261.609375 280.878906 261.550781 C 281.558594 261.109375 282.21875 260.648438 282.871094 260.171875 C 283.148438 259.96875 283.421875 259.769531 283.691406 259.558594 C 283.761719 259.511719 283.820312 259.460938 283.878906 259.410156 C 284.230469 259.140625 284.578125 258.859375 284.921875 258.578125 C 285.648438 257.96875 286.359375 257.351562 287.050781 256.699219 L 287.199219 256.550781 C 287.460938 256.308594 287.710938 256.070312 287.960938 255.808594 C 288.058594 255.71875 288.160156 255.621094 288.25 255.519531 C 288.511719 255.261719 288.761719 255 289.011719 254.738281 C 290.238281 253.429688 291.398438 252.039062 292.480469 250.578125 C 292.691406 250.308594 292.890625 250.03125 293.078125 249.75 C 293.230469 249.550781 293.371094 249.339844 293.511719 249.128906 C 293.800781 248.710938 294.078125 248.28125 294.359375 247.839844 L 327.199219 194.519531 Z M 376.371094 194.519531 " style=" stroke:none;fill-rule:nonzero;fill:rgb(0%,40%,90.980392%);fill-opacity:1;" />
<path d="M 327.199219 194.523438 L 256.574219 200.03125 L 256 200.074219 L 184.800781 194.523438 L 196.871094 165.199219 L 315.132812 165.199219 Z M 327.199219 194.523438 " style=" stroke:none;fill-rule:nonzero;fill:rgb(81.568627%,96.470588%,100%);fill-opacity:1;" />
<path d="M 327.199219 194.523438 L 256.574219 200.03125 L 256.574219 165.199219 L 315.132812 165.199219 Z M 327.199219 194.523438 " style=" stroke:none;fill-rule:nonzero;fill:rgb(56.078431%,78.823529%,96.862745%);fill-opacity:1;" />
<path d="M 327.203125 194.523438 L 287.160156 247.738281 L 256 200.074219 L 315.128906 165.195312 Z M 327.203125 194.523438 " style=" stroke:none;fill-rule:nonzero;fill:rgb(81.568627%,96.470588%,100%);fill-opacity:1;" />
<path d="M 184.800781 194.523438 L 224.839844 247.738281 L 256 200.074219 L 196.871094 165.195312 Z M 184.800781 194.523438 " style=" stroke:none;fill-rule:nonzero;fill:rgb(100%,100%,100%);fill-opacity:1;" />
<path d="M 348.070312 194.523438 L 311.027344 258.101562 L 310.96875 258.195312 L 310.90625 258.285156 C 305.070312 267.535156 296.925781 275.210938 287.351562 280.488281 C 277.9375 285.671875 267.3125 288.453125 256.566406 288.546875 C 256.378906 288.550781 256.191406 288.550781 256 288.550781 C 245.066406 288.550781 234.230469 285.761719 224.648438 280.488281 C 215.074219 275.210938 206.929688 267.535156 201.09375 258.285156 L 195.4375 249.359375 L 160.699219 194.523438 L 183.414062 194.523438 L 184.800781 195.839844 L 195.4375 212.679688 L 217.640625 247.835938 C 225.949219 261.003906 240.433594 268.980469 256 268.980469 C 256.191406 268.980469 256.378906 268.980469 256.566406 268.976562 C 257.105469 268.972656 257.644531 268.949219 258.183594 268.925781 C 258.417969 268.917969 258.652344 268.902344 258.886719 268.886719 C 259.136719 268.871094 259.382812 268.855469 259.625 268.835938 C 259.867188 268.8125 260.105469 268.796875 260.34375 268.769531 C 260.964844 268.710938 261.582031 268.636719 262.195312 268.554688 C 262.476562 268.515625 262.765625 268.476562 263.050781 268.433594 C 263.457031 268.363281 263.863281 268.296875 264.269531 268.222656 C 264.546875 268.167969 264.824219 268.113281 265.105469 268.058594 C 265.429688 267.992188 265.746094 267.925781 266.0625 267.851562 C 266.273438 267.804688 266.488281 267.753906 266.703125 267.699219 C 266.941406 267.644531 267.175781 267.585938 267.410156 267.523438 C 267.632812 267.464844 267.855469 267.40625 268.078125 267.34375 C 268.523438 267.222656 268.96875 267.09375 269.410156 266.957031 C 269.429688 266.949219 269.449219 266.941406 269.472656 266.9375 C 269.6875 266.867188 269.902344 266.800781 270.121094 266.726562 C 270.34375 266.65625 270.570312 266.578125 270.796875 266.5 C 271.003906 266.429688 271.210938 266.355469 271.421875 266.28125 C 271.835938 266.132812 272.246094 265.976562 272.652344 265.816406 C 273.058594 265.65625 273.464844 265.488281 273.871094 265.3125 C 274.25 265.152344 274.625 264.984375 275.003906 264.808594 C 275.070312 264.777344 275.132812 264.75 275.199219 264.71875 C 275.554688 264.554688 275.90625 264.382812 276.261719 264.207031 C 276.8125 263.933594 277.359375 263.644531 277.902344 263.34375 C 278.257812 263.148438 278.605469 262.953125 278.949219 262.746094 C 279.089844 262.671875 279.226562 262.585938 279.363281 262.503906 C 279.65625 262.332031 279.945312 262.152344 280.234375 261.964844 C 280.667969 261.695312 281.09375 261.410156 281.519531 261.128906 C 281.886719 260.878906 282.25 260.625 282.605469 260.363281 C 282.695312 260.300781 282.777344 260.238281 282.863281 260.167969 C 283.117188 259.988281 283.375 259.796875 283.621094 259.601562 C 283.707031 259.542969 283.789062 259.476562 283.878906 259.40625 C 284.230469 259.136719 284.578125 258.859375 284.917969 258.574219 C 288.5625 255.558594 291.765625 251.949219 294.363281 247.835938 L 327.199219 194.523438 Z M 348.070312 194.523438 " style=" stroke:none;fill-rule:nonzero;fill:rgb(100%,91.372549%,33.333333%);fill-opacity:1;" />
<path d="M 348.070312 194.523438 L 311.027344 258.101562 L 310.96875 258.195312 L 310.90625 258.285156 C 305.070312 267.535156 296.925781 275.210938 287.351562 280.488281 C 277.9375 285.671875 267.3125 288.453125 256.566406 288.546875 C 256.378906 288.550781 256.191406 288.550781 256 288.550781 C 245.066406 288.550781 234.230469 285.761719 224.648438 280.488281 C 215.074219 275.210938 206.929688 267.535156 201.09375 258.285156 L 195.4375 249.359375 L 195.4375 212.679688 L 217.640625 247.835938 C 225.949219 261.003906 240.433594 268.980469 256 268.980469 C 256.191406 268.980469 256.378906 268.980469 256.566406 268.976562 C 257.105469 268.972656 257.644531 268.949219 258.183594 268.925781 C 258.417969 268.917969 258.652344 268.902344 258.886719 268.886719 C 259.136719 268.871094 259.382812 268.855469 259.625 268.835938 C 259.867188 268.820312 260.105469 268.796875 260.34375 268.769531 C 260.964844 268.710938 261.582031 268.636719 262.195312 268.554688 C 262.484375 268.515625 262.765625 268.476562 263.050781 268.433594 C 263.457031 268.363281 263.863281 268.296875 264.269531 268.222656 C 264.546875 268.167969 264.824219 268.113281 265.105469 268.058594 C 265.429688 267.992188 265.746094 267.925781 266.0625 267.851562 C 266.277344 267.804688 266.496094 267.753906 266.703125 267.699219 C 266.941406 267.644531 267.175781 267.585938 267.410156 267.523438 C 267.632812 267.464844 267.855469 267.40625 268.078125 267.34375 C 268.523438 267.226562 268.96875 267.09375 269.410156 266.957031 C 269.429688 266.949219 269.449219 266.941406 269.472656 266.9375 C 269.6875 266.867188 269.902344 266.800781 270.121094 266.726562 C 270.34375 266.65625 270.570312 266.578125 270.796875 266.5 C 271.003906 266.433594 271.214844 266.359375 271.421875 266.28125 C 271.835938 266.132812 272.246094 265.976562 272.652344 265.816406 C 273.066406 265.65625 273.464844 265.488281 273.871094 265.3125 C 274.253906 265.152344 274.628906 264.984375 275.003906 264.808594 C 275.070312 264.777344 275.132812 264.75 275.199219 264.71875 C 275.554688 264.554688 275.910156 264.382812 276.261719 264.207031 C 276.8125 263.933594 277.359375 263.644531 277.902344 263.34375 C 278.257812 263.148438 278.605469 262.953125 278.949219 262.746094 C 279.089844 262.671875 279.226562 262.585938 279.363281 262.503906 C 279.65625 262.332031 279.945312 262.152344 280.234375 261.964844 C 280.667969 261.695312 281.09375 261.410156 281.519531 261.128906 C 281.886719 260.878906 282.25 260.625 282.605469 260.363281 C 282.695312 260.300781 282.777344 260.238281 282.863281 260.167969 C 283.117188 259.988281 283.375 259.796875 283.621094 259.601562 C 283.707031 259.542969 283.789062 259.476562 283.878906 259.40625 C 284.230469 259.136719 284.578125 258.859375 284.917969 258.574219 C 288.5625 255.558594 291.765625 251.949219 294.363281 247.835938 L 327.199219 194.523438 Z M 348.070312 194.523438 " style=" stroke:none;fill-rule:nonzero;fill:rgb(100%,81.960784%,7.058824%);fill-opacity:1;" />
<path d="M 348.070312 194.523438 L 311.027344 258.101562 L 310.96875 258.195312 L 310.90625 258.285156 C 305.070312 267.535156 296.925781 275.210938 287.351562 280.488281 C 277.9375 285.671875 267.3125 288.453125 256.566406 288.546875 L 256.566406 268.976562 C 256.804688 268.972656 257.039062 268.972656 257.273438 268.960938 C 257.574219 268.953125 257.878906 268.941406 258.183594 268.929688 C 258.417969 268.917969 258.652344 268.902344 258.886719 268.890625 C 259.136719 268.875 259.378906 268.855469 259.625 268.835938 C 259.863281 268.820312 260.105469 268.796875 260.34375 268.769531 C 260.765625 268.730469 261.183594 268.6875 261.601562 268.632812 C 261.796875 268.609375 261.996094 268.585938 262.191406 268.554688 C 263.5 268.378906 264.789062 268.140625 266.0625 267.851562 C 266.277344 267.804688 266.492188 267.753906 266.703125 267.699219 C 266.9375 267.644531 267.175781 267.585938 267.40625 267.523438 C 267.632812 267.464844 267.851562 267.40625 268.078125 267.34375 C 268.992188 267.09375 269.898438 266.808594 270.792969 266.503906 C 271.003906 266.433594 271.214844 266.359375 271.417969 266.28125 C 273.074219 265.683594 274.6875 264.988281 276.257812 264.207031 C 276.601562 264.035156 276.941406 263.859375 277.28125 263.683594 C 277.492188 263.570312 277.695312 263.460938 277.902344 263.347656 C 280.378906 261.980469 282.726562 260.386719 284.917969 258.574219 C 285.648438 257.972656 286.355469 257.347656 287.050781 256.695312 C 289.820312 254.097656 292.28125 251.128906 294.359375 247.835938 L 327.199219 194.523438 Z M 348.070312 194.523438 " style=" stroke:none;fill-rule:nonzero;fill:rgb(100%,62.352941%,0%);fill-opacity:1;" />
<path d="M 347.265625 315.59375 L 347.265625 330.742188 C 347.265625 347.886719 336.015625 362.746094 319.574219 370.066406 C 303.136719 362.746094 291.886719 347.886719 291.886719 330.742188 L 291.886719 315.59375 Z M 347.265625 315.59375 " style=" stroke:none;fill-rule:nonzero;fill:rgb(81.568627%,96.470588%,100%);fill-opacity:1;" />
<path d="M 347.265625 315.59375 L 347.265625 330.742188 C 347.265625 347.886719 336.015625 362.746094 319.574219 370.066406 L 319.574219 315.59375 Z M 347.265625 315.59375 " style=" stroke:none;fill-rule:nonzero;fill:rgb(56.078431%,78.823529%,96.862745%);fill-opacity:1;" />
<path d="M 334.328125 328.3125 L 334.328125 336.390625 C 334.328125 345.523438 328.335938 353.445312 319.574219 357.34375 C 310.816406 353.445312 304.816406 345.523438 304.816406 336.390625 L 304.816406 328.3125 Z M 334.328125 328.3125 " style=" stroke:none;fill-rule:nonzero;fill:rgb(100%,100%,100%);fill-opacity:1;" />
<path d="M 334.328125 328.3125 L 334.328125 336.390625 C 334.328125 345.523438 328.335938 353.445312 319.574219 357.34375 L 319.574219 328.3125 Z M 334.328125 328.3125 " style=" stroke:none;fill-rule:nonzero;fill:rgb(81.568627%,96.470588%,100%);fill-opacity:1;" />
<path d="M 376.371094 478.28125 L 376.371094 481.980469 C 340.648438 501.058594 299.871094 511.898438 256.570312 512 L 256 512 C 235.140625 512 214.851562 509.5 195.441406 504.789062 C 174.371094 499.679688 154.308594 491.960938 135.640625 481.988281 L 135.640625 478.28125 Z M 376.371094 478.28125 " style=" stroke:none;fill-rule:nonzero;fill:rgb(100%,100%,100%);fill-opacity:1;" />
<path d="M 376.371094 478.28125 L 376.371094 481.980469 C 340.648438 501.058594 299.871094 511.898438 256.570312 512 L 256 512 C 235.140625 512 214.851562 509.5 195.441406 504.789062 L 195.441406 478.28125 Z M 376.371094 478.28125 " style=" stroke:none;fill-rule:nonzero;fill:rgb(81.568627%,96.470588%,100%);fill-opacity:1;" />
<path d="M 376.371094 478.28125 L 376.371094 481.980469 C 340.648438 501.058594 299.871094 511.898438 256.570312 512 L 256.570312 478.28125 Z M 376.371094 478.28125 " style=" stroke:none;fill-rule:nonzero;fill:rgb(56.078431%,78.823529%,96.862745%);fill-opacity:1;" />
</g>
</svg>