<svg xmlns="http://www.w3.org/2000/svg" height="512pt" version="1.1" viewBox="0 0 512 512" width="512pt">
<g id="surface1">
<path d="M 512 256 C 512 397.386719 397.386719 512 256 512 C 114.613281 512 0 397.386719 0 256 C 0 114.613281 114.613281 0 256 0 C 397.386719 0 512 114.613281 512 256 Z M 512 256 " style=" stroke:none;fill-rule:nonzero;fill:rgb(61.960784%,41.176471%,88.627451%);fill-opacity:1;" />
<path d="M 512 256 C 512 282.050781 508.109375 307.191406 500.871094 330.871094 C 468.859375 435.71875 371.328125 512 256 512 C 151.441406 512 61.511719 449.300781 21.769531 359.449219 C 7.769531 327.820312 0 292.820312 0 256 C 0 209.78125 12.25 166.429688 33.679688 129 C 77.800781 206.070312 160.839844 258 256 258 C 351.160156 258 434.210938 206.070312 478.320312 129 C 499.75 166.429688 512 209.78125 512 256 Z M 512 256 " style=" stroke:none;fill-rule:nonzero;fill:rgb(55.686275%,30.980392%,82.352941%);fill-opacity:1;" />
<path d="M 30.742188 377.703125 C 37.898438 390.921875 46.171875 403.441406 55.460938 415.128906 C 102.359375 474.148438 174.761719 512 256 512 C 337.238281 512 409.640625 474.148438 456.539062 415.128906 C 465.828125 403.441406 474.101562 390.921875 481.257812 377.703125 Z M 30.742188 377.703125 " style=" stroke:none;fill-rule:nonzero;fill:rgb(43.921569%,21.960784%,72.941176%);fill-opacity:1;" />
<path d="M 209.472656 315.597656 L 291.867188 315.597656 L 291.867188 355.476562 L 209.472656 355.476562 Z M 209.472656 315.597656 " style=" stroke:none;fill-rule:nonzero;fill:rgb(100%,100%,100%);fill-opacity:1;" />
<path d="M 221.519531 315.597656 L 291.867188 315.597656 L 291.867188 355.476562 L 221.519531 355.476562 Z M 221.519531 315.597656 " style=" stroke:none;fill-rule:nonzero;fill:rgb(81.568627%,96.470588%,100%);fill-opacity:1;" />
<path d="M 250.671875 315.597656 L 291.867188 315.597656 L 291.867188 355.476562 L 250.671875 355.476562 Z M 250.671875 315.597656 " style=" stroke:none;fill-rule:nonzero;fill:rgb(56.078431%,78.823529%,96.862745%);fill-opacity:1;" />
<path d="M 359.71875 300.921875 L 141.617188 300.921875 L 190.664062 227.226562 L 310.671875 227.226562 Z M 359.71875 300.921875 " style=" stroke:none;fill-rule:nonzero;fill:rgb(100%,81.960784%,7.058824%);fill-opacity:1;" />
<path d="M 359.71875 300.921875 L 250.671875 300.921875 L 250.671875 227.226562 L 310.671875 227.226562 Z M 359.71875 300.921875 " style=" stroke:none;fill-rule:nonzero;fill:rgb(100%,62.352941%,0%);fill-opacity:1;" />
<path d="M 310.671875 155.28125 L 310.671875 335.535156 L 190.664062 335.535156 L 190.664062 155.28125 C 190.664062 113.777344 210.175781 76.828125 240.527344 53.109375 C 243.503906 50.785156 247.085938 49.625 250.667969 49.625 C 250.726562 49.625 250.785156 49.625 250.84375 49.628906 C 254.371094 49.664062 257.886719 50.824219 260.808594 53.109375 C 291.160156 76.828125 310.671875 113.777344 310.671875 155.28125 Z M 310.671875 155.28125 " style=" stroke:none;fill-rule:nonzero;fill:rgb(100%,100%,100%);fill-opacity:1;" />
<path d="M 310.671875 155.28125 L 310.671875 335.535156 L 221.519531 335.535156 L 221.519531 136.4375 C 221.519531 103.800781 232.445312 73.710938 250.84375 49.628906 C 254.371094 49.664062 257.886719 50.824219 260.808594 53.109375 C 291.160156 76.828125 310.671875 113.777344 310.671875 155.28125 Z M 310.671875 155.28125 " style=" stroke:none;fill-rule:nonzero;fill:rgb(81.568627%,96.470588%,100%);fill-opacity:1;" />
<path d="M 310.671875 155.28125 L 310.671875 335.535156 L 250.671875 335.535156 L 250.671875 49.625 C 254.253906 49.625 257.835938 50.785156 260.808594 53.109375 C 291.160156 76.828125 310.671875 113.777344 310.671875 155.28125 Z M 310.671875 155.28125 " style=" stroke:none;fill-rule:nonzero;fill:rgb(56.078431%,78.823529%,96.862745%);fill-opacity:1;" />
<path d="M 310.671875 155.28125 L 190.664062 155.28125 C 190.664062 113.777344 210.175781 76.828125 240.527344 53.109375 C 243.503906 50.785156 247.085938 49.625 250.667969 49.625 C 250.726562 49.625 250.785156 49.625 250.84375 49.628906 L 250.855469 49.628906 C 251.070312 49.632812 251.289062 49.640625 251.507812 49.648438 C 251.671875 49.652344 251.84375 49.664062 252.011719 49.675781 C 252.0625 49.679688 252.113281 49.6875 252.164062 49.695312 C 252.386719 49.714844 252.605469 49.738281 252.824219 49.765625 C 252.996094 49.785156 253.171875 49.8125 253.347656 49.839844 C 253.390625 49.847656 253.4375 49.855469 253.480469 49.867188 C 253.683594 49.898438 253.882812 49.9375 254.082031 49.980469 C 254.117188 49.988281 254.148438 49.992188 254.183594 50 C 254.320312 50.03125 254.457031 50.0625 254.59375 50.101562 C 254.664062 50.113281 254.734375 50.136719 254.808594 50.152344 C 254.902344 50.179688 255.003906 50.203125 255.097656 50.230469 C 255.207031 50.257812 255.3125 50.289062 255.417969 50.320312 C 255.648438 50.390625 255.875 50.460938 256.097656 50.542969 C 256.289062 50.605469 256.488281 50.675781 256.675781 50.757812 C 256.679688 50.757812 256.683594 50.757812 256.683594 50.757812 C 256.847656 50.820312 257.007812 50.882812 257.167969 50.953125 C 257.238281 50.984375 257.308594 51.015625 257.378906 51.046875 C 257.96875 51.308594 258.546875 51.605469 259.105469 51.941406 C 259.292969 52.050781 259.472656 52.171875 259.65625 52.285156 C 259.800781 52.378906 259.949219 52.480469 260.085938 52.578125 C 260.167969 52.632812 260.25 52.6875 260.328125 52.75 C 260.492188 52.863281 260.652344 52.984375 260.808594 53.109375 C 291.160156 76.828125 310.671875 113.777344 310.671875 155.28125 Z M 310.671875 155.28125 " style=" stroke:none;fill-rule:nonzero;fill:rgb(100%,20.392157%,27.058824%);fill-opacity:1;" />
<path d="M 310.671875 155.28125 L 221.519531 155.28125 L 221.519531 136.4375 C 221.519531 103.800781 232.445312 73.710938 250.84375 49.628906 L 250.855469 49.628906 C 251.070312 49.632812 251.289062 49.640625 251.507812 49.648438 C 251.949219 49.671875 252.386719 49.710938 252.824219 49.765625 C 253.046875 49.792969 253.261719 49.828125 253.480469 49.867188 C 253.683594 49.898438 253.882812 49.9375 254.082031 49.980469 C 254.117188 49.988281 254.148438 49.992188 254.183594 50 C 254.320312 50.03125 254.457031 50.0625 254.59375 50.101562 C 254.664062 50.113281 254.734375 50.136719 254.808594 50.152344 C 254.902344 50.179688 255.003906 50.203125 255.097656 50.230469 C 255.207031 50.257812 255.3125 50.289062 255.417969 50.320312 C 255.648438 50.390625 255.875 50.460938 256.097656 50.542969 C 256.289062 50.605469 256.488281 50.675781 256.675781 50.757812 C 256.679688 50.757812 256.683594 50.757812 256.683594 50.757812 C 256.847656 50.820312 257.007812 50.882812 257.167969 50.953125 C 257.238281 50.984375 257.308594 51.015625 257.378906 51.046875 C 257.96875 51.308594 258.546875 51.605469 259.105469 51.941406 C 259.292969 52.050781 259.472656 52.171875 259.65625 52.285156 C 259.800781 52.378906 259.949219 52.480469 260.085938 52.578125 C 260.167969 52.632812 260.25 52.6875 260.328125 52.75 C 260.492188 52.863281 260.652344 52.984375 260.808594 53.109375 C 291.160156 76.828125 310.671875 113.777344 310.671875 155.28125 Z M 310.671875 155.28125 " style=" stroke:none;fill-rule:nonzero;fill:rgb(86.666667%,7.058824%,39.607843%);fill-opacity:1;" />
<path d="M 287.796875 217.941406 C 287.796875 238.449219 271.175781 255.070312 250.667969 255.070312 C 230.164062 255.070312 213.539062 238.449219 213.539062 217.941406 C 213.539062 197.4375 230.164062 180.8125 250.667969 180.8125 C 271.175781 180.8125 287.796875 197.4375 287.796875 217.941406 Z M 287.796875 217.941406 " style=" stroke:none;fill-rule:nonzero;fill:rgb(5.882353%,60.784314%,90.980392%);fill-opacity:1;" />
<path d="M 287.796875 217.941406 C 287.796875 238.449219 271.175781 255.070312 250.667969 255.070312 L 250.667969 180.8125 C 271.175781 180.8125 287.796875 197.4375 287.796875 217.941406 Z M 287.796875 217.941406 " style=" stroke:none;fill-rule:nonzero;fill:rgb(0%,40%,90.980392%);fill-opacity:1;" />
<path d="M 272.542969 217.941406 C 272.542969 230.023438 262.75 239.816406 250.667969 239.816406 C 238.589844 239.816406 228.796875 230.023438 228.796875 217.941406 C 228.796875 205.863281 238.589844 196.070312 250.667969 196.070312 C 262.75 196.070312 272.542969 205.863281 272.542969 217.941406 Z M 272.542969 217.941406 " style=" stroke:none;fill-rule:nonzero;fill:rgb(100%,100%,100%);fill-opacity:1;" />
<path d="M 190.664062 300.921875 L 310.671875 300.921875 L 310.671875 335.535156 L 190.664062 335.535156 Z M 190.664062 300.921875 " style=" stroke:none;fill-rule:nonzero;fill:rgb(45.490196%,49.411765%,61.960784%);fill-opacity:1;" />
<path d="M 221.519531 300.921875 L 310.671875 300.921875 L 310.671875 335.535156 L 221.519531 335.535156 Z M 221.519531 300.921875 " style=" stroke:none;fill-rule:nonzero;fill:rgb(27.843137%,30.980392%,43.529412%);fill-opacity:1;" />
<path d="M 310.671875 155.28125 L 250.671875 155.28125 L 250.671875 49.625 C 251.117188 49.625 251.566406 49.644531 252.011719 49.679688 C 252.460938 49.71875 252.90625 49.769531 253.347656 49.84375 C 253.839844 49.925781 254.324219 50.023438 254.808594 50.15625 C 255.199219 50.25 255.585938 50.363281 255.972656 50.496094 C 256.613281 50.714844 257.246094 50.972656 257.863281 51.273438 C 258.273438 51.46875 258.675781 51.6875 259.074219 51.925781 C 259.671875 52.277344 260.25 52.671875 260.808594 53.109375 C 291.160156 76.828125 310.671875 113.777344 310.671875 155.28125 Z M 310.671875 155.28125 " style=" stroke:none;fill-rule:nonzero;fill:rgb(72.941176%,5.098039%,36.078431%);fill-opacity:1;" />
<path d="M 250.671875 300.921875 L 310.671875 300.921875 L 310.671875 335.535156 L 250.671875 335.535156 Z M 250.671875 300.921875 " style=" stroke:none;fill-rule:nonzero;fill:rgb(19.607843%,23.137255%,35.294118%);fill-opacity:1;" />
<path d="M 272.539062 217.941406 C 272.539062 230.019531 262.75 239.816406 250.671875 239.816406 L 250.671875 196.070312 C 262.75 196.070312 272.539062 205.859375 272.539062 217.941406 Z M 272.539062 217.941406 " style=" stroke:none;fill-rule:nonzero;fill:rgb(81.568627%,96.470588%,100%);fill-opacity:1;" />
<path d="M 288.289062 440.800781 C 283.960938 446.597656 280.199219 452.808594 276.84375 459.21875 L 254.804688 501.253906 C 253.765625 503.230469 251.835938 504.21875 249.898438 504.21875 C 247.96875 504.222656 246.03125 503.234375 244.992188 501.253906 L 222.960938 459.21875 C 219.597656 452.808594 215.84375 446.597656 211.507812 440.800781 C 197.511719 422.058594 199.03125 395.394531 216.054688 378.363281 C 225.414062 369.003906 237.65625 364.324219 249.902344 364.324219 C 262.144531 364.324219 274.386719 369.003906 283.742188 378.363281 C 300.773438 395.394531 302.285156 422.058594 288.289062 440.800781 Z M 288.289062 440.800781 " style=" stroke:none;fill-rule:nonzero;fill:rgb(100%,81.960784%,7.058824%);fill-opacity:1;" />
<path d="M 288.289062 440.800781 C 283.960938 446.597656 280.199219 452.808594 276.84375 459.21875 L 254.804688 501.253906 C 253.765625 503.230469 251.835938 504.21875 249.898438 504.21875 L 249.898438 364.324219 C 262.144531 364.324219 274.386719 369.003906 283.742188 378.363281 C 300.773438 395.394531 302.285156 422.058594 288.289062 440.800781 Z M 288.289062 440.800781 " style=" stroke:none;fill-rule:nonzero;fill:rgb(100%,62.352941%,0%);fill-opacity:1;" />
<path d="M 273.324219 410.988281 C 270.683594 414.527344 268.390625 418.316406 266.339844 422.226562 L 252.890625 447.878906 C 252.261719 449.085938 251.082031 449.6875 249.898438 449.6875 C 248.722656 449.6875 247.539062 449.085938 246.90625 447.878906 L 233.460938 422.226562 C 231.410156 418.316406 229.117188 414.527344 226.476562 410.988281 C 217.933594 399.550781 218.859375 383.28125 229.25 372.890625 C 234.957031 367.179688 242.429688 364.328125 249.898438 364.328125 C 257.367188 364.328125 264.84375 367.179688 270.550781 372.890625 C 280.941406 383.28125 281.867188 399.550781 273.324219 410.988281 Z M 273.324219 410.988281 " style=" stroke:none;fill-rule:nonzero;fill:rgb(100%,91.372549%,33.333333%);fill-opacity:1;" />
<path d="M 273.324219 410.988281 C 270.683594 414.527344 268.390625 418.316406 266.339844 422.226562 L 252.890625 447.878906 C 252.261719 449.085938 251.082031 449.6875 249.898438 449.6875 L 249.898438 364.328125 C 257.371094 364.328125 264.84375 367.179688 270.550781 372.890625 C 280.941406 383.28125 281.867188 399.550781 273.324219 410.988281 Z M 273.324219 410.988281 " style=" stroke:none;fill-rule:nonzero;fill:rgb(100%,81.960784%,7.058824%);fill-opacity:1;" />
<path d="M 264.171875 392.753906 C 262.5625 394.910156 261.164062 397.214844 259.914062 399.597656 L 251.722656 415.222656 C 251.335938 415.957031 250.617188 416.328125 249.902344 416.328125 C 249.183594 416.328125 248.464844 415.957031 248.078125 415.222656 L 239.886719 399.597656 C 238.636719 397.214844 237.238281 394.910156 235.628906 392.753906 C 230.429688 385.785156 230.992188 375.875 237.316406 369.546875 C 240.796875 366.066406 245.351562 364.324219 249.898438 364.324219 C 250.058594 364.324219 250.21875 364.324219 250.382812 364.332031 C 254.769531 364.449219 259.125 366.191406 262.480469 369.542969 C 268.808594 375.875 269.371094 385.785156 264.171875 392.753906 Z M 264.171875 392.753906 " style=" stroke:none;fill-rule:nonzero;fill:rgb(100%,100%,100%);fill-opacity:1;" />
<path d="M 264.171875 392.753906 C 262.5625 394.910156 261.164062 397.214844 259.914062 399.597656 L 251.722656 415.222656 C 251.335938 415.957031 250.617188 416.328125 249.902344 416.328125 L 249.902344 364.324219 C 250.0625 364.324219 250.222656 364.324219 250.382812 364.332031 C 254.773438 364.449219 259.125 366.191406 262.480469 369.542969 C 268.808594 375.875 269.371094 385.785156 264.171875 392.753906 Z M 264.171875 392.753906 " style=" stroke:none;fill-rule:nonzero;fill:rgb(100%,91.372549%,33.333333%);fill-opacity:1;" />
<path d="M 402.917969 202.527344 C 402.917969 216.261719 391.839844 227.398438 378.136719 227.492188 L 377.972656 227.492188 C 364.195312 227.492188 353.023438 216.320312 353.023438 202.527344 C 353.023438 188.75 364.195312 177.578125 377.972656 177.578125 L 378.136719 177.578125 C 391.839844 177.671875 402.917969 188.808594 402.917969 202.527344 Z M 402.917969 202.527344 " style=" stroke:none;fill-rule:nonzero;fill:rgb(100%,91.372549%,33.333333%);fill-opacity:1;" />
<path d="M 402.917969 202.527344 C 402.917969 216.261719 391.839844 227.398438 378.136719 227.492188 C 369.363281 222.621094 363.414062 213.269531 363.414062 202.527344 C 363.414062 191.800781 369.363281 182.449219 378.136719 177.578125 C 391.839844 177.671875 402.917969 188.808594 402.917969 202.527344 Z M 402.917969 202.527344 " style=" stroke:none;fill-rule:nonzero;fill:rgb(100%,81.960784%,7.058824%);fill-opacity:1;" />
<path d="M 377.972656 177.578125 C 391.746094 177.578125 402.917969 188.75 402.917969 202.523438 C 402.917969 216.316406 391.746094 227.488281 377.972656 227.488281 " style=" stroke:none;fill-rule:nonzero;fill:rgb(100%,62.352941%,0%);fill-opacity:1;" />
<path d="M 422.789062 205.035156 C 408.476562 205.984375 393.453125 206.484375 377.96875 206.484375 C 362.484375 206.484375 347.464844 205.984375 333.152344 205.035156 C 330.046875 204.828125 330.046875 200.238281 333.152344 200.035156 C 347.464844 199.085938 362.484375 198.585938 377.96875 198.585938 C 393.453125 198.585938 408.472656 199.085938 422.789062 200.035156 C 425.894531 200.238281 425.894531 204.828125 422.789062 205.035156 Z M 422.789062 205.035156 " style=" stroke:none;fill-rule:nonzero;fill:rgb(100%,100%,100%);fill-opacity:1;" />
<path d="M 422.789062 205.035156 C 408.476562 205.984375 393.453125 206.484375 377.96875 206.484375 L 377.96875 198.585938 C 393.453125 198.585938 408.472656 199.085938 422.789062 200.035156 C 425.894531 200.238281 425.894531 204.828125 422.789062 205.035156 Z M 422.789062 205.035156 " style=" stroke:none;fill-rule:nonzero;fill:rgb(81.568627%,96.470588%,100%);fill-opacity:1;" />
<path d="M 124.277344 226.058594 C 124.277344 245.484375 108.613281 261.230469 89.238281 261.359375 L 89.003906 261.359375 C 69.523438 261.359375 53.726562 245.5625 53.726562 226.058594 C 53.726562 206.582031 69.527344 190.78125 89.003906 190.78125 L 89.238281 190.78125 C 108.613281 190.914062 124.277344 206.660156 124.277344 226.058594 Z M 124.277344 226.058594 " style=" stroke:none;fill-rule:nonzero;fill:rgb(100%,100%,100%);fill-opacity:1;" />
<path d="M 124.277344 226.058594 C 124.277344 245.484375 108.613281 261.230469 89.238281 261.359375 C 76.832031 254.472656 68.421875 241.25 68.421875 226.058594 C 68.421875 210.890625 76.832031 197.671875 89.238281 190.78125 C 108.613281 190.914062 124.277344 206.660156 124.277344 226.058594 Z M 124.277344 226.058594 " style=" stroke:none;fill-rule:nonzero;fill:rgb(81.568627%,96.470588%,100%);fill-opacity:1;" />
<path d="M 89.003906 190.78125 C 108.480469 190.78125 124.277344 206.582031 124.277344 226.058594 C 124.277344 245.5625 108.480469 261.359375 89.003906 261.359375 " style=" stroke:none;fill-rule:nonzero;fill:rgb(56.078431%,78.823529%,96.862745%);fill-opacity:1;" />
<path d="M 424.421875 339.410156 C 424.421875 346.800781 418.464844 352.789062 411.09375 352.839844 L 411.003906 352.839844 C 403.59375 352.839844 397.582031 346.832031 397.582031 339.410156 C 397.582031 332 403.59375 325.992188 411.003906 325.992188 L 411.09375 325.992188 C 418.464844 326.039062 424.421875 332.03125 424.421875 339.410156 Z M 424.421875 339.410156 " style=" stroke:none;fill-rule:nonzero;fill:rgb(39.607843%,69.803922%,100%);fill-opacity:1;" />
<path d="M 424.421875 339.410156 C 424.421875 346.800781 418.464844 352.789062 411.09375 352.839844 C 406.371094 350.222656 403.171875 345.191406 403.171875 339.410156 C 403.171875 333.640625 406.371094 328.609375 411.09375 325.992188 C 418.464844 326.039062 424.421875 332.03125 424.421875 339.410156 Z M 424.421875 339.410156 " style=" stroke:none;fill-rule:nonzero;fill:rgb(5.882353%,60.784314%,90.980392%);fill-opacity:1;" />
<path d="M 411.003906 325.992188 C 418.414062 325.992188 424.421875 332 424.421875 339.410156 C 424.421875 346.832031 418.414062 352.839844 411.003906 352.839844 " style=" stroke:none;fill-rule:nonzero;fill:rgb(0%,40%,90.980392%);fill-opacity:1;" />
<path d="M 429.539062 340.761719 C 423.621094 341.269531 417.40625 341.539062 411.003906 341.539062 C 404.597656 341.539062 398.386719 341.269531 392.464844 340.761719 C 391.183594 340.652344 391.183594 338.179688 392.464844 338.070312 C 398.386719 337.5625 404.597656 337.289062 411.003906 337.289062 C 417.40625 337.289062 423.621094 337.5625 429.539062 338.070312 C 430.824219 338.179688 430.824219 340.652344 429.539062 340.761719 Z M 429.539062 340.761719 " style=" stroke:none;fill-rule:nonzero;fill:rgb(40.784314%,98.823529%,87.45098%);fill-opacity:1;" />
<path d="M 429.539062 340.761719 C 423.621094 341.269531 417.40625 341.539062 411.003906 341.539062 L 411.003906 337.289062 C 417.40625 337.289062 423.621094 337.5625 429.539062 338.070312 C 430.824219 338.179688 430.824219 340.652344 429.539062 340.761719 Z M 429.539062 340.761719 " style=" stroke:none;fill-rule:nonzero;fill:rgb(10.196078%,72.941176%,62.352941%);fill-opacity:1;" />
<path d="M 79.738281 317.246094 L 78.214844 317.246094 C 71.460938 317.246094 65.988281 311.769531 65.988281 305.019531 L 65.988281 303.492188 L 57.269531 303.492188 L 57.269531 305.019531 C 57.269531 311.769531 51.796875 317.246094 45.042969 317.246094 L 43.519531 317.246094 L 43.519531 325.960938 L 45.046875 325.960938 C 51.796875 325.960938 57.273438 331.433594 57.273438 338.1875 L 57.273438 339.714844 L 65.988281 339.714844 L 65.988281 338.1875 C 65.988281 331.433594 71.460938 325.960938 78.214844 325.960938 L 79.738281 325.960938 Z M 79.738281 317.246094 " style=" stroke:none;fill-rule:nonzero;fill:rgb(100%,100%,100%);fill-opacity:1;" />
<path d="M 484.230469 246.140625 L 482.707031 246.140625 C 475.953125 246.140625 470.480469 240.664062 470.480469 233.910156 L 470.480469 232.386719 L 461.765625 232.386719 L 461.765625 233.910156 C 461.765625 240.664062 456.289062 246.140625 449.535156 246.140625 L 448.011719 246.140625 L 448.011719 254.855469 L 449.535156 254.855469 C 456.289062 254.855469 461.765625 260.328125 461.765625 267.082031 L 461.765625 268.605469 L 470.480469 268.605469 L 470.480469 267.082031 C 470.480469 260.328125 475.953125 254.855469 482.707031 254.855469 L 484.230469 254.855469 Z M 484.230469 246.140625 " style=" stroke:none;fill-rule:nonzero;fill:rgb(100%,100%,100%);fill-opacity:1;" />
<path d="M 377.972656 68.28125 L 376.445312 68.28125 C 369.695312 68.28125 364.21875 62.808594 364.21875 56.054688 L 364.21875 54.53125 L 355.503906 54.53125 L 355.503906 56.054688 C 355.503906 62.808594 350.03125 68.28125 343.277344 68.28125 L 341.753906 68.28125 L 341.753906 76.996094 L 343.277344 76.996094 C 350.03125 76.996094 355.503906 82.472656 355.503906 89.222656 L 355.503906 90.75 L 364.21875 90.75 L 364.21875 89.222656 C 364.21875 82.472656 369.695312 76.996094 376.445312 76.996094 L 377.972656 76.996094 Z M 377.972656 68.28125 " style=" stroke:none;fill-rule:nonzero;fill:rgb(100%,100%,100%);fill-opacity:1;" />
<path d="M 174.007812 80.644531 L 172.484375 80.644531 C 165.730469 80.644531 160.257812 75.171875 160.257812 68.417969 L 160.257812 66.894531 L 151.539062 66.894531 L 151.539062 68.417969 C 151.539062 75.171875 146.066406 80.644531 139.3125 80.644531 L 137.789062 80.644531 L 137.789062 89.363281 L 139.3125 89.363281 C 146.066406 89.363281 151.539062 94.835938 151.539062 101.589844 L 151.539062 103.113281 L 160.257812 103.113281 L 160.257812 101.589844 C 160.257812 94.835938 165.730469 89.363281 172.484375 89.363281 L 174.007812 89.363281 Z M 174.007812 80.644531 " style=" stroke:none;fill-rule:nonzero;fill:rgb(100%,100%,100%);fill-opacity:1;" />
</g>
</svg>