<svg xmlns="http://www.w3.org/2000/svg" height="512pt" version="1.1" viewBox="0 0 512 512" width="512pt">
<g id="surface1">
<path d="M 512 256 C 512 397.386719 397.386719 512 256 512 C 114.613281 512 0 397.386719 0 256 C 0 114.613281 114.613281 0 256 0 C 397.386719 0 512 114.613281 512 256 Z M 512 256 " style=" stroke:none;fill-rule:nonzero;fill:rgb(39.607843%,69.803922%,100%);fill-opacity:1;" />
<path d="M 512 256 C 512 282.050781 508.109375 307.191406 500.871094 330.871094 C 468.859375 435.71875 371.328125 512 256 512 C 151.441406 512 61.511719 449.300781 21.769531 359.449219 C 7.769531 327.820312 0 292.820312 0 256 C 0 209.78125 12.25 166.429688 33.679688 129 C 77.800781 206.070312 160.839844 258 256 258 C 351.160156 258 434.210938 206.070312 478.320312 129 C 499.75 166.429688 512 209.78125 512 256 Z M 512 256 " style=" stroke:none;fill-rule:nonzero;fill:rgb(5.882353%,60.784314%,90.980392%);fill-opacity:1;" />
<path d="M 30.742188 377.703125 C 37.898438 390.921875 46.171875 403.441406 55.460938 415.128906 C 102.359375 474.148438 174.761719 512 256 512 C 337.238281 512 409.640625 474.148438 456.539062 415.128906 C 465.828125 403.441406 474.101562 390.921875 481.257812 377.703125 Z M 30.742188 377.703125 " style=" stroke:none;fill-rule:nonzero;fill:rgb(0%,40%,90.980392%);fill-opacity:1;" />
<path d="M 393.511719 471.960938 C 379.960938 480.609375 365.550781 488.019531 350.421875 494.019531 C 321.199219 505.621094 289.351562 512 256 512 C 227.53125 512 200.148438 507.351562 174.570312 498.769531 C 170.191406 497.300781 165.851562 495.71875 161.578125 494.019531 C 146.449219 488.019531 132.039062 480.609375 118.488281 471.960938 L 141.230469 452.378906 C 146.691406 447.679688 153.640625 445.101562 160.839844 445.101562 L 351.160156 445.101562 C 358.359375 445.101562 365.308594 447.679688 370.769531 452.378906 Z M 393.511719 471.960938 " style=" stroke:none;fill-rule:nonzero;fill:rgb(45.490196%,49.411765%,61.960784%);fill-opacity:1;" />
<path d="M 393.511719 471.960938 C 379.960938 480.609375 365.550781 488.019531 350.421875 494.019531 C 321.199219 505.621094 289.351562 512 256 512 C 227.53125 512 200.148438 507.351562 174.570312 498.769531 L 174.570312 445.101562 L 351.160156 445.101562 C 358.359375 445.101562 365.308594 447.679688 370.769531 452.378906 Z M 393.511719 471.960938 " style=" stroke:none;fill-rule:nonzero;fill:rgb(27.843137%,30.980392%,43.529412%);fill-opacity:1;" />
<path d="M 393.511719 471.960938 C 379.960938 480.609375 365.550781 488.019531 350.421875 494.019531 C 321.199219 505.621094 289.351562 512 256 512 L 256 445.101562 L 351.160156 445.101562 C 358.359375 445.101562 365.308594 447.679688 370.769531 452.378906 Z M 393.511719 471.960938 " style=" stroke:none;fill-rule:nonzero;fill:rgb(19.607843%,23.137255%,35.294118%);fill-opacity:1;" />
<path d="M 393.511719 471.960938 C 379.960938 480.609375 365.550781 488.019531 350.421875 494.019531 L 161.578125 494.019531 C 146.449219 488.019531 132.039062 480.609375 118.488281 471.960938 L 141.230469 452.378906 C 146.691406 447.679688 153.640625 445.101562 160.839844 445.101562 L 351.160156 445.101562 C 358.359375 445.101562 365.308594 447.679688 370.769531 452.378906 Z M 393.511719 471.960938 " style=" stroke:none;fill-rule:nonzero;fill:rgb(100%,100%,100%);fill-opacity:1;" />
<path d="M 393.511719 471.960938 C 379.960938 480.609375 365.550781 488.019531 350.421875 494.019531 L 172.960938 494.019531 L 174.570312 491.808594 L 208.539062 445.101562 L 351.160156 445.101562 C 358.359375 445.101562 365.308594 447.679688 370.769531 452.378906 Z M 393.511719 471.960938 " style=" stroke:none;fill-rule:nonzero;fill:rgb(81.568627%,96.470588%,100%);fill-opacity:1;" />
<path d="M 393.511719 471.960938 C 379.960938 480.609375 365.550781 488.019531 350.421875 494.019531 L 256 494.019531 L 256 445.101562 L 351.160156 445.101562 C 358.359375 445.101562 365.308594 447.679688 370.769531 452.378906 Z M 393.511719 471.960938 " style=" stroke:none;fill-rule:nonzero;fill:rgb(56.078431%,78.823529%,96.862745%);fill-opacity:1;" />
<path d="M 432.664062 431.824219 L 432.664062 433.570312 L 363.488281 433.570312 L 363.488281 431.824219 C 363.488281 425.882812 364.984375 420.292969 367.628906 415.402344 C 373.476562 404.585938 384.921875 397.234375 398.078125 397.234375 C 398.386719 397.234375 398.6875 397.242188 398.992188 397.246094 C 411.769531 397.578125 422.8125 404.839844 428.527344 415.402344 C 431.167969 420.292969 432.664062 425.882812 432.664062 431.824219 Z M 432.664062 431.824219 " style=" stroke:none;fill-rule:nonzero;fill:rgb(100%,100%,100%);fill-opacity:1;" />
<path d="M 432.664062 431.824219 L 432.664062 433.570312 L 378.46875 433.570312 L 378.46875 431.601562 C 378.46875 424.902344 380.15625 418.597656 383.136719 413.089844 C 386.761719 406.386719 392.289062 400.863281 398.996094 397.25 C 411.769531 397.582031 422.8125 404.839844 428.527344 415.402344 C 431.167969 420.292969 432.664062 425.882812 432.664062 431.824219 Z M 432.664062 431.824219 " style=" stroke:none;fill-rule:nonzero;fill:rgb(81.568627%,96.470588%,100%);fill-opacity:1;" />
<path d="M 432.664062 431.824219 L 432.664062 433.570312 L 398.078125 433.570312 L 398.078125 397.234375 C 411.238281 397.234375 422.679688 404.585938 428.527344 415.402344 C 431.167969 420.292969 432.664062 425.882812 432.664062 431.824219 Z M 432.664062 431.824219 " style=" stroke:none;fill-rule:nonzero;fill:rgb(56.078431%,78.823529%,96.862745%);fill-opacity:1;" />
<path d="M 432.664062 431.824219 L 432.664062 433.570312 L 363.488281 433.570312 L 363.488281 431.824219 C 363.488281 425.882812 364.984375 420.292969 367.628906 415.402344 L 428.527344 415.402344 C 431.167969 420.292969 432.664062 425.882812 432.664062 431.824219 Z M 432.664062 431.824219 " style=" stroke:none;fill-rule:nonzero;fill:rgb(100%,91.372549%,33.333333%);fill-opacity:1;" />
<path d="M 432.664062 431.824219 L 432.664062 433.570312 L 378.46875 433.570312 L 378.46875 431.601562 C 378.46875 425.820312 379.726562 420.335938 381.984375 415.402344 L 428.527344 415.402344 C 431.167969 420.292969 432.664062 425.882812 432.664062 431.824219 Z M 432.664062 431.824219 " style=" stroke:none;fill-rule:nonzero;fill:rgb(100%,81.960784%,7.058824%);fill-opacity:1;" />
<path d="M 432.664062 431.824219 L 432.664062 433.570312 L 398.078125 433.570312 L 398.078125 415.402344 L 428.527344 415.402344 C 431.167969 420.292969 432.664062 425.882812 432.664062 431.824219 Z M 432.664062 431.824219 " style=" stroke:none;fill-rule:nonzero;fill:rgb(100%,62.352941%,0%);fill-opacity:1;" />
<path d="M 209.824219 365.707031 L 302.171875 365.707031 L 302.171875 418.769531 L 209.824219 418.769531 Z M 209.824219 365.707031 " style=" stroke:none;fill-rule:nonzero;fill:rgb(56.078431%,78.823529%,96.862745%);fill-opacity:1;" />
<path d="M 256 365.707031 L 302.171875 365.707031 L 302.171875 418.769531 L 256 418.769531 Z M 256 365.707031 " style=" stroke:none;fill-rule:nonzero;fill:rgb(5.882353%,60.784314%,90.980392%);fill-opacity:1;" />
<path d="M 413.929688 173.484375 L 413.929688 361.132812 C 413.929688 370.898438 406.015625 378.808594 396.253906 378.808594 L 115.742188 378.808594 C 105.984375 378.808594 98.070312 370.898438 98.070312 361.132812 L 98.070312 173.484375 C 98.070312 163.726562 105.984375 155.816406 115.742188 155.816406 L 396.253906 155.816406 C 406.015625 155.816406 413.929688 163.726562 413.929688 173.484375 Z M 413.929688 173.484375 " style=" stroke:none;fill-rule:nonzero;fill:rgb(100%,100%,100%);fill-opacity:1;" />
<path d="M 413.929688 173.484375 L 413.929688 361.132812 C 413.929688 370.898438 406.015625 378.808594 396.253906 378.808594 L 174.566406 378.808594 L 174.566406 155.816406 L 396.253906 155.816406 C 406.015625 155.816406 413.929688 163.726562 413.929688 173.484375 Z M 413.929688 173.484375 " style=" stroke:none;fill-rule:nonzero;fill:rgb(81.568627%,96.470588%,100%);fill-opacity:1;" />
<path d="M 413.929688 173.484375 L 413.929688 361.132812 C 413.929688 370.898438 406.015625 378.808594 396.253906 378.808594 L 255.996094 378.808594 L 255.996094 155.816406 L 396.253906 155.816406 C 406.015625 155.816406 413.929688 163.726562 413.929688 173.484375 Z M 413.929688 173.484375 " style=" stroke:none;fill-rule:nonzero;fill:rgb(56.078431%,78.823529%,96.862745%);fill-opacity:1;" />
<path d="M 387.121094 195.09375 L 387.121094 339.523438 C 387.121094 347.035156 381.035156 353.128906 373.523438 353.128906 L 138.476562 353.128906 C 130.960938 353.128906 124.871094 347.035156 124.871094 339.523438 L 124.871094 195.09375 C 124.871094 187.582031 130.960938 181.496094 138.476562 181.496094 L 373.523438 181.496094 C 381.035156 181.496094 387.121094 187.582031 387.121094 195.09375 Z M 387.121094 195.09375 " style=" stroke:none;fill-rule:nonzero;fill:rgb(45.490196%,49.411765%,61.960784%);fill-opacity:1;" />
<path d="M 387.121094 195.09375 L 387.121094 339.523438 C 387.121094 347.035156 381.035156 353.128906 373.523438 353.128906 L 174.566406 353.128906 L 174.566406 181.496094 L 373.523438 181.496094 C 381.035156 181.496094 387.121094 187.582031 387.121094 195.09375 Z M 387.121094 195.09375 " style=" stroke:none;fill-rule:nonzero;fill:rgb(27.843137%,30.980392%,43.529412%);fill-opacity:1;" />
<path d="M 387.121094 195.09375 L 387.121094 339.523438 C 387.121094 347.035156 381.035156 353.128906 373.523438 353.128906 L 255.996094 353.128906 L 255.996094 181.496094 L 373.523438 181.496094 C 381.035156 181.496094 387.121094 187.582031 387.121094 195.09375 Z M 387.121094 195.09375 " style=" stroke:none;fill-rule:nonzero;fill:rgb(19.607843%,23.137255%,35.294118%);fill-opacity:1;" />
<path d="M 162.734375 397.53125 L 349.265625 397.53125 L 349.265625 418.769531 L 162.734375 418.769531 Z M 162.734375 397.53125 " style=" stroke:none;fill-rule:nonzero;fill:rgb(100%,100%,100%);fill-opacity:1;" />
<path d="M 209.824219 397.53125 L 349.265625 397.53125 L 349.265625 418.769531 L 209.824219 418.769531 Z M 209.824219 397.53125 " style=" stroke:none;fill-rule:nonzero;fill:rgb(81.568627%,96.470588%,100%);fill-opacity:1;" />
<path d="M 256 397.53125 L 349.265625 397.53125 L 349.265625 418.769531 L 256 418.769531 Z M 256 397.53125 " style=" stroke:none;fill-rule:nonzero;fill:rgb(56.078431%,78.823529%,96.862745%);fill-opacity:1;" />
<path d="M 349.742188 216.199219 L 349.742188 314.222656 C 349.742188 318.96875 345.894531 322.820312 341.144531 322.820312 L 170.855469 322.820312 C 166.105469 322.820312 162.257812 318.96875 162.257812 314.222656 L 162.257812 216.199219 C 162.257812 211.453125 166.105469 207.605469 170.855469 207.605469 L 341.144531 207.605469 C 345.894531 207.605469 349.742188 211.453125 349.742188 216.199219 Z M 349.742188 216.199219 " style=" stroke:none;fill-rule:nonzero;fill:rgb(100%,100%,100%);fill-opacity:1;" />
<path d="M 349.742188 216.199219 L 349.742188 232.089844 L 162.257812 232.089844 L 162.257812 216.199219 C 162.257812 211.453125 166.105469 207.605469 170.855469 207.605469 L 341.144531 207.605469 C 345.894531 207.605469 349.742188 211.453125 349.742188 216.199219 Z M 349.742188 216.199219 " style=" stroke:none;fill-rule:nonzero;fill:rgb(100%,20.392157%,27.058824%);fill-opacity:1;" />
<path d="M 174.835938 245.136719 L 239.417969 245.136719 L 239.417969 257.179688 L 174.835938 257.179688 Z M 174.835938 245.136719 " style=" stroke:none;fill-rule:nonzero;fill:rgb(27.843137%,30.980392%,43.529412%);fill-opacity:1;" />
<path d="M 174.835938 271.230469 L 274.199219 271.230469 L 274.199219 283.273438 L 174.835938 283.273438 Z M 174.835938 271.230469 " style=" stroke:none;fill-rule:nonzero;fill:rgb(27.843137%,30.980392%,43.529412%);fill-opacity:1;" />
<path d="M 174.835938 297.324219 L 274.199219 297.324219 L 274.199219 309.367188 L 174.835938 309.367188 Z M 174.835938 297.324219 " style=" stroke:none;fill-rule:nonzero;fill:rgb(27.843137%,30.980392%,43.529412%);fill-opacity:1;" />
<path d="M 337.351562 62.71875 C 326.441406 51.800781 313.71875 43.339844 299.878906 37.601562 C 286.039062 31.871094 271.058594 28.859375 255.621094 28.859375 C 224.75 28.859375 195.71875 40.890625 173.878906 62.71875 C 169.980469 66.621094 169.980469 72.960938 173.878906 76.859375 C 175.839844 78.808594 178.398438 79.789062 180.960938 79.789062 C 183.511719 79.789062 186.070312 78.808594 188.03125 76.859375 C 206.078125 58.808594 230.089844 48.859375 255.621094 48.859375 C 281.148438 48.859375 305.160156 58.808594 323.210938 76.859375 C 327.121094 80.761719 333.449219 80.761719 337.351562 76.859375 C 341.261719 72.960938 341.261719 66.621094 337.351562 62.71875 Z M 280.730469 119.339844 C 274.019531 112.640625 265.101562 108.949219 255.621094 108.949219 C 246.128906 108.949219 237.21875 112.640625 230.511719 119.339844 C 226.601562 123.25 226.609375 129.578125 230.511719 133.488281 C 234.421875 137.390625 240.75 137.390625 244.648438 133.488281 C 247.578125 130.558594 251.480469 128.949219 255.621094 128.949219 C 259.761719 128.949219 263.660156 130.558594 266.589844 133.488281 C 268.539062 135.441406 271.101562 136.421875 273.660156 136.421875 C 276.21875 136.421875 278.78125 135.441406 280.730469 133.488281 C 284.628906 129.578125 284.628906 123.25 280.730469 119.339844 Z M 280.730469 119.339844 " style=" stroke:none;fill-rule:nonzero;fill:rgb(100%,100%,100%);fill-opacity:1;" />
<path d="M 301.023438 109.050781 C 298.464844 109.050781 295.90625 108.074219 293.953125 106.121094 C 272.816406 84.984375 238.421875 84.984375 217.285156 106.121094 C 213.382812 110.023438 207.050781 110.023438 203.144531 106.121094 C 199.238281 102.214844 199.238281 95.882812 203.144531 91.976562 C 232.078125 63.042969 279.160156 63.042969 308.09375 91.976562 C 312 95.882812 312 102.214844 308.09375 106.121094 C 306.140625 108.074219 303.582031 109.050781 301.023438 109.050781 Z M 301.023438 109.050781 " style=" stroke:none;fill-rule:nonzero;fill:rgb(100%,100%,100%);fill-opacity:1;" />
<path d="M 273.65625 136.414062 C 271.097656 136.414062 268.539062 135.4375 266.585938 133.488281 C 263.65625 130.558594 259.761719 128.945312 255.617188 128.945312 C 251.476562 128.945312 247.582031 130.558594 244.652344 133.488281 C 240.746094 137.390625 234.414062 137.390625 230.511719 133.488281 C 226.605469 129.582031 226.605469 123.25 230.511719 119.34375 C 237.21875 112.636719 246.136719 108.945312 255.621094 108.945312 C 265.105469 108.945312 274.023438 112.636719 280.730469 119.34375 C 284.632812 123.25 284.632812 129.582031 280.730469 133.488281 C 278.773438 135.4375 276.21875 136.414062 273.65625 136.414062 Z M 273.65625 136.414062 " style=" stroke:none;fill-rule:nonzero;fill:rgb(100%,100%,100%);fill-opacity:1;" />
</g>
</svg>