<svg xmlns="http://www.w3.org/2000/svg" height="512pt" version="1.1" viewBox="0 0 512 512" width="512pt">
<g id="surface1">
<path d="M 512 256 C 512 397.386719 397.386719 512 256 512 C 114.613281 512 0 397.386719 0 256 C 0 114.613281 114.613281 0 256 0 C 397.386719 0 512 114.613281 512 256 Z M 512 256 " style=" stroke:none;fill-rule:nonzero;fill:rgb(100%,91.372549%,33.333333%);fill-opacity:1;" />
<path d="M 512 256 C 512 282.050781 508.109375 307.191406 500.871094 330.871094 C 468.859375 435.71875 371.328125 512 256 512 C 151.441406 512 61.511719 449.300781 21.769531 359.449219 C 7.769531 327.820312 0 292.820312 0 256 C 0 209.78125 12.25 166.429688 33.679688 129 C 77.800781 206.070312 160.839844 258 256 258 C 351.160156 258 434.210938 206.070312 478.320312 129 C 499.75 166.429688 512 209.78125 512 256 Z M 512 256 " style=" stroke:none;fill-rule:nonzero;fill:rgb(100%,81.960784%,7.058824%);fill-opacity:1;" />
<path d="M 30.742188 377.703125 C 37.898438 390.921875 46.171875 403.441406 55.460938 415.128906 C 102.359375 474.148438 174.761719 512 256 512 C 337.238281 512 409.640625 474.148438 456.539062 415.128906 C 465.828125 403.441406 474.101562 390.921875 481.257812 377.703125 Z M 30.742188 377.703125 " style=" stroke:none;fill-rule:nonzero;fill:rgb(100%,62.352941%,0%);fill-opacity:1;" />
<path d="M 278.824219 72.210938 L 278.824219 125.4375 L 233.175781 125.4375 L 233.175781 65.136719 C 233.175781 59.730469 238.238281 55.757812 243.492188 57.039062 L 256 60.09375 L 272.464844 64.113281 C 276.199219 65.027344 278.824219 68.371094 278.824219 72.210938 Z M 278.824219 72.210938 " style=" stroke:none;fill-rule:nonzero;fill:rgb(5.882353%,60.784314%,90.980392%);fill-opacity:1;" />
<path d="M 278.824219 72.210938 L 278.824219 125.4375 L 256 125.4375 L 256 60.09375 L 272.464844 64.113281 C 276.199219 65.027344 278.824219 68.371094 278.824219 72.210938 Z M 278.824219 72.210938 " style=" stroke:none;fill-rule:nonzero;fill:rgb(0%,40%,90.980392%);fill-opacity:1;" />
<path d="M 360.960938 257.441406 L 360.960938 317.578125 L 353.378906 492.820312 C 323.359375 505.179688 290.480469 512 256 512 C 239 512 222.378906 510.339844 206.308594 507.179688 C 206.160156 507.148438 206.019531 507.121094 205.878906 507.089844 C 189.511719 503.839844 173.699219 499.03125 158.621094 492.820312 L 151.039062 317.578125 L 151.039062 257.441406 C 151.039062 253.238281 154.441406 249.828125 158.648438 249.828125 L 170.960938 249.828125 L 170.960938 234.210938 C 170.960938 229.351562 172.25 224.578125 174.691406 220.390625 L 230.140625 125.441406 L 230.140625 94.53125 L 281.851562 94.53125 L 281.851562 125.441406 L 337.300781 220.390625 C 339.75 224.578125 341.039062 229.351562 341.039062 234.210938 L 341.039062 249.828125 L 353.351562 249.828125 C 357.558594 249.828125 360.960938 253.238281 360.960938 257.441406 Z M 360.960938 257.441406 " style=" stroke:none;fill-rule:nonzero;fill:rgb(45.490196%,49.411765%,61.960784%);fill-opacity:1;" />
<path d="M 360.960938 257.441406 L 360.960938 317.578125 L 353.378906 492.820312 C 323.359375 505.179688 290.480469 512 256 512 C 239 512 222.378906 510.339844 206.308594 507.179688 L 204.320312 317.578125 L 203.609375 249.828125 L 203.519531 241.480469 L 246.511719 125.441406 L 246.511719 94.53125 L 281.851562 94.53125 L 281.851562 125.441406 L 337.300781 220.390625 C 339.75 224.578125 341.039062 229.351562 341.039062 234.210938 L 341.039062 249.828125 L 353.351562 249.828125 C 357.558594 249.828125 360.960938 253.238281 360.960938 257.441406 Z M 360.960938 257.441406 " style=" stroke:none;fill-rule:nonzero;fill:rgb(27.843137%,30.980392%,43.529412%);fill-opacity:1;" />
<path d="M 360.960938 257.441406 L 360.960938 317.578125 L 353.378906 492.820312 C 323.359375 505.179688 290.480469 512 256 512 L 256 94.53125 L 281.851562 94.53125 L 281.851562 125.441406 L 337.300781 220.390625 C 339.75 224.578125 341.039062 229.351562 341.039062 234.210938 L 341.039062 249.828125 L 353.351562 249.828125 C 357.558594 249.828125 360.960938 253.238281 360.960938 257.441406 Z M 360.960938 257.441406 " style=" stroke:none;fill-rule:nonzero;fill:rgb(19.607843%,23.137255%,35.294118%);fill-opacity:1;" />
<path d="M 360.960938 257.441406 L 360.960938 317.578125 L 353.378906 492.820312 C 323.359375 505.179688 290.480469 512 256 512 C 239 512 222.378906 510.339844 206.308594 507.179688 C 206.160156 507.148438 206.019531 507.121094 205.878906 507.089844 C 189.511719 503.839844 173.699219 499.03125 158.621094 492.820312 L 151.039062 317.578125 L 151.039062 257.441406 C 151.039062 253.238281 154.441406 249.828125 158.648438 249.828125 L 353.351562 249.828125 C 357.558594 249.828125 360.960938 253.238281 360.960938 257.441406 Z M 360.960938 257.441406 " style=" stroke:none;fill-rule:nonzero;fill:rgb(45.490196%,49.411765%,61.960784%);fill-opacity:1;" />
<path d="M 360.960938 257.441406 L 360.960938 317.578125 L 353.378906 492.820312 C 323.359375 505.179688 290.480469 512 256 512 C 239 512 222.378906 510.339844 206.308594 507.179688 L 204.320312 317.578125 L 203.609375 249.828125 L 353.351562 249.828125 C 357.558594 249.828125 360.960938 253.238281 360.960938 257.441406 Z M 360.960938 257.441406 " style=" stroke:none;fill-rule:nonzero;fill:rgb(27.843137%,30.980392%,43.529412%);fill-opacity:1;" />
<path d="M 360.960938 257.441406 L 360.960938 317.578125 L 353.378906 492.820312 C 323.359375 505.179688 290.480469 512 256 512 L 256 249.828125 L 353.351562 249.828125 C 357.558594 249.828125 360.960938 253.238281 360.960938 257.441406 Z M 360.960938 257.441406 " style=" stroke:none;fill-rule:nonzero;fill:rgb(19.607843%,23.137255%,35.294118%);fill-opacity:1;" />
<path d="M 360.960938 317.578125 L 353.378906 492.820312 C 323.359375 505.179688 290.480469 512 256 512 C 239 512 222.378906 510.339844 206.308594 507.179688 C 206.160156 507.148438 206.019531 507.121094 205.878906 507.089844 C 189.511719 503.839844 173.699219 499.03125 158.621094 492.820312 L 151.039062 317.578125 Z M 360.960938 317.578125 " style=" stroke:none;fill-rule:nonzero;fill:rgb(39.607843%,69.803922%,100%);fill-opacity:1;" />
<path d="M 360.960938 317.578125 L 353.378906 492.820312 C 323.359375 505.179688 290.480469 512 256 512 C 239 512 222.378906 510.339844 206.308594 507.179688 C 206.160156 507.148438 206.019531 507.121094 205.878906 507.089844 L 203.519531 317.578125 Z M 360.960938 317.578125 " style=" stroke:none;fill-rule:nonzero;fill:rgb(5.882353%,60.784314%,90.980392%);fill-opacity:1;" />
<path d="M 360.960938 317.578125 L 353.378906 492.820312 C 323.359375 505.179688 290.480469 512 256 512 L 256 317.578125 Z M 360.960938 317.578125 " style=" stroke:none;fill-rule:nonzero;fill:rgb(0%,40%,90.980392%);fill-opacity:1;" />
<path d="M 230.140625 94.53125 L 281.851562 94.53125 L 281.851562 125.4375 L 230.140625 125.4375 Z M 230.140625 94.53125 " style=" stroke:none;fill-rule:nonzero;fill:rgb(27.843137%,30.980392%,43.529412%);fill-opacity:1;" />
<path d="M 256 94.53125 L 281.851562 94.53125 L 281.851562 125.4375 L 256 125.4375 Z M 256 94.53125 " style=" stroke:none;fill-rule:nonzero;fill:rgb(19.607843%,23.137255%,35.294118%);fill-opacity:1;" />
</g>
</svg>