<svg xmlns="http://www.w3.org/2000/svg" height="512pt" version="1.1" viewBox="0 0 512 512" width="512pt">
<g id="surface1">
<path d="M 512 256 C 512 397.386719 397.386719 512 256 512 C 114.613281 512 0 397.386719 0 256 C 0 114.613281 114.613281 0 256 0 C 397.386719 0 512 114.613281 512 256 Z M 512 256 " style=" stroke:none;fill-rule:nonzero;fill:rgb(40.784314%,98.823529%,87.45098%);fill-opacity:1;" />
<path d="M 512 256 C 512 282.050781 508.109375 307.191406 500.871094 330.871094 C 468.859375 435.71875 371.328125 512 256 512 C 151.441406 512 61.511719 449.300781 21.769531 359.449219 C 7.769531 327.820312 0 292.820312 0 256 C 0 209.78125 12.25 166.429688 33.679688 129 C 77.800781 206.070312 160.839844 258 256 258 C 351.160156 258 434.210938 206.070312 478.320312 129 C 499.75 166.429688 512 209.78125 512 256 Z M 512 256 " style=" stroke:none;fill-rule:nonzero;fill:rgb(6.27451%,88.627451%,76.862745%);fill-opacity:1;" />
<path d="M 30.742188 377.703125 C 37.898438 390.921875 46.171875 403.441406 55.460938 415.128906 C 102.359375 474.148438 174.761719 512 256 512 C 337.238281 512 409.640625 474.148438 456.539062 415.128906 C 465.828125 403.441406 474.101562 390.921875 481.257812 377.703125 Z M 30.742188 377.703125 " style=" stroke:none;fill-rule:nonzero;fill:rgb(27.843137%,30.980392%,43.529412%);fill-opacity:1;" />
<path d="M 300.398438 212.601562 L 300.398438 450.160156 L 89.160156 450.160156 C 79.359375 441.738281 70.210938 432.589844 61.789062 422.789062 C 52.238281 411.691406 43.628906 399.75 36.089844 387.109375 C 33.710938 383.148438 31.449219 379.109375 29.289062 375.011719 C 21.390625 359.988281 14.929688 344.078125 10.109375 327.46875 L 7.011719 315.738281 L 27.789062 306 L 50.308594 295.449219 L 55.511719 293.011719 L 61.371094 290.261719 C 69.800781 286.308594 77.121094 280.730469 83.03125 273.988281 C 83.730469 273.191406 84.398438 272.378906 85.050781 271.550781 C 88.21875 267.589844 90.921875 263.261719 93.101562 258.671875 C 96.261719 251.988281 98.320312 244.75 99.101562 237.210938 C 99.339844 234.941406 99.460938 232.660156 99.460938 230.351562 L 99.460938 210.679688 L 298.46875 210.679688 C 299.53125 210.679688 300.398438 211.539062 300.398438 212.601562 Z M 300.398438 212.601562 " style=" stroke:none;fill-rule:nonzero;fill:rgb(92.941176%,46.666667%,10.588235%);fill-opacity:1;" />
<path d="M 300.398438 212.601562 L 300.398438 422.789062 L 61.789062 422.789062 C 52.238281 411.691406 43.628906 399.75 36.089844 387.109375 C 33.710938 383.148438 31.449219 379.109375 29.289062 375.011719 C 39.949219 355.429688 57.53125 339.660156 80.488281 327.46875 C 82 326.660156 83.539062 325.871094 85.101562 325.101562 L 125.851562 306 L 153.570312 293.011719 L 159.441406 290.261719 C 168.859375 285.851562 176.898438 279.390625 183.140625 271.550781 C 186.300781 267.578125 188.988281 263.25 191.171875 258.671875 C 194.328125 251.980469 196.390625 244.738281 197.171875 237.210938 C 197.410156 234.949219 197.53125 232.660156 197.53125 230.351562 L 197.53125 212.601562 C 197.53125 211.539062 198.390625 210.679688 199.449219 210.679688 L 298.46875 210.679688 C 299.53125 210.679688 300.398438 211.539062 300.398438 212.601562 Z M 300.398438 212.601562 " style=" stroke:none;fill-rule:nonzero;fill:rgb(65.098039%,22.352941%,7.843137%);fill-opacity:1;" />
<path d="M 212.707031 238.554688 C 218.550781 244.714844 217.652344 251.613281 213.738281 255.527344 C 211.792969 257.472656 209.105469 258.671875 206.148438 258.671875 L 93.097656 258.671875 C 96.257812 251.992188 98.324219 244.75 99.105469 237.210938 L 209.488281 237.210938 C 210.695312 237.210938 211.875 237.679688 212.707031 238.554688 Z M 212.707031 238.554688 " style=" stroke:none;fill-rule:nonzero;fill:rgb(100%,100%,100%);fill-opacity:1;" />
<path d="M 188.886719 272.855469 C 194.828125 278.949219 193.945312 285.953125 190.007812 289.871094 C 188.074219 291.8125 185.394531 293.011719 182.425781 293.011719 L 55.507812 293.011719 L 61.375 290.265625 C 69.796875 286.316406 77.117188 280.730469 83.027344 273.984375 C 83.730469 273.1875 84.402344 272.382812 85.050781 271.550781 L 185.707031 271.550781 C 186.894531 271.550781 188.054688 272.003906 188.886719 272.855469 Z M 188.886719 272.855469 " style=" stroke:none;fill-rule:nonzero;fill:rgb(100%,100%,100%);fill-opacity:1;" />
<path d="M 10.109375 327.46875 L 130.320312 327.46875 C 133.28125 327.46875 135.96875 326.269531 137.910156 324.328125 C 141.839844 320.390625 142.730469 313.421875 136.800781 307.308594 C 135.96875 306.449219 134.808594 306 133.609375 306 L 27.789062 306 L 7.011719 315.738281 Z M 10.109375 327.46875 " style=" stroke:none;fill-rule:nonzero;fill:rgb(100%,100%,100%);fill-opacity:1;" />
<path d="M 109.761719 422.789062 L 61.789062 422.789062 C 52.238281 411.691406 43.628906 399.75 36.089844 387.109375 L 50.269531 387.109375 C 70.160156 387.109375 88.039062 395.730469 100.359375 409.429688 C 104.011719 413.46875 107.171875 417.960938 109.761719 422.789062 Z M 109.761719 422.789062 " style=" stroke:none;fill-rule:nonzero;fill:rgb(100%,100%,100%);fill-opacity:1;" />
<path d="M 300.398438 422.789062 L 300.398438 450.160156 L 89.160156 450.160156 C 79.359375 441.738281 70.210938 432.589844 61.789062 422.789062 Z M 300.398438 422.789062 " style=" stroke:none;fill-rule:nonzero;fill:rgb(100%,100%,100%);fill-opacity:1;" />
<path d="M 300.394531 338.519531 L 300.394531 422.785156 L 206.976562 422.785156 C 211.804688 375.453125 251.789062 338.519531 300.394531 338.519531 Z M 300.394531 338.519531 " style=" stroke:none;fill-rule:nonzero;fill:rgb(47.843137%,17.647059%,10.196078%);fill-opacity:1;" />
<path d="M 480.429688 212.601562 L 480.429688 379.238281 C 471.859375 394.820312 461.71875 409.410156 450.210938 422.789062 C 441.789062 432.589844 432.640625 441.738281 422.839844 450.160156 L 99.558594 450.160156 C 99.558594 450.160156 105.421875 387.988281 105.738281 387.109375 C 115.140625 361.839844 134.921875 342.078125 162.441406 327.46875 C 163.960938 326.660156 165.5 325.871094 167.058594 325.101562 L 207.820312 306 L 230.339844 295.449219 L 235.539062 293.011719 L 241.398438 290.261719 C 249.828125 286.308594 257.148438 280.730469 263.058594 273.988281 C 263.761719 273.191406 264.429688 272.378906 265.078125 271.550781 C 268.25 267.589844 270.949219 263.261719 273.128906 258.671875 C 276.289062 251.988281 278.351562 244.75 279.128906 237.210938 C 279.371094 234.941406 279.488281 232.660156 279.488281 230.351562 L 279.488281 210.679688 L 478.5 210.679688 C 479.558594 210.679688 480.429688 211.539062 480.429688 212.601562 Z M 480.429688 212.601562 " style=" stroke:none;fill-rule:nonzero;fill:rgb(92.941176%,46.666667%,10.588235%);fill-opacity:1;" />
<path d="M 480.429688 212.601562 L 480.429688 379.238281 C 471.859375 394.820312 461.71875 409.410156 450.210938 422.789062 L 197.628906 422.789062 C 197.628906 409.859375 199.761719 397.96875 203.808594 387.109375 C 213.21875 361.828125 233 342.078125 260.519531 327.46875 C 262.03125 326.660156 263.570312 325.871094 265.128906 325.101562 L 300.398438 308.570312 L 305.878906 306 L 333.601562 293.011719 L 339.46875 290.261719 C 348.890625 285.851562 356.929688 279.390625 363.171875 271.550781 C 366.328125 267.578125 369.019531 263.25 371.199219 258.671875 C 374.359375 251.980469 376.421875 244.738281 377.199219 237.210938 C 377.441406 234.949219 377.558594 232.660156 377.558594 230.351562 L 377.558594 212.601562 C 377.558594 211.539062 378.421875 210.679688 379.480469 210.679688 L 478.5 210.679688 C 479.558594 210.679688 480.429688 211.539062 480.429688 212.601562 Z M 480.429688 212.601562 " style=" stroke:none;fill-rule:nonzero;fill:rgb(65.098039%,22.352941%,7.843137%);fill-opacity:1;" />
<path d="M 392.734375 238.554688 C 398.578125 244.714844 397.683594 251.613281 393.765625 255.527344 C 391.824219 257.472656 389.136719 258.671875 386.175781 258.671875 L 273.125 258.671875 C 276.285156 251.992188 278.351562 244.75 279.132812 237.210938 L 389.519531 237.210938 C 390.726562 237.210938 391.902344 237.679688 392.734375 238.554688 Z M 392.734375 238.554688 " style=" stroke:none;fill-rule:nonzero;fill:rgb(100%,100%,100%);fill-opacity:1;" />
<path d="M 368.914062 272.855469 C 374.859375 278.949219 373.972656 285.953125 370.039062 289.871094 C 368.101562 291.8125 365.425781 293.011719 362.453125 293.011719 L 235.535156 293.011719 L 241.402344 290.265625 C 249.828125 286.316406 257.148438 280.730469 263.058594 273.984375 C 263.757812 273.1875 264.433594 272.382812 265.082031 271.550781 L 365.734375 271.550781 C 366.921875 271.550781 368.085938 272.003906 368.914062 272.855469 Z M 368.914062 272.855469 " style=" stroke:none;fill-rule:nonzero;fill:rgb(100%,100%,100%);fill-opacity:1;" />
<path d="M 316.832031 307.308594 C 322.757812 313.417969 321.871094 320.394531 317.941406 324.324219 C 315.996094 326.269531 313.308594 327.46875 310.347656 327.46875 L 162.441406 327.46875 C 163.957031 326.660156 165.496094 325.875 167.0625 325.09375 L 207.824219 305.996094 L 313.644531 305.996094 C 314.839844 306 316.003906 306.453125 316.832031 307.308594 Z M 316.832031 307.308594 " style=" stroke:none;fill-rule:nonzero;fill:rgb(100%,100%,100%);fill-opacity:1;" />
<path d="M 289.789062 422.785156 L 99.5625 422.785156 C 99.5625 409.855469 101.691406 397.980469 105.738281 387.113281 L 230.300781 387.113281 C 256.0625 387.113281 278.441406 401.5625 289.789062 422.785156 Z M 289.789062 422.785156 " style=" stroke:none;fill-rule:nonzero;fill:rgb(100%,100%,100%);fill-opacity:1;" />
<path d="M 450.210938 422.789062 C 441.789062 432.589844 432.640625 441.738281 422.839844 450.160156 L 99.558594 450.160156 L 99.558594 422.789062 Z M 450.210938 422.789062 " style=" stroke:none;fill-rule:nonzero;fill:rgb(100%,100%,100%);fill-opacity:1;" />
<path d="M 450.210938 422.789062 C 441.789062 432.589844 432.640625 441.738281 422.839844 450.160156 L 289.789062 450.160156 L 289.789062 422.789062 Z M 450.210938 422.789062 " style=" stroke:none;fill-rule:nonzero;fill:rgb(81.568627%,96.470588%,100%);fill-opacity:1;" />
<path d="M 480.429688 338.519531 L 480.429688 379.238281 C 471.859375 394.820312 461.71875 409.410156 450.210938 422.789062 L 387.011719 422.789062 C 391.828125 375.449219 431.820312 338.519531 480.429688 338.519531 Z M 480.429688 338.519531 " style=" stroke:none;fill-rule:nonzero;fill:rgb(47.843137%,17.647059%,10.196078%);fill-opacity:1;" />
</g>
</svg>