<svg xmlns="http://www.w3.org/2000/svg" height="512pt" version="1.1" viewBox="0 0 512 512" width="512pt">
<g id="surface1">
<path d="M 512 256 C 512 397.386719 397.386719 512 256 512 C 114.613281 512 0 397.386719 0 256 C 0 114.613281 114.613281 0 256 0 C 397.386719 0 512 114.613281 512 256 Z M 512 256 " style=" stroke:none;fill-rule:nonzero;fill:rgb(61.960784%,41.176471%,88.627451%);fill-opacity:1;" />
<path d="M 512 256 C 512 282.050781 508.109375 307.191406 500.871094 330.871094 C 468.859375 435.71875 371.328125 512 256 512 C 151.441406 512 61.511719 449.300781 21.769531 359.449219 C 7.769531 327.820312 0 292.820312 0 256 C 0 209.78125 12.25 166.429688 33.679688 129 C 77.800781 206.070312 160.839844 258 256 258 C 351.160156 258 434.210938 206.070312 478.320312 129 C 499.75 166.429688 512 209.78125 512 256 Z M 512 256 " style=" stroke:none;fill-rule:nonzero;fill:rgb(55.686275%,30.980392%,82.352941%);fill-opacity:1;" />
<path d="M 30.742188 377.703125 C 37.898438 390.921875 46.171875 403.441406 55.460938 415.128906 C 102.359375 474.148438 174.761719 512 256 512 C 337.238281 512 409.640625 474.148438 456.539062 415.128906 C 465.828125 403.441406 474.101562 390.921875 481.257812 377.703125 Z M 30.742188 377.703125 " style=" stroke:none;fill-rule:nonzero;fill:rgb(43.921569%,21.960784%,72.941176%);fill-opacity:1;" />
<path d="M 428.496094 262.546875 C 428.496094 272.035156 417.710938 280.1875 415.691406 289.070312 C 413.605469 298.238281 419.738281 310.253906 415.746094 318.523438 C 411.691406 326.933594 398.433594 329.605469 392.664062 336.832031 C 386.871094 344.089844 387.191406 357.601562 379.933594 363.394531 C 372.710938 369.164062 359.621094 365.863281 351.210938 369.921875 C 342.9375 373.910156 337.382812 386.242188 328.214844 388.328125 C 319.332031 390.347656 309 381.691406 299.507812 381.691406 C 290.015625 381.691406 279.683594 390.347656 270.800781 388.328125 C 261.632812 386.242188 256.078125 373.910156 247.804688 369.921875 C 239.394531 365.863281 226.304688 369.164062 219.078125 363.394531 C 211.820312 357.601562 212.144531 344.089844 206.347656 336.832031 C 200.578125 329.609375 187.324219 326.933594 183.265625 318.523438 C 179.277344 310.253906 185.40625 298.238281 183.324219 289.070312 C 181.304688 280.1875 170.519531 272.035156 170.519531 262.546875 C 170.519531 253.054688 181.304688 244.902344 183.320312 236.023438 C 185.40625 226.851562 179.273438 214.839844 183.265625 206.566406 C 187.324219 198.15625 200.578125 195.484375 206.347656 188.261719 C 212.144531 181 211.820312 167.492188 219.078125 161.695312 C 226.300781 155.925781 239.394531 159.226562 247.804688 155.171875 C 256.074219 151.179688 261.628906 138.847656 270.800781 136.761719 C 279.679688 134.742188 290.015625 143.398438 299.507812 143.398438 C 308.996094 143.398438 319.332031 134.746094 328.210938 136.761719 C 337.382812 138.847656 342.9375 151.179688 351.210938 155.171875 C 359.617188 159.226562 372.710938 155.925781 379.933594 161.695312 C 387.191406 167.492188 386.867188 181 392.664062 188.261719 C 398.433594 195.484375 411.6875 198.15625 415.746094 206.566406 C 419.738281 214.839844 413.605469 226.851562 415.691406 236.019531 C 417.710938 244.902344 428.496094 253.054688 428.496094 262.546875 Z M 428.496094 262.546875 " style=" stroke:none;fill-rule:nonzero;fill:rgb(52.156863%,68.627451%,7.058824%);fill-opacity:1;" />
<path d="M 445.253906 361.546875 C 445.253906 371.035156 434.464844 379.1875 432.449219 388.070312 C 430.363281 397.238281 436.496094 409.253906 432.503906 417.523438 C 428.445312 425.933594 415.191406 428.605469 409.421875 435.832031 C 403.628906 443.089844 403.949219 456.601562 396.691406 462.394531 C 389.46875 468.164062 376.378906 464.863281 367.96875 468.921875 C 359.695312 472.910156 354.140625 485.242188 344.96875 487.328125 C 336.089844 489.347656 325.757812 480.691406 316.265625 480.691406 C 306.773438 480.691406 296.4375 489.347656 287.558594 487.328125 C 278.386719 485.242188 272.835938 472.910156 264.5625 468.921875 C 256.152344 464.863281 243.0625 468.164062 235.835938 462.394531 C 228.578125 456.601562 228.902344 443.089844 223.105469 435.832031 C 217.335938 428.609375 204.082031 425.933594 200.023438 417.523438 C 196.03125 409.253906 202.164062 397.238281 200.078125 388.070312 C 198.0625 379.1875 187.277344 371.035156 187.277344 361.546875 C 187.277344 352.054688 198.0625 343.902344 200.078125 335.023438 C 202.164062 325.851562 196.03125 313.839844 200.023438 305.566406 C 204.082031 297.15625 217.335938 294.484375 223.105469 287.261719 C 228.902344 280 228.578125 266.492188 235.835938 260.695312 C 243.058594 254.925781 256.152344 258.226562 264.5625 254.171875 C 272.835938 250.179688 278.386719 237.847656 287.558594 235.761719 C 296.4375 233.742188 306.773438 242.398438 316.265625 242.398438 C 325.757812 242.398438 336.089844 233.746094 344.96875 235.761719 C 354.140625 237.847656 359.695312 250.179688 367.96875 254.171875 C 376.378906 258.226562 389.46875 254.925781 396.691406 260.695312 C 403.949219 266.492188 403.628906 280 409.421875 287.261719 C 415.191406 294.484375 428.445312 297.15625 432.503906 305.566406 C 436.496094 313.839844 430.363281 325.851562 432.449219 335.019531 C 434.464844 343.902344 445.253906 352.054688 445.253906 361.546875 Z M 445.253906 361.546875 " style=" stroke:none;fill-rule:nonzero;fill:rgb(52.156863%,68.627451%,7.058824%);fill-opacity:1;" />
<path d="M 345.972656 262.546875 C 345.972656 272.035156 335.1875 280.1875 333.171875 289.070312 C 331.085938 298.238281 337.21875 310.253906 333.226562 318.523438 C 329.167969 326.933594 315.914062 329.605469 310.144531 336.832031 C 304.347656 344.089844 304.671875 357.601562 297.414062 363.394531 C 290.191406 369.164062 277.097656 365.863281 268.6875 369.921875 C 260.414062 373.910156 254.863281 386.242188 245.691406 388.328125 C 236.8125 390.347656 226.476562 381.691406 216.984375 381.691406 C 207.492188 381.691406 197.160156 390.347656 188.28125 388.328125 C 179.109375 386.242188 173.554688 373.910156 165.28125 369.921875 C 156.871094 365.863281 143.78125 369.164062 136.558594 363.394531 C 129.300781 357.601562 129.621094 344.089844 123.828125 336.832031 C 118.058594 329.609375 104.804688 326.933594 100.746094 318.523438 C 96.753906 310.253906 102.886719 298.238281 100.800781 289.070312 C 98.78125 280.1875 87.996094 272.035156 87.996094 262.546875 C 87.996094 253.054688 98.78125 244.902344 100.800781 236.023438 C 102.886719 226.851562 96.753906 214.839844 100.746094 206.566406 C 104.800781 198.15625 118.058594 195.484375 123.824219 188.261719 C 129.621094 181 129.300781 167.492188 136.558594 161.695312 C 143.78125 155.925781 156.871094 159.226562 165.28125 155.171875 C 173.554688 151.179688 179.109375 138.847656 188.277344 136.761719 C 197.160156 134.742188 207.492188 143.398438 216.984375 143.398438 C 226.476562 143.398438 236.808594 134.746094 245.691406 136.761719 C 254.859375 138.847656 260.414062 151.179688 268.6875 155.171875 C 277.097656 159.226562 290.1875 155.925781 297.410156 161.695312 C 304.671875 167.492188 304.347656 181 310.144531 188.261719 C 315.910156 195.484375 329.167969 198.15625 333.226562 206.566406 C 337.214844 214.839844 331.085938 226.851562 333.167969 236.019531 C 335.1875 244.902344 345.972656 253.054688 345.972656 262.546875 Z M 345.972656 262.546875 " style=" stroke:none;fill-rule:nonzero;fill:rgb(58.431373%,83.921569%,0%);fill-opacity:1;" />
<path d="M 324.726562 361.546875 C 324.726562 371.035156 313.9375 379.1875 311.921875 388.070312 C 309.835938 397.238281 315.96875 409.253906 311.976562 417.523438 C 307.917969 425.933594 294.664062 428.605469 288.894531 435.832031 C 283.097656 443.089844 283.421875 456.601562 276.164062 462.394531 C 268.941406 468.164062 255.847656 464.863281 247.4375 468.921875 C 239.164062 472.910156 233.613281 485.242188 224.441406 487.328125 C 215.5625 489.347656 205.226562 480.691406 195.734375 480.691406 C 186.242188 480.691406 175.910156 489.347656 167.03125 487.328125 C 157.859375 485.242188 152.304688 472.910156 144.03125 468.921875 C 135.621094 464.863281 122.53125 468.164062 115.308594 462.394531 C 108.050781 456.601562 108.371094 443.089844 102.578125 435.832031 C 96.808594 428.609375 83.554688 425.933594 79.496094 417.523438 C 75.503906 409.253906 81.636719 397.238281 79.550781 388.070312 C 77.53125 379.1875 66.746094 371.035156 66.746094 361.546875 C 66.746094 352.054688 77.53125 343.902344 79.550781 335.023438 C 81.636719 325.851562 75.503906 313.839844 79.496094 305.566406 C 83.550781 297.15625 96.808594 294.484375 102.574219 287.261719 C 108.371094 280 108.050781 266.492188 115.308594 260.695312 C 122.53125 254.925781 135.621094 258.226562 144.03125 254.171875 C 152.304688 250.179688 157.859375 237.847656 167.027344 235.761719 C 175.910156 233.742188 186.242188 242.398438 195.734375 242.398438 C 205.226562 242.398438 215.558594 233.746094 224.441406 235.761719 C 233.609375 237.847656 239.164062 250.179688 247.4375 254.171875 C 255.847656 258.226562 268.9375 254.925781 276.160156 260.695312 C 283.421875 266.492188 283.097656 280 288.894531 287.261719 C 294.660156 294.484375 307.917969 297.15625 311.976562 305.566406 C 315.964844 313.839844 309.835938 325.851562 311.917969 335.019531 C 313.9375 343.902344 324.726562 352.054688 324.726562 361.546875 Z M 324.726562 361.546875 " style=" stroke:none;fill-rule:nonzero;fill:rgb(58.431373%,83.921569%,0%);fill-opacity:1;" />
<path d="M 189.339844 342.160156 C 189.339844 371.027344 165.9375 394.429688 137.070312 394.429688 C 108.199219 394.429688 84.796875 371.027344 84.796875 342.160156 C 84.796875 313.289062 108.199219 289.886719 137.070312 289.886719 C 165.9375 289.886719 189.339844 313.289062 189.339844 342.160156 Z M 189.339844 342.160156 " style=" stroke:none;fill-rule:nonzero;fill:rgb(86.666667%,7.058824%,39.607843%);fill-opacity:1;" />
<path d="M 166.296875 342.160156 C 166.296875 358.300781 153.210938 371.386719 137.070312 371.386719 C 120.929688 371.386719 107.84375 358.300781 107.84375 342.160156 C 107.84375 326.019531 120.929688 312.933594 137.070312 312.933594 C 153.210938 312.933594 166.296875 326.019531 166.296875 342.160156 Z M 166.296875 342.160156 " style=" stroke:none;fill-rule:nonzero;fill:rgb(100%,20.392157%,27.058824%);fill-opacity:1;" />
<path d="M 253.285156 183.8125 C 253.285156 212.683594 229.882812 236.085938 201.015625 236.085938 C 172.144531 236.085938 148.742188 212.683594 148.742188 183.8125 C 148.742188 154.945312 172.144531 131.539062 201.015625 131.539062 C 229.882812 131.539062 253.285156 154.945312 253.285156 183.8125 Z M 253.285156 183.8125 " style=" stroke:none;fill-rule:nonzero;fill:rgb(86.666667%,7.058824%,39.607843%);fill-opacity:1;" />
<path d="M 230.242188 183.8125 C 230.242188 199.953125 217.15625 213.039062 201.015625 213.039062 C 184.875 213.039062 171.789062 199.953125 171.789062 183.8125 C 171.789062 167.671875 184.875 154.585938 201.015625 154.585938 C 217.15625 154.585938 230.242188 167.671875 230.242188 183.8125 Z M 230.242188 183.8125 " style=" stroke:none;fill-rule:nonzero;fill:rgb(100%,20.392157%,27.058824%);fill-opacity:1;" />
<path d="M 423.019531 332.320312 C 423.019531 361.1875 399.613281 384.589844 370.746094 384.589844 C 341.878906 384.589844 318.472656 361.1875 318.472656 332.320312 C 318.472656 303.449219 341.878906 280.046875 370.746094 280.046875 C 399.613281 280.046875 423.019531 303.449219 423.019531 332.320312 Z M 423.019531 332.320312 " style=" stroke:none;fill-rule:nonzero;fill:rgb(86.666667%,7.058824%,39.607843%);fill-opacity:1;" />
<path d="M 399.972656 332.320312 C 399.972656 348.460938 386.886719 361.546875 370.746094 361.546875 C 354.605469 361.546875 341.519531 348.460938 341.519531 332.320312 C 341.519531 316.179688 354.605469 303.09375 370.746094 303.09375 C 386.886719 303.09375 399.972656 316.179688 399.972656 332.320312 Z M 399.972656 332.320312 " style=" stroke:none;fill-rule:nonzero;fill:rgb(100%,20.392157%,27.058824%);fill-opacity:1;" />
<path d="M 368.535156 184.046875 C 368.535156 212.917969 345.132812 236.320312 316.265625 236.320312 C 287.394531 236.320312 263.992188 212.917969 263.992188 184.046875 C 263.992188 155.179688 287.394531 131.773438 316.265625 131.773438 C 345.132812 131.773438 368.535156 155.179688 368.535156 184.046875 Z M 368.535156 184.046875 " style=" stroke:none;fill-rule:nonzero;fill:rgb(86.666667%,7.058824%,39.607843%);fill-opacity:1;" />
<path d="M 345.488281 184.046875 C 345.488281 200.1875 332.40625 213.273438 316.265625 213.273438 C 300.121094 213.273438 287.039062 200.1875 287.039062 184.046875 C 287.039062 167.90625 300.121094 154.820312 316.265625 154.820312 C 332.40625 154.820312 345.488281 167.90625 345.488281 184.046875 Z M 345.488281 184.046875 " style=" stroke:none;fill-rule:nonzero;fill:rgb(100%,20.392157%,27.058824%);fill-opacity:1;" />
<path d="M 414.480469 229.660156 C 414.46875 229.378906 414.449219 229.109375 414.429688 228.839844 C 414.421875 228.589844 414.398438 228.328125 414.378906 228.078125 C 414.351562 227.691406 414.320312 227.289062 414.28125 226.898438 C 414.238281 226.511719 414.199219 226.109375 414.148438 225.71875 C 414.121094 225.460938 414.089844 225.199219 414.050781 224.941406 C 414.011719 224.558594 413.949219 224.179688 413.890625 223.800781 C 413.820312 223.328125 413.738281 222.859375 413.660156 222.398438 C 413.578125 221.929688 413.488281 221.46875 413.390625 221 C 413.308594 220.628906 413.230469 220.25 413.148438 219.871094 C 413.070312 219.539062 412.988281 219.210938 412.910156 218.878906 C 412.828125 218.53125 412.738281 218.191406 412.648438 217.851562 C 412.371094 216.789062 412.058594 215.75 411.71875 214.71875 C 411.628906 214.429688 411.53125 214.148438 411.429688 213.859375 C 411.320312 213.539062 411.210938 213.230469 411.089844 212.921875 C 410.96875 212.570312 410.828125 212.21875 410.699219 211.878906 C 410.328125 210.929688 409.941406 209.988281 409.519531 209.070312 C 409.328125 208.648438 409.128906 208.230469 408.929688 207.820312 C 407.761719 205.390625 406.421875 203.058594 404.929688 200.839844 C 404.699219 200.5 404.46875 200.160156 404.230469 199.820312 C 403.96875 199.441406 403.699219 199.070312 403.421875 198.699219 C 403.160156 198.351562 402.898438 198.011719 402.628906 197.660156 C 402.371094 197.320312 402.101562 196.980469 401.820312 196.640625 C 401.550781 196.300781 401.269531 195.96875 400.988281 195.640625 C 400.761719 195.371094 400.519531 195.101562 400.289062 194.828125 C 399.960938 194.449219 399.609375 194.070312 399.261719 193.699219 L 399.25 193.691406 C 398.910156 193.320312 398.558594 192.949219 398.199219 192.589844 C 397.988281 192.371094 397.769531 192.148438 397.550781 191.941406 C 397.328125 191.71875 397.121094 191.511719 396.898438 191.308594 C 396.570312 190.988281 396.238281 190.679688 395.898438 190.378906 C 395.558594 190.070312 395.21875 189.769531 394.878906 189.46875 C 394.628906 189.25 394.378906 189.039062 394.128906 188.839844 C 393.339844 188.171875 392.53125 187.53125 391.710938 186.921875 C 391.699219 186.910156 391.691406 186.898438 391.691406 186.898438 C 390.921875 186.328125 390.140625 185.769531 389.351562 185.238281 C 389.011719 185.011719 388.679688 184.789062 388.328125 184.570312 C 388.050781 184.390625 387.769531 184.210938 387.480469 184.039062 C 387.101562 183.800781 386.710938 183.558594 386.320312 183.339844 C 385.949219 183.121094 385.578125 182.910156 385.210938 182.699219 C 384.53125 182.328125 383.851562 181.960938 383.148438 181.621094 C 382.78125 181.429688 382.410156 181.25 382.03125 181.070312 C 381.550781 180.839844 381.070312 180.621094 380.589844 180.410156 C 380.558594 180.390625 380.53125 180.378906 380.5 180.371094 C 380.109375 180.191406 379.710938 180.03125 379.308594 179.859375 C 378.71875 179.621094 378.128906 179.378906 377.53125 179.160156 C 377.070312 178.988281 376.609375 178.828125 376.148438 178.671875 C 376.070312 178.640625 375.988281 178.609375 375.898438 178.578125 C 375.410156 178.421875 374.921875 178.261719 374.429688 178.109375 C 373.910156 177.949219 373.378906 177.789062 372.851562 177.648438 C 372.320312 177.5 371.789062 177.359375 371.25 177.230469 C 370.710938 177.101562 370.179688 176.96875 369.628906 176.859375 C 369.109375 176.738281 368.589844 176.640625 368.058594 176.539062 C 368.039062 176.53125 368.019531 176.53125 368 176.53125 C 367.449219 176.429688 366.890625 176.328125 366.339844 176.25 C 365.871094 176.171875 365.390625 176.109375 364.921875 176.050781 C 364.601562 176.011719 364.28125 175.96875 363.960938 175.941406 C 363.640625 175.898438 363.320312 175.859375 362.988281 175.839844 C 362.679688 175.808594 362.371094 175.78125 362.058594 175.761719 C 361.699219 175.730469 361.339844 175.699219 360.980469 175.691406 C 360.761719 175.671875 360.539062 175.660156 360.320312 175.648438 C 359.929688 175.628906 359.539062 175.621094 359.148438 175.609375 C 358.671875 175.601562 358.179688 175.589844 357.691406 175.589844 L 155.929688 175.589844 C 153.691406 175.589844 151.488281 175.71875 149.320312 175.980469 C 141.011719 176.941406 133.25 179.699219 126.421875 183.851562 C 126.421875 183.859375 126.410156 183.859375 126.410156 183.859375 C 120.671875 187.371094 115.609375 191.839844 111.449219 197.078125 L 111.441406 197.089844 C 105.871094 204.070312 101.921875 212.390625 100.140625 221.46875 L 100.140625 221.480469 C 99.441406 225.03125 99.070312 228.691406 99.070312 232.449219 C 99.070312 234.878906 99.21875 237.269531 99.53125 239.621094 C 100.808594 249.800781 104.800781 259.160156 110.761719 266.929688 C 116.328125 274.230469 123.640625 280.128906 132.039062 284.039062 L 131.21875 290.21875 L 128.03125 314.359375 L 124.871094 338.289062 L 121.121094 366.640625 L 117.921875 390.800781 L 110.078125 450.101562 C 109.921875 451.289062 109.808594 452.460938 109.71875 453.648438 L 109.71875 453.660156 C 109.441406 458.019531 109.671875 462.359375 110.410156 466.601562 C 151.738281 495.21875 201.910156 512 256 512 L 256.808594 512 C 311.378906 511.828125 361.941406 494.578125 403.410156 465.320312 C 403.5 464.691406 403.589844 464.058594 403.660156 463.429688 C 403.671875 463.398438 403.671875 463.359375 403.671875 463.320312 C 403.75 462.648438 403.808594 461.980469 403.859375 461.300781 C 403.910156 460.648438 403.949219 459.988281 403.96875 459.328125 C 403.980469 459.300781 403.980469 459.28125 403.96875 459.25 C 404 458.601562 404.011719 457.941406 404.011719 457.289062 C 404.011719 454.898438 403.859375 452.5 403.539062 450.101562 L 403.519531 449.949219 L 394.148438 379.070312 L 390.78125 353.578125 L 389.371094 342.929688 L 384.558594 306.558594 L 381.578125 284.039062 C 382.21875 283.738281 382.851562 283.429688 383.480469 283.109375 C 384.101562 282.789062 384.71875 282.460938 385.328125 282.109375 L 385.339844 282.109375 C 385.738281 281.898438 386.128906 281.671875 386.519531 281.429688 C 386.828125 281.25 387.140625 281.058594 387.449219 280.871094 C 389.921875 279.351562 392.269531 277.648438 394.46875 275.769531 C 394.738281 275.539062 395.011719 275.308594 395.269531 275.078125 C 396 274.441406 396.71875 273.769531 397.410156 273.089844 C 397.660156 272.851562 397.898438 272.609375 398.148438 272.359375 C 398.839844 271.660156 399.511719 270.941406 400.171875 270.199219 C 400.410156 269.929688 400.640625 269.660156 400.871094 269.390625 C 401.199219 269.019531 401.511719 268.640625 401.820312 268.261719 C 401.878906 268.191406 401.941406 268.121094 401.988281 268.050781 C 402.320312 267.640625 402.640625 267.230469 402.960938 266.808594 C 403.441406 266.191406 403.898438 265.550781 404.351562 264.898438 C 404.679688 264.441406 405 263.96875 405.308594 263.488281 C 405.320312 263.460938 405.339844 263.441406 405.359375 263.410156 C 405.699219 262.890625 406.03125 262.359375 406.359375 261.820312 C 406.429688 261.710938 406.5 261.589844 406.570312 261.46875 C 406.859375 260.980469 407.148438 260.488281 407.421875 259.988281 C 407.71875 259.460938 408 258.921875 408.289062 258.378906 C 408.519531 257.921875 408.761719 257.449219 408.980469 256.96875 C 409.109375 256.71875 409.230469 256.460938 409.339844 256.210938 C 409.511719 255.839844 409.679688 255.46875 409.839844 255.089844 C 409.988281 254.75 410.140625 254.410156 410.269531 254.070312 C 410.460938 253.621094 410.648438 253.160156 410.820312 252.710938 C 411.058594 252.078125 411.289062 251.449219 411.511719 250.800781 C 411.53125 250.75 411.550781 250.691406 411.570312 250.628906 C 411.769531 250.050781 411.949219 249.460938 412.128906 248.871094 C 412.300781 248.300781 412.46875 247.738281 412.621094 247.160156 C 412.671875 246.980469 412.71875 246.789062 412.761719 246.601562 C 412.910156 246.039062 413.050781 245.480469 413.171875 244.910156 C 413.179688 244.871094 413.191406 244.828125 413.199219 244.789062 C 413.320312 244.25 413.429688 243.71875 413.53125 243.171875 C 413.570312 243.011719 413.601562 242.839844 413.628906 242.671875 C 413.71875 242.179688 413.800781 241.679688 413.878906 241.179688 C 413.898438 241.03125 413.929688 240.890625 413.941406 240.738281 C 414.039062 240.089844 414.128906 239.441406 414.199219 238.78125 C 414.199219 238.761719 414.199219 238.738281 414.210938 238.71875 C 414.28125 238.050781 414.339844 237.371094 414.390625 236.691406 C 414.441406 236.121094 414.46875 235.550781 414.488281 234.980469 C 414.5 234.78125 414.511719 234.578125 414.511719 234.378906 C 414.539062 233.738281 414.550781 233.101562 414.550781 232.449219 C 414.550781 231.511719 414.53125 230.578125 414.480469 229.660156 Z M 414.480469 229.660156 " style=" stroke:none;fill-rule:nonzero;fill:rgb(92.941176%,46.666667%,10.588235%);fill-opacity:1;" />
<path d="M 399.839844 478.230469 C 400.308594 477.089844 400.75 475.941406 401.140625 474.769531 C 400.75 475.941406 400.320312 477.089844 399.839844 478.230469 Z M 399.839844 478.230469 " style=" stroke:none;fill-rule:nonzero;fill:rgb(65.098039%,22.352941%,7.843137%);fill-opacity:1;" />
<path d="M 402.25 471.039062 C 402.738281 469.160156 403.121094 467.25 403.410156 465.320312 C 403.128906 467.25 402.738281 469.160156 402.25 471.039062 Z M 402.25 471.039062 " style=" stroke:none;fill-rule:nonzero;fill:rgb(65.098039%,22.352941%,7.843137%);fill-opacity:1;" />
<path d="M 414.550781 232.449219 C 414.550781 233.101562 414.539062 233.738281 414.511719 234.378906 C 414.511719 234.578125 414.5 234.78125 414.488281 234.980469 C 414.46875 235.550781 414.441406 236.121094 414.390625 236.691406 C 414.339844 237.371094 414.28125 238.050781 414.210938 238.71875 C 414.199219 238.738281 414.199219 238.761719 414.199219 238.78125 C 414.128906 239.441406 414.039062 240.089844 413.941406 240.738281 C 413.929688 240.890625 413.898438 241.03125 413.878906 241.179688 C 413.800781 241.679688 413.71875 242.179688 413.628906 242.671875 C 413.601562 242.839844 413.570312 243.011719 413.53125 243.171875 C 413.429688 243.71875 413.320312 244.25 413.199219 244.789062 C 413.191406 244.828125 413.179688 244.871094 413.171875 244.910156 C 413.050781 245.480469 412.910156 246.039062 412.761719 246.601562 C 412.71875 246.789062 412.671875 246.980469 412.621094 247.160156 C 412.46875 247.738281 412.300781 248.300781 412.128906 248.871094 C 411.949219 249.460938 411.769531 250.050781 411.570312 250.628906 C 411.550781 250.691406 411.53125 250.75 411.511719 250.800781 C 411.289062 251.441406 411.058594 252.078125 410.820312 252.710938 C 410.648438 253.160156 410.460938 253.621094 410.269531 254.070312 C 410.140625 254.410156 409.988281 254.75 409.839844 255.089844 C 409.679688 255.46875 409.511719 255.839844 409.339844 256.210938 C 409.230469 256.460938 409.109375 256.71875 408.980469 256.96875 C 408.761719 257.449219 408.519531 257.921875 408.289062 258.378906 C 408 258.921875 407.71875 259.460938 407.421875 259.988281 C 407.148438 260.488281 406.859375 260.980469 406.570312 261.46875 C 406.5 261.589844 406.429688 261.710938 406.359375 261.820312 C 406.03125 262.359375 405.699219 262.890625 405.359375 263.410156 C 405.339844 263.441406 405.320312 263.460938 405.308594 263.488281 C 405 263.96875 404.679688 264.441406 404.351562 264.898438 C 403.898438 265.550781 403.441406 266.191406 402.960938 266.808594 C 402.640625 267.230469 402.320312 267.640625 401.988281 268.050781 C 401.941406 268.121094 401.878906 268.191406 401.820312 268.261719 C 401.511719 268.640625 401.199219 269.019531 400.871094 269.390625 C 400.640625 269.660156 400.410156 269.929688 400.171875 270.199219 C 399.511719 270.941406 398.839844 271.660156 398.148438 272.359375 C 397.898438 272.609375 397.660156 272.851562 397.410156 273.089844 C 396.71875 273.769531 396 274.441406 395.269531 275.078125 C 395.011719 275.308594 394.738281 275.539062 394.46875 275.769531 C 392.269531 277.648438 389.921875 279.351562 387.449219 280.871094 C 387.140625 281.058594 386.828125 281.25 386.519531 281.429688 C 386.128906 281.671875 385.738281 281.898438 385.339844 282.109375 L 385.328125 282.109375 C 384.71875 282.460938 384.101562 282.789062 383.480469 283.109375 C 382.851562 283.429688 382.21875 283.738281 381.578125 284.039062 L 384.558594 306.558594 L 389.371094 342.929688 L 390.78125 353.578125 L 394.148438 379.070312 L 403.519531 449.949219 L 403.539062 450.101562 C 403.859375 452.5 404.011719 454.898438 404.011719 457.289062 C 404.011719 457.941406 404 458.601562 403.96875 459.25 C 403.980469 459.28125 403.980469 459.300781 403.96875 459.328125 C 403.949219 459.988281 403.910156 460.648438 403.859375 461.300781 C 403.808594 461.980469 403.75 462.648438 403.671875 463.320312 C 403.671875 463.359375 403.671875 463.398438 403.660156 463.429688 C 403.589844 464.058594 403.5 464.691406 403.410156 465.320312 C 361.941406 494.578125 311.378906 511.828125 256.808594 512 L 256.808594 175.589844 L 357.691406 175.589844 C 358.179688 175.589844 358.671875 175.601562 359.148438 175.609375 C 359.539062 175.621094 359.929688 175.628906 360.320312 175.648438 C 360.539062 175.660156 360.761719 175.671875 360.980469 175.691406 C 361.339844 175.699219 361.699219 175.730469 362.058594 175.761719 C 362.371094 175.78125 362.679688 175.808594 362.988281 175.839844 C 363.320312 175.859375 363.640625 175.898438 363.960938 175.941406 C 364.28125 175.96875 364.601562 176.011719 364.921875 176.050781 C 365.390625 176.109375 365.871094 176.171875 366.339844 176.25 C 366.890625 176.328125 367.449219 176.429688 368 176.53125 C 368.019531 176.53125 368.039062 176.53125 368.058594 176.539062 C 368.589844 176.640625 369.109375 176.738281 369.628906 176.859375 C 370.179688 176.96875 370.710938 177.101562 371.25 177.230469 C 371.789062 177.359375 372.320312 177.5 372.851562 177.648438 C 373.378906 177.789062 373.910156 177.949219 374.429688 178.109375 C 374.921875 178.261719 375.410156 178.421875 375.898438 178.578125 C 375.988281 178.609375 376.070312 178.640625 376.148438 178.671875 C 376.609375 178.828125 377.070312 178.988281 377.53125 179.160156 C 378.128906 179.378906 378.71875 179.621094 379.308594 179.859375 C 379.710938 180.03125 380.109375 180.191406 380.5 180.371094 C 380.53125 180.378906 380.558594 180.390625 380.589844 180.410156 C 381.070312 180.621094 381.550781 180.839844 382.03125 181.070312 C 382.410156 181.25 382.78125 181.429688 383.148438 181.621094 C 383.851562 181.960938 384.53125 182.328125 385.210938 182.699219 C 385.578125 182.910156 385.949219 183.121094 386.320312 183.339844 C 386.710938 183.558594 387.101562 183.800781 387.480469 184.039062 C 387.769531 184.210938 388.050781 184.390625 388.328125 184.570312 C 388.679688 184.789062 389.011719 185.011719 389.351562 185.238281 C 390.140625 185.769531 390.921875 186.328125 391.691406 186.898438 C 391.691406 186.898438 391.699219 186.910156 391.710938 186.921875 C 392.53125 187.53125 393.339844 188.171875 394.128906 188.839844 C 394.378906 189.039062 394.628906 189.25 394.878906 189.46875 C 395.21875 189.769531 395.558594 190.070312 395.898438 190.378906 C 396.238281 190.679688 396.570312 190.988281 396.898438 191.308594 C 397.121094 191.511719 397.328125 191.71875 397.550781 191.941406 C 397.769531 192.148438 397.988281 192.371094 398.199219 192.589844 C 398.558594 192.949219 398.910156 193.320312 399.25 193.691406 L 399.261719 193.699219 C 399.609375 194.070312 399.960938 194.449219 400.289062 194.828125 C 400.519531 195.101562 400.761719 195.371094 400.988281 195.640625 C 401.269531 195.96875 401.550781 196.300781 401.820312 196.640625 C 402.101562 196.980469 402.371094 197.320312 402.628906 197.660156 C 402.898438 198.011719 403.160156 198.351562 403.421875 198.699219 C 403.699219 199.070312 403.96875 199.441406 404.230469 199.820312 C 404.46875 200.160156 404.699219 200.5 404.929688 200.839844 C 406.421875 203.058594 407.761719 205.390625 408.929688 207.820312 C 409.128906 208.230469 409.328125 208.648438 409.519531 209.070312 C 409.941406 209.988281 410.328125 210.929688 410.699219 211.878906 C 410.828125 212.21875 410.96875 212.570312 411.089844 212.921875 C 411.210938 213.230469 411.320312 213.539062 411.429688 213.859375 C 411.53125 214.148438 411.628906 214.429688 411.71875 214.71875 C 412.058594 215.75 412.371094 216.789062 412.648438 217.851562 C 412.738281 218.191406 412.828125 218.53125 412.910156 218.878906 C 412.988281 219.210938 413.070312 219.539062 413.148438 219.871094 C 413.230469 220.25 413.308594 220.628906 413.390625 221 C 413.488281 221.46875 413.578125 221.929688 413.660156 222.398438 C 413.738281 222.859375 413.820312 223.328125 413.890625 223.800781 C 413.949219 224.179688 414.011719 224.558594 414.050781 224.941406 C 414.089844 225.199219 414.121094 225.460938 414.148438 225.71875 C 414.199219 226.109375 414.238281 226.511719 414.28125 226.898438 C 414.320312 227.289062 414.351562 227.691406 414.378906 228.078125 C 414.398438 228.328125 414.421875 228.589844 414.429688 228.839844 C 414.449219 229.109375 414.46875 229.378906 414.480469 229.660156 C 414.53125 230.578125 414.550781 231.511719 414.550781 232.449219 Z M 414.550781 232.449219 " style=" stroke:none;fill-rule:nonzero;fill:rgb(65.098039%,22.352941%,7.843137%);fill-opacity:1;" />
<path d="M 357.683594 267.40625 L 357.285156 267.40625 L 381.828125 452.972656 C 384.429688 472.636719 369.125 490.097656 349.289062 490.097656 L 164.320312 490.097656 C 144.488281 490.097656 129.183594 472.636719 131.78125 452.972656 L 156.328125 267.40625 L 155.929688 267.40625 C 146.273438 267.40625 137.535156 263.496094 131.203125 257.171875 C 124.882812 250.84375 120.96875 242.101562 120.96875 232.449219 C 120.96875 213.140625 136.617188 197.488281 155.929688 197.488281 L 357.683594 197.488281 C 367.335938 197.488281 376.074219 201.398438 382.402344 207.730469 C 388.730469 214.054688 392.644531 222.792969 392.644531 232.449219 C 392.644531 251.757812 376.992188 267.40625 357.683594 267.40625 Z M 357.683594 267.40625 " style=" stroke:none;fill-rule:nonzero;fill:rgb(100%,75.294118%,64.313725%);fill-opacity:1;" />
<path d="M 357.683594 267.40625 L 357.285156 267.40625 L 381.828125 452.972656 C 384.429688 472.636719 369.125 490.097656 349.289062 490.097656 L 256.804688 490.097656 L 256.804688 197.488281 L 357.683594 197.488281 C 367.335938 197.488281 376.074219 201.398438 382.402344 207.726562 C 388.734375 214.050781 392.644531 222.792969 392.644531 232.445312 C 392.644531 251.757812 376.992188 267.40625 357.683594 267.40625 Z M 357.683594 267.40625 " style=" stroke:none;fill-rule:nonzero;fill:rgb(100%,65.882353%,47.843137%);fill-opacity:1;" />
<path d="M 309.128906 423.390625 C 307.441406 427.28125 303.429688 429.671875 299.179688 429.671875 L 221.070312 429.671875 C 215.269531 429.671875 210.570312 424.96875 210.570312 419.171875 C 210.570312 416.269531 211.738281 413.640625 213.640625 411.738281 C 215.539062 409.839844 218.171875 408.671875 221.070312 408.671875 L 243.398438 408.671875 C 247.558594 408.671875 248.988281 403.128906 245.351562 401.109375 L 208.179688 380.460938 C 201.820312 376.929688 198.769531 369.828125 200.570312 362.789062 C 202.378906 355.75 208.480469 350.988281 215.75 350.960938 L 243.808594 350.851562 C 247.96875 350.839844 249.390625 345.308594 245.75 343.289062 L 208.550781 322.640625 C 202.070312 319.03125 198.660156 311.460938 200.691406 304.328125 C 202.628906 297.519531 208.628906 292.960938 215.75 292.929688 L 243.808594 292.820312 C 247.96875 292.800781 249.390625 287.269531 245.75 285.261719 L 208.320312 264.46875 C 201.941406 260.929688 198.890625 253.789062 200.738281 246.71875 C 202.578125 239.699219 209.148438 234.96875 216.398438 234.96875 L 289.011719 234.96875 C 294.808594 234.96875 299.511719 239.671875 299.511719 245.46875 C 299.511719 248.371094 298.339844 251 296.441406 252.898438 C 294.539062 254.800781 291.910156 255.96875 289.011719 255.96875 L 251.851562 255.96875 C 247.691406 255.96875 246.25 261.511719 249.890625 263.53125 L 256.800781 267.371094 L 287.070312 284.171875 C 293.421875 287.710938 296.480469 294.808594 294.671875 301.851562 C 292.859375 308.890625 286.761719 313.640625 279.488281 313.671875 L 256.800781 313.769531 L 251.429688 313.789062 C 247.28125 313.800781 245.859375 319.328125 249.488281 321.351562 L 256.800781 325.410156 L 287.070312 342.210938 C 293.421875 345.738281 296.480469 352.839844 294.671875 359.890625 C 292.859375 366.929688 286.761719 371.679688 279.488281 371.710938 L 256.800781 371.800781 L 251.429688 371.820312 C 247.28125 371.839844 245.859375 377.371094 249.488281 379.378906 L 256.800781 383.441406 L 304.601562 409.988281 C 309.269531 412.578125 311.320312 418.320312 309.128906 423.390625 Z M 309.128906 423.390625 " style=" stroke:none;fill-rule:nonzero;fill:rgb(100%,20.392157%,27.058824%);fill-opacity:1;" />
<path d="M 299.511719 245.46875 L 256.800781 245.46875 L 256.800781 234.96875 L 289.011719 234.96875 C 294.808594 234.96875 299.511719 239.671875 299.511719 245.46875 Z M 299.511719 245.46875 " style=" stroke:none;fill-rule:nonzero;fill:rgb(86.666667%,7.058824%,39.607843%);fill-opacity:1;" />
<path d="M 299.511719 245.46875 C 299.511719 248.371094 298.339844 251 296.441406 252.898438 C 294.539062 254.800781 291.910156 255.96875 289.011719 255.96875 L 256.800781 255.96875 L 256.800781 245.46875 Z M 299.511719 245.46875 " style=" stroke:none;fill-rule:nonzero;fill:rgb(72.941176%,5.098039%,36.078431%);fill-opacity:1;" />
<path d="M 215.960938 245.46875 L 256.800781 245.46875 L 256.800781 255.96875 L 251.851562 255.96875 C 247.691406 255.96875 246.25 261.511719 249.890625 263.53125 L 256.800781 267.371094 L 256.800781 279.378906 L 213.421875 255.289062 C 208.691406 252.671875 210.558594 245.46875 215.960938 245.46875 Z M 215.960938 245.46875 " style=" stroke:none;fill-rule:nonzero;fill:rgb(86.666667%,7.058824%,39.607843%);fill-opacity:1;" />
<path d="M 215.800781 303.429688 L 256.800781 303.261719 L 256.800781 313.769531 L 251.429688 313.789062 C 247.28125 313.800781 245.859375 319.328125 249.488281 321.351562 L 256.800781 325.410156 L 256.800781 337.421875 L 213.269531 313.25 C 208.558594 310.628906 210.398438 303.449219 215.800781 303.429688 Z M 215.800781 303.429688 " style=" stroke:none;fill-rule:nonzero;fill:rgb(86.666667%,7.058824%,39.607843%);fill-opacity:1;" />
<path d="M 249.488281 379.378906 L 256.800781 383.441406 L 256.800781 395.460938 L 213.269531 371.28125 C 208.558594 368.660156 210.398438 361.488281 215.800781 361.460938 L 256.800781 361.300781 L 256.800781 371.800781 L 251.429688 371.820312 C 247.28125 371.839844 245.859375 377.371094 249.488281 379.378906 Z M 249.488281 379.378906 " style=" stroke:none;fill-rule:nonzero;fill:rgb(86.666667%,7.058824%,39.607843%);fill-opacity:1;" />
<path d="M 210.570312 419.171875 L 256.800781 419.171875 L 256.800781 429.671875 L 221.070312 429.671875 C 215.269531 429.671875 210.570312 424.96875 210.570312 419.171875 Z M 210.570312 419.171875 " style=" stroke:none;fill-rule:nonzero;fill:rgb(86.666667%,7.058824%,39.607843%);fill-opacity:1;" />
<path d="M 309.128906 423.390625 C 307.441406 427.28125 303.429688 429.671875 299.179688 429.671875 L 256.800781 429.671875 L 256.800781 419.171875 L 284.070312 419.171875 C 288.199219 419.171875 289.621094 413.679688 286.011719 411.679688 L 256.800781 395.460938 L 256.800781 383.441406 L 304.601562 409.988281 C 309.269531 412.578125 311.320312 418.320312 309.128906 423.390625 Z M 309.128906 423.390625 " style=" stroke:none;fill-rule:nonzero;fill:rgb(72.941176%,5.098039%,36.078431%);fill-opacity:1;" />
<path d="M 284.070312 419.171875 L 256.800781 419.171875 L 256.800781 395.460938 L 286.011719 411.679688 C 289.621094 413.679688 288.199219 419.171875 284.070312 419.171875 Z M 284.070312 419.171875 " style=" stroke:none;fill-rule:nonzero;fill:rgb(86.666667%,7.058824%,39.607843%);fill-opacity:1;" />
<path d="M 294.671875 359.890625 C 292.859375 366.929688 286.761719 371.679688 279.488281 371.710938 L 256.800781 371.800781 L 256.800781 361.300781 L 279.449219 361.210938 C 284.839844 361.191406 286.691406 354.011719 281.96875 351.390625 L 256.800781 337.421875 L 256.800781 325.410156 L 287.070312 342.210938 C 293.421875 345.738281 296.480469 352.839844 294.671875 359.890625 Z M 294.671875 359.890625 " style=" stroke:none;fill-rule:nonzero;fill:rgb(72.941176%,5.098039%,36.078431%);fill-opacity:1;" />
<path d="M 279.449219 361.210938 L 256.800781 361.300781 L 256.800781 337.421875 L 281.96875 351.390625 C 286.691406 354.011719 284.839844 361.191406 279.449219 361.210938 Z M 279.449219 361.210938 " style=" stroke:none;fill-rule:nonzero;fill:rgb(86.666667%,7.058824%,39.607843%);fill-opacity:1;" />
<path d="M 294.671875 301.851562 C 292.859375 308.890625 286.761719 313.640625 279.488281 313.671875 L 256.800781 313.769531 L 256.800781 303.261719 L 279.449219 303.171875 C 284.839844 303.148438 286.691406 295.96875 281.96875 293.351562 L 256.800781 279.378906 L 256.800781 267.371094 L 287.070312 284.171875 C 293.421875 287.710938 296.480469 294.808594 294.671875 301.851562 Z M 294.671875 301.851562 " style=" stroke:none;fill-rule:nonzero;fill:rgb(72.941176%,5.098039%,36.078431%);fill-opacity:1;" />
<path d="M 279.449219 303.171875 L 256.800781 303.261719 L 256.800781 279.378906 L 281.96875 293.351562 C 286.691406 295.96875 284.839844 303.148438 279.449219 303.171875 Z M 279.449219 303.171875 " style=" stroke:none;fill-rule:nonzero;fill:rgb(86.666667%,7.058824%,39.607843%);fill-opacity:1;" />
</g>
</svg>