<svg xmlns="http://www.w3.org/2000/svg" height="512pt" version="1.1" viewBox="0 0 512 512" width="512pt">
<g id="surface1">
<path d="M 512 256 C 512 397.386719 397.386719 512 256 512 C 114.613281 512 0 397.386719 0 256 C 0 114.613281 114.613281 0 256 0 C 397.386719 0 512 114.613281 512 256 Z M 512 256 " style=" stroke:none;fill-rule:nonzero;fill:rgb(100%,91.372549%,33.333333%);fill-opacity:1;" />
<path d="M 512 256 C 512 282.050781 508.109375 307.191406 500.871094 330.871094 C 468.859375 435.71875 371.328125 512 256 512 C 151.441406 512 61.511719 449.300781 21.769531 359.449219 C 7.769531 327.820312 0 292.820312 0 256 C 0 209.78125 12.25 166.429688 33.679688 129 C 77.800781 206.070312 160.839844 258 256 258 C 351.160156 258 434.210938 206.070312 478.320312 129 C 499.75 166.429688 512 209.78125 512 256 Z M 512 256 " style=" stroke:none;fill-rule:nonzero;fill:rgb(100%,81.960784%,7.058824%);fill-opacity:1;" />
<path d="M 30.742188 377.703125 C 37.898438 390.921875 46.171875 403.441406 55.460938 415.128906 C 102.359375 474.148438 174.761719 512 256 512 C 337.238281 512 409.640625 474.148438 456.539062 415.128906 C 465.828125 403.441406 474.101562 390.921875 481.257812 377.703125 Z M 30.742188 377.703125 " style=" stroke:none;fill-rule:nonzero;fill:rgb(100%,62.352941%,0%);fill-opacity:1;" />
<path d="M 408.503906 444.5625 L 103.496094 444.5625 L 255.996094 81.800781 Z M 408.503906 444.5625 " style=" stroke:none;fill-rule:nonzero;fill:rgb(100%,100%,100%);fill-opacity:1;" />
<path d="M 408.503906 444.5625 L 255.996094 444.5625 L 255.996094 81.800781 Z M 408.503906 444.5625 " style=" stroke:none;fill-rule:nonzero;fill:rgb(81.568627%,96.470588%,100%);fill-opacity:1;" />
<path d="M 307.738281 445.144531 L 255.996094 511.613281 L 204.261719 445.144531 L 204.339844 444.5625 L 255.996094 81.800781 L 307.660156 444.5625 Z M 307.738281 445.144531 " style=" stroke:none;fill-rule:nonzero;fill:rgb(81.568627%,96.470588%,100%);fill-opacity:1;" />
<path d="M 307.738281 445.144531 L 255.996094 511.613281 L 255.996094 81.800781 L 307.660156 444.5625 Z M 307.738281 445.144531 " style=" stroke:none;fill-rule:nonzero;fill:rgb(56.078431%,78.823529%,96.862745%);fill-opacity:1;" />
<path d="M 412.191406 117.140625 C 412.191406 117.074219 412.195312 117.007812 412.195312 116.941406 C 412.195312 104.769531 402.332031 94.90625 390.160156 94.90625 C 387.269531 94.90625 384.511719 95.46875 381.980469 96.480469 C 377.09375 87.726562 367.742188 81.800781 357.003906 81.800781 C 343.0625 81.800781 331.453125 91.789062 328.933594 104.996094 C 328.179688 104.890625 327.410156 104.832031 326.628906 104.832031 C 319.046875 104.832031 312.695312 110.078125 311 117.140625 Z M 412.191406 117.140625 " style=" stroke:none;fill-rule:nonzero;fill:rgb(100%,100%,100%);fill-opacity:1;" />
<path d="M 390.691406 117.140625 C 390.691406 117.101562 390.695312 117.0625 390.695312 117.027344 C 390.695312 110.027344 385.019531 104.355469 378.023438 104.355469 C 376.359375 104.355469 374.773438 104.679688 373.320312 105.261719 C 370.511719 100.226562 365.132812 96.820312 358.960938 96.820312 C 350.941406 96.820312 344.265625 102.5625 342.816406 110.160156 C 342.382812 110.097656 341.941406 110.0625 341.492188 110.0625 C 337.132812 110.0625 333.480469 113.082031 332.503906 117.140625 Z M 390.691406 117.140625 " style=" stroke:none;fill-rule:nonzero;fill:rgb(81.568627%,96.470588%,100%);fill-opacity:1;" />
<path d="M 466.925781 233 C 466.925781 232.933594 466.933594 232.867188 466.933594 232.800781 C 466.933594 220.632812 457.066406 210.765625 444.894531 210.765625 C 442.003906 210.765625 439.246094 211.328125 436.714844 212.339844 C 431.828125 203.585938 422.476562 197.660156 411.742188 197.660156 C 397.796875 197.660156 386.191406 207.648438 383.667969 220.859375 C 382.914062 220.75 382.148438 220.691406 381.367188 220.691406 C 373.785156 220.691406 367.433594 225.9375 365.734375 233 Z M 466.925781 233 " style=" stroke:none;fill-rule:nonzero;fill:rgb(100%,100%,100%);fill-opacity:1;" />
<path d="M 445.425781 233 C 445.425781 232.960938 445.429688 232.925781 445.429688 232.886719 C 445.429688 225.886719 439.757812 220.214844 432.757812 220.214844 C 431.09375 220.214844 429.507812 220.539062 428.054688 221.121094 C 425.246094 216.085938 419.867188 212.679688 413.695312 212.679688 C 405.675781 212.679688 399.003906 218.421875 397.550781 226.019531 C 397.117188 225.957031 396.675781 225.921875 396.226562 225.921875 C 391.867188 225.921875 388.214844 228.941406 387.238281 233 Z M 445.425781 233 " style=" stroke:none;fill-rule:nonzero;fill:rgb(81.568627%,96.470588%,100%);fill-opacity:1;" />
<path d="M 85.480469 117.140625 C 85.480469 117.074219 85.476562 117.007812 85.476562 116.941406 C 85.476562 104.769531 95.34375 94.90625 107.511719 94.90625 C 110.402344 94.90625 113.164062 95.46875 115.691406 96.480469 C 120.578125 87.726562 129.929688 81.800781 140.667969 81.800781 C 154.613281 81.800781 166.21875 91.789062 168.742188 104.996094 C 169.492188 104.890625 170.261719 104.832031 171.042969 104.832031 C 178.625 104.832031 184.976562 110.078125 186.675781 117.140625 Z M 85.480469 117.140625 " style=" stroke:none;fill-rule:nonzero;fill:rgb(100%,100%,100%);fill-opacity:1;" />
<path d="M 106.980469 117.140625 C 106.980469 117.101562 106.980469 117.0625 106.980469 117.027344 C 106.980469 110.027344 112.652344 104.355469 119.648438 104.355469 C 121.3125 104.355469 122.898438 104.679688 124.351562 105.261719 C 127.164062 100.226562 132.539062 96.820312 138.714844 96.820312 C 146.730469 96.820312 153.40625 102.5625 154.855469 110.160156 C 155.289062 110.097656 155.730469 110.0625 156.179688 110.0625 C 160.539062 110.0625 164.191406 113.082031 165.167969 117.140625 Z M 106.980469 117.140625 " style=" stroke:none;fill-rule:nonzero;fill:rgb(81.568627%,96.470588%,100%);fill-opacity:1;" />
<path d="M 30.746094 233 C 30.746094 232.933594 30.742188 232.867188 30.742188 232.800781 C 30.742188 220.632812 40.605469 210.765625 52.777344 210.765625 C 55.667969 210.765625 58.429688 211.328125 60.957031 212.339844 C 65.84375 203.585938 75.195312 197.660156 85.933594 197.660156 C 99.878906 197.660156 111.484375 207.648438 114.007812 220.859375 C 114.757812 220.75 115.527344 220.691406 116.308594 220.691406 C 123.890625 220.691406 130.242188 225.9375 131.9375 233 Z M 30.746094 233 " style=" stroke:none;fill-rule:nonzero;fill:rgb(100%,100%,100%);fill-opacity:1;" />
<path d="M 52.246094 233 C 52.246094 232.960938 52.242188 232.925781 52.242188 232.886719 C 52.242188 225.886719 57.917969 220.214844 64.914062 220.214844 C 66.578125 220.214844 68.164062 220.539062 69.617188 221.121094 C 72.429688 216.085938 77.804688 212.679688 83.980469 212.679688 C 91.996094 212.679688 98.671875 218.421875 100.121094 226.019531 C 100.554688 225.957031 100.996094 225.921875 101.445312 225.921875 C 105.804688 225.921875 109.457031 228.941406 110.433594 233 Z M 52.246094 233 " style=" stroke:none;fill-rule:nonzero;fill:rgb(81.568627%,96.470588%,100%);fill-opacity:1;" />
</g>
</svg>