<svg xmlns="http://www.w3.org/2000/svg" height="512pt" version="1.1" viewBox="0 0 512 512" width="512pt">
<g id="surface1">
<path d="M 512 256 C 512 397.386719 397.386719 512 256 512 C 114.613281 512 0 397.386719 0 256 C 0 114.613281 114.613281 0 256 0 C 397.386719 0 512 114.613281 512 256 Z M 512 256 " style=" stroke:none;fill-rule:nonzero;fill:rgb(39.607843%,69.803922%,100%);fill-opacity:1;" />
<path d="M 512 256 C 512 282.050781 508.109375 307.191406 500.871094 330.871094 C 468.859375 435.71875 371.328125 512 256 512 C 151.441406 512 61.511719 449.300781 21.769531 359.449219 C 7.769531 327.820312 0 292.820312 0 256 C 0 209.78125 12.25 166.429688 33.679688 129 C 77.800781 206.070312 160.839844 258 256 258 C 351.160156 258 434.210938 206.070312 478.320312 129 C 499.75 166.429688 512 209.78125 512 256 Z M 512 256 " style=" stroke:none;fill-rule:nonzero;fill:rgb(5.882353%,60.784314%,90.980392%);fill-opacity:1;" />
<path d="M 30.742188 377.703125 C 37.898438 390.921875 46.171875 403.441406 55.460938 415.128906 C 102.359375 474.148438 174.761719 512 256 512 C 337.238281 512 409.640625 474.148438 456.539062 415.128906 C 465.828125 403.441406 474.101562 390.921875 481.257812 377.703125 Z M 30.742188 377.703125 " style=" stroke:none;fill-rule:nonzero;fill:rgb(0%,40%,90.980392%);fill-opacity:1;" />
<path d="M 291.554688 90.605469 C 291.554688 109.082031 284.144531 125.550781 272.320312 139.445312 C 258.519531 155.660156 240.617188 167.8125 220.835938 174.867188 C 207.988281 179.449219 194.351562 181.878906 180.527344 181.878906 L 180.324219 181.878906 C 176.699219 181.871094 175.902344 176.785156 179.339844 175.632812 C 190.1875 171.984375 200.347656 166.835938 209.566406 160.433594 C 175.863281 155.042969 150.113281 125.832031 150.113281 90.605469 C 150.113281 51.546875 181.777344 19.882812 220.832031 19.882812 L 220.835938 19.882812 C 254.433594 19.882812 282.554688 43.308594 289.765625 74.71875 C 290.9375 79.824219 291.554688 85.140625 291.554688 90.605469 Z M 291.554688 90.605469 " style=" stroke:none;fill-rule:nonzero;fill:rgb(100%,100%,100%);fill-opacity:1;" />
<path d="M 291.554688 90.605469 C 291.554688 109.082031 284.144531 125.550781 272.320312 139.445312 C 258.519531 155.660156 240.617188 167.8125 220.835938 174.867188 L 220.835938 19.882812 C 254.433594 19.882812 282.554688 43.308594 289.765625 74.71875 C 290.9375 79.824219 291.554688 85.140625 291.554688 90.605469 Z M 291.554688 90.605469 " style=" stroke:none;fill-rule:nonzero;fill:rgb(81.568627%,96.470588%,100%);fill-opacity:1;" />
<path d="M 233.890625 123.601562 C 232.789062 117.78125 228.179688 113.851562 221.820312 113.640625 C 221.488281 113.628906 221.160156 113.628906 220.839844 113.640625 C 213.890625 113.941406 208.28125 119.878906 208.519531 126.941406 C 208.738281 133.300781 212.660156 137.910156 218.480469 139.011719 C 219.28125 139.160156 220.058594 139.238281 220.839844 139.238281 C 228.859375 139.300781 235.460938 131.839844 233.890625 123.601562 Z M 231.359375 54.519531 C 228.929688 52.089844 225.589844 50.601562 221.898438 50.601562 C 221.539062 50.601562 221.191406 50.609375 220.839844 50.640625 C 213.941406 51.179688 208.511719 56.949219 208.511719 63.980469 L 208.511719 73.570312 C 208.511719 73.589844 208.511719 73.621094 208.519531 73.648438 L 212.238281 97.71875 C 212.609375 100.101562 213.808594 102.171875 215.53125 103.648438 C 217 104.898438 218.828125 105.730469 220.839844 105.941406 C 221.179688 105.980469 221.539062 106 221.898438 106 C 226.71875 106 230.820312 102.480469 231.550781 97.71875 L 235.269531 73.648438 C 235.269531 73.621094 235.28125 73.589844 235.28125 73.570312 L 235.28125 63.980469 C 235.28125 60.289062 233.78125 56.941406 231.359375 54.519531 Z M 231.359375 54.519531 " style=" stroke:none;fill-rule:nonzero;fill:rgb(27.843137%,30.980392%,43.529412%);fill-opacity:1;" />
<path d="M 233.894531 123.601562 C 235.460938 131.84375 228.863281 139.300781 220.835938 139.242188 L 220.835938 113.644531 C 221.160156 113.632812 221.488281 113.628906 221.820312 113.640625 C 228.179688 113.855469 232.789062 117.78125 233.894531 123.601562 Z M 233.894531 123.601562 " style=" stroke:none;fill-rule:nonzero;fill:rgb(19.607843%,23.137255%,35.294118%);fill-opacity:1;" />
<path d="M 235.277344 63.980469 L 235.277344 73.566406 C 235.277344 73.59375 235.273438 73.621094 235.269531 73.648438 L 231.550781 97.71875 C 230.816406 102.484375 226.714844 106 221.894531 106 C 221.535156 106 221.183594 105.980469 220.835938 105.941406 L 220.835938 50.636719 C 221.183594 50.609375 221.535156 50.597656 221.894531 50.597656 C 225.589844 50.597656 228.933594 52.09375 231.355469 54.515625 C 233.777344 56.9375 235.277344 60.285156 235.277344 63.980469 Z M 235.277344 63.980469 " style=" stroke:none;fill-rule:nonzero;fill:rgb(19.607843%,23.137255%,35.294118%);fill-opacity:1;" />
<path d="M 252.710938 115.886719 C 252.710938 134.363281 260.121094 150.832031 271.945312 164.726562 C 285.746094 180.945312 303.648438 193.09375 323.429688 200.152344 C 336.277344 204.730469 349.914062 207.160156 363.738281 207.160156 L 363.941406 207.160156 C 367.566406 207.15625 368.363281 202.066406 364.929688 200.914062 C 354.078125 197.265625 343.921875 192.117188 334.699219 185.71875 C 368.402344 180.324219 394.152344 151.113281 394.152344 115.890625 C 394.152344 76.828125 362.488281 45.164062 323.433594 45.164062 L 323.429688 45.164062 C 289.835938 45.164062 261.710938 68.589844 254.503906 100 C 253.328125 105.105469 252.710938 110.425781 252.710938 115.886719 Z M 252.710938 115.886719 " style=" stroke:none;fill-rule:nonzero;fill:rgb(81.568627%,96.470588%,100%);fill-opacity:1;" />
<path d="M 252.710938 115.886719 C 252.710938 134.363281 260.121094 150.832031 271.945312 164.726562 C 285.746094 180.945312 303.648438 193.09375 323.429688 200.152344 L 323.429688 45.164062 C 289.835938 45.164062 261.710938 68.589844 254.503906 100 C 253.328125 105.105469 252.710938 110.425781 252.710938 115.886719 Z M 252.710938 115.886719 " style=" stroke:none;fill-rule:nonzero;fill:rgb(100%,100%,100%);fill-opacity:1;" />
<path d="M 323.429688 132.828125 C 323.238281 132.820312 323.039062 132.808594 322.839844 132.808594 C 316.601562 132.808594 312.230469 137.179688 312.230469 143.429688 C 312.230469 149.769531 316.601562 154.148438 322.839844 154.148438 C 323.039062 154.148438 323.238281 154.140625 323.429688 154.128906 C 329.460938 153.871094 333.558594 149.578125 333.558594 143.429688 C 333.558594 137.378906 329.460938 133.089844 323.429688 132.828125 Z M 323.570312 79.328125 L 323.429688 79.328125 C 311.769531 79.371094 303.628906 84.53125 300 93.679688 C 299.558594 94.789062 299.351562 95.910156 299.351562 97 C 299.351562 101.738281 303.191406 105.96875 308.339844 105.96875 C 311.878906 105.96875 315.199219 103.960938 316.601562 100.71875 C 317.480469 98.699219 319.050781 97.75 321.390625 97.75 C 322.171875 97.75 322.851562 97.828125 323.429688 98.011719 C 325.148438 98.53125 325.96875 99.859375 325.96875 102.121094 C 325.96875 104.558594 324.910156 106.410156 323.429688 108.238281 C 321.96875 110.050781 320.109375 111.839844 318.460938 114.171875 C 317.410156 115.660156 316.929688 117.300781 316.929688 118.910156 C 316.929688 122.660156 319.53125 126.210938 323.429688 127.089844 C 324.03125 127.230469 324.660156 127.300781 325.320312 127.300781 C 328.558594 127.300781 331.589844 125.488281 332.980469 122.558594 C 336.511719 115.089844 347.511719 110.929688 347.511719 98.269531 C 347.511719 86.300781 338.660156 79.328125 323.570312 79.328125 Z M 323.570312 79.328125 " style=" stroke:none;fill-rule:nonzero;fill:rgb(19.607843%,23.137255%,35.294118%);fill-opacity:1;" />
<path d="M 323.429688 79.328125 L 323.429688 98.007812 C 322.851562 97.832031 322.171875 97.746094 321.386719 97.746094 C 319.050781 97.746094 317.480469 98.703125 316.605469 100.714844 C 315.195312 103.960938 311.882812 105.964844 308.34375 105.964844 C 303.195312 105.964844 299.355469 101.738281 299.355469 96.996094 C 299.355469 95.902344 299.558594 94.785156 299.996094 93.683594 C 303.625 84.527344 311.769531 79.371094 323.429688 79.328125 Z M 323.429688 79.328125 " style=" stroke:none;fill-rule:nonzero;fill:rgb(27.843137%,30.980392%,43.529412%);fill-opacity:1;" />
<path d="M 318.460938 114.167969 C 320.105469 111.84375 321.96875 110.046875 323.429688 108.238281 L 323.429688 127.089844 C 319.53125 126.210938 316.929688 122.664062 316.929688 118.90625 C 316.929688 117.300781 317.40625 115.65625 318.460938 114.167969 Z M 318.460938 114.167969 " style=" stroke:none;fill-rule:nonzero;fill:rgb(27.843137%,30.980392%,43.529412%);fill-opacity:1;" />
<path d="M 322.84375 132.8125 C 323.042969 132.8125 323.238281 132.820312 323.429688 132.828125 L 323.429688 154.132812 C 323.238281 154.140625 323.042969 154.144531 322.84375 154.144531 C 316.597656 154.144531 312.230469 149.773438 312.230469 143.425781 C 312.230469 137.183594 316.597656 132.8125 322.84375 132.8125 Z M 322.84375 132.8125 " style=" stroke:none;fill-rule:nonzero;fill:rgb(27.843137%,30.980392%,43.529412%);fill-opacity:1;" />
<path d="M 463.421875 406.070312 C 443.488281 433.570312 418.230469 456.949219 389.148438 474.691406 C 364.378906 489.800781 336.851562 500.820312 307.480469 506.820312 L 307.480469 436.828125 C 307.480469 412.25 318.429688 390.21875 335.71875 375.371094 C 337.050781 374.21875 338.421875 373.121094 339.820312 372.070312 C 345.191406 368.019531 351.089844 364.628906 357.390625 362.019531 C 358.898438 361.378906 360.449219 360.789062 362.011719 360.261719 C 362.660156 360.039062 363.308594 359.820312 363.960938 359.609375 C 364.589844 359.410156 365.230469 359.21875 365.859375 359.03125 C 365.890625 359.019531 365.921875 359.011719 365.949219 359 C 367.269531 358.628906 368.601562 358.28125 369.941406 357.96875 C 370.441406 357.851562 370.949219 357.730469 371.449219 357.628906 C 372.808594 357.328125 374.179688 357.078125 375.558594 356.859375 C 376.148438 356.761719 376.738281 356.671875 377.339844 356.589844 C 377.929688 356.511719 378.53125 356.429688 379.128906 356.359375 C 379.910156 356.269531 380.691406 356.191406 381.46875 356.128906 C 382.148438 356.070312 382.839844 356.019531 383.53125 355.980469 C 383.550781 355.96875 383.558594 355.96875 383.578125 355.980469 C 384.269531 355.929688 384.96875 355.898438 385.660156 355.878906 C 386.539062 355.839844 387.421875 355.828125 388.300781 355.828125 L 389.160156 355.828125 C 389.570312 355.839844 389.980469 355.839844 390.390625 355.851562 C 391.070312 355.871094 391.75 355.890625 392.421875 355.929688 C 392.570312 355.941406 392.730469 355.949219 392.878906 355.949219 C 393.441406 355.988281 394.011719 356.019531 394.570312 356.070312 C 394.78125 356.070312 394.988281 356.089844 395.199219 356.109375 C 395.328125 356.109375 395.449219 356.128906 395.578125 356.140625 C 396.21875 356.191406 396.871094 356.261719 397.5 356.328125 C 397.710938 356.351562 397.929688 356.378906 398.140625 356.398438 C 398.839844 356.488281 399.539062 356.578125 400.230469 356.679688 L 400.238281 356.679688 C 400.820312 356.761719 401.390625 356.851562 401.96875 356.949219 C 402.621094 357.058594 403.269531 357.179688 403.921875 357.300781 C 404.441406 357.398438 404.949219 357.511719 405.46875 357.621094 C 405.898438 357.710938 406.328125 357.800781 406.75 357.898438 C 407.179688 358 407.609375 358.101562 408.03125 358.210938 C 408.878906 358.421875 409.730469 358.640625 410.570312 358.878906 C 410.988281 359 411.410156 359.121094 411.828125 359.25 C 412.171875 359.351562 412.5 359.449219 412.839844 359.558594 C 413.539062 359.78125 414.230469 360.011719 414.921875 360.25 C 415.121094 360.320312 415.308594 360.378906 415.511719 360.460938 C 415.519531 360.460938 415.539062 360.460938 415.550781 360.46875 C 416.359375 360.761719 417.160156 361.058594 417.949219 361.371094 C 417.960938 361.371094 417.96875 361.371094 417.980469 361.378906 C 418.738281 361.671875 419.488281 361.980469 420.238281 362.300781 C 421.078125 362.648438 421.898438 363.03125 422.730469 363.410156 C 427.398438 365.601562 431.839844 368.21875 435.980469 371.21875 C 436.671875 371.730469 437.351562 372.238281 438.019531 372.761719 C 438.160156 372.871094 438.308594 372.980469 438.449219 373.089844 C 438.871094 373.421875 439.28125 373.761719 439.691406 374.089844 C 439.71875 374.109375 439.761719 374.140625 439.789062 374.160156 C 439.839844 374.199219 439.890625 374.238281 439.941406 374.289062 C 440.398438 374.671875 440.851562 375.050781 441.300781 375.429688 C 441.480469 375.578125 441.648438 375.71875 441.808594 375.878906 C 442.339844 376.339844 442.859375 376.808594 443.378906 377.289062 C 445.449219 379.191406 447.421875 381.210938 449.28125 383.328125 C 449.589844 383.679688 449.898438 384.03125 450.199219 384.390625 C 450.410156 384.621094 450.609375 384.859375 450.800781 385.109375 C 451.171875 385.550781 451.53125 385.988281 451.871094 386.429688 C 451.929688 386.488281 451.980469 386.550781 452.019531 386.609375 C 452.351562 387.019531 452.671875 387.429688 452.96875 387.839844 C 453.339844 388.300781 453.691406 388.769531 454.019531 389.25 C 454.359375 389.699219 454.679688 390.160156 455 390.621094 C 455.078125 390.71875 455.140625 390.820312 455.210938 390.921875 C 455.53125 391.390625 455.851562 391.859375 456.160156 392.328125 C 456.5 392.839844 456.839844 393.359375 457.160156 393.890625 C 457.429688 394.320312 457.699219 394.761719 457.960938 395.199219 C 458.46875 396.03125 458.960938 396.871094 459.421875 397.730469 C 459.640625 398.109375 459.851562 398.5 460.050781 398.890625 C 460.351562 399.441406 460.640625 400 460.921875 400.570312 C 461.21875 401.179688 461.519531 401.789062 461.808594 402.398438 C 462.378906 403.601562 462.921875 404.828125 463.421875 406.070312 Z M 463.421875 406.070312 " style=" stroke:none;fill-rule:nonzero;fill:rgb(100%,91.372549%,33.333333%);fill-opacity:1;" />
<path d="M 463.421875 406.070312 C 443.488281 433.570312 418.230469 456.949219 389.148438 474.691406 L 389.148438 355.828125 L 389.160156 355.828125 C 389.570312 355.839844 389.980469 355.839844 390.390625 355.851562 C 391.070312 355.871094 391.75 355.890625 392.421875 355.929688 C 392.570312 355.941406 392.730469 355.949219 392.878906 355.949219 C 393.441406 355.988281 394.011719 356.019531 394.570312 356.070312 C 394.78125 356.070312 394.988281 356.089844 395.199219 356.109375 C 395.328125 356.109375 395.449219 356.128906 395.578125 356.140625 C 396.21875 356.191406 396.871094 356.261719 397.5 356.328125 C 397.710938 356.351562 397.929688 356.378906 398.140625 356.398438 C 398.839844 356.488281 399.539062 356.578125 400.230469 356.679688 L 400.238281 356.679688 C 400.820312 356.761719 401.390625 356.851562 401.96875 356.949219 C 402.621094 357.058594 403.269531 357.179688 403.921875 357.300781 C 404.441406 357.398438 404.949219 357.511719 405.46875 357.621094 C 405.898438 357.710938 406.328125 357.800781 406.75 357.898438 C 407.179688 358 407.609375 358.101562 408.03125 358.210938 C 408.878906 358.421875 409.730469 358.640625 410.570312 358.878906 C 410.988281 359 411.410156 359.121094 411.828125 359.25 C 412.171875 359.351562 412.5 359.449219 412.839844 359.558594 C 413.539062 359.78125 414.230469 360.011719 414.921875 360.25 C 415.121094 360.308594 415.320312 360.378906 415.519531 360.449219 C 415.929688 360.601562 416.339844 360.738281 416.75 360.898438 C 416.761719 360.910156 416.761719 360.910156 416.769531 360.910156 C 417.171875 361.058594 417.558594 361.210938 417.949219 361.371094 C 417.960938 361.371094 417.96875 361.371094 417.980469 361.378906 C 418.378906 361.53125 418.78125 361.691406 419.179688 361.851562 C 419.179688 361.851562 419.179688 361.859375 419.191406 361.859375 C 419.589844 362.019531 419.988281 362.179688 420.378906 362.351562 C 421.171875 362.691406 421.960938 363.039062 422.730469 363.410156 C 427.398438 365.601562 431.839844 368.21875 435.980469 371.21875 C 436.671875 371.71875 437.351562 372.230469 438.019531 372.75 C 438.171875 372.859375 438.308594 372.980469 438.449219 373.089844 C 438.871094 373.421875 439.28125 373.761719 439.691406 374.089844 C 439.71875 374.109375 439.761719 374.140625 439.789062 374.160156 C 439.839844 374.199219 439.890625 374.238281 439.941406 374.289062 C 440.398438 374.671875 440.851562 375.050781 441.300781 375.429688 C 441.480469 375.578125 441.648438 375.71875 441.808594 375.878906 C 442.339844 376.339844 442.859375 376.808594 443.378906 377.289062 C 445.449219 379.191406 447.421875 381.210938 449.28125 383.328125 C 449.589844 383.679688 449.898438 384.03125 450.199219 384.390625 C 450.410156 384.621094 450.609375 384.859375 450.800781 385.109375 C 451.171875 385.550781 451.53125 385.988281 451.871094 386.429688 C 451.929688 386.488281 451.980469 386.550781 452.019531 386.609375 C 452.351562 387.019531 452.671875 387.429688 452.96875 387.839844 C 453.339844 388.300781 453.691406 388.769531 454.019531 389.25 C 454.359375 389.699219 454.679688 390.160156 455 390.621094 C 455.078125 390.71875 455.140625 390.820312 455.210938 390.921875 C 455.53125 391.390625 455.851562 391.859375 456.160156 392.328125 C 456.5 392.839844 456.839844 393.359375 457.160156 393.890625 C 457.429688 394.320312 457.699219 394.761719 457.960938 395.199219 C 458.46875 396.03125 458.960938 396.871094 459.421875 397.730469 C 459.640625 398.109375 459.851562 398.5 460.050781 398.890625 C 460.351562 399.441406 460.640625 400 460.921875 400.570312 C 461.21875 401.179688 461.519531 401.789062 461.808594 402.398438 C 462.378906 403.601562 462.921875 404.828125 463.421875 406.070312 Z M 463.421875 406.070312 " style=" stroke:none;fill-rule:nonzero;fill:rgb(100%,81.960784%,7.058824%);fill-opacity:1;" />
<path d="M 441.808594 375.878906 L 389.15625 428.648438 L 335.722656 375.375 C 337.050781 374.222656 338.414062 373.125 339.824219 372.066406 C 350.558594 363.980469 363.386719 358.507812 377.335938 356.589844 C 380.976562 356.085938 384.695312 355.828125 388.472656 355.828125 L 389.15625 355.828125 C 392.90625 355.863281 396.609375 356.152344 400.226562 356.683594 L 400.234375 356.683594 C 414.332031 358.730469 427.257812 364.40625 438.019531 372.757812 C 438.585938 373.191406 439.136719 373.636719 439.683594 374.085938 C 439.769531 374.148438 439.855469 374.222656 439.941406 374.292969 C 440.402344 374.667969 440.851562 375.050781 441.296875 375.433594 C 441.476562 375.578125 441.644531 375.726562 441.808594 375.878906 Z M 441.808594 375.878906 " style=" stroke:none;fill-rule:nonzero;fill:rgb(100%,100%,100%);fill-opacity:1;" />
<path d="M 441.808594 375.878906 L 389.15625 428.648438 L 389.15625 355.828125 C 392.910156 355.863281 396.609375 356.152344 400.226562 356.683594 L 400.234375 356.683594 C 414.332031 358.730469 427.261719 364.410156 438.023438 372.757812 C 438.585938 373.191406 439.140625 373.636719 439.683594 374.089844 C 439.769531 374.148438 439.855469 374.222656 439.941406 374.292969 C 440.402344 374.667969 440.855469 375.050781 441.296875 375.4375 C 441.476562 375.578125 441.644531 375.726562 441.808594 375.878906 Z M 441.808594 375.878906 " style=" stroke:none;fill-rule:nonzero;fill:rgb(81.568627%,96.470588%,100%);fill-opacity:1;" />
<path d="M 418.902344 361.800781 C 417.777344 377.515625 404.882812 389.96875 388.988281 390.402344 C 388.707031 390.410156 388.425781 390.410156 388.144531 390.410156 C 371.90625 390.410156 358.59375 377.875 357.382812 361.945312 C 363.625 359.359375 370.253906 357.535156 377.175781 356.589844 C 380.808594 356.085938 384.527344 355.828125 388.304688 355.828125 L 388.988281 355.828125 C 392.738281 355.863281 396.441406 356.152344 400.054688 356.683594 L 400.066406 356.683594 C 401.4375 356.878906 402.792969 357.117188 404.140625 357.382812 C 404.53125 357.457031 404.917969 357.535156 405.292969 357.621094 C 405.683594 357.703125 406.078125 357.789062 406.46875 357.875 C 406.945312 357.988281 407.414062 358.097656 407.894531 358.21875 C 408.625 358.394531 409.359375 358.59375 410.085938 358.796875 C 410.613281 358.933594 411.140625 359.085938 411.664062 359.25 C 411.835938 359.300781 412.003906 359.351562 412.175781 359.402344 C 412.832031 359.609375 413.480469 359.8125 414.128906 360.035156 C 414.136719 360.035156 414.144531 360.042969 414.152344 360.042969 C 414.496094 360.152344 414.835938 360.273438 415.167969 360.394531 C 415.324219 360.445312 415.46875 360.496094 415.621094 360.554688 C 416.226562 360.769531 416.832031 360.988281 417.429688 361.230469 C 417.921875 361.414062 418.40625 361.609375 418.902344 361.800781 Z M 418.902344 361.800781 " style=" stroke:none;fill-rule:nonzero;fill:rgb(100%,91.372549%,33.333333%);fill-opacity:1;" />
<path d="M 418.902344 361.800781 C 417.777344 377.515625 404.882812 389.96875 388.988281 390.402344 L 388.988281 355.828125 C 392.738281 355.863281 396.441406 356.152344 400.054688 356.683594 L 400.066406 356.683594 C 401.4375 356.878906 402.792969 357.117188 404.140625 357.382812 C 404.53125 357.457031 404.917969 357.535156 405.292969 357.621094 C 405.683594 357.703125 406.078125 357.789062 406.46875 357.875 C 406.945312 357.988281 407.414062 358.097656 407.894531 358.21875 C 408.625 358.394531 409.359375 358.59375 410.085938 358.796875 C 410.613281 358.933594 411.140625 359.085938 411.664062 359.25 C 411.835938 359.300781 412.003906 359.351562 412.175781 359.402344 C 412.832031 359.609375 413.480469 359.8125 414.128906 360.035156 C 414.136719 360.035156 414.144531 360.042969 414.152344 360.042969 C 414.496094 360.152344 414.835938 360.273438 415.167969 360.394531 C 415.324219 360.445312 415.46875 360.496094 415.621094 360.554688 C 416.226562 360.769531 416.832031 360.988281 417.429688 361.230469 C 417.921875 361.414062 418.40625 361.609375 418.902344 361.800781 Z M 418.902344 361.800781 " style=" stroke:none;fill-rule:nonzero;fill:rgb(100%,81.960784%,7.058824%);fill-opacity:1;" />
<path d="M 463.839844 278.359375 C 473.046875 278.359375 480.507812 285.820312 480.507812 295.027344 C 480.507812 311.796875 466.914062 325.390625 450.144531 325.390625 L 450.144531 278.320312 Z M 463.839844 278.359375 " style=" stroke:none;fill-rule:nonzero;fill:rgb(100%,65.882353%,47.843137%);fill-opacity:1;" />
<path d="M 314.136719 278.359375 C 304.933594 278.359375 297.46875 285.820312 297.46875 295.027344 C 297.46875 311.796875 311.0625 325.390625 327.832031 325.390625 L 327.832031 278.320312 Z M 314.136719 278.359375 " style=" stroke:none;fill-rule:nonzero;fill:rgb(100%,65.882353%,47.843137%);fill-opacity:1;" />
<path d="M 369.945312 331.113281 L 369.945312 358.207031 C 369.945312 368.722656 378.46875 377.25 388.988281 377.25 C 399.5 377.25 408.027344 368.71875 408.027344 358.207031 L 408.027344 331.113281 Z M 369.945312 331.113281 " style=" stroke:none;fill-rule:nonzero;fill:rgb(89.019608%,51.372549%,35.294118%);fill-opacity:1;" />
<path d="M 369.945312 331.113281 L 369.945312 358.207031 C 369.945312 368.722656 378.46875 377.25 388.988281 377.25 L 388.988281 331.113281 Z M 369.945312 331.113281 " style=" stroke:none;fill-rule:nonzero;fill:rgb(100%,65.882353%,47.843137%);fill-opacity:1;" />
<path d="M 323.832031 276.371094 L 323.832031 300.933594 C 323.832031 336.90625 352.992188 366.085938 388.976562 366.09375 C 388.984375 366.09375 388.984375 366.09375 388.988281 366.09375 C 424.960938 366.09375 454.140625 336.910156 454.140625 300.933594 L 454.140625 276.371094 C 454.140625 272.671875 453.839844 269.039062 453.226562 265.511719 C 448.976562 240.128906 430.039062 219.730469 405.464844 213.3125 C 400.203125 211.945312 394.675781 211.21875 388.988281 211.21875 C 388.984375 211.21875 388.984375 211.21875 388.976562 211.21875 C 383.28125 211.21875 377.757812 211.945312 372.496094 213.324219 C 347.921875 219.730469 329.003906 240.128906 324.746094 265.511719 C 324.140625 269.039062 323.832031 272.671875 323.832031 276.371094 Z M 323.832031 276.371094 " style=" stroke:none;fill-rule:nonzero;fill:rgb(100%,65.882353%,47.843137%);fill-opacity:1;" />
<path d="M 323.832031 276.371094 L 323.832031 300.933594 C 323.832031 336.90625 352.992188 366.085938 388.976562 366.09375 L 388.976562 211.222656 C 383.28125 211.222656 377.757812 211.949219 372.496094 213.324219 C 347.921875 219.730469 329.003906 240.128906 324.746094 265.511719 C 324.140625 269.039062 323.832031 272.671875 323.832031 276.371094 Z M 323.832031 276.371094 " style=" stroke:none;fill-rule:nonzero;fill:rgb(100%,75.294118%,64.313725%);fill-opacity:1;" />
<path d="M 368.453125 274.621094 L 371.394531 275.722656 C 373.601562 276.546875 376.058594 275.425781 376.882812 273.21875 C 377.707031 271.015625 376.585938 268.558594 374.382812 267.734375 C 366.203125 264.675781 357.09375 265.394531 349.5 269.695312 C 347.546875 270.800781 348.558594 273.789062 350.777344 273.484375 L 354.105469 273.027344 C 358.945312 272.363281 363.878906 272.910156 368.453125 274.621094 Z M 368.453125 274.621094 " style=" stroke:none;fill-rule:nonzero;fill:rgb(19.607843%,23.137255%,35.294118%);fill-opacity:1;" />
<path d="M 411.429688 274.621094 L 408.488281 275.722656 C 406.28125 276.546875 403.824219 275.425781 403 273.21875 C 402.175781 271.015625 403.296875 268.558594 405.5 267.734375 C 413.675781 264.675781 422.785156 265.394531 430.382812 269.695312 C 432.335938 270.800781 431.324219 273.789062 429.105469 273.484375 L 425.773438 273.027344 C 420.933594 272.363281 416.003906 272.910156 411.429688 274.621094 Z M 411.429688 274.621094 " style=" stroke:none;fill-rule:nonzero;fill:rgb(19.607843%,23.137255%,35.294118%);fill-opacity:1;" />
<path d="M 417.449219 292.769531 C 417.449219 297.199219 413.859375 300.789062 409.425781 300.789062 C 404.996094 300.789062 401.40625 297.199219 401.40625 292.769531 C 401.40625 288.335938 404.996094 284.746094 409.425781 284.746094 C 413.859375 284.746094 417.449219 288.335938 417.449219 292.769531 Z M 417.449219 292.769531 " style=" stroke:none;fill-rule:nonzero;fill:rgb(19.607843%,23.137255%,35.294118%);fill-opacity:1;" />
<path d="M 376.570312 292.769531 C 376.570312 297.199219 372.980469 300.789062 368.550781 300.789062 C 364.121094 300.789062 360.527344 297.199219 360.527344 292.769531 C 360.527344 288.335938 364.121094 284.746094 368.550781 284.746094 C 372.980469 284.746094 376.570312 288.335938 376.570312 292.769531 Z M 376.570312 292.769531 " style=" stroke:none;fill-rule:nonzero;fill:rgb(19.607843%,23.137255%,35.294118%);fill-opacity:1;" />
<path d="M 369.800781 325.425781 C 364.132812 325.425781 361.113281 332.230469 365.011719 336.347656 C 367.457031 338.925781 370.308594 341.109375 373.472656 342.792969 C 378.09375 345.269531 383.375 346.667969 388.988281 346.667969 C 394.601562 346.667969 399.882812 345.269531 404.503906 342.792969 C 407.664062 341.109375 410.519531 338.925781 412.964844 336.347656 C 416.863281 332.230469 413.84375 325.425781 408.175781 325.425781 Z M 369.800781 325.425781 " style=" stroke:none;fill-rule:nonzero;fill:rgb(19.607843%,23.137255%,35.294118%);fill-opacity:1;" />
<path d="M 388.988281 315.554688 C 385.867188 315.554688 383.339844 313.027344 383.339844 309.910156 L 383.339844 285.660156 C 383.339844 282.539062 385.867188 280.011719 388.988281 280.011719 C 392.105469 280.011719 394.636719 282.539062 394.636719 285.660156 L 394.636719 309.910156 C 394.636719 313.027344 392.105469 315.554688 388.988281 315.554688 Z M 388.988281 315.554688 " style=" stroke:none;fill-rule:nonzero;fill:rgb(89.019608%,51.372549%,35.294118%);fill-opacity:1;" />
<path d="M 404.507812 342.789062 C 399.886719 345.273438 394.597656 346.671875 388.988281 346.671875 C 383.375 346.671875 378.097656 345.269531 373.476562 342.789062 C 377.328125 338.609375 382.855469 335.992188 388.988281 335.992188 C 395.117188 335.992188 400.644531 338.609375 404.507812 342.789062 Z M 404.507812 342.789062 " style=" stroke:none;fill-rule:nonzero;fill:rgb(100%,20.392157%,27.058824%);fill-opacity:1;" />
<path d="M 404.507812 342.789062 C 399.886719 345.273438 394.597656 346.671875 388.988281 346.671875 L 388.988281 335.992188 C 395.117188 335.992188 400.644531 338.609375 404.507812 342.789062 Z M 404.507812 342.789062 " style=" stroke:none;fill-rule:nonzero;fill:rgb(86.666667%,7.058824%,39.607843%);fill-opacity:1;" />
<path d="M 463.851562 266.730469 L 463.851562 270.929688 C 452.074219 270.929688 440.902344 265.675781 433.386719 256.601562 L 415.675781 235.222656 C 407.472656 242.496094 398.507812 248.746094 388.992188 253.882812 C 368.441406 264.992188 345.304688 270.929688 321.605469 270.929688 L 318.652344 270.929688 C 317.492188 270.929688 316.445312 270.460938 315.6875 269.699219 C 314.925781 268.941406 314.457031 267.882812 314.457031 266.730469 C 314.457031 246.101562 322.824219 227.425781 336.339844 213.910156 C 349.824219 200.425781 368.429688 192.078125 388.992188 192.035156 L 389.152344 192.035156 C 430.410156 192.035156 463.851562 225.476562 463.851562 266.730469 Z M 463.851562 266.730469 " style=" stroke:none;fill-rule:nonzero;fill:rgb(27.843137%,30.980392%,43.529412%);fill-opacity:1;" />
<path d="M 463.851562 266.730469 L 463.851562 270.929688 C 452.074219 270.929688 440.902344 265.675781 433.386719 256.601562 L 415.675781 235.222656 C 407.472656 242.496094 398.507812 248.746094 388.992188 253.882812 L 388.992188 192.035156 L 389.152344 192.035156 C 430.410156 192.035156 463.851562 225.476562 463.851562 266.730469 Z M 463.851562 266.730469 " style=" stroke:none;fill-rule:nonzero;fill:rgb(19.607843%,23.137255%,35.294118%);fill-opacity:1;" />
<path d="M 41.226562 234.007812 L 41.226562 346.671875 L 211.996094 346.671875 L 211.996094 239.355469 Z M 41.226562 234.007812 " style=" stroke:none;fill-rule:nonzero;fill:rgb(19.607843%,23.137255%,35.294118%);fill-opacity:1;" />
<path d="M 243.480469 453.21875 L 243.480469 512 L 242.511719 512 L 242.511719 511.648438 C 200.769531 509.480469 161.671875 497.308594 127.570312 477.488281 C 88.988281 455.078125 56.789062 422.859375 34.410156 384.261719 C 40.78125 375.660156 48.320312 367.96875 56.789062 361.429688 C 57.171875 361.140625 57.558594 360.839844 57.949219 360.550781 C 65.300781 355.019531 73.320312 350.339844 81.878906 346.671875 C 87.488281 344.261719 93.328125 342.28125 99.359375 340.769531 C 103.121094 339.828125 106.949219 339.070312 110.839844 338.519531 L 110.851562 338.519531 C 111.121094 338.46875 111.371094 338.441406 111.640625 338.398438 C 116.539062 337.71875 121.53125 337.359375 126.609375 337.320312 C 126.929688 337.308594 127.25 337.308594 127.570312 337.308594 C 127.890625 337.308594 128.21875 337.308594 128.539062 337.320312 C 133.921875 337.359375 139.210938 337.78125 144.390625 338.53125 L 144.398438 338.53125 C 147.601562 339 150.75 339.589844 153.859375 340.308594 C 160.578125 341.871094 167.070312 344.011719 173.269531 346.671875 C 182.328125 350.558594 190.78125 355.570312 198.46875 361.539062 C 225.859375 382.730469 243.480469 415.921875 243.480469 453.21875 Z M 243.480469 453.21875 " style=" stroke:none;fill-rule:nonzero;fill:rgb(100%,44.313725%,58.431373%);fill-opacity:1;" />
<path d="M 242.511719 453.21875 L 242.511719 511.648438 C 200.769531 509.480469 161.671875 497.308594 127.570312 477.488281 L 127.570312 337.320312 C 132.941406 337.359375 138.238281 337.78125 143.421875 338.53125 C 144.300781 338.660156 145.191406 338.800781 146.058594 338.949219 C 146.910156 339.089844 147.738281 339.238281 148.578125 339.398438 C 148.628906 339.410156 148.679688 339.421875 148.71875 339.429688 C 150.449219 339.769531 152.160156 340.140625 153.859375 340.550781 C 154.660156 340.738281 155.449219 340.941406 156.238281 341.148438 C 157.71875 341.539062 159.179688 341.949219 160.640625 342.398438 C 160.828125 342.449219 161.019531 342.511719 161.210938 342.578125 C 162.671875 343.03125 164.109375 343.511719 165.550781 344.03125 C 166.308594 344.300781 167.070312 344.578125 167.820312 344.859375 C 168.53125 345.128906 169.230469 345.410156 169.929688 345.679688 C 170.730469 346.011719 171.519531 346.339844 172.300781 346.671875 C 179.660156 349.828125 186.621094 353.738281 193.101562 358.289062 C 194.089844 358.988281 195.078125 359.699219 196.050781 360.429688 C 196.53125 360.800781 197.019531 361.171875 197.5 361.539062 C 224.878906 382.730469 242.511719 415.921875 242.511719 453.21875 Z M 242.511719 453.21875 " style=" stroke:none;fill-rule:nonzero;fill:rgb(100%,20.392157%,27.058824%);fill-opacity:1;" />
<path d="M 127.570312 367.96875 C 127.570312 387.441406 143.359375 403.230469 162.828125 403.230469 C 182.300781 403.230469 198.089844 387.441406 198.089844 367.96875 C 198.089844 365.773438 197.882812 363.621094 197.5 361.535156 C 182.097656 349.59375 163.601562 341.460938 143.421875 338.53125 L 143.414062 338.53125 C 133.871094 344.84375 127.570312 355.667969 127.570312 367.96875 Z M 127.570312 367.96875 " style=" stroke:none;fill-rule:nonzero;fill:rgb(81.568627%,96.470588%,100%);fill-opacity:1;" />
<path d="M 56.1875 367.96875 C 56.1875 387.441406 71.976562 403.230469 91.453125 403.230469 C 110.925781 403.230469 126.714844 387.441406 126.714844 367.96875 C 126.714844 355.578125 120.324219 344.691406 110.664062 338.398438 C 90.691406 341.144531 72.347656 348.980469 56.976562 360.550781 C 56.457031 362.941406 56.1875 365.421875 56.1875 367.96875 Z M 56.1875 367.96875 " style=" stroke:none;fill-rule:nonzero;fill:rgb(100%,100%,100%);fill-opacity:1;" />
<path d="M 207.375 237.125 C 217.308594 237.125 225.363281 245.179688 225.363281 255.113281 C 225.363281 273.207031 210.695312 287.871094 192.601562 287.871094 L 192.601562 237.085938 Z M 207.375 237.125 " style=" stroke:none;fill-rule:nonzero;fill:rgb(100%,65.882353%,47.843137%);fill-opacity:1;" />
<path d="M 45.84375 237.125 C 35.910156 237.125 27.855469 245.179688 27.855469 255.113281 C 27.855469 273.207031 42.523438 287.871094 60.617188 287.871094 L 60.617188 237.085938 Z M 45.84375 237.125 " style=" stroke:none;fill-rule:nonzero;fill:rgb(100%,65.882353%,47.843137%);fill-opacity:1;" />
<path d="M 99.363281 301.945312 L 99.363281 340.71875 C 99.363281 355.761719 111.558594 367.96875 126.613281 367.96875 C 141.65625 367.96875 153.859375 355.761719 153.859375 340.71875 L 153.859375 301.945312 Z M 99.363281 301.945312 " style=" stroke:none;fill-rule:nonzero;fill:rgb(89.019608%,51.372549%,35.294118%);fill-opacity:1;" />
<path d="M 99.363281 301.945312 L 99.363281 340.71875 C 99.363281 355.761719 111.558594 367.96875 126.613281 367.96875 L 126.613281 301.945312 Z M 99.363281 301.945312 " style=" stroke:none;fill-rule:nonzero;fill:rgb(100%,65.882353%,47.843137%);fill-opacity:1;" />
<path d="M 56.304688 240.503906 L 56.304688 267.007812 C 56.304688 305.820312 87.769531 337.308594 126.597656 337.316406 C 126.605469 337.316406 126.605469 337.316406 126.613281 337.316406 C 165.425781 337.316406 196.910156 305.828125 196.910156 267.007812 L 196.910156 240.503906 C 196.910156 236.507812 196.585938 232.589844 195.925781 228.785156 C 191.34375 201.394531 170.90625 179.386719 144.386719 172.460938 C 138.710938 170.988281 132.746094 170.203125 126.613281 170.203125 C 126.605469 170.203125 126.605469 170.203125 126.597656 170.203125 C 120.449219 170.203125 114.492188 170.988281 108.816406 172.472656 C 82.296875 179.386719 61.882812 201.398438 57.289062 228.785156 C 56.636719 232.589844 56.304688 236.507812 56.304688 240.503906 Z M 56.304688 240.503906 " style=" stroke:none;fill-rule:nonzero;fill:rgb(100%,65.882353%,47.843137%);fill-opacity:1;" />
<path d="M 184.996094 243.507812 L 196.910156 243.507812 L 196.910156 254.394531 L 184.996094 254.394531 Z M 184.996094 243.507812 " style=" stroke:none;fill-rule:nonzero;fill:rgb(19.607843%,23.137255%,35.294118%);fill-opacity:1;" />
<path d="M 56.304688 240.503906 L 56.304688 267.007812 C 56.304688 305.820312 87.769531 337.308594 126.597656 337.316406 L 126.597656 170.203125 C 120.449219 170.203125 114.492188 170.988281 108.816406 172.472656 C 82.296875 179.386719 61.882812 201.398438 57.289062 228.785156 C 56.636719 232.589844 56.304688 236.507812 56.304688 240.503906 Z M 56.304688 240.503906 " style=" stroke:none;fill-rule:nonzero;fill:rgb(100%,75.294118%,64.313725%);fill-opacity:1;" />
<path d="M 56.304688 243.507812 L 68.21875 243.507812 L 68.21875 254.394531 L 56.304688 254.394531 Z M 56.304688 243.507812 " style=" stroke:none;fill-rule:nonzero;fill:rgb(19.607843%,23.137255%,35.294118%);fill-opacity:1;" />
<path d="M 157.320312 258.195312 C 157.320312 262.976562 153.445312 266.851562 148.664062 266.851562 C 143.882812 266.851562 140.007812 262.976562 140.007812 258.195312 C 140.007812 253.414062 143.882812 249.539062 148.664062 249.539062 C 153.445312 249.539062 157.320312 253.414062 157.320312 258.195312 Z M 157.320312 258.195312 " style=" stroke:none;fill-rule:nonzero;fill:rgb(19.607843%,23.137255%,35.294118%);fill-opacity:1;" />
<path d="M 113.210938 258.195312 C 113.210938 262.976562 109.335938 266.851562 104.554688 266.851562 C 99.777344 266.851562 95.902344 262.976562 95.902344 258.195312 C 95.902344 253.414062 99.777344 249.539062 104.554688 249.539062 C 109.335938 249.539062 113.210938 253.414062 113.210938 258.195312 Z M 113.210938 258.195312 " style=" stroke:none;fill-rule:nonzero;fill:rgb(19.607843%,23.137255%,35.294118%);fill-opacity:1;" />
<path d="M 105.90625 293.433594 C 99.789062 293.433594 96.53125 300.773438 100.738281 305.21875 C 103.375 308 106.457031 310.355469 109.867188 312.175781 C 114.855469 314.847656 120.554688 316.355469 126.609375 316.355469 C 132.664062 316.355469 138.363281 314.847656 143.351562 312.175781 C 146.761719 310.355469 149.84375 308 152.480469 305.21875 C 156.6875 300.777344 153.429688 293.433594 147.3125 293.433594 Z M 105.90625 293.433594 " style=" stroke:none;fill-rule:nonzero;fill:rgb(19.607843%,23.137255%,35.294118%);fill-opacity:1;" />
<path d="M 41.226562 234.007812 C 41.226562 238.113281 44.308594 241.578125 48.386719 242.058594 C 51.921875 242.476562 55.519531 242.683594 59.160156 242.683594 C 85.832031 242.683594 109.855469 231.292969 126.597656 213.078125 C 143.351562 231.292969 167.371094 242.683594 194.042969 242.683594 C 197.640625 242.683594 201.1875 242.480469 204.683594 242.070312 C 206.765625 241.835938 208.585938 240.820312 209.898438 239.355469 C 211.203125 237.882812 211.996094 235.960938 211.996094 233.855469 C 211.996094 202.050781 194.828125 172.355469 166.640625 157.625 C 160.9375 154.652344 154.867188 152.28125 148.511719 150.621094 C 141.523438 148.808594 134.167969 147.84375 126.609375 147.84375 C 126.605469 147.84375 126.605469 147.84375 126.597656 147.84375 C 119.027344 147.84375 111.675781 148.808594 104.695312 150.644531 C 101.0625 151.589844 97.527344 152.769531 94.097656 154.152344 C 77.960938 160.6875 64.742188 171.945312 55.558594 185.929688 C 46.378906 199.894531 41.226562 216.601562 41.226562 234.007812 Z M 41.226562 234.007812 " style=" stroke:none;fill-rule:nonzero;fill:rgb(19.607843%,23.137255%,35.294118%);fill-opacity:1;" />
<path d="M 41.226562 234.007812 C 41.226562 238.113281 44.308594 241.578125 48.386719 242.058594 C 51.921875 242.476562 55.519531 242.683594 59.160156 242.683594 C 85.832031 242.683594 109.855469 231.292969 126.597656 213.078125 L 126.597656 147.84375 C 119.027344 147.84375 111.675781 148.808594 104.695312 150.644531 C 101.0625 151.589844 97.527344 152.769531 94.097656 154.152344 C 77.960938 160.6875 64.742188 171.945312 55.558594 185.929688 C 46.378906 199.894531 41.226562 216.601562 41.226562 234.007812 Z M 41.226562 234.007812 " style=" stroke:none;fill-rule:nonzero;fill:rgb(27.843137%,30.980392%,43.529412%);fill-opacity:1;" />
<path d="M 126.609375 282.839844 C 123.214844 282.839844 120.460938 280.085938 120.460938 276.691406 L 120.460938 250.523438 C 120.460938 247.128906 123.214844 244.375 126.609375 244.375 C 130.007812 244.375 132.757812 247.128906 132.757812 250.523438 L 132.757812 276.691406 C 132.757812 280.085938 130.007812 282.839844 126.609375 282.839844 Z M 126.609375 282.839844 " style=" stroke:none;fill-rule:nonzero;fill:rgb(89.019608%,51.372549%,35.294118%);fill-opacity:1;" />
<path d="M 143.351562 312.171875 C 138.363281 314.847656 132.671875 316.355469 126.613281 316.355469 C 126.605469 316.355469 126.605469 316.355469 126.597656 316.355469 C 120.546875 316.355469 114.84375 314.847656 109.863281 312.171875 C 114.03125 307.664062 119.980469 304.839844 126.597656 304.832031 C 126.605469 304.832031 126.605469 304.832031 126.613281 304.832031 C 133.226562 304.832031 139.191406 307.664062 143.351562 312.171875 Z M 143.351562 312.171875 " style=" stroke:none;fill-rule:nonzero;fill:rgb(100%,20.392157%,27.058824%);fill-opacity:1;" />
<path d="M 143.351562 312.171875 C 138.363281 314.847656 132.671875 316.355469 126.613281 316.355469 C 126.605469 316.355469 126.605469 316.355469 126.597656 316.355469 L 126.597656 304.832031 C 126.605469 304.832031 126.605469 304.832031 126.613281 304.832031 C 133.226562 304.832031 139.191406 307.664062 143.351562 312.171875 Z M 143.351562 312.171875 " style=" stroke:none;fill-rule:nonzero;fill:rgb(86.666667%,7.058824%,39.607843%);fill-opacity:1;" />
<path d="M 185 243.511719 L 139.550781 243.511719 C 137.558594 243.511719 135.730469 244.070312 134.179688 245.03125 C 133.238281 245.609375 132.25 246.101562 131.21875 246.46875 C 129.75 247.011719 128.199219 247.308594 126.621094 247.351562 C 126.609375 247.351562 126.609375 247.351562 126.601562 247.351562 C 126.5 247.359375 126.390625 247.359375 126.300781 247.359375 C 124.78125 247.359375 123.28125 247.109375 121.851562 246.640625 C 120.648438 246.25 119.488281 245.710938 118.410156 245.03125 C 116.871094 244.070312 115.039062 243.511719 113.039062 243.511719 L 68.21875 243.511719 C 66.761719 243.53125 65.578125 244.710938 65.578125 246.179688 L 65.578125 251.859375 C 65.578125 253 66.320312 254.03125 67.410156 254.390625 C 67.421875 254.398438 67.421875 254.398438 67.429688 254.398438 C 68.441406 254.710938 69.171875 255.570312 69.339844 256.621094 C 69.929688 260.320312 71.300781 268.828125 71.300781 268.828125 C 72.410156 275.769531 78.410156 280.878906 85.449219 280.878906 L 104.988281 280.878906 C 111.359375 280.878906 116.96875 276.671875 118.75 270.550781 C 118.75 270.550781 119.558594 267.769531 120.460938 264.671875 C 121.070312 262.578125 121.71875 260.351562 122.191406 258.71875 C 122.71875 256.871094 124.410156 255.550781 126.339844 255.601562 C 126.390625 255.601562 126.429688 255.601562 126.488281 255.609375 C 126.519531 255.609375 126.558594 255.609375 126.601562 255.621094 C 126.601562 255.621094 126.609375 255.621094 126.621094 255.621094 C 128.398438 255.75 129.910156 256.988281 130.410156 258.71875 C 131.039062 260.898438 132.011719 264.238281 132.761719 266.820312 C 133.371094 268.941406 133.839844 270.550781 133.839844 270.550781 C 135.621094 276.671875 141.230469 280.878906 147.609375 280.878906 L 167.148438 280.878906 C 174.191406 280.878906 180.191406 275.769531 181.300781 268.828125 C 181.300781 268.828125 182.480469 261.449219 183.109375 257.53125 C 183.351562 256.058594 184.390625 254.851562 185.808594 254.398438 C 185.820312 254.398438 185.820312 254.398438 185.828125 254.390625 C 186.371094 254.210938 186.828125 253.859375 187.148438 253.429688 C 187.46875 252.980469 187.660156 252.441406 187.660156 251.859375 L 187.660156 246.179688 C 187.660156 244.699219 186.46875 243.519531 185 243.511719 Z M 118.058594 257.089844 L 116.089844 263.890625 L 114.660156 268.800781 C 113.648438 272.300781 111.140625 275.039062 107.960938 276.441406 C 106.480469 277.078125 104.851562 277.441406 103.160156 277.441406 L 86.828125 277.441406 C 80.941406 277.441406 75.929688 273.171875 75 267.359375 L 73.179688 256.070312 C 72.828125 253.910156 73.320312 251.839844 74.398438 250.148438 C 75.890625 247.800781 78.53125 246.210938 81.578125 246.210938 L 109.898438 246.210938 C 115.570312 246.210938 119.648438 251.648438 118.058594 257.089844 Z M 178.480469 256.109375 L 177.621094 261.460938 L 176.730469 267.070312 L 176.691406 267.308594 C 176.019531 271.460938 173.261719 274.820312 169.589844 276.371094 C 168.160156 276.980469 166.601562 277.308594 164.960938 277.308594 L 148.75 277.308594 C 143.46875 277.308594 138.828125 273.820312 137.351562 268.75 L 133.980469 257.128906 C 132.511719 252.070312 135.96875 247.011719 141.050781 246.398438 C 141.378906 246.359375 141.730469 246.339844 142.070312 246.339844 L 170.148438 246.339844 C 175.351562 246.339844 179.308594 250.988281 178.480469 256.109375 Z M 178.480469 256.109375 " style=" stroke:none;fill-rule:nonzero;fill:rgb(25.098039%,29.019608%,40%);fill-opacity:1;" />
</g>
</svg>