<svg xmlns="http://www.w3.org/2000/svg" height="512pt" version="1.1" viewBox="0 0 512 512" width="512pt">
<g id="surface1">
<path d="M 512 256 C 512 397.386719 397.386719 512 256 512 C 114.613281 512 0 397.386719 0 256 C 0 114.613281 114.613281 0 256 0 C 397.386719 0 512 114.613281 512 256 Z M 512 256 " style=" stroke:none;fill-rule:nonzero;fill:rgb(40.784314%,98.823529%,87.45098%);fill-opacity:1;" />
<path d="M 512 256 C 512 282.050781 508.109375 307.191406 500.871094 330.871094 C 468.859375 435.71875 371.328125 512 256 512 C 151.441406 512 61.511719 449.300781 21.769531 359.449219 C 7.769531 327.820312 0 292.820312 0 256 C 0 209.78125 12.25 166.429688 33.679688 129 C 77.800781 206.070312 160.839844 258 256 258 C 351.160156 258 434.210938 206.070312 478.320312 129 C 499.75 166.429688 512 209.78125 512 256 Z M 512 256 " style=" stroke:none;fill-rule:nonzero;fill:rgb(6.27451%,88.627451%,76.862745%);fill-opacity:1;" />
<path d="M 30.742188 377.703125 C 37.898438 390.921875 46.171875 403.441406 55.460938 415.128906 C 102.359375 474.148438 174.761719 512 256 512 C 337.238281 512 409.640625 474.148438 456.539062 415.128906 C 465.828125 403.441406 474.101562 390.921875 481.257812 377.703125 Z M 30.742188 377.703125 " style=" stroke:none;fill-rule:nonzero;fill:rgb(10.196078%,72.941176%,62.352941%);fill-opacity:1;" />
<path d="M 476.261719 208.96875 L 431.539062 442.328125 C 392.441406 479.179688 341.75 503.859375 285.519531 510.308594 C 284.988281 510.378906 284.460938 510.441406 283.929688 510.488281 C 281.878906 510.71875 279.828125 510.910156 277.769531 511.078125 C 272.949219 511.488281 268.101562 511.769531 263.210938 511.898438 C 260.808594 511.96875 258.410156 512 256 512 C 253.589844 512 251.191406 511.96875 248.789062 511.898438 C 236.648438 511.558594 224.71875 510.378906 213.058594 508.410156 C 187.980469 504.179688 164.140625 496.289062 142.109375 485.328125 L 156.378906 410.828125 L 161.339844 384.949219 L 167.949219 350.429688 L 172.910156 324.539062 L 179.519531 290.019531 L 184.480469 264.140625 L 203.851562 163.058594 L 205.011719 157 L 236.640625 163.058594 L 340.640625 182.988281 L 351.148438 185 Z M 476.261719 208.96875 " style=" stroke:none;fill-rule:nonzero;fill:rgb(81.568627%,96.470588%,100%);fill-opacity:1;" />
<path d="M 285.519531 510.308594 C 341.75 503.859375 392.441406 479.179688 431.539062 442.328125 L 476.261719 208.96875 L 351.148438 185 L 340.640625 182.988281 L 321.621094 282.261719 L 316.75 307.671875 L 316.75 307.679688 L 313.519531 324.539062 L 310.25 341.578125 L 308.550781 350.429688 L 305.378906 367 L 301.941406 384.949219 L 298.878906 400.898438 L 296.980469 410.828125 L 294.011719 426.320312 L 291.03125 441.890625 L 283.929688 478.941406 L 277.769531 511.078125 C 279.828125 510.910156 281.878906 510.71875 283.929688 510.488281 Z M 285.519531 510.308594 " style=" stroke:none;fill-rule:nonzero;fill:rgb(5.882353%,60.784314%,90.980392%);fill-opacity:1;" />
<path d="M 221.808594 289.503906 L 226.679688 264.085938 L 424.21875 301.941406 L 419.347656 327.355469 Z M 221.808594 289.503906 " style=" stroke:none;fill-rule:nonzero;fill:rgb(27.843137%,30.980392%,43.529412%);fill-opacity:1;" />
<path d="M 210.441406 348.828125 L 215.3125 323.410156 L 412.851562 361.265625 L 407.980469 386.683594 Z M 210.441406 348.828125 " style=" stroke:none;fill-rule:nonzero;fill:rgb(27.843137%,30.980392%,43.529412%);fill-opacity:1;" />
<path d="M 199.074219 408.152344 L 203.945312 382.734375 L 401.480469 420.589844 L 396.613281 446.007812 Z M 199.074219 408.152344 " style=" stroke:none;fill-rule:nonzero;fill:rgb(27.843137%,30.980392%,43.529412%);fill-opacity:1;" />
<path d="M 316.742188 307.695312 L 321.613281 282.277344 L 424.222656 301.941406 L 419.351562 327.359375 Z M 316.742188 307.695312 " style=" stroke:none;fill-rule:nonzero;fill:rgb(19.607843%,23.137255%,35.294118%);fill-opacity:1;" />
<path d="M 305.375 367.019531 L 310.246094 341.601562 L 412.855469 361.265625 L 407.984375 386.683594 Z M 305.375 367.019531 " style=" stroke:none;fill-rule:nonzero;fill:rgb(19.607843%,23.137255%,35.294118%);fill-opacity:1;" />
<path d="M 294.007812 426.34375 L 298.878906 400.929688 L 401.484375 420.589844 L 396.613281 446.007812 Z M 294.007812 426.34375 " style=" stroke:none;fill-rule:nonzero;fill:rgb(19.607843%,23.137255%,35.294118%);fill-opacity:1;" />
<path d="M 351.148438 163.058594 L 351.148438 444.691406 C 346.230469 449.609375 341.710938 454.128906 337.449219 458.390625 C 336.730469 459.101562 336.03125 459.808594 335.328125 460.511719 C 326.269531 469.558594 318.28125 477.550781 309.820312 486.019531 C 309.171875 486.671875 308.519531 487.320312 307.859375 487.980469 C 306.539062 489.300781 305.210938 490.628906 303.859375 491.980469 C 303.191406 492.640625 302.511719 493.320312 301.820312 494.019531 C 301.128906 494.699219 300.441406 495.398438 299.75 496.089844 L 295.480469 500.359375 C 292.320312 503.511719 289.019531 506.808594 285.519531 510.308594 C 284.988281 510.378906 284.460938 510.441406 283.929688 510.488281 C 281.878906 510.71875 279.828125 510.910156 277.769531 511.078125 C 272.949219 511.488281 268.101562 511.769531 263.210938 511.898438 L 248.789062 511.898438 C 236.648438 511.558594 224.71875 510.378906 213.058594 508.410156 C 187.980469 504.179688 164.140625 496.289062 142.109375 485.328125 C 117.140625 472.910156 94.488281 456.519531 74.96875 437.011719 L 74.96875 163.058594 Z M 351.148438 163.058594 " style=" stroke:none;fill-rule:nonzero;fill:rgb(100%,100%,100%);fill-opacity:1;" />
<path d="M 351.148438 163.058594 L 351.148438 444.691406 C 346.230469 449.609375 341.710938 454.128906 337.449219 458.390625 C 336.730469 459.101562 336.03125 459.808594 335.328125 460.511719 C 326.269531 469.558594 318.28125 477.550781 309.820312 486.019531 C 309.171875 486.671875 308.519531 487.320312 307.859375 487.980469 C 306.539062 489.300781 305.210938 490.628906 303.859375 491.980469 L 301.820312 494.019531 C 301.128906 494.699219 300.441406 495.398438 299.75 496.089844 L 295.480469 500.359375 C 292.320312 503.511719 289.019531 506.808594 285.519531 510.308594 C 284.988281 510.378906 284.460938 510.441406 283.929688 510.488281 C 281.878906 510.71875 279.828125 510.910156 277.769531 511.078125 C 272.949219 511.488281 268.101562 511.769531 263.210938 511.898438 L 248.789062 511.898438 C 236.648438 511.558594 224.71875 510.378906 213.058594 508.410156 L 213.058594 163.058594 Z M 351.148438 163.058594 " style=" stroke:none;fill-rule:nonzero;fill:rgb(81.568627%,96.470588%,100%);fill-opacity:1;" />
<path d="M 285.519531 510.308594 C 289.019531 506.808594 292.320312 503.511719 295.480469 500.359375 L 299.75 496.089844 C 300.441406 495.398438 301.128906 494.699219 301.820312 494.019531 L 303.859375 491.980469 C 305.210938 490.628906 306.539062 489.300781 307.859375 487.980469 C 308.519531 487.320312 309.171875 486.671875 309.820312 486.019531 C 318.28125 477.550781 326.269531 469.558594 335.328125 460.511719 C 336.03125 459.808594 336.738281 459.101562 337.449219 458.390625 C 341.710938 454.128906 346.230469 449.609375 351.148438 444.691406 L 351.148438 441.890625 L 283.929688 441.890625 L 283.929688 510.488281 Z M 285.519531 510.308594 " style=" stroke:none;fill-rule:nonzero;fill:rgb(56.078431%,78.823529%,96.862745%);fill-opacity:1;" />
<path d="M 116.394531 264.140625 L 317.53125 264.140625 L 317.53125 290.023438 L 116.394531 290.023438 Z M 116.394531 264.140625 " style=" stroke:none;fill-rule:nonzero;fill:rgb(27.843137%,30.980392%,43.529412%);fill-opacity:1;" />
<path d="M 116.394531 324.546875 L 317.53125 324.546875 L 317.53125 350.425781 L 116.394531 350.425781 Z M 116.394531 324.546875 " style=" stroke:none;fill-rule:nonzero;fill:rgb(27.843137%,30.980392%,43.529412%);fill-opacity:1;" />
<path d="M 116.394531 384.945312 L 317.53125 384.945312 L 317.53125 410.828125 L 116.394531 410.828125 Z M 116.394531 384.945312 " style=" stroke:none;fill-rule:nonzero;fill:rgb(27.843137%,30.980392%,43.529412%);fill-opacity:1;" />
<path d="M 213.054688 264.140625 L 317.53125 264.140625 L 317.53125 290.023438 L 213.054688 290.023438 Z M 213.054688 264.140625 " style=" stroke:none;fill-rule:nonzero;fill:rgb(19.607843%,23.137255%,35.294118%);fill-opacity:1;" />
<path d="M 213.054688 324.546875 L 317.53125 324.546875 L 317.53125 350.425781 L 213.054688 350.425781 Z M 213.054688 324.546875 " style=" stroke:none;fill-rule:nonzero;fill:rgb(19.607843%,23.137255%,35.294118%);fill-opacity:1;" />
<path d="M 213.054688 384.945312 L 317.53125 384.945312 L 317.53125 410.828125 L 213.054688 410.828125 Z M 213.054688 384.945312 " style=" stroke:none;fill-rule:nonzero;fill:rgb(19.607843%,23.137255%,35.294118%);fill-opacity:1;" />
<path d="M 180.695312 201.445312 L 180.695312 218.496094 C 180.695312 227.378906 177.101562 235.414062 171.28125 241.238281 C 165.953125 246.566406 158.769531 250.027344 150.769531 250.578125 C 150.035156 250.621094 149.296875 250.648438 148.550781 250.648438 C 130.789062 250.648438 116.398438 236.257812 116.398438 218.496094 L 116.398438 178.6875 C 116.398438 166.703125 126.101562 157 138.085938 157 L 174.273438 157 C 177.773438 157 180.636719 159.808594 180.695312 163.300781 C 180.765625 166.90625 177.722656 169.855469 174.121094 169.855469 L 141.839844 169.855469 C 134.894531 169.855469 129.253906 175.484375 129.253906 182.4375 L 129.253906 218.496094 C 129.253906 223.824219 131.410156 228.652344 134.902344 232.144531 C 138.394531 235.636719 143.222656 237.792969 148.550781 237.792969 C 149.304688 237.792969 150.035156 237.753906 150.769531 237.664062 C 160.375 236.570312 167.839844 228.402344 167.839844 218.496094 L 167.839844 201.445312 C 167.839844 197.945312 165.03125 195.082031 161.527344 195.023438 C 157.925781 194.953125 154.976562 197.984375 154.976562 201.597656 L 154.976562 218.496094 C 154.976562 221.265625 153.230469 223.625 150.769531 224.527344 C 150.117188 224.777344 149.40625 224.917969 148.671875 224.929688 C 145.070312 224.996094 142.121094 221.957031 142.121094 218.355469 L 142.121094 201.6875 C 142.121094 194.933594 145.542969 188.921875 150.769531 185.410156 C 153.769531 183.382812 157.371094 182.1875 161.257812 182.15625 C 171.984375 182.078125 180.695312 190.75 180.695312 201.445312 Z M 180.695312 201.445312 " style=" stroke:none;fill-rule:nonzero;fill:rgb(39.607843%,69.803922%,100%);fill-opacity:1;" />
<path d="M 174.121094 169.855469 L 150.769531 169.855469 L 150.769531 157 L 174.273438 157 C 177.773438 157 180.636719 159.808594 180.695312 163.300781 C 180.765625 166.90625 177.726562 169.855469 174.121094 169.855469 Z M 174.121094 169.855469 " style=" stroke:none;fill-rule:nonzero;fill:rgb(5.882353%,60.784314%,90.980392%);fill-opacity:1;" />
<path d="M 180.695312 201.445312 L 180.695312 218.496094 C 180.695312 227.378906 177.101562 235.414062 171.28125 241.238281 C 165.953125 246.566406 158.769531 250.027344 150.769531 250.578125 L 150.769531 237.664062 C 160.375 236.570312 167.839844 228.402344 167.839844 218.496094 L 167.839844 201.445312 C 167.839844 197.945312 165.03125 195.085938 161.527344 195.023438 C 157.925781 194.953125 154.976562 197.984375 154.976562 201.597656 L 154.976562 218.496094 C 154.976562 221.265625 153.230469 223.625 150.769531 224.527344 L 150.769531 185.410156 C 153.769531 183.382812 157.371094 182.1875 161.257812 182.160156 C 171.984375 182.078125 180.695312 190.75 180.695312 201.445312 Z M 180.695312 201.445312 " style=" stroke:none;fill-rule:nonzero;fill:rgb(5.882353%,60.784314%,90.980392%);fill-opacity:1;" />
</g>
</svg>