<svg xmlns="http://www.w3.org/2000/svg" height="512pt" version="1.1" viewBox="0 0 512 512" width="512pt">
<g id="surface1">
<path d="M 512 256 C 512 397.386719 397.386719 512 256 512 C 114.613281 512 0 397.386719 0 256 C 0 114.613281 114.613281 0 256 0 C 397.386719 0 512 114.613281 512 256 Z M 512 256 " style=" stroke:none;fill-rule:nonzero;fill:rgb(100%,91.372549%,33.333333%);fill-opacity:1;" />
<path d="M 512 256 C 512 282.050781 508.109375 307.191406 500.871094 330.871094 C 468.859375 435.71875 371.328125 512 256 512 C 151.441406 512 61.511719 449.300781 21.769531 359.449219 C 7.769531 327.820312 0 292.820312 0 256 C 0 209.78125 12.25 166.429688 33.679688 129 C 77.800781 206.070312 160.839844 258 256 258 C 351.160156 258 434.210938 206.070312 478.320312 129 C 499.75 166.429688 512 209.78125 512 256 Z M 512 256 " style=" stroke:none;fill-rule:nonzero;fill:rgb(100%,81.960784%,7.058824%);fill-opacity:1;" />
<path d="M 30.742188 377.703125 C 37.898438 390.921875 46.171875 403.441406 55.460938 415.128906 C 102.359375 474.148438 174.761719 512 256 512 C 337.238281 512 409.640625 474.148438 456.539062 415.128906 C 465.828125 403.441406 474.101562 390.921875 481.257812 377.703125 Z M 30.742188 377.703125 " style=" stroke:none;fill-rule:nonzero;fill:rgb(100%,62.352941%,0%);fill-opacity:1;" />
<path d="M 286.71875 226.308594 L 286.71875 510.171875 C 276.648438 511.378906 266.398438 512 256 512 C 250.839844 512 245.710938 511.851562 240.628906 511.539062 C 235.46875 511.238281 230.351562 510.78125 225.28125 510.171875 L 225.28125 226.308594 C 225.28125 217.328125 226.960938 208.429688 230.230469 200.070312 L 230.488281 199.421875 L 240.628906 173.488281 L 250.269531 148.878906 C 251.300781 146.269531 253.640625 144.96875 256 144.96875 C 258.359375 144.96875 260.699219 146.269531 261.730469 148.878906 L 281.511719 199.421875 L 281.769531 200.070312 C 285.039062 208.429688 286.71875 217.328125 286.71875 226.308594 Z M 286.71875 226.308594 " style=" stroke:none;fill-rule:nonzero;fill:rgb(61.960784%,41.176471%,88.627451%);fill-opacity:1;" />
<path d="M 286.71875 226.308594 L 286.71875 510.171875 C 276.648438 511.378906 266.398438 512 256 512 C 250.839844 512 245.710938 511.851562 240.628906 511.539062 L 240.628906 173.488281 L 250.269531 148.878906 C 251.300781 146.269531 253.640625 144.96875 256 144.96875 C 258.359375 144.96875 260.699219 146.269531 261.730469 148.878906 L 281.511719 199.421875 L 281.769531 200.070312 C 285.039062 208.429688 286.71875 217.328125 286.71875 226.308594 Z M 286.71875 226.308594 " style=" stroke:none;fill-rule:nonzero;fill:rgb(55.686275%,30.980392%,82.352941%);fill-opacity:1;" />
<path d="M 286.71875 226.308594 L 286.71875 510.171875 C 276.648438 511.378906 266.398438 512 256 512 L 256 144.96875 C 258.359375 144.96875 260.699219 146.269531 261.730469 148.878906 L 281.511719 199.421875 L 281.769531 200.070312 C 285.039062 208.429688 286.71875 217.328125 286.71875 226.308594 Z M 286.71875 226.308594 " style=" stroke:none;fill-rule:nonzero;fill:rgb(43.921569%,21.960784%,72.941176%);fill-opacity:1;" />
<path d="M 286.722656 226.3125 C 286.722656 217.332031 285.039062 208.425781 281.769531 200.066406 L 281.515625 199.417969 L 261.726562 148.875 C 260.703125 146.273438 258.355469 144.972656 256 144.972656 C 253.640625 144.972656 251.292969 146.269531 250.269531 148.875 L 240.632812 173.492188 L 230.484375 199.417969 L 230.230469 200.066406 C 226.960938 208.425781 225.277344 217.332031 225.277344 226.3125 Z M 286.722656 226.3125 " style=" stroke:none;fill-rule:nonzero;fill:rgb(100%,75.294118%,64.313725%);fill-opacity:1;" />
<path d="M 286.722656 226.3125 C 286.722656 217.332031 285.039062 208.425781 281.769531 200.066406 L 261.726562 148.875 C 260.703125 146.273438 258.355469 144.972656 256 144.972656 C 253.644531 144.972656 251.296875 146.269531 250.273438 148.875 L 240.636719 173.492188 L 240.636719 226.3125 Z M 286.722656 226.3125 " style=" stroke:none;fill-rule:nonzero;fill:rgb(100%,65.882353%,47.843137%);fill-opacity:1;" />
<path d="M 286.722656 226.3125 C 286.722656 217.332031 285.039062 208.425781 281.769531 200.066406 L 261.726562 148.875 C 260.703125 146.273438 258.355469 144.972656 256 144.972656 L 256 226.3125 Z M 286.722656 226.3125 " style=" stroke:none;fill-rule:nonzero;fill:rgb(89.019608%,51.372549%,35.294118%);fill-opacity:1;" />
<path d="M 281.515625 199.417969 L 261.726562 148.875 C 260.703125 146.273438 258.355469 144.972656 256 144.972656 C 253.640625 144.972656 251.292969 146.269531 250.269531 148.875 L 240.632812 173.492188 L 230.484375 199.417969 Z M 281.515625 199.417969 " style=" stroke:none;fill-rule:nonzero;fill:rgb(45.490196%,49.411765%,61.960784%);fill-opacity:1;" />
<path d="M 281.515625 199.417969 L 261.726562 148.875 C 260.703125 146.273438 258.355469 144.972656 256 144.972656 C 253.640625 144.972656 251.292969 146.269531 250.269531 148.875 L 240.632812 173.492188 L 240.632812 199.417969 Z M 281.515625 199.417969 " style=" stroke:none;fill-rule:nonzero;fill:rgb(27.843137%,30.980392%,43.529412%);fill-opacity:1;" />
<path d="M 281.515625 199.417969 L 261.726562 148.875 C 260.703125 146.273438 258.355469 144.972656 256 144.972656 L 256 199.417969 Z M 281.515625 199.417969 " style=" stroke:none;fill-rule:nonzero;fill:rgb(19.607843%,23.137255%,35.294118%);fill-opacity:1;" />
<path d="M 194.699219 328.519531 L 194.699219 504.609375 C 184.191406 502.03125 173.929688 498.800781 163.980469 494.960938 C 158.769531 492.949219 153.648438 490.78125 148.609375 488.441406 C 143.390625 486.039062 138.269531 483.449219 133.25 480.699219 L 133.25 328.519531 C 133.25 319.539062 134.941406 310.628906 138.210938 302.269531 L 138.460938 301.621094 L 148.609375 275.699219 L 158.25 251.078125 C 159.269531 248.46875 161.621094 247.179688 163.980469 247.179688 C 166.328125 247.179688 168.679688 248.46875 169.699219 251.078125 L 189.488281 301.621094 L 189.75 302.269531 C 193.019531 310.628906 194.699219 319.539062 194.699219 328.519531 Z M 194.699219 328.519531 " style=" stroke:none;fill-rule:nonzero;fill:rgb(39.607843%,69.803922%,100%);fill-opacity:1;" />
<path d="M 194.699219 328.519531 L 194.699219 504.609375 C 184.191406 502.03125 173.929688 498.800781 163.980469 494.960938 C 158.769531 492.949219 153.648438 490.78125 148.609375 488.441406 L 148.609375 275.699219 L 158.25 251.078125 C 159.269531 248.46875 161.621094 247.179688 163.980469 247.179688 C 166.328125 247.179688 168.679688 248.46875 169.699219 251.078125 L 189.488281 301.621094 L 189.75 302.269531 C 193.019531 310.628906 194.699219 319.539062 194.699219 328.519531 Z M 194.699219 328.519531 " style=" stroke:none;fill-rule:nonzero;fill:rgb(5.882353%,60.784314%,90.980392%);fill-opacity:1;" />
<path d="M 194.699219 328.519531 L 194.699219 504.609375 C 184.191406 502.03125 173.929688 498.800781 163.980469 494.960938 L 163.980469 247.179688 C 166.328125 247.179688 168.679688 248.46875 169.699219 251.078125 L 189.488281 301.621094 L 189.75 302.269531 C 193.019531 310.628906 194.699219 319.539062 194.699219 328.519531 Z M 194.699219 328.519531 " style=" stroke:none;fill-rule:nonzero;fill:rgb(0%,40%,90.980392%);fill-opacity:1;" />
<path d="M 194.695312 328.515625 C 194.695312 319.535156 193.015625 310.628906 189.746094 302.269531 L 189.488281 301.621094 L 169.703125 251.078125 C 168.679688 248.476562 166.332031 247.175781 163.976562 247.175781 C 161.617188 247.175781 159.269531 248.472656 158.246094 251.078125 L 148.609375 275.695312 L 138.460938 301.621094 L 138.203125 302.269531 C 134.933594 310.628906 133.253906 319.535156 133.253906 328.515625 Z M 194.695312 328.515625 " style=" stroke:none;fill-rule:nonzero;fill:rgb(100%,75.294118%,64.313725%);fill-opacity:1;" />
<path d="M 194.695312 328.515625 C 194.695312 319.535156 193.015625 310.628906 189.746094 302.269531 L 169.703125 251.078125 C 168.679688 248.476562 166.332031 247.175781 163.976562 247.175781 C 161.617188 247.175781 159.269531 248.472656 158.246094 251.078125 L 148.609375 275.695312 L 148.609375 328.515625 Z M 194.695312 328.515625 " style=" stroke:none;fill-rule:nonzero;fill:rgb(100%,65.882353%,47.843137%);fill-opacity:1;" />
<path d="M 194.695312 328.515625 C 194.695312 319.535156 193.015625 310.628906 189.746094 302.269531 L 169.703125 251.078125 C 168.679688 248.476562 166.332031 247.175781 163.976562 247.175781 L 163.976562 328.515625 Z M 194.695312 328.515625 " style=" stroke:none;fill-rule:nonzero;fill:rgb(89.019608%,51.372549%,35.294118%);fill-opacity:1;" />
<path d="M 189.488281 301.621094 L 169.703125 251.078125 C 168.679688 248.476562 166.332031 247.175781 163.976562 247.175781 C 161.617188 247.175781 159.269531 248.472656 158.246094 251.078125 L 148.609375 275.695312 L 138.460938 301.621094 Z M 189.488281 301.621094 " style=" stroke:none;fill-rule:nonzero;fill:rgb(45.490196%,49.411765%,61.960784%);fill-opacity:1;" />
<path d="M 189.488281 301.621094 L 169.703125 251.078125 C 168.679688 248.476562 166.332031 247.175781 163.976562 247.175781 C 161.617188 247.175781 159.269531 248.472656 158.246094 251.078125 L 148.609375 275.695312 L 148.609375 301.621094 Z M 189.488281 301.621094 " style=" stroke:none;fill-rule:nonzero;fill:rgb(27.843137%,30.980392%,43.529412%);fill-opacity:1;" />
<path d="M 189.488281 301.621094 L 169.703125 251.078125 C 168.679688 248.476562 166.332031 247.175781 163.976562 247.175781 L 163.976562 301.621094 Z M 189.488281 301.621094 " style=" stroke:none;fill-rule:nonzero;fill:rgb(19.607843%,23.137255%,35.294118%);fill-opacity:1;" />
<path d="M 378.738281 328.519531 L 378.738281 480.699219 C 368.878906 486.109375 358.621094 490.878906 348.019531 494.960938 C 342.96875 496.910156 337.851562 498.699219 332.648438 500.320312 C 327.601562 501.910156 322.480469 503.339844 317.300781 504.609375 L 317.300781 328.519531 C 317.300781 319.539062 318.980469 310.628906 322.25 302.269531 L 322.5 301.621094 L 332.648438 275.699219 L 342.289062 251.078125 C 343.308594 248.46875 345.660156 247.179688 348.019531 247.179688 C 350.371094 247.179688 352.71875 248.46875 353.738281 251.078125 L 373.53125 301.621094 L 373.789062 302.269531 C 377.058594 310.628906 378.738281 319.539062 378.738281 328.519531 Z M 378.738281 328.519531 " style=" stroke:none;fill-rule:nonzero;fill:rgb(100%,20.392157%,27.058824%);fill-opacity:1;" />
<path d="M 378.738281 328.519531 L 378.738281 480.699219 C 368.878906 486.109375 358.621094 490.878906 348.019531 494.960938 C 342.96875 496.910156 337.851562 498.699219 332.648438 500.320312 L 332.648438 275.699219 L 342.289062 251.078125 C 343.308594 248.46875 345.660156 247.179688 348.019531 247.179688 C 350.371094 247.179688 352.71875 248.46875 353.738281 251.078125 L 373.53125 301.621094 L 373.789062 302.269531 C 377.058594 310.628906 378.738281 319.539062 378.738281 328.519531 Z M 378.738281 328.519531 " style=" stroke:none;fill-rule:nonzero;fill:rgb(86.666667%,7.058824%,39.607843%);fill-opacity:1;" />
<path d="M 378.738281 328.519531 L 378.738281 480.699219 C 368.878906 486.109375 358.621094 490.878906 348.019531 494.960938 L 348.019531 247.179688 C 350.371094 247.179688 352.71875 248.46875 353.738281 251.078125 L 373.53125 301.621094 L 373.789062 302.269531 C 377.058594 310.628906 378.738281 319.539062 378.738281 328.519531 Z M 378.738281 328.519531 " style=" stroke:none;fill-rule:nonzero;fill:rgb(72.941176%,5.098039%,36.078431%);fill-opacity:1;" />
<path d="M 378.738281 328.515625 C 378.738281 319.535156 377.058594 310.628906 373.785156 302.269531 L 373.53125 301.621094 L 353.746094 251.078125 C 352.722656 248.476562 350.375 247.175781 348.015625 247.175781 C 345.660156 247.175781 343.3125 248.472656 342.289062 251.078125 L 332.652344 275.695312 L 322.503906 301.621094 L 322.246094 302.269531 C 318.976562 310.628906 317.296875 319.535156 317.296875 328.515625 Z M 378.738281 328.515625 " style=" stroke:none;fill-rule:nonzero;fill:rgb(100%,75.294118%,64.313725%);fill-opacity:1;" />
<path d="M 378.738281 328.515625 C 378.738281 319.535156 377.058594 310.628906 373.785156 302.269531 L 353.746094 251.078125 C 352.722656 248.476562 350.375 247.175781 348.015625 247.175781 C 345.660156 247.175781 343.3125 248.472656 342.289062 251.078125 L 332.652344 275.695312 L 332.652344 328.515625 Z M 378.738281 328.515625 " style=" stroke:none;fill-rule:nonzero;fill:rgb(100%,65.882353%,47.843137%);fill-opacity:1;" />
<path d="M 378.738281 328.515625 C 378.738281 319.535156 377.058594 310.628906 373.785156 302.269531 L 353.746094 251.078125 C 352.722656 248.476562 350.375 247.175781 348.015625 247.175781 L 348.015625 328.515625 Z M 378.738281 328.515625 " style=" stroke:none;fill-rule:nonzero;fill:rgb(89.019608%,51.372549%,35.294118%);fill-opacity:1;" />
<path d="M 373.53125 301.621094 L 353.746094 251.078125 C 352.722656 248.476562 350.375 247.175781 348.015625 247.175781 C 345.660156 247.175781 343.3125 248.472656 342.289062 251.078125 L 332.652344 275.695312 L 322.503906 301.621094 Z M 373.53125 301.621094 " style=" stroke:none;fill-rule:nonzero;fill:rgb(45.490196%,49.411765%,61.960784%);fill-opacity:1;" />
<path d="M 373.53125 301.621094 L 353.746094 251.078125 C 352.722656 248.476562 350.375 247.175781 348.015625 247.175781 C 345.660156 247.175781 343.3125 248.472656 342.289062 251.078125 L 332.652344 275.695312 L 332.652344 301.621094 Z M 373.53125 301.621094 " style=" stroke:none;fill-rule:nonzero;fill:rgb(27.843137%,30.980392%,43.529412%);fill-opacity:1;" />
<path d="M 373.53125 301.621094 L 353.746094 251.078125 C 352.722656 248.476562 350.375 247.175781 348.015625 247.175781 L 348.015625 301.621094 Z M 373.53125 301.621094 " style=" stroke:none;fill-rule:nonzero;fill:rgb(19.607843%,23.137255%,35.294118%);fill-opacity:1;" />
</g>
</svg>