<svg xmlns="http://www.w3.org/2000/svg" height="512pt" version="1.1" viewBox="0 0 512 512" width="512pt">
<g id="surface1">
<path d="M 512 256 C 512 320.300781 488.289062 379.058594 449.140625 424.019531 C 426.648438 449.851562 399.070312 471.128906 367.949219 486.28125 C 355.269531 492.460938 342 497.621094 328.25 501.660156 C 305.339844 508.390625 281.089844 512 256 512 C 230.910156 512 206.660156 508.390625 183.75 501.660156 C 170 497.621094 156.730469 492.460938 144.050781 486.28125 C 112.929688 471.128906 85.351562 449.851562 62.859375 424.019531 C 23.710938 379.058594 0 320.300781 0 256 C 0 114.621094 114.621094 0 256 0 C 397.378906 0 512 114.621094 512 256 Z M 512 256 " style=" stroke:none;fill-rule:nonzero;fill:rgb(70.980392%,88.627451%,21.568627%);fill-opacity:1;" />
<path d="M 512 256 C 512 282.050781 508.109375 307.191406 500.871094 330.871094 C 468.859375 435.71875 371.328125 512 256 512 C 151.441406 512 61.511719 449.300781 21.769531 359.449219 C 7.769531 327.820312 0 292.820312 0 256 C 0 209.78125 12.25 166.429688 33.679688 129 C 77.800781 206.070312 160.839844 258 256 258 C 351.160156 258 434.210938 206.070312 478.320312 129 C 499.75 166.429688 512 209.78125 512 256 Z M 512 256 " style=" stroke:none;fill-rule:nonzero;fill:rgb(58.431373%,83.921569%,0%);fill-opacity:1;" />
<path d="M 30.742188 377.703125 C 37.898438 390.921875 46.171875 403.441406 55.460938 415.128906 C 102.359375 474.148438 174.761719 512 256 512 C 337.238281 512 409.640625 474.148438 456.539062 415.128906 C 465.828125 403.441406 474.101562 390.921875 481.257812 377.703125 Z M 30.742188 377.703125 " style=" stroke:none;fill-rule:nonzero;fill:rgb(52.156863%,68.627451%,7.058824%);fill-opacity:1;" />
<path d="M 369.605469 224.578125 L 256 405.433594 L 213.011719 473.867188 L 182.75 454.859375 L 179.507812 452.820312 C 189.566406 436.808594 187.449219 416.601562 175.632812 403.046875 L 197.152344 368.789062 L 256 275.105469 L 347.777344 129 C 357.589844 135.164062 365.332031 143.386719 370.789062 152.753906 C 383.351562 174.324219 383.804688 201.972656 369.605469 224.578125 Z M 369.605469 224.578125 " style=" stroke:none;fill-rule:nonzero;fill:rgb(100%,100%,100%);fill-opacity:1;" />
<path d="M 380.234375 187.769531 C 380.234375 200.367188 376.800781 213.121094 369.605469 224.578125 L 256 405.433594 L 256 275.105469 L 347.777344 129 C 357.589844 135.164062 365.332031 143.386719 370.789062 152.753906 C 371.34375 153.710938 371.878906 154.675781 372.382812 155.652344 C 372.492188 155.867188 372.605469 156.078125 372.710938 156.289062 C 372.777344 156.417969 372.84375 156.550781 372.910156 156.683594 C 373.007812 156.875 373.101562 157.066406 373.191406 157.261719 C 373.261719 157.394531 373.324219 157.527344 373.386719 157.664062 C 373.488281 157.871094 373.589844 158.078125 373.683594 158.289062 C 373.742188 158.40625 373.796875 158.527344 373.847656 158.648438 C 373.949219 158.859375 374.046875 159.074219 374.140625 159.289062 C 374.203125 159.425781 374.265625 159.566406 374.324219 159.703125 C 374.410156 159.898438 374.5 160.097656 374.582031 160.296875 C 374.636719 160.421875 374.695312 160.550781 374.746094 160.675781 C 374.820312 160.859375 374.898438 161.039062 374.972656 161.226562 C 375.074219 161.464844 375.171875 161.703125 375.265625 161.945312 C 375.296875 162.019531 375.328125 162.09375 375.351562 162.167969 C 375.445312 162.402344 375.539062 162.632812 375.621094 162.867188 C 375.679688 163.007812 375.734375 163.148438 375.785156 163.289062 C 375.863281 163.496094 375.941406 163.703125 376.015625 163.910156 C 376.074219 164.0625 376.128906 164.21875 376.179688 164.375 C 376.238281 164.535156 376.296875 164.695312 376.347656 164.859375 C 376.421875 165.058594 376.492188 165.265625 376.5625 165.46875 C 376.59375 165.566406 376.628906 165.664062 376.660156 165.765625 C 376.75 166.035156 376.839844 166.304688 376.925781 166.578125 C 377.035156 166.917969 377.144531 167.261719 377.246094 167.605469 C 377.34375 167.917969 377.433594 168.238281 377.523438 168.554688 C 377.628906 168.921875 377.730469 169.285156 377.832031 169.65625 C 377.957031 170.117188 378.074219 170.578125 378.1875 171.039062 C 378.257812 171.316406 378.324219 171.597656 378.390625 171.871094 C 378.46875 172.203125 378.542969 172.53125 378.613281 172.863281 C 378.664062 173.09375 378.714844 173.324219 378.761719 173.554688 C 378.789062 173.683594 378.816406 173.816406 378.84375 173.949219 C 378.882812 174.128906 378.914062 174.3125 378.949219 174.5 C 378.988281 174.691406 379.027344 174.882812 379.058594 175.074219 C 379.101562 175.285156 379.140625 175.496094 379.175781 175.710938 C 379.199219 175.832031 379.21875 175.949219 379.234375 176.070312 C 379.285156 176.363281 379.335938 176.652344 379.378906 176.945312 C 379.390625 176.992188 379.398438 177.039062 379.402344 177.089844 C 379.445312 177.351562 379.484375 177.617188 379.523438 177.886719 C 379.542969 178.03125 379.5625 178.179688 379.585938 178.328125 C 379.613281 178.527344 379.640625 178.730469 379.664062 178.929688 C 379.6875 179.109375 379.710938 179.285156 379.730469 179.464844 C 379.75 179.628906 379.769531 179.796875 379.785156 179.964844 C 379.8125 180.160156 379.832031 180.359375 379.851562 180.558594 C 379.875 180.777344 379.898438 180.996094 379.917969 181.21875 C 379.925781 181.289062 379.933594 181.359375 379.9375 181.433594 C 379.96875 181.734375 379.992188 182.042969 380.015625 182.347656 C 380.023438 182.414062 380.027344 182.484375 380.03125 182.550781 C 380.054688 182.800781 380.066406 183.046875 380.085938 183.296875 C 380.097656 183.46875 380.105469 183.640625 380.113281 183.816406 C 380.128906 184.054688 380.140625 184.292969 380.152344 184.53125 C 380.167969 184.855469 380.179688 185.175781 380.191406 185.5 C 380.203125 185.875 380.214844 186.246094 380.21875 186.617188 C 380.230469 187.003906 380.234375 187.382812 380.234375 187.769531 Z M 380.234375 187.769531 " style=" stroke:none;fill-rule:nonzero;fill:rgb(81.568627%,96.470588%,100%);fill-opacity:1;" />
<path d="M 256 335.496094 L 256 405.433594 L 213.011719 473.867188 L 182.75 454.859375 L 220.449219 392.089844 Z M 256 335.496094 " style=" stroke:none;fill-rule:nonzero;fill:rgb(81.568627%,96.470588%,100%);fill-opacity:1;" />
<path d="M 380.234375 187.769531 C 380.234375 200.367188 376.800781 213.121094 369.605469 224.578125 L 256 405.433594 L 256 335.496094 L 279.296875 298.40625 L 370.785156 152.753906 C 371.34375 153.710938 371.875 154.675781 372.382812 155.652344 C 372.492188 155.867188 372.601562 156.078125 372.707031 156.289062 C 372.777344 156.417969 372.84375 156.550781 372.90625 156.683594 C 373.003906 156.875 373.101562 157.066406 373.191406 157.261719 C 373.257812 157.394531 373.324219 157.527344 373.386719 157.664062 C 373.488281 157.871094 373.585938 158.078125 373.683594 158.289062 C 373.742188 158.40625 373.796875 158.527344 373.847656 158.648438 C 373.949219 158.859375 374.046875 159.074219 374.140625 159.289062 C 374.203125 159.425781 374.265625 159.566406 374.324219 159.703125 C 374.410156 159.898438 374.496094 160.097656 374.578125 160.296875 C 374.636719 160.421875 374.691406 160.550781 374.742188 160.675781 C 374.820312 160.859375 374.898438 161.039062 374.972656 161.226562 C 375.070312 161.464844 375.167969 161.703125 375.265625 161.945312 C 375.296875 162.019531 375.324219 162.09375 375.351562 162.167969 C 375.445312 162.402344 375.539062 162.632812 375.621094 162.867188 C 375.679688 163.007812 375.730469 163.148438 375.78125 163.289062 C 375.863281 163.496094 375.9375 163.703125 376.011719 163.910156 C 376.070312 164.0625 376.125 164.21875 376.179688 164.375 C 376.238281 164.535156 376.292969 164.695312 376.347656 164.859375 C 376.421875 165.058594 376.492188 165.265625 376.5625 165.46875 C 376.59375 165.566406 376.628906 165.664062 376.65625 165.765625 C 376.75 166.035156 376.839844 166.304688 376.925781 166.578125 C 377.035156 166.917969 377.140625 167.261719 377.242188 167.605469 C 377.339844 167.917969 377.433594 168.238281 377.523438 168.554688 C 377.628906 168.921875 377.730469 169.285156 377.828125 169.65625 C 377.953125 170.117188 378.074219 170.578125 378.1875 171.039062 C 378.257812 171.316406 378.324219 171.597656 378.386719 171.871094 C 378.46875 172.203125 378.542969 172.53125 378.613281 172.863281 C 378.664062 173.09375 378.714844 173.324219 378.757812 173.554688 C 378.785156 173.683594 378.816406 173.816406 378.839844 173.949219 C 378.878906 174.128906 378.914062 174.3125 378.949219 174.5 C 378.988281 174.691406 379.027344 174.882812 379.058594 175.074219 C 379.101562 175.285156 379.136719 175.496094 379.175781 175.710938 C 379.195312 175.832031 379.21875 175.949219 379.234375 176.070312 C 379.285156 176.363281 379.335938 176.652344 379.378906 176.945312 C 379.386719 176.992188 379.394531 177.039062 379.402344 177.089844 C 379.445312 177.351562 379.484375 177.617188 379.519531 177.886719 C 379.542969 178.03125 379.5625 178.179688 379.582031 178.328125 C 379.609375 178.527344 379.640625 178.730469 379.660156 178.929688 C 379.683594 179.109375 379.707031 179.285156 379.730469 179.464844 C 379.75 179.628906 379.769531 179.796875 379.785156 179.964844 C 379.8125 180.160156 379.832031 180.359375 379.851562 180.558594 C 379.875 180.777344 379.898438 180.996094 379.914062 181.21875 C 379.925781 181.289062 379.929688 181.359375 379.9375 181.433594 C 379.96875 181.734375 379.992188 182.042969 380.015625 182.347656 C 380.019531 182.414062 380.027344 182.484375 380.03125 182.550781 C 380.050781 182.800781 380.066406 183.046875 380.085938 183.296875 C 380.09375 183.46875 380.105469 183.640625 380.113281 183.816406 C 380.128906 184.054688 380.140625 184.292969 380.152344 184.53125 C 380.164062 184.855469 380.179688 185.175781 380.1875 185.5 C 380.203125 185.875 380.210938 186.246094 380.21875 186.617188 C 380.230469 187.003906 380.234375 187.382812 380.234375 187.769531 Z M 380.234375 187.769531 " style=" stroke:none;fill-rule:nonzero;fill:rgb(56.078431%,78.823529%,96.862745%);fill-opacity:1;" />
<path d="M 217.929688 396.289062 C 213.160156 385.949219 206.171875 376.519531 197.148438 368.789062 C 194.121094 366.191406 190.851562 363.78125 187.371094 361.589844 C 173.890625 353.121094 158.878906 349.089844 144.050781 349.101562 C 116.988281 349.128906 90.539062 362.628906 75.089844 387.230469 C 67.859375 398.738281 63.859375 411.351562 62.859375 424.019531 C 85.351562 449.851562 112.929688 471.128906 144.050781 486.28125 C 156.730469 492.460938 170 497.621094 183.75 501.660156 C 195.320312 495.230469 205.46875 485.871094 213.011719 473.871094 C 228.230469 449.628906 229.121094 420.460938 217.929688 396.289062 Z M 144.050781 472.429688 C 136.429688 472.429688 128.710938 470.359375 121.78125 466.011719 C 102.191406 453.710938 96.289062 427.859375 108.589844 408.28125 C 116.539062 395.628906 130.140625 388.691406 144.050781 388.671875 C 151.671875 388.671875 159.390625 390.738281 166.320312 395.101562 C 169.890625 397.339844 173 400.03125 175.628906 403.050781 C 187.449219 416.601562 189.558594 436.808594 179.511719 452.820312 C 171.558594 465.46875 157.960938 472.410156 144.050781 472.429688 Z M 144.050781 472.429688 " style=" stroke:none;fill-rule:nonzero;fill:rgb(5.882353%,60.784314%,90.980392%);fill-opacity:1;" />
<path d="M 332.496094 452.820312 L 328.515625 455.320312 L 298.988281 473.867188 L 256 405.429688 L 142.394531 224.578125 C 128.582031 202.589844 128.636719 175.828125 140.214844 154.53125 C 145.707031 144.425781 153.792969 135.550781 164.226562 129 L 256 275.105469 L 314.851562 368.792969 L 336.367188 403.046875 C 324.550781 416.601562 322.4375 436.808594 332.496094 452.820312 Z M 332.496094 452.820312 " style=" stroke:none;fill-rule:nonzero;fill:rgb(81.568627%,96.470588%,100%);fill-opacity:1;" />
<path d="M 322.710938 423.976562 L 328.515625 455.320312 L 140.214844 154.53125 C 145.703125 144.425781 153.789062 135.550781 164.222656 129 L 256 275.105469 L 314.851562 368.792969 L 336.367188 403.046875 C 324.550781 416.601562 322.710938 423.976562 322.710938 423.976562 Z M 322.710938 423.976562 " style=" stroke:none;fill-rule:nonzero;fill:rgb(100%,100%,100%);fill-opacity:1;" />
<path d="M 323.21875 425.378906 L 328.515625 455.320312 L 255.996094 339.484375 L 255.996094 275.105469 L 314.847656 368.792969 L 336.367188 403.046875 C 324.550781 416.601562 323.21875 425.378906 323.21875 425.378906 Z M 323.21875 425.378906 " style=" stroke:none;fill-rule:nonzero;fill:rgb(81.568627%,96.470588%,100%);fill-opacity:1;" />
<path d="M 328.515625 455.320312 L 298.988281 473.867188 L 256 405.429688 L 256 339.484375 Z M 328.515625 455.320312 " style=" stroke:none;fill-rule:nonzero;fill:rgb(56.078431%,78.823529%,96.862745%);fill-opacity:1;" />
<path d="M 448.890625 421.429688 C 448.808594 420.710938 448.71875 419.988281 448.621094 419.269531 C 448.5 418.378906 448.359375 417.488281 448.210938 416.601562 C 448.140625 416.179688 448.058594 415.769531 447.980469 415.359375 C 447.191406 411.148438 446.050781 406.980469 444.558594 402.878906 C 444.28125 402.121094 443.988281 401.351562 443.691406 400.589844 C 443.539062 400.21875 443.398438 399.851562 443.238281 399.480469 C 443.101562 399.128906 442.949219 398.789062 442.808594 398.441406 C 442.769531 398.359375 442.738281 398.28125 442.699219 398.199219 C 442.421875 397.550781 442.128906 396.910156 441.828125 396.261719 C 441.78125 396.160156 441.730469 396.058594 441.679688 395.949219 C 441.339844 395.238281 440.988281 394.519531 440.628906 393.808594 C 440.289062 393.148438 439.949219 392.480469 439.589844 391.820312 C 439.449219 391.558594 439.308594 391.308594 439.171875 391.050781 C 438.929688 390.628906 438.691406 390.199219 438.441406 389.769531 C 437.949219 388.921875 437.441406 388.070312 436.910156 387.230469 C 421.460938 362.628906 395.011719 349.128906 367.949219 349.101562 C 353.121094 349.089844 338.109375 353.121094 324.628906 361.589844 C 321.148438 363.78125 317.878906 366.191406 314.851562 368.789062 C 305.148438 377.109375 297.800781 387.371094 293.019531 398.628906 C 282.949219 422.328125 284.261719 450.410156 298.988281 473.871094 C 306.53125 485.871094 316.679688 495.230469 328.25 501.660156 C 342 497.621094 355.269531 492.460938 367.949219 486.28125 C 399.070312 471.128906 426.648438 449.851562 449.140625 424.019531 C 449.078125 423.160156 448.988281 422.300781 448.890625 421.429688 Z M 390.21875 466.011719 C 383.289062 470.359375 375.570312 472.429688 367.949219 472.429688 C 354.039062 472.410156 340.441406 465.46875 332.488281 452.820312 C 322.441406 436.808594 324.550781 416.601562 336.371094 403.050781 C 339 400.03125 342.109375 397.339844 345.679688 395.101562 C 352.609375 390.738281 360.328125 388.671875 367.949219 388.671875 C 381.859375 388.691406 395.460938 395.628906 403.410156 408.28125 C 415.710938 427.859375 409.808594 453.710938 390.21875 466.011719 Z M 390.21875 466.011719 " style=" stroke:none;fill-rule:nonzero;fill:rgb(5.882353%,60.784314%,90.980392%);fill-opacity:1;" />
<path d="M 213.011719 473.871094 C 205.46875 485.871094 195.320312 495.230469 183.75 501.660156 C 170 497.621094 156.730469 492.460938 144.050781 486.28125 L 144.050781 472.429688 C 157.960938 472.410156 171.558594 465.46875 179.511719 452.820312 C 189.558594 436.808594 187.449219 416.601562 175.628906 403.050781 C 173 400.03125 169.890625 397.339844 166.320312 395.101562 C 159.390625 390.738281 151.671875 388.671875 144.050781 388.671875 L 144.050781 349.101562 C 158.878906 349.089844 173.890625 353.121094 187.371094 361.589844 C 190.851562 363.78125 194.121094 366.191406 197.148438 368.789062 C 206.171875 376.519531 213.160156 385.949219 217.929688 396.289062 C 229.121094 420.460938 228.230469 449.628906 213.011719 473.871094 Z M 213.011719 473.871094 " style=" stroke:none;fill-rule:nonzero;fill:rgb(0%,40%,90.980392%);fill-opacity:1;" />
<path d="M 449.140625 424.019531 C 426.648438 449.851562 399.070312 471.128906 367.949219 486.28125 L 367.949219 472.429688 C 375.570312 472.429688 383.289062 470.359375 390.21875 466.011719 C 409.808594 453.710938 415.710938 427.859375 403.410156 408.28125 C 395.460938 395.628906 381.859375 388.691406 367.949219 388.671875 L 367.949219 349.101562 C 395.011719 349.128906 421.460938 362.628906 436.910156 387.230469 C 437.441406 388.070312 437.949219 388.921875 438.441406 389.769531 C 438.691406 390.199219 438.929688 390.628906 439.171875 391.050781 C 439.308594 391.308594 439.449219 391.558594 439.589844 391.820312 C 439.949219 392.480469 440.289062 393.148438 440.628906 393.808594 C 440.988281 394.519531 441.339844 395.238281 441.679688 395.949219 C 441.730469 396.058594 441.78125 396.160156 441.828125 396.261719 C 442.128906 396.910156 442.421875 397.550781 442.699219 398.199219 C 442.738281 398.28125 442.769531 398.359375 442.808594 398.441406 C 442.949219 398.789062 443.101562 399.128906 443.238281 399.480469 C 443.398438 399.851562 443.539062 400.21875 443.691406 400.589844 C 443.988281 401.351562 444.28125 402.121094 444.558594 402.878906 C 446.050781 406.980469 447.191406 411.148438 447.980469 415.359375 C 448.058594 415.769531 448.140625 416.179688 448.210938 416.601562 C 448.359375 417.488281 448.5 418.378906 448.621094 419.269531 C 448.71875 419.988281 448.808594 420.710938 448.890625 421.429688 C 448.988281 422.300781 449.078125 423.160156 449.140625 424.019531 Z M 449.140625 424.019531 " style=" stroke:none;fill-rule:nonzero;fill:rgb(0%,40%,90.980392%);fill-opacity:1;" />
<path d="M 281.125 336.90625 C 281.125 350.785156 269.875 362.035156 256 362.035156 C 242.121094 362.035156 230.871094 350.785156 230.871094 336.90625 C 230.871094 323.03125 242.121094 311.78125 256 311.78125 C 269.875 311.78125 281.125 323.03125 281.125 336.90625 Z M 281.125 336.90625 " style=" stroke:none;fill-rule:nonzero;fill:rgb(27.843137%,30.980392%,43.529412%);fill-opacity:1;" />
<path d="M 281.125 336.90625 C 281.125 350.785156 269.875 362.035156 256 362.035156 L 256 311.78125 C 269.875 311.78125 281.125 323.03125 281.125 336.90625 Z M 281.125 336.90625 " style=" stroke:none;fill-rule:nonzero;fill:rgb(19.607843%,23.137255%,35.294118%);fill-opacity:1;" />
<path d="M 268.316406 336.90625 C 268.316406 343.710938 262.800781 349.226562 256 349.226562 C 249.195312 349.226562 243.679688 343.710938 243.679688 336.90625 C 243.679688 330.105469 249.195312 324.589844 256 324.589844 C 262.800781 324.589844 268.316406 330.105469 268.316406 336.90625 Z M 268.316406 336.90625 " style=" stroke:none;fill-rule:nonzero;fill:rgb(100%,100%,100%);fill-opacity:1;" />
<path d="M 268.316406 336.90625 C 268.316406 343.710938 262.800781 349.226562 256 349.226562 L 256 324.589844 C 262.800781 324.589844 268.316406 330.105469 268.316406 336.90625 Z M 268.316406 336.90625 " style=" stroke:none;fill-rule:nonzero;fill:rgb(81.568627%,96.470588%,100%);fill-opacity:1;" />
</g>
</svg>