<svg xmlns="http://www.w3.org/2000/svg" height="512pt" version="1.1" viewBox="0 0 512 512" width="512pt">
<g id="surface1">
<path d="M 512 256 C 512 334.5 476.671875 404.738281 421.039062 451.699219 C 376.46875 489.320312 318.878906 512 256 512 C 193.121094 512 135.53125 489.320312 90.960938 451.699219 C 35.328125 404.738281 0 334.5 0 256 C 0 114.621094 114.621094 0 256 0 C 397.378906 0 512 114.621094 512 256 Z M 512 256 " style=" stroke:none;fill-rule:nonzero;fill:rgb(40.784314%,98.823529%,87.45098%);fill-opacity:1;" />
<path d="M 512 256 C 512 282.050781 508.109375 307.191406 500.871094 330.871094 C 468.859375 435.71875 371.328125 512 256 512 C 151.441406 512 61.511719 449.300781 21.769531 359.449219 C 7.769531 327.820312 0 292.820312 0 256 C 0 209.78125 12.25 166.429688 33.679688 129 C 77.800781 206.070312 160.839844 258 256 258 C 351.160156 258 434.210938 206.070312 478.320312 129 C 499.75 166.429688 512 209.78125 512 256 Z M 512 256 " style=" stroke:none;fill-rule:nonzero;fill:rgb(6.27451%,88.627451%,76.862745%);fill-opacity:1;" />
<path d="M 481.261719 377.699219 C 474.101562 390.921875 465.828125 403.441406 456.539062 415.128906 C 456.390625 415.320312 456.238281 415.511719 456.078125 415.699219 C 409.171875 474.390625 336.980469 512 256 512 C 175.019531 512 102.828125 474.390625 55.921875 415.699219 C 55.761719 415.511719 55.609375 415.320312 55.460938 415.128906 C 46.171875 403.441406 37.898438 390.921875 30.738281 377.699219 Z M 481.261719 377.699219 " style=" stroke:none;fill-rule:nonzero;fill:rgb(10.196078%,72.941176%,62.352941%);fill-opacity:1;" />
<path d="M 421.039062 451.699219 C 376.46875 489.320312 318.878906 512 256 512 C 193.121094 512 135.53125 489.320312 90.960938 451.699219 Z M 421.039062 451.699219 " style=" stroke:none;fill-rule:nonzero;fill:rgb(19.607843%,23.137255%,35.294118%);fill-opacity:1;" />
<path d="M 397.339844 245.96875 L 397.339844 469.480469 C 375.960938 483.660156 352.320312 494.71875 327.078125 502 C 304.511719 508.511719 280.660156 512 256 512 C 232.671875 512 210.070312 508.878906 188.589844 503.03125 C 187.359375 502.699219 186.140625 502.351562 184.921875 502 C 163.71875 495.878906 143.640625 487.101562 125.089844 476.03125 C 121.558594 473.929688 118.078125 471.738281 114.660156 469.480469 L 114.660156 266.738281 C 114.660156 255.269531 123.960938 245.96875 135.429688 245.96875 Z M 397.339844 245.96875 " style=" stroke:none;fill-rule:nonzero;fill:rgb(100%,91.372549%,33.333333%);fill-opacity:1;" />
<path d="M 397.339844 245.96875 L 397.339844 469.480469 C 375.960938 483.660156 352.320312 494.71875 327.078125 502 C 304.511719 508.511719 280.660156 512 256 512 C 232.671875 512 210.070312 508.878906 188.589844 503.03125 L 188.589844 245.96875 Z M 397.339844 245.96875 " style=" stroke:none;fill-rule:nonzero;fill:rgb(100%,81.960784%,7.058824%);fill-opacity:1;" />
<path d="M 397.339844 245.96875 L 397.339844 469.480469 C 375.960938 483.660156 352.320312 494.71875 327.078125 502 C 304.511719 508.511719 280.660156 512 256 512 L 256 245.96875 Z M 397.339844 245.96875 " style=" stroke:none;fill-rule:nonzero;fill:rgb(100%,62.352941%,0%);fill-opacity:1;" />
<path d="M 327.078125 502 C 304.511719 508.511719 280.660156 512 256 512 C 232.671875 512 210.070312 508.878906 188.589844 503.03125 C 187.359375 502.699219 186.140625 502.351562 184.921875 502 Z M 327.078125 502 " style=" stroke:none;fill-rule:nonzero;fill:rgb(100%,100%,100%);fill-opacity:1;" />
<path d="M 327.078125 502 C 304.511719 508.511719 280.660156 512 256 512 C 232.671875 512 210.070312 508.878906 188.589844 503.03125 L 188.589844 502 Z M 327.078125 502 " style=" stroke:none;fill-rule:nonzero;fill:rgb(81.568627%,96.470588%,100%);fill-opacity:1;" />
<path d="M 327.078125 502 C 304.511719 508.511719 280.660156 512 256 512 L 256 502 Z M 327.078125 502 " style=" stroke:none;fill-rule:nonzero;fill:rgb(56.078431%,78.823529%,96.862745%);fill-opacity:1;" />
<path d="M 397.339844 198.261719 L 397.339844 455.269531 C 397.339844 455.628906 397.328125 455.980469 397.308594 456.339844 C 397.300781 456.589844 397.28125 456.839844 397.25 457.078125 C 397.25 457.191406 397.238281 457.300781 397.230469 457.410156 C 397.210938 457.589844 397.191406 457.769531 397.160156 457.949219 C 397.140625 458.160156 397.109375 458.378906 397.070312 458.589844 C 397.039062 458.789062 397.011719 458.980469 396.96875 459.171875 C 396.941406 459.359375 396.898438 459.539062 396.859375 459.71875 C 396.828125 459.851562 396.800781 459.980469 396.769531 460.109375 C 396.691406 460.441406 396.609375 460.761719 396.511719 461.078125 C 396.410156 461.449219 396.289062 461.808594 396.160156 462.171875 C 396.070312 462.421875 395.980469 462.660156 395.890625 462.898438 C 395.710938 463.371094 395.511719 463.820312 395.289062 464.269531 C 395.199219 464.46875 395.101562 464.660156 395 464.851562 C 394.921875 464.988281 394.851562 465.128906 394.769531 465.269531 C 394.589844 465.601562 394.398438 465.929688 394.199219 466.25 C 394.101562 466.398438 394 466.558594 393.898438 466.71875 C 393.800781 466.878906 393.691406 467.03125 393.578125 467.179688 C 393.359375 467.488281 393.140625 467.789062 392.910156 468.078125 C 392.710938 468.328125 392.511719 468.578125 392.300781 468.820312 C 392.269531 468.859375 392.238281 468.890625 392.210938 468.929688 L 392.179688 468.960938 C 392.058594 469.101562 391.941406 469.230469 391.808594 469.371094 C 391.691406 469.5 391.558594 469.640625 391.429688 469.769531 C 391.171875 470.039062 390.898438 470.300781 390.628906 470.550781 C 390.351562 470.800781 390.070312 471.050781 389.78125 471.289062 C 389.53125 471.5 389.269531 471.699219 389 471.898438 C 388.761719 472.078125 388.511719 472.261719 388.261719 472.421875 C 388.199219 472.46875 388.148438 472.511719 388.089844 472.539062 C 387.839844 472.710938 387.589844 472.871094 387.339844 473.019531 C 386.769531 473.371094 386.179688 473.691406 385.570312 473.980469 C 385.230469 474.140625 384.878906 474.300781 384.539062 474.441406 C 384.179688 474.589844 383.828125 474.71875 383.46875 474.851562 C 383.28125 474.921875 383.089844 474.980469 382.890625 475.050781 C 382.71875 475.101562 382.550781 475.148438 382.378906 475.199219 C 382.058594 475.300781 381.730469 475.378906 381.410156 475.460938 C 381.289062 475.488281 381.160156 475.519531 381.019531 475.550781 C 380.839844 475.589844 380.648438 475.628906 380.46875 475.660156 C 380.289062 475.699219 380.089844 475.730469 379.898438 475.761719 C 379.648438 475.800781 379.410156 475.839844 379.160156 475.859375 C 379.070312 475.878906 378.96875 475.890625 378.871094 475.898438 C 378.699219 475.921875 378.53125 475.941406 378.351562 475.949219 C 378.121094 475.96875 377.878906 475.988281 377.640625 476 C 377.28125 476.019531 376.929688 476.03125 376.570312 476.03125 L 125.089844 476.03125 C 121.558594 473.929688 118.078125 471.738281 114.660156 469.480469 L 114.660156 177.488281 L 376.570312 177.488281 C 388.039062 177.488281 397.339844 186.789062 397.339844 198.261719 Z M 397.339844 198.261719 " style=" stroke:none;fill-rule:nonzero;fill:rgb(100%,44.313725%,58.431373%);fill-opacity:1;" />
<path d="M 397.339844 198.261719 L 397.339844 455.269531 C 397.339844 466.730469 388.039062 476.03125 376.570312 476.03125 L 188.589844 476.03125 L 188.589844 177.488281 L 376.570312 177.488281 C 388.039062 177.488281 397.339844 186.789062 397.339844 198.261719 Z M 397.339844 198.261719 " style=" stroke:none;fill-rule:nonzero;fill:rgb(100%,20.392157%,27.058824%);fill-opacity:1;" />
<path d="M 397.339844 198.261719 L 397.339844 455.269531 C 397.339844 466.730469 388.039062 476.03125 376.570312 476.03125 L 256 476.03125 L 256 177.488281 L 376.570312 177.488281 C 388.039062 177.488281 397.339844 186.789062 397.339844 198.261719 Z M 397.339844 198.261719 " style=" stroke:none;fill-rule:nonzero;fill:rgb(86.666667%,7.058824%,39.607843%);fill-opacity:1;" />
<path d="M 397.339844 454.28125 L 397.339844 455.269531 C 397.339844 455.628906 397.328125 455.980469 397.308594 456.339844 C 397.300781 456.589844 397.28125 456.839844 397.25 457.078125 C 397.25 457.191406 397.238281 457.300781 397.230469 457.410156 C 397.210938 457.589844 397.191406 457.769531 397.160156 457.949219 C 397.140625 458.160156 397.109375 458.378906 397.070312 458.589844 C 397.039062 458.789062 397.011719 458.980469 396.96875 459.171875 C 396.941406 459.359375 396.898438 459.539062 396.859375 459.71875 C 396.828125 459.851562 396.800781 459.980469 396.769531 460.109375 C 396.691406 460.441406 396.609375 460.761719 396.511719 461.078125 C 396.410156 461.449219 396.289062 461.808594 396.160156 462.171875 C 396.070312 462.421875 395.980469 462.660156 395.890625 462.898438 C 395.710938 463.371094 395.511719 463.820312 395.289062 464.269531 C 395.199219 464.46875 395.101562 464.660156 395 464.851562 C 394.921875 464.988281 394.851562 465.128906 394.769531 465.269531 C 394.589844 465.601562 394.398438 465.929688 394.199219 466.25 C 394.101562 466.398438 394 466.558594 393.898438 466.71875 C 393.800781 466.878906 393.691406 467.03125 393.578125 467.179688 C 393.359375 467.488281 393.140625 467.789062 392.910156 468.078125 C 392.710938 468.328125 392.511719 468.578125 392.300781 468.820312 C 392.269531 468.859375 392.238281 468.890625 392.210938 468.929688 L 392.179688 468.960938 C 392.058594 469.101562 391.941406 469.230469 391.808594 469.371094 C 391.691406 469.5 391.558594 469.640625 391.429688 469.769531 C 391.171875 470.039062 390.898438 470.300781 390.628906 470.550781 C 390.351562 470.800781 390.070312 471.050781 389.78125 471.289062 C 389.53125 471.5 389.269531 471.699219 389 471.898438 C 388.761719 472.078125 388.511719 472.261719 388.261719 472.421875 C 388.199219 472.46875 388.148438 472.511719 388.089844 472.539062 C 387.839844 472.710938 387.589844 472.871094 387.339844 473.019531 C 386.769531 473.371094 386.179688 473.691406 385.570312 473.980469 C 385.230469 474.140625 384.878906 474.300781 384.539062 474.441406 C 384.179688 474.589844 383.828125 474.71875 383.46875 474.851562 C 383.28125 474.921875 383.089844 474.980469 382.890625 475.050781 C 382.71875 475.101562 382.550781 475.148438 382.378906 475.199219 C 382.058594 475.300781 381.730469 475.378906 381.410156 475.460938 C 381.289062 475.488281 381.160156 475.519531 381.019531 475.550781 C 380.839844 475.589844 380.648438 475.628906 380.46875 475.660156 C 380.289062 475.699219 380.089844 475.730469 379.898438 475.761719 C 379.648438 475.800781 379.410156 475.839844 379.160156 475.859375 C 379.070312 475.878906 378.96875 475.890625 378.871094 475.898438 C 378.699219 475.921875 378.53125 475.941406 378.351562 475.949219 C 378.121094 475.96875 377.878906 475.988281 377.640625 476 C 377.28125 476.019531 376.929688 476.03125 376.570312 476.03125 L 125.089844 476.03125 C 121.558594 473.929688 118.078125 471.738281 114.660156 469.480469 L 114.660156 433.519531 L 376.570312 433.519531 C 388.039062 433.519531 397.339844 442.820312 397.339844 454.28125 Z M 397.339844 454.28125 " style=" stroke:none;fill-rule:nonzero;fill:rgb(100%,100%,100%);fill-opacity:1;" />
<path d="M 397.339844 454.28125 L 397.339844 455.269531 C 397.339844 466.730469 388.039062 476.03125 376.570312 476.03125 L 188.589844 476.03125 L 188.589844 433.519531 L 376.570312 433.519531 C 388.039062 433.519531 397.339844 442.808594 397.339844 454.28125 Z M 397.339844 454.28125 " style=" stroke:none;fill-rule:nonzero;fill:rgb(81.568627%,96.470588%,100%);fill-opacity:1;" />
<path d="M 397.339844 130.902344 L 397.339844 409.808594 L 135.429688 409.808594 C 123.960938 409.808594 114.660156 400.511719 114.660156 389.039062 L 114.660156 132.039062 C 114.660156 120.574219 123.953125 111.28125 135.421875 111.28125 L 377.71875 111.28125 C 388.554688 111.28125 397.339844 120.066406 397.339844 130.902344 Z M 397.339844 130.902344 " style=" stroke:none;fill-rule:nonzero;fill:rgb(39.607843%,69.803922%,100%);fill-opacity:1;" />
<path d="M 397.339844 130.902344 L 397.339844 409.808594 L 188.589844 409.808594 L 188.589844 111.28125 L 377.71875 111.28125 C 388.554688 111.28125 397.339844 120.066406 397.339844 130.902344 Z M 397.339844 130.902344 " style=" stroke:none;fill-rule:nonzero;fill:rgb(5.882353%,60.784314%,90.980392%);fill-opacity:1;" />
<path d="M 397.339844 130.902344 L 397.339844 409.808594 L 256 409.808594 L 256 111.28125 L 377.71875 111.28125 C 388.554688 111.28125 397.339844 120.066406 397.339844 130.902344 Z M 397.339844 130.902344 " style=" stroke:none;fill-rule:nonzero;fill:rgb(0%,40%,90.980392%);fill-opacity:1;" />
<path d="M 397.339844 367.300781 L 397.339844 409.808594 L 135.429688 409.808594 C 123.960938 409.808594 114.660156 400.519531 114.660156 389.050781 L 114.660156 388.058594 C 114.660156 376.601562 123.960938 367.300781 135.429688 367.300781 Z M 397.339844 367.300781 " style=" stroke:none;fill-rule:nonzero;fill:rgb(100%,100%,100%);fill-opacity:1;" />
<path d="M 188.589844 367.300781 L 397.339844 367.300781 L 397.339844 409.808594 L 188.589844 409.808594 Z M 188.589844 367.300781 " style=" stroke:none;fill-rule:nonzero;fill:rgb(81.568627%,96.470588%,100%);fill-opacity:1;" />
<path d="M 256 367.300781 L 397.339844 367.300781 L 397.339844 409.808594 L 256 409.808594 Z M 256 367.300781 " style=" stroke:none;fill-rule:nonzero;fill:rgb(56.078431%,78.823529%,96.862745%);fill-opacity:1;" />
<path d="M 337.089844 166.890625 L 337.089844 226.699219 C 337.089844 233.429688 331.640625 238.890625 324.910156 238.890625 L 187.089844 238.890625 C 180.359375 238.890625 174.910156 233.429688 174.910156 226.699219 L 174.910156 166.890625 C 174.910156 160.160156 180.359375 154.699219 187.089844 154.699219 L 324.910156 154.699219 C 331.640625 154.699219 337.089844 160.160156 337.089844 166.890625 Z M 337.089844 166.890625 " style=" stroke:none;fill-rule:nonzero;fill:rgb(27.843137%,30.980392%,43.529412%);fill-opacity:1;" />
<path d="M 337.089844 166.890625 L 337.089844 226.699219 C 337.089844 233.429688 331.640625 238.890625 324.910156 238.890625 L 256 238.890625 L 256 154.699219 L 324.910156 154.699219 C 331.640625 154.699219 337.089844 160.160156 337.089844 166.890625 Z M 337.089844 166.890625 " style=" stroke:none;fill-rule:nonzero;fill:rgb(19.607843%,23.137255%,35.294118%);fill-opacity:1;" />
<path d="M 321.550781 180.011719 L 321.550781 213.570312 C 321.550781 218.53125 317.53125 222.539062 312.578125 222.539062 L 199.421875 222.539062 C 194.46875 222.539062 190.449219 218.53125 190.449219 213.570312 L 190.449219 180.011719 C 190.449219 175.058594 194.46875 171.050781 199.421875 171.050781 L 312.578125 171.050781 C 317.53125 171.050781 321.550781 175.058594 321.550781 180.011719 Z M 321.550781 180.011719 " style=" stroke:none;fill-rule:nonzero;fill:rgb(100%,100%,100%);fill-opacity:1;" />
<path d="M 321.550781 180.011719 L 321.550781 213.570312 C 321.550781 218.53125 317.53125 222.539062 312.578125 222.539062 L 256 222.539062 L 256 171.050781 L 312.578125 171.050781 C 317.53125 171.050781 321.550781 175.058594 321.550781 180.011719 Z M 321.550781 180.011719 " style=" stroke:none;fill-rule:nonzero;fill:rgb(81.568627%,96.470588%,100%);fill-opacity:1;" />
<path d="M 397.339844 454.28125 L 397.339844 455.269531 C 397.339844 466.730469 388.039062 476.03125 376.570312 476.03125 L 256 476.03125 L 256 433.519531 L 376.570312 433.519531 C 388.039062 433.519531 397.339844 442.808594 397.339844 454.28125 Z M 397.339844 454.28125 " style=" stroke:none;fill-rule:nonzero;fill:rgb(56.078431%,78.823529%,96.862745%);fill-opacity:1;" />
<path d="M 124.660156 388.058594 L 124.660156 389.050781 C 124.660156 394.980469 129.488281 399.808594 135.429688 399.808594 L 397.339844 399.808594 L 397.339844 409.808594 L 135.429688 409.808594 C 123.960938 409.808594 114.660156 400.519531 114.660156 389.050781 L 114.660156 388.058594 C 114.660156 376.601562 123.960938 367.300781 135.429688 367.300781 L 397.339844 367.300781 L 397.339844 377.300781 L 135.429688 377.300781 C 129.488281 377.300781 124.660156 382.128906 124.660156 388.058594 Z M 124.660156 388.058594 " style=" stroke:none;fill-rule:nonzero;fill:rgb(5.882353%,60.784314%,90.980392%);fill-opacity:1;" />
<path d="M 188.589844 367.300781 L 397.339844 367.300781 L 397.339844 377.300781 L 188.589844 377.300781 Z M 188.589844 367.300781 " style=" stroke:none;fill-rule:nonzero;fill:rgb(0%,40%,90.980392%);fill-opacity:1;" />
<path d="M 188.589844 399.808594 L 397.339844 399.808594 L 397.339844 409.808594 L 188.589844 409.808594 Z M 188.589844 399.808594 " style=" stroke:none;fill-rule:nonzero;fill:rgb(0%,40%,90.980392%);fill-opacity:1;" />
<path d="M 256 367.300781 L 397.339844 367.300781 L 397.339844 377.300781 L 256 377.300781 Z M 256 367.300781 " style=" stroke:none;fill-rule:nonzero;fill:rgb(2.352941%,37.254902%,75.686275%);fill-opacity:1;" />
<path d="M 256 399.808594 L 397.339844 399.808594 L 397.339844 409.808594 L 256 409.808594 Z M 256 399.808594 " style=" stroke:none;fill-rule:nonzero;fill:rgb(2.352941%,37.254902%,75.686275%);fill-opacity:1;" />
<path d="M 327.078125 502 C 304.511719 508.511719 280.660156 512 256 512 C 232.671875 512 210.070312 508.878906 188.589844 503.03125 C 187.359375 502.699219 186.140625 502.351562 184.921875 502 Z M 327.078125 502 " style=" stroke:none;fill-rule:nonzero;fill:rgb(100%,81.960784%,7.058824%);fill-opacity:1;" />
<path d="M 327.078125 502 C 304.511719 508.511719 280.660156 512 256 512 C 232.671875 512 210.070312 508.878906 188.589844 503.03125 L 188.589844 502 Z M 327.078125 502 " style=" stroke:none;fill-rule:nonzero;fill:rgb(100%,62.352941%,0%);fill-opacity:1;" />
<path d="M 327.078125 502 C 304.511719 508.511719 280.660156 512 256 512 L 256 502 Z M 327.078125 502 " style=" stroke:none;fill-rule:nonzero;fill:rgb(77.254902%,34.509804%,20.784314%);fill-opacity:1;" />
<path d="M 397.339844 454.28125 L 397.339844 455.269531 C 397.339844 455.628906 397.328125 455.980469 397.308594 456.339844 C 397.300781 456.589844 397.28125 456.839844 397.25 457.078125 C 397.25 457.191406 397.238281 457.300781 397.230469 457.410156 C 397.210938 457.589844 397.191406 457.769531 397.160156 457.949219 C 397.140625 458.160156 397.109375 458.378906 397.070312 458.589844 C 397.039062 458.789062 397.011719 458.980469 396.96875 459.171875 C 396.941406 459.359375 396.898438 459.539062 396.859375 459.71875 C 396.828125 459.851562 396.800781 459.980469 396.769531 460.109375 C 396.691406 460.441406 396.609375 460.761719 396.511719 461.078125 C 396.410156 461.449219 396.289062 461.808594 396.160156 462.171875 C 396.070312 462.421875 395.980469 462.660156 395.890625 462.898438 C 395.710938 463.371094 395.511719 463.820312 395.289062 464.269531 C 395.199219 464.46875 395.101562 464.660156 395 464.851562 C 394.921875 464.988281 394.851562 465.128906 394.769531 465.269531 C 394.589844 465.601562 394.398438 465.929688 394.199219 466.25 C 394.101562 466.398438 394 466.558594 393.898438 466.71875 C 393.800781 466.878906 393.691406 467.03125 393.578125 467.179688 C 393.359375 467.488281 393.140625 467.789062 392.910156 468.078125 C 392.710938 468.328125 392.511719 468.578125 392.300781 468.820312 C 392.269531 468.859375 392.238281 468.890625 392.210938 468.929688 L 392.179688 468.960938 C 392.058594 469.101562 391.941406 469.230469 391.808594 469.371094 C 391.691406 469.5 391.558594 469.640625 391.429688 469.769531 C 391.171875 470.039062 390.898438 470.300781 390.628906 470.550781 C 390.351562 470.800781 390.070312 471.050781 389.78125 471.289062 C 389.53125 471.5 389.269531 471.699219 389 471.898438 C 388.761719 472.078125 388.511719 472.261719 388.261719 472.421875 C 388.199219 472.46875 388.148438 472.511719 388.089844 472.539062 C 387.980469 472.621094 387.871094 472.691406 387.761719 472.761719 C 387.621094 472.851562 387.480469 472.929688 387.339844 473.019531 C 386.769531 473.371094 386.179688 473.691406 385.570312 473.980469 C 385.230469 474.140625 384.878906 474.300781 384.539062 474.441406 C 384.179688 474.589844 383.828125 474.71875 383.46875 474.851562 C 383.28125 474.921875 383.089844 474.980469 382.890625 475.050781 C 382.71875 475.101562 382.550781 475.148438 382.378906 475.199219 C 382.058594 475.300781 381.730469 475.378906 381.410156 475.460938 C 381.289062 475.488281 381.160156 475.519531 381.019531 475.550781 C 380.839844 475.589844 380.648438 475.628906 380.46875 475.660156 C 380.289062 475.699219 380.089844 475.730469 379.898438 475.761719 C 379.648438 475.800781 379.410156 475.839844 379.160156 475.859375 C 379.070312 475.878906 378.96875 475.890625 378.871094 475.898438 C 378.699219 475.921875 378.53125 475.941406 378.351562 475.949219 C 378.121094 475.96875 377.878906 475.988281 377.640625 476 C 377.28125 476.019531 376.929688 476.03125 376.570312 476.03125 L 125.089844 476.03125 C 121.558594 473.929688 118.078125 471.738281 114.660156 469.480469 L 114.660156 466.03125 L 376.570312 466.03125 C 382.511719 466.03125 387.339844 461.199219 387.339844 455.269531 L 387.339844 454.28125 C 387.339844 448.351562 382.511719 443.519531 376.570312 443.519531 L 114.660156 443.519531 L 114.660156 433.519531 L 376.570312 433.519531 C 388.039062 433.519531 397.339844 442.820312 397.339844 454.28125 Z M 397.339844 454.28125 " style=" stroke:none;fill-rule:nonzero;fill:rgb(100%,20.392157%,27.058824%);fill-opacity:1;" />
<path d="M 397.339844 454.28125 L 397.339844 455.269531 C 397.339844 455.628906 397.328125 455.980469 397.308594 456.339844 C 397.300781 456.589844 397.28125 456.839844 397.25 457.078125 C 397.238281 457.371094 397.210938 457.660156 397.160156 457.949219 C 397.140625 458.160156 397.109375 458.378906 397.070312 458.589844 C 397.039062 458.789062 397.011719 458.980469 396.96875 459.171875 C 396.941406 459.359375 396.898438 459.539062 396.859375 459.71875 C 396.828125 459.851562 396.800781 459.980469 396.769531 460.109375 C 396.691406 460.441406 396.609375 460.761719 396.511719 461.078125 C 396.410156 461.449219 396.289062 461.808594 396.160156 462.171875 C 395.910156 462.890625 395.621094 463.589844 395.289062 464.269531 C 395.128906 464.609375 394.949219 464.941406 394.769531 465.269531 C 394.589844 465.601562 394.398438 465.929688 394.199219 466.25 C 394 466.558594 393.800781 466.878906 393.578125 467.179688 C 393.359375 467.488281 393.140625 467.789062 392.910156 468.078125 C 392.679688 468.371094 392.449219 468.648438 392.210938 468.929688 L 392.179688 468.960938 C 391.941406 469.230469 391.691406 469.511719 391.429688 469.769531 C 391.171875 470.039062 390.898438 470.300781 390.628906 470.550781 C 390.351562 470.800781 390.070312 471.050781 389.78125 471.289062 C 389.53125 471.5 389.269531 471.699219 389 471.898438 C 388.761719 472.078125 388.511719 472.261719 388.261719 472.421875 C 388.199219 472.46875 388.148438 472.511719 388.089844 472.539062 C 387.839844 472.710938 387.589844 472.871094 387.339844 473.019531 C 386.769531 473.371094 386.179688 473.691406 385.570312 473.980469 C 384.890625 474.308594 384.191406 474.601562 383.46875 474.851562 C 383.109375 474.980469 382.738281 475.101562 382.378906 475.199219 C 382.058594 475.300781 381.730469 475.378906 381.410156 475.460938 C 381.289062 475.488281 381.160156 475.519531 381.019531 475.550781 C 380.839844 475.589844 380.648438 475.628906 380.46875 475.660156 C 380.289062 475.699219 380.089844 475.730469 379.898438 475.761719 C 379.648438 475.800781 379.410156 475.839844 379.160156 475.859375 C 379.070312 475.878906 378.96875 475.890625 378.871094 475.898438 C 378.699219 475.921875 378.53125 475.941406 378.351562 475.949219 C 378.121094 475.96875 377.878906 475.988281 377.640625 476 C 377.28125 476.019531 376.929688 476.03125 376.570312 476.03125 L 188.589844 476.03125 L 188.589844 466.03125 L 376.570312 466.03125 C 382.511719 466.03125 387.339844 461.199219 387.339844 455.269531 L 387.339844 454.28125 C 387.339844 448.351562 382.511719 443.519531 376.570312 443.519531 L 188.589844 443.519531 L 188.589844 433.519531 L 376.570312 433.519531 C 388.039062 433.519531 397.339844 442.820312 397.339844 454.28125 Z M 397.339844 454.28125 " style=" stroke:none;fill-rule:nonzero;fill:rgb(86.666667%,7.058824%,39.607843%);fill-opacity:1;" />
<path d="M 397.339844 454.28125 L 397.339844 455.269531 C 397.339844 461.71875 394.398438 467.480469 389.78125 471.289062 C 389.140625 471.820312 388.46875 472.300781 387.761719 472.761719 C 387.058594 473.199219 386.328125 473.621094 385.570312 473.980469 C 382.851562 475.289062 379.789062 476.03125 376.570312 476.03125 L 256 476.03125 L 256 466.03125 L 376.570312 466.03125 C 382.511719 466.03125 387.339844 461.199219 387.339844 455.269531 L 387.339844 454.28125 C 387.339844 448.351562 382.511719 443.519531 376.570312 443.519531 L 256 443.519531 L 256 433.519531 L 376.570312 433.519531 C 388.039062 433.519531 397.339844 442.820312 397.339844 454.28125 Z M 397.339844 454.28125 " style=" stroke:none;fill-rule:nonzero;fill:rgb(72.941176%,5.098039%,36.078431%);fill-opacity:1;" />
</g>
</svg>