<svg xmlns="http://www.w3.org/2000/svg" height="512pt" version="1.1" viewBox="0 0 512 512" width="512pt">
<g id="surface1">
<path d="M 512 256 C 512 397.386719 397.386719 512 256 512 C 114.613281 512 0 397.386719 0 256 C 0 114.613281 114.613281 0 256 0 C 397.386719 0 512 114.613281 512 256 Z M 512 256 " style=" stroke:none;fill-rule:nonzero;fill:rgb(100%,91.372549%,33.333333%);fill-opacity:1;" />
<path d="M 512 256 C 512 282.050781 508.109375 307.191406 500.871094 330.871094 C 468.859375 435.71875 371.328125 512 256 512 C 151.441406 512 61.511719 449.300781 21.769531 359.449219 C 7.769531 327.820312 0 292.820312 0 256 C 0 209.78125 12.25 166.429688 33.679688 129 C 77.800781 206.070312 160.839844 258 256 258 C 351.160156 258 434.210938 206.070312 478.320312 129 C 499.75 166.429688 512 209.78125 512 256 Z M 512 256 " style=" stroke:none;fill-rule:nonzero;fill:rgb(100%,81.960784%,7.058824%);fill-opacity:1;" />
<path d="M 30.742188 377.703125 C 37.898438 390.921875 46.171875 403.441406 55.460938 415.128906 C 102.359375 474.148438 174.761719 512 256 512 C 337.238281 512 409.640625 474.148438 456.539062 415.128906 C 465.828125 403.441406 474.101562 390.921875 481.257812 377.703125 Z M 30.742188 377.703125 " style=" stroke:none;fill-rule:nonzero;fill:rgb(100%,62.352941%,0%);fill-opacity:1;" />
<path d="M 303.65625 142.6875 L 286.65625 142.6875 L 286.65625 123.351562 C 286.65625 106.445312 272.90625 92.691406 256 92.691406 C 239.09375 92.691406 225.34375 106.445312 225.34375 123.351562 L 225.34375 142.6875 L 208.34375 142.6875 L 208.34375 123.351562 C 208.34375 97.070312 229.722656 75.691406 256 75.691406 C 282.277344 75.691406 303.65625 97.070312 303.65625 123.351562 Z M 303.65625 142.6875 " style=" stroke:none;fill-rule:nonzero;fill:rgb(19.607843%,23.137255%,35.294118%);fill-opacity:1;" />
<path d="M 149.730469 337.679688 L 149.730469 488.960938 C 138.390625 483.78125 127.488281 477.800781 117.109375 471.078125 C 110.46875 466.789062 104.039062 462.191406 97.851562 457.320312 C 78.269531 441.910156 60.988281 423.710938 46.621094 403.320312 L 46.621094 372.558594 C 46.621094 353.289062 62.238281 337.679688 81.5 337.679688 Z M 149.730469 337.679688 " style=" stroke:none;fill-rule:nonzero;fill:rgb(65.098039%,22.352941%,7.843137%);fill-opacity:1;" />
<path d="M 414.148438 167.960938 L 414.148438 457.320312 C 407.960938 462.191406 401.53125 466.789062 394.890625 471.078125 C 384.511719 477.800781 373.609375 483.78125 362.269531 488.960938 C 332.390625 502.621094 299.421875 510.699219 264.699219 511.851562 L 247.300781 511.851562 C 233.28125 511.390625 219.550781 509.789062 206.191406 507.148438 L 206.179688 507.148438 C 201.589844 506.25 197.03125 505.21875 192.53125 504.070312 L 192.519531 504.070312 C 177.699219 500.28125 163.390625 495.210938 149.730469 488.960938 C 138.390625 483.78125 127.488281 477.800781 117.109375 471.078125 C 110.46875 466.789062 104.039062 462.191406 97.851562 457.320312 L 97.851562 167.960938 C 97.851562 146.441406 115.289062 129 136.808594 129 L 375.191406 129 C 396.710938 129 414.148438 146.441406 414.148438 167.960938 Z M 414.148438 167.960938 " style=" stroke:none;fill-rule:nonzero;fill:rgb(100%,65.882353%,47.843137%);fill-opacity:1;" />
<path d="M 414.148438 167.960938 L 414.148438 457.320312 C 407.960938 462.191406 401.53125 466.789062 394.890625 471.078125 C 384.511719 477.800781 373.609375 483.78125 362.269531 488.960938 C 332.390625 502.621094 299.421875 510.699219 264.699219 511.851562 L 247.300781 511.851562 C 233.28125 511.390625 219.550781 509.789062 206.191406 507.148438 L 206.179688 507.148438 C 201.589844 506.25 197.03125 505.21875 192.53125 504.070312 L 192.519531 504.070312 C 183.050781 496.960938 176.921875 485.640625 176.921875 472.890625 L 176.921875 167.960938 C 176.921875 166.339844 177.019531 164.75 177.210938 163.191406 C 177.269531 162.671875 177.351562 162.160156 177.429688 161.640625 C 177.441406 161.609375 177.441406 161.570312 177.449219 161.539062 C 177.53125 161.03125 177.621094 160.519531 177.730469 160.019531 C 177.789062 159.730469 177.851562 159.441406 177.921875 159.160156 C 177.980469 158.878906 178.050781 158.601562 178.128906 158.320312 C 178.761719 155.789062 179.648438 153.371094 180.761719 151.070312 C 180.929688 150.730469 181.089844 150.398438 181.269531 150.058594 C 181.570312 149.480469 181.890625 148.898438 182.21875 148.339844 C 182.359375 148.089844 182.511719 147.851562 182.660156 147.609375 C 182.800781 147.371094 182.960938 147.128906 183.109375 146.898438 C 183.261719 146.660156 183.410156 146.429688 183.570312 146.191406 C 190.570312 135.820312 202.441406 129 215.890625 129 L 375.191406 129 C 396.710938 129 414.148438 146.441406 414.148438 167.960938 Z M 414.148438 167.960938 " style=" stroke:none;fill-rule:nonzero;fill:rgb(92.941176%,46.666667%,10.588235%);fill-opacity:1;" />
<path d="M 465.378906 372.558594 L 465.378906 403.320312 C 451.011719 423.710938 433.730469 441.910156 414.148438 457.320312 C 407.960938 462.191406 401.53125 466.789062 394.890625 471.078125 C 384.511719 477.800781 373.609375 483.78125 362.269531 488.960938 L 362.269531 337.679688 L 430.5 337.679688 C 449.761719 337.679688 465.378906 353.289062 465.378906 372.558594 Z M 465.378906 372.558594 " style=" stroke:none;fill-rule:nonzero;fill:rgb(47.843137%,17.647059%,10.196078%);fill-opacity:1;" />
<path d="M 414.148438 167.960938 L 414.148438 457.320312 C 407.960938 462.191406 401.53125 466.789062 394.890625 471.078125 C 384.511719 477.800781 373.609375 483.78125 362.269531 488.960938 C 332.390625 502.621094 299.421875 510.699219 264.699219 511.851562 L 256 511.851562 L 256 129 L 375.191406 129 C 396.710938 129 414.148438 146.441406 414.148438 167.960938 Z M 414.148438 167.960938 " style=" stroke:none;fill-rule:nonzero;fill:rgb(65.098039%,22.352941%,7.843137%);fill-opacity:1;" />
<path d="M 396.730469 184.828125 L 396.730469 260.511719 L 379.730469 260.511719 L 379.730469 184.828125 C 379.730469 172.878906 370.039062 163.191406 358.089844 163.191406 L 153.910156 163.191406 C 141.960938 163.191406 132.269531 172.878906 132.269531 184.828125 L 132.269531 260.511719 L 115.269531 260.511719 L 115.269531 184.828125 C 115.269531 163.488281 132.570312 146.191406 153.910156 146.191406 L 358.089844 146.191406 C 379.429688 146.191406 396.730469 163.488281 396.730469 184.828125 Z M 396.730469 184.828125 " style=" stroke:none;fill-rule:nonzero;fill:rgb(45.490196%,49.411765%,61.960784%);fill-opacity:1;" />
<path d="M 396.730469 184.828125 L 396.730469 252.011719 C 396.730469 256.703125 392.925781 260.511719 388.230469 260.511719 C 383.535156 260.511719 379.730469 256.703125 379.730469 252.011719 L 379.730469 184.828125 C 379.730469 172.878906 370.039062 163.191406 358.089844 163.191406 L 177.210938 163.191406 C 177.96875 156.941406 180.210938 151.160156 183.570312 146.191406 L 358.089844 146.191406 C 379.429688 146.191406 396.730469 163.488281 396.730469 184.828125 Z M 396.730469 184.828125 " style=" stroke:none;fill-rule:nonzero;fill:rgb(27.843137%,30.980392%,43.529412%);fill-opacity:1;" />
<path d="M 394.890625 400.960938 L 394.890625 471.078125 C 384.511719 477.800781 373.609375 483.78125 362.269531 488.960938 C 332.390625 502.621094 299.421875 510.699219 264.699219 511.851562 C 261.808594 511.949219 258.910156 512 256 512 C 253.089844 512 250.191406 511.949219 247.300781 511.851562 C 233.28125 511.390625 219.550781 509.789062 206.191406 507.148438 L 206.179688 507.148438 C 201.589844 506.25 197.03125 505.21875 192.53125 504.070312 L 192.519531 504.070312 C 177.699219 500.28125 163.390625 495.210938 149.730469 488.960938 C 138.390625 483.78125 127.488281 477.800781 117.109375 471.078125 L 117.109375 400.960938 C 117.109375 381.75 131.28125 365.839844 149.730469 363.101562 C 151.578125 362.820312 153.46875 362.679688 155.398438 362.679688 L 356.601562 362.679688 C 357.078125 362.679688 357.558594 362.691406 358.039062 362.710938 C 358.359375 362.71875 358.671875 362.738281 358.988281 362.761719 C 359.101562 362.761719 359.210938 362.769531 359.320312 362.78125 C 359.558594 362.789062 359.800781 362.820312 360.039062 362.839844 C 360.789062 362.898438 361.53125 362.988281 362.269531 363.101562 C 362.558594 363.140625 362.851562 363.191406 363.128906 363.238281 C 363.421875 363.289062 363.699219 363.339844 363.988281 363.398438 C 364.558594 363.5 365.121094 363.628906 365.679688 363.769531 C 366.238281 363.898438 366.789062 364.050781 367.339844 364.210938 C 368.441406 364.53125 369.519531 364.898438 370.570312 365.308594 C 370.738281 365.378906 370.898438 365.441406 371.070312 365.511719 C 371.710938 365.769531 372.339844 366.050781 372.960938 366.339844 C 373.140625 366.429688 373.328125 366.519531 373.511719 366.609375 C 373.679688 366.691406 373.851562 366.78125 374.03125 366.871094 C 374.410156 367.058594 374.78125 367.261719 375.148438 367.46875 C 375.640625 367.738281 376.128906 368.019531 376.601562 368.320312 C 377.078125 368.609375 377.539062 368.910156 378 369.210938 C 378.511719 369.558594 379.019531 369.921875 379.5 370.28125 C 379.910156 370.589844 380.308594 370.898438 380.699219 371.21875 C 381.308594 371.710938 381.910156 372.230469 382.480469 372.75 C 382.660156 372.921875 382.839844 373.078125 383.011719 373.25 C 383.121094 373.351562 383.230469 373.460938 383.339844 373.570312 C 383.558594 373.78125 383.78125 374 383.988281 374.21875 C 384.238281 374.46875 384.480469 374.71875 384.710938 374.980469 C 384.890625 375.171875 385.058594 375.359375 385.230469 375.550781 C 385.609375 375.96875 385.96875 376.398438 386.328125 376.839844 C 386.679688 377.269531 387.03125 377.71875 387.359375 378.171875 C 387.488281 378.339844 387.621094 378.519531 387.75 378.699219 C 387.960938 378.988281 388.160156 379.28125 388.359375 379.578125 C 388.53125 379.820312 388.691406 380.070312 388.851562 380.328125 C 389.03125 380.601562 389.199219 380.871094 389.359375 381.148438 C 389.519531 381.398438 389.671875 381.648438 389.808594 381.910156 C 390.339844 382.808594 390.820312 383.75 391.269531 384.699219 C 391.398438 384.980469 391.53125 385.261719 391.648438 385.539062 C 392.03125 386.390625 392.371094 387.25 392.679688 388.128906 C 392.78125 388.390625 392.871094 388.660156 392.960938 388.929688 C 393.058594 389.238281 393.160156 389.558594 393.261719 389.878906 C 393.351562 390.171875 393.429688 390.460938 393.511719 390.75 C 393.671875 391.308594 393.808594 391.878906 393.941406 392.449219 C 393.988281 392.679688 394.039062 392.910156 394.089844 393.148438 C 394.128906 393.351562 394.179688 393.558594 394.210938 393.769531 C 394.28125 394.109375 394.339844 394.449219 394.390625 394.789062 C 394.441406 395.078125 394.480469 395.371094 394.519531 395.648438 C 394.699219 396.929688 394.820312 398.21875 394.859375 399.53125 C 394.878906 400 394.890625 400.480469 394.890625 400.960938 Z M 394.890625 400.960938 " style=" stroke:none;fill-rule:nonzero;fill:rgb(100%,91.372549%,33.333333%);fill-opacity:1;" />
<path d="M 394.890625 400.960938 L 394.890625 471.078125 C 384.511719 477.800781 373.609375 483.78125 362.269531 488.960938 C 332.390625 502.621094 299.421875 510.699219 264.699219 511.851562 C 261.808594 511.949219 258.910156 512 256 512 C 253.089844 512 250.191406 511.949219 247.300781 511.851562 C 233.28125 511.390625 219.550781 509.789062 206.191406 507.148438 L 206.179688 507.148438 C 194.46875 500.601562 186.550781 488.078125 186.550781 473.710938 L 186.550781 400.960938 C 186.550781 379.820312 203.710938 362.679688 224.851562 362.679688 L 356.601562 362.679688 C 357.078125 362.679688 357.558594 362.691406 358.039062 362.710938 C 358.359375 362.71875 358.671875 362.738281 358.988281 362.761719 C 359.101562 362.761719 359.210938 362.769531 359.320312 362.78125 C 359.558594 362.789062 359.800781 362.820312 360.039062 362.839844 C 360.789062 362.898438 361.53125 362.988281 362.269531 363.101562 C 362.558594 363.140625 362.851562 363.191406 363.128906 363.238281 C 363.421875 363.289062 363.699219 363.339844 363.988281 363.398438 C 364.558594 363.5 365.121094 363.628906 365.679688 363.769531 C 366.238281 363.898438 366.789062 364.050781 367.339844 364.210938 C 368.441406 364.53125 369.519531 364.898438 370.570312 365.308594 C 370.738281 365.378906 370.898438 365.441406 371.070312 365.511719 C 371.710938 365.769531 372.339844 366.050781 372.960938 366.339844 C 373.140625 366.429688 373.328125 366.519531 373.511719 366.609375 C 373.679688 366.691406 373.851562 366.78125 374.03125 366.871094 C 374.410156 367.058594 374.78125 367.261719 375.148438 367.46875 C 375.640625 367.738281 376.128906 368.019531 376.601562 368.320312 C 377.078125 368.609375 377.539062 368.910156 378 369.210938 C 378.511719 369.558594 379.019531 369.921875 379.5 370.28125 C 379.910156 370.589844 380.308594 370.898438 380.699219 371.21875 C 381.308594 371.710938 381.910156 372.230469 382.480469 372.75 C 382.660156 372.921875 382.839844 373.078125 383.011719 373.25 C 383.121094 373.351562 383.230469 373.460938 383.339844 373.570312 C 383.558594 373.78125 383.78125 374 383.988281 374.21875 C 384.238281 374.46875 384.480469 374.71875 384.710938 374.980469 C 384.890625 375.171875 385.058594 375.359375 385.230469 375.550781 C 385.609375 375.96875 385.96875 376.398438 386.328125 376.839844 C 386.679688 377.269531 387.03125 377.71875 387.359375 378.171875 C 387.488281 378.339844 387.621094 378.519531 387.75 378.699219 C 387.960938 378.988281 388.160156 379.28125 388.359375 379.578125 C 388.53125 379.820312 388.691406 380.070312 388.851562 380.328125 C 389.03125 380.601562 389.199219 380.871094 389.359375 381.148438 C 389.519531 381.398438 389.671875 381.648438 389.808594 381.910156 C 390.339844 382.808594 390.820312 383.75 391.269531 384.699219 C 391.398438 384.980469 391.53125 385.261719 391.648438 385.539062 C 392.03125 386.390625 392.371094 387.25 392.679688 388.128906 C 392.78125 388.390625 392.871094 388.660156 392.960938 388.929688 C 393.058594 389.238281 393.160156 389.558594 393.261719 389.878906 C 393.351562 390.171875 393.429688 390.460938 393.511719 390.75 C 393.671875 391.308594 393.808594 391.878906 393.941406 392.449219 C 393.988281 392.679688 394.039062 392.910156 394.089844 393.148438 C 394.128906 393.351562 394.179688 393.558594 394.210938 393.769531 C 394.28125 394.109375 394.339844 394.449219 394.390625 394.789062 C 394.441406 395.078125 394.480469 395.371094 394.519531 395.648438 C 394.699219 396.929688 394.820312 398.21875 394.859375 399.53125 C 394.878906 400 394.890625 400.480469 394.890625 400.960938 Z M 394.890625 400.960938 " style=" stroke:none;fill-rule:nonzero;fill:rgb(100%,81.960784%,7.058824%);fill-opacity:1;" />
<path d="M 394.890625 400.960938 L 394.890625 471.078125 C 384.511719 477.800781 373.609375 483.78125 362.269531 488.960938 C 332.390625 502.621094 299.421875 510.699219 264.699219 511.851562 L 256 511.851562 L 256 362.679688 L 356.601562 362.679688 C 357.078125 362.679688 357.558594 362.691406 358.039062 362.710938 C 358.359375 362.71875 358.671875 362.738281 358.988281 362.761719 C 359.101562 362.761719 359.210938 362.769531 359.320312 362.78125 C 359.558594 362.789062 359.800781 362.820312 360.039062 362.839844 C 360.789062 362.898438 361.53125 362.988281 362.269531 363.101562 C 362.558594 363.140625 362.851562 363.191406 363.128906 363.238281 C 363.421875 363.289062 363.699219 363.339844 363.988281 363.398438 C 364.558594 363.5 365.121094 363.628906 365.679688 363.769531 C 366.238281 363.898438 366.789062 364.050781 367.339844 364.210938 C 368.441406 364.53125 369.519531 364.898438 370.570312 365.308594 C 370.738281 365.378906 370.898438 365.441406 371.070312 365.511719 C 371.710938 365.769531 372.339844 366.050781 372.960938 366.339844 C 373.140625 366.429688 373.328125 366.519531 373.511719 366.609375 C 373.679688 366.691406 373.851562 366.78125 374.03125 366.871094 C 374.410156 367.058594 374.78125 367.261719 375.148438 367.46875 C 375.640625 367.738281 376.128906 368.019531 376.601562 368.320312 C 377.078125 368.609375 377.539062 368.910156 378 369.210938 C 378.511719 369.558594 379.019531 369.921875 379.5 370.28125 C 379.910156 370.589844 380.308594 370.898438 380.699219 371.21875 C 381.308594 371.710938 381.910156 372.230469 382.480469 372.75 C 382.660156 372.921875 382.839844 373.078125 383.011719 373.25 C 383.121094 373.351562 383.230469 373.460938 383.339844 373.570312 C 383.558594 373.78125 383.78125 374 383.988281 374.21875 C 384.238281 374.46875 384.480469 374.71875 384.710938 374.980469 C 384.890625 375.171875 385.058594 375.359375 385.230469 375.550781 C 385.609375 375.96875 385.96875 376.398438 386.328125 376.839844 C 386.679688 377.269531 387.03125 377.71875 387.359375 378.171875 C 387.488281 378.339844 387.621094 378.519531 387.75 378.699219 C 387.960938 378.988281 388.160156 379.28125 388.359375 379.578125 C 388.53125 379.820312 388.691406 380.070312 388.851562 380.328125 C 389.03125 380.601562 389.199219 380.871094 389.359375 381.148438 C 389.519531 381.398438 389.671875 381.648438 389.808594 381.910156 C 390.339844 382.808594 390.820312 383.75 391.269531 384.699219 C 391.398438 384.980469 391.53125 385.261719 391.648438 385.539062 C 392.03125 386.390625 392.371094 387.25 392.679688 388.128906 C 392.78125 388.390625 392.871094 388.660156 392.960938 388.929688 C 393.058594 389.238281 393.160156 389.558594 393.261719 389.878906 C 393.351562 390.171875 393.429688 390.460938 393.511719 390.75 C 393.671875 391.308594 393.808594 391.878906 393.941406 392.449219 C 393.988281 392.679688 394.039062 392.910156 394.089844 393.148438 C 394.128906 393.351562 394.179688 393.558594 394.210938 393.769531 C 394.28125 394.109375 394.339844 394.449219 394.390625 394.789062 C 394.441406 395.078125 394.480469 395.371094 394.519531 395.648438 C 394.699219 396.929688 394.820312 398.21875 394.859375 399.53125 C 394.878906 400 394.890625 400.480469 394.890625 400.960938 Z M 394.890625 400.960938 " style=" stroke:none;fill-rule:nonzero;fill:rgb(100%,62.352941%,0%);fill-opacity:1;" />
<path d="M 150.054688 390.675781 L 361.945312 390.675781 L 361.945312 407.675781 L 150.054688 407.675781 Z M 150.054688 390.675781 " style=" stroke:none;fill-rule:nonzero;fill:rgb(19.607843%,23.137255%,35.294118%);fill-opacity:1;" />
<path d="M 289.429688 235.191406 L 269.839844 254.78125 C 266.019531 258.601562 261.011719 260.511719 256 260.511719 C 250.988281 260.511719 245.980469 258.601562 242.160156 254.78125 L 222.570312 235.191406 C 214.929688 227.539062 214.929688 215.160156 222.570312 207.511719 L 242.160156 187.921875 C 245.980469 184.101562 250.988281 182.191406 256 182.191406 C 261.011719 182.191406 266.019531 184.101562 269.839844 187.921875 L 289.429688 207.511719 C 297.070312 215.160156 297.070312 227.539062 289.429688 235.191406 Z M 289.429688 235.191406 " style=" stroke:none;fill-rule:nonzero;fill:rgb(100%,91.372549%,33.333333%);fill-opacity:1;" />
<path d="M 289.429688 235.191406 L 269.839844 254.78125 C 266.019531 258.601562 261.011719 260.511719 256 260.511719 L 256 182.191406 C 261.011719 182.191406 266.019531 184.101562 269.839844 187.921875 L 289.429688 207.511719 C 297.070312 215.160156 297.070312 227.539062 289.429688 235.191406 Z M 289.429688 235.191406 " style=" stroke:none;fill-rule:nonzero;fill:rgb(100%,81.960784%,7.058824%);fill-opacity:1;" />
<path d="M 246.203125 238.5 C 242.890625 238.5 240.203125 235.8125 240.203125 232.5 L 240.203125 210.5 C 240.203125 207.1875 242.890625 204.5 246.203125 204.5 C 249.515625 204.5 252.203125 207.1875 252.203125 210.5 L 252.203125 232.5 C 252.203125 235.8125 249.515625 238.5 246.203125 238.5 Z M 246.203125 238.5 " style=" stroke:none;fill-rule:nonzero;fill:rgb(19.607843%,23.137255%,35.294118%);fill-opacity:1;" />
<path d="M 265.796875 238.5 C 262.484375 238.5 259.796875 235.8125 259.796875 232.5 L 259.796875 210.5 C 259.796875 207.1875 262.484375 204.5 265.796875 204.5 C 269.109375 204.5 271.796875 207.1875 271.796875 210.5 L 271.796875 232.5 C 271.796875 235.8125 269.109375 238.5 265.796875 238.5 Z M 265.796875 238.5 " style=" stroke:none;fill-rule:nonzero;fill:rgb(19.607843%,23.137255%,35.294118%);fill-opacity:1;" />
<path d="M 396.730469 176.328125 L 396.730469 260.511719 L 379.730469 260.511719 L 379.730469 176.328125 C 379.730469 169.074219 373.847656 163.191406 366.589844 163.191406 L 256 163.191406 L 256 146.191406 L 366.589844 146.191406 C 383.234375 146.191406 396.730469 159.683594 396.730469 176.328125 Z M 396.730469 176.328125 " style=" stroke:none;fill-rule:nonzero;fill:rgb(19.607843%,23.137255%,35.294118%);fill-opacity:1;" />
</g>
</svg>